  0
SECTION
  2
HEADER
  9
$ACADVER
  1
AC1009
  9
$INSBASE
 10
0
 20
0
 30
0
  9
$EXTMIN
 10
0
 20
0
  9
$EXTMAX
 10
841
 20
594
  9
$LIMMIN
 10
0
 20
0
  9
$LIMMAX
 10
841
 20
594
  9
$LTSCALE
 40
1
  0
ENDSEC
  0
SECTION
  2
TABLES
  0
TABLE
  2
LTYPE
 70
     9
  0
LTYPE
  2
CONTINUOUS
 70
    64
  3
実線
 72
    65
 73
     0
 40
0.0
  0
LTYPE
  2
DASHED1
 70
    64
  3
--  --  --  --  --  --  --  --  
 72
    65
 73
     2
 40
2.5
 49
1.25
 49
-1.25
  0
LTYPE
  2
DASHED2
 70
    64
  3
----    ----    ----    ----    
 72
    65
 73
     2
 40
5.0
 49
2.5
 49
-2.5
  0
LTYPE
  2
DASHED3
 70
    64
  3
------  ------  ------  ------  
 72
    65
 73
     2
 40
5.0
 49
3.75
 49
-1.25
  0
LTYPE
  2
CENTER1
 70
    64
  3
----- - ----- - ----- - ----- - 
 72
    65
 73
     4
 40
10.0
 49
6.25
 49
-1.25
 49
1.25
 49
-1.25
  0
LTYPE
  2
CENTER2
 70
    64
  3
----------  --  ----------  --  
 72
    65
 73
     4
 40
20.0
 49
12.5
 49
-2.5
 49
2.5
 49
-2.5
  0
LTYPE
  2
PHANTOM1
 70
    64
  3
--- - - --- - - --- - - --- - - 
 72
    65
 73
     6
 40
10.0
 49
3.25
 49
-1.25
 49
1.25
 49
-1.25
 49
1.25
 49
-1.25
  0
LTYPE
  2
PHANTOM2
 70
    64
  3
--------  -  -  --------  -  -  
 72
    65
 73
     6
 40
20.0
 49
10.0
 49
-2.5
 49
1.25
 49
-2.5
 49
1.25
 49
-2.5
  0
LTYPE
  2
DOT
 70
    64
  3
-   -   -   -   -   -   -   -   
 72
    65
 73
     2
 40
2.5
 49
0.625
 49
-1.875
  0
LTYPE
  2
DUMMY
 70
    64
  3
ダミー
 72
    65
 73
     0
 40
0.0
  0
LTYPE
  2
RAND1
 70
    64
  3
ランダム線1
 72
    65
 73
     4
 40
10.0
 49
1.0
 49
-2.0
 49
3.0
 49
-4.0
  0
LTYPE
  2
RAND2
 70
    64
  3
ランダム線2
 72
    65
 73
     4
 40
14.0
 49
2.0
 49
-3.0
 49
4.0
 49
-5.0
  0
LTYPE
  2
RAND3
 70
    64
  3
ランダム線3
 72
    65
 73
     4
 40
18.0
 49
3.0
 49
-4.0
 49
5.0
 49
-6.0
  0
LTYPE
  2
RAND4
 70
    64
  3
ランダム線4
 72
    65
 73
     4
 40
22.0
 49
4.0
 49
-5.0
 49
6.0
 49
-7.0
  0
LTYPE
  2
RAND5
 70
    64
  3
ランダム線5
 72
    65
 73
     4
 40
26.0
 49
5.0
 49
-6.0
 49
7.0
 49
-8.0
  0
LTYPE
  2
LONG1
 70
    64
  3
----------  --  ----------  --  
 72
    65
 73
     4
 40
40.0
 49
32.5
 49
-2.5
 49
2.5
 49
-2.5
  0
LTYPE
  2
LONG2
 70
    64
  3
--------  -  -  --------  -  -  
 72
    65
 73
     6
 40
40.0
 49
30.0
 49
-2.5
 49
1.25
 49
-2.5
 49
1.25
 49
-2.5
  0
LTYPE
  2
LONG3
 70
    64
  3
+++++++++++++++..+++++++++++++++
 72
    65
 73
     2
 40
40.0
 49
37.5
 49
-2.5
  0
LTYPE
  2
LONG4
 70
    64
  3
+++++++++++++++..+++++++++++++++
 72
    65
 73
     2
 40
80.0
 49
75.0
 49
-5.0
  0
LTYPE
  2
LONG5
 70
    64
  3
----------  --  ----------  --  
 72
    65
 73
     4
 40
60.0
 49
37.5
 49
-7.5
 49
7.5
 49
-7.5
  0
LTYPE
  2
dashed
 70
   64
  3
-------   -------------   ------
 72
   65
 73
    2
 40
7.5
 49
6
 49
-1.5
  0
LTYPE
  2
dashed_spaced
 70
   64
  3
----        --------        ----
 72
   65
 73
    2
 40
12
 49
6
 49
-6
  0
LTYPE
  2
long_dashed_dotted
 70
   64
  3
------------- --- --------------
 72
   65
 73
    4
 40
15.25
 49
12
 49
-1.5
 49
0.25
 49
-1.5
  0
LTYPE
  2
long_dashed_double-dotted
 70
   64
  3
----------- --- --- ------------
 72
   65
 73
    6
 40
17
 49
12
 49
-1.5
 49
0.25
 49
-1.5
 49
0.25
 49
-1.5
  0
LTYPE
  2
long_dashed_triplicate-dotted
 70
   64
  3
--------- --- --- --- ----------
 72
   65
 73
    8
 40
18.75
 49
12
 49
-1.5
 49
0.25
 49
-1.5
 49
0.25
 49
-1.5
 49
0.25
 49
-1.5
  0
LTYPE
  2
dotted
 70
   64
  3
   -       -       -       -    
 72
   65
 73
    2
 40
1.75
 49
0.25
 49
-1.5
  0
LTYPE
  2
chain
 70
   64
  3
-------------- -- --------------
 72
   65
 73
    4
 40
18.5
 49
12
 49
-1.5
 49
3.5
 49
-1.5
  0
LTYPE
  2
chain_double_dash
 70
   64
  3
------------ -- -- -------------
 72
   65
 73
    6
 40
23.5
 49
12
 49
-1.5
 49
3.5
 49
-1.5
 49
3.5
 49
-1.5
  0
LTYPE
  2
dashed_dotted
 70
   64
  3
-----------     -     ----------
 72
   65
 73
    4
 40
9.25
 49
6
 49
-1.5
 49
0.25
 49
-1.5
  0
LTYPE
  2
double-dashed_dotted
 70
   64
  3
------   -----------   -   -----
 72
   65
 73
    6
 40
16.75
 49
6
 49
-1.5
 49
6
 49
-1.5
 49
0.25
 49
-1.5
  0
LTYPE
  2
dashed_double-dotted
 70
   64
  3
---------    -    -    ---------
 72
   65
 73
    6
 40
11
 49
6
 49
-1.5
 49
0.25
 49
-1.5
 49
0.25
 49
-1.5
  0
LTYPE
  2
double-dashed_double-dotted
 70
   64
  3
-----   ---------   -   -   ----
 72
   65
 73
    8
 40
18.5
 49
6
 49
-1.5
 49
6
 49
-1.5
 49
0.25
 49
-1.5
 49
0.25
 49
-1.5
  0
LTYPE
  2
dashed_triplicate-dotted
 70
   64
  3
-------    -    -    -    ------
 72
   65
 73
    8
 40
12.75
 49
6
 49
-1.5
 49
0.25
 49
-1.5
 49
0.25
 49
-1.5
 49
0.25
 49
-1.5
  0
LTYPE
  2
double-dashed_triplicate-dotted
 70
   64
  3
-----  ---------  -  -  -  -----
 72
   65
 73
   10
 40
20.25
 49
6
 49
-1.5
 49
6
 49
-1.5
 49
0.25
 49
-1.5
 49
0.25
 49
-1.5
 49
0.25
 49
-1.5
  0
LTYPE
  2
undefined
 70
   64
  3
--------------------------------
 72
   65
 73
    0
 40
0
  0
LTYPE
  2
_
 70
   64
  3
                                
 72
   65
 73
    0
 40
0
  0
LTYPE
  2
__18
 70
   64
  3
                                
 72
   65
 73
    0
 40
0
  0
LTYPE
  2
__19
 70
   64
  3
                                
 72
   65
 73
    0
 40
0
  0
LTYPE
  2
__20
 70
   64
  3
                                
 72
   65
 73
    0
 40
0
  0
LTYPE
  2
__21
 70
   64
  3
                                
 72
   65
 73
    0
 40
0
  0
LTYPE
  2
__22
 70
   64
  3
                                
 72
   65
 73
    0
 40
0
  0
LTYPE
  2
__23
 70
   64
  3
                                
 72
   65
 73
    0
 40
0
  0
LTYPE
  2
__24
 70
   64
  3
                                
 72
   65
 73
    0
 40
0
  0
LTYPE
  2
__25
 70
   64
  3
                                
 72
   65
 73
    0
 40
0
  0
LTYPE
  2
__26
 70
   64
  3
                                
 72
   65
 73
    0
 40
0
  0
LTYPE
  2
__27
 70
   64
  3
                                
 72
   65
 73
    0
 40
0
  0
LTYPE
  2
__28
 70
   64
  3
                                
 72
   65
 73
    0
 40
0
  0
LTYPE
  2
__29
 70
   64
  3
                                
 72
   65
 73
    0
 40
0
  0
LTYPE
  2
__30
 70
   64
  3
                                
 72
   65
 73
    0
 40
0
  0
LTYPE
  2
__31
 70
   64
  3
                                
 72
   65
 73
    0
 40
0
  0
LTYPE
  2
__32
 70
   64
  3
                                
 72
   65
 73
    0
 40
0
  0
ENDTAB
  0
TABLE
  2
STYLE
  5
3
100
AcDbSymbolTable
 70
     1
  0
STYLE
  5
10
100
AcDbSymbolTableRecord
100
AcDbTextStyleTableRecord
  2
STANDARD
 70
     0
 40
0.0
 41
1.0
 50
0.0
 71
     0
 42
0.2
  3
txt
  4
bigfont.shx
  0
STYLE
  5
26
100
AcDbSymbolTableRecord
100
AcDbTextStyleTableRecord
  2
TATEGAKI
 70
    68
 40
0.0
 41
1.0
 50
0.0
 71
     0
 42
1.0
  3
txt
  4
bigfont.shx
  0
ENDTAB
  0
TABLE
  2
LAYER
 70
    2
  0
LAYER
  2
_0-0_
 70
   64
 62
    7
  6
CONTINUOUS
  0
LAYER
  2
ADD_LINE
 70
   64
 62
    7
  6
CONTINUOUS
  0
ENDTAB
  0
ENDSEC
  0
SECTION
  2
BLOCKS
  0
ENDSEC
  0
SECTION
  2
ENTITIES
  0
LINE
  8
_0-0_
  6
CONTINUOUS
 62
    7
 10
293.70328156306005
 20
277.6725207196144
 11
293.70328156306005
 21
278.99137015724028
  0
ARC
  8
_0-0_
  6
CONTINUOUS
 62
    7
 10
294.1776365630601
 20
319.55369128198845
 40
10
 50
180
 51
194.03713868216576
  0
LINE
  8
_0-0_
  6
CONTINUOUS
 62
    7
 10
293.40466866850579
 20
281.41687798660149
 11
284.47624945761436
 21
317.12818345262724
  0
ARC
  8
_0-0_
  6
CONTINUOUS
 62
    7
 10
285.1776365630601
 20
388.99725571961449
 40
1
 50
90
 51
180
  0
ARC
  8
_0-0_
  6
CONTINUOUS
 62
    7
 10
294.70328156306005
 20
257.17252071961434
 40
1
 50
180
 51
270
  0
LINE
  8
_0-0_
  6
CONTINUOUS
 62
    7
 10
290.52818177960569
 20
389.99725571961449
 11
285.1776365630601
 21
389.99725571961449
  0
LINE
  8
_0-0_
  6
CONTINUOUS
 62
    7
 10
476.91591906306002
 20
256.17252071961434
 11
294.70328156306005
 21
256.17252071961434
  0
ARC
  8
_0-0_
  6
CONTINUOUS
 62
    7
 10
476.91591906306002
 20
259.17252071961434
 40
3
 50
270
 51
0
  0
LINE
  8
_0-0_
  6
CONTINUOUS
 62
    7
 10
476.91591906306002
 20
389.99725571961449
 11
285.1776365630601
 21
389.99725571961449
  0
LINE
  8
_0-0_
  6
CONTINUOUS
 62
    7
 10
479.91591906306002
 20
386.99725571961449
 11
479.91591906306002
 21
259.17252071961434
  0
ARC
  8
_0-0_
  6
CONTINUOUS
 62
    7
 10
476.91591906306002
 20
386.99725571961449
 40
3
 50
0
 51
90
  0
CIRCLE
  8
_0-0_
  6
CONTINUOUS
 62
    7
 10
287.1776365630601
 20
386.99725571961449
 40
1.1000000000000001
  0
CIRCLE
  8
_0-0_
  6
CONTINUOUS
 62
    7
 10
296.70328156306005
 20
259.17252071961434
 40
1.1000000000000001
  0
CIRCLE
  8
_0-0_
  6
CONTINUOUS
 62
    7
 10
476.91591906306002
 20
259.17252071961434
 40
1.1000000000000001
  0
CIRCLE
  8
_0-0_
  6
CONTINUOUS
 62
    7
 10
476.91591906306002
 20
386.99725571961449
 40
1.1000000000000001
  0
LINE
  8
_0-0_
  6
CONTINUOUS
 62
    7
 10
284.1776365630601
 20
388.99725571961449
 11
284.1776365630601
 21
319.55369128198845
  0
LINE
  8
_0-0_
  6
CONTINUOUS
 62
    7
 10
293.70328156306005
 20
278.99137015724028
 11
293.70328156306005
 21
257.17252071961434
  0
ARC
  8
_0-0_
  6
CONTINUOUS
 62
    7
 10
283.70328156306005
 20
278.99137015724028
 40
10
 50
0
 51
14.037138682165798
  0
CIRCLE
  8
_0-0_
  6
CONTINUOUS
 62
    7
 10
460.01591906306004
 20
384.97252071961435
 40
1
  0
ARC
  8
_0-0_
  6
CONTINUOUS
 62
    7
 10
450.60369406306
 20
384.49725571961443
 40
1.5
 50
0
 51
90
  0
LINE
  8
_0-0_
  6
CONTINUOUS
 62
    7
 10
452.10369406306
 20
366.44725571961442
 11
452.10369406306
 21
384.49725571961443
  0
ARC
  8
_0-0_
  6
CONTINUOUS
 62
    7
 10
450.60369406306
 20
366.44725571961442
 40
1.5
 50
270
 51
0
  0
LINE
  8
_0-0_
  6
CONTINUOUS
 62
    7
 10
375.40339406305998
 20
364.94725571961442
 11
450.60369406306
 21
364.94725571961442
  0
ARC
  8
_0-0_
  6
CONTINUOUS
 62
    7
 10
375.40339406305998
 20
366.44725571961442
 40
1.5
 50
180
 51
270
  0
LINE
  8
_0-0_
  6
CONTINUOUS
 62
    7
 10
373.90339406305998
 20
384.49725571961443
 11
373.90339406305998
 21
366.44725571961442
  0
LINE
  8
_0-0_
  6
CONTINUOUS
 62
    7
 10
375.40339406305998
 20
385.99725571961443
 11
450.60369406306
 21
385.99725571961443
  0
ARC
  8
_0-0_
  6
CONTINUOUS
 62
    7
 10
375.40339406305998
 20
384.49725571961443
 40
1.5
 50
90
 51
180
  0
ARC
  8
_0-0_
  6
CONTINUOUS
 62
    7
 10
289.67834406306002
 20
384.49725571961443
 40
1.5
 50
90
 51
180
  0
LINE
  8
_0-0_
  6
CONTINUOUS
 62
    7
 10
288.17834406306002
 20
366.44725571961442
 11
288.17834406306002
 21
384.49725571961443
  0
ARC
  8
_0-0_
  6
CONTINUOUS
 62
    7
 10
289.67834406306002
 20
366.44725571961442
 40
1.5
 50
180
 51
270
  0
LINE
  8
_0-0_
  6
CONTINUOUS
 62
    7
 10
364.87839406306011
 20
364.94725571961442
 11
289.67834406306002
 21
364.94725571961442
  0
ARC
  8
_0-0_
  6
CONTINUOUS
 62
    7
 10
364.87839406306011
 20
366.44725571961442
 40
1.5
 50
270
 51
0
  0
LINE
  8
_0-0_
  6
CONTINUOUS
 62
    7
 10
366.37839406306011
 20
384.49725571961443
 11
366.37839406306011
 21
366.44725571961442
  0
LINE
  8
_0-0_
  6
CONTINUOUS
 62
    7
 10
364.87839406306011
 20
385.99725571961443
 11
289.67834406306002
 21
385.99725571961443
  0
ARC
  8
_0-0_
  6
CONTINUOUS
 62
    7
 10
364.87839406306011
 20
384.49725571961443
 40
1.5
 50
0
 51
90
  0
ARC
  8
_0-0_
  6
CONTINUOUS
 62
    7
 10
299.2033940630601
 20
355.92265571961445
 40
1.5
 50
90
 51
180
  0
LINE
  8
_0-0_
  6
CONTINUOUS
 62
    7
 10
450.60369406306
 20
357.42265571961445
 11
299.2033940630601
 21
357.42265571961445
  0
ARC
  8
_0-0_
  6
CONTINUOUS
 62
    7
 10
450.60369406306
 20
355.92265571961445
 40
1.5
 50
0
 51
90
  0
ARC
  8
_0-0_
  6
CONTINUOUS
 62
    7
 10
456.36569406306006
 20
355.92265571961445
 40
1.5
 50
90
 51
180
  0
LINE
  8
_0-0_
  6
CONTINUOUS
 62
    7
 10
474.41569406306002
 20
357.42265571961445
 11
456.36569406306006
 21
357.42265571961445
  0
ARC
  8
_0-0_
  6
CONTINUOUS
 62
    7
 10
474.41569406306002
 20
355.92265571961445
 40
1.5
 50
0
 51
90
  0
LINE
  8
_0-0_
  6
CONTINUOUS
 62
    7
 10
454.86569406306006
 20
261.67275571961437
 11
454.86569406306006
 21
355.92265571961445
  0
ARC
  8
_0-0_
  6
CONTINUOUS
 62
    7
 10
456.36569406306006
 20
261.67275571961437
 40
1.5
 50
180
 51
270
  0
LINE
  8
_0-0_
  6
CONTINUOUS
 62
    7
 10
474.41569406306002
 20
260.17275571961437
 11
456.36569406306006
 21
260.17275571961437
  0
LINE
  8
_0-0_
  6
CONTINUOUS
 62
    7
 10
475.91569406306002
 20
261.67275571961437
 11
475.91569406306002
 21
355.92265571961445
  0
ARC
  8
_0-0_
  6
CONTINUOUS
 62
    7
 10
474.41569406306002
 20
261.67275571961437
 40
1.5
 50
270
 51
0
  0
LINE
  8
_0-0_
  6
CONTINUOUS
 62
    7
 10
452.10369406306
 20
261.67275571961437
 11
452.10369406306
 21
355.92265571961445
  0
ARC
  8
_0-0_
  6
CONTINUOUS
 62
    7
 10
450.60369406306
 20
261.67275571961437
 40
1.5
 50
270
 51
0
  0
LINE
  8
_0-0_
  6
CONTINUOUS
 62
    7
 10
308.72805826031015
 20
260.17275571961437
 11
450.60369406306
 21
260.17275571961437
  0
ARC
  8
_0-0_
  6
CONTINUOUS
 62
    7
 10
308.72805826031015
 20
261.67275571961437
 40
1.5
 50
180
 51
270
  0
LINE
  8
_0-0_
  6
CONTINUOUS
 62
    7
 10
307.22805826031015
 20
277.72270571961445
 11
307.22805826031015
 21
261.67275571961437
  0
ARC
  8
_0-0_
  6
CONTINUOUS
 62
    7
 10
305.72805826031015
 20
277.72270571961445
 40
1.5
 50
0
 51
90
  0
LINE
  8
_0-0_
  6
CONTINUOUS
 62
    7
 10
303.96589406306003
 20
279.22270571961445
 11
305.72805826031015
 21
279.22270571961445
  0
ARC
  8
_0-0_
  6
CONTINUOUS
 62
    7
 10
303.96589406306003
 20
280.72270571961445
 40
1.5
 50
180
 51
270
  0
LINE
  8
_0-0_
  6
CONTINUOUS
 62
    7
 10
302.46589406306003
 20
296.77316750461449
 11
302.46589406306003
 21
280.72270571961445
  0
ARC
  8
_0-0_
  6
CONTINUOUS
 62
    7
 10
300.96589406306003
 20
296.77316750461449
 40
1.5
 50
0
 51
90
  0
LINE
  8
_0-0_
  6
CONTINUOUS
 62
    7
 10
294.44085406306004
 20
298.27316750461449
 11
300.96589406306003
 21
298.27316750461449
  0
ARC
  8
_0-0_
  6
CONTINUOUS
 62
    7
 10
294.44085406306004
 20
299.77316750461449
 40
1.5
 50
180
 51
270
  0
LINE
  8
_0-0_
  6
CONTINUOUS
 62
    7
 10
292.94085406306004
 20
315.82316750461445
 11
292.94085406306004
 21
299.77316750461449
  0
ARC
  8
_0-0_
  6
CONTINUOUS
 62
    7
 10
291.44085406306004
 20
315.82316750461445
 40
1.5
 50
0
 51
90
  0
LINE
  8
_0-0_
  6
CONTINUOUS
 62
    7
 10
289.67834406306002
 20
317.32316750461445
 11
291.44085406306004
 21
317.32316750461445
  0
ARC
  8
_0-0_
  6
CONTINUOUS
 62
    7
 10
289.67834406306002
 20
318.82316750461445
 40
1.5
 50
180
 51
270
  0
LINE
  8
_0-0_
  6
CONTINUOUS
 62
    7
 10
288.17834406306002
 20
336.87265571961444
 11
288.17834406306002
 21
318.82316750461445
  0
ARC
  8
_0-0_
  6
CONTINUOUS
 62
    7
 10
289.67834406306002
 20
336.87265571961444
 40
1.5
 50
90
 51
180
  0
LINE
  8
_0-0_
  6
CONTINUOUS
 62
    7
 10
296.2033940630601
 20
338.37265571961444
 11
289.67834406306002
 21
338.37265571961444
  0
LINE
  8
_0-0_
  6
CONTINUOUS
 62
    7
 10
297.7033940630601
 20
339.87265571961444
 11
297.7033940630601
 21
355.92265571961445
  0
ARC
  8
_0-0_
  6
CONTINUOUS
 62
    7
 10
296.2033940630601
 20
339.87265571961444
 40
1.5
 50
270
 51
0
  0
LINE
  8
_0-0_
  6
CONTINUOUS
 62
    7
 10
113.40042232091156
 20
259.41319742602815
 11
113.40042232091156
 21
387.23793242602818
  0
LINE
  8
_0-0_
  6
CONTINUOUS
 62
    7
 10
116.40042232091156
 20
390.23793242602818
 11
279.56228982091153
 21
390.23793242602818
  0
ARC
  8
_0-0_
  6
CONTINUOUS
 62
    7
 10
116.40042232091156
 20
387.23793242602818
 40
3
 50
90
 51
180
  0
ARC
  8
_0-0_
  6
CONTINUOUS
 62
    7
 10
290.56228982091153
 20
319.7943679884022
 40
10
 50
180
 51
194.03713868216576
  0
ARC
  8
_0-0_
  6
CONTINUOUS
 62
    7
 10
279.56228982091153
 20
389.23793242602824
 40
1
 50
0
 51
90
  0
LINE
  8
_0-0_
  6
CONTINUOUS
 62
    7
 10
289.78932192635722
 20
281.6575546930153
 11
280.86090271546578
 21
317.36886015904099
  0
ARC
  8
_0-0_
  6
CONTINUOUS
 62
    7
 10
280.08793482091147
 20
279.23204686365409
 40
10
 50
0
 51
14.037138682165798
  0
ARC
  8
_0-0_
  6
CONTINUOUS
 62
    7
 10
289.08793482091147
 20
257.41319742602815
 40
1
 50
270
 51
0
  0
LINE
  8
_0-0_
  6
CONTINUOUS
 62
    7
 10
116.40042232091156
 20
256.41319742602815
 11
289.08793482091147
 21
256.41319742602815
  0
ARC
  8
_0-0_
  6
CONTINUOUS
 62
    7
 10
116.40042232091156
 20
259.41319742602815
 40
3
 50
180
 51
270
  0
CIRCLE
  8
_0-0_
  6
CONTINUOUS
 62
    7
 10
116.40042232091156
 20
387.23793242602818
 40
1.1000000000000001
  0
CIRCLE
  8
_0-0_
  6
CONTINUOUS
 62
    7
 10
116.40042232091156
 20
259.41319742602815
 40
1.1000000000000001
  0
CIRCLE
  8
_0-0_
  6
CONTINUOUS
 62
    7
 10
287.08793482091147
 20
259.41319742602815
 40
1.1000000000000001
  0
CIRCLE
  8
_0-0_
  6
CONTINUOUS
 62
    7
 10
277.56228982091153
 20
387.23793242602818
 40
1.1000000000000001
  0
LINE
  8
_0-0_
  6
CONTINUOUS
 62
    7
 10
290.08793482091147
 20
279.23204686365409
 11
290.08793482091147
 21
257.41319742602815
  0
LINE
  8
_0-0_
  6
CONTINUOUS
 62
    7
 10
280.56228982091153
 20
389.23793242602824
 11
280.56228982091153
 21
319.7943679884022
  0
CIRCLE
  8
_0-0_
  6
CONTINUOUS
 62
    7
 10
133.25042232091158
 20
385.21319742602816
 40
1
  0
ARC
  8
_0-0_
  6
CONTINUOUS
 62
    7
 10
275.06264732091154
 20
384.73793242602818
 40
1.5
 50
0
 51
90
  0
LINE
  8
_0-0_
  6
CONTINUOUS
 62
    7
 10
276.56264732091154
 20
366.68793242602817
 11
276.56264732091154
 21
384.73793242602818
  0
ARC
  8
_0-0_
  6
CONTINUOUS
 62
    7
 10
275.06264732091154
 20
366.68793242602817
 40
1.5
 50
270
 51
0
  0
ARC
  8
_0-0_
  6
CONTINUOUS
 62
    7
 10
142.71284732091152
 20
384.73793242602818
 40
1.5
 50
90
 51
180
  0
LINE
  8
_0-0_
  6
CONTINUOUS
 62
    7
 10
141.21284732091152
 20
366.68793242602817
 11
141.21284732091152
 21
384.73793242602818
  0
ARC
  8
_0-0_
  6
CONTINUOUS
 62
    7
 10
142.71284732091152
 20
366.68793242602817
 40
1.5
 50
180
 51
270
  0
ARC
  8
_0-0_
  6
CONTINUOUS
 62
    7
 10
118.90029732091153
 20
356.16333242602821
 40
1.5
 50
90
 51
180
  0
LINE
  8
_0-0_
  6
CONTINUOUS
 62
    7
 10
136.9502973209116
 20
357.66333242602821
 11
118.90029732091153
 21
357.66333242602821
  0
ARC
  8
_0-0_
  6
CONTINUOUS
 62
    7
 10
136.9502973209116
 20
356.16333242602821
 40
1.5
 50
0
 51
90
  0
LINE
  8
_0-0_
  6
CONTINUOUS
 62
    7
 10
117.40029732091153
 20
261.91343242602818
 11
117.40029732091153
 21
356.16333242602821
  0
ARC
  8
_0-0_
  6
CONTINUOUS
 62
    7
 10
118.90029732091153
 20
261.91343242602818
 40
1.5
 50
180
 51
270
  0
LINE
  8
_0-0_
  6
CONTINUOUS
 62
    7
 10
136.9502973209116
 20
260.41343242602818
 11
118.90029732091153
 21
260.41343242602818
  0
LINE
  8
_0-0_
  6
CONTINUOUS
 62
    7
 10
138.4502973209116
 20
261.91343242602818
 11
138.4502973209116
 21
356.16333242602821
  0
ARC
  8
_0-0_
  6
CONTINUOUS
 62
    7
 10
136.9502973209116
 20
261.91343242602818
 40
1.5
 50
270
 51
0
  0
ARC
  8
_0-0_
  6
CONTINUOUS
 62
    7
 10
142.71284732091152
 20
261.91343242602818
 40
1.5
 50
180
 51
270
  0
LINE
  8
_0-0_
  6
CONTINUOUS
 62
    7
 10
141.21284732091152
 20
356.16333242602821
 11
141.21284732091152
 21
261.91343242602818
  0
ARC
  8
_0-0_
  6
CONTINUOUS
 62
    7
 10
142.71284732091152
 20
356.16333242602821
 40
1.5
 50
90
 51
180
  0
LINE
  8
_0-0_
  6
CONTINUOUS
 62
    7
 10
275.06264732091154
 20
357.66333242602821
 11
142.71284732091152
 21
357.66333242602821
  0
ARC
  8
_0-0_
  6
CONTINUOUS
 62
    7
 10
275.06264732091154
 20
356.16333242602821
 40
1.5
 50
0
 51
90
  0
LINE
  8
_0-0_
  6
CONTINUOUS
 62
    7
 10
276.56264732091154
 20
338.11333242602819
 11
276.56264732091154
 21
356.16333242602821
  0
ARC
  8
_0-0_
  6
CONTINUOUS
 62
    7
 10
275.06264732091154
 20
338.11333242602819
 40
1.5
 50
270
 51
0
  0
LINE
  8
_0-0_
  6
CONTINUOUS
 62
    7
 10
268.53764732091156
 20
336.61333242602819
 11
275.06264732091154
 21
336.61333242602819
  0
ARC
  8
_0-0_
  6
CONTINUOUS
 62
    7
 10
268.53764732091156
 20
335.11333242602819
 40
1.5
 50
90
 51
180
  0
LINE
  8
_0-0_
  6
CONTINUOUS
 62
    7
 10
267.03764732091156
 20
321.06282064102817
 11
267.03764732091156
 21
335.11333242602819
  0
ARC
  8
_0-0_
  6
CONTINUOUS
 62
    7
 10
268.53764732091156
 20
321.06282064102817
 40
1.5
 50
180
 51
270
  0
LINE
  8
_0-0_
  6
CONTINUOUS
 62
    7
 10
270.30014732091155
 20
319.56282064102817
 11
268.53764732091156
 21
319.56282064102817
  0
ARC
  8
_0-0_
  6
CONTINUOUS
 62
    7
 10
270.30014732091155
 20
318.06282064102817
 40
1.5
 50
0
 51
90
  0
LINE
  8
_0-0_
  6
CONTINUOUS
 62
    7
 10
271.80014732091155
 20
302.01333242602817
 11
271.80014732091155
 21
318.06282064102817
  0
ARC
  8
_0-0_
  6
CONTINUOUS
 62
    7
 10
273.30014732091155
 20
302.01333242602817
 40
1.5
 50
180
 51
270
  0
LINE
  8
_0-0_
  6
CONTINUOUS
 62
    7
 10
275.06264732091154
 20
300.51333242602817
 11
273.30014732091155
 21
300.51333242602817
  0
ARC
  8
_0-0_
  6
CONTINUOUS
 62
    7
 10
275.06264732091154
 20
299.01333242602817
 40
1.5
 50
0
 51
90
  0
LINE
  8
_0-0_
  6
CONTINUOUS
 62
    7
 10
276.56264732091154
 20
280.46384421102823
 11
276.56264732091154
 21
299.01333242602817
  0
LINE
  8
_0-0_
  6
CONTINUOUS
 62
    7
 10
275.06370435184908
 20
260.41343242602818
 11
142.71284732091152
 21
260.41343242602818
  0
LINE
  8
_0-0_
  6
CONTINUOUS
 62
    7
 10
276.56370435184908
 20
261.91343242602818
 11
276.56370435184908
 21
280.46280519477818
  0
ARC
  8
_0-0_
  6
CONTINUOUS
 62
    7
 10
275.06370435184908
 20
261.91343242602818
 40
1.5
 50
270
 51
0
  0
LINE
  8
_0-0_
  6
CONTINUOUS
 62
    7
 10
160.76284732091159
 20
386.23793242602818
 11
142.71284732091152
 21
386.23793242602818
  0
ARC
  8
_0-0_
  6
CONTINUOUS
 62
    7
 10
160.76284732091159
 20
384.73793242602818
 40
1.5
 50
0
 51
90
  0
LINE
  8
_0-0_
  6
CONTINUOUS
 62
    7
 10
160.76284732091159
 20
365.18793242602817
 11
142.71284732091152
 21
365.18793242602817
  0
LINE
  8
_0-0_
  6
CONTINUOUS
 62
    7
 10
162.26284732091159
 20
366.68793242602817
 11
162.26284732091159
 21
384.73793242602818
  0
ARC
  8
_0-0_
  6
CONTINUOUS
 62
    7
 10
160.76284732091159
 20
366.68793242602817
 40
1.5
 50
270
 51
0
  0
ARC
  8
_0-0_
  6
CONTINUOUS
 62
    7
 10
171.28784732091157
 20
384.73793242602818
 40
1.5
 50
90
 51
180
  0
LINE
  8
_0-0_
  6
CONTINUOUS
 62
    7
 10
169.78784732091157
 20
366.68793242602817
 11
169.78784732091157
 21
384.73793242602818
  0
ARC
  8
_0-0_
  6
CONTINUOUS
 62
    7
 10
171.28784732091157
 20
366.68793242602817
 40
1.5
 50
180
 51
270
  0
LINE
  8
_0-0_
  6
CONTINUOUS
 62
    7
 10
246.48764732091149
 20
365.18793242602817
 11
171.28784732091157
 21
365.18793242602817
  0
ARC
  8
_0-0_
  6
CONTINUOUS
 62
    7
 10
246.48764732091149
 20
366.68793242602817
 40
1.5
 50
270
 51
0
  0
LINE
  8
_0-0_
  6
CONTINUOUS
 62
    7
 10
247.98764732091149
 20
384.73793242602818
 11
247.98764732091149
 21
366.68793242602817
  0
LINE
  8
_0-0_
  6
CONTINUOUS
 62
    7
 10
246.48764732091149
 20
386.23793242602818
 11
171.28784732091157
 21
386.23793242602818
  0
ARC
  8
_0-0_
  6
CONTINUOUS
 62
    7
 10
246.48764732091149
 20
384.73793242602818
 40
1.5
 50
0
 51
90
  0
LINE
  8
_0-0_
  6
CONTINUOUS
 62
    7
 10
257.01264732091158
 20
386.23793242602818
 11
275.06264732091154
 21
386.23793242602818
  0
ARC
  8
_0-0_
  6
CONTINUOUS
 62
    7
 10
257.01264732091158
 20
384.73793242602818
 40
1.5
 50
90
 51
180
  0
LINE
  8
_0-0_
  6
CONTINUOUS
 62
    7
 10
255.51264732091158
 20
366.68793242602817
 11
255.51264732091158
 21
384.73793242602818
  0
LINE
  8
_0-0_
  6
CONTINUOUS
 62
    7
 10
257.01264732091158
 20
365.18793242602817
 11
275.06264732091154
 21
365.18793242602817
  0
ARC
  8
_0-0_
  6
CONTINUOUS
 62
    7
 10
257.01264732091158
 20
366.68793242602817
 40
1.5
 50
180
 51
270
  0
LINE
  8
_0-0_
  6
CONTINUOUS
 62
    7
 10
153.6918769626011
 20
153.4773528772802
 11
153.6918769626011
 21
158.20134109228022
  0
LINE
  8
_0-0_
  6
CONTINUOUS
 62
    7
 10
152.31651571310113
 20
157.17665287728019
 11
145.31651571310113
 21
157.17665287728019
  0
LINE
  8
_0-0_
  6
CONTINUOUS
 62
    7
 10
145.31651571310113
 20
143.67665287728019
 11
145.31651571310113
 21
157.17665287728019
  0
LINE
  8
_0-0_
  6
CONTINUOUS
 62
    7
 10
152.31651571310113
 20
143.67665287728019
 11
145.31651571310113
 21
143.67665287728019
  0
LINE
  8
_0-0_
  6
CONTINUOUS
 62
    7
 10
176.11651571310119
 20
143.67665287728019
 11
169.11651571310119
 21
143.67665287728019
  0
LINE
  8
_0-0_
  6
CONTINUOUS
 62
    7
 10
176.11651571310119
 20
157.17665287728019
 11
169.11651571310119
 21
157.17665287728019
  0
LINE
  8
_0-0_
  6
CONTINUOUS
 62
    7
 10
176.11651571310119
 20
143.67665287728019
 11
176.11651571310119
 21
157.17665287728019
  0
LINE
  8
_0-0_
  6
CONTINUOUS
 62
    7
 10
152.31651571310113
 20
153.4773528772802
 11
152.31651571310113
 21
157.17665287728019
  0
LINE
  8
_0-0_
  6
CONTINUOUS
 62
    7
 10
152.31651571310113
 20
143.67665287728019
 11
152.31651571310113
 21
148.87745287728021
  0
LINE
  8
_0-0_
  6
CONTINUOUS
 62
    7
 10
169.11651571310119
 20
143.67665287728019
 11
169.11651571310119
 21
148.87745287728021
  0
LINE
  8
_0-0_
  6
CONTINUOUS
 62
    7
 10
169.11651571310119
 20
153.4773528772802
 11
169.11651571310119
 21
157.17665287728019
  0
LINE
  8
_0-0_
  6
CONTINUOUS
 62
    7
 10
112.85409071310119
 20
120.60171787728015
 11
112.85409071310119
 21
248.42645287728018
  0
LINE
  8
_0-0_
  6
CONTINUOUS
 62
    7
 10
115.85409071310119
 20
251.42645287728018
 11
279.01595821310116
 21
251.42645287728018
  0
ARC
  8
_0-0_
  6
CONTINUOUS
 62
    7
 10
115.85409071310119
 20
248.42645287728018
 40
3
 50
90
 51
180
  0
ARC
  8
_0-0_
  6
CONTINUOUS
 62
    7
 10
290.01595821310116
 20
180.9828884396542
 40
10
 50
180
 51
194.03713868216576
  0
ARC
  8
_0-0_
  6
CONTINUOUS
 62
    7
 10
279.01595821310116
 20
250.42645287728024
 40
1
 50
0
 51
90
  0
LINE
  8
_0-0_
  6
CONTINUOUS
 62
    7
 10
289.24299031854684
 20
142.8460751442673
 11
280.31457110765541
 21
178.557380610293
  0
ARC
  8
_0-0_
  6
CONTINUOUS
 62
    7
 10
279.5416032131011
 20
140.42056731490609
 40
10
 50
0
 51
14.037138682165798
  0
ARC
  8
_0-0_
  6
CONTINUOUS
 62
    7
 10
288.5416032131011
 20
118.60171787728015
 40
1
 50
270
 51
0
  0
LINE
  8
_0-0_
  6
CONTINUOUS
 62
    7
 10
115.85409071310119
 20
117.60171787728015
 11
288.5416032131011
 21
117.60171787728015
  0
ARC
  8
_0-0_
  6
CONTINUOUS
 62
    7
 10
115.85409071310119
 20
120.60171787728015
 40
3
 50
180
 51
270
  0
CIRCLE
  8
_0-0_
  6
CONTINUOUS
 62
    7
 10
115.85409071310119
 20
248.42645287728018
 40
1.1000000000000001
  0
CIRCLE
  8
_0-0_
  6
CONTINUOUS
 62
    7
 10
115.85409071310119
 20
120.60171787728015
 40
1.1000000000000001
  0
CIRCLE
  8
_0-0_
  6
CONTINUOUS
 62
    7
 10
286.5416032131011
 20
120.60171787728015
 40
1.1000000000000001
  0
CIRCLE
  8
_0-0_
  6
CONTINUOUS
 62
    7
 10
277.01595821310116
 20
248.42645287728018
 40
1.1000000000000001
  0
LINE
  8
_0-0_
  6
CONTINUOUS
 62
    7
 10
289.5416032131011
 20
140.42056731490609
 11
289.5416032131011
 21
118.60171787728015
  0
LINE
  8
_0-0_
  6
CONTINUOUS
 62
    7
 10
280.01595821310116
 20
250.42645287728024
 11
280.01595821310116
 21
180.9828884396542
  0
LINE
  8
_0-0_
  6
CONTINUOUS
 62
    7
 10
144.16687696260112
 20
243.92594109228017
 11
158.21615446360124
 21
243.92594109228017
  0
LINE
  8
_0-0_
  6
CONTINUOUS
 62
    7
 10
158.21615446360124
 20
243.92594109228017
 11
158.21615446360124
 21
229.87696466228019
  0
LINE
  8
_0-0_
  6
CONTINUOUS
 62
    7
 10
158.21615446360124
 20
229.87696466228019
 11
144.16687696260112
 21
229.87696466228019
  0
LINE
  8
_0-0_
  6
CONTINUOUS
 62
    7
 10
144.16687696260112
 20
229.87696466228019
 11
144.16687696260112
 21
243.92594109228017
  0
LINE
  8
_0-0_
  6
CONTINUOUS
 62
    7
 10
172.74187696260117
 20
243.92594109228017
 11
186.79115446360117
 21
243.92594109228017
  0
LINE
  8
_0-0_
  6
CONTINUOUS
 62
    7
 10
186.79115446360117
 20
243.92594109228017
 11
186.79115446360117
 21
229.87696466228019
  0
LINE
  8
_0-0_
  6
CONTINUOUS
 62
    7
 10
186.79115446360117
 20
229.87696466228019
 11
172.74187696260117
 21
229.87696466228019
  0
LINE
  8
_0-0_
  6
CONTINUOUS
 62
    7
 10
172.74187696260117
 20
229.87696466228019
 11
172.74187696260117
 21
243.92594109228017
  0
LINE
  8
_0-0_
  6
CONTINUOUS
 62
    7
 10
191.79187696260112
 20
243.92594109228017
 11
205.84115446360113
 21
243.92594109228017
  0
LINE
  8
_0-0_
  6
CONTINUOUS
 62
    7
 10
205.84115446360113
 20
243.92594109228017
 11
205.84115446360113
 21
229.87696466228019
  0
LINE
  8
_0-0_
  6
CONTINUOUS
 62
    7
 10
205.84115446360113
 20
229.87696466228019
 11
191.79187696260112
 21
229.87696466228019
  0
LINE
  8
_0-0_
  6
CONTINUOUS
 62
    7
 10
191.79187696260112
 20
229.87696466228019
 11
191.79187696260112
 21
243.92594109228017
  0
LINE
  8
_0-0_
  6
CONTINUOUS
 62
    7
 10
210.84187696260119
 20
243.92594109228017
 11
224.8911544636012
 21
243.92594109228017
  0
LINE
  8
_0-0_
  6
CONTINUOUS
 62
    7
 10
224.8911544636012
 20
243.92594109228017
 11
224.8911544636012
 21
229.87696466228019
  0
LINE
  8
_0-0_
  6
CONTINUOUS
 62
    7
 10
224.8911544636012
 20
229.87696466228019
 11
210.84187696260119
 21
229.87696466228019
  0
LINE
  8
_0-0_
  6
CONTINUOUS
 62
    7
 10
210.84187696260119
 20
229.87696466228019
 11
210.84187696260119
 21
243.92594109228017
  0
LINE
  8
_0-0_
  6
CONTINUOUS
 62
    7
 10
229.89167696260108
 20
243.92594109228017
 11
243.9409544636012
 21
243.92594109228017
  0
LINE
  8
_0-0_
  6
CONTINUOUS
 62
    7
 10
243.9409544636012
 20
243.92594109228017
 11
243.9409544636012
 21
229.87696466228019
  0
LINE
  8
_0-0_
  6
CONTINUOUS
 62
    7
 10
243.9409544636012
 20
229.87696466228019
 11
229.89167696260108
 21
229.87696466228019
  0
LINE
  8
_0-0_
  6
CONTINUOUS
 62
    7
 10
229.89167696260108
 20
229.87696466228019
 11
229.89167696260108
 21
243.92594109228017
  0
LINE
  8
_0-0_
  6
CONTINUOUS
 62
    7
 10
258.46667696260113
 20
243.92594109228017
 11
272.51595446360125
 21
243.92594109228017
  0
LINE
  8
_0-0_
  6
CONTINUOUS
 62
    7
 10
272.51595446360125
 20
243.92594109228017
 11
272.51595446360125
 21
229.87696466228019
  0
LINE
  8
_0-0_
  6
CONTINUOUS
 62
    7
 10
272.51595446360125
 20
229.87696466228019
 11
258.46667696260113
 21
229.87696466228019
  0
LINE
  8
_0-0_
  6
CONTINUOUS
 62
    7
 10
258.46667696260113
 20
229.87696466228019
 11
258.46667696260113
 21
243.92594109228017
  0
LINE
  8
_0-0_
  6
CONTINUOUS
 62
    7
 10
258.46667696260113
 20
215.35134109228019
 11
272.51595446360125
 21
215.35134109228019
  0
LINE
  8
_0-0_
  6
CONTINUOUS
 62
    7
 10
272.51595446360125
 20
215.35134109228019
 11
272.51595446360125
 21
201.30236466228021
  0
LINE
  8
_0-0_
  6
CONTINUOUS
 62
    7
 10
272.51595446360125
 20
201.30236466228021
 11
258.46667696260113
 21
201.30236466228021
  0
LINE
  8
_0-0_
  6
CONTINUOUS
 62
    7
 10
258.46667696260113
 20
201.30236466228021
 11
258.46667696260113
 21
215.35134109228019
  0
LINE
  8
_0-0_
  6
CONTINUOUS
 62
    7
 10
239.41667696260117
 20
215.35134109228019
 11
253.46595446360129
 21
215.35134109228019
  0
LINE
  8
_0-0_
  6
CONTINUOUS
 62
    7
 10
253.46595446360129
 20
215.35134109228019
 11
253.46595446360129
 21
201.30236466228021
  0
LINE
  8
_0-0_
  6
CONTINUOUS
 62
    7
 10
253.46595446360129
 20
201.30236466228021
 11
239.41667696260117
 21
201.30236466228021
  0
LINE
  8
_0-0_
  6
CONTINUOUS
 62
    7
 10
239.41667696260117
 20
201.30236466228021
 11
239.41667696260117
 21
215.35134109228019
  0
LINE
  8
_0-0_
  6
CONTINUOUS
 62
    7
 10
220.3666769626011
 20
215.35134109228019
 11
234.41595446360122
 21
215.35134109228019
  0
LINE
  8
_0-0_
  6
CONTINUOUS
 62
    7
 10
234.41595446360122
 20
215.35134109228019
 11
234.41595446360122
 21
201.30236466228021
  0
LINE
  8
_0-0_
  6
CONTINUOUS
 62
    7
 10
234.41595446360122
 20
201.30236466228021
 11
220.3666769626011
 21
201.30236466228021
  0
LINE
  8
_0-0_
  6
CONTINUOUS
 62
    7
 10
220.3666769626011
 20
201.30236466228021
 11
220.3666769626011
 21
215.35134109228019
  0
LINE
  8
_0-0_
  6
CONTINUOUS
 62
    7
 10
201.3168769626011
 20
215.35134109228019
 11
215.36615446360122
 21
215.35134109228019
  0
LINE
  8
_0-0_
  6
CONTINUOUS
 62
    7
 10
215.36615446360122
 20
215.35134109228019
 11
215.36615446360122
 21
201.30236466228021
  0
LINE
  8
_0-0_
  6
CONTINUOUS
 62
    7
 10
215.36615446360122
 20
201.30236466228021
 11
201.3168769626011
 21
201.30236466228021
  0
LINE
  8
_0-0_
  6
CONTINUOUS
 62
    7
 10
201.3168769626011
 20
201.30236466228021
 11
201.3168769626011
 21
215.35134109228019
  0
LINE
  8
_0-0_
  6
CONTINUOUS
 62
    7
 10
182.26687696260115
 20
215.35134109228019
 11
196.31615446360115
 21
215.35134109228019
  0
LINE
  8
_0-0_
  6
CONTINUOUS
 62
    7
 10
196.31615446360115
 20
215.35134109228019
 11
196.31615446360115
 21
201.30236466228021
  0
LINE
  8
_0-0_
  6
CONTINUOUS
 62
    7
 10
196.31615446360115
 20
201.30236466228021
 11
182.26687696260115
 21
201.30236466228021
  0
LINE
  8
_0-0_
  6
CONTINUOUS
 62
    7
 10
182.26687696260115
 20
201.30236466228021
 11
182.26687696260115
 21
215.35134109228019
  0
LINE
  8
_0-0_
  6
CONTINUOUS
 62
    7
 10
163.21687696260108
 20
215.35134109228019
 11
177.2661544636012
 21
215.35134109228019
  0
LINE
  8
_0-0_
  6
CONTINUOUS
 62
    7
 10
177.2661544636012
 20
215.35134109228019
 11
177.2661544636012
 21
201.30236466228021
  0
LINE
  8
_0-0_
  6
CONTINUOUS
 62
    7
 10
177.2661544636012
 20
201.30236466228021
 11
163.21687696260108
 21
201.30236466228021
  0
LINE
  8
_0-0_
  6
CONTINUOUS
 62
    7
 10
163.21687696260108
 20
201.30236466228021
 11
163.21687696260108
 21
215.35134109228019
  0
LINE
  8
_0-0_
  6
CONTINUOUS
 62
    7
 10
144.16687696260112
 20
215.35134109228019
 11
158.21615446360124
 21
215.35134109228019
  0
LINE
  8
_0-0_
  6
CONTINUOUS
 62
    7
 10
158.21615446360124
 20
215.35134109228019
 11
158.21615446360124
 21
201.30236466228021
  0
LINE
  8
_0-0_
  6
CONTINUOUS
 62
    7
 10
158.21615446360124
 20
201.30236466228021
 11
144.16687696260112
 21
201.30236466228021
  0
LINE
  8
_0-0_
  6
CONTINUOUS
 62
    7
 10
144.16687696260112
 20
201.30236466228021
 11
144.16687696260112
 21
215.35134109228019
  0
LINE
  8
_0-0_
  6
CONTINUOUS
 62
    7
 10
248.94167696260115
 20
196.30134109228018
 11
262.99095446360127
 21
196.30134109228018
  0
LINE
  8
_0-0_
  6
CONTINUOUS
 62
    7
 10
262.99095446360127
 20
196.30134109228018
 11
262.99095446360127
 21
182.2523646622802
  0
LINE
  8
_0-0_
  6
CONTINUOUS
 62
    7
 10
262.99095446360127
 20
182.2523646622802
 11
248.94167696260115
 21
182.2523646622802
  0
LINE
  8
_0-0_
  6
CONTINUOUS
 62
    7
 10
248.94167696260115
 20
182.2523646622802
 11
248.94167696260115
 21
196.30134109228018
  0
LINE
  8
_0-0_
  6
CONTINUOUS
 62
    7
 10
229.8916769626012
 20
196.30134109228018
 11
243.94095446360132
 21
196.30134109228018
  0
LINE
  8
_0-0_
  6
CONTINUOUS
 62
    7
 10
243.94095446360132
 20
196.30134109228018
 11
243.94095446360132
 21
182.2523646622802
  0
LINE
  8
_0-0_
  6
CONTINUOUS
 62
    7
 10
243.94095446360132
 20
182.2523646622802
 11
229.8916769626012
 21
182.2523646622802
  0
LINE
  8
_0-0_
  6
CONTINUOUS
 62
    7
 10
229.8916769626012
 20
182.2523646622802
 11
229.8916769626012
 21
196.30134109228018
  0
LINE
  8
_0-0_
  6
CONTINUOUS
 62
    7
 10
210.84167696260113
 20
196.30134109228018
 11
224.89095446360125
 21
196.30134109228018
  0
LINE
  8
_0-0_
  6
CONTINUOUS
 62
    7
 10
224.89095446360125
 20
196.30134109228018
 11
224.89095446360125
 21
182.2523646622802
  0
LINE
  8
_0-0_
  6
CONTINUOUS
 62
    7
 10
224.89095446360125
 20
182.2523646622802
 11
210.84167696260113
 21
182.2523646622802
  0
LINE
  8
_0-0_
  6
CONTINUOUS
 62
    7
 10
210.84167696260113
 20
182.2523646622802
 11
210.84167696260113
 21
196.30134109228018
  0
LINE
  8
_0-0_
  6
CONTINUOUS
 62
    7
 10
191.79187696260112
 20
196.30134109228018
 11
205.84115446360124
 21
196.30134109228018
  0
LINE
  8
_0-0_
  6
CONTINUOUS
 62
    7
 10
205.84115446360124
 20
196.30134109228018
 11
205.84115446360124
 21
182.2523646622802
  0
LINE
  8
_0-0_
  6
CONTINUOUS
 62
    7
 10
205.84115446360124
 20
182.2523646622802
 11
191.79187696260112
 21
182.2523646622802
  0
LINE
  8
_0-0_
  6
CONTINUOUS
 62
    7
 10
191.79187696260112
 20
182.2523646622802
 11
191.79187696260112
 21
196.30134109228018
  0
LINE
  8
_0-0_
  6
CONTINUOUS
 62
    7
 10
172.74187696260117
 20
196.30134109228018
 11
186.79115446360117
 21
196.30134109228018
  0
LINE
  8
_0-0_
  6
CONTINUOUS
 62
    7
 10
186.79115446360117
 20
196.30134109228018
 11
186.79115446360117
 21
182.2523646622802
  0
LINE
  8
_0-0_
  6
CONTINUOUS
 62
    7
 10
186.79115446360117
 20
182.2523646622802
 11
172.74187696260117
 21
182.2523646622802
  0
LINE
  8
_0-0_
  6
CONTINUOUS
 62
    7
 10
172.74187696260117
 20
182.2523646622802
 11
172.74187696260117
 21
196.30134109228018
  0
LINE
  8
_0-0_
  6
CONTINUOUS
 62
    7
 10
253.7041769626012
 20
177.25134109228017
 11
267.7534544636012
 21
177.25134109228017
  0
LINE
  8
_0-0_
  6
CONTINUOUS
 62
    7
 10
267.7534544636012
 20
177.25134109228017
 11
267.7534544636012
 21
163.20236466228019
  0
LINE
  8
_0-0_
  6
CONTINUOUS
 62
    7
 10
267.7534544636012
 20
163.20236466228019
 11
253.7041769626012
 21
163.20236466228019
  0
LINE
  8
_0-0_
  6
CONTINUOUS
 62
    7
 10
253.7041769626012
 20
163.20236466228019
 11
253.7041769626012
 21
177.25134109228017
  0
LINE
  8
_0-0_
  6
CONTINUOUS
 62
    7
 10
234.65417696260124
 20
177.25134109228017
 11
248.70345446360125
 21
177.25134109228017
  0
LINE
  8
_0-0_
  6
CONTINUOUS
 62
    7
 10
248.70345446360125
 20
177.25134109228017
 11
248.70345446360125
 21
163.20236466228019
  0
LINE
  8
_0-0_
  6
CONTINUOUS
 62
    7
 10
248.70345446360125
 20
163.20236466228019
 11
234.65417696260124
 21
163.20236466228019
  0
LINE
  8
_0-0_
  6
CONTINUOUS
 62
    7
 10
234.65417696260124
 20
163.20236466228019
 11
234.65417696260124
 21
177.25134109228017
  0
LINE
  8
_0-0_
  6
CONTINUOUS
 62
    7
 10
215.60417696260117
 20
177.25134109228017
 11
229.65345446360118
 21
177.25134109228017
  0
LINE
  8
_0-0_
  6
CONTINUOUS
 62
    7
 10
229.65345446360118
 20
177.25134109228017
 11
229.65345446360118
 21
163.20236466228019
  0
LINE
  8
_0-0_
  6
CONTINUOUS
 62
    7
 10
229.65345446360118
 20
163.20236466228019
 11
215.60417696260117
 21
163.20236466228019
  0
LINE
  8
_0-0_
  6
CONTINUOUS
 62
    7
 10
215.60417696260117
 20
163.20236466228019
 11
215.60417696260117
 21
177.25134109228017
  0
LINE
  8
_0-0_
  6
CONTINUOUS
 62
    7
 10
196.55437696260117
 20
177.25134109228017
 11
210.60365446360117
 21
177.25134109228017
  0
LINE
  8
_0-0_
  6
CONTINUOUS
 62
    7
 10
210.60365446360117
 20
177.25134109228017
 11
210.60365446360117
 21
163.20236466228019
  0
LINE
  8
_0-0_
  6
CONTINUOUS
 62
    7
 10
210.60365446360117
 20
163.20236466228019
 11
196.55437696260117
 21
163.20236466228019
  0
LINE
  8
_0-0_
  6
CONTINUOUS
 62
    7
 10
196.55437696260117
 20
163.20236466228019
 11
196.55437696260117
 21
177.25134109228017
  0
LINE
  8
_0-0_
  6
CONTINUOUS
 62
    7
 10
177.5043769626011
 20
177.25134109228017
 11
191.55365446360122
 21
177.25134109228017
  0
LINE
  8
_0-0_
  6
CONTINUOUS
 62
    7
 10
191.55365446360122
 20
177.25134109228017
 11
191.55365446360122
 21
163.20236466228019
  0
LINE
  8
_0-0_
  6
CONTINUOUS
 62
    7
 10
191.55365446360122
 20
163.20236466228019
 11
177.5043769626011
 21
163.20236466228019
  0
LINE
  8
_0-0_
  6
CONTINUOUS
 62
    7
 10
177.5043769626011
 20
163.20236466228019
 11
177.5043769626011
 21
177.25134109228017
  0
LINE
  8
_0-0_
  6
CONTINUOUS
 62
    7
 10
258.46667696260113
 20
158.20134109228022
 11
272.51595446360125
 21
158.20134109228022
  0
LINE
  8
_0-0_
  6
CONTINUOUS
 62
    7
 10
272.51595446360125
 20
158.20134109228022
 11
272.51595446360125
 21
144.15236466228023
  0
LINE
  8
_0-0_
  6
CONTINUOUS
 62
    7
 10
272.51595446360125
 20
144.15236466228023
 11
258.46667696260113
 21
144.15236466228023
  0
LINE
  8
_0-0_
  6
CONTINUOUS
 62
    7
 10
258.46667696260113
 20
144.15236466228023
 11
258.46667696260113
 21
158.20134109228022
  0
LINE
  8
_0-0_
  6
CONTINUOUS
 62
    7
 10
239.41667696260117
 20
158.20134109228022
 11
253.46595446360129
 21
158.20134109228022
  0
LINE
  8
_0-0_
  6
CONTINUOUS
 62
    7
 10
253.46595446360129
 20
158.20134109228022
 11
253.46595446360129
 21
144.15236466228023
  0
LINE
  8
_0-0_
  6
CONTINUOUS
 62
    7
 10
253.46595446360129
 20
144.15236466228023
 11
239.41667696260117
 21
144.15236466228023
  0
LINE
  8
_0-0_
  6
CONTINUOUS
 62
    7
 10
239.41667696260117
 20
144.15236466228023
 11
239.41667696260117
 21
158.20134109228022
  0
LINE
  8
_0-0_
  6
CONTINUOUS
 62
    7
 10
220.3666769626011
 20
158.20134109228022
 11
234.41595446360122
 21
158.20134109228022
  0
LINE
  8
_0-0_
  6
CONTINUOUS
 62
    7
 10
234.41595446360122
 20
158.20134109228022
 11
234.41595446360122
 21
144.15236466228023
  0
LINE
  8
_0-0_
  6
CONTINUOUS
 62
    7
 10
234.41595446360122
 20
144.15236466228023
 11
220.3666769626011
 21
144.15236466228023
  0
LINE
  8
_0-0_
  6
CONTINUOUS
 62
    7
 10
220.3666769626011
 20
144.15236466228023
 11
220.3666769626011
 21
158.20134109228022
  0
LINE
  8
_0-0_
  6
CONTINUOUS
 62
    7
 10
201.3168769626011
 20
158.20134109228022
 11
215.36615446360122
 21
158.20134109228022
  0
LINE
  8
_0-0_
  6
CONTINUOUS
 62
    7
 10
215.36615446360122
 20
158.20134109228022
 11
215.36615446360122
 21
144.15236466228023
  0
LINE
  8
_0-0_
  6
CONTINUOUS
 62
    7
 10
215.36615446360122
 20
144.15236466228023
 11
201.3168769626011
 21
144.15236466228023
  0
LINE
  8
_0-0_
  6
CONTINUOUS
 62
    7
 10
201.3168769626011
 20
144.15236466228023
 11
201.3168769626011
 21
158.20134109228022
  0
LINE
  8
_0-0_
  6
CONTINUOUS
 62
    7
 10
182.26687696260115
 20
158.20134109228022
 11
196.31615446360115
 21
158.20134109228022
  0
LINE
  8
_0-0_
  6
CONTINUOUS
 62
    7
 10
196.31615446360115
 20
158.20134109228022
 11
196.31615446360115
 21
144.15236466228023
  0
LINE
  8
_0-0_
  6
CONTINUOUS
 62
    7
 10
196.31615446360115
 20
144.15236466228023
 11
182.26687696260115
 21
144.15236466228023
  0
LINE
  8
_0-0_
  6
CONTINUOUS
 62
    7
 10
182.26687696260115
 20
144.15236466228023
 11
182.26687696260115
 21
158.20134109228022
  0
LINE
  8
_0-0_
  6
CONTINUOUS
 62
    7
 10
120.35432696260114
 20
215.35134109228019
 11
134.40360446360125
 21
215.35134109228019
  0
LINE
  8
_0-0_
  6
CONTINUOUS
 62
    7
 10
134.40360446360125
 20
215.35134109228019
 11
134.40360446360125
 21
201.30236466228021
  0
LINE
  8
_0-0_
  6
CONTINUOUS
 62
    7
 10
134.40360446360125
 20
201.30236466228021
 11
120.35432696260114
 21
201.30236466228021
  0
LINE
  8
_0-0_
  6
CONTINUOUS
 62
    7
 10
120.35432696260114
 20
201.30236466228021
 11
120.35432696260114
 21
215.35134109228019
  0
LINE
  8
_0-0_
  6
CONTINUOUS
 62
    7
 10
120.35432696260114
 20
196.30134109228018
 11
134.40360446360125
 21
196.30134109228018
  0
LINE
  8
_0-0_
  6
CONTINUOUS
 62
    7
 10
134.40360446360125
 20
196.30134109228018
 11
134.40360446360125
 21
182.2523646622802
  0
LINE
  8
_0-0_
  6
CONTINUOUS
 62
    7
 10
134.40360446360125
 20
182.2523646622802
 11
120.35432696260114
 21
182.2523646622802
  0
LINE
  8
_0-0_
  6
CONTINUOUS
 62
    7
 10
120.35432696260114
 20
182.2523646622802
 11
120.35432696260114
 21
196.30134109228018
  0
LINE
  8
_0-0_
  6
CONTINUOUS
 62
    7
 10
120.35432696260114
 20
177.25134109228017
 11
134.40360446360125
 21
177.25134109228017
  0
LINE
  8
_0-0_
  6
CONTINUOUS
 62
    7
 10
134.40360446360125
 20
177.25134109228017
 11
134.40360446360125
 21
163.20236466228019
  0
LINE
  8
_0-0_
  6
CONTINUOUS
 62
    7
 10
134.40360446360125
 20
163.20236466228019
 11
120.35432696260114
 21
163.20236466228019
  0
LINE
  8
_0-0_
  6
CONTINUOUS
 62
    7
 10
120.35432696260114
 20
163.20236466228019
 11
120.35432696260114
 21
177.25134109228017
  0
LINE
  8
_0-0_
  6
CONTINUOUS
 62
    7
 10
120.35432696260114
 20
158.20134109228022
 11
134.40360446360125
 21
158.20134109228022
  0
LINE
  8
_0-0_
  6
CONTINUOUS
 62
    7
 10
134.40360446360125
 20
158.20134109228022
 11
134.40360446360125
 21
144.15236466228023
  0
LINE
  8
_0-0_
  6
CONTINUOUS
 62
    7
 10
134.40360446360125
 20
144.15236466228023
 11
120.35432696260114
 21
144.15236466228023
  0
LINE
  8
_0-0_
  6
CONTINUOUS
 62
    7
 10
120.35432696260114
 20
144.15236466228023
 11
120.35432696260114
 21
158.20134109228022
  0
LINE
  8
_0-0_
  6
CONTINUOUS
 62
    7
 10
120.35432696260114
 20
139.15144109228018
 11
134.40360446360125
 21
139.15144109228018
  0
LINE
  8
_0-0_
  6
CONTINUOUS
 62
    7
 10
134.40360446360125
 20
139.15144109228018
 11
134.40360446360125
 21
125.1024646622802
  0
LINE
  8
_0-0_
  6
CONTINUOUS
 62
    7
 10
134.40360446360125
 20
125.1024646622802
 11
120.35432696260114
 21
125.1024646622802
  0
LINE
  8
_0-0_
  6
CONTINUOUS
 62
    7
 10
120.35432696260114
 20
125.1024646622802
 11
120.35432696260114
 21
139.15144109228018
  0
LINE
  8
_0-0_
  6
CONTINUOUS
 62
    7
 10
146.54667696260117
 20
139.15144109228018
 11
160.59595446360129
 21
139.15144109228018
  0
LINE
  8
_0-0_
  6
CONTINUOUS
 62
    7
 10
160.59595446360129
 20
139.15144109228018
 11
160.59595446360129
 21
125.1024646622802
  0
LINE
  8
_0-0_
  6
CONTINUOUS
 62
    7
 10
160.59595446360129
 20
125.1024646622802
 11
146.54667696260117
 21
125.1024646622802
  0
LINE
  8
_0-0_
  6
CONTINUOUS
 62
    7
 10
146.54667696260117
 20
125.1024646622802
 11
146.54667696260117
 21
139.15144109228018
  0
LINE
  8
_0-0_
  6
CONTINUOUS
 62
    7
 10
170.36067696260113
 20
139.15144109228018
 11
184.40995446360114
 21
139.15144109228018
  0
LINE
  8
_0-0_
  6
CONTINUOUS
 62
    7
 10
184.40995446360114
 20
139.15144109228018
 11
184.40995446360114
 21
125.1024646622802
  0
LINE
  8
_0-0_
  6
CONTINUOUS
 62
    7
 10
184.40995446360114
 20
125.1024646622802
 11
170.36067696260113
 21
125.1024646622802
  0
LINE
  8
_0-0_
  6
CONTINUOUS
 62
    7
 10
170.36067696260113
 20
125.1024646622802
 11
170.36067696260113
 21
139.15144109228018
  0
LINE
  8
_0-0_
  6
CONTINUOUS
 62
    7
 10
194.17177696260114
 20
139.15144109228018
 11
208.22105446360115
 21
139.15144109228018
  0
LINE
  8
_0-0_
  6
CONTINUOUS
 62
    7
 10
208.22105446360115
 20
139.15144109228018
 11
208.22105446360115
 21
125.1024646622802
  0
LINE
  8
_0-0_
  6
CONTINUOUS
 62
    7
 10
208.22105446360115
 20
125.1024646622802
 11
194.17177696260114
 21
125.1024646622802
  0
LINE
  8
_0-0_
  6
CONTINUOUS
 62
    7
 10
194.17177696260114
 20
125.1024646622802
 11
194.17177696260114
 21
139.15144109228018
  0
LINE
  8
_0-0_
  6
CONTINUOUS
 62
    7
 10
215.60437696260112
 20
139.15144109228018
 11
229.65365446360124
 21
139.15144109228018
  0
LINE
  8
_0-0_
  6
CONTINUOUS
 62
    7
 10
229.65365446360124
 20
139.15144109228018
 11
229.65365446360124
 21
125.1024646622802
  0
LINE
  8
_0-0_
  6
CONTINUOUS
 62
    7
 10
229.65365446360124
 20
125.1024646622802
 11
215.60437696260112
 21
125.1024646622802
  0
LINE
  8
_0-0_
  6
CONTINUOUS
 62
    7
 10
215.60437696260112
 20
125.1024646622802
 11
215.60437696260112
 21
139.15144109228018
  0
LINE
  8
_0-0_
  6
CONTINUOUS
 62
    7
 10
234.65467696260112
 20
139.15144109228018
 11
248.70395446360124
 21
139.15144109228018
  0
LINE
  8
_0-0_
  6
CONTINUOUS
 62
    7
 10
248.70395446360124
 20
139.15144109228018
 11
248.70395446360124
 21
125.1024646622802
  0
LINE
  8
_0-0_
  6
CONTINUOUS
 62
    7
 10
248.70395446360124
 20
125.1024646622802
 11
234.65467696260112
 21
125.1024646622802
  0
LINE
  8
_0-0_
  6
CONTINUOUS
 62
    7
 10
234.65467696260112
 20
125.1024646622802
 11
234.65467696260112
 21
139.15144109228018
  0
LINE
  8
_0-0_
  6
CONTINUOUS
 62
    7
 10
256.08567696260116
 20
139.15144109228018
 11
270.13495446360128
 21
139.15144109228018
  0
LINE
  8
_0-0_
  6
CONTINUOUS
 62
    7
 10
270.13495446360128
 20
139.15144109228018
 11
270.13495446360128
 21
125.1024646622802
  0
LINE
  8
_0-0_
  6
CONTINUOUS
 62
    7
 10
270.13495446360128
 20
125.1024646622802
 11
256.08567696260116
 21
125.1024646622802
  0
LINE
  8
_0-0_
  6
CONTINUOUS
 62
    7
 10
256.08567696260116
 20
125.1024646622802
 11
256.08567696260116
 21
139.15144109228018
  0
LINE
  8
_0-0_
  6
CONTINUOUS
 62
    7
 10
153.6918769626011
 20
158.20134109228022
 11
167.74115446360122
 21
158.20134109228022
  0
LINE
  8
_0-0_
  6
CONTINUOUS
 62
    7
 10
167.74115446360122
 20
144.15236466228023
 11
153.6918769626011
 21
144.15236466228023
  0
LINE
  8
_0-0_
  6
CONTINUOUS
 62
    7
 10
151.31057696260109
 20
177.25134109228017
 11
165.35985446360121
 21
177.25134109228017
  0
LINE
  8
_0-0_
  6
CONTINUOUS
 62
    7
 10
165.35985446360121
 20
177.25134109228017
 11
165.35985446360121
 21
163.20236466228019
  0
LINE
  8
_0-0_
  6
CONTINUOUS
 62
    7
 10
165.35985446360121
 20
163.20236466228019
 11
151.31057696260109
 21
163.20236466228019
  0
LINE
  8
_0-0_
  6
CONTINUOUS
 62
    7
 10
151.31057696260109
 20
163.20236466228019
 11
151.31057696260109
 21
177.25134109228017
  0
LINE
  8
_0-0_
  6
CONTINUOUS
 62
    7
 10
148.92937696260117
 20
196.30134109228018
 11
162.97865446360129
 21
196.30134109228018
  0
LINE
  8
_0-0_
  6
CONTINUOUS
 62
    7
 10
162.97865446360129
 20
196.30134109228018
 11
162.97865446360129
 21
182.2523646622802
  0
LINE
  8
_0-0_
  6
CONTINUOUS
 62
    7
 10
162.97865446360129
 20
182.2523646622802
 11
148.92937696260117
 21
182.2523646622802
  0
LINE
  8
_0-0_
  6
CONTINUOUS
 62
    7
 10
148.92937696260117
 20
182.2523646622802
 11
148.92937696260117
 21
196.30134109228018
  0
LINE
  8
_0-0_
  6
CONTINUOUS
 62
    7
 10
153.6918769626011
 20
153.4773528772802
 11
152.31651571310113
 21
153.4773528772802
  0
LINE
  8
_0-0_
  6
CONTINUOUS
 62
    7
 10
152.31651571310113
 20
148.87745287728021
 11
153.6918769626011
 21
148.87745287728021
  0
LINE
  8
_0-0_
  6
CONTINUOUS
 62
    7
 10
153.6918769626011
 20
144.15236466228023
 11
153.6918769626011
 21
148.87745287728021
  0
LINE
  8
_0-0_
  6
CONTINUOUS
 62
    7
 10
167.74115446360122
 20
158.20134109228022
 11
167.74115446360122
 21
153.4773528772802
  0
LINE
  8
_0-0_
  6
CONTINUOUS
 62
    7
 10
169.11651571310119
 20
153.4773528772802
 11
167.74115446360122
 21
153.4773528772802
  0
LINE
  8
_0-0_
  6
CONTINUOUS
 62
    7
 10
167.74115446360122
 20
148.87745287728021
 11
167.74115446360122
 21
144.15236466228023
  0
LINE
  8
_0-0_
  6
CONTINUOUS
 62
    7
 10
167.74115446360122
 20
148.87745287728021
 11
169.11651571310119
 21
148.87745287728021
  0
CIRCLE
  8
_0-0_
  6
CONTINUOUS
 62
    7
 10
132.70409071310121
 20
246.40171787728016
 40
1
  0
LINE
  8
_0-0_
  6
CONTINUOUS
 62
    7
 10
437.14784411167375
 20
188.22758333269962
 11
437.14784411167375
 21
186.85217154769964
  0
LINE
  8
_0-0_
  6
CONTINUOUS
 62
    7
 10
441.74774411167374
 20
186.85217154769964
 11
441.74774411167374
 21
188.22758333269962
  0
LINE
  8
_0-0_
  6
CONTINUOUS
 62
    7
 10
437.14784411167375
 20
172.80319511769972
 11
437.14784411167375
 21
171.42758333269961
  0
LINE
  8
_0-0_
  6
CONTINUOUS
 62
    7
 10
441.74774411167374
 20
171.42758333269961
 11
441.74774411167374
 21
172.80319511769972
  0
LINE
  8
_0-0_
  6
CONTINUOUS
 62
    7
 10
432.42385491492377
 20
186.85217154769964
 11
437.14784411167375
 21
186.85217154769964
  0
LINE
  8
_0-0_
  6
CONTINUOUS
 62
    7
 10
441.74774411167374
 20
186.85217154769964
 11
446.47338330842376
 21
186.85217154769964
  0
LINE
  8
_0-0_
  6
CONTINUOUS
 62
    7
 10
437.14784411167375
 20
172.80319511769972
 11
432.42385491492377
 21
172.80319511769972
  0
LINE
  8
_0-0_
  6
CONTINUOUS
 62
    7
 10
293.95540661167377
 20
139.17754833269959
 11
293.95540661167377
 21
140.49639777032547
  0
ARC
  8
_0-0_
  6
CONTINUOUS
 62
    7
 10
294.42976161167377
 20
181.05871889507364
 40
10
 50
180
 51
194.03713868216576
  0
LINE
  8
_0-0_
  6
CONTINUOUS
 62
    7
 10
293.65679371711946
 20
142.92190559968668
 11
284.72837450622808
 21
178.63321106571243
  0
ARC
  8
_0-0_
  6
CONTINUOUS
 62
    7
 10
285.42976161167377
 20
250.50228333269968
 40
1
 50
90
 51
180
  0
ARC
  8
_0-0_
  6
CONTINUOUS
 62
    7
 10
294.95540661167377
 20
118.67754833269953
 40
1
 50
180
 51
270
  0
LINE
  8
_0-0_
  6
CONTINUOUS
 62
    7
 10
290.78030682821941
 20
251.50228333269968
 11
285.42976161167377
 21
251.50228333269968
  0
LINE
  8
_0-0_
  6
CONTINUOUS
 62
    7
 10
477.16804411167374
 20
117.67754833269953
 11
294.95540661167377
 21
117.67754833269953
  0
ARC
  8
_0-0_
  6
CONTINUOUS
 62
    7
 10
477.16804411167374
 20
120.67754833269953
 40
3
 50
270
 51
0
  0
LINE
  8
_0-0_
  6
CONTINUOUS
 62
    7
 10
477.16804411167374
 20
251.50228333269968
 11
285.42976161167377
 21
251.50228333269968
  0
LINE
  8
_0-0_
  6
CONTINUOUS
 62
    7
 10
480.16804411167374
 20
248.50228333269968
 11
480.16804411167374
 21
120.67754833269953
  0
ARC
  8
_0-0_
  6
CONTINUOUS
 62
    7
 10
477.16804411167374
 20
248.50228333269968
 40
3
 50
0
 51
90
  0
CIRCLE
  8
_0-0_
  6
CONTINUOUS
 62
    7
 10
287.42976161167377
 20
248.50228333269968
 40
1.1000000000000001
  0
CIRCLE
  8
_0-0_
  6
CONTINUOUS
 62
    7
 10
296.95540661167377
 20
120.67754833269953
 40
1.1000000000000001
  0
CIRCLE
  8
_0-0_
  6
CONTINUOUS
 62
    7
 10
477.16804411167374
 20
120.67754833269953
 40
1.1000000000000001
  0
CIRCLE
  8
_0-0_
  6
CONTINUOUS
 62
    7
 10
477.16804411167374
 20
248.50228333269968
 40
1.1000000000000001
  0
LINE
  8
_0-0_
  6
CONTINUOUS
 62
    7
 10
284.42976161167377
 20
250.50228333269968
 11
284.42976161167377
 21
181.05871889507364
  0
LINE
  8
_0-0_
  6
CONTINUOUS
 62
    7
 10
293.95540661167377
 20
140.49639777032547
 11
293.95540661167377
 21
118.67754833269953
  0
ARC
  8
_0-0_
  6
CONTINUOUS
 62
    7
 10
283.95540661167377
 20
140.49639777032547
 40
10
 50
0
 51
14.037138682165798
  0
LINE
  8
_0-0_
  6
CONTINUOUS
 62
    7
 10
433.44854411167375
 20
171.42758333269961
 11
433.44854411167375
 21
164.42758333269961
  0
LINE
  8
_0-0_
  6
CONTINUOUS
 62
    7
 10
446.94854411167375
 20
164.42758333269961
 11
433.44854411167375
 21
164.42758333269961
  0
LINE
  8
_0-0_
  6
CONTINUOUS
 62
    7
 10
446.94854411167375
 20
171.42758333269961
 11
446.94854411167375
 21
164.42758333269961
  0
LINE
  8
_0-0_
  6
CONTINUOUS
 62
    7
 10
446.94854411167375
 20
195.22758333269962
 11
446.94854411167375
 21
188.22758333269962
  0
LINE
  8
_0-0_
  6
CONTINUOUS
 62
    7
 10
433.44854411167375
 20
195.22758333269962
 11
433.44854411167375
 21
188.22758333269962
  0
LINE
  8
_0-0_
  6
CONTINUOUS
 62
    7
 10
446.94854411167375
 20
195.22758333269962
 11
433.44854411167375
 21
195.22758333269962
  0
LINE
  8
_0-0_
  6
CONTINUOUS
 62
    7
 10
437.14784411167375
 20
171.42758333269961
 11
433.44854411167375
 21
171.42758333269961
  0
LINE
  8
_0-0_
  6
CONTINUOUS
 62
    7
 10
446.94854411167375
 20
171.42758333269961
 11
441.74774411167374
 21
171.42758333269961
  0
LINE
  8
_0-0_
  6
CONTINUOUS
 62
    7
 10
446.94854411167375
 20
188.22758333269962
 11
441.74774411167374
 21
188.22758333269962
  0
LINE
  8
_0-0_
  6
CONTINUOUS
 62
    7
 10
437.14784411167375
 20
188.22758333269962
 11
433.44854411167375
 21
188.22758333269962
  0
LINE
  8
_0-0_
  6
CONTINUOUS
 62
    7
 10
291.93070491492369
 20
244.00177154769955
 11
305.98023330842375
 21
244.00177154769955
  0
LINE
  8
_0-0_
  6
CONTINUOUS
 62
    7
 10
305.98023330842375
 20
244.00177154769955
 11
305.98023330842375
 21
229.95279511769962
  0
LINE
  8
_0-0_
  6
CONTINUOUS
 62
    7
 10
305.98023330842375
 20
229.95279511769962
 11
291.93070491492369
 21
229.95279511769962
  0
LINE
  8
_0-0_
  6
CONTINUOUS
 62
    7
 10
291.93070491492369
 20
229.95279511769962
 11
291.93070491492369
 21
244.00177154769955
  0
LINE
  8
_0-0_
  6
CONTINUOUS
 62
    7
 10
310.98075491492375
 20
244.00177154769955
 11
325.0302833084238
 21
244.00177154769955
  0
LINE
  8
_0-0_
  6
CONTINUOUS
 62
    7
 10
325.0302833084238
 20
244.00177154769955
 11
325.0302833084238
 21
229.95279511769962
  0
LINE
  8
_0-0_
  6
CONTINUOUS
 62
    7
 10
325.0302833084238
 20
229.95279511769962
 11
310.98075491492375
 21
229.95279511769962
  0
LINE
  8
_0-0_
  6
CONTINUOUS
 62
    7
 10
310.98075491492375
 20
229.95279511769962
 11
310.98075491492375
 21
244.00177154769955
  0
LINE
  8
_0-0_
  6
CONTINUOUS
 62
    7
 10
330.0307549149237
 20
244.00177154769955
 11
344.08028330842376
 21
244.00177154769955
  0
LINE
  8
_0-0_
  6
CONTINUOUS
 62
    7
 10
344.08028330842376
 20
244.00177154769955
 11
344.08028330842376
 21
229.95279511769962
  0
LINE
  8
_0-0_
  6
CONTINUOUS
 62
    7
 10
344.08028330842376
 20
229.95279511769962
 11
330.0307549149237
 21
229.95279511769962
  0
LINE
  8
_0-0_
  6
CONTINUOUS
 62
    7
 10
330.0307549149237
 20
229.95279511769962
 11
330.0307549149237
 21
244.00177154769955
  0
LINE
  8
_0-0_
  6
CONTINUOUS
 62
    7
 10
349.08075491492377
 20
244.00177154769955
 11
363.13028330842383
 21
244.00177154769955
  0
LINE
  8
_0-0_
  6
CONTINUOUS
 62
    7
 10
363.13028330842383
 20
244.00177154769955
 11
363.13028330842383
 21
229.95279511769962
  0
LINE
  8
_0-0_
  6
CONTINUOUS
 62
    7
 10
363.13028330842383
 20
229.95279511769962
 11
349.08075491492377
 21
229.95279511769962
  0
LINE
  8
_0-0_
  6
CONTINUOUS
 62
    7
 10
349.08075491492377
 20
229.95279511769962
 11
349.08075491492377
 21
244.00177154769955
  0
LINE
  8
_0-0_
  6
CONTINUOUS
 62
    7
 10
377.6557549149237
 20
244.00177154769955
 11
391.70528330842376
 21
244.00177154769955
  0
LINE
  8
_0-0_
  6
CONTINUOUS
 62
    7
 10
391.70528330842376
 20
244.00177154769955
 11
391.70528330842376
 21
229.95279511769962
  0
LINE
  8
_0-0_
  6
CONTINUOUS
 62
    7
 10
391.70528330842376
 20
229.95279511769962
 11
377.6557549149237
 21
229.95279511769962
  0
LINE
  8
_0-0_
  6
CONTINUOUS
 62
    7
 10
377.6557549149237
 20
229.95279511769962
 11
377.6557549149237
 21
244.00177154769955
  0
LINE
  8
_0-0_
  6
CONTINUOUS
 62
    7
 10
396.7060549149237
 20
244.00177154769955
 11
410.75558330842375
 21
244.00177154769955
  0
LINE
  8
_0-0_
  6
CONTINUOUS
 62
    7
 10
410.75558330842375
 20
244.00177154769955
 11
410.75558330842375
 21
229.95279511769962
  0
LINE
  8
_0-0_
  6
CONTINUOUS
 62
    7
 10
410.75558330842375
 20
229.95279511769962
 11
396.7060549149237
 21
229.95279511769962
  0
LINE
  8
_0-0_
  6
CONTINUOUS
 62
    7
 10
396.7060549149237
 20
229.95279511769962
 11
396.7060549149237
 21
244.00177154769955
  0
LINE
  8
_0-0_
  6
CONTINUOUS
 62
    7
 10
415.75605491492377
 20
244.00177154769955
 11
429.80558330842382
 21
244.00177154769955
  0
LINE
  8
_0-0_
  6
CONTINUOUS
 62
    7
 10
429.80558330842382
 20
244.00177154769955
 11
429.80558330842382
 21
229.95279511769962
  0
LINE
  8
_0-0_
  6
CONTINUOUS
 62
    7
 10
429.80558330842382
 20
229.95279511769962
 11
415.75605491492377
 21
229.95279511769962
  0
LINE
  8
_0-0_
  6
CONTINUOUS
 62
    7
 10
415.75605491492377
 20
229.95279511769962
 11
415.75605491492377
 21
244.00177154769955
  0
LINE
  8
_0-0_
  6
CONTINUOUS
 62
    7
 10
434.80605491492372
 20
244.00177154769955
 11
448.85558330842377
 21
244.00177154769955
  0
LINE
  8
_0-0_
  6
CONTINUOUS
 62
    7
 10
448.85558330842377
 20
244.00177154769955
 11
448.85558330842377
 21
229.95279511769962
  0
LINE
  8
_0-0_
  6
CONTINUOUS
 62
    7
 10
448.85558330842377
 20
229.95279511769962
 11
434.80605491492372
 21
229.95279511769962
  0
LINE
  8
_0-0_
  6
CONTINUOUS
 62
    7
 10
434.80605491492372
 20
229.95279511769962
 11
434.80605491492372
 21
244.00177154769955
  0
LINE
  8
_0-0_
  6
CONTINUOUS
 62
    7
 10
458.61805491492373
 20
215.42717154769963
 11
472.66758330842379
 21
215.42717154769963
  0
LINE
  8
_0-0_
  6
CONTINUOUS
 62
    7
 10
472.66758330842379
 20
215.42717154769963
 11
472.66758330842379
 21
201.3781951176997
  0
LINE
  8
_0-0_
  6
CONTINUOUS
 62
    7
 10
472.66758330842379
 20
201.3781951176997
 11
458.61805491492373
 21
201.3781951176997
  0
LINE
  8
_0-0_
  6
CONTINUOUS
 62
    7
 10
458.61805491492373
 20
201.3781951176997
 11
458.61805491492373
 21
215.42717154769963
  0
LINE
  8
_0-0_
  6
CONTINUOUS
 62
    7
 10
458.61805491492373
 20
196.37717154769956
 11
472.66758330842379
 21
196.37717154769956
  0
LINE
  8
_0-0_
  6
CONTINUOUS
 62
    7
 10
472.66758330842379
 20
196.37717154769956
 11
472.66758330842379
 21
182.32819511769964
  0
LINE
  8
_0-0_
  6
CONTINUOUS
 62
    7
 10
472.66758330842379
 20
182.32819511769964
 11
458.61805491492373
 21
182.32819511769964
  0
LINE
  8
_0-0_
  6
CONTINUOUS
 62
    7
 10
458.61805491492373
 20
182.32819511769964
 11
458.61805491492373
 21
196.37717154769956
  0
LINE
  8
_0-0_
  6
CONTINUOUS
 62
    7
 10
434.80605491492372
 20
215.42717154769963
 11
448.85558330842377
 21
215.42717154769963
  0
LINE
  8
_0-0_
  6
CONTINUOUS
 62
    7
 10
448.85558330842377
 20
215.42717154769963
 11
448.85558330842377
 21
201.3781951176997
  0
LINE
  8
_0-0_
  6
CONTINUOUS
 62
    7
 10
448.85558330842377
 20
201.3781951176997
 11
434.80605491492372
 21
201.3781951176997
  0
LINE
  8
_0-0_
  6
CONTINUOUS
 62
    7
 10
434.80605491492372
 20
201.3781951176997
 11
434.80605491492372
 21
215.42717154769963
  0
LINE
  8
_0-0_
  6
CONTINUOUS
 62
    7
 10
415.75605491492377
 20
215.42717154769963
 11
429.80558330842382
 21
215.42717154769963
  0
LINE
  8
_0-0_
  6
CONTINUOUS
 62
    7
 10
429.80558330842382
 20
215.42717154769963
 11
429.80558330842382
 21
201.3781951176997
  0
LINE
  8
_0-0_
  6
CONTINUOUS
 62
    7
 10
429.80558330842382
 20
201.3781951176997
 11
415.75605491492377
 21
201.3781951176997
  0
LINE
  8
_0-0_
  6
CONTINUOUS
 62
    7
 10
415.75605491492377
 20
201.3781951176997
 11
415.75605491492377
 21
215.42717154769963
  0
LINE
  8
_0-0_
  6
CONTINUOUS
 62
    7
 10
396.7060549149237
 20
215.42717154769963
 11
410.75558330842375
 21
215.42717154769963
  0
LINE
  8
_0-0_
  6
CONTINUOUS
 62
    7
 10
410.75558330842375
 20
215.42717154769963
 11
410.75558330842375
 21
201.3781951176997
  0
LINE
  8
_0-0_
  6
CONTINUOUS
 62
    7
 10
410.75558330842375
 20
201.3781951176997
 11
396.7060549149237
 21
201.3781951176997
  0
LINE
  8
_0-0_
  6
CONTINUOUS
 62
    7
 10
396.7060549149237
 20
201.3781951176997
 11
396.7060549149237
 21
215.42717154769963
  0
LINE
  8
_0-0_
  6
CONTINUOUS
 62
    7
 10
377.6557549149237
 20
215.42717154769963
 11
391.70528330842376
 21
215.42717154769963
  0
LINE
  8
_0-0_
  6
CONTINUOUS
 62
    7
 10
391.70528330842376
 20
215.42717154769963
 11
391.70528330842376
 21
201.3781951176997
  0
LINE
  8
_0-0_
  6
CONTINUOUS
 62
    7
 10
391.70528330842376
 20
201.3781951176997
 11
377.6557549149237
 21
201.3781951176997
  0
LINE
  8
_0-0_
  6
CONTINUOUS
 62
    7
 10
377.6557549149237
 20
201.3781951176997
 11
377.6557549149237
 21
215.42717154769963
  0
LINE
  8
_0-0_
  6
CONTINUOUS
 62
    7
 10
358.60575491492375
 20
215.42717154769963
 11
372.6552833084238
 21
215.42717154769963
  0
LINE
  8
_0-0_
  6
CONTINUOUS
 62
    7
 10
372.6552833084238
 20
215.42717154769963
 11
372.6552833084238
 21
201.3781951176997
  0
LINE
  8
_0-0_
  6
CONTINUOUS
 62
    7
 10
372.6552833084238
 20
201.3781951176997
 11
358.60575491492375
 21
201.3781951176997
  0
LINE
  8
_0-0_
  6
CONTINUOUS
 62
    7
 10
358.60575491492375
 20
201.3781951176997
 11
358.60575491492375
 21
215.42717154769963
  0
LINE
  8
_0-0_
  6
CONTINUOUS
 62
    7
 10
339.5557549149238
 20
215.42717154769963
 11
353.60528330842385
 21
215.42717154769963
  0
LINE
  8
_0-0_
  6
CONTINUOUS
 62
    7
 10
353.60528330842385
 20
215.42717154769963
 11
353.60528330842385
 21
201.3781951176997
  0
LINE
  8
_0-0_
  6
CONTINUOUS
 62
    7
 10
353.60528330842385
 20
201.3781951176997
 11
339.5557549149238
 21
201.3781951176997
  0
LINE
  8
_0-0_
  6
CONTINUOUS
 62
    7
 10
339.5557549149238
 20
201.3781951176997
 11
339.5557549149238
 21
215.42717154769963
  0
LINE
  8
_0-0_
  6
CONTINUOUS
 62
    7
 10
349.08075491492377
 20
196.37717154769956
 11
363.13028330842383
 21
196.37717154769956
  0
LINE
  8
_0-0_
  6
CONTINUOUS
 62
    7
 10
363.13028330842383
 20
196.37717154769956
 11
363.13028330842383
 21
182.32819511769964
  0
LINE
  8
_0-0_
  6
CONTINUOUS
 62
    7
 10
363.13028330842383
 20
182.32819511769964
 11
349.08075491492377
 21
182.32819511769964
  0
LINE
  8
_0-0_
  6
CONTINUOUS
 62
    7
 10
349.08075491492377
 20
182.32819511769964
 11
349.08075491492377
 21
196.37717154769956
  0
LINE
  8
_0-0_
  6
CONTINUOUS
 62
    7
 10
368.13075491492373
 20
196.37717154769956
 11
382.18028330842378
 21
196.37717154769956
  0
LINE
  8
_0-0_
  6
CONTINUOUS
 62
    7
 10
382.18028330842378
 20
196.37717154769956
 11
382.18028330842378
 21
182.32819511769964
  0
LINE
  8
_0-0_
  6
CONTINUOUS
 62
    7
 10
382.18028330842378
 20
182.32819511769964
 11
368.13075491492373
 21
182.32819511769964
  0
LINE
  8
_0-0_
  6
CONTINUOUS
 62
    7
 10
368.13075491492373
 20
182.32819511769964
 11
368.13075491492373
 21
196.37717154769956
  0
LINE
  8
_0-0_
  6
CONTINUOUS
 62
    7
 10
387.17935491492369
 20
196.37717154769956
 11
401.22888330842375
 21
196.37717154769956
  0
LINE
  8
_0-0_
  6
CONTINUOUS
 62
    7
 10
401.22888330842375
 20
196.37717154769956
 11
401.22888330842375
 21
182.32819511769964
  0
LINE
  8
_0-0_
  6
CONTINUOUS
 62
    7
 10
401.22888330842375
 20
182.32819511769964
 11
387.17935491492369
 21
182.32819511769964
  0
LINE
  8
_0-0_
  6
CONTINUOUS
 62
    7
 10
387.17935491492369
 20
182.32819511769964
 11
387.17935491492369
 21
196.37717154769956
  0
LINE
  8
_0-0_
  6
CONTINUOUS
 62
    7
 10
406.22905491492372
 20
196.37717154769956
 11
420.27858330842378
 21
196.37717154769956
  0
LINE
  8
_0-0_
  6
CONTINUOUS
 62
    7
 10
420.27858330842378
 20
196.37717154769956
 11
420.27858330842378
 21
182.32819511769964
  0
LINE
  8
_0-0_
  6
CONTINUOUS
 62
    7
 10
420.27858330842378
 20
182.32819511769964
 11
406.22905491492372
 21
182.32819511769964
  0
LINE
  8
_0-0_
  6
CONTINUOUS
 62
    7
 10
406.22905491492372
 20
182.32819511769964
 11
406.22905491492372
 21
196.37717154769956
  0
LINE
  8
_0-0_
  6
CONTINUOUS
 62
    7
 10
320.50575491492373
 20
215.42717154769963
 11
334.55528330842378
 21
215.42717154769963
  0
LINE
  8
_0-0_
  6
CONTINUOUS
 62
    7
 10
334.55528330842378
 20
215.42717154769963
 11
334.55528330842378
 21
201.3781951176997
  0
LINE
  8
_0-0_
  6
CONTINUOUS
 62
    7
 10
334.55528330842378
 20
201.3781951176997
 11
320.50575491492373
 21
201.3781951176997
  0
LINE
  8
_0-0_
  6
CONTINUOUS
 62
    7
 10
320.50575491492373
 20
201.3781951176997
 11
320.50575491492373
 21
215.42717154769963
  0
LINE
  8
_0-0_
  6
CONTINUOUS
 62
    7
 10
301.45575491492377
 20
215.42717154769963
 11
315.50528330842383
 21
215.42717154769963
  0
LINE
  8
_0-0_
  6
CONTINUOUS
 62
    7
 10
315.50528330842383
 20
215.42717154769963
 11
315.50528330842383
 21
201.3781951176997
  0
LINE
  8
_0-0_
  6
CONTINUOUS
 62
    7
 10
315.50528330842383
 20
201.3781951176997
 11
301.45575491492377
 21
201.3781951176997
  0
LINE
  8
_0-0_
  6
CONTINUOUS
 62
    7
 10
301.45575491492377
 20
201.3781951176997
 11
301.45575491492377
 21
215.42717154769963
  0
LINE
  8
_0-0_
  6
CONTINUOUS
 62
    7
 10
291.93070491492369
 20
196.37717154769956
 11
305.98023330842375
 21
196.37717154769956
  0
LINE
  8
_0-0_
  6
CONTINUOUS
 62
    7
 10
305.98023330842375
 20
196.37717154769956
 11
305.98023330842375
 21
182.32819511769964
  0
LINE
  8
_0-0_
  6
CONTINUOUS
 62
    7
 10
305.98023330842375
 20
182.32819511769964
 11
291.93070491492369
 21
182.32819511769964
  0
LINE
  8
_0-0_
  6
CONTINUOUS
 62
    7
 10
291.93070491492369
 20
182.32819511769964
 11
291.93070491492369
 21
196.37717154769956
  0
LINE
  8
_0-0_
  6
CONTINUOUS
 62
    7
 10
310.98075491492375
 20
196.37717154769956
 11
325.0302833084238
 21
196.37717154769956
  0
LINE
  8
_0-0_
  6
CONTINUOUS
 62
    7
 10
325.0302833084238
 20
196.37717154769956
 11
325.0302833084238
 21
182.32819511769964
  0
LINE
  8
_0-0_
  6
CONTINUOUS
 62
    7
 10
325.0302833084238
 20
182.32819511769964
 11
310.98075491492375
 21
182.32819511769964
  0
LINE
  8
_0-0_
  6
CONTINUOUS
 62
    7
 10
310.98075491492375
 20
182.32819511769964
 11
310.98075491492375
 21
196.37717154769956
  0
LINE
  8
_0-0_
  6
CONTINUOUS
 62
    7
 10
330.0307549149237
 20
196.37717154769956
 11
344.08028330842376
 21
196.37717154769956
  0
LINE
  8
_0-0_
  6
CONTINUOUS
 62
    7
 10
344.08028330842376
 20
196.37717154769956
 11
344.08028330842376
 21
182.32819511769964
  0
LINE
  8
_0-0_
  6
CONTINUOUS
 62
    7
 10
344.08028330842376
 20
182.32819511769964
 11
330.0307549149237
 21
182.32819511769964
  0
LINE
  8
_0-0_
  6
CONTINUOUS
 62
    7
 10
330.0307549149237
 20
182.32819511769964
 11
330.0307549149237
 21
196.37717154769956
  0
LINE
  8
_0-0_
  6
CONTINUOUS
 62
    7
 10
353.84326491492379
 20
177.32717154769961
 11
367.89279330842385
 21
177.32717154769961
  0
LINE
  8
_0-0_
  6
CONTINUOUS
 62
    7
 10
367.89279330842385
 20
177.32717154769961
 11
367.89279330842385
 21
163.27819511769968
  0
LINE
  8
_0-0_
  6
CONTINUOUS
 62
    7
 10
367.89279330842385
 20
163.27819511769968
 11
353.84326491492379
 21
163.27819511769968
  0
LINE
  8
_0-0_
  6
CONTINUOUS
 62
    7
 10
353.84326491492379
 20
163.27819511769968
 11
353.84326491492379
 21
177.32717154769961
  0
LINE
  8
_0-0_
  6
CONTINUOUS
 62
    7
 10
372.89326491492375
 20
177.32717154769961
 11
386.9427933084238
 21
177.32717154769961
  0
LINE
  8
_0-0_
  6
CONTINUOUS
 62
    7
 10
386.9427933084238
 20
177.32717154769961
 11
386.9427933084238
 21
163.27819511769968
  0
LINE
  8
_0-0_
  6
CONTINUOUS
 62
    7
 10
386.9427933084238
 20
163.27819511769968
 11
372.89326491492375
 21
163.27819511769968
  0
LINE
  8
_0-0_
  6
CONTINUOUS
 62
    7
 10
372.89326491492375
 20
163.27819511769968
 11
372.89326491492375
 21
177.32717154769961
  0
LINE
  8
_0-0_
  6
CONTINUOUS
 62
    7
 10
391.94186491492371
 20
177.32717154769961
 11
405.99139330842377
 21
177.32717154769961
  0
LINE
  8
_0-0_
  6
CONTINUOUS
 62
    7
 10
405.99139330842377
 20
177.32717154769961
 11
405.99139330842377
 21
163.27819511769968
  0
LINE
  8
_0-0_
  6
CONTINUOUS
 62
    7
 10
405.99139330842377
 20
163.27819511769968
 11
391.94186491492371
 21
163.27819511769968
  0
LINE
  8
_0-0_
  6
CONTINUOUS
 62
    7
 10
391.94186491492371
 20
163.27819511769968
 11
391.94186491492371
 21
177.32717154769961
  0
LINE
  8
_0-0_
  6
CONTINUOUS
 62
    7
 10
410.99156491492374
 20
177.32717154769961
 11
425.0410933084238
 21
177.32717154769961
  0
LINE
  8
_0-0_
  6
CONTINUOUS
 62
    7
 10
425.0410933084238
 20
177.32717154769961
 11
425.0410933084238
 21
163.27819511769968
  0
LINE
  8
_0-0_
  6
CONTINUOUS
 62
    7
 10
425.0410933084238
 20
163.27819511769968
 11
410.99156491492374
 21
163.27819511769968
  0
LINE
  8
_0-0_
  6
CONTINUOUS
 62
    7
 10
410.99156491492374
 20
163.27819511769968
 11
410.99156491492374
 21
177.32717154769961
  0
LINE
  8
_0-0_
  6
CONTINUOUS
 62
    7
 10
296.69321491492371
 20
177.32717154769961
 11
310.74274330842377
 21
177.32717154769961
  0
LINE
  8
_0-0_
  6
CONTINUOUS
 62
    7
 10
310.74274330842377
 20
177.32717154769961
 11
310.74274330842377
 21
163.27819511769968
  0
LINE
  8
_0-0_
  6
CONTINUOUS
 62
    7
 10
310.74274330842377
 20
163.27819511769968
 11
296.69321491492371
 21
163.27819511769968
  0
LINE
  8
_0-0_
  6
CONTINUOUS
 62
    7
 10
296.69321491492371
 20
163.27819511769968
 11
296.69321491492371
 21
177.32717154769961
  0
LINE
  8
_0-0_
  6
CONTINUOUS
 62
    7
 10
315.74326491492377
 20
177.32717154769961
 11
329.79279330842382
 21
177.32717154769961
  0
LINE
  8
_0-0_
  6
CONTINUOUS
 62
    7
 10
329.79279330842382
 20
177.32717154769961
 11
329.79279330842382
 21
163.27819511769968
  0
LINE
  8
_0-0_
  6
CONTINUOUS
 62
    7
 10
329.79279330842382
 20
163.27819511769968
 11
315.74326491492377
 21
163.27819511769968
  0
LINE
  8
_0-0_
  6
CONTINUOUS
 62
    7
 10
315.74326491492377
 20
163.27819511769968
 11
315.74326491492377
 21
177.32717154769961
  0
LINE
  8
_0-0_
  6
CONTINUOUS
 62
    7
 10
334.79326491492372
 20
177.32717154769961
 11
348.84279330842378
 21
177.32717154769961
  0
LINE
  8
_0-0_
  6
CONTINUOUS
 62
    7
 10
348.84279330842378
 20
177.32717154769961
 11
348.84279330842378
 21
163.27819511769968
  0
LINE
  8
_0-0_
  6
CONTINUOUS
 62
    7
 10
348.84279330842378
 20
163.27819511769968
 11
334.79326491492372
 21
163.27819511769968
  0
LINE
  8
_0-0_
  6
CONTINUOUS
 62
    7
 10
334.79326491492372
 20
163.27819511769968
 11
334.79326491492372
 21
177.32717154769961
  0
LINE
  8
_0-0_
  6
CONTINUOUS
 62
    7
 10
363.36830491492378
 20
158.27717154769965
 11
377.41783330842384
 21
158.27717154769965
  0
LINE
  8
_0-0_
  6
CONTINUOUS
 62
    7
 10
377.41783330842384
 20
158.27717154769965
 11
377.41783330842384
 21
144.22819511769973
  0
LINE
  8
_0-0_
  6
CONTINUOUS
 62
    7
 10
377.41783330842384
 20
144.22819511769973
 11
363.36830491492378
 21
144.22819511769973
  0
LINE
  8
_0-0_
  6
CONTINUOUS
 62
    7
 10
363.36830491492378
 20
144.22819511769973
 11
363.36830491492378
 21
158.27717154769965
  0
LINE
  8
_0-0_
  6
CONTINUOUS
 62
    7
 10
382.41830491492374
 20
158.27717154769965
 11
396.46783330842379
 21
158.27717154769965
  0
LINE
  8
_0-0_
  6
CONTINUOUS
 62
    7
 10
396.46783330842379
 20
158.27717154769965
 11
396.46783330842379
 21
144.22819511769973
  0
LINE
  8
_0-0_
  6
CONTINUOUS
 62
    7
 10
396.46783330842379
 20
144.22819511769973
 11
382.41830491492374
 21
144.22819511769973
  0
LINE
  8
_0-0_
  6
CONTINUOUS
 62
    7
 10
382.41830491492374
 20
144.22819511769973
 11
382.41830491492374
 21
158.27717154769965
  0
LINE
  8
_0-0_
  6
CONTINUOUS
 62
    7
 10
401.4669049149237
 20
158.27717154769965
 11
415.51643330842376
 21
158.27717154769965
  0
LINE
  8
_0-0_
  6
CONTINUOUS
 62
    7
 10
415.51643330842376
 20
158.27717154769965
 11
415.51643330842376
 21
144.22819511769973
  0
LINE
  8
_0-0_
  6
CONTINUOUS
 62
    7
 10
415.51643330842376
 20
144.22819511769973
 11
401.4669049149237
 21
144.22819511769973
  0
LINE
  8
_0-0_
  6
CONTINUOUS
 62
    7
 10
401.4669049149237
 20
144.22819511769973
 11
401.4669049149237
 21
158.27717154769965
  0
LINE
  8
_0-0_
  6
CONTINUOUS
 62
    7
 10
306.2182549149237
 20
158.27717154769965
 11
320.26778330842376
 21
158.27717154769965
  0
LINE
  8
_0-0_
  6
CONTINUOUS
 62
    7
 10
320.26778330842376
 20
158.27717154769965
 11
320.26778330842376
 21
144.22819511769973
  0
LINE
  8
_0-0_
  6
CONTINUOUS
 62
    7
 10
320.26778330842376
 20
144.22819511769973
 11
306.2182549149237
 21
144.22819511769973
  0
LINE
  8
_0-0_
  6
CONTINUOUS
 62
    7
 10
306.2182549149237
 20
144.22819511769973
 11
306.2182549149237
 21
158.27717154769965
  0
LINE
  8
_0-0_
  6
CONTINUOUS
 62
    7
 10
325.26830491492376
 20
158.27717154769965
 11
339.31783330842381
 21
158.27717154769965
  0
LINE
  8
_0-0_
  6
CONTINUOUS
 62
    7
 10
339.31783330842381
 20
158.27717154769965
 11
339.31783330842381
 21
144.22819511769973
  0
LINE
  8
_0-0_
  6
CONTINUOUS
 62
    7
 10
339.31783330842381
 20
144.22819511769973
 11
325.26830491492376
 21
144.22819511769973
  0
LINE
  8
_0-0_
  6
CONTINUOUS
 62
    7
 10
325.26830491492376
 20
144.22819511769973
 11
325.26830491492376
 21
158.27717154769965
  0
LINE
  8
_0-0_
  6
CONTINUOUS
 62
    7
 10
344.31830491492371
 20
158.27717154769965
 11
358.36783330842377
 21
158.27717154769965
  0
LINE
  8
_0-0_
  6
CONTINUOUS
 62
    7
 10
358.36783330842377
 20
158.27717154769965
 11
358.36783330842377
 21
144.22819511769973
  0
LINE
  8
_0-0_
  6
CONTINUOUS
 62
    7
 10
358.36783330842377
 20
144.22819511769973
 11
344.31830491492371
 21
144.22819511769973
  0
LINE
  8
_0-0_
  6
CONTINUOUS
 62
    7
 10
344.31830491492371
 20
144.22819511769973
 11
344.31830491492371
 21
158.27717154769965
  0
LINE
  8
_0-0_
  6
CONTINUOUS
 62
    7
 10
391.94330491492383
 20
139.22727154769956
 11
405.99283330842388
 21
139.22727154769956
  0
LINE
  8
_0-0_
  6
CONTINUOUS
 62
    7
 10
405.99283330842388
 20
139.22727154769956
 11
405.99283330842388
 21
125.17829511769963
  0
LINE
  8
_0-0_
  6
CONTINUOUS
 62
    7
 10
405.99283330842388
 20
125.17829511769963
 11
391.94330491492383
 21
125.17829511769963
  0
LINE
  8
_0-0_
  6
CONTINUOUS
 62
    7
 10
391.94330491492383
 20
125.17829511769963
 11
391.94330491492383
 21
139.22727154769956
  0
LINE
  8
_0-0_
  6
CONTINUOUS
 62
    7
 10
410.99330491492378
 20
139.22727154769956
 11
425.04283330842384
 21
139.22727154769956
  0
LINE
  8
_0-0_
  6
CONTINUOUS
 62
    7
 10
425.04283330842384
 20
139.22727154769956
 11
425.04283330842384
 21
125.17829511769963
  0
LINE
  8
_0-0_
  6
CONTINUOUS
 62
    7
 10
425.04283330842384
 20
125.17829511769963
 11
410.99330491492378
 21
125.17829511769963
  0
LINE
  8
_0-0_
  6
CONTINUOUS
 62
    7
 10
410.99330491492378
 20
125.17829511769963
 11
410.99330491492378
 21
139.22727154769956
  0
LINE
  8
_0-0_
  6
CONTINUOUS
 62
    7
 10
334.79325491492375
 20
139.22727154769956
 11
348.8427833084238
 21
139.22727154769956
  0
LINE
  8
_0-0_
  6
CONTINUOUS
 62
    7
 10
348.8427833084238
 20
139.22727154769956
 11
348.8427833084238
 21
125.17829511769963
  0
LINE
  8
_0-0_
  6
CONTINUOUS
 62
    7
 10
348.8427833084238
 20
125.17829511769963
 11
334.79325491492375
 21
125.17829511769963
  0
LINE
  8
_0-0_
  6
CONTINUOUS
 62
    7
 10
334.79325491492375
 20
125.17829511769963
 11
334.79325491492375
 21
139.22727154769956
  0
LINE
  8
_0-0_
  6
CONTINUOUS
 62
    7
 10
353.84330491492381
 20
139.22727154769956
 11
367.89283330842386
 21
139.22727154769956
  0
LINE
  8
_0-0_
  6
CONTINUOUS
 62
    7
 10
367.89283330842386
 20
139.22727154769956
 11
367.89283330842386
 21
125.17829511769963
  0
LINE
  8
_0-0_
  6
CONTINUOUS
 62
    7
 10
367.89283330842386
 20
125.17829511769963
 11
353.84330491492381
 21
125.17829511769963
  0
LINE
  8
_0-0_
  6
CONTINUOUS
 62
    7
 10
353.84330491492381
 20
125.17829511769963
 11
353.84330491492381
 21
139.22727154769956
  0
LINE
  8
_0-0_
  6
CONTINUOUS
 62
    7
 10
372.89330491492376
 20
139.22727154769956
 11
386.94283330842381
 21
139.22727154769956
  0
LINE
  8
_0-0_
  6
CONTINUOUS
 62
    7
 10
386.94283330842381
 20
139.22727154769956
 11
386.94283330842381
 21
125.17829511769963
  0
LINE
  8
_0-0_
  6
CONTINUOUS
 62
    7
 10
386.94283330842381
 20
125.17829511769963
 11
372.89330491492376
 21
125.17829511769963
  0
LINE
  8
_0-0_
  6
CONTINUOUS
 62
    7
 10
372.89330491492376
 20
125.17829511769963
 11
372.89330491492376
 21
139.22727154769956
  0
LINE
  8
_0-0_
  6
CONTINUOUS
 62
    7
 10
313.36195491492384
 20
139.22727154769956
 11
327.41148330842384
 21
139.22727154769956
  0
LINE
  8
_0-0_
  6
CONTINUOUS
 62
    7
 10
327.41148330842384
 20
139.22727154769956
 11
327.41148330842384
 21
125.17829511769963
  0
LINE
  8
_0-0_
  6
CONTINUOUS
 62
    7
 10
327.41148330842384
 20
125.17829511769963
 11
313.36195491492384
 21
125.17829511769963
  0
LINE
  8
_0-0_
  6
CONTINUOUS
 62
    7
 10
313.36195491492384
 20
125.17829511769963
 11
313.36195491492384
 21
139.22727154769956
  0
LINE
  8
_0-0_
  6
CONTINUOUS
 62
    7
 10
432.4230549149238
 20
139.22727154769956
 11
446.47258330842379
 21
139.22727154769956
  0
LINE
  8
_0-0_
  6
CONTINUOUS
 62
    7
 10
446.47258330842379
 20
139.22727154769956
 11
446.47258330842379
 21
125.17829511769963
  0
LINE
  8
_0-0_
  6
CONTINUOUS
 62
    7
 10
446.47258330842379
 20
125.17829511769963
 11
432.4230549149238
 21
125.17829511769963
  0
LINE
  8
_0-0_
  6
CONTINUOUS
 62
    7
 10
432.4230549149238
 20
125.17829511769963
 11
432.4230549149238
 21
139.22727154769956
  0
LINE
  8
_0-0_
  6
CONTINUOUS
 62
    7
 10
427.66205491492383
 20
158.27717154769965
 11
441.71158330842383
 21
158.27717154769965
  0
LINE
  8
_0-0_
  6
CONTINUOUS
 62
    7
 10
441.71158330842383
 20
158.27717154769965
 11
441.71158330842383
 21
144.22819511769973
  0
LINE
  8
_0-0_
  6
CONTINUOUS
 62
    7
 10
441.71158330842383
 20
144.22819511769973
 11
427.66205491492383
 21
144.22819511769973
  0
LINE
  8
_0-0_
  6
CONTINUOUS
 62
    7
 10
427.66205491492383
 20
144.22819511769973
 11
427.66205491492383
 21
158.27717154769965
  0
LINE
  8
_0-0_
  6
CONTINUOUS
 62
    7
 10
446.47338330842376
 20
186.85217154769964
 11
446.47338330842376
 21
172.80319511769972
  0
LINE
  8
_0-0_
  6
CONTINUOUS
 62
    7
 10
432.42385491492377
 20
172.80319511769972
 11
432.42385491492377
 21
186.85217154769964
  0
LINE
  8
_0-0_
  6
CONTINUOUS
 62
    7
 10
458.61805491492379
 20
177.32717154769961
 11
472.66758330842379
 21
177.32717154769961
  0
LINE
  8
_0-0_
  6
CONTINUOUS
 62
    7
 10
472.66758330842379
 20
177.32717154769961
 11
472.66758330842379
 21
163.27819511769968
  0
LINE
  8
_0-0_
  6
CONTINUOUS
 62
    7
 10
472.66758330842379
 20
163.27819511769968
 11
458.61805491492379
 21
163.27819511769968
  0
LINE
  8
_0-0_
  6
CONTINUOUS
 62
    7
 10
458.61805491492379
 20
163.27819511769968
 11
458.61805491492379
 21
177.32717154769961
  0
LINE
  8
_0-0_
  6
CONTINUOUS
 62
    7
 10
458.61805491492379
 20
158.27717154769965
 11
472.66758330842379
 21
158.27717154769965
  0
LINE
  8
_0-0_
  6
CONTINUOUS
 62
    7
 10
472.66758330842379
 20
158.27717154769965
 11
472.66758330842379
 21
144.22819511769973
  0
LINE
  8
_0-0_
  6
CONTINUOUS
 62
    7
 10
472.66758330842379
 20
144.22819511769973
 11
458.61805491492379
 21
144.22819511769973
  0
LINE
  8
_0-0_
  6
CONTINUOUS
 62
    7
 10
458.61805491492379
 20
144.22819511769973
 11
458.61805491492379
 21
158.27717154769965
  0
LINE
  8
_0-0_
  6
CONTINUOUS
 62
    7
 10
458.61805491492379
 20
139.22727154769956
 11
472.66758330842379
 21
139.22727154769956
  0
LINE
  8
_0-0_
  6
CONTINUOUS
 62
    7
 10
472.66758330842379
 20
139.22727154769956
 11
472.66758330842379
 21
125.17829511769963
  0
LINE
  8
_0-0_
  6
CONTINUOUS
 62
    7
 10
472.66758330842379
 20
125.17829511769963
 11
458.61805491492379
 21
125.17829511769963
  0
LINE
  8
_0-0_
  6
CONTINUOUS
 62
    7
 10
458.61805491492379
 20
125.17829511769963
 11
458.61805491492379
 21
139.22727154769956
  0
LINE
  8
_0-0_
  6
CONTINUOUS
 62
    7
 10
291.93070491492369
 20
244.00177154769955
 11
305.98023330842375
 21
244.00177154769955
  0
LINE
  8
_0-0_
  6
CONTINUOUS
 62
    7
 10
305.98023330842375
 20
244.00177154769955
 11
305.98023330842375
 21
229.95279511769962
  0
LINE
  8
_0-0_
  6
CONTINUOUS
 62
    7
 10
305.98023330842375
 20
229.95279511769962
 11
291.93070491492369
 21
229.95279511769962
  0
LINE
  8
_0-0_
  6
CONTINUOUS
 62
    7
 10
291.93070491492369
 20
229.95279511769962
 11
291.93070491492369
 21
244.00177154769955
  0
LINE
  8
_0-0_
  6
CONTINUOUS
 62
    7
 10
310.98075491492375
 20
244.00177154769955
 11
325.0302833084238
 21
244.00177154769955
  0
LINE
  8
_0-0_
  6
CONTINUOUS
 62
    7
 10
325.0302833084238
 20
244.00177154769955
 11
325.0302833084238
 21
229.95279511769962
  0
LINE
  8
_0-0_
  6
CONTINUOUS
 62
    7
 10
325.0302833084238
 20
229.95279511769962
 11
310.98075491492375
 21
229.95279511769962
  0
LINE
  8
_0-0_
  6
CONTINUOUS
 62
    7
 10
310.98075491492375
 20
229.95279511769962
 11
310.98075491492375
 21
244.00177154769955
  0
LINE
  8
_0-0_
  6
CONTINUOUS
 62
    7
 10
330.0307549149237
 20
244.00177154769955
 11
344.08028330842376
 21
244.00177154769955
  0
LINE
  8
_0-0_
  6
CONTINUOUS
 62
    7
 10
344.08028330842376
 20
244.00177154769955
 11
344.08028330842376
 21
229.95279511769962
  0
LINE
  8
_0-0_
  6
CONTINUOUS
 62
    7
 10
344.08028330842376
 20
229.95279511769962
 11
330.0307549149237
 21
229.95279511769962
  0
LINE
  8
_0-0_
  6
CONTINUOUS
 62
    7
 10
330.0307549149237
 20
229.95279511769962
 11
330.0307549149237
 21
244.00177154769955
  0
LINE
  8
_0-0_
  6
CONTINUOUS
 62
    7
 10
349.08075491492377
 20
244.00177154769955
 11
363.13028330842383
 21
244.00177154769955
  0
LINE
  8
_0-0_
  6
CONTINUOUS
 62
    7
 10
363.13028330842383
 20
244.00177154769955
 11
363.13028330842383
 21
229.95279511769962
  0
LINE
  8
_0-0_
  6
CONTINUOUS
 62
    7
 10
363.13028330842383
 20
229.95279511769962
 11
349.08075491492377
 21
229.95279511769962
  0
LINE
  8
_0-0_
  6
CONTINUOUS
 62
    7
 10
349.08075491492377
 20
229.95279511769962
 11
349.08075491492377
 21
244.00177154769955
  0
LINE
  8
_0-0_
  6
CONTINUOUS
 62
    7
 10
377.6557549149237
 20
244.00177154769955
 11
391.70528330842376
 21
244.00177154769955
  0
LINE
  8
_0-0_
  6
CONTINUOUS
 62
    7
 10
391.70528330842376
 20
244.00177154769955
 11
391.70528330842376
 21
229.95279511769962
  0
LINE
  8
_0-0_
  6
CONTINUOUS
 62
    7
 10
391.70528330842376
 20
229.95279511769962
 11
377.6557549149237
 21
229.95279511769962
  0
LINE
  8
_0-0_
  6
CONTINUOUS
 62
    7
 10
377.6557549149237
 20
229.95279511769962
 11
377.6557549149237
 21
244.00177154769955
  0
LINE
  8
_0-0_
  6
CONTINUOUS
 62
    7
 10
396.7060549149237
 20
244.00177154769955
 11
410.75558330842375
 21
244.00177154769955
  0
LINE
  8
_0-0_
  6
CONTINUOUS
 62
    7
 10
410.75558330842375
 20
244.00177154769955
 11
410.75558330842375
 21
229.95279511769962
  0
LINE
  8
_0-0_
  6
CONTINUOUS
 62
    7
 10
410.75558330842375
 20
229.95279511769962
 11
396.7060549149237
 21
229.95279511769962
  0
LINE
  8
_0-0_
  6
CONTINUOUS
 62
    7
 10
396.7060549149237
 20
229.95279511769962
 11
396.7060549149237
 21
244.00177154769955
  0
LINE
  8
_0-0_
  6
CONTINUOUS
 62
    7
 10
415.75605491492377
 20
244.00177154769955
 11
429.80558330842382
 21
244.00177154769955
  0
LINE
  8
_0-0_
  6
CONTINUOUS
 62
    7
 10
429.80558330842382
 20
244.00177154769955
 11
429.80558330842382
 21
229.95279511769962
  0
LINE
  8
_0-0_
  6
CONTINUOUS
 62
    7
 10
429.80558330842382
 20
229.95279511769962
 11
415.75605491492377
 21
229.95279511769962
  0
LINE
  8
_0-0_
  6
CONTINUOUS
 62
    7
 10
415.75605491492377
 20
229.95279511769962
 11
415.75605491492377
 21
244.00177154769955
  0
LINE
  8
_0-0_
  6
CONTINUOUS
 62
    7
 10
434.80605491492372
 20
244.00177154769955
 11
448.85558330842377
 21
244.00177154769955
  0
LINE
  8
_0-0_
  6
CONTINUOUS
 62
    7
 10
448.85558330842377
 20
244.00177154769955
 11
448.85558330842377
 21
229.95279511769962
  0
LINE
  8
_0-0_
  6
CONTINUOUS
 62
    7
 10
448.85558330842377
 20
229.95279511769962
 11
434.80605491492372
 21
229.95279511769962
  0
LINE
  8
_0-0_
  6
CONTINUOUS
 62
    7
 10
434.80605491492372
 20
229.95279511769962
 11
434.80605491492372
 21
244.00177154769955
  0
LINE
  8
_0-0_
  6
CONTINUOUS
 62
    7
 10
458.61805491492373
 20
215.42717154769963
 11
472.66758330842379
 21
215.42717154769963
  0
LINE
  8
_0-0_
  6
CONTINUOUS
 62
    7
 10
472.66758330842379
 20
215.42717154769963
 11
472.66758330842379
 21
201.3781951176997
  0
LINE
  8
_0-0_
  6
CONTINUOUS
 62
    7
 10
472.66758330842379
 20
201.3781951176997
 11
458.61805491492373
 21
201.3781951176997
  0
LINE
  8
_0-0_
  6
CONTINUOUS
 62
    7
 10
458.61805491492373
 20
201.3781951176997
 11
458.61805491492373
 21
215.42717154769963
  0
LINE
  8
_0-0_
  6
CONTINUOUS
 62
    7
 10
458.61805491492373
 20
196.37717154769956
 11
472.66758330842379
 21
196.37717154769956
  0
LINE
  8
_0-0_
  6
CONTINUOUS
 62
    7
 10
472.66758330842379
 20
196.37717154769956
 11
472.66758330842379
 21
182.32819511769964
  0
LINE
  8
_0-0_
  6
CONTINUOUS
 62
    7
 10
472.66758330842379
 20
182.32819511769964
 11
458.61805491492373
 21
182.32819511769964
  0
LINE
  8
_0-0_
  6
CONTINUOUS
 62
    7
 10
458.61805491492373
 20
182.32819511769964
 11
458.61805491492373
 21
196.37717154769956
  0
LINE
  8
_0-0_
  6
CONTINUOUS
 62
    7
 10
434.80605491492372
 20
215.42717154769963
 11
448.85558330842377
 21
215.42717154769963
  0
LINE
  8
_0-0_
  6
CONTINUOUS
 62
    7
 10
448.85558330842377
 20
215.42717154769963
 11
448.85558330842377
 21
201.3781951176997
  0
LINE
  8
_0-0_
  6
CONTINUOUS
 62
    7
 10
448.85558330842377
 20
201.3781951176997
 11
434.80605491492372
 21
201.3781951176997
  0
LINE
  8
_0-0_
  6
CONTINUOUS
 62
    7
 10
434.80605491492372
 20
201.3781951176997
 11
434.80605491492372
 21
215.42717154769963
  0
LINE
  8
_0-0_
  6
CONTINUOUS
 62
    7
 10
415.75605491492377
 20
215.42717154769963
 11
429.80558330842382
 21
215.42717154769963
  0
LINE
  8
_0-0_
  6
CONTINUOUS
 62
    7
 10
429.80558330842382
 20
215.42717154769963
 11
429.80558330842382
 21
201.3781951176997
  0
LINE
  8
_0-0_
  6
CONTINUOUS
 62
    7
 10
429.80558330842382
 20
201.3781951176997
 11
415.75605491492377
 21
201.3781951176997
  0
LINE
  8
_0-0_
  6
CONTINUOUS
 62
    7
 10
415.75605491492377
 20
201.3781951176997
 11
415.75605491492377
 21
215.42717154769963
  0
LINE
  8
_0-0_
  6
CONTINUOUS
 62
    7
 10
396.7060549149237
 20
215.42717154769963
 11
410.75558330842375
 21
215.42717154769963
  0
LINE
  8
_0-0_
  6
CONTINUOUS
 62
    7
 10
410.75558330842375
 20
215.42717154769963
 11
410.75558330842375
 21
201.3781951176997
  0
LINE
  8
_0-0_
  6
CONTINUOUS
 62
    7
 10
410.75558330842375
 20
201.3781951176997
 11
396.7060549149237
 21
201.3781951176997
  0
LINE
  8
_0-0_
  6
CONTINUOUS
 62
    7
 10
396.7060549149237
 20
201.3781951176997
 11
396.7060549149237
 21
215.42717154769963
  0
LINE
  8
_0-0_
  6
CONTINUOUS
 62
    7
 10
377.6557549149237
 20
215.42717154769963
 11
391.70528330842376
 21
215.42717154769963
  0
LINE
  8
_0-0_
  6
CONTINUOUS
 62
    7
 10
391.70528330842376
 20
215.42717154769963
 11
391.70528330842376
 21
201.3781951176997
  0
LINE
  8
_0-0_
  6
CONTINUOUS
 62
    7
 10
391.70528330842376
 20
201.3781951176997
 11
377.6557549149237
 21
201.3781951176997
  0
LINE
  8
_0-0_
  6
CONTINUOUS
 62
    7
 10
377.6557549149237
 20
201.3781951176997
 11
377.6557549149237
 21
215.42717154769963
  0
LINE
  8
_0-0_
  6
CONTINUOUS
 62
    7
 10
358.60575491492375
 20
215.42717154769963
 11
372.6552833084238
 21
215.42717154769963
  0
LINE
  8
_0-0_
  6
CONTINUOUS
 62
    7
 10
372.6552833084238
 20
215.42717154769963
 11
372.6552833084238
 21
201.3781951176997
  0
LINE
  8
_0-0_
  6
CONTINUOUS
 62
    7
 10
372.6552833084238
 20
201.3781951176997
 11
358.60575491492375
 21
201.3781951176997
  0
LINE
  8
_0-0_
  6
CONTINUOUS
 62
    7
 10
358.60575491492375
 20
201.3781951176997
 11
358.60575491492375
 21
215.42717154769963
  0
LINE
  8
_0-0_
  6
CONTINUOUS
 62
    7
 10
339.5557549149238
 20
215.42717154769963
 11
353.60528330842385
 21
215.42717154769963
  0
LINE
  8
_0-0_
  6
CONTINUOUS
 62
    7
 10
353.60528330842385
 20
215.42717154769963
 11
353.60528330842385
 21
201.3781951176997
  0
LINE
  8
_0-0_
  6
CONTINUOUS
 62
    7
 10
353.60528330842385
 20
201.3781951176997
 11
339.5557549149238
 21
201.3781951176997
  0
LINE
  8
_0-0_
  6
CONTINUOUS
 62
    7
 10
339.5557549149238
 20
201.3781951176997
 11
339.5557549149238
 21
215.42717154769963
  0
LINE
  8
_0-0_
  6
CONTINUOUS
 62
    7
 10
349.08075491492377
 20
196.37717154769956
 11
363.13028330842383
 21
196.37717154769956
  0
LINE
  8
_0-0_
  6
CONTINUOUS
 62
    7
 10
363.13028330842383
 20
196.37717154769956
 11
363.13028330842383
 21
182.32819511769964
  0
LINE
  8
_0-0_
  6
CONTINUOUS
 62
    7
 10
363.13028330842383
 20
182.32819511769964
 11
349.08075491492377
 21
182.32819511769964
  0
LINE
  8
_0-0_
  6
CONTINUOUS
 62
    7
 10
349.08075491492377
 20
182.32819511769964
 11
349.08075491492377
 21
196.37717154769956
  0
LINE
  8
_0-0_
  6
CONTINUOUS
 62
    7
 10
368.13075491492373
 20
196.37717154769956
 11
382.18028330842378
 21
196.37717154769956
  0
LINE
  8
_0-0_
  6
CONTINUOUS
 62
    7
 10
382.18028330842378
 20
196.37717154769956
 11
382.18028330842378
 21
182.32819511769964
  0
LINE
  8
_0-0_
  6
CONTINUOUS
 62
    7
 10
382.18028330842378
 20
182.32819511769964
 11
368.13075491492373
 21
182.32819511769964
  0
LINE
  8
_0-0_
  6
CONTINUOUS
 62
    7
 10
368.13075491492373
 20
182.32819511769964
 11
368.13075491492373
 21
196.37717154769956
  0
LINE
  8
_0-0_
  6
CONTINUOUS
 62
    7
 10
387.17935491492369
 20
196.37717154769956
 11
401.22888330842375
 21
196.37717154769956
  0
LINE
  8
_0-0_
  6
CONTINUOUS
 62
    7
 10
401.22888330842375
 20
196.37717154769956
 11
401.22888330842375
 21
182.32819511769964
  0
LINE
  8
_0-0_
  6
CONTINUOUS
 62
    7
 10
401.22888330842375
 20
182.32819511769964
 11
387.17935491492369
 21
182.32819511769964
  0
LINE
  8
_0-0_
  6
CONTINUOUS
 62
    7
 10
387.17935491492369
 20
182.32819511769964
 11
387.17935491492369
 21
196.37717154769956
  0
LINE
  8
_0-0_
  6
CONTINUOUS
 62
    7
 10
406.22905491492372
 20
196.37717154769956
 11
420.27858330842378
 21
196.37717154769956
  0
LINE
  8
_0-0_
  6
CONTINUOUS
 62
    7
 10
420.27858330842378
 20
196.37717154769956
 11
420.27858330842378
 21
182.32819511769964
  0
LINE
  8
_0-0_
  6
CONTINUOUS
 62
    7
 10
420.27858330842378
 20
182.32819511769964
 11
406.22905491492372
 21
182.32819511769964
  0
LINE
  8
_0-0_
  6
CONTINUOUS
 62
    7
 10
406.22905491492372
 20
182.32819511769964
 11
406.22905491492372
 21
196.37717154769956
  0
LINE
  8
_0-0_
  6
CONTINUOUS
 62
    7
 10
320.50575491492373
 20
215.42717154769963
 11
334.55528330842378
 21
215.42717154769963
  0
LINE
  8
_0-0_
  6
CONTINUOUS
 62
    7
 10
334.55528330842378
 20
215.42717154769963
 11
334.55528330842378
 21
201.3781951176997
  0
LINE
  8
_0-0_
  6
CONTINUOUS
 62
    7
 10
334.55528330842378
 20
201.3781951176997
 11
320.50575491492373
 21
201.3781951176997
  0
LINE
  8
_0-0_
  6
CONTINUOUS
 62
    7
 10
320.50575491492373
 20
201.3781951176997
 11
320.50575491492373
 21
215.42717154769963
  0
LINE
  8
_0-0_
  6
CONTINUOUS
 62
    7
 10
301.45575491492377
 20
215.42717154769963
 11
315.50528330842383
 21
215.42717154769963
  0
LINE
  8
_0-0_
  6
CONTINUOUS
 62
    7
 10
315.50528330842383
 20
215.42717154769963
 11
315.50528330842383
 21
201.3781951176997
  0
LINE
  8
_0-0_
  6
CONTINUOUS
 62
    7
 10
315.50528330842383
 20
201.3781951176997
 11
301.45575491492377
 21
201.3781951176997
  0
LINE
  8
_0-0_
  6
CONTINUOUS
 62
    7
 10
301.45575491492377
 20
201.3781951176997
 11
301.45575491492377
 21
215.42717154769963
  0
LINE
  8
_0-0_
  6
CONTINUOUS
 62
    7
 10
291.93070491492369
 20
196.37717154769956
 11
305.98023330842375
 21
196.37717154769956
  0
LINE
  8
_0-0_
  6
CONTINUOUS
 62
    7
 10
305.98023330842375
 20
196.37717154769956
 11
305.98023330842375
 21
182.32819511769964
  0
LINE
  8
_0-0_
  6
CONTINUOUS
 62
    7
 10
305.98023330842375
 20
182.32819511769964
 11
291.93070491492369
 21
182.32819511769964
  0
LINE
  8
_0-0_
  6
CONTINUOUS
 62
    7
 10
291.93070491492369
 20
182.32819511769964
 11
291.93070491492369
 21
196.37717154769956
  0
LINE
  8
_0-0_
  6
CONTINUOUS
 62
    7
 10
310.98075491492375
 20
196.37717154769956
 11
325.0302833084238
 21
196.37717154769956
  0
LINE
  8
_0-0_
  6
CONTINUOUS
 62
    7
 10
325.0302833084238
 20
196.37717154769956
 11
325.0302833084238
 21
182.32819511769964
  0
LINE
  8
_0-0_
  6
CONTINUOUS
 62
    7
 10
325.0302833084238
 20
182.32819511769964
 11
310.98075491492375
 21
182.32819511769964
  0
LINE
  8
_0-0_
  6
CONTINUOUS
 62
    7
 10
310.98075491492375
 20
182.32819511769964
 11
310.98075491492375
 21
196.37717154769956
  0
LINE
  8
_0-0_
  6
CONTINUOUS
 62
    7
 10
330.0307549149237
 20
196.37717154769956
 11
344.08028330842376
 21
196.37717154769956
  0
LINE
  8
_0-0_
  6
CONTINUOUS
 62
    7
 10
344.08028330842376
 20
196.37717154769956
 11
344.08028330842376
 21
182.32819511769964
  0
LINE
  8
_0-0_
  6
CONTINUOUS
 62
    7
 10
344.08028330842376
 20
182.32819511769964
 11
330.0307549149237
 21
182.32819511769964
  0
LINE
  8
_0-0_
  6
CONTINUOUS
 62
    7
 10
330.0307549149237
 20
182.32819511769964
 11
330.0307549149237
 21
196.37717154769956
  0
LINE
  8
_0-0_
  6
CONTINUOUS
 62
    7
 10
353.84326491492379
 20
177.32717154769961
 11
367.89279330842385
 21
177.32717154769961
  0
LINE
  8
_0-0_
  6
CONTINUOUS
 62
    7
 10
367.89279330842385
 20
177.32717154769961
 11
367.89279330842385
 21
163.27819511769968
  0
LINE
  8
_0-0_
  6
CONTINUOUS
 62
    7
 10
367.89279330842385
 20
163.27819511769968
 11
353.84326491492379
 21
163.27819511769968
  0
LINE
  8
_0-0_
  6
CONTINUOUS
 62
    7
 10
353.84326491492379
 20
163.27819511769968
 11
353.84326491492379
 21
177.32717154769961
  0
LINE
  8
_0-0_
  6
CONTINUOUS
 62
    7
 10
372.89326491492375
 20
177.32717154769961
 11
386.9427933084238
 21
177.32717154769961
  0
LINE
  8
_0-0_
  6
CONTINUOUS
 62
    7
 10
386.9427933084238
 20
177.32717154769961
 11
386.9427933084238
 21
163.27819511769968
  0
LINE
  8
_0-0_
  6
CONTINUOUS
 62
    7
 10
386.9427933084238
 20
163.27819511769968
 11
372.89326491492375
 21
163.27819511769968
  0
LINE
  8
_0-0_
  6
CONTINUOUS
 62
    7
 10
372.89326491492375
 20
163.27819511769968
 11
372.89326491492375
 21
177.32717154769961
  0
LINE
  8
_0-0_
  6
CONTINUOUS
 62
    7
 10
391.94186491492371
 20
177.32717154769961
 11
405.99139330842377
 21
177.32717154769961
  0
LINE
  8
_0-0_
  6
CONTINUOUS
 62
    7
 10
405.99139330842377
 20
177.32717154769961
 11
405.99139330842377
 21
163.27819511769968
  0
LINE
  8
_0-0_
  6
CONTINUOUS
 62
    7
 10
405.99139330842377
 20
163.27819511769968
 11
391.94186491492371
 21
163.27819511769968
  0
LINE
  8
_0-0_
  6
CONTINUOUS
 62
    7
 10
391.94186491492371
 20
163.27819511769968
 11
391.94186491492371
 21
177.32717154769961
  0
LINE
  8
_0-0_
  6
CONTINUOUS
 62
    7
 10
410.99156491492374
 20
177.32717154769961
 11
425.0410933084238
 21
177.32717154769961
  0
LINE
  8
_0-0_
  6
CONTINUOUS
 62
    7
 10
425.0410933084238
 20
177.32717154769961
 11
425.0410933084238
 21
163.27819511769968
  0
LINE
  8
_0-0_
  6
CONTINUOUS
 62
    7
 10
425.0410933084238
 20
163.27819511769968
 11
410.99156491492374
 21
163.27819511769968
  0
LINE
  8
_0-0_
  6
CONTINUOUS
 62
    7
 10
410.99156491492374
 20
163.27819511769968
 11
410.99156491492374
 21
177.32717154769961
  0
LINE
  8
_0-0_
  6
CONTINUOUS
 62
    7
 10
296.69321491492371
 20
177.32717154769961
 11
310.74274330842377
 21
177.32717154769961
  0
LINE
  8
_0-0_
  6
CONTINUOUS
 62
    7
 10
310.74274330842377
 20
177.32717154769961
 11
310.74274330842377
 21
163.27819511769968
  0
LINE
  8
_0-0_
  6
CONTINUOUS
 62
    7
 10
310.74274330842377
 20
163.27819511769968
 11
296.69321491492371
 21
163.27819511769968
  0
LINE
  8
_0-0_
  6
CONTINUOUS
 62
    7
 10
296.69321491492371
 20
163.27819511769968
 11
296.69321491492371
 21
177.32717154769961
  0
LINE
  8
_0-0_
  6
CONTINUOUS
 62
    7
 10
315.74326491492377
 20
177.32717154769961
 11
329.79279330842382
 21
177.32717154769961
  0
LINE
  8
_0-0_
  6
CONTINUOUS
 62
    7
 10
329.79279330842382
 20
177.32717154769961
 11
329.79279330842382
 21
163.27819511769968
  0
LINE
  8
_0-0_
  6
CONTINUOUS
 62
    7
 10
329.79279330842382
 20
163.27819511769968
 11
315.74326491492377
 21
163.27819511769968
  0
LINE
  8
_0-0_
  6
CONTINUOUS
 62
    7
 10
315.74326491492377
 20
163.27819511769968
 11
315.74326491492377
 21
177.32717154769961
  0
LINE
  8
_0-0_
  6
CONTINUOUS
 62
    7
 10
334.79326491492372
 20
177.32717154769961
 11
348.84279330842378
 21
177.32717154769961
  0
LINE
  8
_0-0_
  6
CONTINUOUS
 62
    7
 10
348.84279330842378
 20
177.32717154769961
 11
348.84279330842378
 21
163.27819511769968
  0
LINE
  8
_0-0_
  6
CONTINUOUS
 62
    7
 10
348.84279330842378
 20
163.27819511769968
 11
334.79326491492372
 21
163.27819511769968
  0
LINE
  8
_0-0_
  6
CONTINUOUS
 62
    7
 10
334.79326491492372
 20
163.27819511769968
 11
334.79326491492372
 21
177.32717154769961
  0
LINE
  8
_0-0_
  6
CONTINUOUS
 62
    7
 10
363.36830491492378
 20
158.27717154769965
 11
377.41783330842384
 21
158.27717154769965
  0
LINE
  8
_0-0_
  6
CONTINUOUS
 62
    7
 10
377.41783330842384
 20
158.27717154769965
 11
377.41783330842384
 21
144.22819511769973
  0
LINE
  8
_0-0_
  6
CONTINUOUS
 62
    7
 10
377.41783330842384
 20
144.22819511769973
 11
363.36830491492378
 21
144.22819511769973
  0
LINE
  8
_0-0_
  6
CONTINUOUS
 62
    7
 10
363.36830491492378
 20
144.22819511769973
 11
363.36830491492378
 21
158.27717154769965
  0
LINE
  8
_0-0_
  6
CONTINUOUS
 62
    7
 10
382.41830491492374
 20
158.27717154769965
 11
396.46783330842379
 21
158.27717154769965
  0
LINE
  8
_0-0_
  6
CONTINUOUS
 62
    7
 10
396.46783330842379
 20
158.27717154769965
 11
396.46783330842379
 21
144.22819511769973
  0
LINE
  8
_0-0_
  6
CONTINUOUS
 62
    7
 10
396.46783330842379
 20
144.22819511769973
 11
382.41830491492374
 21
144.22819511769973
  0
LINE
  8
_0-0_
  6
CONTINUOUS
 62
    7
 10
382.41830491492374
 20
144.22819511769973
 11
382.41830491492374
 21
158.27717154769965
  0
LINE
  8
_0-0_
  6
CONTINUOUS
 62
    7
 10
401.4669049149237
 20
158.27717154769965
 11
415.51643330842376
 21
158.27717154769965
  0
LINE
  8
_0-0_
  6
CONTINUOUS
 62
    7
 10
415.51643330842376
 20
158.27717154769965
 11
415.51643330842376
 21
144.22819511769973
  0
LINE
  8
_0-0_
  6
CONTINUOUS
 62
    7
 10
415.51643330842376
 20
144.22819511769973
 11
401.4669049149237
 21
144.22819511769973
  0
LINE
  8
_0-0_
  6
CONTINUOUS
 62
    7
 10
401.4669049149237
 20
144.22819511769973
 11
401.4669049149237
 21
158.27717154769965
  0
LINE
  8
_0-0_
  6
CONTINUOUS
 62
    7
 10
306.2182549149237
 20
158.27717154769965
 11
320.26778330842376
 21
158.27717154769965
  0
LINE
  8
_0-0_
  6
CONTINUOUS
 62
    7
 10
320.26778330842376
 20
158.27717154769965
 11
320.26778330842376
 21
144.22819511769973
  0
LINE
  8
_0-0_
  6
CONTINUOUS
 62
    7
 10
320.26778330842376
 20
144.22819511769973
 11
306.2182549149237
 21
144.22819511769973
  0
LINE
  8
_0-0_
  6
CONTINUOUS
 62
    7
 10
306.2182549149237
 20
144.22819511769973
 11
306.2182549149237
 21
158.27717154769965
  0
LINE
  8
_0-0_
  6
CONTINUOUS
 62
    7
 10
325.26830491492376
 20
158.27717154769965
 11
339.31783330842381
 21
158.27717154769965
  0
LINE
  8
_0-0_
  6
CONTINUOUS
 62
    7
 10
339.31783330842381
 20
158.27717154769965
 11
339.31783330842381
 21
144.22819511769973
  0
LINE
  8
_0-0_
  6
CONTINUOUS
 62
    7
 10
339.31783330842381
 20
144.22819511769973
 11
325.26830491492376
 21
144.22819511769973
  0
LINE
  8
_0-0_
  6
CONTINUOUS
 62
    7
 10
325.26830491492376
 20
144.22819511769973
 11
325.26830491492376
 21
158.27717154769965
  0
LINE
  8
_0-0_
  6
CONTINUOUS
 62
    7
 10
344.31830491492371
 20
158.27717154769965
 11
358.36783330842377
 21
158.27717154769965
  0
LINE
  8
_0-0_
  6
CONTINUOUS
 62
    7
 10
358.36783330842377
 20
158.27717154769965
 11
358.36783330842377
 21
144.22819511769973
  0
LINE
  8
_0-0_
  6
CONTINUOUS
 62
    7
 10
358.36783330842377
 20
144.22819511769973
 11
344.31830491492371
 21
144.22819511769973
  0
LINE
  8
_0-0_
  6
CONTINUOUS
 62
    7
 10
344.31830491492371
 20
144.22819511769973
 11
344.31830491492371
 21
158.27717154769965
  0
LINE
  8
_0-0_
  6
CONTINUOUS
 62
    7
 10
391.94330491492383
 20
139.22727154769956
 11
405.99283330842388
 21
139.22727154769956
  0
LINE
  8
_0-0_
  6
CONTINUOUS
 62
    7
 10
405.99283330842388
 20
139.22727154769956
 11
405.99283330842388
 21
125.17829511769963
  0
LINE
  8
_0-0_
  6
CONTINUOUS
 62
    7
 10
405.99283330842388
 20
125.17829511769963
 11
391.94330491492383
 21
125.17829511769963
  0
LINE
  8
_0-0_
  6
CONTINUOUS
 62
    7
 10
391.94330491492383
 20
125.17829511769963
 11
391.94330491492383
 21
139.22727154769956
  0
LINE
  8
_0-0_
  6
CONTINUOUS
 62
    7
 10
410.99330491492378
 20
139.22727154769956
 11
425.04283330842384
 21
139.22727154769956
  0
LINE
  8
_0-0_
  6
CONTINUOUS
 62
    7
 10
425.04283330842384
 20
139.22727154769956
 11
425.04283330842384
 21
125.17829511769963
  0
LINE
  8
_0-0_
  6
CONTINUOUS
 62
    7
 10
425.04283330842384
 20
125.17829511769963
 11
410.99330491492378
 21
125.17829511769963
  0
LINE
  8
_0-0_
  6
CONTINUOUS
 62
    7
 10
410.99330491492378
 20
125.17829511769963
 11
410.99330491492378
 21
139.22727154769956
  0
LINE
  8
_0-0_
  6
CONTINUOUS
 62
    7
 10
334.79325491492375
 20
139.22727154769956
 11
348.8427833084238
 21
139.22727154769956
  0
LINE
  8
_0-0_
  6
CONTINUOUS
 62
    7
 10
348.8427833084238
 20
139.22727154769956
 11
348.8427833084238
 21
125.17829511769963
  0
LINE
  8
_0-0_
  6
CONTINUOUS
 62
    7
 10
348.8427833084238
 20
125.17829511769963
 11
334.79325491492375
 21
125.17829511769963
  0
LINE
  8
_0-0_
  6
CONTINUOUS
 62
    7
 10
334.79325491492375
 20
125.17829511769963
 11
334.79325491492375
 21
139.22727154769956
  0
LINE
  8
_0-0_
  6
CONTINUOUS
 62
    7
 10
353.84330491492381
 20
139.22727154769956
 11
367.89283330842386
 21
139.22727154769956
  0
LINE
  8
_0-0_
  6
CONTINUOUS
 62
    7
 10
367.89283330842386
 20
139.22727154769956
 11
367.89283330842386
 21
125.17829511769963
  0
LINE
  8
_0-0_
  6
CONTINUOUS
 62
    7
 10
367.89283330842386
 20
125.17829511769963
 11
353.84330491492381
 21
125.17829511769963
  0
LINE
  8
_0-0_
  6
CONTINUOUS
 62
    7
 10
353.84330491492381
 20
125.17829511769963
 11
353.84330491492381
 21
139.22727154769956
  0
LINE
  8
_0-0_
  6
CONTINUOUS
 62
    7
 10
372.89330491492376
 20
139.22727154769956
 11
386.94283330842381
 21
139.22727154769956
  0
LINE
  8
_0-0_
  6
CONTINUOUS
 62
    7
 10
386.94283330842381
 20
139.22727154769956
 11
386.94283330842381
 21
125.17829511769963
  0
LINE
  8
_0-0_
  6
CONTINUOUS
 62
    7
 10
386.94283330842381
 20
125.17829511769963
 11
372.89330491492376
 21
125.17829511769963
  0
LINE
  8
_0-0_
  6
CONTINUOUS
 62
    7
 10
372.89330491492376
 20
125.17829511769963
 11
372.89330491492376
 21
139.22727154769956
  0
LINE
  8
_0-0_
  6
CONTINUOUS
 62
    7
 10
313.36195491492384
 20
139.22727154769956
 11
327.41148330842384
 21
139.22727154769956
  0
LINE
  8
_0-0_
  6
CONTINUOUS
 62
    7
 10
327.41148330842384
 20
139.22727154769956
 11
327.41148330842384
 21
125.17829511769963
  0
LINE
  8
_0-0_
  6
CONTINUOUS
 62
    7
 10
327.41148330842384
 20
125.17829511769963
 11
313.36195491492384
 21
125.17829511769963
  0
LINE
  8
_0-0_
  6
CONTINUOUS
 62
    7
 10
313.36195491492384
 20
125.17829511769963
 11
313.36195491492384
 21
139.22727154769956
  0
LINE
  8
_0-0_
  6
CONTINUOUS
 62
    7
 10
432.4230549149238
 20
139.22727154769956
 11
446.47258330842379
 21
139.22727154769956
  0
LINE
  8
_0-0_
  6
CONTINUOUS
 62
    7
 10
446.47258330842379
 20
139.22727154769956
 11
446.47258330842379
 21
125.17829511769963
  0
LINE
  8
_0-0_
  6
CONTINUOUS
 62
    7
 10
446.47258330842379
 20
125.17829511769963
 11
432.4230549149238
 21
125.17829511769963
  0
LINE
  8
_0-0_
  6
CONTINUOUS
 62
    7
 10
432.4230549149238
 20
125.17829511769963
 11
432.4230549149238
 21
139.22727154769956
  0
LINE
  8
_0-0_
  6
CONTINUOUS
 62
    7
 10
427.66205491492383
 20
158.27717154769965
 11
441.71158330842383
 21
158.27717154769965
  0
LINE
  8
_0-0_
  6
CONTINUOUS
 62
    7
 10
441.71158330842383
 20
158.27717154769965
 11
441.71158330842383
 21
144.22819511769973
  0
LINE
  8
_0-0_
  6
CONTINUOUS
 62
    7
 10
441.71158330842383
 20
144.22819511769973
 11
427.66205491492383
 21
144.22819511769973
  0
LINE
  8
_0-0_
  6
CONTINUOUS
 62
    7
 10
427.66205491492383
 20
144.22819511769973
 11
427.66205491492383
 21
158.27717154769965
  0
LINE
  8
_0-0_
  6
CONTINUOUS
 62
    7
 10
446.47338330842376
 20
186.85217154769964
 11
446.47338330842376
 21
172.80319511769972
  0
LINE
  8
_0-0_
  6
CONTINUOUS
 62
    7
 10
432.42385491492377
 20
172.80319511769972
 11
432.42385491492377
 21
186.85217154769964
  0
LINE
  8
_0-0_
  6
CONTINUOUS
 62
    7
 10
458.61805491492379
 20
177.32717154769961
 11
472.66758330842379
 21
177.32717154769961
  0
LINE
  8
_0-0_
  6
CONTINUOUS
 62
    7
 10
472.66758330842379
 20
177.32717154769961
 11
472.66758330842379
 21
163.27819511769968
  0
LINE
  8
_0-0_
  6
CONTINUOUS
 62
    7
 10
472.66758330842379
 20
163.27819511769968
 11
458.61805491492379
 21
163.27819511769968
  0
LINE
  8
_0-0_
  6
CONTINUOUS
 62
    7
 10
458.61805491492379
 20
163.27819511769968
 11
458.61805491492379
 21
177.32717154769961
  0
LINE
  8
_0-0_
  6
CONTINUOUS
 62
    7
 10
458.61805491492379
 20
158.27717154769965
 11
472.66758330842379
 21
158.27717154769965
  0
LINE
  8
_0-0_
  6
CONTINUOUS
 62
    7
 10
472.66758330842379
 20
158.27717154769965
 11
472.66758330842379
 21
144.22819511769973
  0
LINE
  8
_0-0_
  6
CONTINUOUS
 62
    7
 10
472.66758330842379
 20
144.22819511769973
 11
458.61805491492379
 21
144.22819511769973
  0
LINE
  8
_0-0_
  6
CONTINUOUS
 62
    7
 10
458.61805491492379
 20
144.22819511769973
 11
458.61805491492379
 21
158.27717154769965
  0
LINE
  8
_0-0_
  6
CONTINUOUS
 62
    7
 10
458.61805491492379
 20
139.22727154769956
 11
472.66758330842379
 21
139.22727154769956
  0
LINE
  8
_0-0_
  6
CONTINUOUS
 62
    7
 10
472.66758330842379
 20
139.22727154769956
 11
472.66758330842379
 21
125.17829511769963
  0
LINE
  8
_0-0_
  6
CONTINUOUS
 62
    7
 10
472.66758330842379
 20
125.17829511769963
 11
458.61805491492379
 21
125.17829511769963
  0
LINE
  8
_0-0_
  6
CONTINUOUS
 62
    7
 10
458.61805491492379
 20
125.17829511769963
 11
458.61805491492379
 21
139.22727154769956
  0
LINE
  8
_0-0_
  6
CONTINUOUS
 62
    7
 10
446.47338330842376
 20
172.80319511769972
 11
441.74774411167374
 21
172.80319511769972
  0
CIRCLE
  8
_0-0_
  6
CONTINUOUS
 62
    7
 10
460.26804411167376
 20
246.47754833269954
 40
1
  0
ENDSEC
  0
EOF
