  0
SECTION
  2
HEADER
  9
$ACADVER
  1
AC1009
  9
$INSBASE
 10
0
 20
0
 30
0
  9
$EXTMIN
 10
0
 20
0
  9
$EXTMAX
 10
841
 20
594
  9
$LIMMIN
 10
0
 20
0
  9
$LIMMAX
 10
841
 20
594
  9
$LTSCALE
 40
1
  0
ENDSEC
  0
SECTION
  2
TABLES
  0
TABLE
  2
LTYPE
 70
     9
  0
LTYPE
  2
CONTINUOUS
 70
    64
  3
実線
 72
    65
 73
     0
 40
0.0
  0
LTYPE
  2
DASHED1
 70
    64
  3
--  --  --  --  --  --  --  --  
 72
    65
 73
     2
 40
2.5
 49
1.25
 49
-1.25
  0
LTYPE
  2
DASHED2
 70
    64
  3
----    ----    ----    ----    
 72
    65
 73
     2
 40
5.0
 49
2.5
 49
-2.5
  0
LTYPE
  2
DASHED3
 70
    64
  3
------  ------  ------  ------  
 72
    65
 73
     2
 40
5.0
 49
3.75
 49
-1.25
  0
LTYPE
  2
CENTER1
 70
    64
  3
----- - ----- - ----- - ----- - 
 72
    65
 73
     4
 40
10.0
 49
6.25
 49
-1.25
 49
1.25
 49
-1.25
  0
LTYPE
  2
CENTER2
 70
    64
  3
----------  --  ----------  --  
 72
    65
 73
     4
 40
20.0
 49
12.5
 49
-2.5
 49
2.5
 49
-2.5
  0
LTYPE
  2
PHANTOM1
 70
    64
  3
--- - - --- - - --- - - --- - - 
 72
    65
 73
     6
 40
10.0
 49
3.25
 49
-1.25
 49
1.25
 49
-1.25
 49
1.25
 49
-1.25
  0
LTYPE
  2
PHANTOM2
 70
    64
  3
--------  -  -  --------  -  -  
 72
    65
 73
     6
 40
20.0
 49
10.0
 49
-2.5
 49
1.25
 49
-2.5
 49
1.25
 49
-2.5
  0
LTYPE
  2
DOT
 70
    64
  3
-   -   -   -   -   -   -   -   
 72
    65
 73
     2
 40
2.5
 49
0.625
 49
-1.875
  0
LTYPE
  2
DUMMY
 70
    64
  3
ダミー
 72
    65
 73
     0
 40
0.0
  0
LTYPE
  2
RAND1
 70
    64
  3
ランダム線1
 72
    65
 73
     4
 40
10.0
 49
1.0
 49
-2.0
 49
3.0
 49
-4.0
  0
LTYPE
  2
RAND2
 70
    64
  3
ランダム線2
 72
    65
 73
     4
 40
14.0
 49
2.0
 49
-3.0
 49
4.0
 49
-5.0
  0
LTYPE
  2
RAND3
 70
    64
  3
ランダム線3
 72
    65
 73
     4
 40
18.0
 49
3.0
 49
-4.0
 49
5.0
 49
-6.0
  0
LTYPE
  2
RAND4
 70
    64
  3
ランダム線4
 72
    65
 73
     4
 40
22.0
 49
4.0
 49
-5.0
 49
6.0
 49
-7.0
  0
LTYPE
  2
RAND5
 70
    64
  3
ランダム線5
 72
    65
 73
     4
 40
26.0
 49
5.0
 49
-6.0
 49
7.0
 49
-8.0
  0
LTYPE
  2
LONG1
 70
    64
  3
----------  --  ----------  --  
 72
    65
 73
     4
 40
40.0
 49
32.5
 49
-2.5
 49
2.5
 49
-2.5
  0
LTYPE
  2
LONG2
 70
    64
  3
--------  -  -  --------  -  -  
 72
    65
 73
     6
 40
40.0
 49
30.0
 49
-2.5
 49
1.25
 49
-2.5
 49
1.25
 49
-2.5
  0
LTYPE
  2
LONG3
 70
    64
  3
+++++++++++++++..+++++++++++++++
 72
    65
 73
     2
 40
40.0
 49
37.5
 49
-2.5
  0
LTYPE
  2
LONG4
 70
    64
  3
+++++++++++++++..+++++++++++++++
 72
    65
 73
     2
 40
80.0
 49
75.0
 49
-5.0
  0
LTYPE
  2
LONG5
 70
    64
  3
----------  --  ----------  --  
 72
    65
 73
     4
 40
60.0
 49
37.5
 49
-7.5
 49
7.5
 49
-7.5
  0
LTYPE
  2
dashed
 70
   64
  3
-------   -------------   ------
 72
   65
 73
    2
 40
7.5
 49
6
 49
-1.5
  0
LTYPE
  2
dashed_spaced
 70
   64
  3
----        --------        ----
 72
   65
 73
    2
 40
12
 49
6
 49
-6
  0
LTYPE
  2
long_dashed_dotted
 70
   64
  3
------------- --- --------------
 72
   65
 73
    4
 40
15.25
 49
12
 49
-1.5
 49
0.25
 49
-1.5
  0
LTYPE
  2
long_dashed_double-dotted
 70
   64
  3
----------- --- --- ------------
 72
   65
 73
    6
 40
17
 49
12
 49
-1.5
 49
0.25
 49
-1.5
 49
0.25
 49
-1.5
  0
LTYPE
  2
long_dashed_triplicate-dotted
 70
   64
  3
--------- --- --- --- ----------
 72
   65
 73
    8
 40
18.75
 49
12
 49
-1.5
 49
0.25
 49
-1.5
 49
0.25
 49
-1.5
 49
0.25
 49
-1.5
  0
LTYPE
  2
dotted
 70
   64
  3
   -       -       -       -    
 72
   65
 73
    2
 40
1.75
 49
0.25
 49
-1.5
  0
LTYPE
  2
chain
 70
   64
  3
-------------- -- --------------
 72
   65
 73
    4
 40
18.5
 49
12
 49
-1.5
 49
3.5
 49
-1.5
  0
LTYPE
  2
chain_double_dash
 70
   64
  3
------------ -- -- -------------
 72
   65
 73
    6
 40
23.5
 49
12
 49
-1.5
 49
3.5
 49
-1.5
 49
3.5
 49
-1.5
  0
LTYPE
  2
dashed_dotted
 70
   64
  3
-----------     -     ----------
 72
   65
 73
    4
 40
9.25
 49
6
 49
-1.5
 49
0.25
 49
-1.5
  0
LTYPE
  2
double-dashed_dotted
 70
   64
  3
------   -----------   -   -----
 72
   65
 73
    6
 40
16.75
 49
6
 49
-1.5
 49
6
 49
-1.5
 49
0.25
 49
-1.5
  0
LTYPE
  2
dashed_double-dotted
 70
   64
  3
---------    -    -    ---------
 72
   65
 73
    6
 40
11
 49
6
 49
-1.5
 49
0.25
 49
-1.5
 49
0.25
 49
-1.5
  0
LTYPE
  2
double-dashed_double-dotted
 70
   64
  3
-----   ---------   -   -   ----
 72
   65
 73
    8
 40
18.5
 49
6
 49
-1.5
 49
6
 49
-1.5
 49
0.25
 49
-1.5
 49
0.25
 49
-1.5
  0
LTYPE
  2
dashed_triplicate-dotted
 70
   64
  3
-------    -    -    -    ------
 72
   65
 73
    8
 40
12.75
 49
6
 49
-1.5
 49
0.25
 49
-1.5
 49
0.25
 49
-1.5
 49
0.25
 49
-1.5
  0
LTYPE
  2
double-dashed_triplicate-dotted
 70
   64
  3
-----  ---------  -  -  -  -----
 72
   65
 73
   10
 40
20.25
 49
6
 49
-1.5
 49
6
 49
-1.5
 49
0.25
 49
-1.5
 49
0.25
 49
-1.5
 49
0.25
 49
-1.5
  0
LTYPE
  2
undefined
 70
   64
  3
--------------------------------
 72
   65
 73
    0
 40
0
  0
LTYPE
  2
_
 70
   64
  3
                                
 72
   65
 73
    0
 40
0
  0
LTYPE
  2
__18
 70
   64
  3
                                
 72
   65
 73
    0
 40
0
  0
LTYPE
  2
__19
 70
   64
  3
                                
 72
   65
 73
    0
 40
0
  0
LTYPE
  2
__20
 70
   64
  3
                                
 72
   65
 73
    0
 40
0
  0
LTYPE
  2
__21
 70
   64
  3
                                
 72
   65
 73
    0
 40
0
  0
LTYPE
  2
__22
 70
   64
  3
                                
 72
   65
 73
    0
 40
0
  0
LTYPE
  2
__23
 70
   64
  3
                                
 72
   65
 73
    0
 40
0
  0
LTYPE
  2
__24
 70
   64
  3
                                
 72
   65
 73
    0
 40
0
  0
LTYPE
  2
__25
 70
   64
  3
                                
 72
   65
 73
    0
 40
0
  0
LTYPE
  2
__26
 70
   64
  3
                                
 72
   65
 73
    0
 40
0
  0
LTYPE
  2
__27
 70
   64
  3
                                
 72
   65
 73
    0
 40
0
  0
LTYPE
  2
__28
 70
   64
  3
                                
 72
   65
 73
    0
 40
0
  0
LTYPE
  2
__29
 70
   64
  3
                                
 72
   65
 73
    0
 40
0
  0
LTYPE
  2
__30
 70
   64
  3
                                
 72
   65
 73
    0
 40
0
  0
LTYPE
  2
__31
 70
   64
  3
                                
 72
   65
 73
    0
 40
0
  0
LTYPE
  2
__32
 70
   64
  3
                                
 72
   65
 73
    0
 40
0
  0
ENDTAB
  0
TABLE
  2
STYLE
  5
3
100
AcDbSymbolTable
 70
     1
  0
STYLE
  5
10
100
AcDbSymbolTableRecord
100
AcDbTextStyleTableRecord
  2
STANDARD
 70
     0
 40
0.0
 41
1.0
 50
0.0
 71
     0
 42
0.2
  3
txt
  4
bigfont.shx
  0
STYLE
  5
26
100
AcDbSymbolTableRecord
100
AcDbTextStyleTableRecord
  2
TATEGAKI
 70
    68
 40
0.0
 41
1.0
 50
0.0
 71
     0
 42
1.0
  3
txt
  4
bigfont.shx
  0
ENDTAB
  0
TABLE
  2
LAYER
 70
    2
  0
LAYER
  2
_0-0_
 70
   64
 62
    7
  6
CONTINUOUS
  0
LAYER
  2
ADD_LINE
 70
   64
 62
    7
  6
CONTINUOUS
  0
ENDTAB
  0
ENDSEC
  0
SECTION
  2
BLOCKS
  0
ENDSEC
  0
SECTION
  2
ENTITIES
  0
LINE
  8
_0-0_
  6
CONTINUOUS
 62
    7
 10
293.70328156306005
 20
277.6725207196144
 11
293.70328156306005
 21
278.99137015724028
  0
ARC
  8
_0-0_
  6
CONTINUOUS
 62
    7
 10
294.1776365630601
 20
319.55369128198845
 40
10
 50
180
 51
194.03713868216576
  0
LINE
  8
_0-0_
  6
CONTINUOUS
 62
    7
 10
293.40466866850579
 20
281.41687798660149
 11
284.47624945761436
 21
317.12818345262724
  0
ARC
  8
_0-0_
  6
CONTINUOUS
 62
    7
 10
285.1776365630601
 20
388.99725571961449
 40
1
 50
90
 51
180
  0
ARC
  8
_0-0_
  6
CONTINUOUS
 62
    7
 10
294.70328156306005
 20
257.17252071961434
 40
1
 50
180
 51
270
  0
LINE
  8
_0-0_
  6
CONTINUOUS
 62
    7
 10
290.52818177960569
 20
389.99725571961449
 11
285.1776365630601
 21
389.99725571961449
  0
LINE
  8
_0-0_
  6
CONTINUOUS
 62
    7
 10
476.91591906306002
 20
256.17252071961434
 11
294.70328156306005
 21
256.17252071961434
  0
ARC
  8
_0-0_
  6
CONTINUOUS
 62
    7
 10
476.91591906306002
 20
259.17252071961434
 40
3
 50
270
 51
0
  0
LINE
  8
_0-0_
  6
CONTINUOUS
 62
    7
 10
476.91591906306002
 20
389.99725571961449
 11
285.1776365630601
 21
389.99725571961449
  0
LINE
  8
_0-0_
  6
CONTINUOUS
 62
    7
 10
479.91591906306002
 20
386.99725571961449
 11
479.91591906306002
 21
259.17252071961434
  0
ARC
  8
_0-0_
  6
CONTINUOUS
 62
    7
 10
476.91591906306002
 20
386.99725571961449
 40
3
 50
0
 51
90
  0
CIRCLE
  8
_0-0_
  6
CONTINUOUS
 62
    7
 10
287.1776365630601
 20
386.99725571961449
 40
1.1000000000000001
  0
CIRCLE
  8
_0-0_
  6
CONTINUOUS
 62
    7
 10
296.70328156306005
 20
259.17252071961434
 40
1.1000000000000001
  0
CIRCLE
  8
_0-0_
  6
CONTINUOUS
 62
    7
 10
476.91591906306002
 20
259.17252071961434
 40
1.1000000000000001
  0
CIRCLE
  8
_0-0_
  6
CONTINUOUS
 62
    7
 10
476.91591906306002
 20
386.99725571961449
 40
1.1000000000000001
  0
LINE
  8
_0-0_
  6
CONTINUOUS
 62
    7
 10
284.1776365630601
 20
388.99725571961449
 11
284.1776365630601
 21
319.55369128198845
  0
LINE
  8
_0-0_
  6
CONTINUOUS
 62
    7
 10
293.70328156306005
 20
278.99137015724028
 11
293.70328156306005
 21
257.17252071961434
  0
ARC
  8
_0-0_
  6
CONTINUOUS
 62
    7
 10
283.70328156306005
 20
278.99137015724028
 40
10
 50
0
 51
14.037138682165798
  0
CIRCLE
  8
_0-0_
  6
CONTINUOUS
 62
    7
 10
460.01591906306004
 20
384.97252071961435
 40
1
  0
ARC
  8
_0-0_
  6
CONTINUOUS
 62
    7
 10
450.60369406306
 20
384.49725571961443
 40
1.5
 50
0
 51
90
  0
LINE
  8
_0-0_
  6
CONTINUOUS
 62
    7
 10
452.10369406306
 20
366.44725571961442
 11
452.10369406306
 21
384.49725571961443
  0
ARC
  8
_0-0_
  6
CONTINUOUS
 62
    7
 10
450.60369406306
 20
366.44725571961442
 40
1.5
 50
270
 51
0
  0
LINE
  8
_0-0_
  6
CONTINUOUS
 62
    7
 10
375.40339406305998
 20
364.94725571961442
 11
450.60369406306
 21
364.94725571961442
  0
ARC
  8
_0-0_
  6
CONTINUOUS
 62
    7
 10
375.40339406305998
 20
366.44725571961442
 40
1.5
 50
180
 51
270
  0
LINE
  8
_0-0_
  6
CONTINUOUS
 62
    7
 10
373.90339406305998
 20
384.49725571961443
 11
373.90339406305998
 21
366.44725571961442
  0
LINE
  8
_0-0_
  6
CONTINUOUS
 62
    7
 10
375.40339406305998
 20
385.99725571961443
 11
450.60369406306
 21
385.99725571961443
  0
ARC
  8
_0-0_
  6
CONTINUOUS
 62
    7
 10
375.40339406305998
 20
384.49725571961443
 40
1.5
 50
90
 51
180
  0
ARC
  8
_0-0_
  6
CONTINUOUS
 62
    7
 10
289.67834406306002
 20
384.49725571961443
 40
1.5
 50
90
 51
180
  0
LINE
  8
_0-0_
  6
CONTINUOUS
 62
    7
 10
288.17834406306002
 20
366.44725571961442
 11
288.17834406306002
 21
384.49725571961443
  0
ARC
  8
_0-0_
  6
CONTINUOUS
 62
    7
 10
289.67834406306002
 20
366.44725571961442
 40
1.5
 50
180
 51
270
  0
LINE
  8
_0-0_
  6
CONTINUOUS
 62
    7
 10
364.87839406306011
 20
364.94725571961442
 11
289.67834406306002
 21
364.94725571961442
  0
ARC
  8
_0-0_
  6
CONTINUOUS
 62
    7
 10
364.87839406306011
 20
366.44725571961442
 40
1.5
 50
270
 51
0
  0
LINE
  8
_0-0_
  6
CONTINUOUS
 62
    7
 10
366.37839406306011
 20
384.49725571961443
 11
366.37839406306011
 21
366.44725571961442
  0
LINE
  8
_0-0_
  6
CONTINUOUS
 62
    7
 10
364.87839406306011
 20
385.99725571961443
 11
289.67834406306002
 21
385.99725571961443
  0
ARC
  8
_0-0_
  6
CONTINUOUS
 62
    7
 10
364.87839406306011
 20
384.49725571961443
 40
1.5
 50
0
 51
90
  0
ARC
  8
_0-0_
  6
CONTINUOUS
 62
    7
 10
299.2033940630601
 20
355.92265571961445
 40
1.5
 50
90
 51
180
  0
LINE
  8
_0-0_
  6
CONTINUOUS
 62
    7
 10
450.60369406306
 20
357.42265571961445
 11
299.2033940630601
 21
357.42265571961445
  0
ARC
  8
_0-0_
  6
CONTINUOUS
 62
    7
 10
450.60369406306
 20
355.92265571961445
 40
1.5
 50
0
 51
90
  0
ARC
  8
_0-0_
  6
CONTINUOUS
 62
    7
 10
456.36569406306006
 20
355.92265571961445
 40
1.5
 50
90
 51
180
  0
LINE
  8
_0-0_
  6
CONTINUOUS
 62
    7
 10
474.41569406306002
 20
357.42265571961445
 11
456.36569406306006
 21
357.42265571961445
  0
ARC
  8
_0-0_
  6
CONTINUOUS
 62
    7
 10
474.41569406306002
 20
355.92265571961445
 40
1.5
 50
0
 51
90
  0
LINE
  8
_0-0_
  6
CONTINUOUS
 62
    7
 10
454.86569406306006
 20
261.67275571961437
 11
454.86569406306006
 21
355.92265571961445
  0
ARC
  8
_0-0_
  6
CONTINUOUS
 62
    7
 10
456.36569406306006
 20
261.67275571961437
 40
1.5
 50
180
 51
270
  0
LINE
  8
_0-0_
  6
CONTINUOUS
 62
    7
 10
474.41569406306002
 20
260.17275571961437
 11
456.36569406306006
 21
260.17275571961437
  0
LINE
  8
_0-0_
  6
CONTINUOUS
 62
    7
 10
475.91569406306002
 20
261.67275571961437
 11
475.91569406306002
 21
355.92265571961445
  0
ARC
  8
_0-0_
  6
CONTINUOUS
 62
    7
 10
474.41569406306002
 20
261.67275571961437
 40
1.5
 50
270
 51
0
  0
LINE
  8
_0-0_
  6
CONTINUOUS
 62
    7
 10
452.10369406306
 20
261.67275571961437
 11
452.10369406306
 21
355.92265571961445
  0
ARC
  8
_0-0_
  6
CONTINUOUS
 62
    7
 10
450.60369406306
 20
261.67275571961437
 40
1.5
 50
270
 51
0
  0
LINE
  8
_0-0_
  6
CONTINUOUS
 62
    7
 10
308.72805826031015
 20
260.17275571961437
 11
450.60369406306
 21
260.17275571961437
  0
ARC
  8
_0-0_
  6
CONTINUOUS
 62
    7
 10
308.72805826031015
 20
261.67275571961437
 40
1.5
 50
180
 51
270
  0
LINE
  8
_0-0_
  6
CONTINUOUS
 62
    7
 10
307.22805826031015
 20
277.72270571961445
 11
307.22805826031015
 21
261.67275571961437
  0
ARC
  8
_0-0_
  6
CONTINUOUS
 62
    7
 10
305.72805826031015
 20
277.72270571961445
 40
1.5
 50
0
 51
90
  0
LINE
  8
_0-0_
  6
CONTINUOUS
 62
    7
 10
303.96589406306003
 20
279.22270571961445
 11
305.72805826031015
 21
279.22270571961445
  0
ARC
  8
_0-0_
  6
CONTINUOUS
 62
    7
 10
303.96589406306003
 20
280.72270571961445
 40
1.5
 50
180
 51
270
  0
LINE
  8
_0-0_
  6
CONTINUOUS
 62
    7
 10
302.46589406306003
 20
296.77316750461449
 11
302.46589406306003
 21
280.72270571961445
  0
ARC
  8
_0-0_
  6
CONTINUOUS
 62
    7
 10
300.96589406306003
 20
296.77316750461449
 40
1.5
 50
0
 51
90
  0
LINE
  8
_0-0_
  6
CONTINUOUS
 62
    7
 10
294.44085406306004
 20
298.27316750461449
 11
300.96589406306003
 21
298.27316750461449
  0
ARC
  8
_0-0_
  6
CONTINUOUS
 62
    7
 10
294.44085406306004
 20
299.77316750461449
 40
1.5
 50
180
 51
270
  0
LINE
  8
_0-0_
  6
CONTINUOUS
 62
    7
 10
292.94085406306004
 20
315.82316750461445
 11
292.94085406306004
 21
299.77316750461449
  0
ARC
  8
_0-0_
  6
CONTINUOUS
 62
    7
 10
291.44085406306004
 20
315.82316750461445
 40
1.5
 50
0
 51
90
  0
LINE
  8
_0-0_
  6
CONTINUOUS
 62
    7
 10
289.67834406306002
 20
317.32316750461445
 11
291.44085406306004
 21
317.32316750461445
  0
ARC
  8
_0-0_
  6
CONTINUOUS
 62
    7
 10
289.67834406306002
 20
318.82316750461445
 40
1.5
 50
180
 51
270
  0
LINE
  8
_0-0_
  6
CONTINUOUS
 62
    7
 10
288.17834406306002
 20
336.87265571961444
 11
288.17834406306002
 21
318.82316750461445
  0
ARC
  8
_0-0_
  6
CONTINUOUS
 62
    7
 10
289.67834406306002
 20
336.87265571961444
 40
1.5
 50
90
 51
180
  0
LINE
  8
_0-0_
  6
CONTINUOUS
 62
    7
 10
296.2033940630601
 20
338.37265571961444
 11
289.67834406306002
 21
338.37265571961444
  0
LINE
  8
_0-0_
  6
CONTINUOUS
 62
    7
 10
297.7033940630601
 20
339.87265571961444
 11
297.7033940630601
 21
355.92265571961445
  0
ARC
  8
_0-0_
  6
CONTINUOUS
 62
    7
 10
296.2033940630601
 20
339.87265571961444
 40
1.5
 50
270
 51
0
  0
LINE
  8
_0-0_
  6
CONTINUOUS
 62
    7
 10
113.40042232091156
 20
259.41319742602815
 11
113.40042232091156
 21
387.23793242602818
  0
LINE
  8
_0-0_
  6
CONTINUOUS
 62
    7
 10
116.40042232091156
 20
390.23793242602818
 11
279.56228982091153
 21
390.23793242602818
  0
ARC
  8
_0-0_
  6
CONTINUOUS
 62
    7
 10
116.40042232091156
 20
387.23793242602818
 40
3
 50
90
 51
180
  0
ARC
  8
_0-0_
  6
CONTINUOUS
 62
    7
 10
290.56228982091153
 20
319.7943679884022
 40
10
 50
180
 51
194.03713868216576
  0
ARC
  8
_0-0_
  6
CONTINUOUS
 62
    7
 10
279.56228982091153
 20
389.23793242602824
 40
1
 50
0
 51
90
  0
LINE
  8
_0-0_
  6
CONTINUOUS
 62
    7
 10
289.78932192635722
 20
281.6575546930153
 11
280.86090271546578
 21
317.36886015904099
  0
ARC
  8
_0-0_
  6
CONTINUOUS
 62
    7
 10
280.08793482091147
 20
279.23204686365409
 40
10
 50
0
 51
14.037138682165798
  0
ARC
  8
_0-0_
  6
CONTINUOUS
 62
    7
 10
289.08793482091147
 20
257.41319742602815
 40
1
 50
270
 51
0
  0
LINE
  8
_0-0_
  6
CONTINUOUS
 62
    7
 10
116.40042232091156
 20
256.41319742602815
 11
289.08793482091147
 21
256.41319742602815
  0
ARC
  8
_0-0_
  6
CONTINUOUS
 62
    7
 10
116.40042232091156
 20
259.41319742602815
 40
3
 50
180
 51
270
  0
CIRCLE
  8
_0-0_
  6
CONTINUOUS
 62
    7
 10
116.40042232091156
 20
387.23793242602818
 40
1.1000000000000001
  0
CIRCLE
  8
_0-0_
  6
CONTINUOUS
 62
    7
 10
116.40042232091156
 20
259.41319742602815
 40
1.1000000000000001
  0
CIRCLE
  8
_0-0_
  6
CONTINUOUS
 62
    7
 10
287.08793482091147
 20
259.41319742602815
 40
1.1000000000000001
  0
CIRCLE
  8
_0-0_
  6
CONTINUOUS
 62
    7
 10
277.56228982091153
 20
387.23793242602818
 40
1.1000000000000001
  0
LINE
  8
_0-0_
  6
CONTINUOUS
 62
    7
 10
290.08793482091147
 20
279.23204686365409
 11
290.08793482091147
 21
257.41319742602815
  0
LINE
  8
_0-0_
  6
CONTINUOUS
 62
    7
 10
280.56228982091153
 20
389.23793242602824
 11
280.56228982091153
 21
319.7943679884022
  0
CIRCLE
  8
_0-0_
  6
CONTINUOUS
 62
    7
 10
133.25042232091158
 20
385.21319742602816
 40
1
  0
ARC
  8
_0-0_
  6
CONTINUOUS
 62
    7
 10
275.06264732091154
 20
384.73793242602818
 40
1.5
 50
0
 51
90
  0
LINE
  8
_0-0_
  6
CONTINUOUS
 62
    7
 10
276.56264732091154
 20
366.68793242602817
 11
276.56264732091154
 21
384.73793242602818
  0
ARC
  8
_0-0_
  6
CONTINUOUS
 62
    7
 10
275.06264732091154
 20
366.68793242602817
 40
1.5
 50
270
 51
0
  0
ARC
  8
_0-0_
  6
CONTINUOUS
 62
    7
 10
142.71284732091152
 20
384.73793242602818
 40
1.5
 50
90
 51
180
  0
LINE
  8
_0-0_
  6
CONTINUOUS
 62
    7
 10
141.21284732091152
 20
366.68793242602817
 11
141.21284732091152
 21
384.73793242602818
  0
ARC
  8
_0-0_
  6
CONTINUOUS
 62
    7
 10
142.71284732091152
 20
366.68793242602817
 40
1.5
 50
180
 51
270
  0
ARC
  8
_0-0_
  6
CONTINUOUS
 62
    7
 10
118.90029732091153
 20
356.16333242602821
 40
1.5
 50
90
 51
180
  0
LINE
  8
_0-0_
  6
CONTINUOUS
 62
    7
 10
136.9502973209116
 20
357.66333242602821
 11
118.90029732091153
 21
357.66333242602821
  0
ARC
  8
_0-0_
  6
CONTINUOUS
 62
    7
 10
136.9502973209116
 20
356.16333242602821
 40
1.5
 50
0
 51
90
  0
LINE
  8
_0-0_
  6
CONTINUOUS
 62
    7
 10
117.40029732091153
 20
261.91343242602818
 11
117.40029732091153
 21
356.16333242602821
  0
ARC
  8
_0-0_
  6
CONTINUOUS
 62
    7
 10
118.90029732091153
 20
261.91343242602818
 40
1.5
 50
180
 51
270
  0
LINE
  8
_0-0_
  6
CONTINUOUS
 62
    7
 10
136.9502973209116
 20
260.41343242602818
 11
118.90029732091153
 21
260.41343242602818
  0
LINE
  8
_0-0_
  6
CONTINUOUS
 62
    7
 10
138.4502973209116
 20
261.91343242602818
 11
138.4502973209116
 21
356.16333242602821
  0
ARC
  8
_0-0_
  6
CONTINUOUS
 62
    7
 10
136.9502973209116
 20
261.91343242602818
 40
1.5
 50
270
 51
0
  0
ARC
  8
_0-0_
  6
CONTINUOUS
 62
    7
 10
142.71284732091152
 20
261.91343242602818
 40
1.5
 50
180
 51
270
  0
LINE
  8
_0-0_
  6
CONTINUOUS
 62
    7
 10
141.21284732091152
 20
356.16333242602821
 11
141.21284732091152
 21
261.91343242602818
  0
ARC
  8
_0-0_
  6
CONTINUOUS
 62
    7
 10
142.71284732091152
 20
356.16333242602821
 40
1.5
 50
90
 51
180
  0
LINE
  8
_0-0_
  6
CONTINUOUS
 62
    7
 10
275.06264732091154
 20
357.66333242602821
 11
142.71284732091152
 21
357.66333242602821
  0
ARC
  8
_0-0_
  6
CONTINUOUS
 62
    7
 10
275.06264732091154
 20
356.16333242602821
 40
1.5
 50
0
 51
90
  0
LINE
  8
_0-0_
  6
CONTINUOUS
 62
    7
 10
276.56264732091154
 20
338.11333242602819
 11
276.56264732091154
 21
356.16333242602821
  0
ARC
  8
_0-0_
  6
CONTINUOUS
 62
    7
 10
275.06264732091154
 20
338.11333242602819
 40
1.5
 50
270
 51
0
  0
LINE
  8
_0-0_
  6
CONTINUOUS
 62
    7
 10
268.53764732091156
 20
336.61333242602819
 11
275.06264732091154
 21
336.61333242602819
  0
ARC
  8
_0-0_
  6
CONTINUOUS
 62
    7
 10
268.53764732091156
 20
335.11333242602819
 40
1.5
 50
90
 51
180
  0
LINE
  8
_0-0_
  6
CONTINUOUS
 62
    7
 10
267.03764732091156
 20
321.06282064102817
 11
267.03764732091156
 21
335.11333242602819
  0
ARC
  8
_0-0_
  6
CONTINUOUS
 62
    7
 10
268.53764732091156
 20
321.06282064102817
 40
1.5
 50
180
 51
270
  0
LINE
  8
_0-0_
  6
CONTINUOUS
 62
    7
 10
270.30014732091155
 20
319.56282064102817
 11
268.53764732091156
 21
319.56282064102817
  0
ARC
  8
_0-0_
  6
CONTINUOUS
 62
    7
 10
270.30014732091155
 20
318.06282064102817
 40
1.5
 50
0
 51
90
  0
LINE
  8
_0-0_
  6
CONTINUOUS
 62
    7
 10
271.80014732091155
 20
302.01333242602817
 11
271.80014732091155
 21
318.06282064102817
  0
ARC
  8
_0-0_
  6
CONTINUOUS
 62
    7
 10
273.30014732091155
 20
302.01333242602817
 40
1.5
 50
180
 51
270
  0
LINE
  8
_0-0_
  6
CONTINUOUS
 62
    7
 10
275.06264732091154
 20
300.51333242602817
 11
273.30014732091155
 21
300.51333242602817
  0
ARC
  8
_0-0_
  6
CONTINUOUS
 62
    7
 10
275.06264732091154
 20
299.01333242602817
 40
1.5
 50
0
 51
90
  0
LINE
  8
_0-0_
  6
CONTINUOUS
 62
    7
 10
276.56264732091154
 20
280.46384421102823
 11
276.56264732091154
 21
299.01333242602817
  0
LINE
  8
_0-0_
  6
CONTINUOUS
 62
    7
 10
275.06370435184908
 20
260.41343242602818
 11
142.71284732091152
 21
260.41343242602818
  0
LINE
  8
_0-0_
  6
CONTINUOUS
 62
    7
 10
276.56370435184908
 20
261.91343242602818
 11
276.56370435184908
 21
280.46280519477818
  0
ARC
  8
_0-0_
  6
CONTINUOUS
 62
    7
 10
275.06370435184908
 20
261.91343242602818
 40
1.5
 50
270
 51
0
  0
LINE
  8
_0-0_
  6
CONTINUOUS
 62
    7
 10
160.76284732091159
 20
386.23793242602818
 11
142.71284732091152
 21
386.23793242602818
  0
ARC
  8
_0-0_
  6
CONTINUOUS
 62
    7
 10
160.76284732091159
 20
384.73793242602818
 40
1.5
 50
0
 51
90
  0
LINE
  8
_0-0_
  6
CONTINUOUS
 62
    7
 10
160.76284732091159
 20
365.18793242602817
 11
142.71284732091152
 21
365.18793242602817
  0
LINE
  8
_0-0_
  6
CONTINUOUS
 62
    7
 10
162.26284732091159
 20
366.68793242602817
 11
162.26284732091159
 21
384.73793242602818
  0
ARC
  8
_0-0_
  6
CONTINUOUS
 62
    7
 10
160.76284732091159
 20
366.68793242602817
 40
1.5
 50
270
 51
0
  0
ARC
  8
_0-0_
  6
CONTINUOUS
 62
    7
 10
171.28784732091157
 20
384.73793242602818
 40
1.5
 50
90
 51
180
  0
LINE
  8
_0-0_
  6
CONTINUOUS
 62
    7
 10
169.78784732091157
 20
366.68793242602817
 11
169.78784732091157
 21
384.73793242602818
  0
ARC
  8
_0-0_
  6
CONTINUOUS
 62
    7
 10
171.28784732091157
 20
366.68793242602817
 40
1.5
 50
180
 51
270
  0
LINE
  8
_0-0_
  6
CONTINUOUS
 62
    7
 10
246.48764732091149
 20
365.18793242602817
 11
171.28784732091157
 21
365.18793242602817
  0
ARC
  8
_0-0_
  6
CONTINUOUS
 62
    7
 10
246.48764732091149
 20
366.68793242602817
 40
1.5
 50
270
 51
0
  0
LINE
  8
_0-0_
  6
CONTINUOUS
 62
    7
 10
247.98764732091149
 20
384.73793242602818
 11
247.98764732091149
 21
366.68793242602817
  0
LINE
  8
_0-0_
  6
CONTINUOUS
 62
    7
 10
246.48764732091149
 20
386.23793242602818
 11
171.28784732091157
 21
386.23793242602818
  0
ARC
  8
_0-0_
  6
CONTINUOUS
 62
    7
 10
246.48764732091149
 20
384.73793242602818
 40
1.5
 50
0
 51
90
  0
LINE
  8
_0-0_
  6
CONTINUOUS
 62
    7
 10
257.01264732091158
 20
386.23793242602818
 11
275.06264732091154
 21
386.23793242602818
  0
ARC
  8
_0-0_
  6
CONTINUOUS
 62
    7
 10
257.01264732091158
 20
384.73793242602818
 40
1.5
 50
90
 51
180
  0
LINE
  8
_0-0_
  6
CONTINUOUS
 62
    7
 10
255.51264732091158
 20
366.68793242602817
 11
255.51264732091158
 21
384.73793242602818
  0
LINE
  8
_0-0_
  6
CONTINUOUS
 62
    7
 10
257.01264732091158
 20
365.18793242602817
 11
275.06264732091154
 21
365.18793242602817
  0
ARC
  8
_0-0_
  6
CONTINUOUS
 62
    7
 10
257.01264732091158
 20
366.68793242602817
 40
1.5
 50
180
 51
270
  0
ENDSEC
  0
EOF
