  0
SECTION
  2
HEADER
  9
$ACADVER
  1
AC1009
  9
$INSBASE
 10
0
 20
0
 30
0
  9
$EXTMIN
 10
0
 20
0
  9
$EXTMAX
 10
841
 20
594
  9
$LIMMIN
 10
0
 20
0
  9
$LIMMAX
 10
841
 20
594
  9
$LTSCALE
 40
1
  0
ENDSEC
  0
SECTION
  2
TABLES
  0
TABLE
  2
LTYPE
 70
     9
  0
LTYPE
  2
CONTINUOUS
 70
    64
  3
実線
 72
    65
 73
     0
 40
0.0
  0
LTYPE
  2
DASHED1
 70
    64
  3
--  --  --  --  --  --  --  --  
 72
    65
 73
     2
 40
2.5
 49
1.25
 49
-1.25
  0
LTYPE
  2
DASHED2
 70
    64
  3
----    ----    ----    ----    
 72
    65
 73
     2
 40
5.0
 49
2.5
 49
-2.5
  0
LTYPE
  2
DASHED3
 70
    64
  3
------  ------  ------  ------  
 72
    65
 73
     2
 40
5.0
 49
3.75
 49
-1.25
  0
LTYPE
  2
CENTER1
 70
    64
  3
----- - ----- - ----- - ----- - 
 72
    65
 73
     4
 40
10.0
 49
6.25
 49
-1.25
 49
1.25
 49
-1.25
  0
LTYPE
  2
CENTER2
 70
    64
  3
----------  --  ----------  --  
 72
    65
 73
     4
 40
20.0
 49
12.5
 49
-2.5
 49
2.5
 49
-2.5
  0
LTYPE
  2
PHANTOM1
 70
    64
  3
--- - - --- - - --- - - --- - - 
 72
    65
 73
     6
 40
10.0
 49
3.25
 49
-1.25
 49
1.25
 49
-1.25
 49
1.25
 49
-1.25
  0
LTYPE
  2
PHANTOM2
 70
    64
  3
--------  -  -  --------  -  -  
 72
    65
 73
     6
 40
20.0
 49
10.0
 49
-2.5
 49
1.25
 49
-2.5
 49
1.25
 49
-2.5
  0
LTYPE
  2
DOT
 70
    64
  3
-   -   -   -   -   -   -   -   
 72
    65
 73
     2
 40
2.5
 49
0.625
 49
-1.875
  0
LTYPE
  2
DUMMY
 70
    64
  3
ダミー
 72
    65
 73
     0
 40
0.0
  0
LTYPE
  2
RAND1
 70
    64
  3
ランダム線1
 72
    65
 73
     4
 40
10.0
 49
1.0
 49
-2.0
 49
3.0
 49
-4.0
  0
LTYPE
  2
RAND2
 70
    64
  3
ランダム線2
 72
    65
 73
     4
 40
14.0
 49
2.0
 49
-3.0
 49
4.0
 49
-5.0
  0
LTYPE
  2
RAND3
 70
    64
  3
ランダム線3
 72
    65
 73
     4
 40
18.0
 49
3.0
 49
-4.0
 49
5.0
 49
-6.0
  0
LTYPE
  2
RAND4
 70
    64
  3
ランダム線4
 72
    65
 73
     4
 40
22.0
 49
4.0
 49
-5.0
 49
6.0
 49
-7.0
  0
LTYPE
  2
RAND5
 70
    64
  3
ランダム線5
 72
    65
 73
     4
 40
26.0
 49
5.0
 49
-6.0
 49
7.0
 49
-8.0
  0
LTYPE
  2
LONG1
 70
    64
  3
----------  --  ----------  --  
 72
    65
 73
     4
 40
40.0
 49
32.5
 49
-2.5
 49
2.5
 49
-2.5
  0
LTYPE
  2
LONG2
 70
    64
  3
--------  -  -  --------  -  -  
 72
    65
 73
     6
 40
40.0
 49
30.0
 49
-2.5
 49
1.25
 49
-2.5
 49
1.25
 49
-2.5
  0
LTYPE
  2
LONG3
 70
    64
  3
+++++++++++++++..+++++++++++++++
 72
    65
 73
     2
 40
40.0
 49
37.5
 49
-2.5
  0
LTYPE
  2
LONG4
 70
    64
  3
+++++++++++++++..+++++++++++++++
 72
    65
 73
     2
 40
80.0
 49
75.0
 49
-5.0
  0
LTYPE
  2
LONG5
 70
    64
  3
----------  --  ----------  --  
 72
    65
 73
     4
 40
60.0
 49
37.5
 49
-7.5
 49
7.5
 49
-7.5
  0
LTYPE
  2
dashed
 70
   64
  3
-------   -------------   ------
 72
   65
 73
    2
 40
7.5
 49
6
 49
-1.5
  0
LTYPE
  2
dashed_spaced
 70
   64
  3
----        --------        ----
 72
   65
 73
    2
 40
12
 49
6
 49
-6
  0
LTYPE
  2
long_dashed_dotted
 70
   64
  3
------------- --- --------------
 72
   65
 73
    4
 40
15.25
 49
12
 49
-1.5
 49
0.25
 49
-1.5
  0
LTYPE
  2
long_dashed_double-dotted
 70
   64
  3
----------- --- --- ------------
 72
   65
 73
    6
 40
17
 49
12
 49
-1.5
 49
0.25
 49
-1.5
 49
0.25
 49
-1.5
  0
LTYPE
  2
long_dashed_triplicate-dotted
 70
   64
  3
--------- --- --- --- ----------
 72
   65
 73
    8
 40
18.75
 49
12
 49
-1.5
 49
0.25
 49
-1.5
 49
0.25
 49
-1.5
 49
0.25
 49
-1.5
  0
LTYPE
  2
dotted
 70
   64
  3
   -       -       -       -    
 72
   65
 73
    2
 40
1.75
 49
0.25
 49
-1.5
  0
LTYPE
  2
chain
 70
   64
  3
-------------- -- --------------
 72
   65
 73
    4
 40
18.5
 49
12
 49
-1.5
 49
3.5
 49
-1.5
  0
LTYPE
  2
chain_double_dash
 70
   64
  3
------------ -- -- -------------
 72
   65
 73
    6
 40
23.5
 49
12
 49
-1.5
 49
3.5
 49
-1.5
 49
3.5
 49
-1.5
  0
LTYPE
  2
dashed_dotted
 70
   64
  3
-----------     -     ----------
 72
   65
 73
    4
 40
9.25
 49
6
 49
-1.5
 49
0.25
 49
-1.5
  0
LTYPE
  2
double-dashed_dotted
 70
   64
  3
------   -----------   -   -----
 72
   65
 73
    6
 40
16.75
 49
6
 49
-1.5
 49
6
 49
-1.5
 49
0.25
 49
-1.5
  0
LTYPE
  2
dashed_double-dotted
 70
   64
  3
---------    -    -    ---------
 72
   65
 73
    6
 40
11
 49
6
 49
-1.5
 49
0.25
 49
-1.5
 49
0.25
 49
-1.5
  0
LTYPE
  2
double-dashed_double-dotted
 70
   64
  3
-----   ---------   -   -   ----
 72
   65
 73
    8
 40
18.5
 49
6
 49
-1.5
 49
6
 49
-1.5
 49
0.25
 49
-1.5
 49
0.25
 49
-1.5
  0
LTYPE
  2
dashed_triplicate-dotted
 70
   64
  3
-------    -    -    -    ------
 72
   65
 73
    8
 40
12.75
 49
6
 49
-1.5
 49
0.25
 49
-1.5
 49
0.25
 49
-1.5
 49
0.25
 49
-1.5
  0
LTYPE
  2
double-dashed_triplicate-dotted
 70
   64
  3
-----  ---------  -  -  -  -----
 72
   65
 73
   10
 40
20.25
 49
6
 49
-1.5
 49
6
 49
-1.5
 49
0.25
 49
-1.5
 49
0.25
 49
-1.5
 49
0.25
 49
-1.5
  0
LTYPE
  2
undefined
 70
   64
  3
--------------------------------
 72
   65
 73
    0
 40
0
  0
LTYPE
  2
_
 70
   64
  3
                                
 72
   65
 73
    0
 40
0
  0
LTYPE
  2
__18
 70
   64
  3
                                
 72
   65
 73
    0
 40
0
  0
LTYPE
  2
__19
 70
   64
  3
                                
 72
   65
 73
    0
 40
0
  0
LTYPE
  2
__20
 70
   64
  3
                                
 72
   65
 73
    0
 40
0
  0
LTYPE
  2
__21
 70
   64
  3
                                
 72
   65
 73
    0
 40
0
  0
LTYPE
  2
__22
 70
   64
  3
                                
 72
   65
 73
    0
 40
0
  0
LTYPE
  2
__23
 70
   64
  3
                                
 72
   65
 73
    0
 40
0
  0
LTYPE
  2
__24
 70
   64
  3
                                
 72
   65
 73
    0
 40
0
  0
LTYPE
  2
__25
 70
   64
  3
                                
 72
   65
 73
    0
 40
0
  0
LTYPE
  2
__26
 70
   64
  3
                                
 72
   65
 73
    0
 40
0
  0
LTYPE
  2
__27
 70
   64
  3
                                
 72
   65
 73
    0
 40
0
  0
LTYPE
  2
__28
 70
   64
  3
                                
 72
   65
 73
    0
 40
0
  0
LTYPE
  2
__29
 70
   64
  3
                                
 72
   65
 73
    0
 40
0
  0
LTYPE
  2
__30
 70
   64
  3
                                
 72
   65
 73
    0
 40
0
  0
LTYPE
  2
__31
 70
   64
  3
                                
 72
   65
 73
    0
 40
0
  0
LTYPE
  2
__32
 70
   64
  3
                                
 72
   65
 73
    0
 40
0
  0
ENDTAB
  0
TABLE
  2
STYLE
  5
3
100
AcDbSymbolTable
 70
     1
  0
STYLE
  5
10
100
AcDbSymbolTableRecord
100
AcDbTextStyleTableRecord
  2
STANDARD
 70
     0
 40
0.0
 41
1.0
 50
0.0
 71
     0
 42
0.2
  3
txt
  4
bigfont.shx
  0
STYLE
  5
26
100
AcDbSymbolTableRecord
100
AcDbTextStyleTableRecord
  2
TATEGAKI
 70
    68
 40
0.0
 41
1.0
 50
0.0
 71
     0
 42
1.0
  3
txt
  4
bigfont.shx
  0
ENDTAB
  0
TABLE
  2
LAYER
 70
    3
  0
LAYER
  2
_0-0_
 70
   64
 62
    7
  6
CONTINUOUS
  0
LAYER
  2
_0-1_ADD_LINE
 70
   64
 62
    7
  6
CONTINUOUS
  0
LAYER
  2
ADD_LINE
 70
   64
 62
    7
  6
CONTINUOUS
  0
ENDTAB
  0
ENDSEC
  0
SECTION
  2
BLOCKS
  0
ENDSEC
  0
SECTION
  2
ENTITIES
  0
LINE
  8
_0-0_
  6
CONTINUOUS
 62
    7
 10
225.39376066818511
 20
269.27728711995292
 11
225.39376066818511
 21
270.5961365575788
  0
ARC
  8
_0-0_
  6
CONTINUOUS
 62
    7
 10
225.86811566818511
 20
311.15845768232697
 40
10
 50
180
 51
194.03713868216576
  0
LINE
  8
_0-0_
  6
CONTINUOUS
 62
    7
 10
225.0951477736308
 20
273.02164438694001
 11
216.16672856273942
 21
308.73294985296576
  0
ARC
  8
_0-0_
  6
CONTINUOUS
 62
    7
 10
216.86811566818511
 20
380.60202211995301
 40
1
 50
90
 51
180
  0
ARC
  8
_0-0_
  6
CONTINUOUS
 62
    7
 10
226.39376066818511
 20
248.77728711995286
 40
1
 50
180
 51
270
  0
LINE
  8
_0-0_
  6
CONTINUOUS
 62
    7
 10
222.21866088473075
 20
381.60202211995301
 11
216.86811566818511
 21
381.60202211995301
  0
LINE
  8
_0-0_
  6
CONTINUOUS
 62
    7
 10
408.60639816818508
 20
247.77728711995286
 11
226.39376066818511
 21
247.77728711995286
  0
ARC
  8
_0-0_
  6
CONTINUOUS
 62
    7
 10
408.60639816818508
 20
250.77728711995286
 40
3
 50
270
 51
0
  0
LINE
  8
_0-0_
  6
CONTINUOUS
 62
    7
 10
408.60639816818508
 20
381.60202211995301
 11
216.86811566818511
 21
381.60202211995301
  0
LINE
  8
_0-0_
  6
CONTINUOUS
 62
    7
 10
411.60639816818508
 20
378.60202211995301
 11
411.60639816818508
 21
250.77728711995286
  0
ARC
  8
_0-0_
  6
CONTINUOUS
 62
    7
 10
408.60639816818508
 20
378.60202211995301
 40
3
 50
0
 51
90
  0
CIRCLE
  8
_0-0_
  6
CONTINUOUS
 62
    7
 10
218.86811566818511
 20
378.60202211995301
 40
1.1000000000000001
  0
CIRCLE
  8
_0-0_
  6
CONTINUOUS
 62
    7
 10
228.39376066818511
 20
250.77728711995286
 40
1.1000000000000001
  0
CIRCLE
  8
_0-0_
  6
CONTINUOUS
 62
    7
 10
408.60639816818508
 20
250.77728711995286
 40
1.1000000000000001
  0
CIRCLE
  8
_0-0_
  6
CONTINUOUS
 62
    7
 10
408.60639816818508
 20
378.60202211995301
 40
1.1000000000000001
  0
LINE
  8
_0-0_
  6
CONTINUOUS
 62
    7
 10
215.86811566818511
 20
380.60202211995301
 11
215.86811566818511
 21
311.15845768232697
  0
LINE
  8
_0-0_
  6
CONTINUOUS
 62
    7
 10
225.39376066818511
 20
270.5961365575788
 11
225.39376066818511
 21
248.77728711995286
  0
ARC
  8
_0-0_
  6
CONTINUOUS
 62
    7
 10
215.39376066818511
 20
270.5961365575788
 40
10
 50
0
 51
14.037138682165798
  0
CIRCLE
  8
_0-0_
  6
CONTINUOUS
 62
    7
 10
391.7063981681851
 20
376.57728711995287
 40
1
  0
LINE
  8
_0-1_ADD_LINE
  6
CONTINUOUS
 62
    7
 10
239.91858736493506
 20
376.60151033495288
 11
239.91858736493506
 21
357.55253390495295
  0
LINE
  8
_0-1_ADD_LINE
  6
CONTINUOUS
 62
    7
 10
239.91858736493506
 20
357.55253390495295
 11
220.86905897143507
 21
357.55253390495295
  0
LINE
  8
_0-1_ADD_LINE
  6
CONTINUOUS
 62
    7
 10
220.86905897143507
 20
376.60151033495288
 11
239.91858736493506
 21
376.60151033495288
  0
LINE
  8
_0-1_ADD_LINE
  6
CONTINUOUS
 62
    7
 10
220.86905897143507
 20
357.55253390495295
 11
220.86905897143507
 21
376.60151033495288
  0
LINE
  8
_0-1_ADD_LINE
  6
CONTINUOUS
 62
    7
 10
258.96863736493515
 20
376.60151033495288
 11
258.96863736493515
 21
357.55253390495295
  0
LINE
  8
_0-1_ADD_LINE
  6
CONTINUOUS
 62
    7
 10
258.96863736493515
 20
357.55253390495295
 11
239.91910897143512
 21
357.55253390495295
  0
LINE
  8
_0-1_ADD_LINE
  6
CONTINUOUS
 62
    7
 10
239.91910897143512
 20
376.60151033495288
 11
258.96863736493515
 21
376.60151033495288
  0
LINE
  8
_0-1_ADD_LINE
  6
CONTINUOUS
 62
    7
 10
239.91910897143512
 20
357.55253390495295
 11
239.91910897143512
 21
376.60151033495288
  0
LINE
  8
_0-1_ADD_LINE
  6
CONTINUOUS
 62
    7
 10
278.0186373649351
 20
376.60151033495288
 11
278.0186373649351
 21
357.55253390495295
  0
LINE
  8
_0-1_ADD_LINE
  6
CONTINUOUS
 62
    7
 10
278.0186373649351
 20
357.55253390495295
 11
258.96910897143505
 21
357.55253390495295
  0
LINE
  8
_0-1_ADD_LINE
  6
CONTINUOUS
 62
    7
 10
258.96910897143505
 20
376.60151033495288
 11
278.0186373649351
 21
376.60151033495288
  0
LINE
  8
_0-1_ADD_LINE
  6
CONTINUOUS
 62
    7
 10
258.96910897143505
 20
357.55253390495295
 11
258.96910897143505
 21
376.60151033495288
  0
LINE
  8
_0-1_ADD_LINE
  6
CONTINUOUS
 62
    7
 10
297.06863736493517
 20
376.60151033495288
 11
297.06863736493517
 21
357.55253390495295
  0
LINE
  8
_0-1_ADD_LINE
  6
CONTINUOUS
 62
    7
 10
297.06863736493517
 20
357.55253390495295
 11
278.01910897143512
 21
357.55253390495295
  0
LINE
  8
_0-1_ADD_LINE
  6
CONTINUOUS
 62
    7
 10
278.01910897143512
 20
376.60151033495288
 11
297.06863736493517
 21
376.60151033495288
  0
LINE
  8
_0-1_ADD_LINE
  6
CONTINUOUS
 62
    7
 10
278.01910897143512
 20
357.55253390495295
 11
278.01910897143512
 21
376.60151033495288
  0
LINE
  8
_0-1_ADD_LINE
  6
CONTINUOUS
 62
    7
 10
325.6436373649351
 20
376.60151033495288
 11
325.6436373649351
 21
357.55253390495295
  0
LINE
  8
_0-1_ADD_LINE
  6
CONTINUOUS
 62
    7
 10
325.6436373649351
 20
357.55253390495295
 11
306.59410897143505
 21
357.55253390495295
  0
LINE
  8
_0-1_ADD_LINE
  6
CONTINUOUS
 62
    7
 10
306.59410897143505
 20
376.60151033495288
 11
325.6436373649351
 21
376.60151033495288
  0
LINE
  8
_0-1_ADD_LINE
  6
CONTINUOUS
 62
    7
 10
306.59410897143505
 20
357.55253390495295
 11
306.59410897143505
 21
376.60151033495288
  0
LINE
  8
_0-1_ADD_LINE
  6
CONTINUOUS
 62
    7
 10
344.6939373649351
 20
376.60151033495288
 11
344.6939373649351
 21
357.55253390495295
  0
LINE
  8
_0-1_ADD_LINE
  6
CONTINUOUS
 62
    7
 10
344.6939373649351
 20
357.55253390495295
 11
325.64440897143504
 21
357.55253390495295
  0
LINE
  8
_0-1_ADD_LINE
  6
CONTINUOUS
 62
    7
 10
325.64440897143504
 20
376.60151033495288
 11
344.6939373649351
 21
376.60151033495288
  0
LINE
  8
_0-1_ADD_LINE
  6
CONTINUOUS
 62
    7
 10
325.64440897143504
 20
357.55253390495295
 11
325.64440897143504
 21
376.60151033495288
  0
LINE
  8
_0-1_ADD_LINE
  6
CONTINUOUS
 62
    7
 10
363.74393736493516
 20
376.60151033495288
 11
363.74393736493516
 21
357.55253390495295
  0
LINE
  8
_0-1_ADD_LINE
  6
CONTINUOUS
 62
    7
 10
363.74393736493516
 20
357.55253390495295
 11
344.69440897143511
 21
357.55253390495295
  0
LINE
  8
_0-1_ADD_LINE
  6
CONTINUOUS
 62
    7
 10
344.69440897143511
 20
376.60151033495288
 11
363.74393736493516
 21
376.60151033495288
  0
LINE
  8
_0-1_ADD_LINE
  6
CONTINUOUS
 62
    7
 10
344.69440897143511
 20
357.55253390495295
 11
344.69440897143511
 21
376.60151033495288
  0
LINE
  8
_0-1_ADD_LINE
  6
CONTINUOUS
 62
    7
 10
382.79393736493512
 20
376.60151033495288
 11
382.79393736493512
 21
357.55253390495295
  0
LINE
  8
_0-1_ADD_LINE
  6
CONTINUOUS
 62
    7
 10
382.79393736493512
 20
357.55253390495295
 11
363.74440897143506
 21
357.55253390495295
  0
LINE
  8
_0-1_ADD_LINE
  6
CONTINUOUS
 62
    7
 10
363.74440897143506
 20
376.60151033495288
 11
382.79393736493512
 21
376.60151033495288
  0
LINE
  8
_0-1_ADD_LINE
  6
CONTINUOUS
 62
    7
 10
363.74440897143506
 20
357.55253390495295
 11
363.74440897143506
 21
376.60151033495288
  0
LINE
  8
_0-1_ADD_LINE
  6
CONTINUOUS
 62
    7
 10
406.60593736493513
 20
348.02691033495296
 11
406.60593736493513
 21
328.97793390495303
  0
LINE
  8
_0-1_ADD_LINE
  6
CONTINUOUS
 62
    7
 10
406.60593736493513
 20
328.97793390495303
 11
387.55640897143508
 21
328.97793390495303
  0
LINE
  8
_0-1_ADD_LINE
  6
CONTINUOUS
 62
    7
 10
387.55640897143508
 20
348.02691033495296
 11
406.60593736493513
 21
348.02691033495296
  0
LINE
  8
_0-1_ADD_LINE
  6
CONTINUOUS
 62
    7
 10
387.55640897143508
 20
328.97793390495303
 11
387.55640897143508
 21
348.02691033495296
  0
LINE
  8
_0-1_ADD_LINE
  6
CONTINUOUS
 62
    7
 10
406.60593736493513
 20
328.97691033495289
 11
406.60593736493513
 21
309.92793390495297
  0
LINE
  8
_0-1_ADD_LINE
  6
CONTINUOUS
 62
    7
 10
406.60593736493513
 20
309.92793390495297
 11
387.55640897143508
 21
309.92793390495297
  0
LINE
  8
_0-1_ADD_LINE
  6
CONTINUOUS
 62
    7
 10
387.55640897143508
 20
328.97691033495289
 11
406.60593736493513
 21
328.97691033495289
  0
LINE
  8
_0-1_ADD_LINE
  6
CONTINUOUS
 62
    7
 10
387.55640897143508
 20
309.92793390495297
 11
387.55640897143508
 21
328.97691033495289
  0
LINE
  8
_0-1_ADD_LINE
  6
CONTINUOUS
 62
    7
 10
382.79393736493512
 20
328.97793390495303
 11
363.74440897143506
 21
328.97793390495303
  0
LINE
  8
_0-1_ADD_LINE
  6
CONTINUOUS
 62
    7
 10
363.74440897143506
 20
328.97793390495303
 11
363.74440897143506
 21
348.02691033495296
  0
LINE
  8
_0-1_ADD_LINE
  6
CONTINUOUS
 62
    7
 10
363.74393736493516
 20
348.02691033495296
 11
363.74393736493516
 21
328.97793390495303
  0
LINE
  8
_0-1_ADD_LINE
  6
CONTINUOUS
 62
    7
 10
363.74393736493516
 20
328.97793390495303
 11
344.69440897143511
 21
328.97793390495303
  0
LINE
  8
_0-1_ADD_LINE
  6
CONTINUOUS
 62
    7
 10
344.69440897143511
 20
348.02691033495296
 11
363.74393736493516
 21
348.02691033495296
  0
LINE
  8
_0-1_ADD_LINE
  6
CONTINUOUS
 62
    7
 10
344.69440897143511
 20
328.97793390495303
 11
344.69440897143511
 21
348.02691033495296
  0
LINE
  8
_0-1_ADD_LINE
  6
CONTINUOUS
 62
    7
 10
344.6939373649351
 20
348.02691033495296
 11
344.6939373649351
 21
328.97793390495303
  0
LINE
  8
_0-1_ADD_LINE
  6
CONTINUOUS
 62
    7
 10
344.6939373649351
 20
328.97793390495303
 11
325.64440897143504
 21
328.97793390495303
  0
LINE
  8
_0-1_ADD_LINE
  6
CONTINUOUS
 62
    7
 10
325.64440897143504
 20
348.02691033495296
 11
344.6939373649351
 21
348.02691033495296
  0
LINE
  8
_0-1_ADD_LINE
  6
CONTINUOUS
 62
    7
 10
325.64440897143504
 20
328.97793390495303
 11
325.64440897143504
 21
348.02691033495296
  0
LINE
  8
_0-1_ADD_LINE
  6
CONTINUOUS
 62
    7
 10
325.6436373649351
 20
348.02691033495296
 11
325.6436373649351
 21
328.97793390495303
  0
LINE
  8
_0-1_ADD_LINE
  6
CONTINUOUS
 62
    7
 10
325.6436373649351
 20
328.97793390495303
 11
306.59410897143505
 21
328.97793390495303
  0
LINE
  8
_0-1_ADD_LINE
  6
CONTINUOUS
 62
    7
 10
306.59410897143505
 20
348.02691033495296
 11
325.6436373649351
 21
348.02691033495296
  0
LINE
  8
_0-1_ADD_LINE
  6
CONTINUOUS
 62
    7
 10
306.59410897143505
 20
328.97793390495303
 11
306.59410897143505
 21
348.02691033495296
  0
LINE
  8
_0-1_ADD_LINE
  6
CONTINUOUS
 62
    7
 10
306.59363736493515
 20
348.02691033495296
 11
306.59363736493515
 21
328.97793390495303
  0
LINE
  8
_0-1_ADD_LINE
  6
CONTINUOUS
 62
    7
 10
306.59363736493515
 20
328.97793390495303
 11
287.54410897143509
 21
328.97793390495303
  0
LINE
  8
_0-1_ADD_LINE
  6
CONTINUOUS
 62
    7
 10
287.54410897143509
 20
348.02691033495296
 11
306.59363736493515
 21
348.02691033495296
  0
LINE
  8
_0-1_ADD_LINE
  6
CONTINUOUS
 62
    7
 10
287.54410897143509
 20
328.97793390495303
 11
287.54410897143509
 21
348.02691033495296
  0
LINE
  8
_0-1_ADD_LINE
  6
CONTINUOUS
 62
    7
 10
287.54363736493519
 20
348.02691033495296
 11
287.54363736493519
 21
328.97793390495303
  0
LINE
  8
_0-1_ADD_LINE
  6
CONTINUOUS
 62
    7
 10
287.54363736493519
 20
328.97793390495303
 11
268.49410897143514
 21
328.97793390495303
  0
LINE
  8
_0-1_ADD_LINE
  6
CONTINUOUS
 62
    7
 10
268.49410897143514
 20
348.02691033495296
 11
287.54363736493519
 21
348.02691033495296
  0
LINE
  8
_0-1_ADD_LINE
  6
CONTINUOUS
 62
    7
 10
268.49410897143514
 20
328.97793390495303
 11
268.49410897143514
 21
348.02691033495296
  0
LINE
  8
_0-1_ADD_LINE
  6
CONTINUOUS
 62
    7
 10
297.06863736493517
 20
328.97691033495289
 11
297.06863736493517
 21
309.92793390495297
  0
LINE
  8
_0-1_ADD_LINE
  6
CONTINUOUS
 62
    7
 10
297.06863736493517
 20
309.92793390495297
 11
278.01910897143512
 21
309.92793390495297
  0
LINE
  8
_0-1_ADD_LINE
  6
CONTINUOUS
 62
    7
 10
278.01910897143512
 20
328.97691033495289
 11
297.06863736493517
 21
328.97691033495289
  0
LINE
  8
_0-1_ADD_LINE
  6
CONTINUOUS
 62
    7
 10
278.01910897143512
 20
309.92793390495297
 11
278.01910897143512
 21
328.97691033495289
  0
LINE
  8
_0-1_ADD_LINE
  6
CONTINUOUS
 62
    7
 10
316.11863736493513
 20
328.97691033495289
 11
316.11863736493513
 21
309.92793390495297
  0
LINE
  8
_0-1_ADD_LINE
  6
CONTINUOUS
 62
    7
 10
316.11863736493513
 20
309.92793390495297
 11
297.06910897143507
 21
309.92793390495297
  0
LINE
  8
_0-1_ADD_LINE
  6
CONTINUOUS
 62
    7
 10
297.06910897143507
 20
328.97691033495289
 11
316.11863736493513
 21
328.97691033495289
  0
LINE
  8
_0-1_ADD_LINE
  6
CONTINUOUS
 62
    7
 10
297.06910897143507
 20
309.92793390495297
 11
297.06910897143507
 21
328.97691033495289
  0
LINE
  8
_0-1_ADD_LINE
  6
CONTINUOUS
 62
    7
 10
335.16723736493509
 20
328.97691033495289
 11
335.16723736493509
 21
309.92793390495297
  0
LINE
  8
_0-1_ADD_LINE
  6
CONTINUOUS
 62
    7
 10
335.16723736493509
 20
309.92793390495297
 11
316.11770897143504
 21
309.92793390495297
  0
LINE
  8
_0-1_ADD_LINE
  6
CONTINUOUS
 62
    7
 10
316.11770897143504
 20
328.97691033495289
 11
335.16723736493509
 21
328.97691033495289
  0
LINE
  8
_0-1_ADD_LINE
  6
CONTINUOUS
 62
    7
 10
316.11770897143504
 20
309.92793390495297
 11
316.11770897143504
 21
328.97691033495289
  0
LINE
  8
_0-1_ADD_LINE
  6
CONTINUOUS
 62
    7
 10
354.21693736493512
 20
328.97691033495289
 11
354.21693736493512
 21
309.92793390495297
  0
LINE
  8
_0-1_ADD_LINE
  6
CONTINUOUS
 62
    7
 10
354.21693736493512
 20
309.92793390495297
 11
335.16740897143507
 21
309.92793390495297
  0
LINE
  8
_0-1_ADD_LINE
  6
CONTINUOUS
 62
    7
 10
335.16740897143507
 20
328.97691033495289
 11
354.21693736493512
 21
328.97691033495289
  0
LINE
  8
_0-1_ADD_LINE
  6
CONTINUOUS
 62
    7
 10
335.16740897143507
 20
309.92793390495297
 11
335.16740897143507
 21
328.97691033495289
  0
LINE
  8
_0-1_ADD_LINE
  6
CONTINUOUS
 62
    7
 10
268.49363736493513
 20
348.02691033495296
 11
268.49363736493513
 21
328.97793390495303
  0
LINE
  8
_0-1_ADD_LINE
  6
CONTINUOUS
 62
    7
 10
268.49363736493513
 20
328.97793390495303
 11
249.4441089714351
 21
328.97793390495303
  0
LINE
  8
_0-1_ADD_LINE
  6
CONTINUOUS
 62
    7
 10
249.4441089714351
 20
348.02691033495296
 11
268.49363736493513
 21
348.02691033495296
  0
LINE
  8
_0-1_ADD_LINE
  6
CONTINUOUS
 62
    7
 10
249.4441089714351
 20
328.97793390495303
 11
249.4441089714351
 21
348.02691033495296
  0
LINE
  8
_0-1_ADD_LINE
  6
CONTINUOUS
 62
    7
 10
249.44363736493514
 20
348.02691033495296
 11
249.44363736493514
 21
328.97793390495303
  0
LINE
  8
_0-1_ADD_LINE
  6
CONTINUOUS
 62
    7
 10
249.44363736493514
 20
328.97793390495303
 11
230.39410897143514
 21
328.97793390495303
  0
LINE
  8
_0-1_ADD_LINE
  6
CONTINUOUS
 62
    7
 10
230.39410897143514
 20
348.02691033495296
 11
249.44363736493514
 21
348.02691033495296
  0
LINE
  8
_0-1_ADD_LINE
  6
CONTINUOUS
 62
    7
 10
230.39410897143514
 20
328.97793390495303
 11
230.39410897143514
 21
348.02691033495296
  0
LINE
  8
_0-1_ADD_LINE
  6
CONTINUOUS
 62
    7
 10
239.91858736493506
 20
328.97691033495289
 11
239.91858736493506
 21
309.92793390495297
  0
LINE
  8
_0-1_ADD_LINE
  6
CONTINUOUS
 62
    7
 10
239.91858736493506
 20
309.92793390495297
 11
220.86905897143507
 21
309.92793390495297
  0
LINE
  8
_0-1_ADD_LINE
  6
CONTINUOUS
 62
    7
 10
220.86905897143507
 20
328.97691033495289
 11
239.91858736493506
 21
328.97691033495289
  0
LINE
  8
_0-1_ADD_LINE
  6
CONTINUOUS
 62
    7
 10
220.86905897143507
 20
309.92793390495297
 11
220.86905897143507
 21
328.97691033495289
  0
LINE
  8
_0-1_ADD_LINE
  6
CONTINUOUS
 62
    7
 10
258.96863736493515
 20
328.97691033495289
 11
258.96863736493515
 21
309.92793390495297
  0
LINE
  8
_0-1_ADD_LINE
  6
CONTINUOUS
 62
    7
 10
258.96863736493515
 20
309.92793390495297
 11
239.91910897143512
 21
309.92793390495297
  0
LINE
  8
_0-1_ADD_LINE
  6
CONTINUOUS
 62
    7
 10
239.91910897143512
 20
328.97691033495289
 11
258.96863736493515
 21
328.97691033495289
  0
LINE
  8
_0-1_ADD_LINE
  6
CONTINUOUS
 62
    7
 10
239.91910897143512
 20
309.92793390495297
 11
239.91910897143512
 21
328.97691033495289
  0
LINE
  8
_0-1_ADD_LINE
  6
CONTINUOUS
 62
    7
 10
278.0186373649351
 20
328.97691033495289
 11
278.0186373649351
 21
309.92793390495297
  0
LINE
  8
_0-1_ADD_LINE
  6
CONTINUOUS
 62
    7
 10
278.0186373649351
 20
309.92793390495297
 11
258.96910897143505
 21
309.92793390495297
  0
LINE
  8
_0-1_ADD_LINE
  6
CONTINUOUS
 62
    7
 10
258.96910897143505
 20
328.97691033495289
 11
278.0186373649351
 21
328.97691033495289
  0
LINE
  8
_0-1_ADD_LINE
  6
CONTINUOUS
 62
    7
 10
258.96910897143505
 20
309.92793390495297
 11
258.96910897143505
 21
328.97691033495289
  0
LINE
  8
_0-1_ADD_LINE
  6
CONTINUOUS
 62
    7
 10
301.83114736493519
 20
309.92691033495294
 11
301.83114736493519
 21
290.87793390495301
  0
LINE
  8
_0-1_ADD_LINE
  6
CONTINUOUS
 62
    7
 10
301.83114736493519
 20
290.87793390495301
 11
282.78161897143514
 21
290.87793390495301
  0
LINE
  8
_0-1_ADD_LINE
  6
CONTINUOUS
 62
    7
 10
282.78161897143514
 20
309.92691033495294
 11
301.83114736493519
 21
309.92691033495294
  0
LINE
  8
_0-1_ADD_LINE
  6
CONTINUOUS
 62
    7
 10
282.78161897143514
 20
290.87793390495301
 11
282.78161897143514
 21
309.92691033495294
  0
LINE
  8
_0-1_ADD_LINE
  6
CONTINUOUS
 62
    7
 10
320.88114736493515
 20
309.92691033495294
 11
320.88114736493515
 21
290.87793390495301
  0
LINE
  8
_0-1_ADD_LINE
  6
CONTINUOUS
 62
    7
 10
320.88114736493515
 20
290.87793390495301
 11
301.83161897143509
 21
290.87793390495301
  0
LINE
  8
_0-1_ADD_LINE
  6
CONTINUOUS
 62
    7
 10
301.83161897143509
 20
309.92691033495294
 11
320.88114736493515
 21
309.92691033495294
  0
LINE
  8
_0-1_ADD_LINE
  6
CONTINUOUS
 62
    7
 10
301.83161897143509
 20
290.87793390495301
 11
301.83161897143509
 21
309.92691033495294
  0
LINE
  8
_0-1_ADD_LINE
  6
CONTINUOUS
 62
    7
 10
339.92974736493511
 20
309.92691033495294
 11
339.92974736493511
 21
290.87793390495301
  0
LINE
  8
_0-1_ADD_LINE
  6
CONTINUOUS
 62
    7
 10
339.92974736493511
 20
290.87793390495301
 11
320.88021897143506
 21
290.87793390495301
  0
LINE
  8
_0-1_ADD_LINE
  6
CONTINUOUS
 62
    7
 10
320.88021897143506
 20
309.92691033495294
 11
339.92974736493511
 21
309.92691033495294
  0
LINE
  8
_0-1_ADD_LINE
  6
CONTINUOUS
 62
    7
 10
320.88021897143506
 20
290.87793390495301
 11
320.88021897143506
 21
309.92691033495294
  0
LINE
  8
_0-1_ADD_LINE
  6
CONTINUOUS
 62
    7
 10
358.97944736493514
 20
309.92691033495294
 11
358.97944736493514
 21
290.87793390495301
  0
LINE
  8
_0-1_ADD_LINE
  6
CONTINUOUS
 62
    7
 10
358.97944736493514
 20
290.87793390495301
 11
339.92991897143509
 21
290.87793390495301
  0
LINE
  8
_0-1_ADD_LINE
  6
CONTINUOUS
 62
    7
 10
339.92991897143509
 20
309.92691033495294
 11
358.97944736493514
 21
309.92691033495294
  0
LINE
  8
_0-1_ADD_LINE
  6
CONTINUOUS
 62
    7
 10
339.92991897143509
 20
290.87793390495301
 11
339.92991897143509
 21
309.92691033495294
  0
LINE
  8
_0-1_ADD_LINE
  6
CONTINUOUS
 62
    7
 10
244.68109736493508
 20
309.92691033495294
 11
244.68109736493508
 21
290.87793390495301
  0
LINE
  8
_0-1_ADD_LINE
  6
CONTINUOUS
 62
    7
 10
244.68109736493508
 20
290.87793390495301
 11
225.63156897143509
 21
290.87793390495301
  0
LINE
  8
_0-1_ADD_LINE
  6
CONTINUOUS
 62
    7
 10
225.63156897143509
 20
309.92691033495294
 11
244.68109736493508
 21
309.92691033495294
  0
LINE
  8
_0-1_ADD_LINE
  6
CONTINUOUS
 62
    7
 10
225.63156897143509
 20
290.87793390495301
 11
225.63156897143509
 21
309.92691033495294
  0
LINE
  8
_0-1_ADD_LINE
  6
CONTINUOUS
 62
    7
 10
263.73114736493517
 20
309.92691033495294
 11
263.73114736493517
 21
290.87793390495301
  0
LINE
  8
_0-1_ADD_LINE
  6
CONTINUOUS
 62
    7
 10
263.73114736493517
 20
290.87793390495301
 11
244.68161897143514
 21
290.87793390495301
  0
LINE
  8
_0-1_ADD_LINE
  6
CONTINUOUS
 62
    7
 10
244.68161897143514
 20
309.92691033495294
 11
263.73114736493517
 21
309.92691033495294
  0
LINE
  8
_0-1_ADD_LINE
  6
CONTINUOUS
 62
    7
 10
244.68161897143514
 20
290.87793390495301
 11
244.68161897143514
 21
309.92691033495294
  0
LINE
  8
_0-1_ADD_LINE
  6
CONTINUOUS
 62
    7
 10
282.78114736493512
 20
309.92691033495294
 11
282.78114736493512
 21
290.87793390495301
  0
LINE
  8
_0-1_ADD_LINE
  6
CONTINUOUS
 62
    7
 10
282.78114736493512
 20
290.87793390495301
 11
263.73161897143507
 21
290.87793390495301
  0
LINE
  8
_0-1_ADD_LINE
  6
CONTINUOUS
 62
    7
 10
263.73161897143507
 20
309.92691033495294
 11
282.78114736493512
 21
309.92691033495294
  0
LINE
  8
_0-1_ADD_LINE
  6
CONTINUOUS
 62
    7
 10
263.73161897143507
 20
290.87793390495301
 11
263.73161897143507
 21
309.92691033495294
  0
LINE
  8
_0-1_ADD_LINE
  6
CONTINUOUS
 62
    7
 10
311.35618736493518
 20
290.87691033495298
 11
311.35618736493518
 21
271.82793390495306
  0
LINE
  8
_0-1_ADD_LINE
  6
CONTINUOUS
 62
    7
 10
311.35618736493518
 20
271.82793390495306
 11
292.30665897143513
 21
271.82793390495306
  0
LINE
  8
_0-1_ADD_LINE
  6
CONTINUOUS
 62
    7
 10
292.30665897143513
 20
290.87691033495298
 11
311.35618736493518
 21
290.87691033495298
  0
LINE
  8
_0-1_ADD_LINE
  6
CONTINUOUS
 62
    7
 10
292.30665897143513
 20
271.82793390495306
 11
292.30665897143513
 21
290.87691033495298
  0
LINE
  8
_0-1_ADD_LINE
  6
CONTINUOUS
 62
    7
 10
330.40618736493514
 20
290.87691033495298
 11
330.40618736493514
 21
271.82793390495306
  0
LINE
  8
_0-1_ADD_LINE
  6
CONTINUOUS
 62
    7
 10
330.40618736493514
 20
271.82793390495306
 11
311.35665897143508
 21
271.82793390495306
  0
LINE
  8
_0-1_ADD_LINE
  6
CONTINUOUS
 62
    7
 10
311.35665897143508
 20
290.87691033495298
 11
330.40618736493514
 21
290.87691033495298
  0
LINE
  8
_0-1_ADD_LINE
  6
CONTINUOUS
 62
    7
 10
311.35665897143508
 20
271.82793390495306
 11
311.35665897143508
 21
290.87691033495298
  0
LINE
  8
_0-1_ADD_LINE
  6
CONTINUOUS
 62
    7
 10
349.4547873649351
 20
290.87691033495298
 11
349.4547873649351
 21
271.82793390495306
  0
LINE
  8
_0-1_ADD_LINE
  6
CONTINUOUS
 62
    7
 10
349.4547873649351
 20
271.82793390495306
 11
330.40525897143505
 21
271.82793390495306
  0
LINE
  8
_0-1_ADD_LINE
  6
CONTINUOUS
 62
    7
 10
330.40525897143505
 20
290.87691033495298
 11
349.4547873649351
 21
290.87691033495298
  0
LINE
  8
_0-1_ADD_LINE
  6
CONTINUOUS
 62
    7
 10
330.40525897143505
 20
271.82793390495306
 11
330.40525897143505
 21
290.87691033495298
  0
LINE
  8
_0-1_ADD_LINE
  6
CONTINUOUS
 62
    7
 10
254.20613736493507
 20
290.87691033495298
 11
254.20613736493507
 21
271.82793390495306
  0
LINE
  8
_0-1_ADD_LINE
  6
CONTINUOUS
 62
    7
 10
254.20613736493507
 20
271.82793390495306
 11
235.15660897143508
 21
271.82793390495306
  0
LINE
  8
_0-1_ADD_LINE
  6
CONTINUOUS
 62
    7
 10
235.15660897143508
 20
290.87691033495298
 11
254.20613736493507
 21
290.87691033495298
  0
LINE
  8
_0-1_ADD_LINE
  6
CONTINUOUS
 62
    7
 10
235.15660897143508
 20
271.82793390495306
 11
235.15660897143508
 21
290.87691033495298
  0
LINE
  8
_0-1_ADD_LINE
  6
CONTINUOUS
 62
    7
 10
273.25618736493516
 20
290.87691033495298
 11
273.25618736493516
 21
271.82793390495306
  0
LINE
  8
_0-1_ADD_LINE
  6
CONTINUOUS
 62
    7
 10
273.25618736493516
 20
271.82793390495306
 11
254.2066589714351
 21
271.82793390495306
  0
LINE
  8
_0-1_ADD_LINE
  6
CONTINUOUS
 62
    7
 10
254.2066589714351
 20
290.87691033495298
 11
273.25618736493516
 21
290.87691033495298
  0
LINE
  8
_0-1_ADD_LINE
  6
CONTINUOUS
 62
    7
 10
254.2066589714351
 20
271.82793390495306
 11
254.2066589714351
 21
290.87691033495298
  0
LINE
  8
_0-1_ADD_LINE
  6
CONTINUOUS
 62
    7
 10
292.30618736493511
 20
290.87691033495298
 11
292.30618736493511
 21
271.82793390495306
  0
LINE
  8
_0-1_ADD_LINE
  6
CONTINUOUS
 62
    7
 10
292.30618736493511
 20
271.82793390495306
 11
273.25665897143506
 21
271.82793390495306
  0
LINE
  8
_0-1_ADD_LINE
  6
CONTINUOUS
 62
    7
 10
273.25665897143506
 20
290.87691033495298
 11
292.30618736493511
 21
290.87691033495298
  0
LINE
  8
_0-1_ADD_LINE
  6
CONTINUOUS
 62
    7
 10
273.25665897143506
 20
271.82793390495306
 11
273.25665897143506
 21
290.87691033495298
  0
LINE
  8
_0-1_ADD_LINE
  6
CONTINUOUS
 62
    7
 10
339.93118736493523
 20
271.82701033495289
 11
339.93118736493523
 21
252.77803390495296
  0
LINE
  8
_0-1_ADD_LINE
  6
CONTINUOUS
 62
    7
 10
339.93118736493523
 20
252.77803390495296
 11
320.88165897143517
 21
252.77803390495296
  0
LINE
  8
_0-1_ADD_LINE
  6
CONTINUOUS
 62
    7
 10
320.88165897143517
 20
271.82701033495289
 11
339.93118736493523
 21
271.82701033495289
  0
LINE
  8
_0-1_ADD_LINE
  6
CONTINUOUS
 62
    7
 10
320.88165897143517
 20
252.77803390495296
 11
320.88165897143517
 21
271.82701033495289
  0
LINE
  8
_0-1_ADD_LINE
  6
CONTINUOUS
 62
    7
 10
358.98118736493518
 20
271.82701033495289
 11
358.98118736493518
 21
252.77803390495296
  0
LINE
  8
_0-1_ADD_LINE
  6
CONTINUOUS
 62
    7
 10
339.93165897143513
 20
271.82701033495289
 11
358.98118736493518
 21
271.82701033495289
  0
LINE
  8
_0-1_ADD_LINE
  6
CONTINUOUS
 62
    7
 10
339.93165897143513
 20
252.77803390495296
 11
339.93165897143513
 21
271.82701033495289
  0
LINE
  8
_0-1_ADD_LINE
  6
CONTINUOUS
 62
    7
 10
282.78113736493515
 20
271.82701033495289
 11
282.78113736493515
 21
252.77803390495296
  0
LINE
  8
_0-1_ADD_LINE
  6
CONTINUOUS
 62
    7
 10
282.78113736493515
 20
252.77803390495296
 11
263.73160897143509
 21
252.77803390495296
  0
LINE
  8
_0-1_ADD_LINE
  6
CONTINUOUS
 62
    7
 10
263.73160897143509
 20
271.82701033495289
 11
282.78113736493515
 21
271.82701033495289
  0
LINE
  8
_0-1_ADD_LINE
  6
CONTINUOUS
 62
    7
 10
301.8311873649352
 20
271.82701033495289
 11
301.8311873649352
 21
252.77803390495296
  0
LINE
  8
_0-1_ADD_LINE
  6
CONTINUOUS
 62
    7
 10
301.8311873649352
 20
252.77803390495296
 11
282.78165897143515
 21
252.77803390495296
  0
LINE
  8
_0-1_ADD_LINE
  6
CONTINUOUS
 62
    7
 10
282.78165897143515
 20
271.82701033495289
 11
301.8311873649352
 21
271.82701033495289
  0
LINE
  8
_0-1_ADD_LINE
  6
CONTINUOUS
 62
    7
 10
282.78165897143515
 20
252.77803390495296
 11
282.78165897143515
 21
271.82701033495289
  0
LINE
  8
_0-1_ADD_LINE
  6
CONTINUOUS
 62
    7
 10
320.88118736493516
 20
271.82701033495289
 11
320.88118736493516
 21
252.77803390495296
  0
LINE
  8
_0-1_ADD_LINE
  6
CONTINUOUS
 62
    7
 10
320.88118736493516
 20
252.77803390495296
 11
301.8316589714351
 21
252.77803390495296
  0
LINE
  8
_0-1_ADD_LINE
  6
CONTINUOUS
 62
    7
 10
301.8316589714351
 20
271.82701033495289
 11
320.88118736493516
 21
271.82701033495289
  0
LINE
  8
_0-1_ADD_LINE
  6
CONTINUOUS
 62
    7
 10
301.8316589714351
 20
252.77803390495296
 11
301.8316589714351
 21
271.82701033495289
  0
LINE
  8
_0-1_ADD_LINE
  6
CONTINUOUS
 62
    7
 10
242.30030897143519
 20
271.82701033495289
 11
261.34983736493518
 21
271.82701033495289
  0
LINE
  8
_0-1_ADD_LINE
  6
CONTINUOUS
 62
    7
 10
375.64993736493517
 20
271.82793390495306
 11
356.60040897143517
 21
271.82793390495306
  0
LINE
  8
_0-1_ADD_LINE
  6
CONTINUOUS
 62
    7
 10
406.60593736493513
 20
309.92691033495294
 11
406.60593736493513
 21
290.87793390495301
  0
LINE
  8
_0-1_ADD_LINE
  6
CONTINUOUS
 62
    7
 10
406.60593736493513
 20
290.87793390495301
 11
387.55640897143513
 21
290.87793390495301
  0
LINE
  8
_0-1_ADD_LINE
  6
CONTINUOUS
 62
    7
 10
387.55640897143513
 20
309.92691033495294
 11
406.60593736493513
 21
309.92691033495294
  0
LINE
  8
_0-1_ADD_LINE
  6
CONTINUOUS
 62
    7
 10
387.55640897143513
 20
290.87793390495301
 11
387.55640897143513
 21
309.92691033495294
  0
LINE
  8
_0-1_ADD_LINE
  6
CONTINUOUS
 62
    7
 10
406.60593736493513
 20
290.87691033495298
 11
406.60593736493513
 21
271.82793390495306
  0
LINE
  8
_0-1_ADD_LINE
  6
CONTINUOUS
 62
    7
 10
406.60593736493513
 20
271.82793390495306
 11
387.55640897143513
 21
271.82793390495306
  0
LINE
  8
_0-1_ADD_LINE
  6
CONTINUOUS
 62
    7
 10
387.55640897143513
 20
290.87691033495298
 11
406.60593736493513
 21
290.87691033495298
  0
LINE
  8
_0-1_ADD_LINE
  6
CONTINUOUS
 62
    7
 10
387.55640897143513
 20
271.82793390495306
 11
387.55640897143513
 21
290.87691033495298
  0
LINE
  8
_0-1_ADD_LINE
  6
CONTINUOUS
 62
    7
 10
406.60593736493513
 20
271.82701033495289
 11
406.60593736493513
 21
252.77803390495296
  0
LINE
  8
_0-1_ADD_LINE
  6
CONTINUOUS
 62
    7
 10
406.60593736493513
 20
252.77803390495296
 11
387.55640897143513
 21
252.77803390495296
  0
LINE
  8
_0-1_ADD_LINE
  6
CONTINUOUS
 62
    7
 10
387.55640897143513
 20
271.82701033495289
 11
406.60593736493513
 21
271.82701033495289
  0
LINE
  8
_0-1_ADD_LINE
  6
CONTINUOUS
 62
    7
 10
387.55640897143513
 20
252.77803390495296
 11
387.55640897143513
 21
271.82701033495289
  0
LINE
  8
_0-1_ADD_LINE
  6
CONTINUOUS
 62
    7
 10
356.60040897143517
 20
290.87691033495298
 11
382.79393736493512
 21
290.87691033495298
  0
LINE
  8
_0-1_ADD_LINE
  6
CONTINUOUS
 62
    7
 10
382.79393736493512
 20
252.77803390495296
 11
339.93165897143513
 21
252.77803390495296
  0
LINE
  8
_0-1_ADD_LINE
  6
CONTINUOUS
 62
    7
 10
361.36140897143514
 20
271.82701033495289
 11
382.79393736493512
 21
271.82701033495289
  0
LINE
  8
_0-1_ADD_LINE
  6
CONTINUOUS
 62
    7
 10
382.79393736493512
 20
348.02691033495296
 11
382.79393736493512
 21
252.77803390495296
  0
LINE
  8
_0-1_ADD_LINE
  6
CONTINUOUS
 62
    7
 10
363.74440897143506
 20
348.02691033495296
 11
382.79393736493512
 21
348.02691033495296
  0
LINE
  8
_0-1_ADD_LINE
  6
CONTINUOUS
 62
    7
 10
239.91853736543518
 20
252.77803390495296
 11
239.91853736543518
 21
271.82701033495289
  0
LINE
  8
_0-1_ADD_LINE
  6
CONTINUOUS
 62
    7
 10
263.73160897093521
 20
252.77803390495296
 11
239.91853736543518
 21
252.77803390495296
  0
LINE
  8
_0-1_ADD_LINE
  6
CONTINUOUS
 62
    7
 10
263.73160897093521
 20
271.82701033495289
 11
263.73160897093521
 21
252.77803390495296
  0
ENDSEC
  0
EOF
