  0
SECTION
  2
HEADER
  9
$ACADVER
  1
AC1009
  9
$INSBASE
 10
0
 20
0
 30
0
  9
$EXTMIN
 10
0
 20
0
  9
$EXTMAX
 10
841
 20
594
  9
$LIMMIN
 10
0
 20
0
  9
$LIMMAX
 10
841
 20
594
  9
$LTSCALE
 40
1
  0
ENDSEC
  0
SECTION
  2
TABLES
  0
TABLE
  2
LTYPE
 70
     9
  0
LTYPE
  2
CONTINUOUS
 70
    64
  3
実線
 72
    65
 73
     0
 40
0.0
  0
LTYPE
  2
DASHED1
 70
    64
  3
--  --  --  --  --  --  --  --  
 72
    65
 73
     2
 40
2.5
 49
1.25
 49
-1.25
  0
LTYPE
  2
DASHED2
 70
    64
  3
----    ----    ----    ----    
 72
    65
 73
     2
 40
5.0
 49
2.5
 49
-2.5
  0
LTYPE
  2
DASHED3
 70
    64
  3
------  ------  ------  ------  
 72
    65
 73
     2
 40
5.0
 49
3.75
 49
-1.25
  0
LTYPE
  2
CENTER1
 70
    64
  3
----- - ----- - ----- - ----- - 
 72
    65
 73
     4
 40
10.0
 49
6.25
 49
-1.25
 49
1.25
 49
-1.25
  0
LTYPE
  2
CENTER2
 70
    64
  3
----------  --  ----------  --  
 72
    65
 73
     4
 40
20.0
 49
12.5
 49
-2.5
 49
2.5
 49
-2.5
  0
LTYPE
  2
PHANTOM1
 70
    64
  3
--- - - --- - - --- - - --- - - 
 72
    65
 73
     6
 40
10.0
 49
3.25
 49
-1.25
 49
1.25
 49
-1.25
 49
1.25
 49
-1.25
  0
LTYPE
  2
PHANTOM2
 70
    64
  3
--------  -  -  --------  -  -  
 72
    65
 73
     6
 40
20.0
 49
10.0
 49
-2.5
 49
1.25
 49
-2.5
 49
1.25
 49
-2.5
  0
LTYPE
  2
DOT
 70
    64
  3
-   -   -   -   -   -   -   -   
 72
    65
 73
     2
 40
2.5
 49
0.625
 49
-1.875
  0
LTYPE
  2
DUMMY
 70
    64
  3
ダミー
 72
    65
 73
     0
 40
0.0
  0
LTYPE
  2
RAND1
 70
    64
  3
ランダム線1
 72
    65
 73
     4
 40
10.0
 49
1.0
 49
-2.0
 49
3.0
 49
-4.0
  0
LTYPE
  2
RAND2
 70
    64
  3
ランダム線2
 72
    65
 73
     4
 40
14.0
 49
2.0
 49
-3.0
 49
4.0
 49
-5.0
  0
LTYPE
  2
RAND3
 70
    64
  3
ランダム線3
 72
    65
 73
     4
 40
18.0
 49
3.0
 49
-4.0
 49
5.0
 49
-6.0
  0
LTYPE
  2
RAND4
 70
    64
  3
ランダム線4
 72
    65
 73
     4
 40
22.0
 49
4.0
 49
-5.0
 49
6.0
 49
-7.0
  0
LTYPE
  2
RAND5
 70
    64
  3
ランダム線5
 72
    65
 73
     4
 40
26.0
 49
5.0
 49
-6.0
 49
7.0
 49
-8.0
  0
LTYPE
  2
LONG1
 70
    64
  3
----------  --  ----------  --  
 72
    65
 73
     4
 40
40.0
 49
32.5
 49
-2.5
 49
2.5
 49
-2.5
  0
LTYPE
  2
LONG2
 70
    64
  3
--------  -  -  --------  -  -  
 72
    65
 73
     6
 40
40.0
 49
30.0
 49
-2.5
 49
1.25
 49
-2.5
 49
1.25
 49
-2.5
  0
LTYPE
  2
LONG3
 70
    64
  3
+++++++++++++++..+++++++++++++++
 72
    65
 73
     2
 40
40.0
 49
37.5
 49
-2.5
  0
LTYPE
  2
LONG4
 70
    64
  3
+++++++++++++++..+++++++++++++++
 72
    65
 73
     2
 40
80.0
 49
75.0
 49
-5.0
  0
LTYPE
  2
LONG5
 70
    64
  3
----------  --  ----------  --  
 72
    65
 73
     4
 40
60.0
 49
37.5
 49
-7.5
 49
7.5
 49
-7.5
  0
LTYPE
  2
dashed
 70
   64
  3
-------   -------------   ------
 72
   65
 73
    2
 40
7.5
 49
6
 49
-1.5
  0
LTYPE
  2
dashed_spaced
 70
   64
  3
----        --------        ----
 72
   65
 73
    2
 40
12
 49
6
 49
-6
  0
LTYPE
  2
long_dashed_dotted
 70
   64
  3
------------- --- --------------
 72
   65
 73
    4
 40
15.25
 49
12
 49
-1.5
 49
0.25
 49
-1.5
  0
LTYPE
  2
long_dashed_double-dotted
 70
   64
  3
----------- --- --- ------------
 72
   65
 73
    6
 40
17
 49
12
 49
-1.5
 49
0.25
 49
-1.5
 49
0.25
 49
-1.5
  0
LTYPE
  2
long_dashed_triplicate-dotted
 70
   64
  3
--------- --- --- --- ----------
 72
   65
 73
    8
 40
18.75
 49
12
 49
-1.5
 49
0.25
 49
-1.5
 49
0.25
 49
-1.5
 49
0.25
 49
-1.5
  0
LTYPE
  2
dotted
 70
   64
  3
   -       -       -       -    
 72
   65
 73
    2
 40
1.75
 49
0.25
 49
-1.5
  0
LTYPE
  2
chain
 70
   64
  3
-------------- -- --------------
 72
   65
 73
    4
 40
18.5
 49
12
 49
-1.5
 49
3.5
 49
-1.5
  0
LTYPE
  2
chain_double_dash
 70
   64
  3
------------ -- -- -------------
 72
   65
 73
    6
 40
23.5
 49
12
 49
-1.5
 49
3.5
 49
-1.5
 49
3.5
 49
-1.5
  0
LTYPE
  2
dashed_dotted
 70
   64
  3
-----------     -     ----------
 72
   65
 73
    4
 40
9.25
 49
6
 49
-1.5
 49
0.25
 49
-1.5
  0
LTYPE
  2
double-dashed_dotted
 70
   64
  3
------   -----------   -   -----
 72
   65
 73
    6
 40
16.75
 49
6
 49
-1.5
 49
6
 49
-1.5
 49
0.25
 49
-1.5
  0
LTYPE
  2
dashed_double-dotted
 70
   64
  3
---------    -    -    ---------
 72
   65
 73
    6
 40
11
 49
6
 49
-1.5
 49
0.25
 49
-1.5
 49
0.25
 49
-1.5
  0
LTYPE
  2
double-dashed_double-dotted
 70
   64
  3
-----   ---------   -   -   ----
 72
   65
 73
    8
 40
18.5
 49
6
 49
-1.5
 49
6
 49
-1.5
 49
0.25
 49
-1.5
 49
0.25
 49
-1.5
  0
LTYPE
  2
dashed_triplicate-dotted
 70
   64
  3
-------    -    -    -    ------
 72
   65
 73
    8
 40
12.75
 49
6
 49
-1.5
 49
0.25
 49
-1.5
 49
0.25
 49
-1.5
 49
0.25
 49
-1.5
  0
LTYPE
  2
double-dashed_triplicate-dotted
 70
   64
  3
-----  ---------  -  -  -  -----
 72
   65
 73
   10
 40
20.25
 49
6
 49
-1.5
 49
6
 49
-1.5
 49
0.25
 49
-1.5
 49
0.25
 49
-1.5
 49
0.25
 49
-1.5
  0
LTYPE
  2
undefined
 70
   64
  3
--------------------------------
 72
   65
 73
    0
 40
0
  0
LTYPE
  2
_
 70
   64
  3
                                
 72
   65
 73
    0
 40
0
  0
LTYPE
  2
__18
 70
   64
  3
                                
 72
   65
 73
    0
 40
0
  0
LTYPE
  2
__19
 70
   64
  3
                                
 72
   65
 73
    0
 40
0
  0
LTYPE
  2
__20
 70
   64
  3
                                
 72
   65
 73
    0
 40
0
  0
LTYPE
  2
__21
 70
   64
  3
                                
 72
   65
 73
    0
 40
0
  0
LTYPE
  2
__22
 70
   64
  3
                                
 72
   65
 73
    0
 40
0
  0
LTYPE
  2
__23
 70
   64
  3
                                
 72
   65
 73
    0
 40
0
  0
LTYPE
  2
__24
 70
   64
  3
                                
 72
   65
 73
    0
 40
0
  0
LTYPE
  2
__25
 70
   64
  3
                                
 72
   65
 73
    0
 40
0
  0
LTYPE
  2
__26
 70
   64
  3
                                
 72
   65
 73
    0
 40
0
  0
LTYPE
  2
__27
 70
   64
  3
                                
 72
   65
 73
    0
 40
0
  0
LTYPE
  2
__28
 70
   64
  3
                                
 72
   65
 73
    0
 40
0
  0
LTYPE
  2
__29
 70
   64
  3
                                
 72
   65
 73
    0
 40
0
  0
LTYPE
  2
__30
 70
   64
  3
                                
 72
   65
 73
    0
 40
0
  0
LTYPE
  2
__31
 70
   64
  3
                                
 72
   65
 73
    0
 40
0
  0
LTYPE
  2
__32
 70
   64
  3
                                
 72
   65
 73
    0
 40
0
  0
ENDTAB
  0
TABLE
  2
STYLE
  5
3
100
AcDbSymbolTable
 70
     1
  0
STYLE
  5
10
100
AcDbSymbolTableRecord
100
AcDbTextStyleTableRecord
  2
STANDARD
 70
     0
 40
0.0
 41
1.0
 50
0.0
 71
     0
 42
0.2
  3
txt
  4
bigfont.shx
  0
STYLE
  5
26
100
AcDbSymbolTableRecord
100
AcDbTextStyleTableRecord
  2
TATEGAKI
 70
    68
 40
0.0
 41
1.0
 50
0.0
 71
     0
 42
1.0
  3
txt
  4
bigfont.shx
  0
ENDTAB
  0
TABLE
  2
LAYER
 70
    3
  0
LAYER
  2
_0-0_
 70
   64
 62
    7
  6
CONTINUOUS
  0
LAYER
  2
_0-1_ADD_LINE
 70
   64
 62
    7
  6
CONTINUOUS
  0
LAYER
  2
ADD_LINE
 70
   64
 62
    7
  6
CONTINUOUS
  0
ENDTAB
  0
ENDSEC
  0
SECTION
  2
BLOCKS
  0
ENDSEC
  0
SECTION
  2
ENTITIES
  0
LINE
  8
_0-1_ADD_LINE
  6
CONTINUOUS
 62
    7
 10
368.71316005902383
 20
266.58645792091272
 11
368.71316005902383
 21
285.6354343509127
  0
LINE
  8
_0-0_
  6
CONTINUOUS
 62
    7
 10
268.4628738095239
 20
264.58571113591267
 11
268.4628738095239
 21
392.41044613591271
  0
LINE
  8
_0-0_
  6
CONTINUOUS
 62
    7
 10
271.4628738095239
 20
395.41044613591271
 11
434.62474130952387
 21
395.41044613591271
  0
ARC
  8
_0-0_
  6
CONTINUOUS
 62
    7
 10
271.4628738095239
 20
392.41044613591271
 40
3
 50
90
 51
180
  0
ARC
  8
_0-0_
  6
CONTINUOUS
 62
    7
 10
445.62474130952387
 20
324.96688169828673
 40
10
 50
180
 51
194.03713868216576
  0
ARC
  8
_0-0_
  6
CONTINUOUS
 62
    7
 10
434.62474130952387
 20
394.41044613591276
 40
1
 50
0
 51
90
  0
LINE
  8
_0-0_
  6
CONTINUOUS
 62
    7
 10
444.85177341496956
 20
286.83006840289983
 11
435.92335420407812
 21
322.54137386892552
  0
ARC
  8
_0-0_
  6
CONTINUOUS
 62
    7
 10
435.15038630952381
 20
284.40456057353862
 40
10
 50
0
 51
14.037138682165798
  0
ARC
  8
_0-0_
  6
CONTINUOUS
 62
    7
 10
444.15038630952381
 20
262.58571113591267
 40
1
 50
270
 51
0
  0
LINE
  8
_0-0_
  6
CONTINUOUS
 62
    7
 10
271.4628738095239
 20
261.58571113591267
 11
444.15038630952381
 21
261.58571113591267
  0
ARC
  8
_0-0_
  6
CONTINUOUS
 62
    7
 10
271.4628738095239
 20
264.58571113591267
 40
3
 50
180
 51
270
  0
CIRCLE
  8
_0-0_
  6
CONTINUOUS
 62
    7
 10
271.4628738095239
 20
392.41044613591271
 40
1.1000000000000001
  0
CIRCLE
  8
_0-0_
  6
CONTINUOUS
 62
    7
 10
271.4628738095239
 20
264.58571113591267
 40
1.1000000000000001
  0
CIRCLE
  8
_0-0_
  6
CONTINUOUS
 62
    7
 10
442.15038630952381
 20
264.58571113591267
 40
1.1000000000000001
  0
CIRCLE
  8
_0-0_
  6
CONTINUOUS
 62
    7
 10
432.62474130952387
 20
392.41044613591271
 40
1.1000000000000001
  0
LINE
  8
_0-0_
  6
CONTINUOUS
 62
    7
 10
445.15038630952381
 20
284.40456057353862
 11
445.15038630952381
 21
262.58571113591267
  0
LINE
  8
_0-0_
  6
CONTINUOUS
 62
    7
 10
435.62474130952387
 20
394.41044613591276
 11
435.62474130952387
 21
324.96688169828673
  0
CIRCLE
  8
_0-0_
  6
CONTINUOUS
 62
    7
 10
288.31287380952392
 20
390.38571113591269
 40
1
  0
LINE
  8
_0-1_ADD_LINE
  6
CONTINUOUS
 62
    7
 10
299.77566005902383
 20
390.40993435091269
 11
316.32493756002395
 21
390.40993435091269
  0
LINE
  8
_0-1_ADD_LINE
  6
CONTINUOUS
 62
    7
 10
316.32493756002395
 20
390.40993435091269
 11
316.32493756002395
 21
371.36095792091271
  0
LINE
  8
_0-1_ADD_LINE
  6
CONTINUOUS
 62
    7
 10
316.32493756002395
 20
371.36095792091271
 11
297.27566005902383
 21
371.36095792091271
  0
LINE
  8
_0-1_ADD_LINE
  6
CONTINUOUS
 62
    7
 10
297.27566005902383
 20
371.36095792091271
 11
297.27566005902383
 21
390.40993435091269
  0
LINE
  8
_0-1_ADD_LINE
  6
CONTINUOUS
 62
    7
 10
297.27566005902383
 20
390.40993435091269
 11
313.82493756002395
 21
390.40993435091269
  0
LINE
  8
_0-1_ADD_LINE
  6
CONTINUOUS
 62
    7
 10
344.89993756002389
 20
390.40993435091269
 11
344.89993756002389
 21
371.36095792091271
  0
LINE
  8
_0-1_ADD_LINE
  6
CONTINUOUS
 62
    7
 10
344.89993756002389
 20
371.36095792091271
 11
325.85066005902388
 21
371.36095792091271
  0
LINE
  8
_0-1_ADD_LINE
  6
CONTINUOUS
 62
    7
 10
325.85066005902388
 20
390.40993435091269
 11
344.89993756002389
 21
390.40993435091269
  0
LINE
  8
_0-1_ADD_LINE
  6
CONTINUOUS
 62
    7
 10
325.85066005902388
 20
371.36095792091271
 11
325.85066005902388
 21
390.40993435091269
  0
LINE
  8
_0-1_ADD_LINE
  6
CONTINUOUS
 62
    7
 10
363.94993756002384
 20
390.40993435091269
 11
363.94993756002384
 21
371.36095792091271
  0
LINE
  8
_0-1_ADD_LINE
  6
CONTINUOUS
 62
    7
 10
363.94993756002384
 20
371.36095792091271
 11
344.90066005902383
 21
371.36095792091271
  0
LINE
  8
_0-1_ADD_LINE
  6
CONTINUOUS
 62
    7
 10
344.90066005902383
 20
390.40993435091269
 11
363.94993756002384
 21
390.40993435091269
  0
LINE
  8
_0-1_ADD_LINE
  6
CONTINUOUS
 62
    7
 10
344.90066005902383
 20
371.36095792091271
 11
344.90066005902383
 21
390.40993435091269
  0
LINE
  8
_0-1_ADD_LINE
  6
CONTINUOUS
 62
    7
 10
382.99993756002391
 20
390.40993435091269
 11
382.99993756002391
 21
371.36095792091271
  0
LINE
  8
_0-1_ADD_LINE
  6
CONTINUOUS
 62
    7
 10
382.99993756002391
 20
371.36095792091271
 11
363.9506600590239
 21
371.36095792091271
  0
LINE
  8
_0-1_ADD_LINE
  6
CONTINUOUS
 62
    7
 10
363.9506600590239
 20
390.40993435091269
 11
382.99993756002391
 21
390.40993435091269
  0
LINE
  8
_0-1_ADD_LINE
  6
CONTINUOUS
 62
    7
 10
363.9506600590239
 20
371.36095792091271
 11
363.9506600590239
 21
390.40993435091269
  0
LINE
  8
_0-1_ADD_LINE
  6
CONTINUOUS
 62
    7
 10
402.04973756002391
 20
390.40993435091269
 11
402.04973756002391
 21
371.36095792091271
  0
LINE
  8
_0-1_ADD_LINE
  6
CONTINUOUS
 62
    7
 10
402.04973756002391
 20
371.36095792091271
 11
383.00046005902379
 21
371.36095792091271
  0
LINE
  8
_0-1_ADD_LINE
  6
CONTINUOUS
 62
    7
 10
383.00046005902379
 20
390.40993435091269
 11
402.04973756002391
 21
390.40993435091269
  0
LINE
  8
_0-1_ADD_LINE
  6
CONTINUOUS
 62
    7
 10
383.00046005902379
 20
371.36095792091271
 11
383.00046005902379
 21
390.40993435091269
  0
LINE
  8
_0-1_ADD_LINE
  6
CONTINUOUS
 62
    7
 10
430.62473756002396
 20
390.40993435091269
 11
430.62473756002396
 21
371.36095792091271
  0
LINE
  8
_0-1_ADD_LINE
  6
CONTINUOUS
 62
    7
 10
430.62473756002396
 20
371.36095792091271
 11
411.57546005902384
 21
371.36095792091271
  0
LINE
  8
_0-1_ADD_LINE
  6
CONTINUOUS
 62
    7
 10
411.57546005902384
 20
390.40993435091269
 11
430.62473756002396
 21
390.40993435091269
  0
LINE
  8
_0-1_ADD_LINE
  6
CONTINUOUS
 62
    7
 10
411.57546005902384
 20
371.36095792091271
 11
411.57546005902384
 21
390.40993435091269
  0
LINE
  8
_0-1_ADD_LINE
  6
CONTINUOUS
 62
    7
 10
392.52473756002394
 20
342.78635792091274
 11
373.47546005902382
 21
342.78635792091274
  0
LINE
  8
_0-1_ADD_LINE
  6
CONTINUOUS
 62
    7
 10
373.47546005902382
 20
342.78635792091274
 11
373.47546005902382
 21
361.83533435091272
  0
LINE
  8
_0-1_ADD_LINE
  6
CONTINUOUS
 62
    7
 10
392.52473756002394
 20
361.83533435091272
 11
392.52473756002394
 21
342.78635792091274
  0
LINE
  8
_0-1_ADD_LINE
  6
CONTINUOUS
 62
    7
 10
373.47546005902382
 20
361.83533435091272
 11
392.52473756002394
 21
361.83533435091272
  0
LINE
  8
_0-1_ADD_LINE
  6
CONTINUOUS
 62
    7
 10
373.47493756002393
 20
342.78635792091274
 11
354.42566005902381
 21
342.78635792091274
  0
LINE
  8
_0-1_ADD_LINE
  6
CONTINUOUS
 62
    7
 10
354.42566005902381
 20
342.78635792091274
 11
354.42566005902381
 21
361.83533435091272
  0
LINE
  8
_0-1_ADD_LINE
  6
CONTINUOUS
 62
    7
 10
373.47493756002393
 20
361.83533435091272
 11
373.47493756002393
 21
342.78635792091274
  0
LINE
  8
_0-1_ADD_LINE
  6
CONTINUOUS
 62
    7
 10
354.42566005902381
 20
361.83533435091272
 11
373.47493756002393
 21
361.83533435091272
  0
LINE
  8
_0-1_ADD_LINE
  6
CONTINUOUS
 62
    7
 10
354.42493756002386
 20
342.78635792091274
 11
335.37566005902386
 21
342.78635792091274
  0
LINE
  8
_0-1_ADD_LINE
  6
CONTINUOUS
 62
    7
 10
335.37566005902386
 20
342.78635792091274
 11
335.37566005902386
 21
361.83533435091272
  0
LINE
  8
_0-1_ADD_LINE
  6
CONTINUOUS
 62
    7
 10
354.42493756002386
 20
361.83533435091272
 11
354.42493756002386
 21
342.78635792091274
  0
LINE
  8
_0-1_ADD_LINE
  6
CONTINUOUS
 62
    7
 10
335.37566005902386
 20
361.83533435091272
 11
354.42493756002386
 21
361.83533435091272
  0
LINE
  8
_0-1_ADD_LINE
  6
CONTINUOUS
 62
    7
 10
335.37493756002391
 20
342.78635792091274
 11
316.32566005902379
 21
342.78635792091274
  0
LINE
  8
_0-1_ADD_LINE
  6
CONTINUOUS
 62
    7
 10
316.32566005902379
 20
342.78635792091274
 11
316.32566005902379
 21
361.83533435091272
  0
LINE
  8
_0-1_ADD_LINE
  6
CONTINUOUS
 62
    7
 10
335.37493756002391
 20
361.83533435091272
 11
335.37493756002391
 21
342.78635792091274
  0
LINE
  8
_0-1_ADD_LINE
  6
CONTINUOUS
 62
    7
 10
316.32566005902379
 20
361.83533435091272
 11
335.37493756002391
 21
361.83533435091272
  0
LINE
  8
_0-1_ADD_LINE
  6
CONTINUOUS
 62
    7
 10
316.32493756002395
 20
342.78635792091274
 11
297.27566005902383
 21
342.78635792091274
  0
LINE
  8
_0-1_ADD_LINE
  6
CONTINUOUS
 62
    7
 10
297.27566005902383
 20
342.78635792091274
 11
297.27566005902383
 21
361.83533435091272
  0
LINE
  8
_0-1_ADD_LINE
  6
CONTINUOUS
 62
    7
 10
316.32493756002395
 20
361.83533435091272
 11
316.32493756002395
 21
342.78635792091274
  0
LINE
  8
_0-1_ADD_LINE
  6
CONTINUOUS
 62
    7
 10
297.27566005902383
 20
361.83533435091272
 11
316.32493756002395
 21
361.83533435091272
  0
LINE
  8
_0-1_ADD_LINE
  6
CONTINUOUS
 62
    7
 10
421.09973756002398
 20
323.73635792091272
 11
402.05046005902386
 21
323.73635792091272
  0
LINE
  8
_0-1_ADD_LINE
  6
CONTINUOUS
 62
    7
 10
402.05046005902386
 20
323.73635792091272
 11
402.05046005902386
 21
342.78533435091271
  0
LINE
  8
_0-1_ADD_LINE
  6
CONTINUOUS
 62
    7
 10
421.09973756002398
 20
342.78533435091271
 11
421.09973756002398
 21
323.73635792091272
  0
LINE
  8
_0-1_ADD_LINE
  6
CONTINUOUS
 62
    7
 10
402.05046005902386
 20
342.78533435091271
 11
421.09973756002398
 21
342.78533435091271
  0
LINE
  8
_0-1_ADD_LINE
  6
CONTINUOUS
 62
    7
 10
402.04973756002403
 20
323.73635792091272
 11
383.00046005902391
 21
323.73635792091272
  0
LINE
  8
_0-1_ADD_LINE
  6
CONTINUOUS
 62
    7
 10
383.00046005902391
 20
323.73635792091272
 11
383.00046005902391
 21
342.78533435091271
  0
LINE
  8
_0-1_ADD_LINE
  6
CONTINUOUS
 62
    7
 10
402.04973756002403
 20
342.78533435091271
 11
402.04973756002403
 21
323.73635792091272
  0
LINE
  8
_0-1_ADD_LINE
  6
CONTINUOUS
 62
    7
 10
383.00046005902391
 20
342.78533435091271
 11
402.04973756002403
 21
342.78533435091271
  0
LINE
  8
_0-1_ADD_LINE
  6
CONTINUOUS
 62
    7
 10
382.99973756002396
 20
323.73635792091272
 11
363.95046005902384
 21
323.73635792091272
  0
LINE
  8
_0-1_ADD_LINE
  6
CONTINUOUS
 62
    7
 10
363.95046005902384
 20
323.73635792091272
 11
363.95046005902384
 21
342.78533435091271
  0
LINE
  8
_0-1_ADD_LINE
  6
CONTINUOUS
 62
    7
 10
382.99973756002396
 20
342.78533435091271
 11
382.99973756002396
 21
323.73635792091272
  0
LINE
  8
_0-1_ADD_LINE
  6
CONTINUOUS
 62
    7
 10
363.95046005902384
 20
342.78533435091271
 11
382.99973756002396
 21
342.78533435091271
  0
LINE
  8
_0-1_ADD_LINE
  6
CONTINUOUS
 62
    7
 10
363.94993756002395
 20
323.73635792091272
 11
344.90066005902383
 21
323.73635792091272
  0
LINE
  8
_0-1_ADD_LINE
  6
CONTINUOUS
 62
    7
 10
344.90066005902383
 20
323.73635792091272
 11
344.90066005902383
 21
342.78533435091271
  0
LINE
  8
_0-1_ADD_LINE
  6
CONTINUOUS
 62
    7
 10
363.94993756002395
 20
342.78533435091271
 11
363.94993756002395
 21
323.73635792091272
  0
LINE
  8
_0-1_ADD_LINE
  6
CONTINUOUS
 62
    7
 10
344.90066005902383
 20
342.78533435091271
 11
363.94993756002395
 21
342.78533435091271
  0
LINE
  8
_0-1_ADD_LINE
  6
CONTINUOUS
 62
    7
 10
344.89993756002389
 20
323.73635792091272
 11
325.85066005902388
 21
323.73635792091272
  0
LINE
  8
_0-1_ADD_LINE
  6
CONTINUOUS
 62
    7
 10
344.89993756002389
 20
342.78533435091271
 11
344.89993756002389
 21
323.73635792091272
  0
LINE
  8
_0-1_ADD_LINE
  6
CONTINUOUS
 62
    7
 10
325.85066005902388
 20
342.78533435091271
 11
344.89993756002389
 21
342.78533435091271
  0
LINE
  8
_0-1_ADD_LINE
  6
CONTINUOUS
 62
    7
 10
425.86223756002391
 20
304.68635792091271
 11
406.81296005902391
 21
304.68635792091271
  0
LINE
  8
_0-1_ADD_LINE
  6
CONTINUOUS
 62
    7
 10
406.81296005902391
 20
304.68635792091271
 11
406.81296005902391
 21
323.73533435091269
  0
LINE
  8
_0-1_ADD_LINE
  6
CONTINUOUS
 62
    7
 10
425.86223756002391
 20
323.73533435091269
 11
425.86223756002391
 21
304.68635792091271
  0
LINE
  8
_0-1_ADD_LINE
  6
CONTINUOUS
 62
    7
 10
406.81296005902391
 20
323.73533435091269
 11
425.86223756002391
 21
323.73533435091269
  0
LINE
  8
_0-1_ADD_LINE
  6
CONTINUOUS
 62
    7
 10
406.81223756002396
 20
304.68635792091271
 11
387.76296005902395
 21
304.68635792091271
  0
LINE
  8
_0-1_ADD_LINE
  6
CONTINUOUS
 62
    7
 10
387.76296005902395
 20
304.68635792091271
 11
387.76296005902395
 21
323.73533435091269
  0
LINE
  8
_0-1_ADD_LINE
  6
CONTINUOUS
 62
    7
 10
406.81223756002396
 20
323.73533435091269
 11
406.81223756002396
 21
304.68635792091271
  0
LINE
  8
_0-1_ADD_LINE
  6
CONTINUOUS
 62
    7
 10
387.76296005902395
 20
323.73533435091269
 11
406.81223756002396
 21
323.73533435091269
  0
LINE
  8
_0-1_ADD_LINE
  6
CONTINUOUS
 62
    7
 10
387.76223756002389
 20
304.68635792091271
 11
368.71296005902389
 21
304.68635792091271
  0
LINE
  8
_0-1_ADD_LINE
  6
CONTINUOUS
 62
    7
 10
368.71296005902389
 20
304.68635792091271
 11
368.71296005902389
 21
323.73533435091269
  0
LINE
  8
_0-1_ADD_LINE
  6
CONTINUOUS
 62
    7
 10
387.76223756002389
 20
323.73533435091269
 11
387.76223756002389
 21
304.68635792091271
  0
LINE
  8
_0-1_ADD_LINE
  6
CONTINUOUS
 62
    7
 10
368.71296005902389
 20
323.73533435091269
 11
387.76223756002389
 21
323.73533435091269
  0
LINE
  8
_0-1_ADD_LINE
  6
CONTINUOUS
 62
    7
 10
368.71243756002389
 20
304.68635792091271
 11
349.66316005902388
 21
304.68635792091271
  0
LINE
  8
_0-1_ADD_LINE
  6
CONTINUOUS
 62
    7
 10
349.66316005902388
 20
304.68635792091271
 11
349.66316005902388
 21
323.73533435091269
  0
LINE
  8
_0-1_ADD_LINE
  6
CONTINUOUS
 62
    7
 10
368.71243756002389
 20
323.73533435091269
 11
368.71243756002389
 21
304.68635792091271
  0
LINE
  8
_0-1_ADD_LINE
  6
CONTINUOUS
 62
    7
 10
349.66316005902388
 20
323.73533435091269
 11
368.71243756002389
 21
323.73533435091269
  0
LINE
  8
_0-1_ADD_LINE
  6
CONTINUOUS
 62
    7
 10
349.66243756002393
 20
304.68635792091271
 11
330.61316005902381
 21
304.68635792091271
  0
LINE
  8
_0-1_ADD_LINE
  6
CONTINUOUS
 62
    7
 10
349.66243756002393
 20
323.73533435091269
 11
349.66243756002393
 21
304.68635792091271
  0
LINE
  8
_0-1_ADD_LINE
  6
CONTINUOUS
 62
    7
 10
330.61316005902381
 20
323.73533435091269
 11
349.66243756002393
 21
323.73533435091269
  0
LINE
  8
_0-1_ADD_LINE
  6
CONTINUOUS
 62
    7
 10
430.62473756002396
 20
285.63635792091276
 11
411.57546005902384
 21
285.63635792091276
  0
LINE
  8
_0-1_ADD_LINE
  6
CONTINUOUS
 62
    7
 10
411.57546005902384
 20
285.63635792091276
 11
411.57546005902384
 21
304.68533435091274
  0
LINE
  8
_0-1_ADD_LINE
  6
CONTINUOUS
 62
    7
 10
430.62473756002396
 20
304.68533435091274
 11
430.62473756002396
 21
285.63635792091276
  0
LINE
  8
_0-1_ADD_LINE
  6
CONTINUOUS
 62
    7
 10
411.57546005902384
 20
304.68533435091274
 11
430.62473756002396
 21
304.68533435091274
  0
LINE
  8
_0-1_ADD_LINE
  6
CONTINUOUS
 62
    7
 10
411.574737560024
 20
285.63635792091276
 11
392.52546005902389
 21
285.63635792091276
  0
LINE
  8
_0-1_ADD_LINE
  6
CONTINUOUS
 62
    7
 10
392.52546005902389
 20
285.63635792091276
 11
392.52546005902389
 21
304.68533435091274
  0
LINE
  8
_0-1_ADD_LINE
  6
CONTINUOUS
 62
    7
 10
411.574737560024
 20
304.68533435091274
 11
411.574737560024
 21
285.63635792091276
  0
LINE
  8
_0-1_ADD_LINE
  6
CONTINUOUS
 62
    7
 10
392.52546005902389
 20
304.68533435091274
 11
411.574737560024
 21
304.68533435091274
  0
LINE
  8
_0-1_ADD_LINE
  6
CONTINUOUS
 62
    7
 10
392.52473756002394
 20
285.63635792091276
 11
373.47546005902382
 21
285.63635792091276
  0
LINE
  8
_0-1_ADD_LINE
  6
CONTINUOUS
 62
    7
 10
373.47546005902382
 20
285.63635792091276
 11
373.47546005902382
 21
304.68533435091274
  0
LINE
  8
_0-1_ADD_LINE
  6
CONTINUOUS
 62
    7
 10
392.52473756002394
 20
304.68533435091274
 11
392.52473756002394
 21
285.63635792091276
  0
LINE
  8
_0-1_ADD_LINE
  6
CONTINUOUS
 62
    7
 10
373.47546005902382
 20
304.68533435091274
 11
392.52473756002394
 21
304.68533435091274
  0
LINE
  8
_0-1_ADD_LINE
  6
CONTINUOUS
 62
    7
 10
373.47493756002393
 20
285.63635792091276
 11
354.42566005902381
 21
285.63635792091276
  0
LINE
  8
_0-1_ADD_LINE
  6
CONTINUOUS
 62
    7
 10
354.42566005902381
 20
285.63635792091276
 11
354.42566005902381
 21
304.68533435091274
  0
LINE
  8
_0-1_ADD_LINE
  6
CONTINUOUS
 62
    7
 10
373.47493756002393
 20
304.68533435091274
 11
373.47493756002393
 21
285.63635792091276
  0
LINE
  8
_0-1_ADD_LINE
  6
CONTINUOUS
 62
    7
 10
354.42566005902381
 20
304.68533435091274
 11
373.47493756002393
 21
304.68533435091274
  0
LINE
  8
_0-1_ADD_LINE
  6
CONTINUOUS
 62
    7
 10
354.42493756002386
 20
285.63635792091276
 11
335.37566005902386
 21
285.63635792091276
  0
LINE
  8
_0-1_ADD_LINE
  6
CONTINUOUS
 62
    7
 10
335.37566005902386
 20
285.63635792091276
 11
335.37566005902386
 21
304.68533435091274
  0
LINE
  8
_0-1_ADD_LINE
  6
CONTINUOUS
 62
    7
 10
354.42493756002386
 20
304.68533435091274
 11
354.42493756002386
 21
285.63635792091276
  0
LINE
  8
_0-1_ADD_LINE
  6
CONTINUOUS
 62
    7
 10
335.37566005902386
 20
304.68533435091274
 11
354.42493756002386
 21
304.68533435091274
  0
LINE
  8
_0-1_ADD_LINE
  6
CONTINUOUS
 62
    7
 10
292.51238756002397
 20
342.78635792091274
 11
273.46311005902385
 21
342.78635792091274
  0
LINE
  8
_0-1_ADD_LINE
  6
CONTINUOUS
 62
    7
 10
273.46311005902385
 20
342.78635792091274
 11
273.46311005902385
 21
361.83533435091272
  0
LINE
  8
_0-1_ADD_LINE
  6
CONTINUOUS
 62
    7
 10
292.51238756002397
 20
361.83533435091272
 11
292.51238756002397
 21
342.78635792091274
  0
LINE
  8
_0-1_ADD_LINE
  6
CONTINUOUS
 62
    7
 10
273.46311005902385
 20
361.83533435091272
 11
292.51238756002397
 21
361.83533435091272
  0
LINE
  8
_0-1_ADD_LINE
  6
CONTINUOUS
 62
    7
 10
292.51238756002397
 20
323.73635792091272
 11
273.46311005902385
 21
323.73635792091272
  0
LINE
  8
_0-1_ADD_LINE
  6
CONTINUOUS
 62
    7
 10
273.46311005902385
 20
323.73635792091272
 11
273.46311005902385
 21
342.78533435091271
  0
LINE
  8
_0-1_ADD_LINE
  6
CONTINUOUS
 62
    7
 10
292.51238756002397
 20
342.78533435091271
 11
292.51238756002397
 21
323.73635792091272
  0
LINE
  8
_0-1_ADD_LINE
  6
CONTINUOUS
 62
    7
 10
273.46311005902385
 20
342.78533435091271
 11
292.51238756002397
 21
342.78533435091271
  0
LINE
  8
_0-1_ADD_LINE
  6
CONTINUOUS
 62
    7
 10
292.51238756002397
 20
304.68635792091271
 11
273.46311005902385
 21
304.68635792091271
  0
LINE
  8
_0-1_ADD_LINE
  6
CONTINUOUS
 62
    7
 10
273.46311005902385
 20
304.68635792091271
 11
273.46311005902385
 21
323.73533435091269
  0
LINE
  8
_0-1_ADD_LINE
  6
CONTINUOUS
 62
    7
 10
292.51238756002397
 20
323.73533435091269
 11
292.51238756002397
 21
304.68635792091271
  0
LINE
  8
_0-1_ADD_LINE
  6
CONTINUOUS
 62
    7
 10
273.46311005902385
 20
323.73533435091269
 11
292.51238756002397
 21
323.73533435091269
  0
LINE
  8
_0-1_ADD_LINE
  6
CONTINUOUS
 62
    7
 10
292.51238756002397
 20
285.63635792091276
 11
273.46311005902385
 21
285.63635792091276
  0
LINE
  8
_0-1_ADD_LINE
  6
CONTINUOUS
 62
    7
 10
273.46311005902385
 20
285.63635792091276
 11
273.46311005902385
 21
304.68533435091274
  0
LINE
  8
_0-1_ADD_LINE
  6
CONTINUOUS
 62
    7
 10
292.51238756002397
 20
304.68533435091274
 11
292.51238756002397
 21
285.63635792091276
  0
LINE
  8
_0-1_ADD_LINE
  6
CONTINUOUS
 62
    7
 10
273.46311005902385
 20
304.68533435091274
 11
292.51238756002397
 21
304.68533435091274
  0
LINE
  8
_0-1_ADD_LINE
  6
CONTINUOUS
 62
    7
 10
292.51238756002397
 20
266.58645792091272
 11
273.46311005902385
 21
266.58645792091272
  0
LINE
  8
_0-1_ADD_LINE
  6
CONTINUOUS
 62
    7
 10
273.46311005902385
 20
266.58645792091272
 11
273.46311005902385
 21
285.6354343509127
  0
LINE
  8
_0-1_ADD_LINE
  6
CONTINUOUS
 62
    7
 10
292.51238756002397
 20
285.6354343509127
 11
292.51238756002397
 21
266.58645792091272
  0
LINE
  8
_0-1_ADD_LINE
  6
CONTINUOUS
 62
    7
 10
273.46311005902385
 20
285.6354343509127
 11
292.51238756002397
 21
285.6354343509127
  0
LINE
  8
_0-1_ADD_LINE
  6
CONTINUOUS
 62
    7
 10
299.65546005902388
 20
285.6354343509127
 11
318.704737560024
 21
285.6354343509127
  0
LINE
  8
_0-1_ADD_LINE
  6
CONTINUOUS
 62
    7
 10
323.46946005902385
 20
285.6354343509127
 11
342.51873756002385
 21
285.6354343509127
  0
LINE
  8
_0-1_ADD_LINE
  6
CONTINUOUS
 62
    7
 10
347.28056005902386
 20
285.6354343509127
 11
366.32983756002386
 21
285.6354343509127
  0
LINE
  8
_0-1_ADD_LINE
  6
CONTINUOUS
 62
    7
 10
387.76243756002395
 20
266.58645792091272
 11
368.71316005902383
 21
266.58645792091272
  0
LINE
  8
_0-1_ADD_LINE
  6
CONTINUOUS
 62
    7
 10
387.76243756002395
 20
285.6354343509127
 11
387.76243756002395
 21
266.58645792091272
  0
LINE
  8
_0-1_ADD_LINE
  6
CONTINUOUS
 62
    7
 10
368.71316005902383
 20
285.6354343509127
 11
387.76243756002395
 21
285.6354343509127
  0
LINE
  8
_0-1_ADD_LINE
  6
CONTINUOUS
 62
    7
 10
406.81273756002395
 20
266.58645792091272
 11
387.76346005902383
 21
266.58645792091272
  0
LINE
  8
_0-1_ADD_LINE
  6
CONTINUOUS
 62
    7
 10
387.76346005902383
 20
266.58645792091272
 11
387.76346005902383
 21
285.6354343509127
  0
LINE
  8
_0-1_ADD_LINE
  6
CONTINUOUS
 62
    7
 10
406.81273756002395
 20
285.6354343509127
 11
406.81273756002395
 21
266.58645792091272
  0
LINE
  8
_0-1_ADD_LINE
  6
CONTINUOUS
 62
    7
 10
387.76346005902383
 20
285.6354343509127
 11
406.81273756002395
 21
285.6354343509127
  0
LINE
  8
_0-1_ADD_LINE
  6
CONTINUOUS
 62
    7
 10
428.24373756002399
 20
266.58645792091272
 11
409.19446005902387
 21
266.58645792091272
  0
LINE
  8
_0-1_ADD_LINE
  6
CONTINUOUS
 62
    7
 10
409.19446005902387
 20
285.6354343509127
 11
428.24373756002399
 21
285.6354343509127
  0
LINE
  8
_0-1_ADD_LINE
  6
CONTINUOUS
 62
    7
 10
430.62473756002396
 20
361.83533435091272
 11
430.62473756002396
 21
342.78635792091274
  0
LINE
  8
_0-1_ADD_LINE
  6
CONTINUOUS
 62
    7
 10
430.62473756002396
 20
342.78635792091274
 11
411.57546005902384
 21
342.78635792091274
  0
LINE
  8
_0-1_ADD_LINE
  6
CONTINUOUS
 62
    7
 10
411.57546005902384
 20
361.83533435091272
 11
430.62473756002396
 21
361.83533435091272
  0
LINE
  8
_0-1_ADD_LINE
  6
CONTINUOUS
 62
    7
 10
411.57546005902384
 20
342.78635792091274
 11
411.57546005902384
 21
361.83533435091272
  0
LINE
  8
_0-1_ADD_LINE
  6
CONTINUOUS
 62
    7
 10
304.4193600590238
 20
323.73533435091269
 11
323.46863756002392
 21
323.73533435091269
  0
LINE
  8
_0-1_ADD_LINE
  6
CONTINUOUS
 62
    7
 10
302.03816005902388
 20
342.78533435091271
 11
321.087437560024
 21
342.78533435091271
  0
LINE
  8
_0-1_ADD_LINE
  6
CONTINUOUS
 62
    7
 10
411.574737560024
 20
361.83533435091272
 11
392.52546005902389
 21
361.83533435091272
  0
LINE
  8
_0-1_ADD_LINE
  6
CONTINUOUS
 62
    7
 10
392.52546005902389
 20
361.83533435091272
 11
392.52546005902389
 21
342.78635792091274
  0
LINE
  8
_0-1_ADD_LINE
  6
CONTINUOUS
 62
    7
 10
411.574737560024
 20
342.78635792091274
 11
411.574737560024
 21
361.83533435091272
  0
LINE
  8
_0-1_ADD_LINE
  6
CONTINUOUS
 62
    7
 10
392.52546005902389
 20
342.78635792091274
 11
411.574737560024
 21
342.78635792091274
  0
LINE
  8
_0-1_ADD_LINE
  6
CONTINUOUS
 62
    7
 10
323.46863756002392
 20
304.68635792091271
 11
297.27566005902383
 21
304.68635792091271
  0
LINE
  8
_0-1_ADD_LINE
  6
CONTINUOUS
 62
    7
 10
325.85066005902388
 20
323.73635792091272
 11
297.27566005902383
 21
323.73635792091272
  0
LINE
  8
_0-1_ADD_LINE
  6
CONTINUOUS
 62
    7
 10
325.85066005902388
 20
323.73635792091272
 11
325.85066005902388
 21
342.78533435091271
  0
LINE
  8
_0-1_ADD_LINE
  6
CONTINUOUS
 62
    7
 10
306.80066005902381
 20
304.68533435091274
 11
330.61316005902381
 21
304.68533435091274
  0
LINE
  8
_0-1_ADD_LINE
  6
CONTINUOUS
 62
    7
 10
330.61316005902381
 20
304.68533435091274
 11
330.61316005902381
 21
323.73533435091269
  0
LINE
  8
_0-1_ADD_LINE
  6
CONTINUOUS
 62
    7
 10
325.84993756002393
 20
285.63635792091276
 11
297.27566005902383
 21
285.63635792091276
  0
LINE
  8
_0-1_ADD_LINE
  6
CONTINUOUS
 62
    7
 10
297.27566005902383
 20
342.78635792091274
 11
297.27566005902383
 21
266.58645792091272
  0
LINE
  8
_0-1_ADD_LINE
  6
CONTINUOUS
 62
    7
 10
321.08709880952392
 20
266.58645792091272
 11
297.27566005902383
 21
266.58645792091272
  0
LINE
  8
_0-1_ADD_LINE
  6
CONTINUOUS
 62
    7
 10
344.89964880952385
 20
266.58645792091272
 11
321.08709880952392
 21
266.58645792091272
  0
LINE
  8
_0-1_ADD_LINE
  6
CONTINUOUS
 62
    7
 10
368.71316005902383
 20
266.58645792091272
 11
344.89964880952385
 21
266.58645792091272
  0
LINE
  8
_0-1_ADD_LINE
  6
CONTINUOUS
 62
    7
 10
344.89964880952385
 20
285.63635792091276
 11
344.89964880952385
 21
266.58645792091272
  0
LINE
  8
_0-1_ADD_LINE
  6
CONTINUOUS
 62
    7
 10
321.08709880952392
 20
285.63635792091276
 11
321.08709880952392
 21
266.58645792091272
  0
LINE
  8
_0-1_ADD_LINE
  6
CONTINUOUS
 62
    7
 10
430.62615584046142
 20
266.58634247466273
 11
430.62615584046142
 21
285.63531890466271
  0
LINE
  8
_0-1_ADD_LINE
  6
CONTINUOUS
 62
    7
 10
409.19355584046144
 20
285.63531890466271
 11
428.24283334146145
 21
285.63531890466271
  0
LINE
  8
_0-1_ADD_LINE
  6
CONTINUOUS
 62
    7
 10
430.62615584046142
 20
266.58634247466273
 11
406.81264459096144
 21
266.58634247466273
  0
LINE
  8
_0-1_ADD_LINE
  6
CONTINUOUS
 62
    7
 10
406.81264459096144
 20
285.63624247466277
 11
406.81264459096144
 21
266.58634247466273
  0
ENDSEC
  0
EOF
