  0
SECTION
  2
HEADER
  9
$ACADVER
  1
AC1009
  9
$EXTMIN
 10
0.0
 20
0.0
 30
0.0
  9
$EXTMAX
 10
1000.0
 20
1000.0
 30
0.0
  9
$FILLMODE
 70
 0
  9
$SPLFRAME
 70
 1
  0
ENDSEC
  0
SECTION
  2
TABLES
  0
TABLE
  2
LAYER
 70
1
  0
LAYER
  2
0
 70
     0
 62
     7
  6
CONTINUOUS
  0
ENDTAB
  0
ENDSEC
  0
SECTION
  2
ENTITIES
  0
LINE
  8
0
 62
     0
 10
0.0950846
 20
129.021
 30
0.0
 11
157.258
 21
129.021
 31
0.0
  0
LINE
  8
0
 62
     0
 10
157.258
 20
129.021
 30
0.0
 11
157.258
 21
0.434082
 31
0.0
  0
LINE
  8
0
 62
     0
 10
157.258
 20
0.434082
 30
0.0
 11
0.0950846
 21
0.434082
 31
0.0
  0
LINE
  8
0
 62
     0
 10
0.0950846
 20
0.434082
 30
0.0
 11
0.0950846
 21
129.021
 31
0.0
  0
LINE
  8
0
 62
     0
 10
138.351
 20
16.9595
 30
0.0
 11
138.351
 21
15.9604
 31
0.0
  0
LINE
  8
0
 62
     0
 10
138.351
 20
15.9604
 30
0.0
 11
137.55
 21
15.9604
 31
0.0
  0
LINE
  8
0
 62
     0
 10
137.55
 20
15.9604
 30
0.0
 11
137.55
 21
12.8598
 31
0.0
  0
LINE
  8
0
 62
     0
 10
137.55
 20
12.8598
 30
0.0
 11
138.351
 21
12.8598
 31
0.0
  0
LINE
  8
0
 62
     0
 10
138.351
 20
12.8598
 30
0.0
 11
138.351
 21
7.05968
 31
0.0
  0
LINE
  8
0
 62
     0
 10
138.351
 20
7.05968
 30
0.0
 11
137.55
 21
7.05968
 31
0.0
  0
LINE
  8
0
 62
     0
 10
137.55
 20
7.05968
 30
0.0
 11
137.55
 21
3.96049
 31
0.0
  0
LINE
  8
0
 62
     0
 10
137.55
 20
3.96049
 30
0.0
 11
138.351
 21
3.96049
 31
0.0
  0
LINE
  8
0
 62
     0
 10
138.351
 20
3.96049
 30
0.0
 11
138.351
 21
2.96003
 31
0.0
  0
LINE
  8
0
 62
     0
 10
138.351
 20
2.96003
 30
0.0
 11
152.35
 21
2.96003
 31
0.0
  0
LINE
  8
0
 62
     0
 10
152.35
 20
2.96003
 30
0.0
 11
152.35
 21
3.96049
 31
0.0
  0
LINE
  8
0
 62
     0
 10
152.35
 20
3.96049
 30
0.0
 11
153.151
 21
3.96049
 31
0.0
  0
LINE
  8
0
 62
     0
 10
153.151
 20
3.96049
 30
0.0
 11
153.151
 21
7.05968
 31
0.0
  0
LINE
  8
0
 62
     0
 10
153.151
 20
7.05968
 30
0.0
 11
152.35
 21
7.05968
 31
0.0
  0
LINE
  8
0
 62
     0
 10
152.35
 20
7.05968
 30
0.0
 11
152.35
 21
12.8598
 31
0.0
  0
LINE
  8
0
 62
     0
 10
152.35
 20
12.8598
 30
0.0
 11
153.151
 21
12.8598
 31
0.0
  0
LINE
  8
0
 62
     0
 10
153.151
 20
12.8598
 30
0.0
 11
153.151
 21
15.9604
 31
0.0
  0
LINE
  8
0
 62
     0
 10
153.151
 20
15.9604
 30
0.0
 11
152.35
 21
15.9604
 31
0.0
  0
LINE
  8
0
 62
     0
 10
152.35
 20
15.9604
 30
0.0
 11
152.35
 21
16.9595
 31
0.0
  0
LINE
  8
0
 62
     0
 10
152.35
 20
16.9595
 30
0.0
 11
138.351
 21
16.9595
 31
0.0
  0
LINE
  8
0
 62
     0
 10
116.92
 20
16.9595
 30
0.0
 11
116.92
 21
15.9604
 31
0.0
  0
LINE
  8
0
 62
     0
 10
116.92
 20
15.9604
 30
0.0
 11
116.119
 21
15.9604
 31
0.0
  0
LINE
  8
0
 62
     0
 10
116.119
 20
15.9604
 30
0.0
 11
116.119
 21
12.8598
 31
0.0
  0
LINE
  8
0
 62
     0
 10
116.119
 20
12.8598
 30
0.0
 11
116.92
 21
12.8598
 31
0.0
  0
LINE
  8
0
 62
     0
 10
116.92
 20
12.8598
 30
0.0
 11
116.92
 21
7.05968
 31
0.0
  0
LINE
  8
0
 62
     0
 10
116.92
 20
7.05968
 30
0.0
 11
116.119
 21
7.05968
 31
0.0
  0
LINE
  8
0
 62
     0
 10
116.119
 20
7.05968
 30
0.0
 11
116.119
 21
3.96049
 31
0.0
  0
LINE
  8
0
 62
     0
 10
116.119
 20
3.96049
 30
0.0
 11
116.92
 21
3.96049
 31
0.0
  0
LINE
  8
0
 62
     0
 10
116.92
 20
3.96049
 30
0.0
 11
116.92
 21
2.96003
 31
0.0
  0
LINE
  8
0
 62
     0
 10
116.92
 20
2.96003
 30
0.0
 11
130.919
 21
2.96003
 31
0.0
  0
LINE
  8
0
 62
     0
 10
130.919
 20
2.96003
 30
0.0
 11
130.919
 21
3.96049
 31
0.0
  0
LINE
  8
0
 62
     0
 10
130.919
 20
3.96049
 30
0.0
 11
131.72
 21
3.96049
 31
0.0
  0
LINE
  8
0
 62
     0
 10
131.72
 20
3.96049
 30
0.0
 11
131.72
 21
7.05968
 31
0.0
  0
LINE
  8
0
 62
     0
 10
131.72
 20
7.05968
 30
0.0
 11
130.919
 21
7.05968
 31
0.0
  0
LINE
  8
0
 62
     0
 10
130.919
 20
7.05968
 30
0.0
 11
130.919
 21
12.8598
 31
0.0
  0
LINE
  8
0
 62
     0
 10
130.919
 20
12.8598
 30
0.0
 11
131.72
 21
12.8598
 31
0.0
  0
LINE
  8
0
 62
     0
 10
131.72
 20
12.8598
 30
0.0
 11
131.72
 21
15.9604
 31
0.0
  0
LINE
  8
0
 62
     0
 10
131.72
 20
15.9604
 30
0.0
 11
130.919
 21
15.9604
 31
0.0
  0
LINE
  8
0
 62
     0
 10
130.919
 20
15.9604
 30
0.0
 11
130.919
 21
16.9595
 31
0.0
  0
LINE
  8
0
 62
     0
 10
130.919
 20
16.9595
 30
0.0
 11
116.92
 21
16.9595
 31
0.0
  0
LINE
  8
0
 62
     0
 10
97.8697
 20
16.9595
 30
0.0
 11
97.8697
 21
15.9604
 31
0.0
  0
LINE
  8
0
 62
     0
 10
97.8697
 20
15.9604
 30
0.0
 11
97.0689
 21
15.9604
 31
0.0
  0
LINE
  8
0
 62
     0
 10
97.0689
 20
15.9604
 30
0.0
 11
97.0689
 21
12.8598
 31
0.0
  0
LINE
  8
0
 62
     0
 10
97.0689
 20
12.8598
 30
0.0
 11
97.8697
 21
12.8598
 31
0.0
  0
LINE
  8
0
 62
     0
 10
97.8697
 20
12.8598
 30
0.0
 11
97.8697
 21
7.05968
 31
0.0
  0
LINE
  8
0
 62
     0
 10
97.8697
 20
7.05968
 30
0.0
 11
97.0689
 21
7.05968
 31
0.0
  0
LINE
  8
0
 62
     0
 10
97.0689
 20
7.05968
 30
0.0
 11
97.0689
 21
3.96049
 31
0.0
  0
LINE
  8
0
 62
     0
 10
97.0689
 20
3.96049
 30
0.0
 11
97.8697
 21
3.96049
 31
0.0
  0
LINE
  8
0
 62
     0
 10
97.8697
 20
3.96049
 30
0.0
 11
97.8697
 21
2.96003
 31
0.0
  0
LINE
  8
0
 62
     0
 10
97.8697
 20
2.96003
 30
0.0
 11
111.869
 21
2.96003
 31
0.0
  0
LINE
  8
0
 62
     0
 10
111.869
 20
2.96003
 30
0.0
 11
111.869
 21
3.96049
 31
0.0
  0
LINE
  8
0
 62
     0
 10
111.869
 20
3.96049
 30
0.0
 11
112.67
 21
3.96049
 31
0.0
  0
LINE
  8
0
 62
     0
 10
112.67
 20
3.96049
 30
0.0
 11
112.67
 21
7.05968
 31
0.0
  0
LINE
  8
0
 62
     0
 10
112.67
 20
7.05968
 30
0.0
 11
111.869
 21
7.05968
 31
0.0
  0
LINE
  8
0
 62
     0
 10
111.869
 20
7.05968
 30
0.0
 11
111.869
 21
12.8598
 31
0.0
  0
LINE
  8
0
 62
     0
 10
111.869
 20
12.8598
 30
0.0
 11
112.67
 21
12.8598
 31
0.0
  0
LINE
  8
0
 62
     0
 10
112.67
 20
12.8598
 30
0.0
 11
112.67
 21
15.9604
 31
0.0
  0
LINE
  8
0
 62
     0
 10
112.67
 20
15.9604
 30
0.0
 11
111.869
 21
15.9604
 31
0.0
  0
LINE
  8
0
 62
     0
 10
111.869
 20
15.9604
 30
0.0
 11
111.869
 21
16.9595
 31
0.0
  0
LINE
  8
0
 62
     0
 10
111.869
 20
16.9595
 30
0.0
 11
97.8697
 21
16.9595
 31
0.0
  0
LINE
  8
0
 62
     0
 10
76.4371
 20
16.9595
 30
0.0
 11
76.4371
 21
15.9604
 31
0.0
  0
LINE
  8
0
 62
     0
 10
76.4371
 20
15.9604
 30
0.0
 11
75.6377
 21
15.9604
 31
0.0
  0
LINE
  8
0
 62
     0
 10
75.6377
 20
15.9604
 30
0.0
 11
75.6377
 21
12.8598
 31
0.0
  0
LINE
  8
0
 62
     0
 10
75.6377
 20
12.8598
 30
0.0
 11
76.4371
 21
12.8598
 31
0.0
  0
LINE
  8
0
 62
     0
 10
76.4371
 20
12.8598
 30
0.0
 11
76.4371
 21
7.05968
 31
0.0
  0
LINE
  8
0
 62
     0
 10
76.4371
 20
7.05968
 30
0.0
 11
75.6377
 21
7.05968
 31
0.0
  0
LINE
  8
0
 62
     0
 10
75.6377
 20
7.05968
 30
0.0
 11
75.6377
 21
3.96049
 31
0.0
  0
LINE
  8
0
 62
     0
 10
75.6377
 20
3.96049
 30
0.0
 11
76.4371
 21
3.96049
 31
0.0
  0
LINE
  8
0
 62
     0
 10
76.4371
 20
3.96049
 30
0.0
 11
76.4371
 21
2.96003
 31
0.0
  0
LINE
  8
0
 62
     0
 10
76.4371
 20
2.96003
 30
0.0
 11
90.4378
 21
2.96003
 31
0.0
  0
LINE
  8
0
 62
     0
 10
90.4378
 20
2.96003
 30
0.0
 11
90.4378
 21
3.96049
 31
0.0
  0
LINE
  8
0
 62
     0
 10
90.4378
 20
3.96049
 30
0.0
 11
91.2372
 21
3.96049
 31
0.0
  0
LINE
  8
0
 62
     0
 10
91.2372
 20
3.96049
 30
0.0
 11
91.2372
 21
7.05968
 31
0.0
  0
LINE
  8
0
 62
     0
 10
91.2372
 20
7.05968
 30
0.0
 11
90.4378
 21
7.05968
 31
0.0
  0
LINE
  8
0
 62
     0
 10
90.4378
 20
7.05968
 30
0.0
 11
90.4378
 21
12.8598
 31
0.0
  0
LINE
  8
0
 62
     0
 10
90.4378
 20
12.8598
 30
0.0
 11
91.2372
 21
12.8598
 31
0.0
  0
LINE
  8
0
 62
     0
 10
91.2372
 20
12.8598
 30
0.0
 11
91.2372
 21
15.9604
 31
0.0
  0
LINE
  8
0
 62
     0
 10
91.2372
 20
15.9604
 30
0.0
 11
90.4378
 21
15.9604
 31
0.0
  0
LINE
  8
0
 62
     0
 10
90.4378
 20
15.9604
 30
0.0
 11
90.4378
 21
16.9595
 31
0.0
  0
LINE
  8
0
 62
     0
 10
90.4378
 20
16.9595
 30
0.0
 11
76.4371
 21
16.9595
 31
0.0
  0
LINE
  8
0
 62
     0
 10
52.626
 20
16.9595
 30
0.0
 11
52.626
 21
15.9604
 31
0.0
  0
LINE
  8
0
 62
     0
 10
52.626
 20
15.9604
 30
0.0
 11
51.8252
 21
15.9604
 31
0.0
  0
LINE
  8
0
 62
     0
 10
51.8252
 20
15.9604
 30
0.0
 11
51.8252
 21
12.8598
 31
0.0
  0
LINE
  8
0
 62
     0
 10
51.8252
 20
12.8598
 30
0.0
 11
52.626
 21
12.8598
 31
0.0
  0
LINE
  8
0
 62
     0
 10
52.626
 20
12.8598
 30
0.0
 11
52.626
 21
7.05968
 31
0.0
  0
LINE
  8
0
 62
     0
 10
52.626
 20
7.05968
 30
0.0
 11
51.8252
 21
7.05968
 31
0.0
  0
LINE
  8
0
 62
     0
 10
51.8252
 20
7.05968
 30
0.0
 11
51.8252
 21
3.96049
 31
0.0
  0
LINE
  8
0
 62
     0
 10
51.8252
 20
3.96049
 30
0.0
 11
52.626
 21
3.96049
 31
0.0
  0
LINE
  8
0
 62
     0
 10
52.626
 20
3.96049
 30
0.0
 11
52.626
 21
2.96003
 31
0.0
  0
LINE
  8
0
 62
     0
 10
52.626
 20
2.96003
 30
0.0
 11
66.6253
 21
2.96003
 31
0.0
  0
LINE
  8
0
 62
     0
 10
66.6253
 20
2.96003
 30
0.0
 11
66.6253
 21
3.96049
 31
0.0
  0
LINE
  8
0
 62
     0
 10
66.6253
 20
3.96049
 30
0.0
 11
67.4261
 21
3.96049
 31
0.0
  0
LINE
  8
0
 62
     0
 10
67.4261
 20
3.96049
 30
0.0
 11
67.4261
 21
7.05968
 31
0.0
  0
LINE
  8
0
 62
     0
 10
67.4261
 20
7.05968
 30
0.0
 11
66.6253
 21
7.05968
 31
0.0
  0
LINE
  8
0
 62
     0
 10
66.6253
 20
7.05968
 30
0.0
 11
66.6253
 21
12.8598
 31
0.0
  0
LINE
  8
0
 62
     0
 10
66.6253
 20
12.8598
 30
0.0
 11
67.4261
 21
12.8598
 31
0.0
  0
LINE
  8
0
 62
     0
 10
67.4261
 20
12.8598
 30
0.0
 11
67.4261
 21
15.9604
 31
0.0
  0
LINE
  8
0
 62
     0
 10
67.4261
 20
15.9604
 30
0.0
 11
66.6253
 21
15.9604
 31
0.0
  0
LINE
  8
0
 62
     0
 10
66.6253
 20
15.9604
 30
0.0
 11
66.6253
 21
16.9595
 31
0.0
  0
LINE
  8
0
 62
     0
 10
66.6253
 20
16.9595
 30
0.0
 11
52.626
 21
16.9595
 31
0.0
  0
LINE
  8
0
 62
     0
 10
28.812
 20
16.9595
 30
0.0
 11
28.812
 21
15.9604
 31
0.0
  0
LINE
  8
0
 62
     0
 10
28.812
 20
15.9604
 30
0.0
 11
28.0128
 21
15.9604
 31
0.0
  0
LINE
  8
0
 62
     0
 10
28.0128
 20
15.9604
 30
0.0
 11
28.0128
 21
12.8598
 31
0.0
  0
LINE
  8
0
 62
     0
 10
28.0128
 20
12.8598
 30
0.0
 11
28.812
 21
12.8598
 31
0.0
  0
LINE
  8
0
 62
     0
 10
28.812
 20
12.8598
 30
0.0
 11
28.812
 21
7.05968
 31
0.0
  0
LINE
  8
0
 62
     0
 10
28.812
 20
7.05968
 30
0.0
 11
28.0128
 21
7.05968
 31
0.0
  0
LINE
  8
0
 62
     0
 10
28.0128
 20
7.05968
 30
0.0
 11
28.0128
 21
3.96049
 31
0.0
  0
LINE
  8
0
 62
     0
 10
28.0128
 20
3.96049
 30
0.0
 11
28.812
 21
3.96049
 31
0.0
  0
LINE
  8
0
 62
     0
 10
28.812
 20
3.96049
 30
0.0
 11
28.812
 21
2.96003
 31
0.0
  0
LINE
  8
0
 62
     0
 10
28.812
 20
2.96003
 30
0.0
 11
42.8128
 21
2.96003
 31
0.0
  0
LINE
  8
0
 62
     0
 10
42.8128
 20
2.96003
 30
0.0
 11
42.8128
 21
3.96049
 31
0.0
  0
LINE
  8
0
 62
     0
 10
42.8128
 20
3.96049
 30
0.0
 11
43.6122
 21
3.96049
 31
0.0
  0
LINE
  8
0
 62
     0
 10
43.6122
 20
3.96049
 30
0.0
 11
43.6122
 21
7.05968
 31
0.0
  0
LINE
  8
0
 62
     0
 10
43.6122
 20
7.05968
 30
0.0
 11
42.8128
 21
7.05968
 31
0.0
  0
LINE
  8
0
 62
     0
 10
42.8128
 20
7.05968
 30
0.0
 11
42.8128
 21
12.8598
 31
0.0
  0
LINE
  8
0
 62
     0
 10
42.8128
 20
12.8598
 30
0.0
 11
43.6122
 21
12.8598
 31
0.0
  0
LINE
  8
0
 62
     0
 10
43.6122
 20
12.8598
 30
0.0
 11
43.6122
 21
15.9604
 31
0.0
  0
LINE
  8
0
 62
     0
 10
43.6122
 20
15.9604
 30
0.0
 11
42.8128
 21
15.9604
 31
0.0
  0
LINE
  8
0
 62
     0
 10
42.8128
 20
15.9604
 30
0.0
 11
42.8128
 21
16.9595
 31
0.0
  0
LINE
  8
0
 62
     0
 10
42.8128
 20
16.9595
 30
0.0
 11
28.812
 21
16.9595
 31
0.0
  0
LINE
  8
0
 62
     0
 10
2.61965
 20
16.9595
 30
0.0
 11
2.61965
 21
15.9604
 31
0.0
  0
LINE
  8
0
 62
     0
 10
2.61965
 20
15.9604
 30
0.0
 11
1.81901
 21
15.9604
 31
0.0
  0
LINE
  8
0
 62
     0
 10
1.81901
 20
15.9604
 30
0.0
 11
1.81901
 21
12.8598
 31
0.0
  0
LINE
  8
0
 62
     0
 10
1.81901
 20
12.8598
 30
0.0
 11
2.61965
 21
12.8598
 31
0.0
  0
LINE
  8
0
 62
     0
 10
2.61965
 20
12.8598
 30
0.0
 11
2.61965
 21
7.05968
 31
0.0
  0
LINE
  8
0
 62
     0
 10
2.61965
 20
7.05968
 30
0.0
 11
1.81901
 21
7.05968
 31
0.0
  0
LINE
  8
0
 62
     0
 10
1.81901
 20
7.05968
 30
0.0
 11
1.81901
 21
3.96049
 31
0.0
  0
LINE
  8
0
 62
     0
 10
1.81901
 20
3.96049
 30
0.0
 11
2.61965
 21
3.96049
 31
0.0
  0
LINE
  8
0
 62
     0
 10
2.61965
 20
3.96049
 30
0.0
 11
2.61965
 21
2.96003
 31
0.0
  0
LINE
  8
0
 62
     0
 10
2.61965
 20
2.96003
 30
0.0
 11
16.6192
 21
2.96003
 31
0.0
  0
LINE
  8
0
 62
     0
 10
16.6192
 20
2.96003
 30
0.0
 11
16.6192
 21
3.96049
 31
0.0
  0
LINE
  8
0
 62
     0
 10
16.6192
 20
3.96049
 30
0.0
 11
17.4198
 21
3.96049
 31
0.0
  0
LINE
  8
0
 62
     0
 10
17.4198
 20
3.96049
 30
0.0
 11
17.4198
 21
7.05968
 31
0.0
  0
LINE
  8
0
 62
     0
 10
17.4198
 20
7.05968
 30
0.0
 11
16.6192
 21
7.05968
 31
0.0
  0
LINE
  8
0
 62
     0
 10
16.6192
 20
7.05968
 30
0.0
 11
16.6192
 21
12.8598
 31
0.0
  0
LINE
  8
0
 62
     0
 10
16.6192
 20
12.8598
 30
0.0
 11
17.4198
 21
12.8598
 31
0.0
  0
LINE
  8
0
 62
     0
 10
17.4198
 20
12.8598
 30
0.0
 11
17.4198
 21
15.9604
 31
0.0
  0
LINE
  8
0
 62
     0
 10
17.4198
 20
15.9604
 30
0.0
 11
16.6192
 21
15.9604
 31
0.0
  0
LINE
  8
0
 62
     0
 10
16.6192
 20
15.9604
 30
0.0
 11
16.6192
 21
16.9595
 31
0.0
  0
LINE
  8
0
 62
     0
 10
16.6192
 20
16.9595
 30
0.0
 11
2.61965
 21
16.9595
 31
0.0
  0
LINE
  8
0
 62
     0
 10
35.9572
 20
36.0094
 30
0.0
 11
35.9572
 21
35.0104
 31
0.0
  0
LINE
  8
0
 62
     0
 10
35.9572
 20
35.0104
 30
0.0
 11
35.1565
 21
35.0104
 31
0.0
  0
LINE
  8
0
 62
     0
 10
35.1565
 20
35.0104
 30
0.0
 11
35.1565
 21
31.9098
 31
0.0
  0
LINE
  8
0
 62
     0
 10
35.1565
 20
31.9098
 30
0.0
 11
35.9572
 21
31.9098
 31
0.0
  0
LINE
  8
0
 62
     0
 10
35.9572
 20
31.9098
 30
0.0
 11
35.9572
 21
31.3104
 31
0.0
  0
LINE
  8
0
 62
     0
 10
35.9572
 20
31.3104
 30
0.0
 11
34.4317
 21
31.3104
 31
0.0
  0
LINE
  8
0
 62
     0
 10
34.4317
 20
31.3104
 30
0.0
 11
34.4317
 21
34.5405
 31
0.0
  0
LINE
  8
0
 62
     0
 10
34.4317
 20
34.5405
 30
0.0
 11
32.7063
 21
34.5405
 31
0.0
  0
LINE
  8
0
 62
     0
 10
32.7063
 20
34.5405
 30
0.0
 11
32.7063
 21
35.4598
 31
0.0
  0
LINE
  8
0
 62
     0
 10
32.7063
 20
35.4598
 30
0.0
 11
29.406
 21
35.4598
 31
0.0
  0
LINE
  8
0
 62
     0
 10
29.406
 20
35.4598
 30
0.0
 11
29.406
 21
34.5405
 31
0.0
  0
LINE
  8
0
 62
     0
 10
29.406
 20
34.5405
 30
0.0
 11
27.6821
 21
34.5405
 31
0.0
  0
LINE
  8
0
 62
     0
 10
27.6821
 20
34.5405
 30
0.0
 11
27.6821
 21
31.3104
 31
0.0
  0
LINE
  8
0
 62
     0
 10
27.6821
 20
31.3104
 30
0.0
 11
26.8566
 21
31.3104
 31
0.0
  0
LINE
  8
0
 62
     0
 10
26.8566
 20
31.3104
 30
0.0
 11
26.8566
 21
28.5102
 31
0.0
  0
LINE
  8
0
 62
     0
 10
26.8566
 20
28.5102
 30
0.0
 11
27.6821
 21
28.5102
 31
0.0
  0
LINE
  8
0
 62
     0
 10
27.6821
 20
28.5102
 30
0.0
 11
27.6821
 21
22.2402
 31
0.0
  0
LINE
  8
0
 62
     0
 10
27.6821
 20
22.2402
 30
0.0
 11
29.406
 21
22.2402
 31
0.0
  0
LINE
  8
0
 62
     0
 10
29.406
 20
22.2402
 30
0.0
 11
29.406
 21
21.2604
 31
0.0
  0
LINE
  8
0
 62
     0
 10
29.406
 20
21.2604
 30
0.0
 11
32.7063
 21
21.2604
 31
0.0
  0
LINE
  8
0
 62
     0
 10
32.7063
 20
21.2604
 30
0.0
 11
32.7063
 21
22.2402
 31
0.0
  0
LINE
  8
0
 62
     0
 10
32.7063
 20
22.2402
 30
0.0
 11
34.4317
 21
22.2402
 31
0.0
  0
LINE
  8
0
 62
     0
 10
34.4317
 20
22.2402
 30
0.0
 11
34.4317
 21
26.7105
 31
0.0
  0
LINE
  8
0
 62
     0
 10
34.4317
 20
26.7105
 30
0.0
 11
35.9572
 21
26.7105
 31
0.0
  0
LINE
  8
0
 62
     0
 10
35.9572
 20
26.7105
 30
0.0
 11
35.9572
 21
26.1097
 31
0.0
  0
LINE
  8
0
 62
     0
 10
35.9572
 20
26.1097
 30
0.0
 11
35.1565
 21
26.1097
 31
0.0
  0
LINE
  8
0
 62
     0
 10
35.1565
 20
26.1097
 30
0.0
 11
35.1565
 21
23.0105
 31
0.0
  0
LINE
  8
0
 62
     0
 10
35.1565
 20
23.0105
 30
0.0
 11
35.9572
 21
23.0105
 31
0.0
  0
LINE
  8
0
 62
     0
 10
35.9572
 20
23.0105
 30
0.0
 11
35.9572
 21
22.01
 31
0.0
  0
LINE
  8
0
 62
     0
 10
35.9572
 20
22.01
 30
0.0
 11
49.9565
 21
22.01
 31
0.0
  0
LINE
  8
0
 62
     0
 10
49.9565
 20
22.01
 30
0.0
 11
49.9565
 21
23.0105
 31
0.0
  0
LINE
  8
0
 62
     0
 10
49.9565
 20
23.0105
 30
0.0
 11
50.7559
 21
23.0105
 31
0.0
  0
LINE
  8
0
 62
     0
 10
50.7559
 20
23.0105
 30
0.0
 11
50.7559
 21
26.1097
 31
0.0
  0
LINE
  8
0
 62
     0
 10
50.7559
 20
26.1097
 30
0.0
 11
49.9565
 21
26.1097
 31
0.0
  0
LINE
  8
0
 62
     0
 10
49.9565
 20
26.1097
 30
0.0
 11
49.9565
 21
26.7105
 31
0.0
  0
LINE
  8
0
 62
     0
 10
49.9565
 20
26.7105
 30
0.0
 11
51.4823
 21
26.7105
 31
0.0
  0
LINE
  8
0
 62
     0
 10
51.4823
 20
26.7105
 30
0.0
 11
51.4823
 21
22.2402
 31
0.0
  0
LINE
  8
0
 62
     0
 10
51.4823
 20
22.2402
 30
0.0
 11
53.2059
 21
22.2402
 31
0.0
  0
LINE
  8
0
 62
     0
 10
53.2059
 20
22.2402
 30
0.0
 11
53.2059
 21
21.2604
 31
0.0
  0
LINE
  8
0
 62
     0
 10
53.2059
 20
21.2604
 30
0.0
 11
56.5065
 21
21.2604
 31
0.0
  0
LINE
  8
0
 62
     0
 10
56.5065
 20
21.2604
 30
0.0
 11
56.5065
 21
22.2402
 31
0.0
  0
LINE
  8
0
 62
     0
 10
56.5065
 20
22.2402
 30
0.0
 11
58.2316
 21
22.2402
 31
0.0
  0
LINE
  8
0
 62
     0
 10
58.2316
 20
22.2402
 30
0.0
 11
58.2316
 21
28.5102
 31
0.0
  0
LINE
  8
0
 62
     0
 10
58.2316
 20
28.5102
 30
0.0
 11
59.0557
 21
28.5102
 31
0.0
  0
LINE
  8
0
 62
     0
 10
59.0557
 20
28.5102
 30
0.0
 11
59.0557
 21
31.3104
 31
0.0
  0
LINE
  8
0
 62
     0
 10
59.0557
 20
31.3104
 30
0.0
 11
58.2316
 21
31.3104
 31
0.0
  0
LINE
  8
0
 62
     0
 10
58.2316
 20
31.3104
 30
0.0
 11
58.2316
 21
34.5405
 31
0.0
  0
LINE
  8
0
 62
     0
 10
58.2316
 20
34.5405
 30
0.0
 11
56.5065
 21
34.5405
 31
0.0
  0
LINE
  8
0
 62
     0
 10
56.5065
 20
34.5405
 30
0.0
 11
56.5065
 21
35.4598
 31
0.0
  0
LINE
  8
0
 62
     0
 10
56.5065
 20
35.4598
 30
0.0
 11
53.2059
 21
35.4598
 31
0.0
  0
LINE
  8
0
 62
     0
 10
53.2059
 20
35.4598
 30
0.0
 11
53.2059
 21
34.5405
 31
0.0
  0
LINE
  8
0
 62
     0
 10
53.2059
 20
34.5405
 30
0.0
 11
51.4823
 21
34.5405
 31
0.0
  0
LINE
  8
0
 62
     0
 10
51.4823
 20
34.5405
 30
0.0
 11
51.4823
 21
31.3104
 31
0.0
  0
LINE
  8
0
 62
     0
 10
51.4823
 20
31.3104
 30
0.0
 11
49.9565
 21
31.3104
 31
0.0
  0
LINE
  8
0
 62
     0
 10
49.9565
 20
31.3104
 30
0.0
 11
49.9565
 21
31.9098
 31
0.0
  0
LINE
  8
0
 62
     0
 10
49.9565
 20
31.9098
 30
0.0
 11
50.7559
 21
31.9098
 31
0.0
  0
LINE
  8
0
 62
     0
 10
50.7559
 20
31.9098
 30
0.0
 11
50.7559
 21
35.0104
 31
0.0
  0
LINE
  8
0
 62
     0
 10
50.7559
 20
35.0104
 30
0.0
 11
49.9565
 21
35.0104
 31
0.0
  0
LINE
  8
0
 62
     0
 10
49.9565
 20
35.0104
 30
0.0
 11
49.9565
 21
36.0094
 31
0.0
  0
LINE
  8
0
 62
     0
 10
49.9565
 20
36.0094
 30
0.0
 11
35.9572
 21
36.0094
 31
0.0
  0
LINE
  8
0
 62
     0
 10
140.732
 20
36.0094
 30
0.0
 11
140.732
 21
35.0104
 31
0.0
  0
LINE
  8
0
 62
     0
 10
140.732
 20
35.0104
 30
0.0
 11
139.931
 21
35.0104
 31
0.0
  0
LINE
  8
0
 62
     0
 10
139.931
 20
35.0104
 30
0.0
 11
139.931
 21
31.9098
 31
0.0
  0
LINE
  8
0
 62
     0
 10
139.931
 20
31.9098
 30
0.0
 11
140.732
 21
31.9098
 31
0.0
  0
LINE
  8
0
 62
     0
 10
140.732
 20
31.9098
 30
0.0
 11
140.732
 21
26.1097
 31
0.0
  0
LINE
  8
0
 62
     0
 10
140.732
 20
26.1097
 30
0.0
 11
139.931
 21
26.1097
 31
0.0
  0
LINE
  8
0
 62
     0
 10
139.931
 20
26.1097
 30
0.0
 11
139.931
 21
23.0105
 31
0.0
  0
LINE
  8
0
 62
     0
 10
139.931
 20
23.0105
 30
0.0
 11
140.732
 21
23.0105
 31
0.0
  0
LINE
  8
0
 62
     0
 10
140.732
 20
23.0105
 30
0.0
 11
140.732
 21
22.01
 31
0.0
  0
LINE
  8
0
 62
     0
 10
140.732
 20
22.01
 30
0.0
 11
154.732
 21
22.01
 31
0.0
  0
LINE
  8
0
 62
     0
 10
154.732
 20
22.01
 30
0.0
 11
154.732
 21
23.0105
 31
0.0
  0
LINE
  8
0
 62
     0
 10
154.732
 20
23.0105
 30
0.0
 11
155.531
 21
23.0105
 31
0.0
  0
LINE
  8
0
 62
     0
 10
155.531
 20
23.0105
 30
0.0
 11
155.531
 21
26.1097
 31
0.0
  0
LINE
  8
0
 62
     0
 10
155.531
 20
26.1097
 30
0.0
 11
154.732
 21
26.1097
 31
0.0
  0
LINE
  8
0
 62
     0
 10
154.732
 20
26.1097
 30
0.0
 11
154.732
 21
31.9098
 31
0.0
  0
LINE
  8
0
 62
     0
 10
154.732
 20
31.9098
 30
0.0
 11
155.531
 21
31.9098
 31
0.0
  0
LINE
  8
0
 62
     0
 10
155.531
 20
31.9098
 30
0.0
 11
155.531
 21
35.0104
 31
0.0
  0
LINE
  8
0
 62
     0
 10
155.531
 20
35.0104
 30
0.0
 11
154.732
 21
35.0104
 31
0.0
  0
LINE
  8
0
 62
     0
 10
154.732
 20
35.0104
 30
0.0
 11
154.732
 21
36.0094
 31
0.0
  0
LINE
  8
0
 62
     0
 10
154.732
 20
36.0094
 30
0.0
 11
140.732
 21
36.0094
 31
0.0
  0
LINE
  8
0
 62
     0
 10
121.682
 20
36.0094
 30
0.0
 11
121.682
 21
35.0104
 31
0.0
  0
LINE
  8
0
 62
     0
 10
121.682
 20
35.0104
 30
0.0
 11
120.881
 21
35.0104
 31
0.0
  0
LINE
  8
0
 62
     0
 10
120.881
 20
35.0104
 30
0.0
 11
120.881
 21
31.9098
 31
0.0
  0
LINE
  8
0
 62
     0
 10
120.881
 20
31.9098
 30
0.0
 11
121.682
 21
31.9098
 31
0.0
  0
LINE
  8
0
 62
     0
 10
121.682
 20
31.9098
 30
0.0
 11
121.682
 21
26.1097
 31
0.0
  0
LINE
  8
0
 62
     0
 10
121.682
 20
26.1097
 30
0.0
 11
120.881
 21
26.1097
 31
0.0
  0
LINE
  8
0
 62
     0
 10
120.881
 20
26.1097
 30
0.0
 11
120.881
 21
23.0105
 31
0.0
  0
LINE
  8
0
 62
     0
 10
120.881
 20
23.0105
 30
0.0
 11
121.682
 21
23.0105
 31
0.0
  0
LINE
  8
0
 62
     0
 10
121.682
 20
23.0105
 30
0.0
 11
121.682
 21
22.01
 31
0.0
  0
LINE
  8
0
 62
     0
 10
121.682
 20
22.01
 30
0.0
 11
135.682
 21
22.01
 31
0.0
  0
LINE
  8
0
 62
     0
 10
135.682
 20
22.01
 30
0.0
 11
135.682
 21
23.0105
 31
0.0
  0
LINE
  8
0
 62
     0
 10
135.682
 20
23.0105
 30
0.0
 11
136.481
 21
23.0105
 31
0.0
  0
LINE
  8
0
 62
     0
 10
136.481
 20
23.0105
 30
0.0
 11
136.481
 21
26.1097
 31
0.0
  0
LINE
  8
0
 62
     0
 10
136.481
 20
26.1097
 30
0.0
 11
135.682
 21
26.1097
 31
0.0
  0
LINE
  8
0
 62
     0
 10
135.682
 20
26.1097
 30
0.0
 11
135.682
 21
31.9098
 31
0.0
  0
LINE
  8
0
 62
     0
 10
135.682
 20
31.9098
 30
0.0
 11
136.481
 21
31.9098
 31
0.0
  0
LINE
  8
0
 62
     0
 10
136.481
 20
31.9098
 30
0.0
 11
136.481
 21
35.0104
 31
0.0
  0
LINE
  8
0
 62
     0
 10
136.481
 20
35.0104
 30
0.0
 11
135.682
 21
35.0104
 31
0.0
  0
LINE
  8
0
 62
     0
 10
135.682
 20
35.0104
 30
0.0
 11
135.682
 21
36.0094
 31
0.0
  0
LINE
  8
0
 62
     0
 10
135.682
 20
36.0094
 30
0.0
 11
121.682
 21
36.0094
 31
0.0
  0
LINE
  8
0
 62
     0
 10
102.632
 20
36.0094
 30
0.0
 11
102.632
 21
35.0104
 31
0.0
  0
LINE
  8
0
 62
     0
 10
102.632
 20
35.0104
 30
0.0
 11
101.831
 21
35.0104
 31
0.0
  0
LINE
  8
0
 62
     0
 10
101.831
 20
35.0104
 30
0.0
 11
101.831
 21
31.9098
 31
0.0
  0
LINE
  8
0
 62
     0
 10
101.831
 20
31.9098
 30
0.0
 11
102.632
 21
31.9098
 31
0.0
  0
LINE
  8
0
 62
     0
 10
102.632
 20
31.9098
 30
0.0
 11
102.632
 21
26.1097
 31
0.0
  0
LINE
  8
0
 62
     0
 10
102.632
 20
26.1097
 30
0.0
 11
101.831
 21
26.1097
 31
0.0
  0
LINE
  8
0
 62
     0
 10
101.831
 20
26.1097
 30
0.0
 11
101.831
 21
23.0105
 31
0.0
  0
LINE
  8
0
 62
     0
 10
101.831
 20
23.0105
 30
0.0
 11
102.632
 21
23.0105
 31
0.0
  0
LINE
  8
0
 62
     0
 10
102.632
 20
23.0105
 30
0.0
 11
102.632
 21
22.01
 31
0.0
  0
LINE
  8
0
 62
     0
 10
102.632
 20
22.01
 30
0.0
 11
116.632
 21
22.01
 31
0.0
  0
LINE
  8
0
 62
     0
 10
116.632
 20
22.01
 30
0.0
 11
116.632
 21
23.0105
 31
0.0
  0
LINE
  8
0
 62
     0
 10
116.632
 20
23.0105
 30
0.0
 11
117.431
 21
23.0105
 31
0.0
  0
LINE
  8
0
 62
     0
 10
117.431
 20
23.0105
 30
0.0
 11
117.431
 21
26.1097
 31
0.0
  0
LINE
  8
0
 62
     0
 10
117.431
 20
26.1097
 30
0.0
 11
116.632
 21
26.1097
 31
0.0
  0
LINE
  8
0
 62
     0
 10
116.632
 20
26.1097
 30
0.0
 11
116.632
 21
31.9098
 31
0.0
  0
LINE
  8
0
 62
     0
 10
116.632
 20
31.9098
 30
0.0
 11
117.431
 21
31.9098
 31
0.0
  0
LINE
  8
0
 62
     0
 10
117.431
 20
31.9098
 30
0.0
 11
117.431
 21
35.0104
 31
0.0
  0
LINE
  8
0
 62
     0
 10
117.431
 20
35.0104
 30
0.0
 11
116.632
 21
35.0104
 31
0.0
  0
LINE
  8
0
 62
     0
 10
116.632
 20
35.0104
 30
0.0
 11
116.632
 21
36.0094
 31
0.0
  0
LINE
  8
0
 62
     0
 10
116.632
 20
36.0094
 30
0.0
 11
102.632
 21
36.0094
 31
0.0
  0
LINE
  8
0
 62
     0
 10
83.5822
 20
36.0094
 30
0.0
 11
83.5822
 21
35.0104
 31
0.0
  0
LINE
  8
0
 62
     0
 10
83.5822
 20
35.0104
 30
0.0
 11
82.7814
 21
35.0104
 31
0.0
  0
LINE
  8
0
 62
     0
 10
82.7814
 20
35.0104
 30
0.0
 11
82.7814
 21
31.9098
 31
0.0
  0
LINE
  8
0
 62
     0
 10
82.7814
 20
31.9098
 30
0.0
 11
83.5822
 21
31.9098
 31
0.0
  0
LINE
  8
0
 62
     0
 10
83.5822
 20
31.9098
 30
0.0
 11
83.5822
 21
26.1097
 31
0.0
  0
LINE
  8
0
 62
     0
 10
83.5822
 20
26.1097
 30
0.0
 11
82.7814
 21
26.1097
 31
0.0
  0
LINE
  8
0
 62
     0
 10
82.7814
 20
26.1097
 30
0.0
 11
82.7814
 21
23.0105
 31
0.0
  0
LINE
  8
0
 62
     0
 10
82.7814
 20
23.0105
 30
0.0
 11
83.5822
 21
23.0105
 31
0.0
  0
LINE
  8
0
 62
     0
 10
83.5822
 20
23.0105
 30
0.0
 11
83.5822
 21
22.01
 31
0.0
  0
LINE
  8
0
 62
     0
 10
83.5822
 20
22.01
 30
0.0
 11
97.5815
 21
22.01
 31
0.0
  0
LINE
  8
0
 62
     0
 10
97.5815
 20
22.01
 30
0.0
 11
97.5815
 21
23.0105
 31
0.0
  0
LINE
  8
0
 62
     0
 10
97.5815
 20
23.0105
 30
0.0
 11
98.3809
 21
23.0105
 31
0.0
  0
LINE
  8
0
 62
     0
 10
98.3809
 20
23.0105
 30
0.0
 11
98.3809
 21
26.1097
 31
0.0
  0
LINE
  8
0
 62
     0
 10
98.3809
 20
26.1097
 30
0.0
 11
97.5815
 21
26.1097
 31
0.0
  0
LINE
  8
0
 62
     0
 10
97.5815
 20
26.1097
 30
0.0
 11
97.5815
 21
31.9098
 31
0.0
  0
LINE
  8
0
 62
     0
 10
97.5815
 20
31.9098
 30
0.0
 11
98.3809
 21
31.9098
 31
0.0
  0
LINE
  8
0
 62
     0
 10
98.3809
 20
31.9098
 30
0.0
 11
98.3809
 21
35.0104
 31
0.0
  0
LINE
  8
0
 62
     0
 10
98.3809
 20
35.0104
 30
0.0
 11
97.5815
 21
35.0104
 31
0.0
  0
LINE
  8
0
 62
     0
 10
97.5815
 20
35.0104
 30
0.0
 11
97.5815
 21
36.0094
 31
0.0
  0
LINE
  8
0
 62
     0
 10
97.5815
 20
36.0094
 30
0.0
 11
83.5822
 21
36.0094
 31
0.0
  0
LINE
  8
0
 62
     0
 10
64.5322
 20
36.0094
 30
0.0
 11
64.5322
 21
35.0104
 31
0.0
  0
LINE
  8
0
 62
     0
 10
64.5322
 20
35.0104
 30
0.0
 11
63.7314
 21
35.0104
 31
0.0
  0
LINE
  8
0
 62
     0
 10
63.7314
 20
35.0104
 30
0.0
 11
63.7314
 21
31.9098
 31
0.0
  0
LINE
  8
0
 62
     0
 10
63.7314
 20
31.9098
 30
0.0
 11
64.5322
 21
31.9098
 31
0.0
  0
LINE
  8
0
 62
     0
 10
64.5322
 20
31.9098
 30
0.0
 11
64.5322
 21
26.1097
 31
0.0
  0
LINE
  8
0
 62
     0
 10
64.5322
 20
26.1097
 30
0.0
 11
63.7314
 21
26.1097
 31
0.0
  0
LINE
  8
0
 62
     0
 10
63.7314
 20
26.1097
 30
0.0
 11
63.7314
 21
23.0105
 31
0.0
  0
LINE
  8
0
 62
     0
 10
63.7314
 20
23.0105
 30
0.0
 11
64.5322
 21
23.0105
 31
0.0
  0
LINE
  8
0
 62
     0
 10
64.5322
 20
23.0105
 30
0.0
 11
64.5322
 21
22.01
 31
0.0
  0
LINE
  8
0
 62
     0
 10
64.5322
 20
22.01
 30
0.0
 11
78.5315
 21
22.01
 31
0.0
  0
LINE
  8
0
 62
     0
 10
78.5315
 20
22.01
 30
0.0
 11
78.5315
 21
23.0105
 31
0.0
  0
LINE
  8
0
 62
     0
 10
78.5315
 20
23.0105
 30
0.0
 11
79.3309
 21
23.0105
 31
0.0
  0
LINE
  8
0
 62
     0
 10
79.3309
 20
23.0105
 30
0.0
 11
79.3309
 21
26.1097
 31
0.0
  0
LINE
  8
0
 62
     0
 10
79.3309
 20
26.1097
 30
0.0
 11
78.5315
 21
26.1097
 31
0.0
  0
LINE
  8
0
 62
     0
 10
78.5315
 20
26.1097
 30
0.0
 11
78.5315
 21
31.9098
 31
0.0
  0
LINE
  8
0
 62
     0
 10
78.5315
 20
31.9098
 30
0.0
 11
79.3309
 21
31.9098
 31
0.0
  0
LINE
  8
0
 62
     0
 10
79.3309
 20
31.9098
 30
0.0
 11
79.3309
 21
35.0104
 31
0.0
  0
LINE
  8
0
 62
     0
 10
79.3309
 20
35.0104
 30
0.0
 11
78.5315
 21
35.0104
 31
0.0
  0
LINE
  8
0
 62
     0
 10
78.5315
 20
35.0104
 30
0.0
 11
78.5315
 21
36.0094
 31
0.0
  0
LINE
  8
0
 62
     0
 10
78.5315
 20
36.0094
 30
0.0
 11
64.5322
 21
36.0094
 31
0.0
  0
LINE
  8
0
 62
     0
 10
2.61965
 20
36.0094
 30
0.0
 11
2.61965
 21
35.0104
 31
0.0
  0
LINE
  8
0
 62
     0
 10
2.61965
 20
35.0104
 30
0.0
 11
1.81901
 21
35.0104
 31
0.0
  0
LINE
  8
0
 62
     0
 10
1.81901
 20
35.0104
 30
0.0
 11
1.81901
 21
31.9098
 31
0.0
  0
LINE
  8
0
 62
     0
 10
1.81901
 20
31.9098
 30
0.0
 11
2.61965
 21
31.9098
 31
0.0
  0
LINE
  8
0
 62
     0
 10
2.61965
 20
31.9098
 30
0.0
 11
2.61965
 21
26.1097
 31
0.0
  0
LINE
  8
0
 62
     0
 10
2.61965
 20
26.1097
 30
0.0
 11
1.81901
 21
26.1097
 31
0.0
  0
LINE
  8
0
 62
     0
 10
1.81901
 20
26.1097
 30
0.0
 11
1.81901
 21
23.0105
 31
0.0
  0
LINE
  8
0
 62
     0
 10
1.81901
 20
23.0105
 30
0.0
 11
2.61965
 21
23.0105
 31
0.0
  0
LINE
  8
0
 62
     0
 10
2.61965
 20
23.0105
 30
0.0
 11
2.61965
 21
22.01
 31
0.0
  0
LINE
  8
0
 62
     0
 10
2.61965
 20
22.01
 30
0.0
 11
16.6192
 21
22.01
 31
0.0
  0
LINE
  8
0
 62
     0
 10
16.6192
 20
22.01
 30
0.0
 11
16.6192
 21
23.0105
 31
0.0
  0
LINE
  8
0
 62
     0
 10
16.6192
 20
23.0105
 30
0.0
 11
17.4198
 21
23.0105
 31
0.0
  0
LINE
  8
0
 62
     0
 10
17.4198
 20
23.0105
 30
0.0
 11
17.4198
 21
26.1097
 31
0.0
  0
LINE
  8
0
 62
     0
 10
17.4198
 20
26.1097
 30
0.0
 11
16.6192
 21
26.1097
 31
0.0
  0
LINE
  8
0
 62
     0
 10
16.6192
 20
26.1097
 30
0.0
 11
16.6192
 21
31.9098
 31
0.0
  0
LINE
  8
0
 62
     0
 10
16.6192
 20
31.9098
 30
0.0
 11
17.4198
 21
31.9098
 31
0.0
  0
LINE
  8
0
 62
     0
 10
17.4198
 20
31.9098
 30
0.0
 11
17.4198
 21
35.0104
 31
0.0
  0
LINE
  8
0
 62
     0
 10
17.4198
 20
35.0104
 30
0.0
 11
16.6192
 21
35.0104
 31
0.0
  0
LINE
  8
0
 62
     0
 10
16.6192
 20
35.0104
 30
0.0
 11
16.6192
 21
36.0094
 31
0.0
  0
LINE
  8
0
 62
     0
 10
16.6192
 20
36.0094
 30
0.0
 11
2.61965
 21
36.0094
 31
0.0
  0
LINE
  8
0
 62
     0
 10
135.97
 20
55.0594
 30
0.0
 11
135.97
 21
54.0604
 31
0.0
  0
LINE
  8
0
 62
     0
 10
135.97
 20
54.0604
 30
0.0
 11
135.169
 21
54.0604
 31
0.0
  0
LINE
  8
0
 62
     0
 10
135.169
 20
54.0604
 30
0.0
 11
135.169
 21
50.9598
 31
0.0
  0
LINE
  8
0
 62
     0
 10
135.169
 20
50.9598
 30
0.0
 11
135.97
 21
50.9598
 31
0.0
  0
LINE
  8
0
 62
     0
 10
135.97
 20
50.9598
 30
0.0
 11
135.97
 21
45.1598
 31
0.0
  0
LINE
  8
0
 62
     0
 10
135.97
 20
45.1598
 30
0.0
 11
135.169
 21
45.1598
 31
0.0
  0
LINE
  8
0
 62
     0
 10
135.169
 20
45.1598
 30
0.0
 11
135.169
 21
42.0606
 31
0.0
  0
LINE
  8
0
 62
     0
 10
135.169
 20
42.0606
 30
0.0
 11
135.97
 21
42.0606
 31
0.0
  0
LINE
  8
0
 62
     0
 10
135.97
 20
42.0606
 30
0.0
 11
135.97
 21
41.0602
 31
0.0
  0
LINE
  8
0
 62
     0
 10
135.97
 20
41.0602
 30
0.0
 11
149.969
 21
41.0602
 31
0.0
  0
LINE
  8
0
 62
     0
 10
149.969
 20
41.0602
 30
0.0
 11
149.969
 21
42.0606
 31
0.0
  0
LINE
  8
0
 62
     0
 10
149.969
 20
42.0606
 30
0.0
 11
150.77
 21
42.0606
 31
0.0
  0
LINE
  8
0
 62
     0
 10
150.77
 20
42.0606
 30
0.0
 11
150.77
 21
45.1598
 31
0.0
  0
LINE
  8
0
 62
     0
 10
150.77
 20
45.1598
 30
0.0
 11
149.969
 21
45.1598
 31
0.0
  0
LINE
  8
0
 62
     0
 10
149.969
 20
45.1598
 30
0.0
 11
149.969
 21
50.9598
 31
0.0
  0
LINE
  8
0
 62
     0
 10
149.969
 20
50.9598
 30
0.0
 11
150.77
 21
50.9598
 31
0.0
  0
LINE
  8
0
 62
     0
 10
150.77
 20
50.9598
 30
0.0
 11
150.77
 21
54.0604
 31
0.0
  0
LINE
  8
0
 62
     0
 10
150.77
 20
54.0604
 30
0.0
 11
149.969
 21
54.0604
 31
0.0
  0
LINE
  8
0
 62
     0
 10
149.969
 20
54.0604
 30
0.0
 11
149.969
 21
55.0594
 31
0.0
  0
LINE
  8
0
 62
     0
 10
149.969
 20
55.0594
 30
0.0
 11
135.97
 21
55.0594
 31
0.0
  0
LINE
  8
0
 62
     0
 10
116.92
 20
55.0594
 30
0.0
 11
116.92
 21
54.0604
 31
0.0
  0
LINE
  8
0
 62
     0
 10
116.92
 20
54.0604
 30
0.0
 11
116.119
 21
54.0604
 31
0.0
  0
LINE
  8
0
 62
     0
 10
116.119
 20
54.0604
 30
0.0
 11
116.119
 21
50.9598
 31
0.0
  0
LINE
  8
0
 62
     0
 10
116.119
 20
50.9598
 30
0.0
 11
116.92
 21
50.9598
 31
0.0
  0
LINE
  8
0
 62
     0
 10
116.92
 20
50.9598
 30
0.0
 11
116.92
 21
45.1598
 31
0.0
  0
LINE
  8
0
 62
     0
 10
116.92
 20
45.1598
 30
0.0
 11
116.119
 21
45.1598
 31
0.0
  0
LINE
  8
0
 62
     0
 10
116.119
 20
45.1598
 30
0.0
 11
116.119
 21
42.0606
 31
0.0
  0
LINE
  8
0
 62
     0
 10
116.119
 20
42.0606
 30
0.0
 11
116.92
 21
42.0606
 31
0.0
  0
LINE
  8
0
 62
     0
 10
116.92
 20
42.0606
 30
0.0
 11
116.92
 21
41.0602
 31
0.0
  0
LINE
  8
0
 62
     0
 10
116.92
 20
41.0602
 30
0.0
 11
130.919
 21
41.0602
 31
0.0
  0
LINE
  8
0
 62
     0
 10
130.919
 20
41.0602
 30
0.0
 11
130.919
 21
42.0606
 31
0.0
  0
LINE
  8
0
 62
     0
 10
130.919
 20
42.0606
 30
0.0
 11
131.72
 21
42.0606
 31
0.0
  0
LINE
  8
0
 62
     0
 10
131.72
 20
42.0606
 30
0.0
 11
131.72
 21
45.1598
 31
0.0
  0
LINE
  8
0
 62
     0
 10
131.72
 20
45.1598
 30
0.0
 11
130.919
 21
45.1598
 31
0.0
  0
LINE
  8
0
 62
     0
 10
130.919
 20
45.1598
 30
0.0
 11
130.919
 21
50.9598
 31
0.0
  0
LINE
  8
0
 62
     0
 10
130.919
 20
50.9598
 30
0.0
 11
131.72
 21
50.9598
 31
0.0
  0
LINE
  8
0
 62
     0
 10
131.72
 20
50.9598
 30
0.0
 11
131.72
 21
54.0604
 31
0.0
  0
LINE
  8
0
 62
     0
 10
131.72
 20
54.0604
 30
0.0
 11
130.919
 21
54.0604
 31
0.0
  0
LINE
  8
0
 62
     0
 10
130.919
 20
54.0604
 30
0.0
 11
130.919
 21
55.0594
 31
0.0
  0
LINE
  8
0
 62
     0
 10
130.919
 20
55.0594
 30
0.0
 11
116.92
 21
55.0594
 31
0.0
  0
LINE
  8
0
 62
     0
 10
97.8697
 20
55.0594
 30
0.0
 11
97.8697
 21
54.0604
 31
0.0
  0
LINE
  8
0
 62
     0
 10
97.8697
 20
54.0604
 30
0.0
 11
97.0689
 21
54.0604
 31
0.0
  0
LINE
  8
0
 62
     0
 10
97.0689
 20
54.0604
 30
0.0
 11
97.0689
 21
50.9598
 31
0.0
  0
LINE
  8
0
 62
     0
 10
97.0689
 20
50.9598
 30
0.0
 11
97.8697
 21
50.9598
 31
0.0
  0
LINE
  8
0
 62
     0
 10
97.8697
 20
50.9598
 30
0.0
 11
97.8697
 21
45.1598
 31
0.0
  0
LINE
  8
0
 62
     0
 10
97.8697
 20
45.1598
 30
0.0
 11
97.0689
 21
45.1598
 31
0.0
  0
LINE
  8
0
 62
     0
 10
97.0689
 20
45.1598
 30
0.0
 11
97.0689
 21
42.0606
 31
0.0
  0
LINE
  8
0
 62
     0
 10
97.0689
 20
42.0606
 30
0.0
 11
97.8697
 21
42.0606
 31
0.0
  0
LINE
  8
0
 62
     0
 10
97.8697
 20
42.0606
 30
0.0
 11
97.8697
 21
41.0602
 31
0.0
  0
LINE
  8
0
 62
     0
 10
97.8697
 20
41.0602
 30
0.0
 11
111.869
 21
41.0602
 31
0.0
  0
LINE
  8
0
 62
     0
 10
111.869
 20
41.0602
 30
0.0
 11
111.869
 21
42.0606
 31
0.0
  0
LINE
  8
0
 62
     0
 10
111.869
 20
42.0606
 30
0.0
 11
112.67
 21
42.0606
 31
0.0
  0
LINE
  8
0
 62
     0
 10
112.67
 20
42.0606
 30
0.0
 11
112.67
 21
45.1598
 31
0.0
  0
LINE
  8
0
 62
     0
 10
112.67
 20
45.1598
 30
0.0
 11
111.869
 21
45.1598
 31
0.0
  0
LINE
  8
0
 62
     0
 10
111.869
 20
45.1598
 30
0.0
 11
111.869
 21
50.9598
 31
0.0
  0
LINE
  8
0
 62
     0
 10
111.869
 20
50.9598
 30
0.0
 11
112.67
 21
50.9598
 31
0.0
  0
LINE
  8
0
 62
     0
 10
112.67
 20
50.9598
 30
0.0
 11
112.67
 21
54.0604
 31
0.0
  0
LINE
  8
0
 62
     0
 10
112.67
 20
54.0604
 30
0.0
 11
111.869
 21
54.0604
 31
0.0
  0
LINE
  8
0
 62
     0
 10
111.869
 20
54.0604
 30
0.0
 11
111.869
 21
55.0594
 31
0.0
  0
LINE
  8
0
 62
     0
 10
111.869
 20
55.0594
 30
0.0
 11
97.8697
 21
55.0594
 31
0.0
  0
LINE
  8
0
 62
     0
 10
78.8197
 20
55.0594
 30
0.0
 11
78.8197
 21
54.0604
 31
0.0
  0
LINE
  8
0
 62
     0
 10
78.8197
 20
54.0604
 30
0.0
 11
78.0189
 21
54.0604
 31
0.0
  0
LINE
  8
0
 62
     0
 10
78.0189
 20
54.0604
 30
0.0
 11
78.0189
 21
50.9598
 31
0.0
  0
LINE
  8
0
 62
     0
 10
78.0189
 20
50.9598
 30
0.0
 11
78.8197
 21
50.9598
 31
0.0
  0
LINE
  8
0
 62
     0
 10
78.8197
 20
50.9598
 30
0.0
 11
78.8197
 21
45.1598
 31
0.0
  0
LINE
  8
0
 62
     0
 10
78.8197
 20
45.1598
 30
0.0
 11
78.0189
 21
45.1598
 31
0.0
  0
LINE
  8
0
 62
     0
 10
78.0189
 20
45.1598
 30
0.0
 11
78.0189
 21
42.0606
 31
0.0
  0
LINE
  8
0
 62
     0
 10
78.0189
 20
42.0606
 30
0.0
 11
78.8197
 21
42.0606
 31
0.0
  0
LINE
  8
0
 62
     0
 10
78.8197
 20
42.0606
 30
0.0
 11
78.8197
 21
41.0602
 31
0.0
  0
LINE
  8
0
 62
     0
 10
78.8197
 20
41.0602
 30
0.0
 11
92.819
 21
41.0602
 31
0.0
  0
LINE
  8
0
 62
     0
 10
92.819
 20
41.0602
 30
0.0
 11
92.819
 21
42.0606
 31
0.0
  0
LINE
  8
0
 62
     0
 10
92.819
 20
42.0606
 30
0.0
 11
93.6198
 21
42.0606
 31
0.0
  0
LINE
  8
0
 62
     0
 10
93.6198
 20
42.0606
 30
0.0
 11
93.6198
 21
45.1598
 31
0.0
  0
LINE
  8
0
 62
     0
 10
93.6198
 20
45.1598
 30
0.0
 11
92.819
 21
45.1598
 31
0.0
  0
LINE
  8
0
 62
     0
 10
92.819
 20
45.1598
 30
0.0
 11
92.819
 21
50.9598
 31
0.0
  0
LINE
  8
0
 62
     0
 10
92.819
 20
50.9598
 30
0.0
 11
93.6198
 21
50.9598
 31
0.0
  0
LINE
  8
0
 62
     0
 10
93.6198
 20
50.9598
 30
0.0
 11
93.6198
 21
54.0604
 31
0.0
  0
LINE
  8
0
 62
     0
 10
93.6198
 20
54.0604
 30
0.0
 11
92.819
 21
54.0604
 31
0.0
  0
LINE
  8
0
 62
     0
 10
92.819
 20
54.0604
 30
0.0
 11
92.819
 21
55.0594
 31
0.0
  0
LINE
  8
0
 62
     0
 10
92.819
 20
55.0594
 30
0.0
 11
78.8197
 21
55.0594
 31
0.0
  0
LINE
  8
0
 62
     0
 10
59.7697
 20
55.0594
 30
0.0
 11
59.7697
 21
54.0604
 31
0.0
  0
LINE
  8
0
 62
     0
 10
59.7697
 20
54.0604
 30
0.0
 11
58.9689
 21
54.0604
 31
0.0
  0
LINE
  8
0
 62
     0
 10
58.9689
 20
54.0604
 30
0.0
 11
58.9689
 21
50.9598
 31
0.0
  0
LINE
  8
0
 62
     0
 10
58.9689
 20
50.9598
 30
0.0
 11
59.7697
 21
50.9598
 31
0.0
  0
LINE
  8
0
 62
     0
 10
59.7697
 20
50.9598
 30
0.0
 11
59.7697
 21
45.1598
 31
0.0
  0
LINE
  8
0
 62
     0
 10
59.7697
 20
45.1598
 30
0.0
 11
58.9689
 21
45.1598
 31
0.0
  0
LINE
  8
0
 62
     0
 10
58.9689
 20
45.1598
 30
0.0
 11
58.9689
 21
42.0606
 31
0.0
  0
LINE
  8
0
 62
     0
 10
58.9689
 20
42.0606
 30
0.0
 11
59.7697
 21
42.0606
 31
0.0
  0
LINE
  8
0
 62
     0
 10
59.7697
 20
42.0606
 30
0.0
 11
59.7697
 21
41.0602
 31
0.0
  0
LINE
  8
0
 62
     0
 10
59.7697
 20
41.0602
 30
0.0
 11
73.769
 21
41.0602
 31
0.0
  0
LINE
  8
0
 62
     0
 10
73.769
 20
41.0602
 30
0.0
 11
73.769
 21
42.0606
 31
0.0
  0
LINE
  8
0
 62
     0
 10
73.769
 20
42.0606
 30
0.0
 11
74.5698
 21
42.0606
 31
0.0
  0
LINE
  8
0
 62
     0
 10
74.5698
 20
42.0606
 30
0.0
 11
74.5698
 21
45.1598
 31
0.0
  0
LINE
  8
0
 62
     0
 10
74.5698
 20
45.1598
 30
0.0
 11
73.769
 21
45.1598
 31
0.0
  0
LINE
  8
0
 62
     0
 10
73.769
 20
45.1598
 30
0.0
 11
73.769
 21
50.9598
 31
0.0
  0
LINE
  8
0
 62
     0
 10
73.769
 20
50.9598
 30
0.0
 11
74.5698
 21
50.9598
 31
0.0
  0
LINE
  8
0
 62
     0
 10
74.5698
 20
50.9598
 30
0.0
 11
74.5698
 21
54.0604
 31
0.0
  0
LINE
  8
0
 62
     0
 10
74.5698
 20
54.0604
 30
0.0
 11
73.769
 21
54.0604
 31
0.0
  0
LINE
  8
0
 62
     0
 10
73.769
 20
54.0604
 30
0.0
 11
73.769
 21
55.0594
 31
0.0
  0
LINE
  8
0
 62
     0
 10
73.769
 20
55.0594
 30
0.0
 11
59.7697
 21
55.0594
 31
0.0
  0
LINE
  8
0
 62
     0
 10
33.5759
 20
55.0594
 30
0.0
 11
33.5759
 21
54.0604
 31
0.0
  0
LINE
  8
0
 62
     0
 10
33.5759
 20
54.0604
 30
0.0
 11
32.7753
 21
54.0604
 31
0.0
  0
LINE
  8
0
 62
     0
 10
32.7753
 20
54.0604
 30
0.0
 11
32.7753
 21
50.9598
 31
0.0
  0
LINE
  8
0
 62
     0
 10
32.7753
 20
50.9598
 30
0.0
 11
33.5759
 21
50.9598
 31
0.0
  0
LINE
  8
0
 62
     0
 10
33.5759
 20
50.9598
 30
0.0
 11
33.5759
 21
45.1598
 31
0.0
  0
LINE
  8
0
 62
     0
 10
33.5759
 20
45.1598
 30
0.0
 11
32.7753
 21
45.1598
 31
0.0
  0
LINE
  8
0
 62
     0
 10
32.7753
 20
45.1598
 30
0.0
 11
32.7753
 21
42.0606
 31
0.0
  0
LINE
  8
0
 62
     0
 10
32.7753
 20
42.0606
 30
0.0
 11
33.5759
 21
42.0606
 31
0.0
  0
LINE
  8
0
 62
     0
 10
33.5759
 20
42.0606
 30
0.0
 11
33.5759
 21
41.0602
 31
0.0
  0
LINE
  8
0
 62
     0
 10
33.5759
 20
41.0602
 30
0.0
 11
47.5753
 21
41.0602
 31
0.0
  0
LINE
  8
0
 62
     0
 10
47.5753
 20
41.0602
 30
0.0
 11
47.5753
 21
42.0606
 31
0.0
  0
LINE
  8
0
 62
     0
 10
47.5753
 20
42.0606
 30
0.0
 11
48.3761
 21
42.0606
 31
0.0
  0
LINE
  8
0
 62
     0
 10
48.3761
 20
42.0606
 30
0.0
 11
48.3761
 21
45.1598
 31
0.0
  0
LINE
  8
0
 62
     0
 10
48.3761
 20
45.1598
 30
0.0
 11
47.5753
 21
45.1598
 31
0.0
  0
LINE
  8
0
 62
     0
 10
47.5753
 20
45.1598
 30
0.0
 11
47.5753
 21
50.9598
 31
0.0
  0
LINE
  8
0
 62
     0
 10
47.5753
 20
50.9598
 30
0.0
 11
48.3761
 21
50.9598
 31
0.0
  0
LINE
  8
0
 62
     0
 10
48.3761
 20
50.9598
 30
0.0
 11
48.3761
 21
54.0604
 31
0.0
  0
LINE
  8
0
 62
     0
 10
48.3761
 20
54.0604
 30
0.0
 11
47.5753
 21
54.0604
 31
0.0
  0
LINE
  8
0
 62
     0
 10
47.5753
 20
54.0604
 30
0.0
 11
47.5753
 21
55.0594
 31
0.0
  0
LINE
  8
0
 62
     0
 10
47.5753
 20
55.0594
 30
0.0
 11
33.5759
 21
55.0594
 31
0.0
  0
LINE
  8
0
 62
     0
 10
2.61965
 20
55.0594
 30
0.0
 11
2.61965
 21
54.0604
 31
0.0
  0
LINE
  8
0
 62
     0
 10
2.61965
 20
54.0604
 30
0.0
 11
1.81901
 21
54.0604
 31
0.0
  0
LINE
  8
0
 62
     0
 10
1.81901
 20
54.0604
 30
0.0
 11
1.81901
 21
50.9598
 31
0.0
  0
LINE
  8
0
 62
     0
 10
1.81901
 20
50.9598
 30
0.0
 11
2.61965
 21
50.9598
 31
0.0
  0
LINE
  8
0
 62
     0
 10
2.61965
 20
50.9598
 30
0.0
 11
2.61965
 21
45.1598
 31
0.0
  0
LINE
  8
0
 62
     0
 10
2.61965
 20
45.1598
 30
0.0
 11
1.81901
 21
45.1598
 31
0.0
  0
LINE
  8
0
 62
     0
 10
1.81901
 20
45.1598
 30
0.0
 11
1.81901
 21
42.0606
 31
0.0
  0
LINE
  8
0
 62
     0
 10
1.81901
 20
42.0606
 30
0.0
 11
2.61965
 21
42.0606
 31
0.0
  0
LINE
  8
0
 62
     0
 10
2.61965
 20
42.0606
 30
0.0
 11
2.61965
 21
41.0602
 31
0.0
  0
LINE
  8
0
 62
     0
 10
2.61965
 20
41.0602
 30
0.0
 11
16.6192
 21
41.0602
 31
0.0
  0
LINE
  8
0
 62
     0
 10
16.6192
 20
41.0602
 30
0.0
 11
16.6192
 21
42.0606
 31
0.0
  0
LINE
  8
0
 62
     0
 10
16.6192
 20
42.0606
 30
0.0
 11
17.4198
 21
42.0606
 31
0.0
  0
LINE
  8
0
 62
     0
 10
17.4198
 20
42.0606
 30
0.0
 11
17.4198
 21
45.1598
 31
0.0
  0
LINE
  8
0
 62
     0
 10
17.4198
 20
45.1598
 30
0.0
 11
16.6192
 21
45.1598
 31
0.0
  0
LINE
  8
0
 62
     0
 10
16.6192
 20
45.1598
 30
0.0
 11
16.6192
 21
50.9598
 31
0.0
  0
LINE
  8
0
 62
     0
 10
16.6192
 20
50.9598
 30
0.0
 11
17.4198
 21
50.9598
 31
0.0
  0
LINE
  8
0
 62
     0
 10
17.4198
 20
50.9598
 30
0.0
 11
17.4198
 21
54.0604
 31
0.0
  0
LINE
  8
0
 62
     0
 10
17.4198
 20
54.0604
 30
0.0
 11
16.6192
 21
54.0604
 31
0.0
  0
LINE
  8
0
 62
     0
 10
16.6192
 20
54.0604
 30
0.0
 11
16.6192
 21
55.0594
 31
0.0
  0
LINE
  8
0
 62
     0
 10
16.6192
 20
55.0594
 30
0.0
 11
2.61965
 21
55.0594
 31
0.0
  0
LINE
  8
0
 62
     0
 10
131.207
 20
74.1094
 30
0.0
 11
131.207
 21
73.1104
 31
0.0
  0
LINE
  8
0
 62
     0
 10
131.207
 20
73.1104
 30
0.0
 11
130.406
 21
73.1104
 31
0.0
  0
LINE
  8
0
 62
     0
 10
130.406
 20
73.1104
 30
0.0
 11
130.406
 21
70.0098
 31
0.0
  0
LINE
  8
0
 62
     0
 10
130.406
 20
70.0098
 30
0.0
 11
131.207
 21
70.0098
 31
0.0
  0
LINE
  8
0
 62
     0
 10
131.207
 20
70.0098
 30
0.0
 11
131.207
 21
64.2098
 31
0.0
  0
LINE
  8
0
 62
     0
 10
131.207
 20
64.2098
 30
0.0
 11
130.406
 21
64.2098
 31
0.0
  0
LINE
  8
0
 62
     0
 10
130.406
 20
64.2098
 30
0.0
 11
130.406
 21
61.1106
 31
0.0
  0
LINE
  8
0
 62
     0
 10
130.406
 20
61.1106
 30
0.0
 11
131.207
 21
61.1106
 31
0.0
  0
LINE
  8
0
 62
     0
 10
131.207
 20
61.1106
 30
0.0
 11
131.207
 21
60.1102
 31
0.0
  0
LINE
  8
0
 62
     0
 10
131.207
 20
60.1102
 30
0.0
 11
145.207
 21
60.1102
 31
0.0
  0
LINE
  8
0
 62
     0
 10
145.207
 20
60.1102
 30
0.0
 11
145.207
 21
61.1106
 31
0.0
  0
LINE
  8
0
 62
     0
 10
145.207
 20
61.1106
 30
0.0
 11
146.006
 21
61.1106
 31
0.0
  0
LINE
  8
0
 62
     0
 10
146.006
 20
61.1106
 30
0.0
 11
146.006
 21
64.2098
 31
0.0
  0
LINE
  8
0
 62
     0
 10
146.006
 20
64.2098
 30
0.0
 11
145.207
 21
64.2098
 31
0.0
  0
LINE
  8
0
 62
     0
 10
145.207
 20
64.2098
 30
0.0
 11
145.207
 21
70.0098
 31
0.0
  0
LINE
  8
0
 62
     0
 10
145.207
 20
70.0098
 30
0.0
 11
146.006
 21
70.0098
 31
0.0
  0
LINE
  8
0
 62
     0
 10
146.006
 20
70.0098
 30
0.0
 11
146.006
 21
73.1104
 31
0.0
  0
LINE
  8
0
 62
     0
 10
146.006
 20
73.1104
 30
0.0
 11
145.207
 21
73.1104
 31
0.0
  0
LINE
  8
0
 62
     0
 10
145.207
 20
73.1104
 30
0.0
 11
145.207
 21
74.1094
 31
0.0
  0
LINE
  8
0
 62
     0
 10
145.207
 20
74.1094
 30
0.0
 11
131.207
 21
74.1094
 31
0.0
  0
LINE
  8
0
 62
     0
 10
112.157
 20
74.1094
 30
0.0
 11
112.157
 21
73.1104
 31
0.0
  0
LINE
  8
0
 62
     0
 10
112.157
 20
73.1104
 30
0.0
 11
111.356
 21
73.1104
 31
0.0
  0
LINE
  8
0
 62
     0
 10
111.356
 20
73.1104
 30
0.0
 11
111.356
 21
70.0098
 31
0.0
  0
LINE
  8
0
 62
     0
 10
111.356
 20
70.0098
 30
0.0
 11
112.157
 21
70.0098
 31
0.0
  0
LINE
  8
0
 62
     0
 10
112.157
 20
70.0098
 30
0.0
 11
112.157
 21
64.2098
 31
0.0
  0
LINE
  8
0
 62
     0
 10
112.157
 20
64.2098
 30
0.0
 11
111.356
 21
64.2098
 31
0.0
  0
LINE
  8
0
 62
     0
 10
111.356
 20
64.2098
 30
0.0
 11
111.356
 21
61.1106
 31
0.0
  0
LINE
  8
0
 62
     0
 10
111.356
 20
61.1106
 30
0.0
 11
112.157
 21
61.1106
 31
0.0
  0
LINE
  8
0
 62
     0
 10
112.157
 20
61.1106
 30
0.0
 11
112.157
 21
60.1102
 31
0.0
  0
LINE
  8
0
 62
     0
 10
112.157
 20
60.1102
 30
0.0
 11
126.157
 21
60.1102
 31
0.0
  0
LINE
  8
0
 62
     0
 10
126.157
 20
60.1102
 30
0.0
 11
126.157
 21
61.1106
 31
0.0
  0
LINE
  8
0
 62
     0
 10
126.157
 20
61.1106
 30
0.0
 11
126.956
 21
61.1106
 31
0.0
  0
LINE
  8
0
 62
     0
 10
126.956
 20
61.1106
 30
0.0
 11
126.956
 21
64.2098
 31
0.0
  0
LINE
  8
0
 62
     0
 10
126.956
 20
64.2098
 30
0.0
 11
126.157
 21
64.2098
 31
0.0
  0
LINE
  8
0
 62
     0
 10
126.157
 20
64.2098
 30
0.0
 11
126.157
 21
70.0098
 31
0.0
  0
LINE
  8
0
 62
     0
 10
126.157
 20
70.0098
 30
0.0
 11
126.956
 21
70.0098
 31
0.0
  0
LINE
  8
0
 62
     0
 10
126.956
 20
70.0098
 30
0.0
 11
126.956
 21
73.1104
 31
0.0
  0
LINE
  8
0
 62
     0
 10
126.956
 20
73.1104
 30
0.0
 11
126.157
 21
73.1104
 31
0.0
  0
LINE
  8
0
 62
     0
 10
126.157
 20
73.1104
 30
0.0
 11
126.157
 21
74.1094
 31
0.0
  0
LINE
  8
0
 62
     0
 10
126.157
 20
74.1094
 30
0.0
 11
112.157
 21
74.1094
 31
0.0
  0
LINE
  8
0
 62
     0
 10
93.1072
 20
74.1094
 30
0.0
 11
93.1072
 21
73.1104
 31
0.0
  0
LINE
  8
0
 62
     0
 10
93.1072
 20
73.1104
 30
0.0
 11
92.3064
 21
73.1104
 31
0.0
  0
LINE
  8
0
 62
     0
 10
92.3064
 20
73.1104
 30
0.0
 11
92.3064
 21
70.0098
 31
0.0
  0
LINE
  8
0
 62
     0
 10
92.3064
 20
70.0098
 30
0.0
 11
93.1072
 21
70.0098
 31
0.0
  0
LINE
  8
0
 62
     0
 10
93.1072
 20
70.0098
 30
0.0
 11
93.1072
 21
64.2098
 31
0.0
  0
LINE
  8
0
 62
     0
 10
93.1072
 20
64.2098
 30
0.0
 11
92.3064
 21
64.2098
 31
0.0
  0
LINE
  8
0
 62
     0
 10
92.3064
 20
64.2098
 30
0.0
 11
92.3064
 21
61.1106
 31
0.0
  0
LINE
  8
0
 62
     0
 10
92.3064
 20
61.1106
 30
0.0
 11
93.1072
 21
61.1106
 31
0.0
  0
LINE
  8
0
 62
     0
 10
93.1072
 20
61.1106
 30
0.0
 11
93.1072
 21
60.1102
 31
0.0
  0
LINE
  8
0
 62
     0
 10
93.1072
 20
60.1102
 30
0.0
 11
107.107
 21
60.1102
 31
0.0
  0
LINE
  8
0
 62
     0
 10
107.107
 20
60.1102
 30
0.0
 11
107.107
 21
61.1106
 31
0.0
  0
LINE
  8
0
 62
     0
 10
107.107
 20
61.1106
 30
0.0
 11
107.906
 21
61.1106
 31
0.0
  0
LINE
  8
0
 62
     0
 10
107.906
 20
61.1106
 30
0.0
 11
107.906
 21
64.2098
 31
0.0
  0
LINE
  8
0
 62
     0
 10
107.906
 20
64.2098
 30
0.0
 11
107.107
 21
64.2098
 31
0.0
  0
LINE
  8
0
 62
     0
 10
107.107
 20
64.2098
 30
0.0
 11
107.107
 21
70.0098
 31
0.0
  0
LINE
  8
0
 62
     0
 10
107.107
 20
70.0098
 30
0.0
 11
107.906
 21
70.0098
 31
0.0
  0
LINE
  8
0
 62
     0
 10
107.906
 20
70.0098
 30
0.0
 11
107.906
 21
73.1104
 31
0.0
  0
LINE
  8
0
 62
     0
 10
107.906
 20
73.1104
 30
0.0
 11
107.107
 21
73.1104
 31
0.0
  0
LINE
  8
0
 62
     0
 10
107.107
 20
73.1104
 30
0.0
 11
107.107
 21
74.1094
 31
0.0
  0
LINE
  8
0
 62
     0
 10
107.107
 20
74.1094
 30
0.0
 11
93.1072
 21
74.1094
 31
0.0
  0
LINE
  8
0
 62
     0
 10
74.0572
 20
74.1094
 30
0.0
 11
74.0572
 21
73.1104
 31
0.0
  0
LINE
  8
0
 62
     0
 10
74.0572
 20
73.1104
 30
0.0
 11
73.2564
 21
73.1104
 31
0.0
  0
LINE
  8
0
 62
     0
 10
73.2564
 20
73.1104
 30
0.0
 11
73.2564
 21
70.0098
 31
0.0
  0
LINE
  8
0
 62
     0
 10
73.2564
 20
70.0098
 30
0.0
 11
74.0572
 21
70.0098
 31
0.0
  0
LINE
  8
0
 62
     0
 10
74.0572
 20
70.0098
 30
0.0
 11
74.0572
 21
64.2098
 31
0.0
  0
LINE
  8
0
 62
     0
 10
74.0572
 20
64.2098
 30
0.0
 11
73.2564
 21
64.2098
 31
0.0
  0
LINE
  8
0
 62
     0
 10
73.2564
 20
64.2098
 30
0.0
 11
73.2564
 21
61.1106
 31
0.0
  0
LINE
  8
0
 62
     0
 10
73.2564
 20
61.1106
 30
0.0
 11
74.0572
 21
61.1106
 31
0.0
  0
LINE
  8
0
 62
     0
 10
74.0572
 20
61.1106
 30
0.0
 11
74.0572
 21
60.1102
 31
0.0
  0
LINE
  8
0
 62
     0
 10
74.0572
 20
60.1102
 30
0.0
 11
88.0565
 21
60.1102
 31
0.0
  0
LINE
  8
0
 62
     0
 10
88.0565
 20
60.1102
 30
0.0
 11
88.0565
 21
61.1106
 31
0.0
  0
LINE
  8
0
 62
     0
 10
88.0565
 20
61.1106
 30
0.0
 11
88.8559
 21
61.1106
 31
0.0
  0
LINE
  8
0
 62
     0
 10
88.8559
 20
61.1106
 30
0.0
 11
88.8559
 21
64.2098
 31
0.0
  0
LINE
  8
0
 62
     0
 10
88.8559
 20
64.2098
 30
0.0
 11
88.0565
 21
64.2098
 31
0.0
  0
LINE
  8
0
 62
     0
 10
88.0565
 20
64.2098
 30
0.0
 11
88.0565
 21
70.0098
 31
0.0
  0
LINE
  8
0
 62
     0
 10
88.0565
 20
70.0098
 30
0.0
 11
88.8559
 21
70.0098
 31
0.0
  0
LINE
  8
0
 62
     0
 10
88.8559
 20
70.0098
 30
0.0
 11
88.8559
 21
73.1104
 31
0.0
  0
LINE
  8
0
 62
     0
 10
88.8559
 20
73.1104
 30
0.0
 11
88.0565
 21
73.1104
 31
0.0
  0
LINE
  8
0
 62
     0
 10
88.0565
 20
73.1104
 30
0.0
 11
88.0565
 21
74.1094
 31
0.0
  0
LINE
  8
0
 62
     0
 10
88.0565
 20
74.1094
 30
0.0
 11
74.0572
 21
74.1094
 31
0.0
  0
LINE
  8
0
 62
     0
 10
55.0072
 20
74.1094
 30
0.0
 11
55.0072
 21
73.1104
 31
0.0
  0
LINE
  8
0
 62
     0
 10
55.0072
 20
73.1104
 30
0.0
 11
54.2064
 21
73.1104
 31
0.0
  0
LINE
  8
0
 62
     0
 10
54.2064
 20
73.1104
 30
0.0
 11
54.2064
 21
70.0098
 31
0.0
  0
LINE
  8
0
 62
     0
 10
54.2064
 20
70.0098
 30
0.0
 11
55.0072
 21
70.0098
 31
0.0
  0
LINE
  8
0
 62
     0
 10
55.0072
 20
70.0098
 30
0.0
 11
55.0072
 21
64.2098
 31
0.0
  0
LINE
  8
0
 62
     0
 10
55.0072
 20
64.2098
 30
0.0
 11
54.2064
 21
64.2098
 31
0.0
  0
LINE
  8
0
 62
     0
 10
54.2064
 20
64.2098
 30
0.0
 11
54.2064
 21
61.1106
 31
0.0
  0
LINE
  8
0
 62
     0
 10
54.2064
 20
61.1106
 30
0.0
 11
55.0072
 21
61.1106
 31
0.0
  0
LINE
  8
0
 62
     0
 10
55.0072
 20
61.1106
 30
0.0
 11
55.0072
 21
60.1102
 31
0.0
  0
LINE
  8
0
 62
     0
 10
55.0072
 20
60.1102
 30
0.0
 11
69.0065
 21
60.1102
 31
0.0
  0
LINE
  8
0
 62
     0
 10
69.0065
 20
60.1102
 30
0.0
 11
69.0065
 21
61.1106
 31
0.0
  0
LINE
  8
0
 62
     0
 10
69.0065
 20
61.1106
 30
0.0
 11
69.8059
 21
61.1106
 31
0.0
  0
LINE
  8
0
 62
     0
 10
69.8059
 20
61.1106
 30
0.0
 11
69.8059
 21
64.2098
 31
0.0
  0
LINE
  8
0
 62
     0
 10
69.8059
 20
64.2098
 30
0.0
 11
69.0065
 21
64.2098
 31
0.0
  0
LINE
  8
0
 62
     0
 10
69.0065
 20
64.2098
 30
0.0
 11
69.0065
 21
70.0098
 31
0.0
  0
LINE
  8
0
 62
     0
 10
69.0065
 20
70.0098
 30
0.0
 11
69.8059
 21
70.0098
 31
0.0
  0
LINE
  8
0
 62
     0
 10
69.8059
 20
70.0098
 30
0.0
 11
69.8059
 21
73.1104
 31
0.0
  0
LINE
  8
0
 62
     0
 10
69.8059
 20
73.1104
 30
0.0
 11
69.0065
 21
73.1104
 31
0.0
  0
LINE
  8
0
 62
     0
 10
69.0065
 20
73.1104
 30
0.0
 11
69.0065
 21
74.1094
 31
0.0
  0
LINE
  8
0
 62
     0
 10
69.0065
 20
74.1094
 30
0.0
 11
55.0072
 21
74.1094
 31
0.0
  0
LINE
  8
0
 62
     0
 10
31.1947
 20
74.1094
 30
0.0
 11
31.1947
 21
73.1104
 31
0.0
  0
LINE
  8
0
 62
     0
 10
31.1947
 20
73.1104
 30
0.0
 11
30.394
 21
73.1104
 31
0.0
  0
LINE
  8
0
 62
     0
 10
30.394
 20
73.1104
 30
0.0
 11
30.394
 21
70.0098
 31
0.0
  0
LINE
  8
0
 62
     0
 10
30.394
 20
70.0098
 30
0.0
 11
31.1947
 21
70.0098
 31
0.0
  0
LINE
  8
0
 62
     0
 10
31.1947
 20
70.0098
 30
0.0
 11
31.1947
 21
64.2098
 31
0.0
  0
LINE
  8
0
 62
     0
 10
31.1947
 20
64.2098
 30
0.0
 11
30.394
 21
64.2098
 31
0.0
  0
LINE
  8
0
 62
     0
 10
30.394
 20
64.2098
 30
0.0
 11
30.394
 21
61.1106
 31
0.0
  0
LINE
  8
0
 62
     0
 10
30.394
 20
61.1106
 30
0.0
 11
31.1947
 21
61.1106
 31
0.0
  0
LINE
  8
0
 62
     0
 10
31.1947
 20
61.1106
 30
0.0
 11
31.1947
 21
60.1102
 31
0.0
  0
LINE
  8
0
 62
     0
 10
31.1947
 20
60.1102
 30
0.0
 11
45.194
 21
60.1102
 31
0.0
  0
LINE
  8
0
 62
     0
 10
45.194
 20
60.1102
 30
0.0
 11
45.194
 21
61.1106
 31
0.0
  0
LINE
  8
0
 62
     0
 10
45.194
 20
61.1106
 30
0.0
 11
45.9948
 21
61.1106
 31
0.0
  0
LINE
  8
0
 62
     0
 10
45.9948
 20
61.1106
 30
0.0
 11
45.9948
 21
64.2098
 31
0.0
  0
LINE
  8
0
 62
     0
 10
45.9948
 20
64.2098
 30
0.0
 11
45.194
 21
64.2098
 31
0.0
  0
LINE
  8
0
 62
     0
 10
45.194
 20
64.2098
 30
0.0
 11
45.194
 21
70.0098
 31
0.0
  0
LINE
  8
0
 62
     0
 10
45.194
 20
70.0098
 30
0.0
 11
45.9948
 21
70.0098
 31
0.0
  0
LINE
  8
0
 62
     0
 10
45.9948
 20
70.0098
 30
0.0
 11
45.9948
 21
73.1104
 31
0.0
  0
LINE
  8
0
 62
     0
 10
45.9948
 20
73.1104
 30
0.0
 11
45.194
 21
73.1104
 31
0.0
  0
LINE
  8
0
 62
     0
 10
45.194
 20
73.1104
 30
0.0
 11
45.194
 21
74.1094
 31
0.0
  0
LINE
  8
0
 62
     0
 10
45.194
 20
74.1094
 30
0.0
 11
31.1947
 21
74.1094
 31
0.0
  0
LINE
  8
0
 62
     0
 10
2.61965
 20
74.1094
 30
0.0
 11
2.61965
 21
73.1104
 31
0.0
  0
LINE
  8
0
 62
     0
 10
2.61965
 20
73.1104
 30
0.0
 11
1.81901
 21
73.1104
 31
0.0
  0
LINE
  8
0
 62
     0
 10
1.81901
 20
73.1104
 30
0.0
 11
1.81901
 21
70.0098
 31
0.0
  0
LINE
  8
0
 62
     0
 10
1.81901
 20
70.0098
 30
0.0
 11
2.61965
 21
70.0098
 31
0.0
  0
LINE
  8
0
 62
     0
 10
2.61965
 20
70.0098
 30
0.0
 11
2.61965
 21
64.2098
 31
0.0
  0
LINE
  8
0
 62
     0
 10
2.61965
 20
64.2098
 30
0.0
 11
1.81901
 21
64.2098
 31
0.0
  0
LINE
  8
0
 62
     0
 10
1.81901
 20
64.2098
 30
0.0
 11
1.81901
 21
61.1106
 31
0.0
  0
LINE
  8
0
 62
     0
 10
1.81901
 20
61.1106
 30
0.0
 11
2.61965
 21
61.1106
 31
0.0
  0
LINE
  8
0
 62
     0
 10
2.61965
 20
61.1106
 30
0.0
 11
2.61965
 21
60.1102
 31
0.0
  0
LINE
  8
0
 62
     0
 10
2.61965
 20
60.1102
 30
0.0
 11
16.6192
 21
60.1102
 31
0.0
  0
LINE
  8
0
 62
     0
 10
16.6192
 20
60.1102
 30
0.0
 11
16.6192
 21
61.1106
 31
0.0
  0
LINE
  8
0
 62
     0
 10
16.6192
 20
61.1106
 30
0.0
 11
17.4198
 21
61.1106
 31
0.0
  0
LINE
  8
0
 62
     0
 10
17.4198
 20
61.1106
 30
0.0
 11
17.4198
 21
64.2098
 31
0.0
  0
LINE
  8
0
 62
     0
 10
17.4198
 20
64.2098
 30
0.0
 11
16.6192
 21
64.2098
 31
0.0
  0
LINE
  8
0
 62
     0
 10
16.6192
 20
64.2098
 30
0.0
 11
16.6192
 21
70.0098
 31
0.0
  0
LINE
  8
0
 62
     0
 10
16.6192
 20
70.0098
 30
0.0
 11
17.4198
 21
70.0098
 31
0.0
  0
LINE
  8
0
 62
     0
 10
17.4198
 20
70.0098
 30
0.0
 11
17.4198
 21
73.1104
 31
0.0
  0
LINE
  8
0
 62
     0
 10
17.4198
 20
73.1104
 30
0.0
 11
16.6192
 21
73.1104
 31
0.0
  0
LINE
  8
0
 62
     0
 10
16.6192
 20
73.1104
 30
0.0
 11
16.6192
 21
74.1094
 31
0.0
  0
LINE
  8
0
 62
     0
 10
16.6192
 20
74.1094
 30
0.0
 11
2.61965
 21
74.1094
 31
0.0
  0
LINE
  8
0
 62
     0
 10
140.732
 20
93.1594
 30
0.0
 11
140.732
 21
92.1604
 31
0.0
  0
LINE
  8
0
 62
     0
 10
140.732
 20
92.1604
 30
0.0
 11
139.931
 21
92.1604
 31
0.0
  0
LINE
  8
0
 62
     0
 10
139.931
 20
92.1604
 30
0.0
 11
139.931
 21
89.0598
 31
0.0
  0
LINE
  8
0
 62
     0
 10
139.931
 20
89.0598
 30
0.0
 11
140.732
 21
89.0598
 31
0.0
  0
LINE
  8
0
 62
     0
 10
140.732
 20
89.0598
 30
0.0
 11
140.732
 21
83.2598
 31
0.0
  0
LINE
  8
0
 62
     0
 10
140.732
 20
83.2598
 30
0.0
 11
139.931
 21
83.2598
 31
0.0
  0
LINE
  8
0
 62
     0
 10
139.931
 20
83.2598
 30
0.0
 11
139.931
 21
80.1606
 31
0.0
  0
LINE
  8
0
 62
     0
 10
139.931
 20
80.1606
 30
0.0
 11
140.732
 21
80.1606
 31
0.0
  0
LINE
  8
0
 62
     0
 10
140.732
 20
80.1606
 30
0.0
 11
140.732
 21
79.1602
 31
0.0
  0
LINE
  8
0
 62
     0
 10
140.732
 20
79.1602
 30
0.0
 11
154.732
 21
79.1602
 31
0.0
  0
LINE
  8
0
 62
     0
 10
154.732
 20
79.1602
 30
0.0
 11
154.732
 21
80.1606
 31
0.0
  0
LINE
  8
0
 62
     0
 10
154.732
 20
80.1606
 30
0.0
 11
155.531
 21
80.1606
 31
0.0
  0
LINE
  8
0
 62
     0
 10
155.531
 20
80.1606
 30
0.0
 11
155.531
 21
83.2598
 31
0.0
  0
LINE
  8
0
 62
     0
 10
155.531
 20
83.2598
 30
0.0
 11
154.732
 21
83.2598
 31
0.0
  0
LINE
  8
0
 62
     0
 10
154.732
 20
83.2598
 30
0.0
 11
154.732
 21
89.0598
 31
0.0
  0
LINE
  8
0
 62
     0
 10
154.732
 20
89.0598
 30
0.0
 11
155.531
 21
89.0598
 31
0.0
  0
LINE
  8
0
 62
     0
 10
155.531
 20
89.0598
 30
0.0
 11
155.531
 21
92.1604
 31
0.0
  0
LINE
  8
0
 62
     0
 10
155.531
 20
92.1604
 30
0.0
 11
154.732
 21
92.1604
 31
0.0
  0
LINE
  8
0
 62
     0
 10
154.732
 20
92.1604
 30
0.0
 11
154.732
 21
93.1594
 31
0.0
  0
LINE
  8
0
 62
     0
 10
154.732
 20
93.1594
 30
0.0
 11
140.732
 21
93.1594
 31
0.0
  0
LINE
  8
0
 62
     0
 10
121.682
 20
93.1594
 30
0.0
 11
121.682
 21
92.1604
 31
0.0
  0
LINE
  8
0
 62
     0
 10
121.682
 20
92.1604
 30
0.0
 11
120.881
 21
92.1604
 31
0.0
  0
LINE
  8
0
 62
     0
 10
120.881
 20
92.1604
 30
0.0
 11
120.881
 21
89.0598
 31
0.0
  0
LINE
  8
0
 62
     0
 10
120.881
 20
89.0598
 30
0.0
 11
121.682
 21
89.0598
 31
0.0
  0
LINE
  8
0
 62
     0
 10
121.682
 20
89.0598
 30
0.0
 11
121.682
 21
83.2598
 31
0.0
  0
LINE
  8
0
 62
     0
 10
121.682
 20
83.2598
 30
0.0
 11
120.881
 21
83.2598
 31
0.0
  0
LINE
  8
0
 62
     0
 10
120.881
 20
83.2598
 30
0.0
 11
120.881
 21
80.1606
 31
0.0
  0
LINE
  8
0
 62
     0
 10
120.881
 20
80.1606
 30
0.0
 11
121.682
 21
80.1606
 31
0.0
  0
LINE
  8
0
 62
     0
 10
121.682
 20
80.1606
 30
0.0
 11
121.682
 21
79.1602
 31
0.0
  0
LINE
  8
0
 62
     0
 10
121.682
 20
79.1602
 30
0.0
 11
135.682
 21
79.1602
 31
0.0
  0
LINE
  8
0
 62
     0
 10
135.682
 20
79.1602
 30
0.0
 11
135.682
 21
80.1606
 31
0.0
  0
LINE
  8
0
 62
     0
 10
135.682
 20
80.1606
 30
0.0
 11
136.481
 21
80.1606
 31
0.0
  0
LINE
  8
0
 62
     0
 10
136.481
 20
80.1606
 30
0.0
 11
136.481
 21
83.2598
 31
0.0
  0
LINE
  8
0
 62
     0
 10
136.481
 20
83.2598
 30
0.0
 11
135.682
 21
83.2598
 31
0.0
  0
LINE
  8
0
 62
     0
 10
135.682
 20
83.2598
 30
0.0
 11
135.682
 21
89.0598
 31
0.0
  0
LINE
  8
0
 62
     0
 10
135.682
 20
89.0598
 30
0.0
 11
136.481
 21
89.0598
 31
0.0
  0
LINE
  8
0
 62
     0
 10
136.481
 20
89.0598
 30
0.0
 11
136.481
 21
92.1604
 31
0.0
  0
LINE
  8
0
 62
     0
 10
136.481
 20
92.1604
 30
0.0
 11
135.682
 21
92.1604
 31
0.0
  0
LINE
  8
0
 62
     0
 10
135.682
 20
92.1604
 30
0.0
 11
135.682
 21
93.1594
 31
0.0
  0
LINE
  8
0
 62
     0
 10
135.682
 20
93.1594
 30
0.0
 11
121.682
 21
93.1594
 31
0.0
  0
LINE
  8
0
 62
     0
 10
102.632
 20
93.1594
 30
0.0
 11
102.632
 21
92.1604
 31
0.0
  0
LINE
  8
0
 62
     0
 10
102.632
 20
92.1604
 30
0.0
 11
101.831
 21
92.1604
 31
0.0
  0
LINE
  8
0
 62
     0
 10
101.831
 20
92.1604
 30
0.0
 11
101.831
 21
89.0598
 31
0.0
  0
LINE
  8
0
 62
     0
 10
101.831
 20
89.0598
 30
0.0
 11
102.632
 21
89.0598
 31
0.0
  0
LINE
  8
0
 62
     0
 10
102.632
 20
89.0598
 30
0.0
 11
102.632
 21
83.2598
 31
0.0
  0
LINE
  8
0
 62
     0
 10
102.632
 20
83.2598
 30
0.0
 11
101.831
 21
83.2598
 31
0.0
  0
LINE
  8
0
 62
     0
 10
101.831
 20
83.2598
 30
0.0
 11
101.831
 21
80.1606
 31
0.0
  0
LINE
  8
0
 62
     0
 10
101.831
 20
80.1606
 30
0.0
 11
102.632
 21
80.1606
 31
0.0
  0
LINE
  8
0
 62
     0
 10
102.632
 20
80.1606
 30
0.0
 11
102.632
 21
79.1602
 31
0.0
  0
LINE
  8
0
 62
     0
 10
102.632
 20
79.1602
 30
0.0
 11
116.632
 21
79.1602
 31
0.0
  0
LINE
  8
0
 62
     0
 10
116.632
 20
79.1602
 30
0.0
 11
116.632
 21
80.1606
 31
0.0
  0
LINE
  8
0
 62
     0
 10
116.632
 20
80.1606
 30
0.0
 11
117.431
 21
80.1606
 31
0.0
  0
LINE
  8
0
 62
     0
 10
117.431
 20
80.1606
 30
0.0
 11
117.431
 21
83.2598
 31
0.0
  0
LINE
  8
0
 62
     0
 10
117.431
 20
83.2598
 30
0.0
 11
116.632
 21
83.2598
 31
0.0
  0
LINE
  8
0
 62
     0
 10
116.632
 20
83.2598
 30
0.0
 11
116.632
 21
89.0598
 31
0.0
  0
LINE
  8
0
 62
     0
 10
116.632
 20
89.0598
 30
0.0
 11
117.431
 21
89.0598
 31
0.0
  0
LINE
  8
0
 62
     0
 10
117.431
 20
89.0598
 30
0.0
 11
117.431
 21
92.1604
 31
0.0
  0
LINE
  8
0
 62
     0
 10
117.431
 20
92.1604
 30
0.0
 11
116.632
 21
92.1604
 31
0.0
  0
LINE
  8
0
 62
     0
 10
116.632
 20
92.1604
 30
0.0
 11
116.632
 21
93.1594
 31
0.0
  0
LINE
  8
0
 62
     0
 10
116.632
 20
93.1594
 30
0.0
 11
102.632
 21
93.1594
 31
0.0
  0
LINE
  8
0
 62
     0
 10
83.5822
 20
93.1594
 30
0.0
 11
83.5822
 21
92.1604
 31
0.0
  0
LINE
  8
0
 62
     0
 10
83.5822
 20
92.1604
 30
0.0
 11
82.7814
 21
92.1604
 31
0.0
  0
LINE
  8
0
 62
     0
 10
82.7814
 20
92.1604
 30
0.0
 11
82.7814
 21
89.0598
 31
0.0
  0
LINE
  8
0
 62
     0
 10
82.7814
 20
89.0598
 30
0.0
 11
83.5822
 21
89.0598
 31
0.0
  0
LINE
  8
0
 62
     0
 10
83.5822
 20
89.0598
 30
0.0
 11
83.5822
 21
83.2598
 31
0.0
  0
LINE
  8
0
 62
     0
 10
83.5822
 20
83.2598
 30
0.0
 11
82.7814
 21
83.2598
 31
0.0
  0
LINE
  8
0
 62
     0
 10
82.7814
 20
83.2598
 30
0.0
 11
82.7814
 21
80.1606
 31
0.0
  0
LINE
  8
0
 62
     0
 10
82.7814
 20
80.1606
 30
0.0
 11
83.5822
 21
80.1606
 31
0.0
  0
LINE
  8
0
 62
     0
 10
83.5822
 20
80.1606
 30
0.0
 11
83.5822
 21
79.1602
 31
0.0
  0
LINE
  8
0
 62
     0
 10
83.5822
 20
79.1602
 30
0.0
 11
97.5815
 21
79.1602
 31
0.0
  0
LINE
  8
0
 62
     0
 10
97.5815
 20
79.1602
 30
0.0
 11
97.5815
 21
80.1606
 31
0.0
  0
LINE
  8
0
 62
     0
 10
97.5815
 20
80.1606
 30
0.0
 11
98.3809
 21
80.1606
 31
0.0
  0
LINE
  8
0
 62
     0
 10
98.3809
 20
80.1606
 30
0.0
 11
98.3809
 21
83.2598
 31
0.0
  0
LINE
  8
0
 62
     0
 10
98.3809
 20
83.2598
 30
0.0
 11
97.5815
 21
83.2598
 31
0.0
  0
LINE
  8
0
 62
     0
 10
97.5815
 20
83.2598
 30
0.0
 11
97.5815
 21
89.0598
 31
0.0
  0
LINE
  8
0
 62
     0
 10
97.5815
 20
89.0598
 30
0.0
 11
98.3809
 21
89.0598
 31
0.0
  0
LINE
  8
0
 62
     0
 10
98.3809
 20
89.0598
 30
0.0
 11
98.3809
 21
92.1604
 31
0.0
  0
LINE
  8
0
 62
     0
 10
98.3809
 20
92.1604
 30
0.0
 11
97.5815
 21
92.1604
 31
0.0
  0
LINE
  8
0
 62
     0
 10
97.5815
 20
92.1604
 30
0.0
 11
97.5815
 21
93.1594
 31
0.0
  0
LINE
  8
0
 62
     0
 10
97.5815
 20
93.1594
 30
0.0
 11
83.5822
 21
93.1594
 31
0.0
  0
LINE
  8
0
 62
     0
 10
64.5322
 20
93.1594
 30
0.0
 11
64.5322
 21
92.1604
 31
0.0
  0
LINE
  8
0
 62
     0
 10
64.5322
 20
92.1604
 30
0.0
 11
63.7314
 21
92.1604
 31
0.0
  0
LINE
  8
0
 62
     0
 10
63.7314
 20
92.1604
 30
0.0
 11
63.7314
 21
89.0598
 31
0.0
  0
LINE
  8
0
 62
     0
 10
63.7314
 20
89.0598
 30
0.0
 11
64.5322
 21
89.0598
 31
0.0
  0
LINE
  8
0
 62
     0
 10
64.5322
 20
89.0598
 30
0.0
 11
64.5322
 21
83.2598
 31
0.0
  0
LINE
  8
0
 62
     0
 10
64.5322
 20
83.2598
 30
0.0
 11
63.7314
 21
83.2598
 31
0.0
  0
LINE
  8
0
 62
     0
 10
63.7314
 20
83.2598
 30
0.0
 11
63.7314
 21
80.1606
 31
0.0
  0
LINE
  8
0
 62
     0
 10
63.7314
 20
80.1606
 30
0.0
 11
64.5322
 21
80.1606
 31
0.0
  0
LINE
  8
0
 62
     0
 10
64.5322
 20
80.1606
 30
0.0
 11
64.5322
 21
79.1602
 31
0.0
  0
LINE
  8
0
 62
     0
 10
64.5322
 20
79.1602
 30
0.0
 11
78.5315
 21
79.1602
 31
0.0
  0
LINE
  8
0
 62
     0
 10
78.5315
 20
79.1602
 30
0.0
 11
78.5315
 21
80.1606
 31
0.0
  0
LINE
  8
0
 62
     0
 10
78.5315
 20
80.1606
 30
0.0
 11
79.3309
 21
80.1606
 31
0.0
  0
LINE
  8
0
 62
     0
 10
79.3309
 20
80.1606
 30
0.0
 11
79.3309
 21
83.2598
 31
0.0
  0
LINE
  8
0
 62
     0
 10
79.3309
 20
83.2598
 30
0.0
 11
78.5315
 21
83.2598
 31
0.0
  0
LINE
  8
0
 62
     0
 10
78.5315
 20
83.2598
 30
0.0
 11
78.5315
 21
89.0598
 31
0.0
  0
LINE
  8
0
 62
     0
 10
78.5315
 20
89.0598
 30
0.0
 11
79.3309
 21
89.0598
 31
0.0
  0
LINE
  8
0
 62
     0
 10
79.3309
 20
89.0598
 30
0.0
 11
79.3309
 21
92.1604
 31
0.0
  0
LINE
  8
0
 62
     0
 10
79.3309
 20
92.1604
 30
0.0
 11
78.5315
 21
92.1604
 31
0.0
  0
LINE
  8
0
 62
     0
 10
78.5315
 20
92.1604
 30
0.0
 11
78.5315
 21
93.1594
 31
0.0
  0
LINE
  8
0
 62
     0
 10
78.5315
 20
93.1594
 30
0.0
 11
64.5322
 21
93.1594
 31
0.0
  0
LINE
  8
0
 62
     0
 10
45.4822
 20
93.1594
 30
0.0
 11
45.4822
 21
92.1604
 31
0.0
  0
LINE
  8
0
 62
     0
 10
45.4822
 20
92.1604
 30
0.0
 11
44.6814
 21
92.1604
 31
0.0
  0
LINE
  8
0
 62
     0
 10
44.6814
 20
92.1604
 30
0.0
 11
44.6814
 21
89.0598
 31
0.0
  0
LINE
  8
0
 62
     0
 10
44.6814
 20
89.0598
 30
0.0
 11
45.4822
 21
89.0598
 31
0.0
  0
LINE
  8
0
 62
     0
 10
45.4822
 20
89.0598
 30
0.0
 11
45.4822
 21
83.2598
 31
0.0
  0
LINE
  8
0
 62
     0
 10
45.4822
 20
83.2598
 30
0.0
 11
44.6814
 21
83.2598
 31
0.0
  0
LINE
  8
0
 62
     0
 10
44.6814
 20
83.2598
 30
0.0
 11
44.6814
 21
80.1606
 31
0.0
  0
LINE
  8
0
 62
     0
 10
44.6814
 20
80.1606
 30
0.0
 11
45.4822
 21
80.1606
 31
0.0
  0
LINE
  8
0
 62
     0
 10
45.4822
 20
80.1606
 30
0.0
 11
45.4822
 21
79.1602
 31
0.0
  0
LINE
  8
0
 62
     0
 10
45.4822
 20
79.1602
 30
0.0
 11
59.4815
 21
79.1602
 31
0.0
  0
LINE
  8
0
 62
     0
 10
59.4815
 20
79.1602
 30
0.0
 11
59.4815
 21
80.1606
 31
0.0
  0
LINE
  8
0
 62
     0
 10
59.4815
 20
80.1606
 30
0.0
 11
60.2809
 21
80.1606
 31
0.0
  0
LINE
  8
0
 62
     0
 10
60.2809
 20
80.1606
 30
0.0
 11
60.2809
 21
83.2598
 31
0.0
  0
LINE
  8
0
 62
     0
 10
60.2809
 20
83.2598
 30
0.0
 11
59.4815
 21
83.2598
 31
0.0
  0
LINE
  8
0
 62
     0
 10
59.4815
 20
83.2598
 30
0.0
 11
59.4815
 21
89.0598
 31
0.0
  0
LINE
  8
0
 62
     0
 10
59.4815
 20
89.0598
 30
0.0
 11
60.2809
 21
89.0598
 31
0.0
  0
LINE
  8
0
 62
     0
 10
60.2809
 20
89.0598
 30
0.0
 11
60.2809
 21
92.1604
 31
0.0
  0
LINE
  8
0
 62
     0
 10
60.2809
 20
92.1604
 30
0.0
 11
59.4815
 21
92.1604
 31
0.0
  0
LINE
  8
0
 62
     0
 10
59.4815
 20
92.1604
 30
0.0
 11
59.4815
 21
93.1594
 31
0.0
  0
LINE
  8
0
 62
     0
 10
59.4815
 20
93.1594
 30
0.0
 11
45.4822
 21
93.1594
 31
0.0
  0
LINE
  8
0
 62
     0
 10
26.4322
 20
93.1594
 30
0.0
 11
26.4322
 21
92.1604
 31
0.0
  0
LINE
  8
0
 62
     0
 10
26.4322
 20
92.1604
 30
0.0
 11
25.6315
 21
92.1604
 31
0.0
  0
LINE
  8
0
 62
     0
 10
25.6315
 20
92.1604
 30
0.0
 11
25.6315
 21
89.0598
 31
0.0
  0
LINE
  8
0
 62
     0
 10
25.6315
 20
89.0598
 30
0.0
 11
26.4322
 21
89.0598
 31
0.0
  0
LINE
  8
0
 62
     0
 10
26.4322
 20
89.0598
 30
0.0
 11
26.4322
 21
83.2598
 31
0.0
  0
LINE
  8
0
 62
     0
 10
26.4322
 20
83.2598
 30
0.0
 11
25.6315
 21
83.2598
 31
0.0
  0
LINE
  8
0
 62
     0
 10
25.6315
 20
83.2598
 30
0.0
 11
25.6315
 21
80.1606
 31
0.0
  0
LINE
  8
0
 62
     0
 10
25.6315
 20
80.1606
 30
0.0
 11
26.4322
 21
80.1606
 31
0.0
  0
LINE
  8
0
 62
     0
 10
26.4322
 20
80.1606
 30
0.0
 11
26.4322
 21
79.1602
 31
0.0
  0
LINE
  8
0
 62
     0
 10
26.4322
 20
79.1602
 30
0.0
 11
40.4315
 21
79.1602
 31
0.0
  0
LINE
  8
0
 62
     0
 10
40.4315
 20
79.1602
 30
0.0
 11
40.4315
 21
80.1606
 31
0.0
  0
LINE
  8
0
 62
     0
 10
40.4315
 20
80.1606
 30
0.0
 11
41.2309
 21
80.1606
 31
0.0
  0
LINE
  8
0
 62
     0
 10
41.2309
 20
80.1606
 30
0.0
 11
41.2309
 21
83.2598
 31
0.0
  0
LINE
  8
0
 62
     0
 10
41.2309
 20
83.2598
 30
0.0
 11
40.4315
 21
83.2598
 31
0.0
  0
LINE
  8
0
 62
     0
 10
40.4315
 20
83.2598
 30
0.0
 11
40.4315
 21
89.0598
 31
0.0
  0
LINE
  8
0
 62
     0
 10
40.4315
 20
89.0598
 30
0.0
 11
41.2309
 21
89.0598
 31
0.0
  0
LINE
  8
0
 62
     0
 10
41.2309
 20
89.0598
 30
0.0
 11
41.2309
 21
92.1604
 31
0.0
  0
LINE
  8
0
 62
     0
 10
41.2309
 20
92.1604
 30
0.0
 11
40.4315
 21
92.1604
 31
0.0
  0
LINE
  8
0
 62
     0
 10
40.4315
 20
92.1604
 30
0.0
 11
40.4315
 21
93.1594
 31
0.0
  0
LINE
  8
0
 62
     0
 10
40.4315
 20
93.1594
 30
0.0
 11
26.4322
 21
93.1594
 31
0.0
  0
LINE
  8
0
 62
     0
 10
2.61965
 20
93.1594
 30
0.0
 11
2.61965
 21
92.1604
 31
0.0
  0
LINE
  8
0
 62
     0
 10
2.61965
 20
92.1604
 30
0.0
 11
1.81901
 21
92.1604
 31
0.0
  0
LINE
  8
0
 62
     0
 10
1.81901
 20
92.1604
 30
0.0
 11
1.81901
 21
89.0598
 31
0.0
  0
LINE
  8
0
 62
     0
 10
1.81901
 20
89.0598
 30
0.0
 11
2.61965
 21
89.0598
 31
0.0
  0
LINE
  8
0
 62
     0
 10
2.61965
 20
89.0598
 30
0.0
 11
2.61965
 21
83.2598
 31
0.0
  0
LINE
  8
0
 62
     0
 10
2.61965
 20
83.2598
 30
0.0
 11
1.81901
 21
83.2598
 31
0.0
  0
LINE
  8
0
 62
     0
 10
1.81901
 20
83.2598
 30
0.0
 11
1.81901
 21
80.1606
 31
0.0
  0
LINE
  8
0
 62
     0
 10
1.81901
 20
80.1606
 30
0.0
 11
2.61965
 21
80.1606
 31
0.0
  0
LINE
  8
0
 62
     0
 10
2.61965
 20
80.1606
 30
0.0
 11
2.61965
 21
79.1602
 31
0.0
  0
LINE
  8
0
 62
     0
 10
2.61965
 20
79.1602
 30
0.0
 11
16.6192
 21
79.1602
 31
0.0
  0
LINE
  8
0
 62
     0
 10
16.6192
 20
79.1602
 30
0.0
 11
16.6192
 21
80.1606
 31
0.0
  0
LINE
  8
0
 62
     0
 10
16.6192
 20
80.1606
 30
0.0
 11
17.4198
 21
80.1606
 31
0.0
  0
LINE
  8
0
 62
     0
 10
17.4198
 20
80.1606
 30
0.0
 11
17.4198
 21
83.2598
 31
0.0
  0
LINE
  8
0
 62
     0
 10
17.4198
 20
83.2598
 30
0.0
 11
16.6192
 21
83.2598
 31
0.0
  0
LINE
  8
0
 62
     0
 10
16.6192
 20
83.2598
 30
0.0
 11
16.6192
 21
89.0598
 31
0.0
  0
LINE
  8
0
 62
     0
 10
16.6192
 20
89.0598
 30
0.0
 11
17.4198
 21
89.0598
 31
0.0
  0
LINE
  8
0
 62
     0
 10
17.4198
 20
89.0598
 30
0.0
 11
17.4198
 21
92.1604
 31
0.0
  0
LINE
  8
0
 62
     0
 10
17.4198
 20
92.1604
 30
0.0
 11
16.6192
 21
92.1604
 31
0.0
  0
LINE
  8
0
 62
     0
 10
16.6192
 20
92.1604
 30
0.0
 11
16.6192
 21
93.1594
 31
0.0
  0
LINE
  8
0
 62
     0
 10
16.6192
 20
93.1594
 30
0.0
 11
2.61965
 21
93.1594
 31
0.0
  0
LINE
  8
0
 62
     0
 10
140.732
 20
121.734
 30
0.0
 11
140.732
 21
120.735
 31
0.0
  0
LINE
  8
0
 62
     0
 10
140.732
 20
120.735
 30
0.0
 11
139.931
 21
120.735
 31
0.0
  0
LINE
  8
0
 62
     0
 10
139.931
 20
120.735
 30
0.0
 11
139.931
 21
117.635
 31
0.0
  0
LINE
  8
0
 62
     0
 10
139.931
 20
117.635
 30
0.0
 11
140.732
 21
117.635
 31
0.0
  0
LINE
  8
0
 62
     0
 10
140.732
 20
117.635
 30
0.0
 11
140.732
 21
111.835
 31
0.0
  0
LINE
  8
0
 62
     0
 10
140.732
 20
111.835
 30
0.0
 11
139.931
 21
111.835
 31
0.0
  0
LINE
  8
0
 62
     0
 10
139.931
 20
111.835
 30
0.0
 11
139.931
 21
108.736
 31
0.0
  0
LINE
  8
0
 62
     0
 10
139.931
 20
108.736
 30
0.0
 11
140.732
 21
108.736
 31
0.0
  0
LINE
  8
0
 62
     0
 10
140.732
 20
108.736
 30
0.0
 11
140.732
 21
107.735
 31
0.0
  0
LINE
  8
0
 62
     0
 10
140.732
 20
107.735
 30
0.0
 11
154.732
 21
107.735
 31
0.0
  0
LINE
  8
0
 62
     0
 10
154.732
 20
107.735
 30
0.0
 11
154.732
 21
108.736
 31
0.0
  0
LINE
  8
0
 62
     0
 10
154.732
 20
108.736
 30
0.0
 11
155.531
 21
108.736
 31
0.0
  0
LINE
  8
0
 62
     0
 10
155.531
 20
108.736
 30
0.0
 11
155.531
 21
111.835
 31
0.0
  0
LINE
  8
0
 62
     0
 10
155.531
 20
111.835
 30
0.0
 11
154.732
 21
111.835
 31
0.0
  0
LINE
  8
0
 62
     0
 10
154.732
 20
111.835
 30
0.0
 11
154.732
 21
117.635
 31
0.0
  0
LINE
  8
0
 62
     0
 10
154.732
 20
117.635
 30
0.0
 11
155.531
 21
117.635
 31
0.0
  0
LINE
  8
0
 62
     0
 10
155.531
 20
117.635
 30
0.0
 11
155.531
 21
120.735
 31
0.0
  0
LINE
  8
0
 62
     0
 10
155.531
 20
120.735
 30
0.0
 11
154.732
 21
120.735
 31
0.0
  0
LINE
  8
0
 62
     0
 10
154.732
 20
120.735
 30
0.0
 11
154.732
 21
121.734
 31
0.0
  0
LINE
  8
0
 62
     0
 10
154.732
 20
121.734
 30
0.0
 11
140.732
 21
121.734
 31
0.0
  0
LINE
  8
0
 62
     0
 10
112.157
 20
121.734
 30
0.0
 11
112.157
 21
120.735
 31
0.0
  0
LINE
  8
0
 62
     0
 10
112.157
 20
120.735
 30
0.0
 11
111.356
 21
120.735
 31
0.0
  0
LINE
  8
0
 62
     0
 10
111.356
 20
120.735
 30
0.0
 11
111.356
 21
117.635
 31
0.0
  0
LINE
  8
0
 62
     0
 10
111.356
 20
117.635
 30
0.0
 11
112.157
 21
117.635
 31
0.0
  0
LINE
  8
0
 62
     0
 10
112.157
 20
117.635
 30
0.0
 11
112.157
 21
111.835
 31
0.0
  0
LINE
  8
0
 62
     0
 10
112.157
 20
111.835
 30
0.0
 11
111.356
 21
111.835
 31
0.0
  0
LINE
  8
0
 62
     0
 10
111.356
 20
111.835
 30
0.0
 11
111.356
 21
108.736
 31
0.0
  0
LINE
  8
0
 62
     0
 10
111.356
 20
108.736
 30
0.0
 11
112.157
 21
108.736
 31
0.0
  0
LINE
  8
0
 62
     0
 10
112.157
 20
108.736
 30
0.0
 11
112.157
 21
107.735
 31
0.0
  0
LINE
  8
0
 62
     0
 10
112.157
 20
107.735
 30
0.0
 11
126.157
 21
107.735
 31
0.0
  0
LINE
  8
0
 62
     0
 10
126.157
 20
107.735
 30
0.0
 11
126.157
 21
108.736
 31
0.0
  0
LINE
  8
0
 62
     0
 10
126.157
 20
108.736
 30
0.0
 11
126.956
 21
108.736
 31
0.0
  0
LINE
  8
0
 62
     0
 10
126.956
 20
108.736
 30
0.0
 11
126.956
 21
111.835
 31
0.0
  0
LINE
  8
0
 62
     0
 10
126.956
 20
111.835
 30
0.0
 11
126.157
 21
111.835
 31
0.0
  0
LINE
  8
0
 62
     0
 10
126.157
 20
111.835
 30
0.0
 11
126.157
 21
117.635
 31
0.0
  0
LINE
  8
0
 62
     0
 10
126.157
 20
117.635
 30
0.0
 11
126.956
 21
117.635
 31
0.0
  0
LINE
  8
0
 62
     0
 10
126.956
 20
117.635
 30
0.0
 11
126.956
 21
120.735
 31
0.0
  0
LINE
  8
0
 62
     0
 10
126.956
 20
120.735
 30
0.0
 11
126.157
 21
120.735
 31
0.0
  0
LINE
  8
0
 62
     0
 10
126.157
 20
120.735
 30
0.0
 11
126.157
 21
121.734
 31
0.0
  0
LINE
  8
0
 62
     0
 10
126.157
 20
121.734
 30
0.0
 11
112.157
 21
121.734
 31
0.0
  0
LINE
  8
0
 62
     0
 10
93.1072
 20
121.734
 30
0.0
 11
93.1072
 21
120.735
 31
0.0
  0
LINE
  8
0
 62
     0
 10
93.1072
 20
120.735
 30
0.0
 11
92.3064
 21
120.735
 31
0.0
  0
LINE
  8
0
 62
     0
 10
92.3064
 20
120.735
 30
0.0
 11
92.3064
 21
117.635
 31
0.0
  0
LINE
  8
0
 62
     0
 10
92.3064
 20
117.635
 30
0.0
 11
93.1072
 21
117.635
 31
0.0
  0
LINE
  8
0
 62
     0
 10
93.1072
 20
117.635
 30
0.0
 11
93.1072
 21
111.835
 31
0.0
  0
LINE
  8
0
 62
     0
 10
93.1072
 20
111.835
 30
0.0
 11
92.3064
 21
111.835
 31
0.0
  0
LINE
  8
0
 62
     0
 10
92.3064
 20
111.835
 30
0.0
 11
92.3064
 21
108.736
 31
0.0
  0
LINE
  8
0
 62
     0
 10
92.3064
 20
108.736
 30
0.0
 11
93.1072
 21
108.736
 31
0.0
  0
LINE
  8
0
 62
     0
 10
93.1072
 20
108.736
 30
0.0
 11
93.1072
 21
107.735
 31
0.0
  0
LINE
  8
0
 62
     0
 10
93.1072
 20
107.735
 30
0.0
 11
107.107
 21
107.735
 31
0.0
  0
LINE
  8
0
 62
     0
 10
107.107
 20
107.735
 30
0.0
 11
107.107
 21
108.736
 31
0.0
  0
LINE
  8
0
 62
     0
 10
107.107
 20
108.736
 30
0.0
 11
107.906
 21
108.736
 31
0.0
  0
LINE
  8
0
 62
     0
 10
107.906
 20
108.736
 30
0.0
 11
107.906
 21
111.835
 31
0.0
  0
LINE
  8
0
 62
     0
 10
107.906
 20
111.835
 30
0.0
 11
107.107
 21
111.835
 31
0.0
  0
LINE
  8
0
 62
     0
 10
107.107
 20
111.835
 30
0.0
 11
107.107
 21
117.635
 31
0.0
  0
LINE
  8
0
 62
     0
 10
107.107
 20
117.635
 30
0.0
 11
107.906
 21
117.635
 31
0.0
  0
LINE
  8
0
 62
     0
 10
107.906
 20
117.635
 30
0.0
 11
107.906
 21
120.735
 31
0.0
  0
LINE
  8
0
 62
     0
 10
107.906
 20
120.735
 30
0.0
 11
107.107
 21
120.735
 31
0.0
  0
LINE
  8
0
 62
     0
 10
107.107
 20
120.735
 30
0.0
 11
107.107
 21
121.734
 31
0.0
  0
LINE
  8
0
 62
     0
 10
107.107
 20
121.734
 30
0.0
 11
93.1072
 21
121.734
 31
0.0
  0
LINE
  8
0
 62
     0
 10
74.0572
 20
121.734
 30
0.0
 11
74.0572
 21
120.735
 31
0.0
  0
LINE
  8
0
 62
     0
 10
74.0572
 20
120.735
 30
0.0
 11
73.2564
 21
120.735
 31
0.0
  0
LINE
  8
0
 62
     0
 10
73.2564
 20
120.735
 30
0.0
 11
73.2564
 21
117.635
 31
0.0
  0
LINE
  8
0
 62
     0
 10
73.2564
 20
117.635
 30
0.0
 11
74.0572
 21
117.635
 31
0.0
  0
LINE
  8
0
 62
     0
 10
74.0572
 20
117.635
 30
0.0
 11
74.0572
 21
111.835
 31
0.0
  0
LINE
  8
0
 62
     0
 10
74.0572
 20
111.835
 30
0.0
 11
73.2564
 21
111.835
 31
0.0
  0
LINE
  8
0
 62
     0
 10
73.2564
 20
111.835
 30
0.0
 11
73.2564
 21
108.736
 31
0.0
  0
LINE
  8
0
 62
     0
 10
73.2564
 20
108.736
 30
0.0
 11
74.0572
 21
108.736
 31
0.0
  0
LINE
  8
0
 62
     0
 10
74.0572
 20
108.736
 30
0.0
 11
74.0572
 21
107.735
 31
0.0
  0
LINE
  8
0
 62
     0
 10
74.0572
 20
107.735
 30
0.0
 11
88.0565
 21
107.735
 31
0.0
  0
LINE
  8
0
 62
     0
 10
88.0565
 20
107.735
 30
0.0
 11
88.0565
 21
108.736
 31
0.0
  0
LINE
  8
0
 62
     0
 10
88.0565
 20
108.736
 30
0.0
 11
88.8559
 21
108.736
 31
0.0
  0
LINE
  8
0
 62
     0
 10
88.8559
 20
108.736
 30
0.0
 11
88.8559
 21
111.835
 31
0.0
  0
LINE
  8
0
 62
     0
 10
88.8559
 20
111.835
 30
0.0
 11
88.0565
 21
111.835
 31
0.0
  0
LINE
  8
0
 62
     0
 10
88.0565
 20
111.835
 30
0.0
 11
88.0565
 21
117.635
 31
0.0
  0
LINE
  8
0
 62
     0
 10
88.0565
 20
117.635
 30
0.0
 11
88.8559
 21
117.635
 31
0.0
  0
LINE
  8
0
 62
     0
 10
88.8559
 20
117.635
 30
0.0
 11
88.8559
 21
120.735
 31
0.0
  0
LINE
  8
0
 62
     0
 10
88.8559
 20
120.735
 30
0.0
 11
88.0565
 21
120.735
 31
0.0
  0
LINE
  8
0
 62
     0
 10
88.0565
 20
120.735
 30
0.0
 11
88.0565
 21
121.734
 31
0.0
  0
LINE
  8
0
 62
     0
 10
88.0565
 20
121.734
 30
0.0
 11
74.0572
 21
121.734
 31
0.0
  0
LINE
  8
0
 62
     0
 10
55.0072
 20
121.734
 30
0.0
 11
55.0072
 21
120.735
 31
0.0
  0
LINE
  8
0
 62
     0
 10
55.0072
 20
120.735
 30
0.0
 11
54.2064
 21
120.735
 31
0.0
  0
LINE
  8
0
 62
     0
 10
54.2064
 20
120.735
 30
0.0
 11
54.2064
 21
117.635
 31
0.0
  0
LINE
  8
0
 62
     0
 10
54.2064
 20
117.635
 30
0.0
 11
55.0072
 21
117.635
 31
0.0
  0
LINE
  8
0
 62
     0
 10
55.0072
 20
117.635
 30
0.0
 11
55.0072
 21
111.835
 31
0.0
  0
LINE
  8
0
 62
     0
 10
55.0072
 20
111.835
 30
0.0
 11
54.2064
 21
111.835
 31
0.0
  0
LINE
  8
0
 62
     0
 10
54.2064
 20
111.835
 30
0.0
 11
54.2064
 21
108.736
 31
0.0
  0
LINE
  8
0
 62
     0
 10
54.2064
 20
108.736
 30
0.0
 11
55.0072
 21
108.736
 31
0.0
  0
LINE
  8
0
 62
     0
 10
55.0072
 20
108.736
 30
0.0
 11
55.0072
 21
107.735
 31
0.0
  0
LINE
  8
0
 62
     0
 10
55.0072
 20
107.735
 30
0.0
 11
69.0065
 21
107.735
 31
0.0
  0
LINE
  8
0
 62
     0
 10
69.0065
 20
107.735
 30
0.0
 11
69.0065
 21
108.736
 31
0.0
  0
LINE
  8
0
 62
     0
 10
69.0065
 20
108.736
 30
0.0
 11
69.8059
 21
108.736
 31
0.0
  0
LINE
  8
0
 62
     0
 10
69.8059
 20
108.736
 30
0.0
 11
69.8059
 21
111.835
 31
0.0
  0
LINE
  8
0
 62
     0
 10
69.8059
 20
111.835
 30
0.0
 11
69.0065
 21
111.835
 31
0.0
  0
LINE
  8
0
 62
     0
 10
69.0065
 20
111.835
 30
0.0
 11
69.0065
 21
117.635
 31
0.0
  0
LINE
  8
0
 62
     0
 10
69.0065
 20
117.635
 30
0.0
 11
69.8059
 21
117.635
 31
0.0
  0
LINE
  8
0
 62
     0
 10
69.8059
 20
117.635
 30
0.0
 11
69.8059
 21
120.735
 31
0.0
  0
LINE
  8
0
 62
     0
 10
69.8059
 20
120.735
 30
0.0
 11
69.0065
 21
120.735
 31
0.0
  0
LINE
  8
0
 62
     0
 10
69.0065
 20
120.735
 30
0.0
 11
69.0065
 21
121.734
 31
0.0
  0
LINE
  8
0
 62
     0
 10
69.0065
 20
121.734
 30
0.0
 11
55.0072
 21
121.734
 31
0.0
  0
LINE
  8
0
 62
     0
 10
26.4322
 20
121.734
 30
0.0
 11
26.4322
 21
120.735
 31
0.0
  0
LINE
  8
0
 62
     0
 10
26.4322
 20
120.735
 30
0.0
 11
25.6315
 21
120.735
 31
0.0
  0
LINE
  8
0
 62
     0
 10
25.6315
 20
120.735
 30
0.0
 11
25.6315
 21
117.635
 31
0.0
  0
LINE
  8
0
 62
     0
 10
25.6315
 20
117.635
 30
0.0
 11
26.4322
 21
117.635
 31
0.0
  0
LINE
  8
0
 62
     0
 10
26.4322
 20
117.635
 30
0.0
 11
26.4322
 21
111.835
 31
0.0
  0
LINE
  8
0
 62
     0
 10
26.4322
 20
111.835
 30
0.0
 11
25.6315
 21
111.835
 31
0.0
  0
LINE
  8
0
 62
     0
 10
25.6315
 20
111.835
 30
0.0
 11
25.6315
 21
108.736
 31
0.0
  0
LINE
  8
0
 62
     0
 10
25.6315
 20
108.736
 30
0.0
 11
26.4322
 21
108.736
 31
0.0
  0
LINE
  8
0
 62
     0
 10
26.4322
 20
108.736
 30
0.0
 11
26.4322
 21
107.735
 31
0.0
  0
LINE
  8
0
 62
     0
 10
26.4322
 20
107.735
 30
0.0
 11
40.4315
 21
107.735
 31
0.0
  0
LINE
  8
0
 62
     0
 10
40.4315
 20
107.735
 30
0.0
 11
40.4315
 21
108.736
 31
0.0
  0
LINE
  8
0
 62
     0
 10
40.4315
 20
108.736
 30
0.0
 11
41.2309
 21
108.736
 31
0.0
  0
LINE
  8
0
 62
     0
 10
41.2309
 20
108.736
 30
0.0
 11
41.2309
 21
111.835
 31
0.0
  0
LINE
  8
0
 62
     0
 10
41.2309
 20
111.835
 30
0.0
 11
40.4315
 21
111.835
 31
0.0
  0
LINE
  8
0
 62
     0
 10
40.4315
 20
111.835
 30
0.0
 11
40.4315
 21
117.635
 31
0.0
  0
LINE
  8
0
 62
     0
 10
40.4315
 20
117.635
 30
0.0
 11
41.2309
 21
117.635
 31
0.0
  0
LINE
  8
0
 62
     0
 10
41.2309
 20
117.635
 30
0.0
 11
41.2309
 21
120.735
 31
0.0
  0
LINE
  8
0
 62
     0
 10
41.2309
 20
120.735
 30
0.0
 11
40.4315
 21
120.735
 31
0.0
  0
LINE
  8
0
 62
     0
 10
40.4315
 20
120.735
 30
0.0
 11
40.4315
 21
121.734
 31
0.0
  0
LINE
  8
0
 62
     0
 10
40.4315
 20
121.734
 30
0.0
 11
26.4322
 21
121.734
 31
0.0
  0
ENDSEC
  0
EOF
