  0
SECTION
  2
HEADER
  9
$ACADVER
  1
AC1009
  9
$INSBASE
 10
0
 20
0
 30
0
  9
$EXTMIN
 10
0
 20
0
  9
$EXTMAX
 10
841
 20
594
  9
$LIMMIN
 10
0
 20
0
  9
$LIMMAX
 10
841
 20
594
  9
$LTSCALE
 40
1
  0
ENDSEC
  0
SECTION
  2
TABLES
  0
TABLE
  2
LTYPE
 70
     9
  0
LTYPE
  2
CONTINUOUS
 70
    64
  3
実線
 72
    65
 73
     0
 40
0.0
  0
LTYPE
  2
DASHED1
 70
    64
  3
--  --  --  --  --  --  --  --  
 72
    65
 73
     2
 40
2.5
 49
1.25
 49
-1.25
  0
LTYPE
  2
DASHED2
 70
    64
  3
----    ----    ----    ----    
 72
    65
 73
     2
 40
5.0
 49
2.5
 49
-2.5
  0
LTYPE
  2
DASHED3
 70
    64
  3
------  ------  ------  ------  
 72
    65
 73
     2
 40
5.0
 49
3.75
 49
-1.25
  0
LTYPE
  2
CENTER1
 70
    64
  3
----- - ----- - ----- - ----- - 
 72
    65
 73
     4
 40
10.0
 49
6.25
 49
-1.25
 49
1.25
 49
-1.25
  0
LTYPE
  2
CENTER2
 70
    64
  3
----------  --  ----------  --  
 72
    65
 73
     4
 40
20.0
 49
12.5
 49
-2.5
 49
2.5
 49
-2.5
  0
LTYPE
  2
PHANTOM1
 70
    64
  3
--- - - --- - - --- - - --- - - 
 72
    65
 73
     6
 40
10.0
 49
3.25
 49
-1.25
 49
1.25
 49
-1.25
 49
1.25
 49
-1.25
  0
LTYPE
  2
PHANTOM2
 70
    64
  3
--------  -  -  --------  -  -  
 72
    65
 73
     6
 40
20.0
 49
10.0
 49
-2.5
 49
1.25
 49
-2.5
 49
1.25
 49
-2.5
  0
LTYPE
  2
DOT
 70
    64
  3
-   -   -   -   -   -   -   -   
 72
    65
 73
     2
 40
2.5
 49
0.625
 49
-1.875
  0
LTYPE
  2
DUMMY
 70
    64
  3
ダミー
 72
    65
 73
     0
 40
0.0
  0
LTYPE
  2
RAND1
 70
    64
  3
ランダム線1
 72
    65
 73
     4
 40
10.0
 49
1.0
 49
-2.0
 49
3.0
 49
-4.0
  0
LTYPE
  2
RAND2
 70
    64
  3
ランダム線2
 72
    65
 73
     4
 40
14.0
 49
2.0
 49
-3.0
 49
4.0
 49
-5.0
  0
LTYPE
  2
RAND3
 70
    64
  3
ランダム線3
 72
    65
 73
     4
 40
18.0
 49
3.0
 49
-4.0
 49
5.0
 49
-6.0
  0
LTYPE
  2
RAND4
 70
    64
  3
ランダム線4
 72
    65
 73
     4
 40
22.0
 49
4.0
 49
-5.0
 49
6.0
 49
-7.0
  0
LTYPE
  2
RAND5
 70
    64
  3
ランダム線5
 72
    65
 73
     4
 40
26.0
 49
5.0
 49
-6.0
 49
7.0
 49
-8.0
  0
LTYPE
  2
LONG1
 70
    64
  3
----------  --  ----------  --  
 72
    65
 73
     4
 40
40.0
 49
32.5
 49
-2.5
 49
2.5
 49
-2.5
  0
LTYPE
  2
LONG2
 70
    64
  3
--------  -  -  --------  -  -  
 72
    65
 73
     6
 40
40.0
 49
30.0
 49
-2.5
 49
1.25
 49
-2.5
 49
1.25
 49
-2.5
  0
LTYPE
  2
LONG3
 70
    64
  3
+++++++++++++++..+++++++++++++++
 72
    65
 73
     2
 40
40.0
 49
37.5
 49
-2.5
  0
LTYPE
  2
LONG4
 70
    64
  3
+++++++++++++++..+++++++++++++++
 72
    65
 73
     2
 40
80.0
 49
75.0
 49
-5.0
  0
LTYPE
  2
LONG5
 70
    64
  3
----------  --  ----------  --  
 72
    65
 73
     4
 40
60.0
 49
37.5
 49
-7.5
 49
7.5
 49
-7.5
  0
LTYPE
  2
dashed
 70
   64
  3
-------   -------------   ------
 72
   65
 73
    2
 40
7.5
 49
6
 49
-1.5
  0
LTYPE
  2
dashed_spaced
 70
   64
  3
----        --------        ----
 72
   65
 73
    2
 40
12
 49
6
 49
-6
  0
LTYPE
  2
long_dashed_dotted
 70
   64
  3
------------- --- --------------
 72
   65
 73
    4
 40
15.25
 49
12
 49
-1.5
 49
0.25
 49
-1.5
  0
LTYPE
  2
long_dashed_double-dotted
 70
   64
  3
----------- --- --- ------------
 72
   65
 73
    6
 40
17
 49
12
 49
-1.5
 49
0.25
 49
-1.5
 49
0.25
 49
-1.5
  0
LTYPE
  2
long_dashed_triplicate-dotted
 70
   64
  3
--------- --- --- --- ----------
 72
   65
 73
    8
 40
18.75
 49
12
 49
-1.5
 49
0.25
 49
-1.5
 49
0.25
 49
-1.5
 49
0.25
 49
-1.5
  0
LTYPE
  2
dotted
 70
   64
  3
   -       -       -       -    
 72
   65
 73
    2
 40
1.75
 49
0.25
 49
-1.5
  0
LTYPE
  2
chain
 70
   64
  3
-------------- -- --------------
 72
   65
 73
    4
 40
18.5
 49
12
 49
-1.5
 49
3.5
 49
-1.5
  0
LTYPE
  2
chain_double_dash
 70
   64
  3
------------ -- -- -------------
 72
   65
 73
    6
 40
23.5
 49
12
 49
-1.5
 49
3.5
 49
-1.5
 49
3.5
 49
-1.5
  0
LTYPE
  2
dashed_dotted
 70
   64
  3
-----------     -     ----------
 72
   65
 73
    4
 40
9.25
 49
6
 49
-1.5
 49
0.25
 49
-1.5
  0
LTYPE
  2
double-dashed_dotted
 70
   64
  3
------   -----------   -   -----
 72
   65
 73
    6
 40
16.75
 49
6
 49
-1.5
 49
6
 49
-1.5
 49
0.25
 49
-1.5
  0
LTYPE
  2
dashed_double-dotted
 70
   64
  3
---------    -    -    ---------
 72
   65
 73
    6
 40
11
 49
6
 49
-1.5
 49
0.25
 49
-1.5
 49
0.25
 49
-1.5
  0
LTYPE
  2
double-dashed_double-dotted
 70
   64
  3
-----   ---------   -   -   ----
 72
   65
 73
    8
 40
18.5
 49
6
 49
-1.5
 49
6
 49
-1.5
 49
0.25
 49
-1.5
 49
0.25
 49
-1.5
  0
LTYPE
  2
dashed_triplicate-dotted
 70
   64
  3
-------    -    -    -    ------
 72
   65
 73
    8
 40
12.75
 49
6
 49
-1.5
 49
0.25
 49
-1.5
 49
0.25
 49
-1.5
 49
0.25
 49
-1.5
  0
LTYPE
  2
double-dashed_triplicate-dotted
 70
   64
  3
-----  ---------  -  -  -  -----
 72
   65
 73
   10
 40
20.25
 49
6
 49
-1.5
 49
6
 49
-1.5
 49
0.25
 49
-1.5
 49
0.25
 49
-1.5
 49
0.25
 49
-1.5
  0
LTYPE
  2
undefined
 70
   64
  3
--------------------------------
 72
   65
 73
    0
 40
0
  0
LTYPE
  2
_
 70
   64
  3
                                
 72
   65
 73
    0
 40
0
  0
LTYPE
  2
__18
 70
   64
  3
                                
 72
   65
 73
    0
 40
0
  0
LTYPE
  2
__19
 70
   64
  3
                                
 72
   65
 73
    0
 40
0
  0
LTYPE
  2
__20
 70
   64
  3
                                
 72
   65
 73
    0
 40
0
  0
LTYPE
  2
__21
 70
   64
  3
                                
 72
   65
 73
    0
 40
0
  0
LTYPE
  2
__22
 70
   64
  3
                                
 72
   65
 73
    0
 40
0
  0
LTYPE
  2
__23
 70
   64
  3
                                
 72
   65
 73
    0
 40
0
  0
LTYPE
  2
__24
 70
   64
  3
                                
 72
   65
 73
    0
 40
0
  0
LTYPE
  2
__25
 70
   64
  3
                                
 72
   65
 73
    0
 40
0
  0
LTYPE
  2
__26
 70
   64
  3
                                
 72
   65
 73
    0
 40
0
  0
LTYPE
  2
__27
 70
   64
  3
                                
 72
   65
 73
    0
 40
0
  0
LTYPE
  2
__28
 70
   64
  3
                                
 72
   65
 73
    0
 40
0
  0
LTYPE
  2
__29
 70
   64
  3
                                
 72
   65
 73
    0
 40
0
  0
LTYPE
  2
__30
 70
   64
  3
                                
 72
   65
 73
    0
 40
0
  0
LTYPE
  2
__31
 70
   64
  3
                                
 72
   65
 73
    0
 40
0
  0
LTYPE
  2
__32
 70
   64
  3
                                
 72
   65
 73
    0
 40
0
  0
ENDTAB
  0
TABLE
  2
STYLE
  5
3
100
AcDbSymbolTable
 70
     1
  0
STYLE
  5
10
100
AcDbSymbolTableRecord
100
AcDbTextStyleTableRecord
  2
STANDARD
 70
     0
 40
0.0
 41
1.0
 50
0.0
 71
     0
 42
0.2
  3
txt
  4
bigfont.shx
  0
STYLE
  5
26
100
AcDbSymbolTableRecord
100
AcDbTextStyleTableRecord
  2
TATEGAKI
 70
    68
 40
0.0
 41
1.0
 50
0.0
 71
     0
 42
1.0
  3
txt
  4
bigfont.shx
  0
ENDTAB
  0
TABLE
  2
LAYER
 70
    2
  0
LAYER
  2
_0-0_
 70
   64
 62
    7
  6
CONTINUOUS
  0
LAYER
  2
ADD_LINE
 70
   64
 62
    7
  6
CONTINUOUS
  0
ENDTAB
  0
ENDSEC
  0
SECTION
  2
BLOCKS
  0
ENDSEC
  0
SECTION
  2
ENTITIES
  0
LINE
  8
_0-0_
  6
CONTINUOUS
 62
    7
 10
154.06654713187129
 20
238.07439417560224
 11
154.06654713187129
 21
365.8991291756023
  0
LINE
  8
_0-0_
  6
CONTINUOUS
 62
    7
 10
157.06654713187129
 20
368.8991291756023
 11
320.22841463187126
 21
368.8991291756023
  0
ARC
  8
_0-0_
  6
CONTINUOUS
 62
    7
 10
157.06654713187129
 20
365.8991291756023
 40
3
 50
90
 51
180
  0
LINE
  8
_0-0_
  6
CONTINUOUS
 62
    7
 10
297.32312213187129
 20
256.59912917560229
 11
311.32212213187131
 21
256.59912917560229
  0
LINE
  8
_0-0_
  6
CONTINUOUS
 62
    7
 10
311.32212213187131
 20
256.59912917560229
 11
311.32212213187131
 21
242.59965917560228
  0
LINE
  8
_0-0_
  6
CONTINUOUS
 62
    7
 10
311.32212213187131
 20
242.59965917560228
 11
297.32312213187129
 21
242.59965917560228
  0
LINE
  8
_0-0_
  6
CONTINUOUS
 62
    7
 10
297.32312213187129
 20
242.59965917560228
 11
297.32312213187129
 21
256.59912917560229
  0
LINE
  8
_0-0_
  6
CONTINUOUS
 62
    7
 10
275.89212213187125
 20
256.59912917560229
 11
289.89112213187127
 21
256.59912917560229
  0
LINE
  8
_0-0_
  6
CONTINUOUS
 62
    7
 10
289.89112213187127
 20
256.59912917560229
 11
289.89112213187127
 21
242.59965917560228
  0
LINE
  8
_0-0_
  6
CONTINUOUS
 62
    7
 10
289.89112213187127
 20
242.59965917560228
 11
275.89212213187125
 21
242.59965917560228
  0
LINE
  8
_0-0_
  6
CONTINUOUS
 62
    7
 10
275.89212213187125
 20
242.59965917560228
 11
275.89212213187125
 21
256.59912917560229
  0
LINE
  8
_0-0_
  6
CONTINUOUS
 62
    7
 10
256.84182213187125
 20
256.59912917560229
 11
270.84112213187132
 21
256.59912917560229
  0
LINE
  8
_0-0_
  6
CONTINUOUS
 62
    7
 10
270.84112213187132
 20
256.59912917560229
 11
270.84112213187132
 21
242.59965917560228
  0
LINE
  8
_0-0_
  6
CONTINUOUS
 62
    7
 10
270.84112213187132
 20
242.59965917560228
 11
256.84182213187125
 21
242.59965917560228
  0
LINE
  8
_0-0_
  6
CONTINUOUS
 62
    7
 10
256.84182213187125
 20
242.59965917560228
 11
256.84182213187125
 21
256.59912917560229
  0
LINE
  8
_0-0_
  6
CONTINUOUS
 62
    7
 10
235.40922213187125
 20
256.59912917560229
 11
249.40992213187124
 21
256.59912917560229
  0
LINE
  8
_0-0_
  6
CONTINUOUS
 62
    7
 10
249.40992213187124
 20
256.59912917560229
 11
249.40992213187124
 21
242.59965917560228
  0
LINE
  8
_0-0_
  6
CONTINUOUS
 62
    7
 10
249.40992213187124
 20
242.59965917560228
 11
235.40922213187125
 21
242.59965917560228
  0
LINE
  8
_0-0_
  6
CONTINUOUS
 62
    7
 10
235.40922213187125
 20
242.59965917560228
 11
235.40922213187125
 21
256.59912917560229
  0
LINE
  8
_0-0_
  6
CONTINUOUS
 62
    7
 10
211.59812213187124
 20
256.59912917560229
 11
225.59742213187124
 21
256.59912917560229
  0
LINE
  8
_0-0_
  6
CONTINUOUS
 62
    7
 10
225.59742213187124
 20
256.59912917560229
 11
225.59742213187124
 21
242.59965917560228
  0
LINE
  8
_0-0_
  6
CONTINUOUS
 62
    7
 10
225.59742213187124
 20
242.59965917560228
 11
211.59812213187124
 21
242.59965917560228
  0
LINE
  8
_0-0_
  6
CONTINUOUS
 62
    7
 10
211.59812213187124
 20
242.59965917560228
 11
211.59812213187124
 21
256.59912917560229
  0
LINE
  8
_0-0_
  6
CONTINUOUS
 62
    7
 10
187.7841221318713
 20
256.59912917560229
 11
201.78492213187127
 21
256.59912917560229
  0
LINE
  8
_0-0_
  6
CONTINUOUS
 62
    7
 10
201.78492213187127
 20
256.59912917560229
 11
201.78492213187127
 21
242.59965917560228
  0
LINE
  8
_0-0_
  6
CONTINUOUS
 62
    7
 10
201.78492213187127
 20
242.59965917560228
 11
187.7841221318713
 21
242.59965917560228
  0
LINE
  8
_0-0_
  6
CONTINUOUS
 62
    7
 10
187.7841221318713
 20
242.59965917560228
 11
187.7841221318713
 21
256.59912917560229
  0
LINE
  8
_0-0_
  6
CONTINUOUS
 62
    7
 10
161.59177213187127
 20
256.59912917560229
 11
175.59132213187127
 21
256.59912917560229
  0
LINE
  8
_0-0_
  6
CONTINUOUS
 62
    7
 10
175.59132213187127
 20
256.59912917560229
 11
175.59132213187127
 21
242.59965917560228
  0
LINE
  8
_0-0_
  6
CONTINUOUS
 62
    7
 10
175.59132213187127
 20
242.59965917560228
 11
161.59177213187127
 21
242.59965917560228
  0
LINE
  8
_0-0_
  6
CONTINUOUS
 62
    7
 10
161.59177213187127
 20
242.59965917560228
 11
161.59177213187127
 21
256.59912917560229
  0
LINE
  8
_0-0_
  6
CONTINUOUS
 62
    7
 10
194.92932213187129
 20
275.64902917560232
 11
194.92932213187129
 21
270.95002917560231
  0
LINE
  8
_0-0_
  6
CONTINUOUS
 62
    7
 10
194.92932213187129
 20
270.95002917560231
 11
193.40382213187127
 21
270.95002917560231
  0
LINE
  8
_0-0_
  6
CONTINUOUS
 62
    7
 10
193.40382213187127
 20
270.95002917560231
 11
193.40382213187127
 21
274.1801291756023
  0
LINE
  8
_0-0_
  6
CONTINUOUS
 62
    7
 10
193.40382213187127
 20
274.1801291756023
 11
191.67842213187129
 21
274.1801291756023
  0
LINE
  8
_0-0_
  6
CONTINUOUS
 62
    7
 10
191.67842213187129
 20
274.1801291756023
 11
191.67842213187129
 21
275.09942917560227
  0
LINE
  8
_0-0_
  6
CONTINUOUS
 62
    7
 10
191.67842213187129
 20
275.09942917560227
 11
188.37812213187129
 21
275.09942917560227
  0
LINE
  8
_0-0_
  6
CONTINUOUS
 62
    7
 10
188.37812213187129
 20
275.09942917560227
 11
188.37812213187129
 21
274.1801291756023
  0
LINE
  8
_0-0_
  6
CONTINUOUS
 62
    7
 10
188.37812213187129
 20
274.1801291756023
 11
186.65422213187128
 21
274.1801291756023
  0
LINE
  8
_0-0_
  6
CONTINUOUS
 62
    7
 10
186.65422213187128
 20
274.1801291756023
 11
186.65422213187128
 21
270.95002917560231
  0
LINE
  8
_0-0_
  6
CONTINUOUS
 62
    7
 10
186.65422213187128
 20
270.95002917560231
 11
185.8287221318713
 21
270.95002917560231
  0
LINE
  8
_0-0_
  6
CONTINUOUS
 62
    7
 10
185.8287221318713
 20
270.95002917560231
 11
185.8287221318713
 21
268.14982917560229
  0
LINE
  8
_0-0_
  6
CONTINUOUS
 62
    7
 10
185.8287221318713
 20
268.14982917560229
 11
186.65422213187128
 21
268.14982917560229
  0
LINE
  8
_0-0_
  6
CONTINUOUS
 62
    7
 10
186.65422213187128
 20
268.14982917560229
 11
186.65422213187128
 21
261.87982917560231
  0
LINE
  8
_0-0_
  6
CONTINUOUS
 62
    7
 10
186.65422213187128
 20
261.87982917560231
 11
188.37812213187129
 21
261.87982917560231
  0
LINE
  8
_0-0_
  6
CONTINUOUS
 62
    7
 10
188.37812213187129
 20
261.87982917560231
 11
188.37812213187129
 21
260.9000291756023
  0
LINE
  8
_0-0_
  6
CONTINUOUS
 62
    7
 10
188.37812213187129
 20
260.9000291756023
 11
191.67842213187129
 21
260.9000291756023
  0
LINE
  8
_0-0_
  6
CONTINUOUS
 62
    7
 10
191.67842213187129
 20
260.9000291756023
 11
191.67842213187129
 21
261.87982917560231
  0
LINE
  8
_0-0_
  6
CONTINUOUS
 62
    7
 10
191.67842213187129
 20
261.87982917560231
 11
193.40382213187127
 21
261.87982917560231
  0
LINE
  8
_0-0_
  6
CONTINUOUS
 62
    7
 10
193.40382213187127
 20
261.87982917560231
 11
193.40382213187127
 21
266.35012917560232
  0
LINE
  8
_0-0_
  6
CONTINUOUS
 62
    7
 10
193.40382213187127
 20
266.35012917560232
 11
194.92932213187129
 21
266.35012917560232
  0
LINE
  8
_0-0_
  6
CONTINUOUS
 62
    7
 10
194.92932213187129
 20
266.35012917560232
 11
194.92932213187129
 21
261.64962917560229
  0
LINE
  8
_0-0_
  6
CONTINUOUS
 62
    7
 10
194.92932213187129
 20
261.64962917560229
 11
208.92862213187129
 21
261.64962917560229
  0
LINE
  8
_0-0_
  6
CONTINUOUS
 62
    7
 10
208.92862213187129
 20
261.64962917560229
 11
208.92862213187129
 21
266.35012917560232
  0
LINE
  8
_0-0_
  6
CONTINUOUS
 62
    7
 10
208.92862213187129
 20
266.35012917560232
 11
210.45442213187127
 21
266.35012917560232
  0
LINE
  8
_0-0_
  6
CONTINUOUS
 62
    7
 10
210.45442213187127
 20
266.35012917560232
 11
210.45442213187127
 21
261.87982917560231
  0
LINE
  8
_0-0_
  6
CONTINUOUS
 62
    7
 10
210.45442213187127
 20
261.87982917560231
 11
212.17802213187124
 21
261.87982917560231
  0
LINE
  8
_0-0_
  6
CONTINUOUS
 62
    7
 10
212.17802213187124
 20
261.87982917560231
 11
212.17802213187124
 21
260.9000291756023
  0
LINE
  8
_0-0_
  6
CONTINUOUS
 62
    7
 10
212.17802213187124
 20
260.9000291756023
 11
215.47862213187128
 21
260.9000291756023
  0
LINE
  8
_0-0_
  6
CONTINUOUS
 62
    7
 10
215.47862213187128
 20
260.9000291756023
 11
215.47862213187128
 21
261.87982917560231
  0
LINE
  8
_0-0_
  6
CONTINUOUS
 62
    7
 10
215.47862213187128
 20
261.87982917560231
 11
217.20372213187127
 21
261.87982917560231
  0
LINE
  8
_0-0_
  6
CONTINUOUS
 62
    7
 10
217.20372213187127
 20
261.87982917560231
 11
217.20372213187127
 21
268.14982917560229
  0
LINE
  8
_0-0_
  6
CONTINUOUS
 62
    7
 10
217.20372213187127
 20
268.14982917560229
 11
218.02782213187126
 21
268.14982917560229
  0
LINE
  8
_0-0_
  6
CONTINUOUS
 62
    7
 10
218.02782213187126
 20
268.14982917560229
 11
218.02782213187126
 21
270.95002917560231
  0
LINE
  8
_0-0_
  6
CONTINUOUS
 62
    7
 10
218.02782213187126
 20
270.95002917560231
 11
217.20372213187127
 21
270.95002917560231
  0
LINE
  8
_0-0_
  6
CONTINUOUS
 62
    7
 10
217.20372213187127
 20
270.95002917560231
 11
217.20372213187127
 21
274.1801291756023
  0
LINE
  8
_0-0_
  6
CONTINUOUS
 62
    7
 10
217.20372213187127
 20
274.1801291756023
 11
215.47862213187128
 21
274.1801291756023
  0
LINE
  8
_0-0_
  6
CONTINUOUS
 62
    7
 10
215.47862213187128
 20
274.1801291756023
 11
215.47862213187128
 21
275.09942917560227
  0
LINE
  8
_0-0_
  6
CONTINUOUS
 62
    7
 10
215.47862213187128
 20
275.09942917560227
 11
212.17802213187124
 21
275.09942917560227
  0
LINE
  8
_0-0_
  6
CONTINUOUS
 62
    7
 10
212.17802213187124
 20
275.09942917560227
 11
212.17802213187124
 21
274.1801291756023
  0
LINE
  8
_0-0_
  6
CONTINUOUS
 62
    7
 10
212.17802213187124
 20
274.1801291756023
 11
210.45442213187127
 21
274.1801291756023
  0
LINE
  8
_0-0_
  6
CONTINUOUS
 62
    7
 10
210.45442213187127
 20
274.1801291756023
 11
210.45442213187127
 21
270.95002917560231
  0
LINE
  8
_0-0_
  6
CONTINUOUS
 62
    7
 10
210.45442213187127
 20
270.95002917560231
 11
208.92862213187129
 21
270.95002917560231
  0
LINE
  8
_0-0_
  6
CONTINUOUS
 62
    7
 10
208.92862213187129
 20
270.95002917560231
 11
208.92862213187129
 21
275.64902917560232
  0
LINE
  8
_0-0_
  6
CONTINUOUS
 62
    7
 10
208.92862213187129
 20
275.64902917560232
 11
194.92932213187129
 21
275.64902917560232
  0
LINE
  8
_0-0_
  6
CONTINUOUS
 62
    7
 10
299.70412213187126
 20
275.64902917560232
 11
313.70412213187126
 21
275.64902917560232
  0
LINE
  8
_0-0_
  6
CONTINUOUS
 62
    7
 10
313.70412213187126
 20
275.64902917560232
 11
313.70412213187126
 21
261.64962917560229
  0
LINE
  8
_0-0_
  6
CONTINUOUS
 62
    7
 10
313.70412213187126
 20
261.64962917560229
 11
299.70412213187126
 21
261.64962917560229
  0
LINE
  8
_0-0_
  6
CONTINUOUS
 62
    7
 10
299.70412213187126
 20
261.64962917560229
 11
299.70412213187126
 21
275.64902917560232
  0
LINE
  8
_0-0_
  6
CONTINUOUS
 62
    7
 10
280.6541221318713
 20
275.64902917560232
 11
294.6541221318713
 21
275.64902917560232
  0
LINE
  8
_0-0_
  6
CONTINUOUS
 62
    7
 10
294.6541221318713
 20
275.64902917560232
 11
294.6541221318713
 21
261.64962917560229
  0
LINE
  8
_0-0_
  6
CONTINUOUS
 62
    7
 10
294.6541221318713
 20
261.64962917560229
 11
280.6541221318713
 21
261.64962917560229
  0
LINE
  8
_0-0_
  6
CONTINUOUS
 62
    7
 10
280.6541221318713
 20
261.64962917560229
 11
280.6541221318713
 21
275.64902917560232
  0
LINE
  8
_0-0_
  6
CONTINUOUS
 62
    7
 10
261.60412213187124
 20
275.64902917560232
 11
275.60412213187124
 21
275.64902917560232
  0
LINE
  8
_0-0_
  6
CONTINUOUS
 62
    7
 10
275.60412213187124
 20
275.64902917560232
 11
275.60412213187124
 21
261.64962917560229
  0
LINE
  8
_0-0_
  6
CONTINUOUS
 62
    7
 10
275.60412213187124
 20
261.64962917560229
 11
261.60412213187124
 21
261.64962917560229
  0
LINE
  8
_0-0_
  6
CONTINUOUS
 62
    7
 10
261.60412213187124
 20
261.64962917560229
 11
261.60412213187124
 21
275.64902917560232
  0
LINE
  8
_0-0_
  6
CONTINUOUS
 62
    7
 10
242.55432213187126
 20
275.64902917560232
 11
256.55362213187129
 21
275.64902917560232
  0
LINE
  8
_0-0_
  6
CONTINUOUS
 62
    7
 10
256.55362213187129
 20
275.64902917560232
 11
256.55362213187129
 21
261.64962917560229
  0
LINE
  8
_0-0_
  6
CONTINUOUS
 62
    7
 10
256.55362213187129
 20
261.64962917560229
 11
242.55432213187126
 21
261.64962917560229
  0
LINE
  8
_0-0_
  6
CONTINUOUS
 62
    7
 10
242.55432213187126
 20
261.64962917560229
 11
242.55432213187126
 21
275.64902917560232
  0
LINE
  8
_0-0_
  6
CONTINUOUS
 62
    7
 10
223.50432213187125
 20
275.64902917560232
 11
237.50362213187125
 21
275.64902917560232
  0
LINE
  8
_0-0_
  6
CONTINUOUS
 62
    7
 10
237.50362213187125
 20
275.64902917560232
 11
237.50362213187125
 21
261.64962917560229
  0
LINE
  8
_0-0_
  6
CONTINUOUS
 62
    7
 10
237.50362213187125
 20
261.64962917560229
 11
223.50432213187125
 21
261.64962917560229
  0
LINE
  8
_0-0_
  6
CONTINUOUS
 62
    7
 10
223.50432213187125
 20
261.64962917560229
 11
223.50432213187125
 21
275.64902917560232
  0
LINE
  8
_0-0_
  6
CONTINUOUS
 62
    7
 10
161.59177213187127
 20
275.64902917560232
 11
175.59132213187127
 21
275.64902917560232
  0
LINE
  8
_0-0_
  6
CONTINUOUS
 62
    7
 10
175.59132213187127
 20
275.64902917560232
 11
175.59132213187127
 21
261.64962917560229
  0
LINE
  8
_0-0_
  6
CONTINUOUS
 62
    7
 10
175.59132213187127
 20
261.64962917560229
 11
161.59177213187127
 21
261.64962917560229
  0
LINE
  8
_0-0_
  6
CONTINUOUS
 62
    7
 10
161.59177213187127
 20
261.64962917560229
 11
161.59177213187127
 21
275.64902917560232
  0
LINE
  8
_0-0_
  6
CONTINUOUS
 62
    7
 10
294.94212213187132
 20
294.69902917560228
 11
308.94112213187123
 21
294.69902917560228
  0
LINE
  8
_0-0_
  6
CONTINUOUS
 62
    7
 10
308.94112213187123
 20
294.69902917560228
 11
308.94112213187123
 21
280.6998291756023
  0
LINE
  8
_0-0_
  6
CONTINUOUS
 62
    7
 10
308.94112213187123
 20
280.6998291756023
 11
294.94212213187132
 21
280.6998291756023
  0
LINE
  8
_0-0_
  6
CONTINUOUS
 62
    7
 10
294.94212213187132
 20
280.6998291756023
 11
294.94212213187132
 21
294.69902917560228
  0
LINE
  8
_0-0_
  6
CONTINUOUS
 62
    7
 10
275.89212213187125
 20
294.69902917560228
 11
289.89112213187127
 21
294.69902917560228
  0
LINE
  8
_0-0_
  6
CONTINUOUS
 62
    7
 10
289.89112213187127
 20
294.69902917560228
 11
289.89112213187127
 21
280.6998291756023
  0
LINE
  8
_0-0_
  6
CONTINUOUS
 62
    7
 10
289.89112213187127
 20
280.6998291756023
 11
275.89212213187125
 21
280.6998291756023
  0
LINE
  8
_0-0_
  6
CONTINUOUS
 62
    7
 10
275.89212213187125
 20
280.6998291756023
 11
275.89212213187125
 21
294.69902917560228
  0
LINE
  8
_0-0_
  6
CONTINUOUS
 62
    7
 10
256.84182213187125
 20
294.69902917560228
 11
270.84112213187132
 21
294.69902917560228
  0
LINE
  8
_0-0_
  6
CONTINUOUS
 62
    7
 10
270.84112213187132
 20
294.69902917560228
 11
270.84112213187132
 21
280.6998291756023
  0
LINE
  8
_0-0_
  6
CONTINUOUS
 62
    7
 10
270.84112213187132
 20
280.6998291756023
 11
256.84182213187125
 21
280.6998291756023
  0
LINE
  8
_0-0_
  6
CONTINUOUS
 62
    7
 10
256.84182213187125
 20
280.6998291756023
 11
256.84182213187125
 21
294.69902917560228
  0
LINE
  8
_0-0_
  6
CONTINUOUS
 62
    7
 10
237.79182213187127
 20
294.69902917560228
 11
251.79112213187128
 21
294.69902917560228
  0
LINE
  8
_0-0_
  6
CONTINUOUS
 62
    7
 10
251.79112213187128
 20
294.69902917560228
 11
251.79112213187128
 21
280.6998291756023
  0
LINE
  8
_0-0_
  6
CONTINUOUS
 62
    7
 10
251.79112213187128
 20
280.6998291756023
 11
237.79182213187127
 21
280.6998291756023
  0
LINE
  8
_0-0_
  6
CONTINUOUS
 62
    7
 10
237.79182213187127
 20
280.6998291756023
 11
237.79182213187127
 21
294.69902917560228
  0
LINE
  8
_0-0_
  6
CONTINUOUS
 62
    7
 10
218.74182213187126
 20
294.69902917560228
 11
232.74112213187126
 21
294.69902917560228
  0
LINE
  8
_0-0_
  6
CONTINUOUS
 62
    7
 10
232.74112213187126
 20
294.69902917560228
 11
232.74112213187126
 21
280.6998291756023
  0
LINE
  8
_0-0_
  6
CONTINUOUS
 62
    7
 10
232.74112213187126
 20
280.6998291756023
 11
218.74182213187126
 21
280.6998291756023
  0
LINE
  8
_0-0_
  6
CONTINUOUS
 62
    7
 10
218.74182213187126
 20
280.6998291756023
 11
218.74182213187126
 21
294.69902917560228
  0
LINE
  8
_0-0_
  6
CONTINUOUS
 62
    7
 10
192.54802213187128
 20
294.69902917560228
 11
206.54742213187126
 21
294.69902917560228
  0
LINE
  8
_0-0_
  6
CONTINUOUS
 62
    7
 10
206.54742213187126
 20
294.69902917560228
 11
206.54742213187126
 21
280.6998291756023
  0
LINE
  8
_0-0_
  6
CONTINUOUS
 62
    7
 10
206.54742213187126
 20
280.6998291756023
 11
192.54802213187128
 21
280.6998291756023
  0
LINE
  8
_0-0_
  6
CONTINUOUS
 62
    7
 10
192.54802213187128
 20
280.6998291756023
 11
192.54802213187128
 21
294.69902917560228
  0
LINE
  8
_0-0_
  6
CONTINUOUS
 62
    7
 10
161.59177213187127
 20
294.69902917560228
 11
175.59132213187127
 21
294.69902917560228
  0
LINE
  8
_0-0_
  6
CONTINUOUS
 62
    7
 10
175.59132213187127
 20
294.69902917560228
 11
175.59132213187127
 21
280.6998291756023
  0
LINE
  8
_0-0_
  6
CONTINUOUS
 62
    7
 10
175.59132213187127
 20
280.6998291756023
 11
161.59177213187127
 21
280.6998291756023
  0
LINE
  8
_0-0_
  6
CONTINUOUS
 62
    7
 10
161.59177213187127
 20
280.6998291756023
 11
161.59177213187127
 21
294.69902917560228
  0
LINE
  8
_0-0_
  6
CONTINUOUS
 62
    7
 10
290.17912213187128
 20
313.74902917560229
 11
304.17912213187128
 21
313.74902917560229
  0
LINE
  8
_0-0_
  6
CONTINUOUS
 62
    7
 10
304.17912213187128
 20
313.74902917560229
 11
304.17912213187128
 21
299.74982917560231
  0
LINE
  8
_0-0_
  6
CONTINUOUS
 62
    7
 10
304.17912213187128
 20
299.74982917560231
 11
290.17912213187128
 21
299.74982917560231
  0
LINE
  8
_0-0_
  6
CONTINUOUS
 62
    7
 10
290.17912213187128
 20
299.74982917560231
 11
290.17912213187128
 21
313.74902917560229
  0
LINE
  8
_0-0_
  6
CONTINUOUS
 62
    7
 10
271.12912213187121
 20
313.74902917560229
 11
285.12912213187121
 21
313.74902917560229
  0
LINE
  8
_0-0_
  6
CONTINUOUS
 62
    7
 10
285.12912213187121
 20
313.74902917560229
 11
285.12912213187121
 21
299.74982917560231
  0
LINE
  8
_0-0_
  6
CONTINUOUS
 62
    7
 10
285.12912213187121
 20
299.74982917560231
 11
271.12912213187121
 21
299.74982917560231
  0
LINE
  8
_0-0_
  6
CONTINUOUS
 62
    7
 10
271.12912213187121
 20
299.74982917560231
 11
271.12912213187121
 21
313.74902917560229
  0
LINE
  8
_0-0_
  6
CONTINUOUS
 62
    7
 10
252.07932213187129
 20
313.74902917560229
 11
266.07912213187126
 21
313.74902917560229
  0
LINE
  8
_0-0_
  6
CONTINUOUS
 62
    7
 10
266.07912213187126
 20
313.74902917560229
 11
266.07912213187126
 21
299.74982917560231
  0
LINE
  8
_0-0_
  6
CONTINUOUS
 62
    7
 10
266.07912213187126
 20
299.74982917560231
 11
252.07932213187129
 21
299.74982917560231
  0
LINE
  8
_0-0_
  6
CONTINUOUS
 62
    7
 10
252.07932213187129
 20
299.74982917560231
 11
252.07932213187129
 21
313.74902917560229
  0
LINE
  8
_0-0_
  6
CONTINUOUS
 62
    7
 10
233.02932213187123
 20
313.74902917560229
 11
247.02862213187129
 21
313.74902917560229
  0
LINE
  8
_0-0_
  6
CONTINUOUS
 62
    7
 10
247.02862213187129
 20
313.74902917560229
 11
247.02862213187129
 21
299.74982917560231
  0
LINE
  8
_0-0_
  6
CONTINUOUS
 62
    7
 10
247.02862213187129
 20
299.74982917560231
 11
233.02932213187123
 21
299.74982917560231
  0
LINE
  8
_0-0_
  6
CONTINUOUS
 62
    7
 10
233.02932213187123
 20
299.74982917560231
 11
233.02932213187123
 21
313.74902917560229
  0
LINE
  8
_0-0_
  6
CONTINUOUS
 62
    7
 10
213.97932213187127
 20
313.74902917560229
 11
227.97862213187128
 21
313.74902917560229
  0
LINE
  8
_0-0_
  6
CONTINUOUS
 62
    7
 10
227.97862213187128
 20
313.74902917560229
 11
227.97862213187128
 21
299.74982917560231
  0
LINE
  8
_0-0_
  6
CONTINUOUS
 62
    7
 10
227.97862213187128
 20
299.74982917560231
 11
213.97932213187127
 21
299.74982917560231
  0
LINE
  8
_0-0_
  6
CONTINUOUS
 62
    7
 10
213.97932213187127
 20
299.74982917560231
 11
213.97932213187127
 21
313.74902917560229
  0
LINE
  8
_0-0_
  6
CONTINUOUS
 62
    7
 10
190.1668221318713
 20
313.74902917560229
 11
204.1661221318713
 21
313.74902917560229
  0
LINE
  8
_0-0_
  6
CONTINUOUS
 62
    7
 10
204.1661221318713
 20
313.74902917560229
 11
204.1661221318713
 21
299.74982917560231
  0
LINE
  8
_0-0_
  6
CONTINUOUS
 62
    7
 10
204.1661221318713
 20
299.74982917560231
 11
190.1668221318713
 21
299.74982917560231
  0
LINE
  8
_0-0_
  6
CONTINUOUS
 62
    7
 10
190.1668221318713
 20
299.74982917560231
 11
190.1668221318713
 21
313.74902917560229
  0
LINE
  8
_0-0_
  6
CONTINUOUS
 62
    7
 10
161.59177213187127
 20
313.74902917560229
 11
175.59132213187127
 21
313.74902917560229
  0
LINE
  8
_0-0_
  6
CONTINUOUS
 62
    7
 10
175.59132213187127
 20
313.74902917560229
 11
175.59132213187127
 21
299.74982917560231
  0
LINE
  8
_0-0_
  6
CONTINUOUS
 62
    7
 10
175.59132213187127
 20
299.74982917560231
 11
161.59177213187127
 21
299.74982917560231
  0
LINE
  8
_0-0_
  6
CONTINUOUS
 62
    7
 10
161.59177213187127
 20
299.74982917560231
 11
161.59177213187127
 21
313.74902917560229
  0
LINE
  8
_0-0_
  6
CONTINUOUS
 62
    7
 10
299.70412213187126
 20
332.7990291756023
 11
313.70412213187126
 21
332.7990291756023
  0
LINE
  8
_0-0_
  6
CONTINUOUS
 62
    7
 10
313.70412213187126
 20
332.7990291756023
 11
313.70412213187126
 21
318.79982917560233
  0
LINE
  8
_0-0_
  6
CONTINUOUS
 62
    7
 10
313.70412213187126
 20
318.79982917560233
 11
299.70412213187126
 21
318.79982917560233
  0
LINE
  8
_0-0_
  6
CONTINUOUS
 62
    7
 10
299.70412213187126
 20
318.79982917560233
 11
299.70412213187126
 21
332.7990291756023
  0
LINE
  8
_0-0_
  6
CONTINUOUS
 62
    7
 10
280.6541221318713
 20
332.7990291756023
 11
294.6541221318713
 21
332.7990291756023
  0
LINE
  8
_0-0_
  6
CONTINUOUS
 62
    7
 10
294.6541221318713
 20
332.7990291756023
 11
294.6541221318713
 21
318.79982917560233
  0
LINE
  8
_0-0_
  6
CONTINUOUS
 62
    7
 10
294.6541221318713
 20
318.79982917560233
 11
280.6541221318713
 21
318.79982917560233
  0
LINE
  8
_0-0_
  6
CONTINUOUS
 62
    7
 10
280.6541221318713
 20
318.79982917560233
 11
280.6541221318713
 21
332.7990291756023
  0
LINE
  8
_0-0_
  6
CONTINUOUS
 62
    7
 10
261.60412213187124
 20
332.7990291756023
 11
275.60412213187124
 21
332.7990291756023
  0
LINE
  8
_0-0_
  6
CONTINUOUS
 62
    7
 10
275.60412213187124
 20
332.7990291756023
 11
275.60412213187124
 21
318.79982917560233
  0
LINE
  8
_0-0_
  6
CONTINUOUS
 62
    7
 10
275.60412213187124
 20
318.79982917560233
 11
261.60412213187124
 21
318.79982917560233
  0
LINE
  8
_0-0_
  6
CONTINUOUS
 62
    7
 10
261.60412213187124
 20
318.79982917560233
 11
261.60412213187124
 21
332.7990291756023
  0
LINE
  8
_0-0_
  6
CONTINUOUS
 62
    7
 10
242.55432213187126
 20
332.7990291756023
 11
256.55362213187129
 21
332.7990291756023
  0
LINE
  8
_0-0_
  6
CONTINUOUS
 62
    7
 10
256.55362213187129
 20
332.7990291756023
 11
256.55362213187129
 21
318.79982917560233
  0
LINE
  8
_0-0_
  6
CONTINUOUS
 62
    7
 10
256.55362213187129
 20
318.79982917560233
 11
242.55432213187126
 21
318.79982917560233
  0
LINE
  8
_0-0_
  6
CONTINUOUS
 62
    7
 10
242.55432213187126
 20
318.79982917560233
 11
242.55432213187126
 21
332.7990291756023
  0
LINE
  8
_0-0_
  6
CONTINUOUS
 62
    7
 10
223.50432213187125
 20
332.7990291756023
 11
237.50362213187125
 21
332.7990291756023
  0
LINE
  8
_0-0_
  6
CONTINUOUS
 62
    7
 10
237.50362213187125
 20
332.7990291756023
 11
237.50362213187125
 21
318.79982917560233
  0
LINE
  8
_0-0_
  6
CONTINUOUS
 62
    7
 10
237.50362213187125
 20
318.79982917560233
 11
223.50432213187125
 21
318.79982917560233
  0
LINE
  8
_0-0_
  6
CONTINUOUS
 62
    7
 10
223.50432213187125
 20
318.79982917560233
 11
223.50432213187125
 21
332.7990291756023
  0
LINE
  8
_0-0_
  6
CONTINUOUS
 62
    7
 10
204.45432213187127
 20
332.7990291756023
 11
218.45362213187124
 21
332.7990291756023
  0
LINE
  8
_0-0_
  6
CONTINUOUS
 62
    7
 10
218.45362213187124
 20
332.7990291756023
 11
218.45362213187124
 21
318.79982917560233
  0
LINE
  8
_0-0_
  6
CONTINUOUS
 62
    7
 10
218.45362213187124
 20
318.79982917560233
 11
204.45432213187127
 21
318.79982917560233
  0
LINE
  8
_0-0_
  6
CONTINUOUS
 62
    7
 10
204.45432213187127
 20
318.79982917560233
 11
204.45432213187127
 21
332.7990291756023
  0
LINE
  8
_0-0_
  6
CONTINUOUS
 62
    7
 10
185.40432213187131
 20
332.7990291756023
 11
199.40362213187132
 21
332.7990291756023
  0
LINE
  8
_0-0_
  6
CONTINUOUS
 62
    7
 10
199.40362213187132
 20
332.7990291756023
 11
199.40362213187132
 21
318.79982917560233
  0
LINE
  8
_0-0_
  6
CONTINUOUS
 62
    7
 10
199.40362213187132
 20
318.79982917560233
 11
185.40432213187131
 21
318.79982917560233
  0
LINE
  8
_0-0_
  6
CONTINUOUS
 62
    7
 10
185.40432213187131
 20
318.79982917560233
 11
185.40432213187131
 21
332.7990291756023
  0
LINE
  8
_0-0_
  6
CONTINUOUS
 62
    7
 10
161.59177213187127
 20
332.7990291756023
 11
175.59132213187127
 21
332.7990291756023
  0
LINE
  8
_0-0_
  6
CONTINUOUS
 62
    7
 10
175.59132213187127
 20
332.7990291756023
 11
175.59132213187127
 21
318.79982917560233
  0
LINE
  8
_0-0_
  6
CONTINUOUS
 62
    7
 10
175.59132213187127
 20
318.79982917560233
 11
161.59177213187127
 21
318.79982917560233
  0
LINE
  8
_0-0_
  6
CONTINUOUS
 62
    7
 10
161.59177213187127
 20
318.79982917560233
 11
161.59177213187127
 21
332.7990291756023
  0
LINE
  8
_0-0_
  6
CONTINUOUS
 62
    7
 10
299.70412213187126
 20
361.37362917560228
 11
313.70412213187126
 21
361.37362917560228
  0
LINE
  8
_0-0_
  6
CONTINUOUS
 62
    7
 10
313.70412213187126
 20
361.37362917560228
 11
313.70412213187126
 21
347.37462917560231
  0
LINE
  8
_0-0_
  6
CONTINUOUS
 62
    7
 10
313.70412213187126
 20
347.37462917560231
 11
299.70412213187126
 21
347.37462917560231
  0
LINE
  8
_0-0_
  6
CONTINUOUS
 62
    7
 10
299.70412213187126
 20
347.37462917560231
 11
299.70412213187126
 21
361.37362917560228
  0
LINE
  8
_0-0_
  6
CONTINUOUS
 62
    7
 10
271.12912213187121
 20
361.37362917560228
 11
285.12912213187121
 21
361.37362917560228
  0
LINE
  8
_0-0_
  6
CONTINUOUS
 62
    7
 10
285.12912213187121
 20
361.37362917560228
 11
285.12912213187121
 21
347.37462917560231
  0
LINE
  8
_0-0_
  6
CONTINUOUS
 62
    7
 10
285.12912213187121
 20
347.37462917560231
 11
271.12912213187121
 21
347.37462917560231
  0
LINE
  8
_0-0_
  6
CONTINUOUS
 62
    7
 10
271.12912213187121
 20
347.37462917560231
 11
271.12912213187121
 21
361.37362917560228
  0
LINE
  8
_0-0_
  6
CONTINUOUS
 62
    7
 10
252.07932213187129
 20
361.37362917560228
 11
266.07912213187126
 21
361.37362917560228
  0
LINE
  8
_0-0_
  6
CONTINUOUS
 62
    7
 10
266.07912213187126
 20
361.37362917560228
 11
266.07912213187126
 21
347.37462917560231
  0
LINE
  8
_0-0_
  6
CONTINUOUS
 62
    7
 10
266.07912213187126
 20
347.37462917560231
 11
252.07932213187129
 21
347.37462917560231
  0
LINE
  8
_0-0_
  6
CONTINUOUS
 62
    7
 10
252.07932213187129
 20
347.37462917560231
 11
252.07932213187129
 21
361.37362917560228
  0
LINE
  8
_0-0_
  6
CONTINUOUS
 62
    7
 10
233.02932213187123
 20
361.37362917560228
 11
247.02862213187129
 21
361.37362917560228
  0
LINE
  8
_0-0_
  6
CONTINUOUS
 62
    7
 10
247.02862213187129
 20
361.37362917560228
 11
247.02862213187129
 21
347.37462917560231
  0
LINE
  8
_0-0_
  6
CONTINUOUS
 62
    7
 10
247.02862213187129
 20
347.37462917560231
 11
233.02932213187123
 21
347.37462917560231
  0
LINE
  8
_0-0_
  6
CONTINUOUS
 62
    7
 10
233.02932213187123
 20
347.37462917560231
 11
233.02932213187123
 21
361.37362917560228
  0
LINE
  8
_0-0_
  6
CONTINUOUS
 62
    7
 10
213.97932213187127
 20
361.37362917560228
 11
227.97862213187128
 21
361.37362917560228
  0
LINE
  8
_0-0_
  6
CONTINUOUS
 62
    7
 10
227.97862213187128
 20
361.37362917560228
 11
227.97862213187128
 21
347.37462917560231
  0
LINE
  8
_0-0_
  6
CONTINUOUS
 62
    7
 10
227.97862213187128
 20
347.37462917560231
 11
213.97932213187127
 21
347.37462917560231
  0
LINE
  8
_0-0_
  6
CONTINUOUS
 62
    7
 10
213.97932213187127
 20
347.37462917560231
 11
213.97932213187127
 21
361.37362917560228
  0
LINE
  8
_0-0_
  6
CONTINUOUS
 62
    7
 10
185.40432213187131
 20
361.37362917560228
 11
199.40362213187132
 21
361.37362917560228
  0
LINE
  8
_0-0_
  6
CONTINUOUS
 62
    7
 10
199.40362213187132
 20
361.37362917560228
 11
199.40362213187132
 21
347.37462917560231
  0
LINE
  8
_0-0_
  6
CONTINUOUS
 62
    7
 10
199.40362213187132
 20
347.37462917560231
 11
185.40432213187131
 21
347.37462917560231
  0
LINE
  8
_0-0_
  6
CONTINUOUS
 62
    7
 10
185.40432213187131
 20
347.37462917560231
 11
185.40432213187131
 21
361.37362917560228
  0
ARC
  8
_0-0_
  6
CONTINUOUS
 62
    7
 10
331.22841463187126
 20
298.45556473797632
 40
10
 50
180
 51
194.03713868216576
  0
ARC
  8
_0-0_
  6
CONTINUOUS
 62
    7
 10
320.22841463187126
 20
367.89912917560235
 40
1
 50
0
 51
90
  0
LINE
  8
_0-0_
  6
CONTINUOUS
 62
    7
 10
330.45544673731695
 20
260.31875144258942
 11
321.52702752642557
 21
296.03005690861511
  0
ARC
  8
_0-0_
  6
CONTINUOUS
 62
    7
 10
320.75405963187126
 20
257.89324361322821
 40
10
 50
0
 51
14.037138682165798
  0
ARC
  8
_0-0_
  6
CONTINUOUS
 62
    7
 10
329.75405963187126
 20
236.07439417560224
 40
1
 50
270
 51
0
  0
ARC
  8
_0-0_
  6
CONTINUOUS
 62
    7
 10
332.72841463187126
 20
298.45556473797632
 40
10
 50
180
 51
194.03713868216576
  0
LINE
  8
_0-0_
  6
CONTINUOUS
 62
    7
 10
331.95544673731695
 20
260.31875144258942
 11
323.02702752642557
 21
296.03005690861511
  0
ARC
  8
_0-0_
  6
CONTINUOUS
 62
    7
 10
322.25405963187126
 20
257.89324361322821
 40
10
 50
0
 51
14.037138682165798
  0
ARC
  8
_0-0_
  6
CONTINUOUS
 62
    7
 10
323.72841463187126
 20
367.89912917560235
 40
1
 50
90
 51
180
  0
ARC
  8
_0-0_
  6
CONTINUOUS
 62
    7
 10
333.25405963187126
 20
236.07439417560224
 40
1
 50
180
 51
270
  0
LINE
  8
_0-0_
  6
CONTINUOUS
 62
    7
 10
329.0789598484169
 20
368.89912917560235
 11
323.72841463187126
 21
368.89912917560235
  0
LINE
  8
_0-0_
  6
CONTINUOUS
 62
    7
 10
496.94169713187125
 20
256.59912917560229
 11
510.94169713187125
 21
256.59912917560229
  0
LINE
  8
_0-0_
  6
CONTINUOUS
 62
    7
 10
510.94169713187125
 20
256.59912917560229
 11
510.94169713187125
 21
242.59965917560228
  0
LINE
  8
_0-0_
  6
CONTINUOUS
 62
    7
 10
510.94169713187125
 20
242.59965917560228
 11
496.94169713187125
 21
242.59965917560228
  0
LINE
  8
_0-0_
  6
CONTINUOUS
 62
    7
 10
496.94169713187125
 20
242.59965917560228
 11
496.94169713187125
 21
256.59912917560229
  0
LINE
  8
_0-0_
  6
CONTINUOUS
 62
    7
 10
470.74669713187126
 20
256.59912917560229
 11
484.74769713187123
 21
256.59912917560229
  0
LINE
  8
_0-0_
  6
CONTINUOUS
 62
    7
 10
484.74769713187123
 20
256.59912917560229
 11
484.74769713187123
 21
242.59965917560228
  0
LINE
  8
_0-0_
  6
CONTINUOUS
 62
    7
 10
484.74769713187123
 20
242.59965917560228
 11
470.74669713187126
 21
242.59965917560228
  0
LINE
  8
_0-0_
  6
CONTINUOUS
 62
    7
 10
470.74669713187126
 20
242.59965917560228
 11
470.74669713187126
 21
256.59912917560229
  0
LINE
  8
_0-0_
  6
CONTINUOUS
 62
    7
 10
449.31669713187125
 20
256.59912917560229
 11
463.31669713187125
 21
256.59912917560229
  0
LINE
  8
_0-0_
  6
CONTINUOUS
 62
    7
 10
463.31669713187125
 20
256.59912917560229
 11
463.31669713187125
 21
242.59965917560228
  0
LINE
  8
_0-0_
  6
CONTINUOUS
 62
    7
 10
463.31669713187125
 20
242.59965917560228
 11
449.31669713187125
 21
242.59965917560228
  0
LINE
  8
_0-0_
  6
CONTINUOUS
 62
    7
 10
449.31669713187125
 20
242.59965917560228
 11
449.31669713187125
 21
256.59912917560229
  0
LINE
  8
_0-0_
  6
CONTINUOUS
 62
    7
 10
430.2666971318713
 20
256.59912917560229
 11
444.2666971318713
 21
256.59912917560229
  0
LINE
  8
_0-0_
  6
CONTINUOUS
 62
    7
 10
444.2666971318713
 20
256.59912917560229
 11
444.2666971318713
 21
242.59965917560228
  0
LINE
  8
_0-0_
  6
CONTINUOUS
 62
    7
 10
444.2666971318713
 20
242.59965917560228
 11
430.2666971318713
 21
242.59965917560228
  0
LINE
  8
_0-0_
  6
CONTINUOUS
 62
    7
 10
430.2666971318713
 20
242.59965917560228
 11
430.2666971318713
 21
256.59912917560229
  0
LINE
  8
_0-0_
  6
CONTINUOUS
 62
    7
 10
411.21689713187129
 20
256.59912917560229
 11
425.21619713187124
 21
256.59912917560229
  0
LINE
  8
_0-0_
  6
CONTINUOUS
 62
    7
 10
425.21619713187124
 20
256.59912917560229
 11
425.21619713187124
 21
242.59965917560228
  0
LINE
  8
_0-0_
  6
CONTINUOUS
 62
    7
 10
425.21619713187124
 20
242.59965917560228
 11
411.21689713187129
 21
242.59965917560228
  0
LINE
  8
_0-0_
  6
CONTINUOUS
 62
    7
 10
411.21689713187129
 20
242.59965917560228
 11
411.21689713187129
 21
256.59912917560229
  0
LINE
  8
_0-0_
  6
CONTINUOUS
 62
    7
 10
392.16689713187122
 20
256.59912917560229
 11
406.16619713187129
 21
256.59912917560229
  0
LINE
  8
_0-0_
  6
CONTINUOUS
 62
    7
 10
406.16619713187129
 20
256.59912917560229
 11
406.16619713187129
 21
242.59965917560228
  0
LINE
  8
_0-0_
  6
CONTINUOUS
 62
    7
 10
406.16619713187129
 20
242.59965917560228
 11
392.16689713187122
 21
242.59965917560228
  0
LINE
  8
_0-0_
  6
CONTINUOUS
 62
    7
 10
392.16689713187122
 20
242.59965917560228
 11
392.16689713187122
 21
256.59912917560229
  0
LINE
  8
_0-0_
  6
CONTINUOUS
 62
    7
 10
373.11689713187127
 20
256.59912917560229
 11
387.11619713187122
 21
256.59912917560229
  0
LINE
  8
_0-0_
  6
CONTINUOUS
 62
    7
 10
387.11619713187122
 20
256.59912917560229
 11
387.11619713187122
 21
242.59965917560228
  0
LINE
  8
_0-0_
  6
CONTINUOUS
 62
    7
 10
387.11619713187122
 20
242.59965917560228
 11
373.11689713187127
 21
242.59965917560228
  0
LINE
  8
_0-0_
  6
CONTINUOUS
 62
    7
 10
373.11689713187127
 20
242.59965917560228
 11
373.11689713187127
 21
256.59912917560229
  0
LINE
  8
_0-0_
  6
CONTINUOUS
 62
    7
 10
351.6855971318713
 20
256.59912917560229
 11
365.68499713187123
 21
256.59912917560229
  0
LINE
  8
_0-0_
  6
CONTINUOUS
 62
    7
 10
365.68499713187123
 20
256.59912917560229
 11
365.68499713187123
 21
242.59965917560228
  0
LINE
  8
_0-0_
  6
CONTINUOUS
 62
    7
 10
365.68499713187123
 20
242.59965917560228
 11
351.6855971318713
 21
242.59965917560228
  0
LINE
  8
_0-0_
  6
CONTINUOUS
 62
    7
 10
351.6855971318713
 20
242.59965917560228
 11
351.6855971318713
 21
256.59912917560229
  0
LINE
  8
_0-0_
  6
CONTINUOUS
 62
    7
 10
496.94169713187125
 20
275.64902917560232
 11
510.94169713187125
 21
275.64902917560232
  0
LINE
  8
_0-0_
  6
CONTINUOUS
 62
    7
 10
510.94169713187125
 20
275.64902917560232
 11
510.94169713187125
 21
261.64962917560229
  0
LINE
  8
_0-0_
  6
CONTINUOUS
 62
    7
 10
510.94169713187125
 20
261.64962917560229
 11
496.94169713187125
 21
261.64962917560229
  0
LINE
  8
_0-0_
  6
CONTINUOUS
 62
    7
 10
496.94169713187125
 20
261.64962917560229
 11
496.94169713187125
 21
275.64902917560232
  0
LINE
  8
_0-0_
  6
CONTINUOUS
 62
    7
 10
465.98569713187129
 20
275.64902917560232
 11
479.98469713187126
 21
275.64902917560232
  0
LINE
  8
_0-0_
  6
CONTINUOUS
 62
    7
 10
479.98469713187126
 20
275.64902917560232
 11
479.98469713187126
 21
261.64962917560229
  0
LINE
  8
_0-0_
  6
CONTINUOUS
 62
    7
 10
479.98469713187126
 20
261.64962917560229
 11
465.98569713187129
 21
261.64962917560229
  0
LINE
  8
_0-0_
  6
CONTINUOUS
 62
    7
 10
465.98569713187129
 20
261.64962917560229
 11
465.98569713187129
 21
275.64902917560232
  0
LINE
  8
_0-0_
  6
CONTINUOUS
 62
    7
 10
439.79169713187127
 20
275.64902917560232
 11
453.79169713187127
 21
275.64902917560232
  0
LINE
  8
_0-0_
  6
CONTINUOUS
 62
    7
 10
453.79169713187127
 20
275.64902917560232
 11
453.79169713187127
 21
261.64962917560229
  0
LINE
  8
_0-0_
  6
CONTINUOUS
 62
    7
 10
453.79169713187127
 20
261.64962917560229
 11
439.79169713187127
 21
261.64962917560229
  0
LINE
  8
_0-0_
  6
CONTINUOUS
 62
    7
 10
439.79169713187127
 20
261.64962917560229
 11
439.79169713187127
 21
275.64902917560232
  0
LINE
  8
_0-0_
  6
CONTINUOUS
 62
    7
 10
420.74189713187127
 20
275.64902917560232
 11
434.74169713187121
 21
275.64902917560232
  0
LINE
  8
_0-0_
  6
CONTINUOUS
 62
    7
 10
434.74169713187121
 20
275.64902917560232
 11
434.74169713187121
 21
261.64962917560229
  0
LINE
  8
_0-0_
  6
CONTINUOUS
 62
    7
 10
434.74169713187121
 20
261.64962917560229
 11
420.74189713187127
 21
261.64962917560229
  0
LINE
  8
_0-0_
  6
CONTINUOUS
 62
    7
 10
420.74189713187127
 20
261.64962917560229
 11
420.74189713187127
 21
275.64902917560232
  0
LINE
  8
_0-0_
  6
CONTINUOUS
 62
    7
 10
401.6918971318712
 20
275.64902917560232
 11
415.69119713187126
 21
275.64902917560232
  0
LINE
  8
_0-0_
  6
CONTINUOUS
 62
    7
 10
415.69119713187126
 20
275.64902917560232
 11
415.69119713187126
 21
261.64962917560229
  0
LINE
  8
_0-0_
  6
CONTINUOUS
 62
    7
 10
415.69119713187126
 20
261.64962917560229
 11
401.6918971318712
 21
261.64962917560229
  0
LINE
  8
_0-0_
  6
CONTINUOUS
 62
    7
 10
401.6918971318712
 20
261.64962917560229
 11
401.6918971318712
 21
275.64902917560232
  0
LINE
  8
_0-0_
  6
CONTINUOUS
 62
    7
 10
382.64189713187125
 20
275.64902917560232
 11
396.64119713187131
 21
275.64902917560232
  0
LINE
  8
_0-0_
  6
CONTINUOUS
 62
    7
 10
396.64119713187131
 20
275.64902917560232
 11
396.64119713187131
 21
261.64962917560229
  0
LINE
  8
_0-0_
  6
CONTINUOUS
 62
    7
 10
396.64119713187131
 20
261.64962917560229
 11
382.64189713187125
 21
261.64962917560229
  0
LINE
  8
_0-0_
  6
CONTINUOUS
 62
    7
 10
382.64189713187125
 20
261.64962917560229
 11
382.64189713187125
 21
275.64902917560232
  0
LINE
  8
_0-0_
  6
CONTINUOUS
 62
    7
 10
363.59189713187129
 20
275.64902917560232
 11
377.59119713187124
 21
275.64902917560232
  0
LINE
  8
_0-0_
  6
CONTINUOUS
 62
    7
 10
377.59119713187124
 20
275.64902917560232
 11
377.59119713187124
 21
261.64962917560229
  0
LINE
  8
_0-0_
  6
CONTINUOUS
 62
    7
 10
377.59119713187124
 20
261.64962917560229
 11
363.59189713187129
 21
261.64962917560229
  0
LINE
  8
_0-0_
  6
CONTINUOUS
 62
    7
 10
363.59189713187129
 20
261.64962917560229
 11
363.59189713187129
 21
275.64902917560232
  0
LINE
  8
_0-0_
  6
CONTINUOUS
 62
    7
 10
344.54189713187122
 20
275.64902917560232
 11
358.54129713187126
 21
275.64902917560232
  0
LINE
  8
_0-0_
  6
CONTINUOUS
 62
    7
 10
358.54129713187126
 20
275.64902917560232
 11
358.54129713187126
 21
261.64962917560229
  0
LINE
  8
_0-0_
  6
CONTINUOUS
 62
    7
 10
358.54129713187126
 20
261.64962917560229
 11
344.54189713187122
 21
261.64962917560229
  0
LINE
  8
_0-0_
  6
CONTINUOUS
 62
    7
 10
344.54189713187122
 20
261.64962917560229
 11
344.54189713187122
 21
275.64902917560232
  0
LINE
  8
_0-0_
  6
CONTINUOUS
 62
    7
 10
496.94169713187125
 20
294.69902917560228
 11
510.94169713187125
 21
294.69902917560228
  0
LINE
  8
_0-0_
  6
CONTINUOUS
 62
    7
 10
510.94169713187125
 20
294.69902917560228
 11
510.94169713187125
 21
280.6998291756023
  0
LINE
  8
_0-0_
  6
CONTINUOUS
 62
    7
 10
510.94169713187125
 20
280.6998291756023
 11
496.94169713187125
 21
280.6998291756023
  0
LINE
  8
_0-0_
  6
CONTINUOUS
 62
    7
 10
496.94169713187125
 20
280.6998291756023
 11
496.94169713187125
 21
294.69902917560228
  0
LINE
  8
_0-0_
  6
CONTINUOUS
 62
    7
 10
449.31669713187125
 20
294.69902917560228
 11
463.31669713187125
 21
294.69902917560228
  0
LINE
  8
_0-0_
  6
CONTINUOUS
 62
    7
 10
463.31669713187125
 20
294.69902917560228
 11
463.31669713187125
 21
280.6998291756023
  0
LINE
  8
_0-0_
  6
CONTINUOUS
 62
    7
 10
463.31669713187125
 20
280.6998291756023
 11
449.31669713187125
 21
280.6998291756023
  0
LINE
  8
_0-0_
  6
CONTINUOUS
 62
    7
 10
449.31669713187125
 20
280.6998291756023
 11
449.31669713187125
 21
294.69902917560228
  0
LINE
  8
_0-0_
  6
CONTINUOUS
 62
    7
 10
430.2666971318713
 20
294.69902917560228
 11
444.2666971318713
 21
294.69902917560228
  0
LINE
  8
_0-0_
  6
CONTINUOUS
 62
    7
 10
444.2666971318713
 20
294.69902917560228
 11
444.2666971318713
 21
280.6998291756023
  0
LINE
  8
_0-0_
  6
CONTINUOUS
 62
    7
 10
444.2666971318713
 20
280.6998291756023
 11
430.2666971318713
 21
280.6998291756023
  0
LINE
  8
_0-0_
  6
CONTINUOUS
 62
    7
 10
430.2666971318713
 20
280.6998291756023
 11
430.2666971318713
 21
294.69902917560228
  0
LINE
  8
_0-0_
  6
CONTINUOUS
 62
    7
 10
411.21689713187129
 20
294.69902917560228
 11
425.21619713187124
 21
294.69902917560228
  0
LINE
  8
_0-0_
  6
CONTINUOUS
 62
    7
 10
425.21619713187124
 20
294.69902917560228
 11
425.21619713187124
 21
280.6998291756023
  0
LINE
  8
_0-0_
  6
CONTINUOUS
 62
    7
 10
425.21619713187124
 20
280.6998291756023
 11
411.21689713187129
 21
280.6998291756023
  0
LINE
  8
_0-0_
  6
CONTINUOUS
 62
    7
 10
411.21689713187129
 20
280.6998291756023
 11
411.21689713187129
 21
294.69902917560228
  0
LINE
  8
_0-0_
  6
CONTINUOUS
 62
    7
 10
392.16689713187122
 20
294.69902917560228
 11
406.16619713187129
 21
294.69902917560228
  0
LINE
  8
_0-0_
  6
CONTINUOUS
 62
    7
 10
406.16619713187129
 20
294.69902917560228
 11
406.16619713187129
 21
280.6998291756023
  0
LINE
  8
_0-0_
  6
CONTINUOUS
 62
    7
 10
406.16619713187129
 20
280.6998291756023
 11
392.16689713187122
 21
280.6998291756023
  0
LINE
  8
_0-0_
  6
CONTINUOUS
 62
    7
 10
392.16689713187122
 20
280.6998291756023
 11
392.16689713187122
 21
294.69902917560228
  0
LINE
  8
_0-0_
  6
CONTINUOUS
 62
    7
 10
373.11689713187127
 20
294.69902917560228
 11
387.11619713187122
 21
294.69902917560228
  0
LINE
  8
_0-0_
  6
CONTINUOUS
 62
    7
 10
387.11619713187122
 20
294.69902917560228
 11
387.11619713187122
 21
280.6998291756023
  0
LINE
  8
_0-0_
  6
CONTINUOUS
 62
    7
 10
387.11619713187122
 20
280.6998291756023
 11
373.11689713187127
 21
280.6998291756023
  0
LINE
  8
_0-0_
  6
CONTINUOUS
 62
    7
 10
373.11689713187127
 20
280.6998291756023
 11
373.11689713187127
 21
294.69902917560228
  0
LINE
  8
_0-0_
  6
CONTINUOUS
 62
    7
 10
354.06689713187131
 20
294.69902917560228
 11
368.06619713187126
 21
294.69902917560228
  0
LINE
  8
_0-0_
  6
CONTINUOUS
 62
    7
 10
368.06619713187126
 20
294.69902917560228
 11
368.06619713187126
 21
280.6998291756023
  0
LINE
  8
_0-0_
  6
CONTINUOUS
 62
    7
 10
368.06619713187126
 20
280.6998291756023
 11
354.06689713187131
 21
280.6998291756023
  0
LINE
  8
_0-0_
  6
CONTINUOUS
 62
    7
 10
354.06689713187131
 20
280.6998291756023
 11
354.06689713187131
 21
294.69902917560228
  0
LINE
  8
_0-0_
  6
CONTINUOUS
 62
    7
 10
335.01685713187123
 20
294.69902917560228
 11
349.01639713187126
 21
294.69902917560228
  0
LINE
  8
_0-0_
  6
CONTINUOUS
 62
    7
 10
349.01639713187126
 20
294.69902917560228
 11
349.01639713187126
 21
280.6998291756023
  0
LINE
  8
_0-0_
  6
CONTINUOUS
 62
    7
 10
349.01639713187126
 20
280.6998291756023
 11
335.01685713187123
 21
280.6998291756023
  0
LINE
  8
_0-0_
  6
CONTINUOUS
 62
    7
 10
335.01685713187123
 20
280.6998291756023
 11
335.01685713187123
 21
294.69902917560228
  0
LINE
  8
_0-0_
  6
CONTINUOUS
 62
    7
 10
477.2466971318712
 20
313.3246291756023
 11
477.2466971318712
 21
312.49912917560238
  0
LINE
  8
_0-0_
  6
CONTINUOUS
 62
    7
 10
477.2466971318712
 20
312.49912917560238
 11
470.97669713187128
 21
312.49912917560238
  0
LINE
  8
_0-0_
  6
CONTINUOUS
 62
    7
 10
470.97669713187128
 20
312.49912917560238
 11
470.97669713187128
 21
310.77552917560234
  0
LINE
  8
_0-0_
  6
CONTINUOUS
 62
    7
 10
470.97669713187128
 20
310.77552917560234
 11
469.99669713187126
 21
310.77552917560234
  0
LINE
  8
_0-0_
  6
CONTINUOUS
 62
    7
 10
469.99669713187126
 20
310.77552917560234
 11
469.99669713187126
 21
307.47492917560231
  0
LINE
  8
_0-0_
  6
CONTINUOUS
 62
    7
 10
469.99669713187126
 20
307.47492917560231
 11
470.97669713187128
 21
307.47492917560231
  0
LINE
  8
_0-0_
  6
CONTINUOUS
 62
    7
 10
470.97669713187128
 20
307.47492917560231
 11
470.97669713187128
 21
305.7494291756023
  0
LINE
  8
_0-0_
  6
CONTINUOUS
 62
    7
 10
470.97669713187128
 20
305.7494291756023
 11
475.44669713187125
 21
305.7494291756023
  0
LINE
  8
_0-0_
  6
CONTINUOUS
 62
    7
 10
475.44669713187125
 20
305.7494291756023
 11
475.44669713187125
 21
304.22402917560231
  0
LINE
  8
_0-0_
  6
CONTINUOUS
 62
    7
 10
475.44669713187125
 20
304.22402917560231
 11
470.74669713187126
 21
304.22402917560231
  0
LINE
  8
_0-0_
  6
CONTINUOUS
 62
    7
 10
470.74669713187126
 20
304.22402917560231
 11
470.74669713187126
 21
290.22482917560228
  0
LINE
  8
_0-0_
  6
CONTINUOUS
 62
    7
 10
470.74669713187126
 20
290.22482917560228
 11
475.44669713187125
 21
290.22482917560228
  0
LINE
  8
_0-0_
  6
CONTINUOUS
 62
    7
 10
475.44669713187125
 20
290.22482917560228
 11
475.44669713187125
 21
288.69902917560228
  0
LINE
  8
_0-0_
  6
CONTINUOUS
 62
    7
 10
475.44669713187125
 20
288.69902917560228
 11
470.97669713187128
 21
288.69902917560228
  0
LINE
  8
_0-0_
  6
CONTINUOUS
 62
    7
 10
470.97669713187128
 20
288.69902917560228
 11
470.97669713187128
 21
286.97532917560227
  0
LINE
  8
_0-0_
  6
CONTINUOUS
 62
    7
 10
470.97669713187128
 20
286.97532917560227
 11
469.99669713187126
 21
286.97532917560227
  0
LINE
  8
_0-0_
  6
CONTINUOUS
 62
    7
 10
469.99669713187126
 20
286.97532917560227
 11
469.99669713187126
 21
283.67472917560229
  0
LINE
  8
_0-0_
  6
CONTINUOUS
 62
    7
 10
469.99669713187126
 20
283.67472917560229
 11
470.97669713187128
 21
283.67472917560229
  0
LINE
  8
_0-0_
  6
CONTINUOUS
 62
    7
 10
470.97669713187128
 20
283.67472917560229
 11
470.97669713187128
 21
281.9496291756023
  0
LINE
  8
_0-0_
  6
CONTINUOUS
 62
    7
 10
470.97669713187128
 20
281.9496291756023
 11
477.2466971318712
 21
281.9496291756023
  0
LINE
  8
_0-0_
  6
CONTINUOUS
 62
    7
 10
477.2466971318712
 20
281.9496291756023
 11
477.2466971318712
 21
281.12562917560228
  0
LINE
  8
_0-0_
  6
CONTINUOUS
 62
    7
 10
477.2466971318712
 20
281.12562917560228
 11
480.04669713187127
 21
281.12562917560228
  0
LINE
  8
_0-0_
  6
CONTINUOUS
 62
    7
 10
480.04669713187127
 20
281.12562917560228
 11
480.04669713187127
 21
281.9496291756023
  0
LINE
  8
_0-0_
  6
CONTINUOUS
 62
    7
 10
480.04669713187127
 20
281.9496291756023
 11
483.27669713187123
 21
281.9496291756023
  0
LINE
  8
_0-0_
  6
CONTINUOUS
 62
    7
 10
483.27669713187123
 20
281.9496291756023
 11
483.27669713187123
 21
283.67472917560229
  0
LINE
  8
_0-0_
  6
CONTINUOUS
 62
    7
 10
483.27669713187123
 20
283.67472917560229
 11
484.19769713187122
 21
283.67472917560229
  0
LINE
  8
_0-0_
  6
CONTINUOUS
 62
    7
 10
484.19769713187122
 20
283.67472917560229
 11
484.19769713187122
 21
286.97532917560227
  0
LINE
  8
_0-0_
  6
CONTINUOUS
 62
    7
 10
484.19769713187122
 20
286.97532917560227
 11
483.27669713187123
 21
286.97532917560227
  0
LINE
  8
_0-0_
  6
CONTINUOUS
 62
    7
 10
483.27669713187123
 20
286.97532917560227
 11
483.27669713187123
 21
288.69902917560228
  0
LINE
  8
_0-0_
  6
CONTINUOUS
 62
    7
 10
483.27669713187123
 20
288.69902917560228
 11
480.04669713187127
 21
288.69902917560228
  0
LINE
  8
_0-0_
  6
CONTINUOUS
 62
    7
 10
480.04669713187127
 20
288.69902917560228
 11
480.04669713187127
 21
290.22482917560228
  0
LINE
  8
_0-0_
  6
CONTINUOUS
 62
    7
 10
480.04669713187127
 20
290.22482917560228
 11
484.74769713187123
 21
290.22482917560228
  0
LINE
  8
_0-0_
  6
CONTINUOUS
 62
    7
 10
484.74769713187123
 20
290.22482917560228
 11
484.74769713187123
 21
304.22402917560231
  0
LINE
  8
_0-0_
  6
CONTINUOUS
 62
    7
 10
484.74769713187123
 20
304.22402917560231
 11
480.04669713187127
 21
304.22402917560231
  0
LINE
  8
_0-0_
  6
CONTINUOUS
 62
    7
 10
480.04669713187127
 20
304.22402917560231
 11
480.04669713187127
 21
305.7494291756023
  0
LINE
  8
_0-0_
  6
CONTINUOUS
 62
    7
 10
480.04669713187127
 20
305.7494291756023
 11
483.27669713187123
 21
305.7494291756023
  0
LINE
  8
_0-0_
  6
CONTINUOUS
 62
    7
 10
483.27669713187123
 20
305.7494291756023
 11
483.27669713187123
 21
307.47492917560231
  0
LINE
  8
_0-0_
  6
CONTINUOUS
 62
    7
 10
483.27669713187123
 20
307.47492917560231
 11
484.19769713187122
 21
307.47492917560231
  0
LINE
  8
_0-0_
  6
CONTINUOUS
 62
    7
 10
484.19769713187122
 20
307.47492917560231
 11
484.19769713187122
 21
310.77552917560234
  0
LINE
  8
_0-0_
  6
CONTINUOUS
 62
    7
 10
484.19769713187122
 20
310.77552917560234
 11
483.27669713187123
 21
310.77552917560234
  0
LINE
  8
_0-0_
  6
CONTINUOUS
 62
    7
 10
483.27669713187123
 20
310.77552917560234
 11
483.27669713187123
 21
312.49912917560238
  0
LINE
  8
_0-0_
  6
CONTINUOUS
 62
    7
 10
483.27669713187123
 20
312.49912917560238
 11
480.04669713187127
 21
312.49912917560238
  0
LINE
  8
_0-0_
  6
CONTINUOUS
 62
    7
 10
480.04669713187127
 20
312.49912917560238
 11
480.04669713187127
 21
313.3246291756023
  0
LINE
  8
_0-0_
  6
CONTINUOUS
 62
    7
 10
480.04669713187127
 20
313.3246291756023
 11
477.2466971318712
 21
313.3246291756023
  0
LINE
  8
_0-0_
  6
CONTINUOUS
 62
    7
 10
496.94169713187125
 20
313.74902917560229
 11
510.94169713187125
 21
313.74902917560229
  0
LINE
  8
_0-0_
  6
CONTINUOUS
 62
    7
 10
510.94169713187125
 20
313.74902917560229
 11
510.94169713187125
 21
299.74982917560231
  0
LINE
  8
_0-0_
  6
CONTINUOUS
 62
    7
 10
510.94169713187125
 20
299.74982917560231
 11
496.94169713187125
 21
299.74982917560231
  0
LINE
  8
_0-0_
  6
CONTINUOUS
 62
    7
 10
496.94169713187125
 20
299.74982917560231
 11
496.94169713187125
 21
313.74902917560229
  0
LINE
  8
_0-0_
  6
CONTINUOUS
 62
    7
 10
444.55269713187124
 20
313.74902917560229
 11
458.55369713187122
 21
313.74902917560229
  0
LINE
  8
_0-0_
  6
CONTINUOUS
 62
    7
 10
458.55369713187122
 20
313.74902917560229
 11
458.55369713187122
 21
299.74982917560231
  0
LINE
  8
_0-0_
  6
CONTINUOUS
 62
    7
 10
458.55369713187122
 20
299.74982917560231
 11
444.55269713187124
 21
299.74982917560231
  0
LINE
  8
_0-0_
  6
CONTINUOUS
 62
    7
 10
444.55269713187124
 20
299.74982917560231
 11
444.55269713187124
 21
313.74902917560229
  0
LINE
  8
_0-0_
  6
CONTINUOUS
 62
    7
 10
425.50299713187121
 20
313.74902917560229
 11
439.50369713187126
 21
313.74902917560229
  0
LINE
  8
_0-0_
  6
CONTINUOUS
 62
    7
 10
439.50369713187126
 20
313.74902917560229
 11
439.50369713187126
 21
299.74982917560231
  0
LINE
  8
_0-0_
  6
CONTINUOUS
 62
    7
 10
439.50369713187126
 20
299.74982917560231
 11
425.50299713187121
 21
299.74982917560231
  0
LINE
  8
_0-0_
  6
CONTINUOUS
 62
    7
 10
425.50299713187121
 20
299.74982917560231
 11
425.50299713187121
 21
313.74902917560229
  0
LINE
  8
_0-0_
  6
CONTINUOUS
 62
    7
 10
406.45439713187125
 20
313.74902917560229
 11
420.45369713187131
 21
313.74902917560229
  0
LINE
  8
_0-0_
  6
CONTINUOUS
 62
    7
 10
420.45369713187131
 20
313.74902917560229
 11
420.45369713187131
 21
299.74982917560231
  0
LINE
  8
_0-0_
  6
CONTINUOUS
 62
    7
 10
420.45369713187131
 20
299.74982917560231
 11
406.45439713187125
 21
299.74982917560231
  0
LINE
  8
_0-0_
  6
CONTINUOUS
 62
    7
 10
406.45439713187125
 20
299.74982917560231
 11
406.45439713187125
 21
313.74902917560229
  0
LINE
  8
_0-0_
  6
CONTINUOUS
 62
    7
 10
387.40439713187129
 20
313.74902917560229
 11
401.40369713187124
 21
313.74902917560229
  0
LINE
  8
_0-0_
  6
CONTINUOUS
 62
    7
 10
401.40369713187124
 20
313.74902917560229
 11
401.40369713187124
 21
299.74982917560231
  0
LINE
  8
_0-0_
  6
CONTINUOUS
 62
    7
 10
401.40369713187124
 20
299.74982917560231
 11
387.40439713187129
 21
299.74982917560231
  0
LINE
  8
_0-0_
  6
CONTINUOUS
 62
    7
 10
387.40439713187129
 20
299.74982917560231
 11
387.40439713187129
 21
313.74902917560229
  0
LINE
  8
_0-0_
  6
CONTINUOUS
 62
    7
 10
368.35439713187122
 20
313.74902917560229
 11
382.35369713187129
 21
313.74902917560229
  0
LINE
  8
_0-0_
  6
CONTINUOUS
 62
    7
 10
382.35369713187129
 20
313.74902917560229
 11
382.35369713187129
 21
299.74982917560231
  0
LINE
  8
_0-0_
  6
CONTINUOUS
 62
    7
 10
382.35369713187129
 20
299.74982917560231
 11
368.35439713187122
 21
299.74982917560231
  0
LINE
  8
_0-0_
  6
CONTINUOUS
 62
    7
 10
368.35439713187122
 20
299.74982917560231
 11
368.35439713187122
 21
313.74902917560229
  0
LINE
  8
_0-0_
  6
CONTINUOUS
 62
    7
 10
349.30439713187127
 20
313.74902917560229
 11
363.30369713187122
 21
313.74902917560229
  0
LINE
  8
_0-0_
  6
CONTINUOUS
 62
    7
 10
363.30369713187122
 20
313.74902917560229
 11
363.30369713187122
 21
299.74982917560231
  0
LINE
  8
_0-0_
  6
CONTINUOUS
 62
    7
 10
363.30369713187122
 20
299.74982917560231
 11
349.30439713187127
 21
299.74982917560231
  0
LINE
  8
_0-0_
  6
CONTINUOUS
 62
    7
 10
349.30439713187127
 20
299.74982917560231
 11
349.30439713187127
 21
313.74902917560229
  0
LINE
  8
_0-0_
  6
CONTINUOUS
 62
    7
 10
330.25434713187121
 20
313.74902917560229
 11
344.25389713187121
 21
313.74902917560229
  0
LINE
  8
_0-0_
  6
CONTINUOUS
 62
    7
 10
344.25389713187121
 20
313.74902917560229
 11
344.25389713187121
 21
299.74982917560231
  0
LINE
  8
_0-0_
  6
CONTINUOUS
 62
    7
 10
344.25389713187121
 20
299.74982917560231
 11
330.25434713187121
 21
299.74982917560231
  0
LINE
  8
_0-0_
  6
CONTINUOUS
 62
    7
 10
330.25434713187121
 20
299.74982917560231
 11
330.25434713187121
 21
313.74902917560229
  0
LINE
  8
_0-0_
  6
CONTINUOUS
 62
    7
 10
496.94169713187125
 20
332.79902917560236
 11
510.94169713187125
 21
332.79902917560236
  0
LINE
  8
_0-0_
  6
CONTINUOUS
 62
    7
 10
510.94169713187125
 20
332.79902917560236
 11
510.94169713187125
 21
318.79982917560238
  0
LINE
  8
_0-0_
  6
CONTINUOUS
 62
    7
 10
510.94169713187125
 20
318.79982917560238
 11
496.94169713187125
 21
318.79982917560238
  0
LINE
  8
_0-0_
  6
CONTINUOUS
 62
    7
 10
496.94169713187125
 20
318.79982917560238
 11
496.94169713187125
 21
332.79902917560236
  0
LINE
  8
_0-0_
  6
CONTINUOUS
 62
    7
 10
473.12969713187124
 20
332.79902917560236
 11
487.12869713187126
 21
332.79902917560236
  0
LINE
  8
_0-0_
  6
CONTINUOUS
 62
    7
 10
487.12869713187126
 20
332.79902917560236
 11
487.12869713187126
 21
318.79982917560238
  0
LINE
  8
_0-0_
  6
CONTINUOUS
 62
    7
 10
487.12869713187126
 20
318.79982917560238
 11
473.12969713187124
 21
318.79982917560238
  0
LINE
  8
_0-0_
  6
CONTINUOUS
 62
    7
 10
473.12969713187124
 20
318.79982917560238
 11
473.12969713187124
 21
332.79902917560236
  0
LINE
  8
_0-0_
  6
CONTINUOUS
 62
    7
 10
454.07969713187128
 20
332.79902917560236
 11
468.07869713187125
 21
332.79902917560236
  0
LINE
  8
_0-0_
  6
CONTINUOUS
 62
    7
 10
468.07869713187125
 20
332.79902917560236
 11
468.07869713187125
 21
318.79982917560238
  0
LINE
  8
_0-0_
  6
CONTINUOUS
 62
    7
 10
468.07869713187125
 20
318.79982917560238
 11
454.07969713187128
 21
318.79982917560238
  0
LINE
  8
_0-0_
  6
CONTINUOUS
 62
    7
 10
454.07969713187128
 20
318.79982917560238
 11
454.07969713187128
 21
332.79902917560236
  0
LINE
  8
_0-0_
  6
CONTINUOUS
 62
    7
 10
435.02969713187122
 20
332.79902917560236
 11
449.02869713187124
 21
332.79902917560236
  0
LINE
  8
_0-0_
  6
CONTINUOUS
 62
    7
 10
449.02869713187124
 20
332.79902917560236
 11
449.02869713187124
 21
318.79982917560238
  0
LINE
  8
_0-0_
  6
CONTINUOUS
 62
    7
 10
449.02869713187124
 20
318.79982917560238
 11
435.02969713187122
 21
318.79982917560238
  0
LINE
  8
_0-0_
  6
CONTINUOUS
 62
    7
 10
435.02969713187122
 20
318.79982917560238
 11
435.02969713187122
 21
332.79902917560236
  0
LINE
  8
_0-0_
  6
CONTINUOUS
 62
    7
 10
415.97939713187122
 20
332.79902917560236
 11
429.97869713187129
 21
332.79902917560236
  0
LINE
  8
_0-0_
  6
CONTINUOUS
 62
    7
 10
429.97869713187129
 20
332.79902917560236
 11
429.97869713187129
 21
318.79982917560238
  0
LINE
  8
_0-0_
  6
CONTINUOUS
 62
    7
 10
429.97869713187129
 20
318.79982917560238
 11
415.97939713187122
 21
318.79982917560238
  0
LINE
  8
_0-0_
  6
CONTINUOUS
 62
    7
 10
415.97939713187122
 20
318.79982917560238
 11
415.97939713187122
 21
332.79902917560236
  0
LINE
  8
_0-0_
  6
CONTINUOUS
 62
    7
 10
396.92939713187127
 20
332.79902917560236
 11
410.92869713187122
 21
332.79902917560236
  0
LINE
  8
_0-0_
  6
CONTINUOUS
 62
    7
 10
410.92869713187122
 20
332.79902917560236
 11
410.92869713187122
 21
318.79982917560238
  0
LINE
  8
_0-0_
  6
CONTINUOUS
 62
    7
 10
410.92869713187122
 20
318.79982917560238
 11
396.92939713187127
 21
318.79982917560238
  0
LINE
  8
_0-0_
  6
CONTINUOUS
 62
    7
 10
396.92939713187127
 20
318.79982917560238
 11
396.92939713187127
 21
332.79902917560236
  0
LINE
  8
_0-0_
  6
CONTINUOUS
 62
    7
 10
377.87939713187131
 20
332.79902917560236
 11
391.87869713187126
 21
332.79902917560236
  0
LINE
  8
_0-0_
  6
CONTINUOUS
 62
    7
 10
391.87869713187126
 20
332.79902917560236
 11
391.87869713187126
 21
318.79982917560238
  0
LINE
  8
_0-0_
  6
CONTINUOUS
 62
    7
 10
391.87869713187126
 20
318.79982917560238
 11
377.87939713187131
 21
318.79982917560238
  0
LINE
  8
_0-0_
  6
CONTINUOUS
 62
    7
 10
377.87939713187131
 20
318.79982917560238
 11
377.87939713187131
 21
332.79902917560236
  0
LINE
  8
_0-0_
  6
CONTINUOUS
 62
    7
 10
358.82939713187125
 20
332.79902917560236
 11
372.82869713187131
 21
332.79902917560236
  0
LINE
  8
_0-0_
  6
CONTINUOUS
 62
    7
 10
372.82869713187131
 20
332.79902917560236
 11
372.82869713187131
 21
318.79982917560238
  0
LINE
  8
_0-0_
  6
CONTINUOUS
 62
    7
 10
372.82869713187131
 20
318.79982917560238
 11
358.82939713187125
 21
318.79982917560238
  0
LINE
  8
_0-0_
  6
CONTINUOUS
 62
    7
 10
358.82939713187125
 20
318.79982917560238
 11
358.82939713187125
 21
332.79902917560236
  0
LINE
  8
_0-0_
  6
CONTINUOUS
 62
    7
 10
339.77939713187129
 20
332.79902917560236
 11
353.77879713187122
 21
332.79902917560236
  0
LINE
  8
_0-0_
  6
CONTINUOUS
 62
    7
 10
353.77879713187122
 20
332.79902917560236
 11
353.77879713187122
 21
318.79982917560238
  0
LINE
  8
_0-0_
  6
CONTINUOUS
 62
    7
 10
353.77879713187122
 20
318.79982917560238
 11
339.77939713187129
 21
318.79982917560238
  0
LINE
  8
_0-0_
  6
CONTINUOUS
 62
    7
 10
339.77939713187129
 20
318.79982917560238
 11
339.77939713187129
 21
332.79902917560236
  0
LINE
  8
_0-0_
  6
CONTINUOUS
 62
    7
 10
473.12969713187124
 20
361.37362917560228
 11
487.12869713187126
 21
361.37362917560228
  0
LINE
  8
_0-0_
  6
CONTINUOUS
 62
    7
 10
487.12869713187126
 20
361.37362917560228
 11
487.12869713187126
 21
347.37462917560237
  0
LINE
  8
_0-0_
  6
CONTINUOUS
 62
    7
 10
487.12869713187126
 20
347.37462917560237
 11
473.12969713187124
 21
347.37462917560237
  0
LINE
  8
_0-0_
  6
CONTINUOUS
 62
    7
 10
473.12969713187124
 20
347.37462917560237
 11
473.12969713187124
 21
361.37362917560228
  0
LINE
  8
_0-0_
  6
CONTINUOUS
 62
    7
 10
454.07969713187128
 20
361.37362917560228
 11
468.07869713187125
 21
361.37362917560228
  0
LINE
  8
_0-0_
  6
CONTINUOUS
 62
    7
 10
468.07869713187125
 20
361.37362917560228
 11
468.07869713187125
 21
347.37462917560237
  0
LINE
  8
_0-0_
  6
CONTINUOUS
 62
    7
 10
468.07869713187125
 20
347.37462917560237
 11
454.07969713187128
 21
347.37462917560237
  0
LINE
  8
_0-0_
  6
CONTINUOUS
 62
    7
 10
454.07969713187128
 20
347.37462917560237
 11
454.07969713187128
 21
361.37362917560228
  0
LINE
  8
_0-0_
  6
CONTINUOUS
 62
    7
 10
435.02969713187122
 20
361.37362917560228
 11
449.02869713187124
 21
361.37362917560228
  0
LINE
  8
_0-0_
  6
CONTINUOUS
 62
    7
 10
449.02869713187124
 20
361.37362917560228
 11
449.02869713187124
 21
347.37462917560237
  0
LINE
  8
_0-0_
  6
CONTINUOUS
 62
    7
 10
449.02869713187124
 20
347.37462917560237
 11
435.02969713187122
 21
347.37462917560237
  0
LINE
  8
_0-0_
  6
CONTINUOUS
 62
    7
 10
435.02969713187122
 20
347.37462917560237
 11
435.02969713187122
 21
361.37362917560228
  0
LINE
  8
_0-0_
  6
CONTINUOUS
 62
    7
 10
415.97939713187122
 20
361.37362917560228
 11
429.97869713187129
 21
361.37362917560228
  0
LINE
  8
_0-0_
  6
CONTINUOUS
 62
    7
 10
429.97869713187129
 20
361.37362917560228
 11
429.97869713187129
 21
347.37462917560237
  0
LINE
  8
_0-0_
  6
CONTINUOUS
 62
    7
 10
429.97869713187129
 20
347.37462917560237
 11
415.97939713187122
 21
347.37462917560237
  0
LINE
  8
_0-0_
  6
CONTINUOUS
 62
    7
 10
415.97939713187122
 20
347.37462917560237
 11
415.97939713187122
 21
361.37362917560228
  0
LINE
  8
_0-0_
  6
CONTINUOUS
 62
    7
 10
387.40439713187129
 20
361.37362917560228
 11
401.40369713187124
 21
361.37362917560228
  0
LINE
  8
_0-0_
  6
CONTINUOUS
 62
    7
 10
401.40369713187124
 20
361.37362917560228
 11
401.40369713187124
 21
347.37462917560237
  0
LINE
  8
_0-0_
  6
CONTINUOUS
 62
    7
 10
401.40369713187124
 20
347.37462917560237
 11
387.40439713187129
 21
347.37462917560237
  0
LINE
  8
_0-0_
  6
CONTINUOUS
 62
    7
 10
387.40439713187129
 20
347.37462917560237
 11
387.40439713187129
 21
361.37362917560228
  0
LINE
  8
_0-0_
  6
CONTINUOUS
 62
    7
 10
368.35439713187122
 20
361.37362917560228
 11
382.35369713187129
 21
361.37362917560228
  0
LINE
  8
_0-0_
  6
CONTINUOUS
 62
    7
 10
382.35369713187129
 20
361.37362917560228
 11
382.35369713187129
 21
347.37462917560237
  0
LINE
  8
_0-0_
  6
CONTINUOUS
 62
    7
 10
382.35369713187129
 20
347.37462917560237
 11
368.35439713187122
 21
347.37462917560237
  0
LINE
  8
_0-0_
  6
CONTINUOUS
 62
    7
 10
368.35439713187122
 20
347.37462917560237
 11
368.35439713187122
 21
361.37362917560228
  0
LINE
  8
_0-0_
  6
CONTINUOUS
 62
    7
 10
349.30439713187127
 20
361.37362917560228
 11
363.30369713187122
 21
361.37362917560228
  0
LINE
  8
_0-0_
  6
CONTINUOUS
 62
    7
 10
363.30369713187122
 20
361.37362917560228
 11
363.30369713187122
 21
347.37462917560237
  0
LINE
  8
_0-0_
  6
CONTINUOUS
 62
    7
 10
363.30369713187122
 20
347.37462917560237
 11
349.30439713187127
 21
347.37462917560237
  0
LINE
  8
_0-0_
  6
CONTINUOUS
 62
    7
 10
349.30439713187127
 20
347.37462917560237
 11
349.30439713187127
 21
361.37362917560228
  0
LINE
  8
_0-0_
  6
CONTINUOUS
 62
    7
 10
330.25434713187121
 20
361.37362917560228
 11
344.25389713187121
 21
361.37362917560228
  0
LINE
  8
_0-0_
  6
CONTINUOUS
 62
    7
 10
344.25389713187121
 20
361.37362917560228
 11
344.25389713187121
 21
347.37462917560237
  0
LINE
  8
_0-0_
  6
CONTINUOUS
 62
    7
 10
344.25389713187121
 20
347.37462917560237
 11
330.25434713187121
 21
347.37462917560237
  0
LINE
  8
_0-0_
  6
CONTINUOUS
 62
    7
 10
330.25434713187121
 20
347.37462917560237
 11
330.25434713187121
 21
361.37362917560228
  0
LINE
  8
_0-0_
  6
CONTINUOUS
 62
    7
 10
330.75405963187126
 20
253.57439417560224
 11
330.75405963187126
 21
236.07439417560224
  0
ARC
  8
_0-0_
  6
CONTINUOUS
 62
    7
 10
331.50405963187126
 20
253.57439417560224
 40
0.7500000000000001
 50
90
 51
180
  0
LINE
  8
_0-0_
  6
CONTINUOUS
 62
    7
 10
332.25405963187126
 20
253.57439417560224
 11
332.25405963187126
 21
236.07439417560224
  0
ARC
  8
_0-0_
  6
CONTINUOUS
 62
    7
 10
331.50405963187126
 20
253.57439417560224
 40
0.7500000000000001
 50
0
 51
90
  0
LINE
  8
_0-0_
  6
CONTINUOUS
 62
    7
 10
330.75405963187126
 20
256.57439417560227
 11
330.75405963187126
 21
257.89324361322821
  0
ARC
  8
_0-0_
  6
CONTINUOUS
 62
    7
 10
331.50405963187126
 20
256.57439417560227
 40
0.7500000000000001
 50
180
 51
270
  0
LINE
  8
_0-0_
  6
CONTINUOUS
 62
    7
 10
332.25405963187126
 20
256.57439417560227
 11
332.25405963187126
 21
257.89324361322821
  0
ARC
  8
_0-0_
  6
CONTINUOUS
 62
    7
 10
331.50405963187126
 20
256.57439417560227
 40
0.7500000000000001
 50
270
 51
0
  0
LINE
  8
_0-0_
  6
CONTINUOUS
 62
    7
 10
321.22841463187126
 20
300.48676167560228
 11
321.22841463187126
 21
298.45556473797632
  0
ARC
  8
_0-0_
  6
CONTINUOUS
 62
    7
 10
321.97841463187126
 20
300.48676167560228
 40
0.7500000000000001
 50
90
 51
180
  0
LINE
  8
_0-0_
  6
CONTINUOUS
 62
    7
 10
322.72841463187126
 20
300.48676167560228
 11
322.72841463187126
 21
298.45556473797632
  0
ARC
  8
_0-0_
  6
CONTINUOUS
 62
    7
 10
321.97841463187126
 20
300.48676167560228
 40
0.7500000000000001
 50
0
 51
90
  0
ARC
  8
_0-0_
  6
CONTINUOUS
 62
    7
 10
321.97841463187126
 20
303.48676167560228
 40
0.7500000000000001
 50
180
 51
270
  0
ARC
  8
_0-0_
  6
CONTINUOUS
 62
    7
 10
321.97841463187126
 20
303.48676167560228
 40
0.7500000000000001
 50
270
 51
0
  0
LINE
  8
_0-0_
  6
CONTINUOUS
 62
    7
 10
321.22841463187126
 20
350.39912917560235
 11
321.22841463187126
 21
367.89912917560235
  0
ARC
  8
_0-0_
  6
CONTINUOUS
 62
    7
 10
321.97841463187126
 20
350.39912917560235
 40
0.7500000000000001
 50
180
 51
270
  0
LINE
  8
_0-0_
  6
CONTINUOUS
 62
    7
 10
322.72841463187126
 20
350.39912917560235
 11
322.72841463187126
 21
367.89912917560235
  0
ARC
  8
_0-0_
  6
CONTINUOUS
 62
    7
 10
321.97841463187126
 20
350.39912917560235
 40
0.7500000000000001
 50
270
 51
0
  0
LINE
  8
_0-0_
  6
CONTINUOUS
 62
    7
 10
321.22841463187126
 20
347.39912917560235
 11
321.22841463187126
 21
303.48676167560228
  0
ARC
  8
_0-0_
  6
CONTINUOUS
 62
    7
 10
321.97841463187126
 20
347.39912917560235
 40
0.7500000000000001
 50
90
 51
180
  0
LINE
  8
_0-0_
  6
CONTINUOUS
 62
    7
 10
322.72841463187126
 20
347.39912917560235
 11
322.72841463187126
 21
303.48676167560228
  0
ARC
  8
_0-0_
  6
CONTINUOUS
 62
    7
 10
321.97841463187126
 20
347.39912917560235
 40
0.7500000000000001
 50
0
 51
90
  0
LINE
  8
_0-0_
  6
CONTINUOUS
 62
    7
 10
157.06654713187129
 20
235.07439417560224
 11
329.75405963187126
 21
235.07439417560224
  0
ARC
  8
_0-0_
  6
CONTINUOUS
 62
    7
 10
157.06654713187129
 20
238.07439417560224
 40
3
 50
180
 51
270
  0
LINE
  8
_0-0_
  6
CONTINUOUS
 62
    7
 10
515.46669713187123
 20
235.07439417560224
 11
333.25405963187126
 21
235.07439417560224
  0
ARC
  8
_0-0_
  6
CONTINUOUS
 62
    7
 10
515.46669713187123
 20
238.07439417560224
 40
3
 50
270
 51
0
  0
LINE
  8
_0-0_
  6
CONTINUOUS
 62
    7
 10
515.46669713187123
 20
368.89912917560235
 11
323.72841463187126
 21
368.89912917560235
  0
LINE
  8
_0-0_
  6
CONTINUOUS
 62
    7
 10
518.46669713187123
 20
365.89912917560235
 11
518.46669713187123
 21
238.07439417560224
  0
ARC
  8
_0-0_
  6
CONTINUOUS
 62
    7
 10
515.46669713187123
 20
365.89912917560235
 40
3
 50
0
 51
90
  0
CIRCLE
  8
_0-0_
  6
CONTINUOUS
 62
    7
 10
157.06654713187129
 20
365.8991291756023
 40
1.1000000000000001
  0
CIRCLE
  8
_0-0_
  6
CONTINUOUS
 62
    7
 10
157.06654713187129
 20
238.07439417560224
 40
1.1000000000000001
  0
CIRCLE
  8
_0-0_
  6
CONTINUOUS
 62
    7
 10
327.75405963187126
 20
238.07439417560224
 40
1.1000000000000001
  0
CIRCLE
  8
_0-0_
  6
CONTINUOUS
 62
    7
 10
318.22841463187126
 20
365.8991291756023
 40
1.1000000000000001
  0
CIRCLE
  8
_0-0_
  6
CONTINUOUS
 62
    7
 10
325.72841463187126
 20
365.89912917560235
 40
1.1000000000000001
  0
CIRCLE
  8
_0-0_
  6
CONTINUOUS
 62
    7
 10
335.25405963187126
 20
238.07439417560224
 40
1.1000000000000001
  0
CIRCLE
  8
_0-0_
  6
CONTINUOUS
 62
    7
 10
515.46669713187123
 20
238.07439417560224
 40
1.1000000000000001
  0
CIRCLE
  8
_0-0_
  6
CONTINUOUS
 62
    7
 10
515.46669713187123
 20
365.89912917560235
 40
1.1000000000000001
  0
ENDSEC
  0
EOF
