  0
SECTION
  2
HEADER
  9
$ACADVER
  1
AC1009
  9
$INSBASE
 10
0
 20
0
 30
0
  9
$EXTMIN
 10
0
 20
0
  9
$EXTMAX
 10
841
 20
594
  9
$LIMMIN
 10
0
 20
0
  9
$LIMMAX
 10
841
 20
594
  9
$LTSCALE
 40
1
  0
ENDSEC
  0
SECTION
  2
TABLES
  0
TABLE
  2
LTYPE
 70
     9
  0
LTYPE
  2
CONTINUOUS
 70
    64
  3
実線
 72
    65
 73
     0
 40
0.0
  0
LTYPE
  2
DASHED1
 70
    64
  3
--  --  --  --  --  --  --  --  
 72
    65
 73
     2
 40
2.5
 49
1.25
 49
-1.25
  0
LTYPE
  2
DASHED2
 70
    64
  3
----    ----    ----    ----    
 72
    65
 73
     2
 40
5.0
 49
2.5
 49
-2.5
  0
LTYPE
  2
DASHED3
 70
    64
  3
------  ------  ------  ------  
 72
    65
 73
     2
 40
5.0
 49
3.75
 49
-1.25
  0
LTYPE
  2
CENTER1
 70
    64
  3
----- - ----- - ----- - ----- - 
 72
    65
 73
     4
 40
10.0
 49
6.25
 49
-1.25
 49
1.25
 49
-1.25
  0
LTYPE
  2
CENTER2
 70
    64
  3
----------  --  ----------  --  
 72
    65
 73
     4
 40
20.0
 49
12.5
 49
-2.5
 49
2.5
 49
-2.5
  0
LTYPE
  2
PHANTOM1
 70
    64
  3
--- - - --- - - --- - - --- - - 
 72
    65
 73
     6
 40
10.0
 49
3.25
 49
-1.25
 49
1.25
 49
-1.25
 49
1.25
 49
-1.25
  0
LTYPE
  2
PHANTOM2
 70
    64
  3
--------  -  -  --------  -  -  
 72
    65
 73
     6
 40
20.0
 49
10.0
 49
-2.5
 49
1.25
 49
-2.5
 49
1.25
 49
-2.5
  0
LTYPE
  2
DOT
 70
    64
  3
-   -   -   -   -   -   -   -   
 72
    65
 73
     2
 40
2.5
 49
0.625
 49
-1.875
  0
LTYPE
  2
DUMMY
 70
    64
  3
ダミー
 72
    65
 73
     0
 40
0.0
  0
LTYPE
  2
RAND1
 70
    64
  3
ランダム線1
 72
    65
 73
     4
 40
10.0
 49
1.0
 49
-2.0
 49
3.0
 49
-4.0
  0
LTYPE
  2
RAND2
 70
    64
  3
ランダム線2
 72
    65
 73
     4
 40
14.0
 49
2.0
 49
-3.0
 49
4.0
 49
-5.0
  0
LTYPE
  2
RAND3
 70
    64
  3
ランダム線3
 72
    65
 73
     4
 40
18.0
 49
3.0
 49
-4.0
 49
5.0
 49
-6.0
  0
LTYPE
  2
RAND4
 70
    64
  3
ランダム線4
 72
    65
 73
     4
 40
22.0
 49
4.0
 49
-5.0
 49
6.0
 49
-7.0
  0
LTYPE
  2
RAND5
 70
    64
  3
ランダム線5
 72
    65
 73
     4
 40
26.0
 49
5.0
 49
-6.0
 49
7.0
 49
-8.0
  0
LTYPE
  2
LONG1
 70
    64
  3
----------  --  ----------  --  
 72
    65
 73
     4
 40
40.0
 49
32.5
 49
-2.5
 49
2.5
 49
-2.5
  0
LTYPE
  2
LONG2
 70
    64
  3
--------  -  -  --------  -  -  
 72
    65
 73
     6
 40
40.0
 49
30.0
 49
-2.5
 49
1.25
 49
-2.5
 49
1.25
 49
-2.5
  0
LTYPE
  2
LONG3
 70
    64
  3
+++++++++++++++..+++++++++++++++
 72
    65
 73
     2
 40
40.0
 49
37.5
 49
-2.5
  0
LTYPE
  2
LONG4
 70
    64
  3
+++++++++++++++..+++++++++++++++
 72
    65
 73
     2
 40
80.0
 49
75.0
 49
-5.0
  0
LTYPE
  2
LONG5
 70
    64
  3
----------  --  ----------  --  
 72
    65
 73
     4
 40
60.0
 49
37.5
 49
-7.5
 49
7.5
 49
-7.5
  0
LTYPE
  2
dashed
 70
   64
  3
-------   -------------   ------
 72
   65
 73
    2
 40
7.5
 49
6
 49
-1.5
  0
LTYPE
  2
dashed_spaced
 70
   64
  3
----        --------        ----
 72
   65
 73
    2
 40
12
 49
6
 49
-6
  0
LTYPE
  2
long_dashed_dotted
 70
   64
  3
------------- --- --------------
 72
   65
 73
    4
 40
15.25
 49
12
 49
-1.5
 49
0.25
 49
-1.5
  0
LTYPE
  2
long_dashed_double-dotted
 70
   64
  3
----------- --- --- ------------
 72
   65
 73
    6
 40
17
 49
12
 49
-1.5
 49
0.25
 49
-1.5
 49
0.25
 49
-1.5
  0
LTYPE
  2
long_dashed_triplicate-dotted
 70
   64
  3
--------- --- --- --- ----------
 72
   65
 73
    8
 40
18.75
 49
12
 49
-1.5
 49
0.25
 49
-1.5
 49
0.25
 49
-1.5
 49
0.25
 49
-1.5
  0
LTYPE
  2
dotted
 70
   64
  3
   -       -       -       -    
 72
   65
 73
    2
 40
1.75
 49
0.25
 49
-1.5
  0
LTYPE
  2
chain
 70
   64
  3
-------------- -- --------------
 72
   65
 73
    4
 40
18.5
 49
12
 49
-1.5
 49
3.5
 49
-1.5
  0
LTYPE
  2
chain_double_dash
 70
   64
  3
------------ -- -- -------------
 72
   65
 73
    6
 40
23.5
 49
12
 49
-1.5
 49
3.5
 49
-1.5
 49
3.5
 49
-1.5
  0
LTYPE
  2
dashed_dotted
 70
   64
  3
-----------     -     ----------
 72
   65
 73
    4
 40
9.25
 49
6
 49
-1.5
 49
0.25
 49
-1.5
  0
LTYPE
  2
double-dashed_dotted
 70
   64
  3
------   -----------   -   -----
 72
   65
 73
    6
 40
16.75
 49
6
 49
-1.5
 49
6
 49
-1.5
 49
0.25
 49
-1.5
  0
LTYPE
  2
dashed_double-dotted
 70
   64
  3
---------    -    -    ---------
 72
   65
 73
    6
 40
11
 49
6
 49
-1.5
 49
0.25
 49
-1.5
 49
0.25
 49
-1.5
  0
LTYPE
  2
double-dashed_double-dotted
 70
   64
  3
-----   ---------   -   -   ----
 72
   65
 73
    8
 40
18.5
 49
6
 49
-1.5
 49
6
 49
-1.5
 49
0.25
 49
-1.5
 49
0.25
 49
-1.5
  0
LTYPE
  2
dashed_triplicate-dotted
 70
   64
  3
-------    -    -    -    ------
 72
   65
 73
    8
 40
12.75
 49
6
 49
-1.5
 49
0.25
 49
-1.5
 49
0.25
 49
-1.5
 49
0.25
 49
-1.5
  0
LTYPE
  2
double-dashed_triplicate-dotted
 70
   64
  3
-----  ---------  -  -  -  -----
 72
   65
 73
   10
 40
20.25
 49
6
 49
-1.5
 49
6
 49
-1.5
 49
0.25
 49
-1.5
 49
0.25
 49
-1.5
 49
0.25
 49
-1.5
  0
LTYPE
  2
undefined
 70
   64
  3
--------------------------------
 72
   65
 73
    0
 40
0
  0
LTYPE
  2
_
 70
   64
  3
                                
 72
   65
 73
    0
 40
0
  0
LTYPE
  2
__18
 70
   64
  3
                                
 72
   65
 73
    0
 40
0
  0
LTYPE
  2
__19
 70
   64
  3
                                
 72
   65
 73
    0
 40
0
  0
LTYPE
  2
__20
 70
   64
  3
                                
 72
   65
 73
    0
 40
0
  0
LTYPE
  2
__21
 70
   64
  3
                                
 72
   65
 73
    0
 40
0
  0
LTYPE
  2
__22
 70
   64
  3
                                
 72
   65
 73
    0
 40
0
  0
LTYPE
  2
__23
 70
   64
  3
                                
 72
   65
 73
    0
 40
0
  0
LTYPE
  2
__24
 70
   64
  3
                                
 72
   65
 73
    0
 40
0
  0
LTYPE
  2
__25
 70
   64
  3
                                
 72
   65
 73
    0
 40
0
  0
LTYPE
  2
__26
 70
   64
  3
                                
 72
   65
 73
    0
 40
0
  0
LTYPE
  2
__27
 70
   64
  3
                                
 72
   65
 73
    0
 40
0
  0
LTYPE
  2
__28
 70
   64
  3
                                
 72
   65
 73
    0
 40
0
  0
LTYPE
  2
__29
 70
   64
  3
                                
 72
   65
 73
    0
 40
0
  0
LTYPE
  2
__30
 70
   64
  3
                                
 72
   65
 73
    0
 40
0
  0
LTYPE
  2
__31
 70
   64
  3
                                
 72
   65
 73
    0
 40
0
  0
LTYPE
  2
__32
 70
   64
  3
                                
 72
   65
 73
    0
 40
0
  0
ENDTAB
  0
TABLE
  2
STYLE
  5
3
100
AcDbSymbolTable
 70
     1
  0
STYLE
  5
10
100
AcDbSymbolTableRecord
100
AcDbTextStyleTableRecord
  2
STANDARD
 70
     0
 40
0.0
 41
1.0
 50
0.0
 71
     0
 42
0.2
  3
txt
  4
bigfont.shx
  0
STYLE
  5
26
100
AcDbSymbolTableRecord
100
AcDbTextStyleTableRecord
  2
TATEGAKI
 70
    68
 40
0.0
 41
1.0
 50
0.0
 71
     0
 42
1.0
  3
txt
  4
bigfont.shx
  0
ENDTAB
  0
TABLE
  2
LAYER
 70
    2
  0
LAYER
  2
_0-0_
 70
   64
 62
    7
  6
CONTINUOUS
  0
LAYER
  2
ADD_LINE
 70
   64
 62
    7
  6
CONTINUOUS
  0
ENDTAB
  0
ENDSEC
  0
SECTION
  2
BLOCKS
  0
ENDSEC
  0
SECTION
  2
ENTITIES
  0
LINE
  8
_0-0_
  6
CONTINUOUS
 62
    7
 10
154.06654713187129
 20
238.07439417560224
 11
154.06654713187129
 21
365.8991291756023
  0
LINE
  8
_0-0_
  6
CONTINUOUS
 62
    7
 10
157.06654713187129
 20
368.8991291756023
 11
320.22841463187126
 21
368.8991291756023
  0
ARC
  8
_0-0_
  6
CONTINUOUS
 62
    7
 10
157.06654713187129
 20
365.8991291756023
 40
3
 50
90
 51
180
  0
ARC
  8
_0-0_
  6
CONTINUOUS
 62
    7
 10
331.22841463187126
 20
298.45556473797632
 40
10
 50
180
 51
194.03713868216576
  0
ARC
  8
_0-0_
  6
CONTINUOUS
 62
    7
 10
320.22841463187126
 20
367.89912917560235
 40
1
 50
0
 51
90
  0
LINE
  8
_0-0_
  6
CONTINUOUS
 62
    7
 10
330.45544673731695
 20
260.31875144258942
 11
321.52702752642557
 21
296.03005690861511
  0
ARC
  8
_0-0_
  6
CONTINUOUS
 62
    7
 10
320.75405963187126
 20
257.89324361322821
 40
10
 50
0
 51
14.037138682165798
  0
ARC
  8
_0-0_
  6
CONTINUOUS
 62
    7
 10
329.75405963187126
 20
236.07439417560224
 40
1
 50
270
 51
0
  0
ARC
  8
_0-0_
  6
CONTINUOUS
 62
    7
 10
332.72841463187126
 20
298.45556473797632
 40
10
 50
180
 51
194.03713868216576
  0
LINE
  8
_0-0_
  6
CONTINUOUS
 62
    7
 10
331.95544673731695
 20
260.31875144258942
 11
323.02702752642557
 21
296.03005690861511
  0
ARC
  8
_0-0_
  6
CONTINUOUS
 62
    7
 10
322.25405963187126
 20
257.89324361322821
 40
10
 50
0
 51
14.037138682165798
  0
ARC
  8
_0-0_
  6
CONTINUOUS
 62
    7
 10
323.72841463187126
 20
367.89912917560235
 40
1
 50
90
 51
180
  0
ARC
  8
_0-0_
  6
CONTINUOUS
 62
    7
 10
333.25405963187126
 20
236.07439417560224
 40
1
 50
180
 51
270
  0
LINE
  8
_0-0_
  6
CONTINUOUS
 62
    7
 10
329.0789598484169
 20
368.89912917560235
 11
323.72841463187126
 21
368.89912917560235
  0
LINE
  8
_0-0_
  6
CONTINUOUS
 62
    7
 10
330.75405963187126
 20
253.57439417560224
 11
330.75405963187126
 21
236.07439417560224
  0
ARC
  8
_0-0_
  6
CONTINUOUS
 62
    7
 10
331.50405963187126
 20
253.57439417560224
 40
0.7500000000000001
 50
90
 51
180
  0
LINE
  8
_0-0_
  6
CONTINUOUS
 62
    7
 10
332.25405963187126
 20
253.57439417560224
 11
332.25405963187126
 21
236.07439417560224
  0
ARC
  8
_0-0_
  6
CONTINUOUS
 62
    7
 10
331.50405963187126
 20
253.57439417560224
 40
0.7500000000000001
 50
0
 51
90
  0
LINE
  8
_0-0_
  6
CONTINUOUS
 62
    7
 10
330.75405963187126
 20
256.57439417560227
 11
330.75405963187126
 21
257.89324361322821
  0
ARC
  8
_0-0_
  6
CONTINUOUS
 62
    7
 10
331.50405963187126
 20
256.57439417560227
 40
0.7500000000000001
 50
180
 51
270
  0
LINE
  8
_0-0_
  6
CONTINUOUS
 62
    7
 10
332.25405963187126
 20
256.57439417560227
 11
332.25405963187126
 21
257.89324361322821
  0
ARC
  8
_0-0_
  6
CONTINUOUS
 62
    7
 10
331.50405963187126
 20
256.57439417560227
 40
0.7500000000000001
 50
270
 51
0
  0
LINE
  8
_0-0_
  6
CONTINUOUS
 62
    7
 10
321.22841463187126
 20
300.48676167560228
 11
321.22841463187126
 21
298.45556473797632
  0
ARC
  8
_0-0_
  6
CONTINUOUS
 62
    7
 10
321.97841463187126
 20
300.48676167560228
 40
0.7500000000000001
 50
90
 51
180
  0
LINE
  8
_0-0_
  6
CONTINUOUS
 62
    7
 10
322.72841463187126
 20
300.48676167560228
 11
322.72841463187126
 21
298.45556473797632
  0
ARC
  8
_0-0_
  6
CONTINUOUS
 62
    7
 10
321.97841463187126
 20
300.48676167560228
 40
0.7500000000000001
 50
0
 51
90
  0
ARC
  8
_0-0_
  6
CONTINUOUS
 62
    7
 10
321.97841463187126
 20
303.48676167560228
 40
0.7500000000000001
 50
180
 51
270
  0
ARC
  8
_0-0_
  6
CONTINUOUS
 62
    7
 10
321.97841463187126
 20
303.48676167560228
 40
0.7500000000000001
 50
270
 51
0
  0
LINE
  8
_0-0_
  6
CONTINUOUS
 62
    7
 10
321.22841463187126
 20
350.39912917560235
 11
321.22841463187126
 21
367.89912917560235
  0
ARC
  8
_0-0_
  6
CONTINUOUS
 62
    7
 10
321.97841463187126
 20
350.39912917560235
 40
0.7500000000000001
 50
180
 51
270
  0
LINE
  8
_0-0_
  6
CONTINUOUS
 62
    7
 10
322.72841463187126
 20
350.39912917560235
 11
322.72841463187126
 21
367.89912917560235
  0
ARC
  8
_0-0_
  6
CONTINUOUS
 62
    7
 10
321.97841463187126
 20
350.39912917560235
 40
0.7500000000000001
 50
270
 51
0
  0
LINE
  8
_0-0_
  6
CONTINUOUS
 62
    7
 10
321.22841463187126
 20
347.39912917560235
 11
321.22841463187126
 21
303.48676167560228
  0
ARC
  8
_0-0_
  6
CONTINUOUS
 62
    7
 10
321.97841463187126
 20
347.39912917560235
 40
0.7500000000000001
 50
90
 51
180
  0
LINE
  8
_0-0_
  6
CONTINUOUS
 62
    7
 10
322.72841463187126
 20
347.39912917560235
 11
322.72841463187126
 21
303.48676167560228
  0
ARC
  8
_0-0_
  6
CONTINUOUS
 62
    7
 10
321.97841463187126
 20
347.39912917560235
 40
0.7500000000000001
 50
0
 51
90
  0
LINE
  8
_0-0_
  6
CONTINUOUS
 62
    7
 10
157.06654713187129
 20
235.07439417560224
 11
329.75405963187126
 21
235.07439417560224
  0
ARC
  8
_0-0_
  6
CONTINUOUS
 62
    7
 10
157.06654713187129
 20
238.07439417560224
 40
3
 50
180
 51
270
  0
LINE
  8
_0-0_
  6
CONTINUOUS
 62
    7
 10
515.46669713187123
 20
235.07439417560224
 11
333.25405963187126
 21
235.07439417560224
  0
ARC
  8
_0-0_
  6
CONTINUOUS
 62
    7
 10
515.46669713187123
 20
238.07439417560224
 40
3
 50
270
 51
0
  0
LINE
  8
_0-0_
  6
CONTINUOUS
 62
    7
 10
515.46669713187123
 20
368.89912917560235
 11
323.72841463187126
 21
368.89912917560235
  0
LINE
  8
_0-0_
  6
CONTINUOUS
 62
    7
 10
518.46669713187123
 20
365.89912917560235
 11
518.46669713187123
 21
238.07439417560224
  0
ARC
  8
_0-0_
  6
CONTINUOUS
 62
    7
 10
515.46669713187123
 20
365.89912917560235
 40
3
 50
0
 51
90
  0
CIRCLE
  8
_0-0_
  6
CONTINUOUS
 62
    7
 10
157.06654713187129
 20
365.8991291756023
 40
1.1000000000000001
  0
CIRCLE
  8
_0-0_
  6
CONTINUOUS
 62
    7
 10
157.06654713187129
 20
238.07439417560224
 40
1.1000000000000001
  0
CIRCLE
  8
_0-0_
  6
CONTINUOUS
 62
    7
 10
327.75405963187126
 20
238.07439417560224
 40
1.1000000000000001
  0
CIRCLE
  8
_0-0_
  6
CONTINUOUS
 62
    7
 10
318.22841463187126
 20
365.8991291756023
 40
1.1000000000000001
  0
CIRCLE
  8
_0-0_
  6
CONTINUOUS
 62
    7
 10
325.72841463187126
 20
365.89912917560235
 40
1.1000000000000001
  0
CIRCLE
  8
_0-0_
  6
CONTINUOUS
 62
    7
 10
335.25405963187126
 20
238.07439417560224
 40
1.1000000000000001
  0
CIRCLE
  8
_0-0_
  6
CONTINUOUS
 62
    7
 10
515.46669713187123
 20
238.07439417560224
 40
1.1000000000000001
  0
CIRCLE
  8
_0-0_
  6
CONTINUOUS
 62
    7
 10
515.46669713187123
 20
365.89912917560235
 40
1.1000000000000001
  0
ENDSEC
  0
EOF
