  0
SECTION
  2
HEADER
  9
$ACADVER
  1
AC1009
  9
$EXTMIN
 10
0.0
 20
0.0
 30
0.0
  9
$EXTMAX
 10
1000.0
 20
1000.0
 30
0.0
  9
$FILLMODE
 70
 0
  9
$SPLFRAME
 70
 1
  0
ENDSEC
  0
SECTION
  2
TABLES
  0
TABLE
  2
LAYER
 70
1
  0
LAYER
  2
0
 70
     0
 62
     7
  6
CONTINUOUS
  0
ENDTAB
  0
ENDSEC
  0
SECTION
  2
ENTITIES
  0
LINE
  8
0
 62
     0
 10
0.0950846
 20
129.021
 30
0.0
 11
185.833
 21
129.021
 31
0.0
  0
LINE
  8
0
 62
     0
 10
185.833
 20
129.021
 30
0.0
 11
185.833
 21
0.434082
 31
0.0
  0
LINE
  8
0
 62
     0
 10
185.833
 20
0.434082
 30
0.0
 11
0.0950846
 21
0.434082
 31
0.0
  0
LINE
  8
0
 62
     0
 10
0.0950846
 20
0.434082
 30
0.0
 11
0.0950846
 21
129.021
 31
0.0
  0
LINE
  8
0
 62
     0
 10
169.307
 20
16.9595
 30
0.0
 11
169.307
 21
15.9604
 31
0.0
  0
LINE
  8
0
 62
     0
 10
169.307
 20
15.9604
 30
0.0
 11
168.506
 21
15.9604
 31
0.0
  0
LINE
  8
0
 62
     0
 10
168.506
 20
15.9604
 30
0.0
 11
168.506
 21
12.8598
 31
0.0
  0
LINE
  8
0
 62
     0
 10
168.506
 20
12.8598
 30
0.0
 11
169.307
 21
12.8598
 31
0.0
  0
LINE
  8
0
 62
     0
 10
169.307
 20
12.8598
 30
0.0
 11
169.307
 21
7.05968
 31
0.0
  0
LINE
  8
0
 62
     0
 10
169.307
 20
7.05968
 30
0.0
 11
168.506
 21
7.05968
 31
0.0
  0
LINE
  8
0
 62
     0
 10
168.506
 20
7.05968
 30
0.0
 11
168.506
 21
3.96049
 31
0.0
  0
LINE
  8
0
 62
     0
 10
168.506
 20
3.96049
 30
0.0
 11
169.307
 21
3.96049
 31
0.0
  0
LINE
  8
0
 62
     0
 10
169.307
 20
3.96049
 30
0.0
 11
169.307
 21
2.96003
 31
0.0
  0
LINE
  8
0
 62
     0
 10
169.307
 20
2.96003
 30
0.0
 11
183.307
 21
2.96003
 31
0.0
  0
LINE
  8
0
 62
     0
 10
183.307
 20
2.96003
 30
0.0
 11
183.307
 21
3.96049
 31
0.0
  0
LINE
  8
0
 62
     0
 10
183.307
 20
3.96049
 30
0.0
 11
184.106
 21
3.96049
 31
0.0
  0
LINE
  8
0
 62
     0
 10
184.106
 20
3.96049
 30
0.0
 11
184.106
 21
7.05968
 31
0.0
  0
LINE
  8
0
 62
     0
 10
184.106
 20
7.05968
 30
0.0
 11
183.307
 21
7.05968
 31
0.0
  0
LINE
  8
0
 62
     0
 10
183.307
 20
7.05968
 30
0.0
 11
183.307
 21
12.8598
 31
0.0
  0
LINE
  8
0
 62
     0
 10
183.307
 20
12.8598
 30
0.0
 11
184.106
 21
12.8598
 31
0.0
  0
LINE
  8
0
 62
     0
 10
184.106
 20
12.8598
 30
0.0
 11
184.106
 21
15.9604
 31
0.0
  0
LINE
  8
0
 62
     0
 10
184.106
 20
15.9604
 30
0.0
 11
183.307
 21
15.9604
 31
0.0
  0
LINE
  8
0
 62
     0
 10
183.307
 20
15.9604
 30
0.0
 11
183.307
 21
16.9595
 31
0.0
  0
LINE
  8
0
 62
     0
 10
183.307
 20
16.9595
 30
0.0
 11
169.307
 21
16.9595
 31
0.0
  0
LINE
  8
0
 62
     0
 10
143.112
 20
16.9595
 30
0.0
 11
143.112
 21
15.9604
 31
0.0
  0
LINE
  8
0
 62
     0
 10
143.112
 20
15.9604
 30
0.0
 11
142.313
 21
15.9604
 31
0.0
  0
LINE
  8
0
 62
     0
 10
142.313
 20
15.9604
 30
0.0
 11
142.313
 21
12.8598
 31
0.0
  0
LINE
  8
0
 62
     0
 10
142.313
 20
12.8598
 30
0.0
 11
143.112
 21
12.8598
 31
0.0
  0
LINE
  8
0
 62
     0
 10
143.112
 20
12.8598
 30
0.0
 11
143.112
 21
7.05968
 31
0.0
  0
LINE
  8
0
 62
     0
 10
143.112
 20
7.05968
 30
0.0
 11
142.313
 21
7.05968
 31
0.0
  0
LINE
  8
0
 62
     0
 10
142.313
 20
7.05968
 30
0.0
 11
142.313
 21
3.96049
 31
0.0
  0
LINE
  8
0
 62
     0
 10
142.313
 20
3.96049
 30
0.0
 11
143.112
 21
3.96049
 31
0.0
  0
LINE
  8
0
 62
     0
 10
143.112
 20
3.96049
 30
0.0
 11
143.112
 21
2.96003
 31
0.0
  0
LINE
  8
0
 62
     0
 10
143.112
 20
2.96003
 30
0.0
 11
157.113
 21
2.96003
 31
0.0
  0
LINE
  8
0
 62
     0
 10
157.113
 20
2.96003
 30
0.0
 11
157.113
 21
3.96049
 31
0.0
  0
LINE
  8
0
 62
     0
 10
157.113
 20
3.96049
 30
0.0
 11
157.912
 21
3.96049
 31
0.0
  0
LINE
  8
0
 62
     0
 10
157.912
 20
3.96049
 30
0.0
 11
157.912
 21
7.05968
 31
0.0
  0
LINE
  8
0
 62
     0
 10
157.912
 20
7.05968
 30
0.0
 11
157.113
 21
7.05968
 31
0.0
  0
LINE
  8
0
 62
     0
 10
157.113
 20
7.05968
 30
0.0
 11
157.113
 21
12.8598
 31
0.0
  0
LINE
  8
0
 62
     0
 10
157.113
 20
12.8598
 30
0.0
 11
157.912
 21
12.8598
 31
0.0
  0
LINE
  8
0
 62
     0
 10
157.912
 20
12.8598
 30
0.0
 11
157.912
 21
15.9604
 31
0.0
  0
LINE
  8
0
 62
     0
 10
157.912
 20
15.9604
 30
0.0
 11
157.113
 21
15.9604
 31
0.0
  0
LINE
  8
0
 62
     0
 10
157.113
 20
15.9604
 30
0.0
 11
157.113
 21
16.9595
 31
0.0
  0
LINE
  8
0
 62
     0
 10
157.113
 20
16.9595
 30
0.0
 11
143.112
 21
16.9595
 31
0.0
  0
LINE
  8
0
 62
     0
 10
121.682
 20
16.9595
 30
0.0
 11
121.682
 21
15.9604
 31
0.0
  0
LINE
  8
0
 62
     0
 10
121.682
 20
15.9604
 30
0.0
 11
120.881
 21
15.9604
 31
0.0
  0
LINE
  8
0
 62
     0
 10
120.881
 20
15.9604
 30
0.0
 11
120.881
 21
12.8598
 31
0.0
  0
LINE
  8
0
 62
     0
 10
120.881
 20
12.8598
 30
0.0
 11
121.682
 21
12.8598
 31
0.0
  0
LINE
  8
0
 62
     0
 10
121.682
 20
12.8598
 30
0.0
 11
121.682
 21
7.05968
 31
0.0
  0
LINE
  8
0
 62
     0
 10
121.682
 20
7.05968
 30
0.0
 11
120.881
 21
7.05968
 31
0.0
  0
LINE
  8
0
 62
     0
 10
120.881
 20
7.05968
 30
0.0
 11
120.881
 21
3.96049
 31
0.0
  0
LINE
  8
0
 62
     0
 10
120.881
 20
3.96049
 30
0.0
 11
121.682
 21
3.96049
 31
0.0
  0
LINE
  8
0
 62
     0
 10
121.682
 20
3.96049
 30
0.0
 11
121.682
 21
2.96003
 31
0.0
  0
LINE
  8
0
 62
     0
 10
121.682
 20
2.96003
 30
0.0
 11
135.682
 21
2.96003
 31
0.0
  0
LINE
  8
0
 62
     0
 10
135.682
 20
2.96003
 30
0.0
 11
135.682
 21
3.96049
 31
0.0
  0
LINE
  8
0
 62
     0
 10
135.682
 20
3.96049
 30
0.0
 11
136.481
 21
3.96049
 31
0.0
  0
LINE
  8
0
 62
     0
 10
136.481
 20
3.96049
 30
0.0
 11
136.481
 21
7.05968
 31
0.0
  0
LINE
  8
0
 62
     0
 10
136.481
 20
7.05968
 30
0.0
 11
135.682
 21
7.05968
 31
0.0
  0
LINE
  8
0
 62
     0
 10
135.682
 20
7.05968
 30
0.0
 11
135.682
 21
12.8598
 31
0.0
  0
LINE
  8
0
 62
     0
 10
135.682
 20
12.8598
 30
0.0
 11
136.481
 21
12.8598
 31
0.0
  0
LINE
  8
0
 62
     0
 10
136.481
 20
12.8598
 30
0.0
 11
136.481
 21
15.9604
 31
0.0
  0
LINE
  8
0
 62
     0
 10
136.481
 20
15.9604
 30
0.0
 11
135.682
 21
15.9604
 31
0.0
  0
LINE
  8
0
 62
     0
 10
135.682
 20
15.9604
 30
0.0
 11
135.682
 21
16.9595
 31
0.0
  0
LINE
  8
0
 62
     0
 10
135.682
 20
16.9595
 30
0.0
 11
121.682
 21
16.9595
 31
0.0
  0
LINE
  8
0
 62
     0
 10
102.632
 20
16.9595
 30
0.0
 11
102.632
 21
15.9604
 31
0.0
  0
LINE
  8
0
 62
     0
 10
102.632
 20
15.9604
 30
0.0
 11
101.831
 21
15.9604
 31
0.0
  0
LINE
  8
0
 62
     0
 10
101.831
 20
15.9604
 30
0.0
 11
101.831
 21
12.8598
 31
0.0
  0
LINE
  8
0
 62
     0
 10
101.831
 20
12.8598
 30
0.0
 11
102.632
 21
12.8598
 31
0.0
  0
LINE
  8
0
 62
     0
 10
102.632
 20
12.8598
 30
0.0
 11
102.632
 21
7.05968
 31
0.0
  0
LINE
  8
0
 62
     0
 10
102.632
 20
7.05968
 30
0.0
 11
101.831
 21
7.05968
 31
0.0
  0
LINE
  8
0
 62
     0
 10
101.831
 20
7.05968
 30
0.0
 11
101.831
 21
3.96049
 31
0.0
  0
LINE
  8
0
 62
     0
 10
101.831
 20
3.96049
 30
0.0
 11
102.632
 21
3.96049
 31
0.0
  0
LINE
  8
0
 62
     0
 10
102.632
 20
3.96049
 30
0.0
 11
102.632
 21
2.96003
 31
0.0
  0
LINE
  8
0
 62
     0
 10
102.632
 20
2.96003
 30
0.0
 11
116.632
 21
2.96003
 31
0.0
  0
LINE
  8
0
 62
     0
 10
116.632
 20
2.96003
 30
0.0
 11
116.632
 21
3.96049
 31
0.0
  0
LINE
  8
0
 62
     0
 10
116.632
 20
3.96049
 30
0.0
 11
117.431
 21
3.96049
 31
0.0
  0
LINE
  8
0
 62
     0
 10
117.431
 20
3.96049
 30
0.0
 11
117.431
 21
7.05968
 31
0.0
  0
LINE
  8
0
 62
     0
 10
117.431
 20
7.05968
 30
0.0
 11
116.632
 21
7.05968
 31
0.0
  0
LINE
  8
0
 62
     0
 10
116.632
 20
7.05968
 30
0.0
 11
116.632
 21
12.8598
 31
0.0
  0
LINE
  8
0
 62
     0
 10
116.632
 20
12.8598
 30
0.0
 11
117.431
 21
12.8598
 31
0.0
  0
LINE
  8
0
 62
     0
 10
117.431
 20
12.8598
 30
0.0
 11
117.431
 21
15.9604
 31
0.0
  0
LINE
  8
0
 62
     0
 10
117.431
 20
15.9604
 30
0.0
 11
116.632
 21
15.9604
 31
0.0
  0
LINE
  8
0
 62
     0
 10
116.632
 20
15.9604
 30
0.0
 11
116.632
 21
16.9595
 31
0.0
  0
LINE
  8
0
 62
     0
 10
116.632
 20
16.9595
 30
0.0
 11
102.632
 21
16.9595
 31
0.0
  0
LINE
  8
0
 62
     0
 10
83.5822
 20
16.9595
 30
0.0
 11
83.5822
 21
15.9604
 31
0.0
  0
LINE
  8
0
 62
     0
 10
83.5822
 20
15.9604
 30
0.0
 11
82.7814
 21
15.9604
 31
0.0
  0
LINE
  8
0
 62
     0
 10
82.7814
 20
15.9604
 30
0.0
 11
82.7814
 21
12.8598
 31
0.0
  0
LINE
  8
0
 62
     0
 10
82.7814
 20
12.8598
 30
0.0
 11
83.5822
 21
12.8598
 31
0.0
  0
LINE
  8
0
 62
     0
 10
83.5822
 20
12.8598
 30
0.0
 11
83.5822
 21
7.05968
 31
0.0
  0
LINE
  8
0
 62
     0
 10
83.5822
 20
7.05968
 30
0.0
 11
82.7814
 21
7.05968
 31
0.0
  0
LINE
  8
0
 62
     0
 10
82.7814
 20
7.05968
 30
0.0
 11
82.7814
 21
3.96049
 31
0.0
  0
LINE
  8
0
 62
     0
 10
82.7814
 20
3.96049
 30
0.0
 11
83.5822
 21
3.96049
 31
0.0
  0
LINE
  8
0
 62
     0
 10
83.5822
 20
3.96049
 30
0.0
 11
83.5822
 21
2.96003
 31
0.0
  0
LINE
  8
0
 62
     0
 10
83.5822
 20
2.96003
 30
0.0
 11
97.5815
 21
2.96003
 31
0.0
  0
LINE
  8
0
 62
     0
 10
97.5815
 20
2.96003
 30
0.0
 11
97.5815
 21
3.96049
 31
0.0
  0
LINE
  8
0
 62
     0
 10
97.5815
 20
3.96049
 30
0.0
 11
98.3809
 21
3.96049
 31
0.0
  0
LINE
  8
0
 62
     0
 10
98.3809
 20
3.96049
 30
0.0
 11
98.3809
 21
7.05968
 31
0.0
  0
LINE
  8
0
 62
     0
 10
98.3809
 20
7.05968
 30
0.0
 11
97.5815
 21
7.05968
 31
0.0
  0
LINE
  8
0
 62
     0
 10
97.5815
 20
7.05968
 30
0.0
 11
97.5815
 21
12.8598
 31
0.0
  0
LINE
  8
0
 62
     0
 10
97.5815
 20
12.8598
 30
0.0
 11
98.3809
 21
12.8598
 31
0.0
  0
LINE
  8
0
 62
     0
 10
98.3809
 20
12.8598
 30
0.0
 11
98.3809
 21
15.9604
 31
0.0
  0
LINE
  8
0
 62
     0
 10
98.3809
 20
15.9604
 30
0.0
 11
97.5815
 21
15.9604
 31
0.0
  0
LINE
  8
0
 62
     0
 10
97.5815
 20
15.9604
 30
0.0
 11
97.5815
 21
16.9595
 31
0.0
  0
LINE
  8
0
 62
     0
 10
97.5815
 20
16.9595
 30
0.0
 11
83.5822
 21
16.9595
 31
0.0
  0
LINE
  8
0
 62
     0
 10
64.5322
 20
16.9595
 30
0.0
 11
64.5322
 21
15.9604
 31
0.0
  0
LINE
  8
0
 62
     0
 10
64.5322
 20
15.9604
 30
0.0
 11
63.7314
 21
15.9604
 31
0.0
  0
LINE
  8
0
 62
     0
 10
63.7314
 20
15.9604
 30
0.0
 11
63.7314
 21
12.8598
 31
0.0
  0
LINE
  8
0
 62
     0
 10
63.7314
 20
12.8598
 30
0.0
 11
64.5322
 21
12.8598
 31
0.0
  0
LINE
  8
0
 62
     0
 10
64.5322
 20
12.8598
 30
0.0
 11
64.5322
 21
7.05968
 31
0.0
  0
LINE
  8
0
 62
     0
 10
64.5322
 20
7.05968
 30
0.0
 11
63.7314
 21
7.05968
 31
0.0
  0
LINE
  8
0
 62
     0
 10
63.7314
 20
7.05968
 30
0.0
 11
63.7314
 21
3.96049
 31
0.0
  0
LINE
  8
0
 62
     0
 10
63.7314
 20
3.96049
 30
0.0
 11
64.5322
 21
3.96049
 31
0.0
  0
LINE
  8
0
 62
     0
 10
64.5322
 20
3.96049
 30
0.0
 11
64.5322
 21
2.96003
 31
0.0
  0
LINE
  8
0
 62
     0
 10
64.5322
 20
2.96003
 30
0.0
 11
78.5315
 21
2.96003
 31
0.0
  0
LINE
  8
0
 62
     0
 10
78.5315
 20
2.96003
 30
0.0
 11
78.5315
 21
3.96049
 31
0.0
  0
LINE
  8
0
 62
     0
 10
78.5315
 20
3.96049
 30
0.0
 11
79.3309
 21
3.96049
 31
0.0
  0
LINE
  8
0
 62
     0
 10
79.3309
 20
3.96049
 30
0.0
 11
79.3309
 21
7.05968
 31
0.0
  0
LINE
  8
0
 62
     0
 10
79.3309
 20
7.05968
 30
0.0
 11
78.5315
 21
7.05968
 31
0.0
  0
LINE
  8
0
 62
     0
 10
78.5315
 20
7.05968
 30
0.0
 11
78.5315
 21
12.8598
 31
0.0
  0
LINE
  8
0
 62
     0
 10
78.5315
 20
12.8598
 30
0.0
 11
79.3309
 21
12.8598
 31
0.0
  0
LINE
  8
0
 62
     0
 10
79.3309
 20
12.8598
 30
0.0
 11
79.3309
 21
15.9604
 31
0.0
  0
LINE
  8
0
 62
     0
 10
79.3309
 20
15.9604
 30
0.0
 11
78.5315
 21
15.9604
 31
0.0
  0
LINE
  8
0
 62
     0
 10
78.5315
 20
15.9604
 30
0.0
 11
78.5315
 21
16.9595
 31
0.0
  0
LINE
  8
0
 62
     0
 10
78.5315
 20
16.9595
 30
0.0
 11
64.5322
 21
16.9595
 31
0.0
  0
LINE
  8
0
 62
     0
 10
45.4822
 20
16.9595
 30
0.0
 11
45.4822
 21
15.9604
 31
0.0
  0
LINE
  8
0
 62
     0
 10
45.4822
 20
15.9604
 30
0.0
 11
44.6814
 21
15.9604
 31
0.0
  0
LINE
  8
0
 62
     0
 10
44.6814
 20
15.9604
 30
0.0
 11
44.6814
 21
12.8598
 31
0.0
  0
LINE
  8
0
 62
     0
 10
44.6814
 20
12.8598
 30
0.0
 11
45.4822
 21
12.8598
 31
0.0
  0
LINE
  8
0
 62
     0
 10
45.4822
 20
12.8598
 30
0.0
 11
45.4822
 21
7.05968
 31
0.0
  0
LINE
  8
0
 62
     0
 10
45.4822
 20
7.05968
 30
0.0
 11
44.6814
 21
7.05968
 31
0.0
  0
LINE
  8
0
 62
     0
 10
44.6814
 20
7.05968
 30
0.0
 11
44.6814
 21
3.96049
 31
0.0
  0
LINE
  8
0
 62
     0
 10
44.6814
 20
3.96049
 30
0.0
 11
45.4822
 21
3.96049
 31
0.0
  0
LINE
  8
0
 62
     0
 10
45.4822
 20
3.96049
 30
0.0
 11
45.4822
 21
2.96003
 31
0.0
  0
LINE
  8
0
 62
     0
 10
45.4822
 20
2.96003
 30
0.0
 11
59.4815
 21
2.96003
 31
0.0
  0
LINE
  8
0
 62
     0
 10
59.4815
 20
2.96003
 30
0.0
 11
59.4815
 21
3.96049
 31
0.0
  0
LINE
  8
0
 62
     0
 10
59.4815
 20
3.96049
 30
0.0
 11
60.2809
 21
3.96049
 31
0.0
  0
LINE
  8
0
 62
     0
 10
60.2809
 20
3.96049
 30
0.0
 11
60.2809
 21
7.05968
 31
0.0
  0
LINE
  8
0
 62
     0
 10
60.2809
 20
7.05968
 30
0.0
 11
59.4815
 21
7.05968
 31
0.0
  0
LINE
  8
0
 62
     0
 10
59.4815
 20
7.05968
 30
0.0
 11
59.4815
 21
12.8598
 31
0.0
  0
LINE
  8
0
 62
     0
 10
59.4815
 20
12.8598
 30
0.0
 11
60.2809
 21
12.8598
 31
0.0
  0
LINE
  8
0
 62
     0
 10
60.2809
 20
12.8598
 30
0.0
 11
60.2809
 21
15.9604
 31
0.0
  0
LINE
  8
0
 62
     0
 10
60.2809
 20
15.9604
 30
0.0
 11
59.4815
 21
15.9604
 31
0.0
  0
LINE
  8
0
 62
     0
 10
59.4815
 20
15.9604
 30
0.0
 11
59.4815
 21
16.9595
 31
0.0
  0
LINE
  8
0
 62
     0
 10
59.4815
 20
16.9595
 30
0.0
 11
45.4822
 21
16.9595
 31
0.0
  0
LINE
  8
0
 62
     0
 10
24.0509
 20
16.9595
 30
0.0
 11
24.0509
 21
15.9604
 31
0.0
  0
LINE
  8
0
 62
     0
 10
24.0509
 20
15.9604
 30
0.0
 11
23.2503
 21
15.9604
 31
0.0
  0
LINE
  8
0
 62
     0
 10
23.2503
 20
15.9604
 30
0.0
 11
23.2503
 21
12.8598
 31
0.0
  0
LINE
  8
0
 62
     0
 10
23.2503
 20
12.8598
 30
0.0
 11
24.0509
 21
12.8598
 31
0.0
  0
LINE
  8
0
 62
     0
 10
24.0509
 20
12.8598
 30
0.0
 11
24.0509
 21
7.05968
 31
0.0
  0
LINE
  8
0
 62
     0
 10
24.0509
 20
7.05968
 30
0.0
 11
23.2503
 21
7.05968
 31
0.0
  0
LINE
  8
0
 62
     0
 10
23.2503
 20
7.05968
 30
0.0
 11
23.2503
 21
3.96049
 31
0.0
  0
LINE
  8
0
 62
     0
 10
23.2503
 20
3.96049
 30
0.0
 11
24.0509
 21
3.96049
 31
0.0
  0
LINE
  8
0
 62
     0
 10
24.0509
 20
3.96049
 30
0.0
 11
24.0509
 21
2.96003
 31
0.0
  0
LINE
  8
0
 62
     0
 10
24.0509
 20
2.96003
 30
0.0
 11
38.0503
 21
2.96003
 31
0.0
  0
LINE
  8
0
 62
     0
 10
38.0503
 20
2.96003
 30
0.0
 11
38.0503
 21
3.96049
 31
0.0
  0
LINE
  8
0
 62
     0
 10
38.0503
 20
3.96049
 30
0.0
 11
38.8511
 21
3.96049
 31
0.0
  0
LINE
  8
0
 62
     0
 10
38.8511
 20
3.96049
 30
0.0
 11
38.8511
 21
7.05968
 31
0.0
  0
LINE
  8
0
 62
     0
 10
38.8511
 20
7.05968
 30
0.0
 11
38.0503
 21
7.05968
 31
0.0
  0
LINE
  8
0
 62
     0
 10
38.0503
 20
7.05968
 30
0.0
 11
38.0503
 21
12.8598
 31
0.0
  0
LINE
  8
0
 62
     0
 10
38.0503
 20
12.8598
 30
0.0
 11
38.8511
 21
12.8598
 31
0.0
  0
LINE
  8
0
 62
     0
 10
38.8511
 20
12.8598
 30
0.0
 11
38.8511
 21
15.9604
 31
0.0
  0
LINE
  8
0
 62
     0
 10
38.8511
 20
15.9604
 30
0.0
 11
38.0503
 21
15.9604
 31
0.0
  0
LINE
  8
0
 62
     0
 10
38.0503
 20
15.9604
 30
0.0
 11
38.0503
 21
16.9595
 31
0.0
  0
LINE
  8
0
 62
     0
 10
38.0503
 20
16.9595
 30
0.0
 11
24.0509
 21
16.9595
 31
0.0
  0
LINE
  8
0
 62
     0
 10
169.307
 20
36.0094
 30
0.0
 11
169.307
 21
35.0104
 31
0.0
  0
LINE
  8
0
 62
     0
 10
169.307
 20
35.0104
 30
0.0
 11
168.506
 21
35.0104
 31
0.0
  0
LINE
  8
0
 62
     0
 10
168.506
 20
35.0104
 30
0.0
 11
168.506
 21
31.9098
 31
0.0
  0
LINE
  8
0
 62
     0
 10
168.506
 20
31.9098
 30
0.0
 11
169.307
 21
31.9098
 31
0.0
  0
LINE
  8
0
 62
     0
 10
169.307
 20
31.9098
 30
0.0
 11
169.307
 21
26.1097
 31
0.0
  0
LINE
  8
0
 62
     0
 10
169.307
 20
26.1097
 30
0.0
 11
168.506
 21
26.1097
 31
0.0
  0
LINE
  8
0
 62
     0
 10
168.506
 20
26.1097
 30
0.0
 11
168.506
 21
23.0105
 31
0.0
  0
LINE
  8
0
 62
     0
 10
168.506
 20
23.0105
 30
0.0
 11
169.307
 21
23.0105
 31
0.0
  0
LINE
  8
0
 62
     0
 10
169.307
 20
23.0105
 30
0.0
 11
169.307
 21
22.01
 31
0.0
  0
LINE
  8
0
 62
     0
 10
169.307
 20
22.01
 30
0.0
 11
183.307
 21
22.01
 31
0.0
  0
LINE
  8
0
 62
     0
 10
183.307
 20
22.01
 30
0.0
 11
183.307
 21
23.0105
 31
0.0
  0
LINE
  8
0
 62
     0
 10
183.307
 20
23.0105
 30
0.0
 11
184.106
 21
23.0105
 31
0.0
  0
LINE
  8
0
 62
     0
 10
184.106
 20
23.0105
 30
0.0
 11
184.106
 21
26.1097
 31
0.0
  0
LINE
  8
0
 62
     0
 10
184.106
 20
26.1097
 30
0.0
 11
183.307
 21
26.1097
 31
0.0
  0
LINE
  8
0
 62
     0
 10
183.307
 20
26.1097
 30
0.0
 11
183.307
 21
31.9098
 31
0.0
  0
LINE
  8
0
 62
     0
 10
183.307
 20
31.9098
 30
0.0
 11
184.106
 21
31.9098
 31
0.0
  0
LINE
  8
0
 62
     0
 10
184.106
 20
31.9098
 30
0.0
 11
184.106
 21
35.0104
 31
0.0
  0
LINE
  8
0
 62
     0
 10
184.106
 20
35.0104
 30
0.0
 11
183.307
 21
35.0104
 31
0.0
  0
LINE
  8
0
 62
     0
 10
183.307
 20
35.0104
 30
0.0
 11
183.307
 21
36.0094
 31
0.0
  0
LINE
  8
0
 62
     0
 10
183.307
 20
36.0094
 30
0.0
 11
169.307
 21
36.0094
 31
0.0
  0
LINE
  8
0
 62
     0
 10
138.351
 20
36.0094
 30
0.0
 11
138.351
 21
35.0104
 31
0.0
  0
LINE
  8
0
 62
     0
 10
138.351
 20
35.0104
 30
0.0
 11
137.55
 21
35.0104
 31
0.0
  0
LINE
  8
0
 62
     0
 10
137.55
 20
35.0104
 30
0.0
 11
137.55
 21
31.9098
 31
0.0
  0
LINE
  8
0
 62
     0
 10
137.55
 20
31.9098
 30
0.0
 11
138.351
 21
31.9098
 31
0.0
  0
LINE
  8
0
 62
     0
 10
138.351
 20
31.9098
 30
0.0
 11
138.351
 21
26.1097
 31
0.0
  0
LINE
  8
0
 62
     0
 10
138.351
 20
26.1097
 30
0.0
 11
137.55
 21
26.1097
 31
0.0
  0
LINE
  8
0
 62
     0
 10
137.55
 20
26.1097
 30
0.0
 11
137.55
 21
23.0105
 31
0.0
  0
LINE
  8
0
 62
     0
 10
137.55
 20
23.0105
 30
0.0
 11
138.351
 21
23.0105
 31
0.0
  0
LINE
  8
0
 62
     0
 10
138.351
 20
23.0105
 30
0.0
 11
138.351
 21
22.01
 31
0.0
  0
LINE
  8
0
 62
     0
 10
138.351
 20
22.01
 30
0.0
 11
152.35
 21
22.01
 31
0.0
  0
LINE
  8
0
 62
     0
 10
152.35
 20
22.01
 30
0.0
 11
152.35
 21
23.0105
 31
0.0
  0
LINE
  8
0
 62
     0
 10
152.35
 20
23.0105
 30
0.0
 11
153.151
 21
23.0105
 31
0.0
  0
LINE
  8
0
 62
     0
 10
153.151
 20
23.0105
 30
0.0
 11
153.151
 21
26.1097
 31
0.0
  0
LINE
  8
0
 62
     0
 10
153.151
 20
26.1097
 30
0.0
 11
152.35
 21
26.1097
 31
0.0
  0
LINE
  8
0
 62
     0
 10
152.35
 20
26.1097
 30
0.0
 11
152.35
 21
31.9098
 31
0.0
  0
LINE
  8
0
 62
     0
 10
152.35
 20
31.9098
 30
0.0
 11
153.151
 21
31.9098
 31
0.0
  0
LINE
  8
0
 62
     0
 10
153.151
 20
31.9098
 30
0.0
 11
153.151
 21
35.0104
 31
0.0
  0
LINE
  8
0
 62
     0
 10
153.151
 20
35.0104
 30
0.0
 11
152.35
 21
35.0104
 31
0.0
  0
LINE
  8
0
 62
     0
 10
152.35
 20
35.0104
 30
0.0
 11
152.35
 21
36.0094
 31
0.0
  0
LINE
  8
0
 62
     0
 10
152.35
 20
36.0094
 30
0.0
 11
138.351
 21
36.0094
 31
0.0
  0
LINE
  8
0
 62
     0
 10
112.157
 20
36.0094
 30
0.0
 11
112.157
 21
35.0104
 31
0.0
  0
LINE
  8
0
 62
     0
 10
112.157
 20
35.0104
 30
0.0
 11
111.356
 21
35.0104
 31
0.0
  0
LINE
  8
0
 62
     0
 10
111.356
 20
35.0104
 30
0.0
 11
111.356
 21
31.9098
 31
0.0
  0
LINE
  8
0
 62
     0
 10
111.356
 20
31.9098
 30
0.0
 11
112.157
 21
31.9098
 31
0.0
  0
LINE
  8
0
 62
     0
 10
112.157
 20
31.9098
 30
0.0
 11
112.157
 21
26.1097
 31
0.0
  0
LINE
  8
0
 62
     0
 10
112.157
 20
26.1097
 30
0.0
 11
111.356
 21
26.1097
 31
0.0
  0
LINE
  8
0
 62
     0
 10
111.356
 20
26.1097
 30
0.0
 11
111.356
 21
23.0105
 31
0.0
  0
LINE
  8
0
 62
     0
 10
111.356
 20
23.0105
 30
0.0
 11
112.157
 21
23.0105
 31
0.0
  0
LINE
  8
0
 62
     0
 10
112.157
 20
23.0105
 30
0.0
 11
112.157
 21
22.01
 31
0.0
  0
LINE
  8
0
 62
     0
 10
112.157
 20
22.01
 30
0.0
 11
126.157
 21
22.01
 31
0.0
  0
LINE
  8
0
 62
     0
 10
126.157
 20
22.01
 30
0.0
 11
126.157
 21
23.0105
 31
0.0
  0
LINE
  8
0
 62
     0
 10
126.157
 20
23.0105
 30
0.0
 11
126.956
 21
23.0105
 31
0.0
  0
LINE
  8
0
 62
     0
 10
126.956
 20
23.0105
 30
0.0
 11
126.956
 21
26.1097
 31
0.0
  0
LINE
  8
0
 62
     0
 10
126.956
 20
26.1097
 30
0.0
 11
126.157
 21
26.1097
 31
0.0
  0
LINE
  8
0
 62
     0
 10
126.157
 20
26.1097
 30
0.0
 11
126.157
 21
31.9098
 31
0.0
  0
LINE
  8
0
 62
     0
 10
126.157
 20
31.9098
 30
0.0
 11
126.956
 21
31.9098
 31
0.0
  0
LINE
  8
0
 62
     0
 10
126.956
 20
31.9098
 30
0.0
 11
126.956
 21
35.0104
 31
0.0
  0
LINE
  8
0
 62
     0
 10
126.956
 20
35.0104
 30
0.0
 11
126.157
 21
35.0104
 31
0.0
  0
LINE
  8
0
 62
     0
 10
126.157
 20
35.0104
 30
0.0
 11
126.157
 21
36.0094
 31
0.0
  0
LINE
  8
0
 62
     0
 10
126.157
 20
36.0094
 30
0.0
 11
112.157
 21
36.0094
 31
0.0
  0
LINE
  8
0
 62
     0
 10
93.1072
 20
36.0094
 30
0.0
 11
93.1072
 21
35.0104
 31
0.0
  0
LINE
  8
0
 62
     0
 10
93.1072
 20
35.0104
 30
0.0
 11
92.3064
 21
35.0104
 31
0.0
  0
LINE
  8
0
 62
     0
 10
92.3064
 20
35.0104
 30
0.0
 11
92.3064
 21
31.9098
 31
0.0
  0
LINE
  8
0
 62
     0
 10
92.3064
 20
31.9098
 30
0.0
 11
93.1072
 21
31.9098
 31
0.0
  0
LINE
  8
0
 62
     0
 10
93.1072
 20
31.9098
 30
0.0
 11
93.1072
 21
26.1097
 31
0.0
  0
LINE
  8
0
 62
     0
 10
93.1072
 20
26.1097
 30
0.0
 11
92.3064
 21
26.1097
 31
0.0
  0
LINE
  8
0
 62
     0
 10
92.3064
 20
26.1097
 30
0.0
 11
92.3064
 21
23.0105
 31
0.0
  0
LINE
  8
0
 62
     0
 10
92.3064
 20
23.0105
 30
0.0
 11
93.1072
 21
23.0105
 31
0.0
  0
LINE
  8
0
 62
     0
 10
93.1072
 20
23.0105
 30
0.0
 11
93.1072
 21
22.01
 31
0.0
  0
LINE
  8
0
 62
     0
 10
93.1072
 20
22.01
 30
0.0
 11
107.107
 21
22.01
 31
0.0
  0
LINE
  8
0
 62
     0
 10
107.107
 20
22.01
 30
0.0
 11
107.107
 21
23.0105
 31
0.0
  0
LINE
  8
0
 62
     0
 10
107.107
 20
23.0105
 30
0.0
 11
107.906
 21
23.0105
 31
0.0
  0
LINE
  8
0
 62
     0
 10
107.906
 20
23.0105
 30
0.0
 11
107.906
 21
26.1097
 31
0.0
  0
LINE
  8
0
 62
     0
 10
107.906
 20
26.1097
 30
0.0
 11
107.107
 21
26.1097
 31
0.0
  0
LINE
  8
0
 62
     0
 10
107.107
 20
26.1097
 30
0.0
 11
107.107
 21
31.9098
 31
0.0
  0
LINE
  8
0
 62
     0
 10
107.107
 20
31.9098
 30
0.0
 11
107.906
 21
31.9098
 31
0.0
  0
LINE
  8
0
 62
     0
 10
107.906
 20
31.9098
 30
0.0
 11
107.906
 21
35.0104
 31
0.0
  0
LINE
  8
0
 62
     0
 10
107.906
 20
35.0104
 30
0.0
 11
107.107
 21
35.0104
 31
0.0
  0
LINE
  8
0
 62
     0
 10
107.107
 20
35.0104
 30
0.0
 11
107.107
 21
36.0094
 31
0.0
  0
LINE
  8
0
 62
     0
 10
107.107
 20
36.0094
 30
0.0
 11
93.1072
 21
36.0094
 31
0.0
  0
LINE
  8
0
 62
     0
 10
74.0572
 20
36.0094
 30
0.0
 11
74.0572
 21
35.0104
 31
0.0
  0
LINE
  8
0
 62
     0
 10
74.0572
 20
35.0104
 30
0.0
 11
73.2564
 21
35.0104
 31
0.0
  0
LINE
  8
0
 62
     0
 10
73.2564
 20
35.0104
 30
0.0
 11
73.2564
 21
31.9098
 31
0.0
  0
LINE
  8
0
 62
     0
 10
73.2564
 20
31.9098
 30
0.0
 11
74.0572
 21
31.9098
 31
0.0
  0
LINE
  8
0
 62
     0
 10
74.0572
 20
31.9098
 30
0.0
 11
74.0572
 21
26.1097
 31
0.0
  0
LINE
  8
0
 62
     0
 10
74.0572
 20
26.1097
 30
0.0
 11
73.2564
 21
26.1097
 31
0.0
  0
LINE
  8
0
 62
     0
 10
73.2564
 20
26.1097
 30
0.0
 11
73.2564
 21
23.0105
 31
0.0
  0
LINE
  8
0
 62
     0
 10
73.2564
 20
23.0105
 30
0.0
 11
74.0572
 21
23.0105
 31
0.0
  0
LINE
  8
0
 62
     0
 10
74.0572
 20
23.0105
 30
0.0
 11
74.0572
 21
22.01
 31
0.0
  0
LINE
  8
0
 62
     0
 10
74.0572
 20
22.01
 30
0.0
 11
88.0565
 21
22.01
 31
0.0
  0
LINE
  8
0
 62
     0
 10
88.0565
 20
22.01
 30
0.0
 11
88.0565
 21
23.0105
 31
0.0
  0
LINE
  8
0
 62
     0
 10
88.0565
 20
23.0105
 30
0.0
 11
88.8559
 21
23.0105
 31
0.0
  0
LINE
  8
0
 62
     0
 10
88.8559
 20
23.0105
 30
0.0
 11
88.8559
 21
26.1097
 31
0.0
  0
LINE
  8
0
 62
     0
 10
88.8559
 20
26.1097
 30
0.0
 11
88.0565
 21
26.1097
 31
0.0
  0
LINE
  8
0
 62
     0
 10
88.0565
 20
26.1097
 30
0.0
 11
88.0565
 21
31.9098
 31
0.0
  0
LINE
  8
0
 62
     0
 10
88.0565
 20
31.9098
 30
0.0
 11
88.8559
 21
31.9098
 31
0.0
  0
LINE
  8
0
 62
     0
 10
88.8559
 20
31.9098
 30
0.0
 11
88.8559
 21
35.0104
 31
0.0
  0
LINE
  8
0
 62
     0
 10
88.8559
 20
35.0104
 30
0.0
 11
88.0565
 21
35.0104
 31
0.0
  0
LINE
  8
0
 62
     0
 10
88.0565
 20
35.0104
 30
0.0
 11
88.0565
 21
36.0094
 31
0.0
  0
LINE
  8
0
 62
     0
 10
88.0565
 20
36.0094
 30
0.0
 11
74.0572
 21
36.0094
 31
0.0
  0
LINE
  8
0
 62
     0
 10
55.0072
 20
36.0094
 30
0.0
 11
55.0072
 21
35.0104
 31
0.0
  0
LINE
  8
0
 62
     0
 10
55.0072
 20
35.0104
 30
0.0
 11
54.2064
 21
35.0104
 31
0.0
  0
LINE
  8
0
 62
     0
 10
54.2064
 20
35.0104
 30
0.0
 11
54.2064
 21
31.9098
 31
0.0
  0
LINE
  8
0
 62
     0
 10
54.2064
 20
31.9098
 30
0.0
 11
55.0072
 21
31.9098
 31
0.0
  0
LINE
  8
0
 62
     0
 10
55.0072
 20
31.9098
 30
0.0
 11
55.0072
 21
26.1097
 31
0.0
  0
LINE
  8
0
 62
     0
 10
55.0072
 20
26.1097
 30
0.0
 11
54.2064
 21
26.1097
 31
0.0
  0
LINE
  8
0
 62
     0
 10
54.2064
 20
26.1097
 30
0.0
 11
54.2064
 21
23.0105
 31
0.0
  0
LINE
  8
0
 62
     0
 10
54.2064
 20
23.0105
 30
0.0
 11
55.0072
 21
23.0105
 31
0.0
  0
LINE
  8
0
 62
     0
 10
55.0072
 20
23.0105
 30
0.0
 11
55.0072
 21
22.01
 31
0.0
  0
LINE
  8
0
 62
     0
 10
55.0072
 20
22.01
 30
0.0
 11
69.0065
 21
22.01
 31
0.0
  0
LINE
  8
0
 62
     0
 10
69.0065
 20
22.01
 30
0.0
 11
69.0065
 21
23.0105
 31
0.0
  0
LINE
  8
0
 62
     0
 10
69.0065
 20
23.0105
 30
0.0
 11
69.8059
 21
23.0105
 31
0.0
  0
LINE
  8
0
 62
     0
 10
69.8059
 20
23.0105
 30
0.0
 11
69.8059
 21
26.1097
 31
0.0
  0
LINE
  8
0
 62
     0
 10
69.8059
 20
26.1097
 30
0.0
 11
69.0065
 21
26.1097
 31
0.0
  0
LINE
  8
0
 62
     0
 10
69.0065
 20
26.1097
 30
0.0
 11
69.0065
 21
31.9098
 31
0.0
  0
LINE
  8
0
 62
     0
 10
69.0065
 20
31.9098
 30
0.0
 11
69.8059
 21
31.9098
 31
0.0
  0
LINE
  8
0
 62
     0
 10
69.8059
 20
31.9098
 30
0.0
 11
69.8059
 21
35.0104
 31
0.0
  0
LINE
  8
0
 62
     0
 10
69.8059
 20
35.0104
 30
0.0
 11
69.0065
 21
35.0104
 31
0.0
  0
LINE
  8
0
 62
     0
 10
69.0065
 20
35.0104
 30
0.0
 11
69.0065
 21
36.0094
 31
0.0
  0
LINE
  8
0
 62
     0
 10
69.0065
 20
36.0094
 30
0.0
 11
55.0072
 21
36.0094
 31
0.0
  0
LINE
  8
0
 62
     0
 10
35.9572
 20
36.0094
 30
0.0
 11
35.9572
 21
35.0104
 31
0.0
  0
LINE
  8
0
 62
     0
 10
35.9572
 20
35.0104
 30
0.0
 11
35.1565
 21
35.0104
 31
0.0
  0
LINE
  8
0
 62
     0
 10
35.1565
 20
35.0104
 30
0.0
 11
35.1565
 21
31.9098
 31
0.0
  0
LINE
  8
0
 62
     0
 10
35.1565
 20
31.9098
 30
0.0
 11
35.9572
 21
31.9098
 31
0.0
  0
LINE
  8
0
 62
     0
 10
35.9572
 20
31.9098
 30
0.0
 11
35.9572
 21
26.1097
 31
0.0
  0
LINE
  8
0
 62
     0
 10
35.9572
 20
26.1097
 30
0.0
 11
35.1565
 21
26.1097
 31
0.0
  0
LINE
  8
0
 62
     0
 10
35.1565
 20
26.1097
 30
0.0
 11
35.1565
 21
23.0105
 31
0.0
  0
LINE
  8
0
 62
     0
 10
35.1565
 20
23.0105
 30
0.0
 11
35.9572
 21
23.0105
 31
0.0
  0
LINE
  8
0
 62
     0
 10
35.9572
 20
23.0105
 30
0.0
 11
35.9572
 21
22.01
 31
0.0
  0
LINE
  8
0
 62
     0
 10
35.9572
 20
22.01
 30
0.0
 11
49.9565
 21
22.01
 31
0.0
  0
LINE
  8
0
 62
     0
 10
49.9565
 20
22.01
 30
0.0
 11
49.9565
 21
23.0105
 31
0.0
  0
LINE
  8
0
 62
     0
 10
49.9565
 20
23.0105
 30
0.0
 11
50.7559
 21
23.0105
 31
0.0
  0
LINE
  8
0
 62
     0
 10
50.7559
 20
23.0105
 30
0.0
 11
50.7559
 21
26.1097
 31
0.0
  0
LINE
  8
0
 62
     0
 10
50.7559
 20
26.1097
 30
0.0
 11
49.9565
 21
26.1097
 31
0.0
  0
LINE
  8
0
 62
     0
 10
49.9565
 20
26.1097
 30
0.0
 11
49.9565
 21
31.9098
 31
0.0
  0
LINE
  8
0
 62
     0
 10
49.9565
 20
31.9098
 30
0.0
 11
50.7559
 21
31.9098
 31
0.0
  0
LINE
  8
0
 62
     0
 10
50.7559
 20
31.9098
 30
0.0
 11
50.7559
 21
35.0104
 31
0.0
  0
LINE
  8
0
 62
     0
 10
50.7559
 20
35.0104
 30
0.0
 11
49.9565
 21
35.0104
 31
0.0
  0
LINE
  8
0
 62
     0
 10
49.9565
 20
35.0104
 30
0.0
 11
49.9565
 21
36.0094
 31
0.0
  0
LINE
  8
0
 62
     0
 10
49.9565
 20
36.0094
 30
0.0
 11
35.9572
 21
36.0094
 31
0.0
  0
LINE
  8
0
 62
     0
 10
16.9072
 20
36.0094
 30
0.0
 11
16.9072
 21
35.0104
 31
0.0
  0
LINE
  8
0
 62
     0
 10
16.9072
 20
35.0104
 30
0.0
 11
16.1065
 21
35.0104
 31
0.0
  0
LINE
  8
0
 62
     0
 10
16.1065
 20
35.0104
 30
0.0
 11
16.1065
 21
31.9098
 31
0.0
  0
LINE
  8
0
 62
     0
 10
16.1065
 20
31.9098
 30
0.0
 11
16.9072
 21
31.9098
 31
0.0
  0
LINE
  8
0
 62
     0
 10
16.9072
 20
31.9098
 30
0.0
 11
16.9072
 21
26.1097
 31
0.0
  0
LINE
  8
0
 62
     0
 10
16.9072
 20
26.1097
 30
0.0
 11
16.1065
 21
26.1097
 31
0.0
  0
LINE
  8
0
 62
     0
 10
16.1065
 20
26.1097
 30
0.0
 11
16.1065
 21
23.0105
 31
0.0
  0
LINE
  8
0
 62
     0
 10
16.1065
 20
23.0105
 30
0.0
 11
16.9072
 21
23.0105
 31
0.0
  0
LINE
  8
0
 62
     0
 10
16.9072
 20
23.0105
 30
0.0
 11
16.9072
 21
22.01
 31
0.0
  0
LINE
  8
0
 62
     0
 10
16.9072
 20
22.01
 30
0.0
 11
30.9066
 21
22.01
 31
0.0
  0
LINE
  8
0
 62
     0
 10
30.9066
 20
22.01
 30
0.0
 11
30.9066
 21
23.0105
 31
0.0
  0
LINE
  8
0
 62
     0
 10
30.9066
 20
23.0105
 30
0.0
 11
31.7059
 21
23.0105
 31
0.0
  0
LINE
  8
0
 62
     0
 10
31.7059
 20
23.0105
 30
0.0
 11
31.7059
 21
26.1097
 31
0.0
  0
LINE
  8
0
 62
     0
 10
31.7059
 20
26.1097
 30
0.0
 11
30.9066
 21
26.1097
 31
0.0
  0
LINE
  8
0
 62
     0
 10
30.9066
 20
26.1097
 30
0.0
 11
30.9066
 21
31.9098
 31
0.0
  0
LINE
  8
0
 62
     0
 10
30.9066
 20
31.9098
 30
0.0
 11
31.7059
 21
31.9098
 31
0.0
  0
LINE
  8
0
 62
     0
 10
31.7059
 20
31.9098
 30
0.0
 11
31.7059
 21
35.0104
 31
0.0
  0
LINE
  8
0
 62
     0
 10
31.7059
 20
35.0104
 30
0.0
 11
30.9066
 21
35.0104
 31
0.0
  0
LINE
  8
0
 62
     0
 10
30.9066
 20
35.0104
 30
0.0
 11
30.9066
 21
36.0094
 31
0.0
  0
LINE
  8
0
 62
     0
 10
30.9066
 20
36.0094
 30
0.0
 11
16.9072
 21
36.0094
 31
0.0
  0
LINE
  8
0
 62
     0
 10
169.307
 20
55.0594
 30
0.0
 11
169.307
 21
54.0604
 31
0.0
  0
LINE
  8
0
 62
     0
 10
169.307
 20
54.0604
 30
0.0
 11
168.506
 21
54.0604
 31
0.0
  0
LINE
  8
0
 62
     0
 10
168.506
 20
54.0604
 30
0.0
 11
168.506
 21
50.9598
 31
0.0
  0
LINE
  8
0
 62
     0
 10
168.506
 20
50.9598
 30
0.0
 11
169.307
 21
50.9598
 31
0.0
  0
LINE
  8
0
 62
     0
 10
169.307
 20
50.9598
 30
0.0
 11
169.307
 21
45.1598
 31
0.0
  0
LINE
  8
0
 62
     0
 10
169.307
 20
45.1598
 30
0.0
 11
168.506
 21
45.1598
 31
0.0
  0
LINE
  8
0
 62
     0
 10
168.506
 20
45.1598
 30
0.0
 11
168.506
 21
42.0606
 31
0.0
  0
LINE
  8
0
 62
     0
 10
168.506
 20
42.0606
 30
0.0
 11
169.307
 21
42.0606
 31
0.0
  0
LINE
  8
0
 62
     0
 10
169.307
 20
42.0606
 30
0.0
 11
169.307
 21
41.0602
 31
0.0
  0
LINE
  8
0
 62
     0
 10
169.307
 20
41.0602
 30
0.0
 11
183.307
 21
41.0602
 31
0.0
  0
LINE
  8
0
 62
     0
 10
183.307
 20
41.0602
 30
0.0
 11
183.307
 21
42.0606
 31
0.0
  0
LINE
  8
0
 62
     0
 10
183.307
 20
42.0606
 30
0.0
 11
184.106
 21
42.0606
 31
0.0
  0
LINE
  8
0
 62
     0
 10
184.106
 20
42.0606
 30
0.0
 11
184.106
 21
45.1598
 31
0.0
  0
LINE
  8
0
 62
     0
 10
184.106
 20
45.1598
 30
0.0
 11
183.307
 21
45.1598
 31
0.0
  0
LINE
  8
0
 62
     0
 10
183.307
 20
45.1598
 30
0.0
 11
183.307
 21
50.9598
 31
0.0
  0
LINE
  8
0
 62
     0
 10
183.307
 20
50.9598
 30
0.0
 11
184.106
 21
50.9598
 31
0.0
  0
LINE
  8
0
 62
     0
 10
184.106
 20
50.9598
 30
0.0
 11
184.106
 21
54.0604
 31
0.0
  0
LINE
  8
0
 62
     0
 10
184.106
 20
54.0604
 30
0.0
 11
183.307
 21
54.0604
 31
0.0
  0
LINE
  8
0
 62
     0
 10
183.307
 20
54.0604
 30
0.0
 11
183.307
 21
55.0594
 31
0.0
  0
LINE
  8
0
 62
     0
 10
183.307
 20
55.0594
 30
0.0
 11
169.307
 21
55.0594
 31
0.0
  0
LINE
  8
0
 62
     0
 10
121.682
 20
55.0594
 30
0.0
 11
121.682
 21
54.0604
 31
0.0
  0
LINE
  8
0
 62
     0
 10
121.682
 20
54.0604
 30
0.0
 11
120.881
 21
54.0604
 31
0.0
  0
LINE
  8
0
 62
     0
 10
120.881
 20
54.0604
 30
0.0
 11
120.881
 21
50.9598
 31
0.0
  0
LINE
  8
0
 62
     0
 10
120.881
 20
50.9598
 30
0.0
 11
121.682
 21
50.9598
 31
0.0
  0
LINE
  8
0
 62
     0
 10
121.682
 20
50.9598
 30
0.0
 11
121.682
 21
45.1598
 31
0.0
  0
LINE
  8
0
 62
     0
 10
121.682
 20
45.1598
 30
0.0
 11
120.881
 21
45.1598
 31
0.0
  0
LINE
  8
0
 62
     0
 10
120.881
 20
45.1598
 30
0.0
 11
120.881
 21
42.0606
 31
0.0
  0
LINE
  8
0
 62
     0
 10
120.881
 20
42.0606
 30
0.0
 11
121.682
 21
42.0606
 31
0.0
  0
LINE
  8
0
 62
     0
 10
121.682
 20
42.0606
 30
0.0
 11
121.682
 21
41.0602
 31
0.0
  0
LINE
  8
0
 62
     0
 10
121.682
 20
41.0602
 30
0.0
 11
135.682
 21
41.0602
 31
0.0
  0
LINE
  8
0
 62
     0
 10
135.682
 20
41.0602
 30
0.0
 11
135.682
 21
42.0606
 31
0.0
  0
LINE
  8
0
 62
     0
 10
135.682
 20
42.0606
 30
0.0
 11
136.481
 21
42.0606
 31
0.0
  0
LINE
  8
0
 62
     0
 10
136.481
 20
42.0606
 30
0.0
 11
136.481
 21
45.1598
 31
0.0
  0
LINE
  8
0
 62
     0
 10
136.481
 20
45.1598
 30
0.0
 11
135.682
 21
45.1598
 31
0.0
  0
LINE
  8
0
 62
     0
 10
135.682
 20
45.1598
 30
0.0
 11
135.682
 21
50.9598
 31
0.0
  0
LINE
  8
0
 62
     0
 10
135.682
 20
50.9598
 30
0.0
 11
136.481
 21
50.9598
 31
0.0
  0
LINE
  8
0
 62
     0
 10
136.481
 20
50.9598
 30
0.0
 11
136.481
 21
54.0604
 31
0.0
  0
LINE
  8
0
 62
     0
 10
136.481
 20
54.0604
 30
0.0
 11
135.682
 21
54.0604
 31
0.0
  0
LINE
  8
0
 62
     0
 10
135.682
 20
54.0604
 30
0.0
 11
135.682
 21
55.0594
 31
0.0
  0
LINE
  8
0
 62
     0
 10
135.682
 20
55.0594
 30
0.0
 11
121.682
 21
55.0594
 31
0.0
  0
LINE
  8
0
 62
     0
 10
102.632
 20
55.0594
 30
0.0
 11
102.632
 21
54.0604
 31
0.0
  0
LINE
  8
0
 62
     0
 10
102.632
 20
54.0604
 30
0.0
 11
101.831
 21
54.0604
 31
0.0
  0
LINE
  8
0
 62
     0
 10
101.831
 20
54.0604
 30
0.0
 11
101.831
 21
50.9598
 31
0.0
  0
LINE
  8
0
 62
     0
 10
101.831
 20
50.9598
 30
0.0
 11
102.632
 21
50.9598
 31
0.0
  0
LINE
  8
0
 62
     0
 10
102.632
 20
50.9598
 30
0.0
 11
102.632
 21
45.1598
 31
0.0
  0
LINE
  8
0
 62
     0
 10
102.632
 20
45.1598
 30
0.0
 11
101.831
 21
45.1598
 31
0.0
  0
LINE
  8
0
 62
     0
 10
101.831
 20
45.1598
 30
0.0
 11
101.831
 21
42.0606
 31
0.0
  0
LINE
  8
0
 62
     0
 10
101.831
 20
42.0606
 30
0.0
 11
102.632
 21
42.0606
 31
0.0
  0
LINE
  8
0
 62
     0
 10
102.632
 20
42.0606
 30
0.0
 11
102.632
 21
41.0602
 31
0.0
  0
LINE
  8
0
 62
     0
 10
102.632
 20
41.0602
 30
0.0
 11
116.632
 21
41.0602
 31
0.0
  0
LINE
  8
0
 62
     0
 10
116.632
 20
41.0602
 30
0.0
 11
116.632
 21
42.0606
 31
0.0
  0
LINE
  8
0
 62
     0
 10
116.632
 20
42.0606
 30
0.0
 11
117.431
 21
42.0606
 31
0.0
  0
LINE
  8
0
 62
     0
 10
117.431
 20
42.0606
 30
0.0
 11
117.431
 21
45.1598
 31
0.0
  0
LINE
  8
0
 62
     0
 10
117.431
 20
45.1598
 30
0.0
 11
116.632
 21
45.1598
 31
0.0
  0
LINE
  8
0
 62
     0
 10
116.632
 20
45.1598
 30
0.0
 11
116.632
 21
50.9598
 31
0.0
  0
LINE
  8
0
 62
     0
 10
116.632
 20
50.9598
 30
0.0
 11
117.431
 21
50.9598
 31
0.0
  0
LINE
  8
0
 62
     0
 10
117.431
 20
50.9598
 30
0.0
 11
117.431
 21
54.0604
 31
0.0
  0
LINE
  8
0
 62
     0
 10
117.431
 20
54.0604
 30
0.0
 11
116.632
 21
54.0604
 31
0.0
  0
LINE
  8
0
 62
     0
 10
116.632
 20
54.0604
 30
0.0
 11
116.632
 21
55.0594
 31
0.0
  0
LINE
  8
0
 62
     0
 10
116.632
 20
55.0594
 30
0.0
 11
102.632
 21
55.0594
 31
0.0
  0
LINE
  8
0
 62
     0
 10
83.5822
 20
55.0594
 30
0.0
 11
83.5822
 21
54.0604
 31
0.0
  0
LINE
  8
0
 62
     0
 10
83.5822
 20
54.0604
 30
0.0
 11
82.7814
 21
54.0604
 31
0.0
  0
LINE
  8
0
 62
     0
 10
82.7814
 20
54.0604
 30
0.0
 11
82.7814
 21
50.9598
 31
0.0
  0
LINE
  8
0
 62
     0
 10
82.7814
 20
50.9598
 30
0.0
 11
83.5822
 21
50.9598
 31
0.0
  0
LINE
  8
0
 62
     0
 10
83.5822
 20
50.9598
 30
0.0
 11
83.5822
 21
45.1598
 31
0.0
  0
LINE
  8
0
 62
     0
 10
83.5822
 20
45.1598
 30
0.0
 11
82.7814
 21
45.1598
 31
0.0
  0
LINE
  8
0
 62
     0
 10
82.7814
 20
45.1598
 30
0.0
 11
82.7814
 21
42.0606
 31
0.0
  0
LINE
  8
0
 62
     0
 10
82.7814
 20
42.0606
 30
0.0
 11
83.5822
 21
42.0606
 31
0.0
  0
LINE
  8
0
 62
     0
 10
83.5822
 20
42.0606
 30
0.0
 11
83.5822
 21
41.0602
 31
0.0
  0
LINE
  8
0
 62
     0
 10
83.5822
 20
41.0602
 30
0.0
 11
97.5815
 21
41.0602
 31
0.0
  0
LINE
  8
0
 62
     0
 10
97.5815
 20
41.0602
 30
0.0
 11
97.5815
 21
42.0606
 31
0.0
  0
LINE
  8
0
 62
     0
 10
97.5815
 20
42.0606
 30
0.0
 11
98.3809
 21
42.0606
 31
0.0
  0
LINE
  8
0
 62
     0
 10
98.3809
 20
42.0606
 30
0.0
 11
98.3809
 21
45.1598
 31
0.0
  0
LINE
  8
0
 62
     0
 10
98.3809
 20
45.1598
 30
0.0
 11
97.5815
 21
45.1598
 31
0.0
  0
LINE
  8
0
 62
     0
 10
97.5815
 20
45.1598
 30
0.0
 11
97.5815
 21
50.9598
 31
0.0
  0
LINE
  8
0
 62
     0
 10
97.5815
 20
50.9598
 30
0.0
 11
98.3809
 21
50.9598
 31
0.0
  0
LINE
  8
0
 62
     0
 10
98.3809
 20
50.9598
 30
0.0
 11
98.3809
 21
54.0604
 31
0.0
  0
LINE
  8
0
 62
     0
 10
98.3809
 20
54.0604
 30
0.0
 11
97.5815
 21
54.0604
 31
0.0
  0
LINE
  8
0
 62
     0
 10
97.5815
 20
54.0604
 30
0.0
 11
97.5815
 21
55.0594
 31
0.0
  0
LINE
  8
0
 62
     0
 10
97.5815
 20
55.0594
 30
0.0
 11
83.5822
 21
55.0594
 31
0.0
  0
LINE
  8
0
 62
     0
 10
64.5322
 20
55.0594
 30
0.0
 11
64.5322
 21
54.0604
 31
0.0
  0
LINE
  8
0
 62
     0
 10
64.5322
 20
54.0604
 30
0.0
 11
63.7314
 21
54.0604
 31
0.0
  0
LINE
  8
0
 62
     0
 10
63.7314
 20
54.0604
 30
0.0
 11
63.7314
 21
50.9598
 31
0.0
  0
LINE
  8
0
 62
     0
 10
63.7314
 20
50.9598
 30
0.0
 11
64.5322
 21
50.9598
 31
0.0
  0
LINE
  8
0
 62
     0
 10
64.5322
 20
50.9598
 30
0.0
 11
64.5322
 21
45.1598
 31
0.0
  0
LINE
  8
0
 62
     0
 10
64.5322
 20
45.1598
 30
0.0
 11
63.7314
 21
45.1598
 31
0.0
  0
LINE
  8
0
 62
     0
 10
63.7314
 20
45.1598
 30
0.0
 11
63.7314
 21
42.0606
 31
0.0
  0
LINE
  8
0
 62
     0
 10
63.7314
 20
42.0606
 30
0.0
 11
64.5322
 21
42.0606
 31
0.0
  0
LINE
  8
0
 62
     0
 10
64.5322
 20
42.0606
 30
0.0
 11
64.5322
 21
41.0602
 31
0.0
  0
LINE
  8
0
 62
     0
 10
64.5322
 20
41.0602
 30
0.0
 11
78.5315
 21
41.0602
 31
0.0
  0
LINE
  8
0
 62
     0
 10
78.5315
 20
41.0602
 30
0.0
 11
78.5315
 21
42.0606
 31
0.0
  0
LINE
  8
0
 62
     0
 10
78.5315
 20
42.0606
 30
0.0
 11
79.3309
 21
42.0606
 31
0.0
  0
LINE
  8
0
 62
     0
 10
79.3309
 20
42.0606
 30
0.0
 11
79.3309
 21
45.1598
 31
0.0
  0
LINE
  8
0
 62
     0
 10
79.3309
 20
45.1598
 30
0.0
 11
78.5315
 21
45.1598
 31
0.0
  0
LINE
  8
0
 62
     0
 10
78.5315
 20
45.1598
 30
0.0
 11
78.5315
 21
50.9598
 31
0.0
  0
LINE
  8
0
 62
     0
 10
78.5315
 20
50.9598
 30
0.0
 11
79.3309
 21
50.9598
 31
0.0
  0
LINE
  8
0
 62
     0
 10
79.3309
 20
50.9598
 30
0.0
 11
79.3309
 21
54.0604
 31
0.0
  0
LINE
  8
0
 62
     0
 10
79.3309
 20
54.0604
 30
0.0
 11
78.5315
 21
54.0604
 31
0.0
  0
LINE
  8
0
 62
     0
 10
78.5315
 20
54.0604
 30
0.0
 11
78.5315
 21
55.0594
 31
0.0
  0
LINE
  8
0
 62
     0
 10
78.5315
 20
55.0594
 30
0.0
 11
64.5322
 21
55.0594
 31
0.0
  0
LINE
  8
0
 62
     0
 10
45.4822
 20
55.0594
 30
0.0
 11
45.4822
 21
54.0604
 31
0.0
  0
LINE
  8
0
 62
     0
 10
45.4822
 20
54.0604
 30
0.0
 11
44.6814
 21
54.0604
 31
0.0
  0
LINE
  8
0
 62
     0
 10
44.6814
 20
54.0604
 30
0.0
 11
44.6814
 21
50.9598
 31
0.0
  0
LINE
  8
0
 62
     0
 10
44.6814
 20
50.9598
 30
0.0
 11
45.4822
 21
50.9598
 31
0.0
  0
LINE
  8
0
 62
     0
 10
45.4822
 20
50.9598
 30
0.0
 11
45.4822
 21
45.1598
 31
0.0
  0
LINE
  8
0
 62
     0
 10
45.4822
 20
45.1598
 30
0.0
 11
44.6814
 21
45.1598
 31
0.0
  0
LINE
  8
0
 62
     0
 10
44.6814
 20
45.1598
 30
0.0
 11
44.6814
 21
42.0606
 31
0.0
  0
LINE
  8
0
 62
     0
 10
44.6814
 20
42.0606
 30
0.0
 11
45.4822
 21
42.0606
 31
0.0
  0
LINE
  8
0
 62
     0
 10
45.4822
 20
42.0606
 30
0.0
 11
45.4822
 21
41.0602
 31
0.0
  0
LINE
  8
0
 62
     0
 10
45.4822
 20
41.0602
 30
0.0
 11
59.4815
 21
41.0602
 31
0.0
  0
LINE
  8
0
 62
     0
 10
59.4815
 20
41.0602
 30
0.0
 11
59.4815
 21
42.0606
 31
0.0
  0
LINE
  8
0
 62
     0
 10
59.4815
 20
42.0606
 30
0.0
 11
60.2809
 21
42.0606
 31
0.0
  0
LINE
  8
0
 62
     0
 10
60.2809
 20
42.0606
 30
0.0
 11
60.2809
 21
45.1598
 31
0.0
  0
LINE
  8
0
 62
     0
 10
60.2809
 20
45.1598
 30
0.0
 11
59.4815
 21
45.1598
 31
0.0
  0
LINE
  8
0
 62
     0
 10
59.4815
 20
45.1598
 30
0.0
 11
59.4815
 21
50.9598
 31
0.0
  0
LINE
  8
0
 62
     0
 10
59.4815
 20
50.9598
 30
0.0
 11
60.2809
 21
50.9598
 31
0.0
  0
LINE
  8
0
 62
     0
 10
60.2809
 20
50.9598
 30
0.0
 11
60.2809
 21
54.0604
 31
0.0
  0
LINE
  8
0
 62
     0
 10
60.2809
 20
54.0604
 30
0.0
 11
59.4815
 21
54.0604
 31
0.0
  0
LINE
  8
0
 62
     0
 10
59.4815
 20
54.0604
 30
0.0
 11
59.4815
 21
55.0594
 31
0.0
  0
LINE
  8
0
 62
     0
 10
59.4815
 20
55.0594
 30
0.0
 11
45.4822
 21
55.0594
 31
0.0
  0
LINE
  8
0
 62
     0
 10
26.4322
 20
55.0594
 30
0.0
 11
26.4322
 21
54.0604
 31
0.0
  0
LINE
  8
0
 62
     0
 10
26.4322
 20
54.0604
 30
0.0
 11
25.6315
 21
54.0604
 31
0.0
  0
LINE
  8
0
 62
     0
 10
25.6315
 20
54.0604
 30
0.0
 11
25.6315
 21
50.9598
 31
0.0
  0
LINE
  8
0
 62
     0
 10
25.6315
 20
50.9598
 30
0.0
 11
26.4322
 21
50.9598
 31
0.0
  0
LINE
  8
0
 62
     0
 10
26.4322
 20
50.9598
 30
0.0
 11
26.4322
 21
45.1598
 31
0.0
  0
LINE
  8
0
 62
     0
 10
26.4322
 20
45.1598
 30
0.0
 11
25.6315
 21
45.1598
 31
0.0
  0
LINE
  8
0
 62
     0
 10
25.6315
 20
45.1598
 30
0.0
 11
25.6315
 21
42.0606
 31
0.0
  0
LINE
  8
0
 62
     0
 10
25.6315
 20
42.0606
 30
0.0
 11
26.4322
 21
42.0606
 31
0.0
  0
LINE
  8
0
 62
     0
 10
26.4322
 20
42.0606
 30
0.0
 11
26.4322
 21
41.0602
 31
0.0
  0
LINE
  8
0
 62
     0
 10
26.4322
 20
41.0602
 30
0.0
 11
40.4315
 21
41.0602
 31
0.0
  0
LINE
  8
0
 62
     0
 10
40.4315
 20
41.0602
 30
0.0
 11
40.4315
 21
42.0606
 31
0.0
  0
LINE
  8
0
 62
     0
 10
40.4315
 20
42.0606
 30
0.0
 11
41.2309
 21
42.0606
 31
0.0
  0
LINE
  8
0
 62
     0
 10
41.2309
 20
42.0606
 30
0.0
 11
41.2309
 21
45.1598
 31
0.0
  0
LINE
  8
0
 62
     0
 10
41.2309
 20
45.1598
 30
0.0
 11
40.4315
 21
45.1598
 31
0.0
  0
LINE
  8
0
 62
     0
 10
40.4315
 20
45.1598
 30
0.0
 11
40.4315
 21
50.9598
 31
0.0
  0
LINE
  8
0
 62
     0
 10
40.4315
 20
50.9598
 30
0.0
 11
41.2309
 21
50.9598
 31
0.0
  0
LINE
  8
0
 62
     0
 10
41.2309
 20
50.9598
 30
0.0
 11
41.2309
 21
54.0604
 31
0.0
  0
LINE
  8
0
 62
     0
 10
41.2309
 20
54.0604
 30
0.0
 11
40.4315
 21
54.0604
 31
0.0
  0
LINE
  8
0
 62
     0
 10
40.4315
 20
54.0604
 30
0.0
 11
40.4315
 21
55.0594
 31
0.0
  0
LINE
  8
0
 62
     0
 10
40.4315
 20
55.0594
 30
0.0
 11
26.4322
 21
55.0594
 31
0.0
  0
LINE
  8
0
 62
     0
 10
7.38216
 20
55.0594
 30
0.0
 11
7.38216
 21
54.0604
 31
0.0
  0
LINE
  8
0
 62
     0
 10
7.38216
 20
54.0604
 30
0.0
 11
6.58153
 21
54.0604
 31
0.0
  0
LINE
  8
0
 62
     0
 10
6.58153
 20
54.0604
 30
0.0
 11
6.58153
 21
50.9598
 31
0.0
  0
LINE
  8
0
 62
     0
 10
6.58153
 20
50.9598
 30
0.0
 11
7.38216
 21
50.9598
 31
0.0
  0
LINE
  8
0
 62
     0
 10
7.38216
 20
50.9598
 30
0.0
 11
7.38216
 21
45.1598
 31
0.0
  0
LINE
  8
0
 62
     0
 10
7.38216
 20
45.1598
 30
0.0
 11
6.58153
 21
45.1598
 31
0.0
  0
LINE
  8
0
 62
     0
 10
6.58153
 20
45.1598
 30
0.0
 11
6.58153
 21
42.0606
 31
0.0
  0
LINE
  8
0
 62
     0
 10
6.58153
 20
42.0606
 30
0.0
 11
7.38216
 21
42.0606
 31
0.0
  0
LINE
  8
0
 62
     0
 10
7.38216
 20
42.0606
 30
0.0
 11
7.38216
 21
41.0602
 31
0.0
  0
LINE
  8
0
 62
     0
 10
7.38216
 20
41.0602
 30
0.0
 11
21.3817
 21
41.0602
 31
0.0
  0
LINE
  8
0
 62
     0
 10
21.3817
 20
41.0602
 30
0.0
 11
21.3817
 21
42.0606
 31
0.0
  0
LINE
  8
0
 62
     0
 10
21.3817
 20
42.0606
 30
0.0
 11
22.1809
 21
42.0606
 31
0.0
  0
LINE
  8
0
 62
     0
 10
22.1809
 20
42.0606
 30
0.0
 11
22.1809
 21
45.1598
 31
0.0
  0
LINE
  8
0
 62
     0
 10
22.1809
 20
45.1598
 30
0.0
 11
21.3817
 21
45.1598
 31
0.0
  0
LINE
  8
0
 62
     0
 10
21.3817
 20
45.1598
 30
0.0
 11
21.3817
 21
50.9598
 31
0.0
  0
LINE
  8
0
 62
     0
 10
21.3817
 20
50.9598
 30
0.0
 11
22.1809
 21
50.9598
 31
0.0
  0
LINE
  8
0
 62
     0
 10
22.1809
 20
50.9598
 30
0.0
 11
22.1809
 21
54.0604
 31
0.0
  0
LINE
  8
0
 62
     0
 10
22.1809
 20
54.0604
 30
0.0
 11
21.3817
 21
54.0604
 31
0.0
  0
LINE
  8
0
 62
     0
 10
21.3817
 20
54.0604
 30
0.0
 11
21.3817
 21
55.0594
 31
0.0
  0
LINE
  8
0
 62
     0
 10
21.3817
 20
55.0594
 30
0.0
 11
7.38216
 21
55.0594
 31
0.0
  0
LINE
  8
0
 62
     0
 10
149.612
 20
73.685
 30
0.0
 11
149.612
 21
72.8595
 31
0.0
  0
LINE
  8
0
 62
     0
 10
149.612
 20
72.8595
 30
0.0
 11
143.342
 21
72.8595
 31
0.0
  0
LINE
  8
0
 62
     0
 10
143.342
 20
72.8595
 30
0.0
 11
143.342
 21
71.1359
 31
0.0
  0
LINE
  8
0
 62
     0
 10
143.342
 20
71.1359
 30
0.0
 11
142.362
 21
71.1359
 31
0.0
  0
LINE
  8
0
 62
     0
 10
142.362
 20
71.1359
 30
0.0
 11
142.362
 21
67.8353
 31
0.0
  0
LINE
  8
0
 62
     0
 10
142.362
 20
67.8353
 30
0.0
 11
143.342
 21
67.8353
 31
0.0
  0
LINE
  8
0
 62
     0
 10
143.342
 20
67.8353
 30
0.0
 11
143.342
 21
66.1098
 31
0.0
  0
LINE
  8
0
 62
     0
 10
143.342
 20
66.1098
 30
0.0
 11
147.812
 21
66.1098
 31
0.0
  0
LINE
  8
0
 62
     0
 10
147.812
 20
66.1098
 30
0.0
 11
147.812
 21
64.5844
 31
0.0
  0
LINE
  8
0
 62
     0
 10
147.812
 20
64.5844
 30
0.0
 11
147.213
 21
64.5844
 31
0.0
  0
LINE
  8
0
 62
     0
 10
147.213
 20
64.5844
 30
0.0
 11
147.213
 21
65.3852
 31
0.0
  0
LINE
  8
0
 62
     0
 10
147.213
 20
65.3852
 30
0.0
 11
144.113
 21
65.3852
 31
0.0
  0
LINE
  8
0
 62
     0
 10
144.113
 20
65.3852
 30
0.0
 11
144.113
 21
64.5844
 31
0.0
  0
LINE
  8
0
 62
     0
 10
144.113
 20
64.5844
 30
0.0
 11
143.112
 21
64.5844
 31
0.0
  0
LINE
  8
0
 62
     0
 10
143.112
 20
64.5844
 30
0.0
 11
143.112
 21
50.5852
 31
0.0
  0
LINE
  8
0
 62
     0
 10
143.112
 20
50.5852
 30
0.0
 11
144.113
 21
50.5852
 31
0.0
  0
LINE
  8
0
 62
     0
 10
144.113
 20
50.5852
 30
0.0
 11
144.113
 21
49.7858
 31
0.0
  0
LINE
  8
0
 62
     0
 10
144.113
 20
49.7858
 30
0.0
 11
147.213
 21
49.7858
 31
0.0
  0
LINE
  8
0
 62
     0
 10
147.213
 20
49.7858
 30
0.0
 11
147.213
 21
50.5852
 31
0.0
  0
LINE
  8
0
 62
     0
 10
147.213
 20
50.5852
 30
0.0
 11
147.812
 21
50.5852
 31
0.0
  0
LINE
  8
0
 62
     0
 10
147.812
 20
50.5852
 30
0.0
 11
147.812
 21
49.0594
 31
0.0
  0
LINE
  8
0
 62
     0
 10
147.812
 20
49.0594
 30
0.0
 11
143.342
 21
49.0594
 31
0.0
  0
LINE
  8
0
 62
     0
 10
143.342
 20
49.0594
 30
0.0
 11
143.342
 21
47.3357
 31
0.0
  0
LINE
  8
0
 62
     0
 10
143.342
 20
47.3357
 30
0.0
 11
142.362
 21
47.3357
 31
0.0
  0
LINE
  8
0
 62
     0
 10
142.362
 20
47.3357
 30
0.0
 11
142.362
 21
44.0351
 31
0.0
  0
LINE
  8
0
 62
     0
 10
142.362
 20
44.0351
 30
0.0
 11
143.342
 21
44.0351
 31
0.0
  0
LINE
  8
0
 62
     0
 10
143.342
 20
44.0351
 30
0.0
 11
143.342
 21
42.31
 31
0.0
  0
LINE
  8
0
 62
     0
 10
143.342
 20
42.31
 30
0.0
 11
149.612
 21
42.31
 31
0.0
  0
LINE
  8
0
 62
     0
 10
149.612
 20
42.31
 30
0.0
 11
149.612
 21
41.486
 31
0.0
  0
LINE
  8
0
 62
     0
 10
149.612
 20
41.486
 30
0.0
 11
152.412
 21
41.486
 31
0.0
  0
LINE
  8
0
 62
     0
 10
152.412
 20
41.486
 30
0.0
 11
152.412
 21
42.31
 31
0.0
  0
LINE
  8
0
 62
     0
 10
152.412
 20
42.31
 30
0.0
 11
155.642
 21
42.31
 31
0.0
  0
LINE
  8
0
 62
     0
 10
155.642
 20
42.31
 30
0.0
 11
155.642
 21
44.0351
 31
0.0
  0
LINE
  8
0
 62
     0
 10
155.642
 20
44.0351
 30
0.0
 11
156.563
 21
44.0351
 31
0.0
  0
LINE
  8
0
 62
     0
 10
156.563
 20
44.0351
 30
0.0
 11
156.563
 21
47.3357
 31
0.0
  0
LINE
  8
0
 62
     0
 10
156.563
 20
47.3357
 30
0.0
 11
155.642
 21
47.3357
 31
0.0
  0
LINE
  8
0
 62
     0
 10
155.642
 20
47.3357
 30
0.0
 11
155.642
 21
49.0594
 31
0.0
  0
LINE
  8
0
 62
     0
 10
155.642
 20
49.0594
 30
0.0
 11
152.412
 21
49.0594
 31
0.0
  0
LINE
  8
0
 62
     0
 10
152.412
 20
49.0594
 30
0.0
 11
152.412
 21
50.5852
 31
0.0
  0
LINE
  8
0
 62
     0
 10
152.412
 20
50.5852
 30
0.0
 11
153.012
 21
50.5852
 31
0.0
  0
LINE
  8
0
 62
     0
 10
153.012
 20
50.5852
 30
0.0
 11
153.012
 21
49.7858
 31
0.0
  0
LINE
  8
0
 62
     0
 10
153.012
 20
49.7858
 30
0.0
 11
156.112
 21
49.7858
 31
0.0
  0
LINE
  8
0
 62
     0
 10
156.112
 20
49.7858
 30
0.0
 11
156.112
 21
50.5852
 31
0.0
  0
LINE
  8
0
 62
     0
 10
156.112
 20
50.5852
 30
0.0
 11
157.113
 21
50.5852
 31
0.0
  0
LINE
  8
0
 62
     0
 10
157.113
 20
50.5852
 30
0.0
 11
157.113
 21
64.5844
 31
0.0
  0
LINE
  8
0
 62
     0
 10
157.113
 20
64.5844
 30
0.0
 11
156.112
 21
64.5844
 31
0.0
  0
LINE
  8
0
 62
     0
 10
156.112
 20
64.5844
 30
0.0
 11
156.112
 21
65.3852
 31
0.0
  0
LINE
  8
0
 62
     0
 10
156.112
 20
65.3852
 30
0.0
 11
153.012
 21
65.3852
 31
0.0
  0
LINE
  8
0
 62
     0
 10
153.012
 20
65.3852
 30
0.0
 11
153.012
 21
64.5844
 31
0.0
  0
LINE
  8
0
 62
     0
 10
153.012
 20
64.5844
 30
0.0
 11
152.412
 21
64.5844
 31
0.0
  0
LINE
  8
0
 62
     0
 10
152.412
 20
64.5844
 30
0.0
 11
152.412
 21
66.1098
 31
0.0
  0
LINE
  8
0
 62
     0
 10
152.412
 20
66.1098
 30
0.0
 11
155.642
 21
66.1098
 31
0.0
  0
LINE
  8
0
 62
     0
 10
155.642
 20
66.1098
 30
0.0
 11
155.642
 21
67.8353
 31
0.0
  0
LINE
  8
0
 62
     0
 10
155.642
 20
67.8353
 30
0.0
 11
156.563
 21
67.8353
 31
0.0
  0
LINE
  8
0
 62
     0
 10
156.563
 20
67.8353
 30
0.0
 11
156.563
 21
71.1359
 31
0.0
  0
LINE
  8
0
 62
     0
 10
156.563
 20
71.1359
 30
0.0
 11
155.642
 21
71.1359
 31
0.0
  0
LINE
  8
0
 62
     0
 10
155.642
 20
71.1359
 30
0.0
 11
155.642
 21
72.8595
 31
0.0
  0
LINE
  8
0
 62
     0
 10
155.642
 20
72.8595
 30
0.0
 11
152.412
 21
72.8595
 31
0.0
  0
LINE
  8
0
 62
     0
 10
152.412
 20
72.8595
 30
0.0
 11
152.412
 21
73.685
 31
0.0
  0
LINE
  8
0
 62
     0
 10
152.412
 20
73.685
 30
0.0
 11
149.612
 21
73.685
 31
0.0
  0
LINE
  8
0
 62
     0
 10
169.307
 20
74.1094
 30
0.0
 11
169.307
 21
73.1104
 31
0.0
  0
LINE
  8
0
 62
     0
 10
169.307
 20
73.1104
 30
0.0
 11
168.506
 21
73.1104
 31
0.0
  0
LINE
  8
0
 62
     0
 10
168.506
 20
73.1104
 30
0.0
 11
168.506
 21
70.0098
 31
0.0
  0
LINE
  8
0
 62
     0
 10
168.506
 20
70.0098
 30
0.0
 11
169.307
 21
70.0098
 31
0.0
  0
LINE
  8
0
 62
     0
 10
169.307
 20
70.0098
 30
0.0
 11
169.307
 21
64.2098
 31
0.0
  0
LINE
  8
0
 62
     0
 10
169.307
 20
64.2098
 30
0.0
 11
168.506
 21
64.2098
 31
0.0
  0
LINE
  8
0
 62
     0
 10
168.506
 20
64.2098
 30
0.0
 11
168.506
 21
61.1106
 31
0.0
  0
LINE
  8
0
 62
     0
 10
168.506
 20
61.1106
 30
0.0
 11
169.307
 21
61.1106
 31
0.0
  0
LINE
  8
0
 62
     0
 10
169.307
 20
61.1106
 30
0.0
 11
169.307
 21
60.1102
 31
0.0
  0
LINE
  8
0
 62
     0
 10
169.307
 20
60.1102
 30
0.0
 11
183.307
 21
60.1102
 31
0.0
  0
LINE
  8
0
 62
     0
 10
183.307
 20
60.1102
 30
0.0
 11
183.307
 21
61.1106
 31
0.0
  0
LINE
  8
0
 62
     0
 10
183.307
 20
61.1106
 30
0.0
 11
184.106
 21
61.1106
 31
0.0
  0
LINE
  8
0
 62
     0
 10
184.106
 20
61.1106
 30
0.0
 11
184.106
 21
64.2098
 31
0.0
  0
LINE
  8
0
 62
     0
 10
184.106
 20
64.2098
 30
0.0
 11
183.307
 21
64.2098
 31
0.0
  0
LINE
  8
0
 62
     0
 10
183.307
 20
64.2098
 30
0.0
 11
183.307
 21
70.0098
 31
0.0
  0
LINE
  8
0
 62
     0
 10
183.307
 20
70.0098
 30
0.0
 11
184.106
 21
70.0098
 31
0.0
  0
LINE
  8
0
 62
     0
 10
184.106
 20
70.0098
 30
0.0
 11
184.106
 21
73.1104
 31
0.0
  0
LINE
  8
0
 62
     0
 10
184.106
 20
73.1104
 30
0.0
 11
183.307
 21
73.1104
 31
0.0
  0
LINE
  8
0
 62
     0
 10
183.307
 20
73.1104
 30
0.0
 11
183.307
 21
74.1094
 31
0.0
  0
LINE
  8
0
 62
     0
 10
183.307
 20
74.1094
 30
0.0
 11
169.307
 21
74.1094
 31
0.0
  0
LINE
  8
0
 62
     0
 10
116.918
 20
74.1094
 30
0.0
 11
116.918
 21
73.1104
 31
0.0
  0
LINE
  8
0
 62
     0
 10
116.918
 20
73.1104
 30
0.0
 11
116.119
 21
73.1104
 31
0.0
  0
LINE
  8
0
 62
     0
 10
116.119
 20
73.1104
 30
0.0
 11
116.119
 21
70.0098
 31
0.0
  0
LINE
  8
0
 62
     0
 10
116.119
 20
70.0098
 30
0.0
 11
116.918
 21
70.0098
 31
0.0
  0
LINE
  8
0
 62
     0
 10
116.918
 20
70.0098
 30
0.0
 11
116.918
 21
64.2098
 31
0.0
  0
LINE
  8
0
 62
     0
 10
116.918
 20
64.2098
 30
0.0
 11
116.119
 21
64.2098
 31
0.0
  0
LINE
  8
0
 62
     0
 10
116.119
 20
64.2098
 30
0.0
 11
116.119
 21
61.1106
 31
0.0
  0
LINE
  8
0
 62
     0
 10
116.119
 20
61.1106
 30
0.0
 11
116.918
 21
61.1106
 31
0.0
  0
LINE
  8
0
 62
     0
 10
116.918
 20
61.1106
 30
0.0
 11
116.918
 21
60.1102
 31
0.0
  0
LINE
  8
0
 62
     0
 10
116.918
 20
60.1102
 30
0.0
 11
130.919
 21
60.1102
 31
0.0
  0
LINE
  8
0
 62
     0
 10
130.919
 20
60.1102
 30
0.0
 11
130.919
 21
61.1106
 31
0.0
  0
LINE
  8
0
 62
     0
 10
130.919
 20
61.1106
 30
0.0
 11
131.72
 21
61.1106
 31
0.0
  0
LINE
  8
0
 62
     0
 10
131.72
 20
61.1106
 30
0.0
 11
131.72
 21
64.2098
 31
0.0
  0
LINE
  8
0
 62
     0
 10
131.72
 20
64.2098
 30
0.0
 11
130.919
 21
64.2098
 31
0.0
  0
LINE
  8
0
 62
     0
 10
130.919
 20
64.2098
 30
0.0
 11
130.919
 21
70.0098
 31
0.0
  0
LINE
  8
0
 62
     0
 10
130.919
 20
70.0098
 30
0.0
 11
131.72
 21
70.0098
 31
0.0
  0
LINE
  8
0
 62
     0
 10
131.72
 20
70.0098
 30
0.0
 11
131.72
 21
73.1104
 31
0.0
  0
LINE
  8
0
 62
     0
 10
131.72
 20
73.1104
 30
0.0
 11
130.919
 21
73.1104
 31
0.0
  0
LINE
  8
0
 62
     0
 10
130.919
 20
73.1104
 30
0.0
 11
130.919
 21
74.1094
 31
0.0
  0
LINE
  8
0
 62
     0
 10
130.919
 20
74.1094
 30
0.0
 11
116.918
 21
74.1094
 31
0.0
  0
LINE
  8
0
 62
     0
 10
97.8683
 20
74.1094
 30
0.0
 11
97.8683
 21
73.1104
 31
0.0
  0
LINE
  8
0
 62
     0
 10
97.8683
 20
73.1104
 30
0.0
 11
97.0689
 21
73.1104
 31
0.0
  0
LINE
  8
0
 62
     0
 10
97.0689
 20
73.1104
 30
0.0
 11
97.0689
 21
70.0098
 31
0.0
  0
LINE
  8
0
 62
     0
 10
97.0689
 20
70.0098
 30
0.0
 11
97.8683
 21
70.0098
 31
0.0
  0
LINE
  8
0
 62
     0
 10
97.8683
 20
70.0098
 30
0.0
 11
97.8683
 21
64.2098
 31
0.0
  0
LINE
  8
0
 62
     0
 10
97.8683
 20
64.2098
 30
0.0
 11
97.0689
 21
64.2098
 31
0.0
  0
LINE
  8
0
 62
     0
 10
97.0689
 20
64.2098
 30
0.0
 11
97.0689
 21
61.1106
 31
0.0
  0
LINE
  8
0
 62
     0
 10
97.0689
 20
61.1106
 30
0.0
 11
97.8683
 21
61.1106
 31
0.0
  0
LINE
  8
0
 62
     0
 10
97.8683
 20
61.1106
 30
0.0
 11
97.8683
 21
60.1102
 31
0.0
  0
LINE
  8
0
 62
     0
 10
97.8683
 20
60.1102
 30
0.0
 11
111.869
 21
60.1102
 31
0.0
  0
LINE
  8
0
 62
     0
 10
111.869
 20
60.1102
 30
0.0
 11
111.869
 21
61.1106
 31
0.0
  0
LINE
  8
0
 62
     0
 10
111.869
 20
61.1106
 30
0.0
 11
112.668
 21
61.1106
 31
0.0
  0
LINE
  8
0
 62
     0
 10
112.668
 20
61.1106
 30
0.0
 11
112.668
 21
64.2098
 31
0.0
  0
LINE
  8
0
 62
     0
 10
112.668
 20
64.2098
 30
0.0
 11
111.869
 21
64.2098
 31
0.0
  0
LINE
  8
0
 62
     0
 10
111.869
 20
64.2098
 30
0.0
 11
111.869
 21
70.0098
 31
0.0
  0
LINE
  8
0
 62
     0
 10
111.869
 20
70.0098
 30
0.0
 11
112.668
 21
70.0098
 31
0.0
  0
LINE
  8
0
 62
     0
 10
112.668
 20
70.0098
 30
0.0
 11
112.668
 21
73.1104
 31
0.0
  0
LINE
  8
0
 62
     0
 10
112.668
 20
73.1104
 30
0.0
 11
111.869
 21
73.1104
 31
0.0
  0
LINE
  8
0
 62
     0
 10
111.869
 20
73.1104
 30
0.0
 11
111.869
 21
74.1094
 31
0.0
  0
LINE
  8
0
 62
     0
 10
111.869
 20
74.1094
 30
0.0
 11
97.8683
 21
74.1094
 31
0.0
  0
LINE
  8
0
 62
     0
 10
78.8197
 20
74.1094
 30
0.0
 11
78.8197
 21
73.1104
 31
0.0
  0
LINE
  8
0
 62
     0
 10
78.8197
 20
73.1104
 30
0.0
 11
78.0189
 21
73.1104
 31
0.0
  0
LINE
  8
0
 62
     0
 10
78.0189
 20
73.1104
 30
0.0
 11
78.0189
 21
70.0098
 31
0.0
  0
LINE
  8
0
 62
     0
 10
78.0189
 20
70.0098
 30
0.0
 11
78.8197
 21
70.0098
 31
0.0
  0
LINE
  8
0
 62
     0
 10
78.8197
 20
70.0098
 30
0.0
 11
78.8197
 21
64.2098
 31
0.0
  0
LINE
  8
0
 62
     0
 10
78.8197
 20
64.2098
 30
0.0
 11
78.0189
 21
64.2098
 31
0.0
  0
LINE
  8
0
 62
     0
 10
78.0189
 20
64.2098
 30
0.0
 11
78.0189
 21
61.1106
 31
0.0
  0
LINE
  8
0
 62
     0
 10
78.0189
 20
61.1106
 30
0.0
 11
78.8197
 21
61.1106
 31
0.0
  0
LINE
  8
0
 62
     0
 10
78.8197
 20
61.1106
 30
0.0
 11
78.8197
 21
60.1102
 31
0.0
  0
LINE
  8
0
 62
     0
 10
78.8197
 20
60.1102
 30
0.0
 11
92.819
 21
60.1102
 31
0.0
  0
LINE
  8
0
 62
     0
 10
92.819
 20
60.1102
 30
0.0
 11
92.819
 21
61.1106
 31
0.0
  0
LINE
  8
0
 62
     0
 10
92.819
 20
61.1106
 30
0.0
 11
93.6184
 21
61.1106
 31
0.0
  0
LINE
  8
0
 62
     0
 10
93.6184
 20
61.1106
 30
0.0
 11
93.6184
 21
64.2098
 31
0.0
  0
LINE
  8
0
 62
     0
 10
93.6184
 20
64.2098
 30
0.0
 11
92.819
 21
64.2098
 31
0.0
  0
LINE
  8
0
 62
     0
 10
92.819
 20
64.2098
 30
0.0
 11
92.819
 21
70.0098
 31
0.0
  0
LINE
  8
0
 62
     0
 10
92.819
 20
70.0098
 30
0.0
 11
93.6184
 21
70.0098
 31
0.0
  0
LINE
  8
0
 62
     0
 10
93.6184
 20
70.0098
 30
0.0
 11
93.6184
 21
73.1104
 31
0.0
  0
LINE
  8
0
 62
     0
 10
93.6184
 20
73.1104
 30
0.0
 11
92.819
 21
73.1104
 31
0.0
  0
LINE
  8
0
 62
     0
 10
92.819
 20
73.1104
 30
0.0
 11
92.819
 21
74.1094
 31
0.0
  0
LINE
  8
0
 62
     0
 10
92.819
 20
74.1094
 30
0.0
 11
78.8197
 21
74.1094
 31
0.0
  0
LINE
  8
0
 62
     0
 10
59.7697
 20
74.1094
 30
0.0
 11
59.7697
 21
73.1104
 31
0.0
  0
LINE
  8
0
 62
     0
 10
59.7697
 20
73.1104
 30
0.0
 11
58.9689
 21
73.1104
 31
0.0
  0
LINE
  8
0
 62
     0
 10
58.9689
 20
73.1104
 30
0.0
 11
58.9689
 21
70.0098
 31
0.0
  0
LINE
  8
0
 62
     0
 10
58.9689
 20
70.0098
 30
0.0
 11
59.7697
 21
70.0098
 31
0.0
  0
LINE
  8
0
 62
     0
 10
59.7697
 20
70.0098
 30
0.0
 11
59.7697
 21
64.2098
 31
0.0
  0
LINE
  8
0
 62
     0
 10
59.7697
 20
64.2098
 30
0.0
 11
58.9689
 21
64.2098
 31
0.0
  0
LINE
  8
0
 62
     0
 10
58.9689
 20
64.2098
 30
0.0
 11
58.9689
 21
61.1106
 31
0.0
  0
LINE
  8
0
 62
     0
 10
58.9689
 20
61.1106
 30
0.0
 11
59.7697
 21
61.1106
 31
0.0
  0
LINE
  8
0
 62
     0
 10
59.7697
 20
61.1106
 30
0.0
 11
59.7697
 21
60.1102
 31
0.0
  0
LINE
  8
0
 62
     0
 10
59.7697
 20
60.1102
 30
0.0
 11
73.769
 21
60.1102
 31
0.0
  0
LINE
  8
0
 62
     0
 10
73.769
 20
60.1102
 30
0.0
 11
73.769
 21
61.1106
 31
0.0
  0
LINE
  8
0
 62
     0
 10
73.769
 20
61.1106
 30
0.0
 11
74.5698
 21
61.1106
 31
0.0
  0
LINE
  8
0
 62
     0
 10
74.5698
 20
61.1106
 30
0.0
 11
74.5698
 21
64.2098
 31
0.0
  0
LINE
  8
0
 62
     0
 10
74.5698
 20
64.2098
 30
0.0
 11
73.769
 21
64.2098
 31
0.0
  0
LINE
  8
0
 62
     0
 10
73.769
 20
64.2098
 30
0.0
 11
73.769
 21
70.0098
 31
0.0
  0
LINE
  8
0
 62
     0
 10
73.769
 20
70.0098
 30
0.0
 11
74.5698
 21
70.0098
 31
0.0
  0
LINE
  8
0
 62
     0
 10
74.5698
 20
70.0098
 30
0.0
 11
74.5698
 21
73.1104
 31
0.0
  0
LINE
  8
0
 62
     0
 10
74.5698
 20
73.1104
 30
0.0
 11
73.769
 21
73.1104
 31
0.0
  0
LINE
  8
0
 62
     0
 10
73.769
 20
73.1104
 30
0.0
 11
73.769
 21
74.1094
 31
0.0
  0
LINE
  8
0
 62
     0
 10
73.769
 20
74.1094
 30
0.0
 11
59.7697
 21
74.1094
 31
0.0
  0
LINE
  8
0
 62
     0
 10
40.7197
 20
74.1094
 30
0.0
 11
40.7197
 21
73.1104
 31
0.0
  0
LINE
  8
0
 62
     0
 10
40.7197
 20
73.1104
 30
0.0
 11
39.9189
 21
73.1104
 31
0.0
  0
LINE
  8
0
 62
     0
 10
39.9189
 20
73.1104
 30
0.0
 11
39.9189
 21
70.0098
 31
0.0
  0
LINE
  8
0
 62
     0
 10
39.9189
 20
70.0098
 30
0.0
 11
40.7197
 21
70.0098
 31
0.0
  0
LINE
  8
0
 62
     0
 10
40.7197
 20
70.0098
 30
0.0
 11
40.7197
 21
64.2098
 31
0.0
  0
LINE
  8
0
 62
     0
 10
40.7197
 20
64.2098
 30
0.0
 11
39.9189
 21
64.2098
 31
0.0
  0
LINE
  8
0
 62
     0
 10
39.9189
 20
64.2098
 30
0.0
 11
39.9189
 21
61.1106
 31
0.0
  0
LINE
  8
0
 62
     0
 10
39.9189
 20
61.1106
 30
0.0
 11
40.7197
 21
61.1106
 31
0.0
  0
LINE
  8
0
 62
     0
 10
40.7197
 20
61.1106
 30
0.0
 11
40.7197
 21
60.1102
 31
0.0
  0
LINE
  8
0
 62
     0
 10
40.7197
 20
60.1102
 30
0.0
 11
54.719
 21
60.1102
 31
0.0
  0
LINE
  8
0
 62
     0
 10
54.719
 20
60.1102
 30
0.0
 11
54.719
 21
61.1106
 31
0.0
  0
LINE
  8
0
 62
     0
 10
54.719
 20
61.1106
 30
0.0
 11
55.5198
 21
61.1106
 31
0.0
  0
LINE
  8
0
 62
     0
 10
55.5198
 20
61.1106
 30
0.0
 11
55.5198
 21
64.2098
 31
0.0
  0
LINE
  8
0
 62
     0
 10
55.5198
 20
64.2098
 30
0.0
 11
54.719
 21
64.2098
 31
0.0
  0
LINE
  8
0
 62
     0
 10
54.719
 20
64.2098
 30
0.0
 11
54.719
 21
70.0098
 31
0.0
  0
LINE
  8
0
 62
     0
 10
54.719
 20
70.0098
 30
0.0
 11
55.5198
 21
70.0098
 31
0.0
  0
LINE
  8
0
 62
     0
 10
55.5198
 20
70.0098
 30
0.0
 11
55.5198
 21
73.1104
 31
0.0
  0
LINE
  8
0
 62
     0
 10
55.5198
 20
73.1104
 30
0.0
 11
54.719
 21
73.1104
 31
0.0
  0
LINE
  8
0
 62
     0
 10
54.719
 20
73.1104
 30
0.0
 11
54.719
 21
74.1094
 31
0.0
  0
LINE
  8
0
 62
     0
 10
54.719
 20
74.1094
 30
0.0
 11
40.7197
 21
74.1094
 31
0.0
  0
LINE
  8
0
 62
     0
 10
21.6697
 20
74.1094
 30
0.0
 11
21.6697
 21
73.1104
 31
0.0
  0
LINE
  8
0
 62
     0
 10
21.6697
 20
73.1104
 30
0.0
 11
20.869
 21
73.1104
 31
0.0
  0
LINE
  8
0
 62
     0
 10
20.869
 20
73.1104
 30
0.0
 11
20.869
 21
70.0098
 31
0.0
  0
LINE
  8
0
 62
     0
 10
20.869
 20
70.0098
 30
0.0
 11
21.6697
 21
70.0098
 31
0.0
  0
LINE
  8
0
 62
     0
 10
21.6697
 20
70.0098
 30
0.0
 11
21.6697
 21
64.2098
 31
0.0
  0
LINE
  8
0
 62
     0
 10
21.6697
 20
64.2098
 30
0.0
 11
20.869
 21
64.2098
 31
0.0
  0
LINE
  8
0
 62
     0
 10
20.869
 20
64.2098
 30
0.0
 11
20.869
 21
61.1106
 31
0.0
  0
LINE
  8
0
 62
     0
 10
20.869
 20
61.1106
 30
0.0
 11
21.6697
 21
61.1106
 31
0.0
  0
LINE
  8
0
 62
     0
 10
21.6697
 20
61.1106
 30
0.0
 11
21.6697
 21
60.1102
 31
0.0
  0
LINE
  8
0
 62
     0
 10
21.6697
 20
60.1102
 30
0.0
 11
35.669
 21
60.1102
 31
0.0
  0
LINE
  8
0
 62
     0
 10
35.669
 20
60.1102
 30
0.0
 11
35.669
 21
61.1106
 31
0.0
  0
LINE
  8
0
 62
     0
 10
35.669
 20
61.1106
 30
0.0
 11
36.4698
 21
61.1106
 31
0.0
  0
LINE
  8
0
 62
     0
 10
36.4698
 20
61.1106
 30
0.0
 11
36.4698
 21
64.2098
 31
0.0
  0
LINE
  8
0
 62
     0
 10
36.4698
 20
64.2098
 30
0.0
 11
35.669
 21
64.2098
 31
0.0
  0
LINE
  8
0
 62
     0
 10
35.669
 20
64.2098
 30
0.0
 11
35.669
 21
70.0098
 31
0.0
  0
LINE
  8
0
 62
     0
 10
35.669
 20
70.0098
 30
0.0
 11
36.4698
 21
70.0098
 31
0.0
  0
LINE
  8
0
 62
     0
 10
36.4698
 20
70.0098
 30
0.0
 11
36.4698
 21
73.1104
 31
0.0
  0
LINE
  8
0
 62
     0
 10
36.4698
 20
73.1104
 30
0.0
 11
35.669
 21
73.1104
 31
0.0
  0
LINE
  8
0
 62
     0
 10
35.669
 20
73.1104
 30
0.0
 11
35.669
 21
74.1094
 31
0.0
  0
LINE
  8
0
 62
     0
 10
35.669
 20
74.1094
 30
0.0
 11
21.6697
 21
74.1094
 31
0.0
  0
LINE
  8
0
 62
     0
 10
2.61965
 20
74.1094
 30
0.0
 11
2.61965
 21
73.1104
 31
0.0
  0
LINE
  8
0
 62
     0
 10
2.61965
 20
73.1104
 30
0.0
 11
1.81901
 21
73.1104
 31
0.0
  0
LINE
  8
0
 62
     0
 10
1.81901
 20
73.1104
 30
0.0
 11
1.81901
 21
70.0098
 31
0.0
  0
LINE
  8
0
 62
     0
 10
1.81901
 20
70.0098
 30
0.0
 11
2.61965
 21
70.0098
 31
0.0
  0
LINE
  8
0
 62
     0
 10
2.61965
 20
70.0098
 30
0.0
 11
2.61965
 21
64.2098
 31
0.0
  0
LINE
  8
0
 62
     0
 10
2.61965
 20
64.2098
 30
0.0
 11
1.81901
 21
64.2098
 31
0.0
  0
LINE
  8
0
 62
     0
 10
1.81901
 20
64.2098
 30
0.0
 11
1.81901
 21
61.1106
 31
0.0
  0
LINE
  8
0
 62
     0
 10
1.81901
 20
61.1106
 30
0.0
 11
2.61965
 21
61.1106
 31
0.0
  0
LINE
  8
0
 62
     0
 10
2.61965
 20
61.1106
 30
0.0
 11
2.61965
 21
60.1102
 31
0.0
  0
LINE
  8
0
 62
     0
 10
2.61965
 20
60.1102
 30
0.0
 11
16.6192
 21
60.1102
 31
0.0
  0
LINE
  8
0
 62
     0
 10
16.6192
 20
60.1102
 30
0.0
 11
16.6192
 21
61.1106
 31
0.0
  0
LINE
  8
0
 62
     0
 10
16.6192
 20
61.1106
 30
0.0
 11
17.4198
 21
61.1106
 31
0.0
  0
LINE
  8
0
 62
     0
 10
17.4198
 20
61.1106
 30
0.0
 11
17.4198
 21
64.2098
 31
0.0
  0
LINE
  8
0
 62
     0
 10
17.4198
 20
64.2098
 30
0.0
 11
16.6192
 21
64.2098
 31
0.0
  0
LINE
  8
0
 62
     0
 10
16.6192
 20
64.2098
 30
0.0
 11
16.6192
 21
70.0098
 31
0.0
  0
LINE
  8
0
 62
     0
 10
16.6192
 20
70.0098
 30
0.0
 11
17.4198
 21
70.0098
 31
0.0
  0
LINE
  8
0
 62
     0
 10
17.4198
 20
70.0098
 30
0.0
 11
17.4198
 21
73.1104
 31
0.0
  0
LINE
  8
0
 62
     0
 10
17.4198
 20
73.1104
 30
0.0
 11
16.6192
 21
73.1104
 31
0.0
  0
LINE
  8
0
 62
     0
 10
16.6192
 20
73.1104
 30
0.0
 11
16.6192
 21
74.1094
 31
0.0
  0
LINE
  8
0
 62
     0
 10
16.6192
 20
74.1094
 30
0.0
 11
2.61965
 21
74.1094
 31
0.0
  0
LINE
  8
0
 62
     0
 10
169.307
 20
93.1594
 30
0.0
 11
169.307
 21
92.1604
 31
0.0
  0
LINE
  8
0
 62
     0
 10
169.307
 20
92.1604
 30
0.0
 11
168.506
 21
92.1604
 31
0.0
  0
LINE
  8
0
 62
     0
 10
168.506
 20
92.1604
 30
0.0
 11
168.506
 21
89.0598
 31
0.0
  0
LINE
  8
0
 62
     0
 10
168.506
 20
89.0598
 30
0.0
 11
169.307
 21
89.0598
 31
0.0
  0
LINE
  8
0
 62
     0
 10
169.307
 20
89.0598
 30
0.0
 11
169.307
 21
83.2598
 31
0.0
  0
LINE
  8
0
 62
     0
 10
169.307
 20
83.2598
 30
0.0
 11
168.506
 21
83.2598
 31
0.0
  0
LINE
  8
0
 62
     0
 10
168.506
 20
83.2598
 30
0.0
 11
168.506
 21
80.1606
 31
0.0
  0
LINE
  8
0
 62
     0
 10
168.506
 20
80.1606
 30
0.0
 11
169.307
 21
80.1606
 31
0.0
  0
LINE
  8
0
 62
     0
 10
169.307
 20
80.1606
 30
0.0
 11
169.307
 21
79.1602
 31
0.0
  0
LINE
  8
0
 62
     0
 10
169.307
 20
79.1602
 30
0.0
 11
183.307
 21
79.1602
 31
0.0
  0
LINE
  8
0
 62
     0
 10
183.307
 20
79.1602
 30
0.0
 11
183.307
 21
80.1606
 31
0.0
  0
LINE
  8
0
 62
     0
 10
183.307
 20
80.1606
 30
0.0
 11
184.106
 21
80.1606
 31
0.0
  0
LINE
  8
0
 62
     0
 10
184.106
 20
80.1606
 30
0.0
 11
184.106
 21
83.2598
 31
0.0
  0
LINE
  8
0
 62
     0
 10
184.106
 20
83.2598
 30
0.0
 11
183.307
 21
83.2598
 31
0.0
  0
LINE
  8
0
 62
     0
 10
183.307
 20
83.2598
 30
0.0
 11
183.307
 21
89.0598
 31
0.0
  0
LINE
  8
0
 62
     0
 10
183.307
 20
89.0598
 30
0.0
 11
184.106
 21
89.0598
 31
0.0
  0
LINE
  8
0
 62
     0
 10
184.106
 20
89.0598
 30
0.0
 11
184.106
 21
92.1604
 31
0.0
  0
LINE
  8
0
 62
     0
 10
184.106
 20
92.1604
 30
0.0
 11
183.307
 21
92.1604
 31
0.0
  0
LINE
  8
0
 62
     0
 10
183.307
 20
92.1604
 30
0.0
 11
183.307
 21
93.1594
 31
0.0
  0
LINE
  8
0
 62
     0
 10
183.307
 20
93.1594
 30
0.0
 11
169.307
 21
93.1594
 31
0.0
  0
LINE
  8
0
 62
     0
 10
145.495
 20
93.1594
 30
0.0
 11
145.495
 21
92.1604
 31
0.0
  0
LINE
  8
0
 62
     0
 10
145.495
 20
92.1604
 30
0.0
 11
144.694
 21
92.1604
 31
0.0
  0
LINE
  8
0
 62
     0
 10
144.694
 20
92.1604
 30
0.0
 11
144.694
 21
89.0598
 31
0.0
  0
LINE
  8
0
 62
     0
 10
144.694
 20
89.0598
 30
0.0
 11
145.495
 21
89.0598
 31
0.0
  0
LINE
  8
0
 62
     0
 10
145.495
 20
89.0598
 30
0.0
 11
145.495
 21
83.2598
 31
0.0
  0
LINE
  8
0
 62
     0
 10
145.495
 20
83.2598
 30
0.0
 11
144.694
 21
83.2598
 31
0.0
  0
LINE
  8
0
 62
     0
 10
144.694
 20
83.2598
 30
0.0
 11
144.694
 21
80.1606
 31
0.0
  0
LINE
  8
0
 62
     0
 10
144.694
 20
80.1606
 30
0.0
 11
145.495
 21
80.1606
 31
0.0
  0
LINE
  8
0
 62
     0
 10
145.495
 20
80.1606
 30
0.0
 11
145.495
 21
79.1602
 31
0.0
  0
LINE
  8
0
 62
     0
 10
145.495
 20
79.1602
 30
0.0
 11
159.494
 21
79.1602
 31
0.0
  0
LINE
  8
0
 62
     0
 10
159.494
 20
79.1602
 30
0.0
 11
159.494
 21
80.1606
 31
0.0
  0
LINE
  8
0
 62
     0
 10
159.494
 20
80.1606
 30
0.0
 11
160.295
 21
80.1606
 31
0.0
  0
LINE
  8
0
 62
     0
 10
160.295
 20
80.1606
 30
0.0
 11
160.295
 21
83.2598
 31
0.0
  0
LINE
  8
0
 62
     0
 10
160.295
 20
83.2598
 30
0.0
 11
159.494
 21
83.2598
 31
0.0
  0
LINE
  8
0
 62
     0
 10
159.494
 20
83.2598
 30
0.0
 11
159.494
 21
89.0598
 31
0.0
  0
LINE
  8
0
 62
     0
 10
159.494
 20
89.0598
 30
0.0
 11
160.295
 21
89.0598
 31
0.0
  0
LINE
  8
0
 62
     0
 10
160.295
 20
89.0598
 30
0.0
 11
160.295
 21
92.1604
 31
0.0
  0
LINE
  8
0
 62
     0
 10
160.295
 20
92.1604
 30
0.0
 11
159.494
 21
92.1604
 31
0.0
  0
LINE
  8
0
 62
     0
 10
159.494
 20
92.1604
 30
0.0
 11
159.494
 21
93.1594
 31
0.0
  0
LINE
  8
0
 62
     0
 10
159.494
 20
93.1594
 30
0.0
 11
145.495
 21
93.1594
 31
0.0
  0
LINE
  8
0
 62
     0
 10
126.445
 20
93.1594
 30
0.0
 11
126.445
 21
92.1604
 31
0.0
  0
LINE
  8
0
 62
     0
 10
126.445
 20
92.1604
 30
0.0
 11
125.644
 21
92.1604
 31
0.0
  0
LINE
  8
0
 62
     0
 10
125.644
 20
92.1604
 30
0.0
 11
125.644
 21
89.0598
 31
0.0
  0
LINE
  8
0
 62
     0
 10
125.644
 20
89.0598
 30
0.0
 11
126.445
 21
89.0598
 31
0.0
  0
LINE
  8
0
 62
     0
 10
126.445
 20
89.0598
 30
0.0
 11
126.445
 21
83.2598
 31
0.0
  0
LINE
  8
0
 62
     0
 10
126.445
 20
83.2598
 30
0.0
 11
125.644
 21
83.2598
 31
0.0
  0
LINE
  8
0
 62
     0
 10
125.644
 20
83.2598
 30
0.0
 11
125.644
 21
80.1606
 31
0.0
  0
LINE
  8
0
 62
     0
 10
125.644
 20
80.1606
 30
0.0
 11
126.445
 21
80.1606
 31
0.0
  0
LINE
  8
0
 62
     0
 10
126.445
 20
80.1606
 30
0.0
 11
126.445
 21
79.1602
 31
0.0
  0
LINE
  8
0
 62
     0
 10
126.445
 20
79.1602
 30
0.0
 11
140.444
 21
79.1602
 31
0.0
  0
LINE
  8
0
 62
     0
 10
140.444
 20
79.1602
 30
0.0
 11
140.444
 21
80.1606
 31
0.0
  0
LINE
  8
0
 62
     0
 10
140.444
 20
80.1606
 30
0.0
 11
141.245
 21
80.1606
 31
0.0
  0
LINE
  8
0
 62
     0
 10
141.245
 20
80.1606
 30
0.0
 11
141.245
 21
83.2598
 31
0.0
  0
LINE
  8
0
 62
     0
 10
141.245
 20
83.2598
 30
0.0
 11
140.444
 21
83.2598
 31
0.0
  0
LINE
  8
0
 62
     0
 10
140.444
 20
83.2598
 30
0.0
 11
140.444
 21
89.0598
 31
0.0
  0
LINE
  8
0
 62
     0
 10
140.444
 20
89.0598
 30
0.0
 11
141.245
 21
89.0598
 31
0.0
  0
LINE
  8
0
 62
     0
 10
141.245
 20
89.0598
 30
0.0
 11
141.245
 21
92.1604
 31
0.0
  0
LINE
  8
0
 62
     0
 10
141.245
 20
92.1604
 30
0.0
 11
140.444
 21
92.1604
 31
0.0
  0
LINE
  8
0
 62
     0
 10
140.444
 20
92.1604
 30
0.0
 11
140.444
 21
93.1594
 31
0.0
  0
LINE
  8
0
 62
     0
 10
140.444
 20
93.1594
 30
0.0
 11
126.445
 21
93.1594
 31
0.0
  0
LINE
  8
0
 62
     0
 10
107.395
 20
93.1594
 30
0.0
 11
107.395
 21
92.1604
 31
0.0
  0
LINE
  8
0
 62
     0
 10
107.395
 20
92.1604
 30
0.0
 11
106.594
 21
92.1604
 31
0.0
  0
LINE
  8
0
 62
     0
 10
106.594
 20
92.1604
 30
0.0
 11
106.594
 21
89.0598
 31
0.0
  0
LINE
  8
0
 62
     0
 10
106.594
 20
89.0598
 30
0.0
 11
107.395
 21
89.0598
 31
0.0
  0
LINE
  8
0
 62
     0
 10
107.395
 20
89.0598
 30
0.0
 11
107.395
 21
83.2598
 31
0.0
  0
LINE
  8
0
 62
     0
 10
107.395
 20
83.2598
 30
0.0
 11
106.594
 21
83.2598
 31
0.0
  0
LINE
  8
0
 62
     0
 10
106.594
 20
83.2598
 30
0.0
 11
106.594
 21
80.1606
 31
0.0
  0
LINE
  8
0
 62
     0
 10
106.594
 20
80.1606
 30
0.0
 11
107.395
 21
80.1606
 31
0.0
  0
LINE
  8
0
 62
     0
 10
107.395
 20
80.1606
 30
0.0
 11
107.395
 21
79.1602
 31
0.0
  0
LINE
  8
0
 62
     0
 10
107.395
 20
79.1602
 30
0.0
 11
121.394
 21
79.1602
 31
0.0
  0
LINE
  8
0
 62
     0
 10
121.394
 20
79.1602
 30
0.0
 11
121.394
 21
80.1606
 31
0.0
  0
LINE
  8
0
 62
     0
 10
121.394
 20
80.1606
 30
0.0
 11
122.195
 21
80.1606
 31
0.0
  0
LINE
  8
0
 62
     0
 10
122.195
 20
80.1606
 30
0.0
 11
122.195
 21
83.2598
 31
0.0
  0
LINE
  8
0
 62
     0
 10
122.195
 20
83.2598
 30
0.0
 11
121.394
 21
83.2598
 31
0.0
  0
LINE
  8
0
 62
     0
 10
121.394
 20
83.2598
 30
0.0
 11
121.394
 21
89.0598
 31
0.0
  0
LINE
  8
0
 62
     0
 10
121.394
 20
89.0598
 30
0.0
 11
122.195
 21
89.0598
 31
0.0
  0
LINE
  8
0
 62
     0
 10
122.195
 20
89.0598
 30
0.0
 11
122.195
 21
92.1604
 31
0.0
  0
LINE
  8
0
 62
     0
 10
122.195
 20
92.1604
 30
0.0
 11
121.394
 21
92.1604
 31
0.0
  0
LINE
  8
0
 62
     0
 10
121.394
 20
92.1604
 30
0.0
 11
121.394
 21
93.1594
 31
0.0
  0
LINE
  8
0
 62
     0
 10
121.394
 20
93.1594
 30
0.0
 11
107.395
 21
93.1594
 31
0.0
  0
LINE
  8
0
 62
     0
 10
88.3447
 20
93.1594
 30
0.0
 11
88.3447
 21
92.1604
 31
0.0
  0
LINE
  8
0
 62
     0
 10
88.3447
 20
92.1604
 30
0.0
 11
87.5439
 21
92.1604
 31
0.0
  0
LINE
  8
0
 62
     0
 10
87.5439
 20
92.1604
 30
0.0
 11
87.5439
 21
89.0598
 31
0.0
  0
LINE
  8
0
 62
     0
 10
87.5439
 20
89.0598
 30
0.0
 11
88.3447
 21
89.0598
 31
0.0
  0
LINE
  8
0
 62
     0
 10
88.3447
 20
89.0598
 30
0.0
 11
88.3447
 21
83.2598
 31
0.0
  0
LINE
  8
0
 62
     0
 10
88.3447
 20
83.2598
 30
0.0
 11
87.5439
 21
83.2598
 31
0.0
  0
LINE
  8
0
 62
     0
 10
87.5439
 20
83.2598
 30
0.0
 11
87.5439
 21
80.1606
 31
0.0
  0
LINE
  8
0
 62
     0
 10
87.5439
 20
80.1606
 30
0.0
 11
88.3447
 21
80.1606
 31
0.0
  0
LINE
  8
0
 62
     0
 10
88.3447
 20
80.1606
 30
0.0
 11
88.3447
 21
79.1602
 31
0.0
  0
LINE
  8
0
 62
     0
 10
88.3447
 20
79.1602
 30
0.0
 11
102.344
 21
79.1602
 31
0.0
  0
LINE
  8
0
 62
     0
 10
102.344
 20
79.1602
 30
0.0
 11
102.344
 21
80.1606
 31
0.0
  0
LINE
  8
0
 62
     0
 10
102.344
 20
80.1606
 30
0.0
 11
103.145
 21
80.1606
 31
0.0
  0
LINE
  8
0
 62
     0
 10
103.145
 20
80.1606
 30
0.0
 11
103.145
 21
83.2598
 31
0.0
  0
LINE
  8
0
 62
     0
 10
103.145
 20
83.2598
 30
0.0
 11
102.344
 21
83.2598
 31
0.0
  0
LINE
  8
0
 62
     0
 10
102.344
 20
83.2598
 30
0.0
 11
102.344
 21
89.0598
 31
0.0
  0
LINE
  8
0
 62
     0
 10
102.344
 20
89.0598
 30
0.0
 11
103.145
 21
89.0598
 31
0.0
  0
LINE
  8
0
 62
     0
 10
103.145
 20
89.0598
 30
0.0
 11
103.145
 21
92.1604
 31
0.0
  0
LINE
  8
0
 62
     0
 10
103.145
 20
92.1604
 30
0.0
 11
102.344
 21
92.1604
 31
0.0
  0
LINE
  8
0
 62
     0
 10
102.344
 20
92.1604
 30
0.0
 11
102.344
 21
93.1594
 31
0.0
  0
LINE
  8
0
 62
     0
 10
102.344
 20
93.1594
 30
0.0
 11
88.3447
 21
93.1594
 31
0.0
  0
LINE
  8
0
 62
     0
 10
69.2947
 20
93.1594
 30
0.0
 11
69.2947
 21
92.1604
 31
0.0
  0
LINE
  8
0
 62
     0
 10
69.2947
 20
92.1604
 30
0.0
 11
68.4939
 21
92.1604
 31
0.0
  0
LINE
  8
0
 62
     0
 10
68.4939
 20
92.1604
 30
0.0
 11
68.4939
 21
89.0598
 31
0.0
  0
LINE
  8
0
 62
     0
 10
68.4939
 20
89.0598
 30
0.0
 11
69.2947
 21
89.0598
 31
0.0
  0
LINE
  8
0
 62
     0
 10
69.2947
 20
89.0598
 30
0.0
 11
69.2947
 21
83.2598
 31
0.0
  0
LINE
  8
0
 62
     0
 10
69.2947
 20
83.2598
 30
0.0
 11
68.4939
 21
83.2598
 31
0.0
  0
LINE
  8
0
 62
     0
 10
68.4939
 20
83.2598
 30
0.0
 11
68.4939
 21
80.1606
 31
0.0
  0
LINE
  8
0
 62
     0
 10
68.4939
 20
80.1606
 30
0.0
 11
69.2947
 21
80.1606
 31
0.0
  0
LINE
  8
0
 62
     0
 10
69.2947
 20
80.1606
 30
0.0
 11
69.2947
 21
79.1602
 31
0.0
  0
LINE
  8
0
 62
     0
 10
69.2947
 20
79.1602
 30
0.0
 11
83.294
 21
79.1602
 31
0.0
  0
LINE
  8
0
 62
     0
 10
83.294
 20
79.1602
 30
0.0
 11
83.294
 21
80.1606
 31
0.0
  0
LINE
  8
0
 62
     0
 10
83.294
 20
80.1606
 30
0.0
 11
84.0948
 21
80.1606
 31
0.0
  0
LINE
  8
0
 62
     0
 10
84.0948
 20
80.1606
 30
0.0
 11
84.0948
 21
83.2598
 31
0.0
  0
LINE
  8
0
 62
     0
 10
84.0948
 20
83.2598
 30
0.0
 11
83.294
 21
83.2598
 31
0.0
  0
LINE
  8
0
 62
     0
 10
83.294
 20
83.2598
 30
0.0
 11
83.294
 21
89.0598
 31
0.0
  0
LINE
  8
0
 62
     0
 10
83.294
 20
89.0598
 30
0.0
 11
84.0948
 21
89.0598
 31
0.0
  0
LINE
  8
0
 62
     0
 10
84.0948
 20
89.0598
 30
0.0
 11
84.0948
 21
92.1604
 31
0.0
  0
LINE
  8
0
 62
     0
 10
84.0948
 20
92.1604
 30
0.0
 11
83.294
 21
92.1604
 31
0.0
  0
LINE
  8
0
 62
     0
 10
83.294
 20
92.1604
 30
0.0
 11
83.294
 21
93.1594
 31
0.0
  0
LINE
  8
0
 62
     0
 10
83.294
 20
93.1594
 30
0.0
 11
69.2947
 21
93.1594
 31
0.0
  0
LINE
  8
0
 62
     0
 10
50.2447
 20
93.1594
 30
0.0
 11
50.2447
 21
92.1604
 31
0.0
  0
LINE
  8
0
 62
     0
 10
50.2447
 20
92.1604
 30
0.0
 11
49.4439
 21
92.1604
 31
0.0
  0
LINE
  8
0
 62
     0
 10
49.4439
 20
92.1604
 30
0.0
 11
49.4439
 21
89.0598
 31
0.0
  0
LINE
  8
0
 62
     0
 10
49.4439
 20
89.0598
 30
0.0
 11
50.2447
 21
89.0598
 31
0.0
  0
LINE
  8
0
 62
     0
 10
50.2447
 20
89.0598
 30
0.0
 11
50.2447
 21
83.2598
 31
0.0
  0
LINE
  8
0
 62
     0
 10
50.2447
 20
83.2598
 30
0.0
 11
49.4439
 21
83.2598
 31
0.0
  0
LINE
  8
0
 62
     0
 10
49.4439
 20
83.2598
 30
0.0
 11
49.4439
 21
80.1606
 31
0.0
  0
LINE
  8
0
 62
     0
 10
49.4439
 20
80.1606
 30
0.0
 11
50.2447
 21
80.1606
 31
0.0
  0
LINE
  8
0
 62
     0
 10
50.2447
 20
80.1606
 30
0.0
 11
50.2447
 21
79.1602
 31
0.0
  0
LINE
  8
0
 62
     0
 10
50.2447
 20
79.1602
 30
0.0
 11
64.244
 21
79.1602
 31
0.0
  0
LINE
  8
0
 62
     0
 10
64.244
 20
79.1602
 30
0.0
 11
64.244
 21
80.1606
 31
0.0
  0
LINE
  8
0
 62
     0
 10
64.244
 20
80.1606
 30
0.0
 11
65.0448
 21
80.1606
 31
0.0
  0
LINE
  8
0
 62
     0
 10
65.0448
 20
80.1606
 30
0.0
 11
65.0448
 21
83.2598
 31
0.0
  0
LINE
  8
0
 62
     0
 10
65.0448
 20
83.2598
 30
0.0
 11
64.244
 21
83.2598
 31
0.0
  0
LINE
  8
0
 62
     0
 10
64.244
 20
83.2598
 30
0.0
 11
64.244
 21
89.0598
 31
0.0
  0
LINE
  8
0
 62
     0
 10
64.244
 20
89.0598
 30
0.0
 11
65.0448
 21
89.0598
 31
0.0
  0
LINE
  8
0
 62
     0
 10
65.0448
 20
89.0598
 30
0.0
 11
65.0448
 21
92.1604
 31
0.0
  0
LINE
  8
0
 62
     0
 10
65.0448
 20
92.1604
 30
0.0
 11
64.244
 21
92.1604
 31
0.0
  0
LINE
  8
0
 62
     0
 10
64.244
 20
92.1604
 30
0.0
 11
64.244
 21
93.1594
 31
0.0
  0
LINE
  8
0
 62
     0
 10
64.244
 20
93.1594
 30
0.0
 11
50.2447
 21
93.1594
 31
0.0
  0
LINE
  8
0
 62
     0
 10
31.1947
 20
93.1594
 30
0.0
 11
31.1947
 21
92.1604
 31
0.0
  0
LINE
  8
0
 62
     0
 10
31.1947
 20
92.1604
 30
0.0
 11
30.394
 21
92.1604
 31
0.0
  0
LINE
  8
0
 62
     0
 10
30.394
 20
92.1604
 30
0.0
 11
30.394
 21
89.0598
 31
0.0
  0
LINE
  8
0
 62
     0
 10
30.394
 20
89.0598
 30
0.0
 11
31.1947
 21
89.0598
 31
0.0
  0
LINE
  8
0
 62
     0
 10
31.1947
 20
89.0598
 30
0.0
 11
31.1947
 21
83.2598
 31
0.0
  0
LINE
  8
0
 62
     0
 10
31.1947
 20
83.2598
 30
0.0
 11
30.394
 21
83.2598
 31
0.0
  0
LINE
  8
0
 62
     0
 10
30.394
 20
83.2598
 30
0.0
 11
30.394
 21
80.1606
 31
0.0
  0
LINE
  8
0
 62
     0
 10
30.394
 20
80.1606
 30
0.0
 11
31.1947
 21
80.1606
 31
0.0
  0
LINE
  8
0
 62
     0
 10
31.1947
 20
80.1606
 30
0.0
 11
31.1947
 21
79.1602
 31
0.0
  0
LINE
  8
0
 62
     0
 10
31.1947
 20
79.1602
 30
0.0
 11
45.194
 21
79.1602
 31
0.0
  0
LINE
  8
0
 62
     0
 10
45.194
 20
79.1602
 30
0.0
 11
45.194
 21
80.1606
 31
0.0
  0
LINE
  8
0
 62
     0
 10
45.194
 20
80.1606
 30
0.0
 11
45.9948
 21
80.1606
 31
0.0
  0
LINE
  8
0
 62
     0
 10
45.9948
 20
80.1606
 30
0.0
 11
45.9948
 21
83.2598
 31
0.0
  0
LINE
  8
0
 62
     0
 10
45.9948
 20
83.2598
 30
0.0
 11
45.194
 21
83.2598
 31
0.0
  0
LINE
  8
0
 62
     0
 10
45.194
 20
83.2598
 30
0.0
 11
45.194
 21
89.0598
 31
0.0
  0
LINE
  8
0
 62
     0
 10
45.194
 20
89.0598
 30
0.0
 11
45.9948
 21
89.0598
 31
0.0
  0
LINE
  8
0
 62
     0
 10
45.9948
 20
89.0598
 30
0.0
 11
45.9948
 21
92.1604
 31
0.0
  0
LINE
  8
0
 62
     0
 10
45.9948
 20
92.1604
 30
0.0
 11
45.194
 21
92.1604
 31
0.0
  0
LINE
  8
0
 62
     0
 10
45.194
 20
92.1604
 30
0.0
 11
45.194
 21
93.1594
 31
0.0
  0
LINE
  8
0
 62
     0
 10
45.194
 20
93.1594
 30
0.0
 11
31.1947
 21
93.1594
 31
0.0
  0
LINE
  8
0
 62
     0
 10
12.1447
 20
93.1594
 30
0.0
 11
12.1447
 21
92.1604
 31
0.0
  0
LINE
  8
0
 62
     0
 10
12.1447
 20
92.1604
 30
0.0
 11
11.344
 21
92.1604
 31
0.0
  0
LINE
  8
0
 62
     0
 10
11.344
 20
92.1604
 30
0.0
 11
11.344
 21
89.0598
 31
0.0
  0
LINE
  8
0
 62
     0
 10
11.344
 20
89.0598
 30
0.0
 11
12.1447
 21
89.0598
 31
0.0
  0
LINE
  8
0
 62
     0
 10
12.1447
 20
89.0598
 30
0.0
 11
12.1447
 21
83.2598
 31
0.0
  0
LINE
  8
0
 62
     0
 10
12.1447
 20
83.2598
 30
0.0
 11
11.344
 21
83.2598
 31
0.0
  0
LINE
  8
0
 62
     0
 10
11.344
 20
83.2598
 30
0.0
 11
11.344
 21
80.1606
 31
0.0
  0
LINE
  8
0
 62
     0
 10
11.344
 20
80.1606
 30
0.0
 11
12.1447
 21
80.1606
 31
0.0
  0
LINE
  8
0
 62
     0
 10
12.1447
 20
80.1606
 30
0.0
 11
12.1447
 21
79.1602
 31
0.0
  0
LINE
  8
0
 62
     0
 10
12.1447
 20
79.1602
 30
0.0
 11
26.1441
 21
79.1602
 31
0.0
  0
LINE
  8
0
 62
     0
 10
26.1441
 20
79.1602
 30
0.0
 11
26.1441
 21
80.1606
 31
0.0
  0
LINE
  8
0
 62
     0
 10
26.1441
 20
80.1606
 30
0.0
 11
26.9448
 21
80.1606
 31
0.0
  0
LINE
  8
0
 62
     0
 10
26.9448
 20
80.1606
 30
0.0
 11
26.9448
 21
83.2598
 31
0.0
  0
LINE
  8
0
 62
     0
 10
26.9448
 20
83.2598
 30
0.0
 11
26.1441
 21
83.2598
 31
0.0
  0
LINE
  8
0
 62
     0
 10
26.1441
 20
83.2598
 30
0.0
 11
26.1441
 21
89.0598
 31
0.0
  0
LINE
  8
0
 62
     0
 10
26.1441
 20
89.0598
 30
0.0
 11
26.9448
 21
89.0598
 31
0.0
  0
LINE
  8
0
 62
     0
 10
26.9448
 20
89.0598
 30
0.0
 11
26.9448
 21
92.1604
 31
0.0
  0
LINE
  8
0
 62
     0
 10
26.9448
 20
92.1604
 30
0.0
 11
26.1441
 21
92.1604
 31
0.0
  0
LINE
  8
0
 62
     0
 10
26.1441
 20
92.1604
 30
0.0
 11
26.1441
 21
93.1594
 31
0.0
  0
LINE
  8
0
 62
     0
 10
26.1441
 20
93.1594
 30
0.0
 11
12.1447
 21
93.1594
 31
0.0
  0
LINE
  8
0
 62
     0
 10
145.495
 20
121.734
 30
0.0
 11
145.495
 21
120.735
 31
0.0
  0
LINE
  8
0
 62
     0
 10
145.495
 20
120.735
 30
0.0
 11
144.694
 21
120.735
 31
0.0
  0
LINE
  8
0
 62
     0
 10
144.694
 20
120.735
 30
0.0
 11
144.694
 21
117.635
 31
0.0
  0
LINE
  8
0
 62
     0
 10
144.694
 20
117.635
 30
0.0
 11
145.495
 21
117.635
 31
0.0
  0
LINE
  8
0
 62
     0
 10
145.495
 20
117.635
 30
0.0
 11
145.495
 21
111.835
 31
0.0
  0
LINE
  8
0
 62
     0
 10
145.495
 20
111.835
 30
0.0
 11
144.694
 21
111.835
 31
0.0
  0
LINE
  8
0
 62
     0
 10
144.694
 20
111.835
 30
0.0
 11
144.694
 21
108.736
 31
0.0
  0
LINE
  8
0
 62
     0
 10
144.694
 20
108.736
 30
0.0
 11
145.495
 21
108.736
 31
0.0
  0
LINE
  8
0
 62
     0
 10
145.495
 20
108.736
 30
0.0
 11
145.495
 21
107.735
 31
0.0
  0
LINE
  8
0
 62
     0
 10
145.495
 20
107.735
 30
0.0
 11
159.494
 21
107.735
 31
0.0
  0
LINE
  8
0
 62
     0
 10
159.494
 20
107.735
 30
0.0
 11
159.494
 21
108.736
 31
0.0
  0
LINE
  8
0
 62
     0
 10
159.494
 20
108.736
 30
0.0
 11
160.295
 21
108.736
 31
0.0
  0
LINE
  8
0
 62
     0
 10
160.295
 20
108.736
 30
0.0
 11
160.295
 21
111.835
 31
0.0
  0
LINE
  8
0
 62
     0
 10
160.295
 20
111.835
 30
0.0
 11
159.494
 21
111.835
 31
0.0
  0
LINE
  8
0
 62
     0
 10
159.494
 20
111.835
 30
0.0
 11
159.494
 21
117.635
 31
0.0
  0
LINE
  8
0
 62
     0
 10
159.494
 20
117.635
 30
0.0
 11
160.295
 21
117.635
 31
0.0
  0
LINE
  8
0
 62
     0
 10
160.295
 20
117.635
 30
0.0
 11
160.295
 21
120.735
 31
0.0
  0
LINE
  8
0
 62
     0
 10
160.295
 20
120.735
 30
0.0
 11
159.494
 21
120.735
 31
0.0
  0
LINE
  8
0
 62
     0
 10
159.494
 20
120.735
 30
0.0
 11
159.494
 21
121.734
 31
0.0
  0
LINE
  8
0
 62
     0
 10
159.494
 20
121.734
 30
0.0
 11
145.495
 21
121.734
 31
0.0
  0
LINE
  8
0
 62
     0
 10
126.445
 20
121.734
 30
0.0
 11
126.445
 21
120.735
 31
0.0
  0
LINE
  8
0
 62
     0
 10
126.445
 20
120.735
 30
0.0
 11
125.644
 21
120.735
 31
0.0
  0
LINE
  8
0
 62
     0
 10
125.644
 20
120.735
 30
0.0
 11
125.644
 21
117.635
 31
0.0
  0
LINE
  8
0
 62
     0
 10
125.644
 20
117.635
 30
0.0
 11
126.445
 21
117.635
 31
0.0
  0
LINE
  8
0
 62
     0
 10
126.445
 20
117.635
 30
0.0
 11
126.445
 21
111.835
 31
0.0
  0
LINE
  8
0
 62
     0
 10
126.445
 20
111.835
 30
0.0
 11
125.644
 21
111.835
 31
0.0
  0
LINE
  8
0
 62
     0
 10
125.644
 20
111.835
 30
0.0
 11
125.644
 21
108.736
 31
0.0
  0
LINE
  8
0
 62
     0
 10
125.644
 20
108.736
 30
0.0
 11
126.445
 21
108.736
 31
0.0
  0
LINE
  8
0
 62
     0
 10
126.445
 20
108.736
 30
0.0
 11
126.445
 21
107.735
 31
0.0
  0
LINE
  8
0
 62
     0
 10
126.445
 20
107.735
 30
0.0
 11
140.444
 21
107.735
 31
0.0
  0
LINE
  8
0
 62
     0
 10
140.444
 20
107.735
 30
0.0
 11
140.444
 21
108.736
 31
0.0
  0
LINE
  8
0
 62
     0
 10
140.444
 20
108.736
 30
0.0
 11
141.245
 21
108.736
 31
0.0
  0
LINE
  8
0
 62
     0
 10
141.245
 20
108.736
 30
0.0
 11
141.245
 21
111.835
 31
0.0
  0
LINE
  8
0
 62
     0
 10
141.245
 20
111.835
 30
0.0
 11
140.444
 21
111.835
 31
0.0
  0
LINE
  8
0
 62
     0
 10
140.444
 20
111.835
 30
0.0
 11
140.444
 21
117.635
 31
0.0
  0
LINE
  8
0
 62
     0
 10
140.444
 20
117.635
 30
0.0
 11
141.245
 21
117.635
 31
0.0
  0
LINE
  8
0
 62
     0
 10
141.245
 20
117.635
 30
0.0
 11
141.245
 21
120.735
 31
0.0
  0
LINE
  8
0
 62
     0
 10
141.245
 20
120.735
 30
0.0
 11
140.444
 21
120.735
 31
0.0
  0
LINE
  8
0
 62
     0
 10
140.444
 20
120.735
 30
0.0
 11
140.444
 21
121.734
 31
0.0
  0
LINE
  8
0
 62
     0
 10
140.444
 20
121.734
 30
0.0
 11
126.445
 21
121.734
 31
0.0
  0
LINE
  8
0
 62
     0
 10
107.395
 20
121.734
 30
0.0
 11
107.395
 21
120.735
 31
0.0
  0
LINE
  8
0
 62
     0
 10
107.395
 20
120.735
 30
0.0
 11
106.594
 21
120.735
 31
0.0
  0
LINE
  8
0
 62
     0
 10
106.594
 20
120.735
 30
0.0
 11
106.594
 21
117.635
 31
0.0
  0
LINE
  8
0
 62
     0
 10
106.594
 20
117.635
 30
0.0
 11
107.395
 21
117.635
 31
0.0
  0
LINE
  8
0
 62
     0
 10
107.395
 20
117.635
 30
0.0
 11
107.395
 21
111.835
 31
0.0
  0
LINE
  8
0
 62
     0
 10
107.395
 20
111.835
 30
0.0
 11
106.594
 21
111.835
 31
0.0
  0
LINE
  8
0
 62
     0
 10
106.594
 20
111.835
 30
0.0
 11
106.594
 21
108.736
 31
0.0
  0
LINE
  8
0
 62
     0
 10
106.594
 20
108.736
 30
0.0
 11
107.395
 21
108.736
 31
0.0
  0
LINE
  8
0
 62
     0
 10
107.395
 20
108.736
 30
0.0
 11
107.395
 21
107.735
 31
0.0
  0
LINE
  8
0
 62
     0
 10
107.395
 20
107.735
 30
0.0
 11
121.394
 21
107.735
 31
0.0
  0
LINE
  8
0
 62
     0
 10
121.394
 20
107.735
 30
0.0
 11
121.394
 21
108.736
 31
0.0
  0
LINE
  8
0
 62
     0
 10
121.394
 20
108.736
 30
0.0
 11
122.195
 21
108.736
 31
0.0
  0
LINE
  8
0
 62
     0
 10
122.195
 20
108.736
 30
0.0
 11
122.195
 21
111.835
 31
0.0
  0
LINE
  8
0
 62
     0
 10
122.195
 20
111.835
 30
0.0
 11
121.394
 21
111.835
 31
0.0
  0
LINE
  8
0
 62
     0
 10
121.394
 20
111.835
 30
0.0
 11
121.394
 21
117.635
 31
0.0
  0
LINE
  8
0
 62
     0
 10
121.394
 20
117.635
 30
0.0
 11
122.195
 21
117.635
 31
0.0
  0
LINE
  8
0
 62
     0
 10
122.195
 20
117.635
 30
0.0
 11
122.195
 21
120.735
 31
0.0
  0
LINE
  8
0
 62
     0
 10
122.195
 20
120.735
 30
0.0
 11
121.394
 21
120.735
 31
0.0
  0
LINE
  8
0
 62
     0
 10
121.394
 20
120.735
 30
0.0
 11
121.394
 21
121.734
 31
0.0
  0
LINE
  8
0
 62
     0
 10
121.394
 20
121.734
 30
0.0
 11
107.395
 21
121.734
 31
0.0
  0
LINE
  8
0
 62
     0
 10
88.3447
 20
121.734
 30
0.0
 11
88.3447
 21
120.735
 31
0.0
  0
LINE
  8
0
 62
     0
 10
88.3447
 20
120.735
 30
0.0
 11
87.5439
 21
120.735
 31
0.0
  0
LINE
  8
0
 62
     0
 10
87.5439
 20
120.735
 30
0.0
 11
87.5439
 21
117.635
 31
0.0
  0
LINE
  8
0
 62
     0
 10
87.5439
 20
117.635
 30
0.0
 11
88.3447
 21
117.635
 31
0.0
  0
LINE
  8
0
 62
     0
 10
88.3447
 20
117.635
 30
0.0
 11
88.3447
 21
111.835
 31
0.0
  0
LINE
  8
0
 62
     0
 10
88.3447
 20
111.835
 30
0.0
 11
87.5439
 21
111.835
 31
0.0
  0
LINE
  8
0
 62
     0
 10
87.5439
 20
111.835
 30
0.0
 11
87.5439
 21
108.736
 31
0.0
  0
LINE
  8
0
 62
     0
 10
87.5439
 20
108.736
 30
0.0
 11
88.3447
 21
108.736
 31
0.0
  0
LINE
  8
0
 62
     0
 10
88.3447
 20
108.736
 30
0.0
 11
88.3447
 21
107.735
 31
0.0
  0
LINE
  8
0
 62
     0
 10
88.3447
 20
107.735
 30
0.0
 11
102.344
 21
107.735
 31
0.0
  0
LINE
  8
0
 62
     0
 10
102.344
 20
107.735
 30
0.0
 11
102.344
 21
108.736
 31
0.0
  0
LINE
  8
0
 62
     0
 10
102.344
 20
108.736
 30
0.0
 11
103.145
 21
108.736
 31
0.0
  0
LINE
  8
0
 62
     0
 10
103.145
 20
108.736
 30
0.0
 11
103.145
 21
111.835
 31
0.0
  0
LINE
  8
0
 62
     0
 10
103.145
 20
111.835
 30
0.0
 11
102.344
 21
111.835
 31
0.0
  0
LINE
  8
0
 62
     0
 10
102.344
 20
111.835
 30
0.0
 11
102.344
 21
117.635
 31
0.0
  0
LINE
  8
0
 62
     0
 10
102.344
 20
117.635
 30
0.0
 11
103.145
 21
117.635
 31
0.0
  0
LINE
  8
0
 62
     0
 10
103.145
 20
117.635
 30
0.0
 11
103.145
 21
120.735
 31
0.0
  0
LINE
  8
0
 62
     0
 10
103.145
 20
120.735
 30
0.0
 11
102.344
 21
120.735
 31
0.0
  0
LINE
  8
0
 62
     0
 10
102.344
 20
120.735
 30
0.0
 11
102.344
 21
121.734
 31
0.0
  0
LINE
  8
0
 62
     0
 10
102.344
 20
121.734
 30
0.0
 11
88.3447
 21
121.734
 31
0.0
  0
LINE
  8
0
 62
     0
 10
59.7697
 20
121.734
 30
0.0
 11
59.7697
 21
120.735
 31
0.0
  0
LINE
  8
0
 62
     0
 10
59.7697
 20
120.735
 30
0.0
 11
58.9689
 21
120.735
 31
0.0
  0
LINE
  8
0
 62
     0
 10
58.9689
 20
120.735
 30
0.0
 11
58.9689
 21
117.635
 31
0.0
  0
LINE
  8
0
 62
     0
 10
58.9689
 20
117.635
 30
0.0
 11
59.7697
 21
117.635
 31
0.0
  0
LINE
  8
0
 62
     0
 10
59.7697
 20
117.635
 30
0.0
 11
59.7697
 21
111.835
 31
0.0
  0
LINE
  8
0
 62
     0
 10
59.7697
 20
111.835
 30
0.0
 11
58.9689
 21
111.835
 31
0.0
  0
LINE
  8
0
 62
     0
 10
58.9689
 20
111.835
 30
0.0
 11
58.9689
 21
108.736
 31
0.0
  0
LINE
  8
0
 62
     0
 10
58.9689
 20
108.736
 30
0.0
 11
59.7697
 21
108.736
 31
0.0
  0
LINE
  8
0
 62
     0
 10
59.7697
 20
108.736
 30
0.0
 11
59.7697
 21
107.735
 31
0.0
  0
LINE
  8
0
 62
     0
 10
59.7697
 20
107.735
 30
0.0
 11
73.769
 21
107.735
 31
0.0
  0
LINE
  8
0
 62
     0
 10
73.769
 20
107.735
 30
0.0
 11
73.769
 21
108.736
 31
0.0
  0
LINE
  8
0
 62
     0
 10
73.769
 20
108.736
 30
0.0
 11
74.5698
 21
108.736
 31
0.0
  0
LINE
  8
0
 62
     0
 10
74.5698
 20
108.736
 30
0.0
 11
74.5698
 21
111.835
 31
0.0
  0
LINE
  8
0
 62
     0
 10
74.5698
 20
111.835
 30
0.0
 11
73.769
 21
111.835
 31
0.0
  0
LINE
  8
0
 62
     0
 10
73.769
 20
111.835
 30
0.0
 11
73.769
 21
117.635
 31
0.0
  0
LINE
  8
0
 62
     0
 10
73.769
 20
117.635
 30
0.0
 11
74.5698
 21
117.635
 31
0.0
  0
LINE
  8
0
 62
     0
 10
74.5698
 20
117.635
 30
0.0
 11
74.5698
 21
120.735
 31
0.0
  0
LINE
  8
0
 62
     0
 10
74.5698
 20
120.735
 30
0.0
 11
73.769
 21
120.735
 31
0.0
  0
LINE
  8
0
 62
     0
 10
73.769
 20
120.735
 30
0.0
 11
73.769
 21
121.734
 31
0.0
  0
LINE
  8
0
 62
     0
 10
73.769
 20
121.734
 30
0.0
 11
59.7697
 21
121.734
 31
0.0
  0
LINE
  8
0
 62
     0
 10
40.7197
 20
121.734
 30
0.0
 11
40.7197
 21
120.735
 31
0.0
  0
LINE
  8
0
 62
     0
 10
40.7197
 20
120.735
 30
0.0
 11
39.9189
 21
120.735
 31
0.0
  0
LINE
  8
0
 62
     0
 10
39.9189
 20
120.735
 30
0.0
 11
39.9189
 21
117.635
 31
0.0
  0
LINE
  8
0
 62
     0
 10
39.9189
 20
117.635
 30
0.0
 11
40.7197
 21
117.635
 31
0.0
  0
LINE
  8
0
 62
     0
 10
40.7197
 20
117.635
 30
0.0
 11
40.7197
 21
111.835
 31
0.0
  0
LINE
  8
0
 62
     0
 10
40.7197
 20
111.835
 30
0.0
 11
39.9189
 21
111.835
 31
0.0
  0
LINE
  8
0
 62
     0
 10
39.9189
 20
111.835
 30
0.0
 11
39.9189
 21
108.736
 31
0.0
  0
LINE
  8
0
 62
     0
 10
39.9189
 20
108.736
 30
0.0
 11
40.7197
 21
108.736
 31
0.0
  0
LINE
  8
0
 62
     0
 10
40.7197
 20
108.736
 30
0.0
 11
40.7197
 21
107.735
 31
0.0
  0
LINE
  8
0
 62
     0
 10
40.7197
 20
107.735
 30
0.0
 11
54.719
 21
107.735
 31
0.0
  0
LINE
  8
0
 62
     0
 10
54.719
 20
107.735
 30
0.0
 11
54.719
 21
108.736
 31
0.0
  0
LINE
  8
0
 62
     0
 10
54.719
 20
108.736
 30
0.0
 11
55.5198
 21
108.736
 31
0.0
  0
LINE
  8
0
 62
     0
 10
55.5198
 20
108.736
 30
0.0
 11
55.5198
 21
111.835
 31
0.0
  0
LINE
  8
0
 62
     0
 10
55.5198
 20
111.835
 30
0.0
 11
54.719
 21
111.835
 31
0.0
  0
LINE
  8
0
 62
     0
 10
54.719
 20
111.835
 30
0.0
 11
54.719
 21
117.635
 31
0.0
  0
LINE
  8
0
 62
     0
 10
54.719
 20
117.635
 30
0.0
 11
55.5198
 21
117.635
 31
0.0
  0
LINE
  8
0
 62
     0
 10
55.5198
 20
117.635
 30
0.0
 11
55.5198
 21
120.735
 31
0.0
  0
LINE
  8
0
 62
     0
 10
55.5198
 20
120.735
 30
0.0
 11
54.719
 21
120.735
 31
0.0
  0
LINE
  8
0
 62
     0
 10
54.719
 20
120.735
 30
0.0
 11
54.719
 21
121.734
 31
0.0
  0
LINE
  8
0
 62
     0
 10
54.719
 20
121.734
 30
0.0
 11
40.7197
 21
121.734
 31
0.0
  0
LINE
  8
0
 62
     0
 10
21.6697
 20
121.734
 30
0.0
 11
21.6697
 21
120.735
 31
0.0
  0
LINE
  8
0
 62
     0
 10
21.6697
 20
120.735
 30
0.0
 11
20.869
 21
120.735
 31
0.0
  0
LINE
  8
0
 62
     0
 10
20.869
 20
120.735
 30
0.0
 11
20.869
 21
117.635
 31
0.0
  0
LINE
  8
0
 62
     0
 10
20.869
 20
117.635
 30
0.0
 11
21.6697
 21
117.635
 31
0.0
  0
LINE
  8
0
 62
     0
 10
21.6697
 20
117.635
 30
0.0
 11
21.6697
 21
111.835
 31
0.0
  0
LINE
  8
0
 62
     0
 10
21.6697
 20
111.835
 30
0.0
 11
20.869
 21
111.835
 31
0.0
  0
LINE
  8
0
 62
     0
 10
20.869
 20
111.835
 30
0.0
 11
20.869
 21
108.736
 31
0.0
  0
LINE
  8
0
 62
     0
 10
20.869
 20
108.736
 30
0.0
 11
21.6697
 21
108.736
 31
0.0
  0
LINE
  8
0
 62
     0
 10
21.6697
 20
108.736
 30
0.0
 11
21.6697
 21
107.735
 31
0.0
  0
LINE
  8
0
 62
     0
 10
21.6697
 20
107.735
 30
0.0
 11
35.669
 21
107.735
 31
0.0
  0
LINE
  8
0
 62
     0
 10
35.669
 20
107.735
 30
0.0
 11
35.669
 21
108.736
 31
0.0
  0
LINE
  8
0
 62
     0
 10
35.669
 20
108.736
 30
0.0
 11
36.4698
 21
108.736
 31
0.0
  0
LINE
  8
0
 62
     0
 10
36.4698
 20
108.736
 30
0.0
 11
36.4698
 21
111.835
 31
0.0
  0
LINE
  8
0
 62
     0
 10
36.4698
 20
111.835
 30
0.0
 11
35.669
 21
111.835
 31
0.0
  0
LINE
  8
0
 62
     0
 10
35.669
 20
111.835
 30
0.0
 11
35.669
 21
117.635
 31
0.0
  0
LINE
  8
0
 62
     0
 10
35.669
 20
117.635
 30
0.0
 11
36.4698
 21
117.635
 31
0.0
  0
LINE
  8
0
 62
     0
 10
36.4698
 20
117.635
 30
0.0
 11
36.4698
 21
120.735
 31
0.0
  0
LINE
  8
0
 62
     0
 10
36.4698
 20
120.735
 30
0.0
 11
35.669
 21
120.735
 31
0.0
  0
LINE
  8
0
 62
     0
 10
35.669
 20
120.735
 30
0.0
 11
35.669
 21
121.734
 31
0.0
  0
LINE
  8
0
 62
     0
 10
35.669
 20
121.734
 30
0.0
 11
21.6697
 21
121.734
 31
0.0
  0
LINE
  8
0
 62
     0
 10
2.61965
 20
121.734
 30
0.0
 11
2.61965
 21
120.735
 31
0.0
  0
LINE
  8
0
 62
     0
 10
2.61965
 20
120.735
 30
0.0
 11
1.81901
 21
120.735
 31
0.0
  0
LINE
  8
0
 62
     0
 10
1.81901
 20
120.735
 30
0.0
 11
1.81901
 21
117.635
 31
0.0
  0
LINE
  8
0
 62
     0
 10
1.81901
 20
117.635
 30
0.0
 11
2.61965
 21
117.635
 31
0.0
  0
LINE
  8
0
 62
     0
 10
2.61965
 20
117.635
 30
0.0
 11
2.61965
 21
111.835
 31
0.0
  0
LINE
  8
0
 62
     0
 10
2.61965
 20
111.835
 30
0.0
 11
1.81901
 21
111.835
 31
0.0
  0
LINE
  8
0
 62
     0
 10
1.81901
 20
111.835
 30
0.0
 11
1.81901
 21
108.736
 31
0.0
  0
LINE
  8
0
 62
     0
 10
1.81901
 20
108.736
 30
0.0
 11
2.61965
 21
108.736
 31
0.0
  0
LINE
  8
0
 62
     0
 10
2.61965
 20
108.736
 30
0.0
 11
2.61965
 21
107.735
 31
0.0
  0
LINE
  8
0
 62
     0
 10
2.61965
 20
107.735
 30
0.0
 11
16.6192
 21
107.735
 31
0.0
  0
LINE
  8
0
 62
     0
 10
16.6192
 20
107.735
 30
0.0
 11
16.6192
 21
108.736
 31
0.0
  0
LINE
  8
0
 62
     0
 10
16.6192
 20
108.736
 30
0.0
 11
17.4198
 21
108.736
 31
0.0
  0
LINE
  8
0
 62
     0
 10
17.4198
 20
108.736
 30
0.0
 11
17.4198
 21
111.835
 31
0.0
  0
LINE
  8
0
 62
     0
 10
17.4198
 20
111.835
 30
0.0
 11
16.6192
 21
111.835
 31
0.0
  0
LINE
  8
0
 62
     0
 10
16.6192
 20
111.835
 30
0.0
 11
16.6192
 21
117.635
 31
0.0
  0
LINE
  8
0
 62
     0
 10
16.6192
 20
117.635
 30
0.0
 11
17.4198
 21
117.635
 31
0.0
  0
LINE
  8
0
 62
     0
 10
17.4198
 20
117.635
 30
0.0
 11
17.4198
 21
120.735
 31
0.0
  0
LINE
  8
0
 62
     0
 10
17.4198
 20
120.735
 30
0.0
 11
16.6192
 21
120.735
 31
0.0
  0
LINE
  8
0
 62
     0
 10
16.6192
 20
120.735
 30
0.0
 11
16.6192
 21
121.734
 31
0.0
  0
LINE
  8
0
 62
     0
 10
16.6192
 20
121.734
 30
0.0
 11
2.61965
 21
121.734
 31
0.0
  0
ENDSEC
  0
EOF
