M48
; DRILL file {KiCad (5.1.5)-3} date 2020/06/17 21:34:28
; FORMAT={-:-/ absolute / metric / decimal}
; #@! TF.CreationDate,2020-06-17T21:34:28+09:00
; #@! TF.GenerationSoftware,Kicad,Pcbnew,(5.1.5)-3
; #@! TF.FileFunction,NonPlated,1,2,NPTH
FMAT,2
METRIC
T1C1.200
T2C1.900
T3C3.048
T4C3.988
T5C4.000
%
G90
G05
T1
X230.461Y-77.258
X237.461Y-77.258
X217.145Y-77.263
X224.145Y-77.263
T2
X298.968Y-129.384
X309.968Y-129.384
X337.068Y-129.384
X348.068Y-129.384
X318.018Y-129.384
X329.018Y-129.384
X308.493Y-148.434
X319.493Y-148.434
X256.105Y-62.709
X267.105Y-62.709
X356.118Y-167.484
X367.118Y-167.484
X237.055Y-62.709
X248.055Y-62.709
X275.155Y-62.709
X286.155Y-62.709
X187.469Y-91.294
X198.469Y-91.294
X68.406Y-129.394
X79.406Y-129.394
X332.305Y-110.334
X343.305Y-110.334
X201.756Y-129.394
X212.756Y-129.394
X284.68Y-91.284
X295.68Y-91.284
X279.918Y-129.384
X290.918Y-129.384
X289.443Y-148.434
X300.443Y-148.434
X206.519Y-148.444
X217.519Y-148.444
X327.543Y-148.434
X338.543Y-148.434
X341.83Y-62.709
X352.83Y-62.709
X118.413Y-167.494
X129.413Y-167.494
X120.794Y-62.719
X131.794Y-62.719
X99.363Y-129.394
X110.363Y-129.394
X313.255Y-110.334
X324.255Y-110.334
X68.406Y-148.444
X79.406Y-148.444
X294.205Y-110.334
X305.205Y-110.334
X403.743Y-167.484
X414.743Y-167.484
X372.786Y-148.434
X383.786Y-148.434
X251.343Y-148.434
X262.343Y-148.434
X163.656Y-167.494
X174.656Y-167.494
X322.78Y-62.709
X333.78Y-62.709
X204.138Y-167.494
X215.138Y-167.494
X149.369Y-91.294
X160.369Y-91.294
X322.78Y-91.284
X333.78Y-91.284
X125.556Y-129.394
X136.556Y-129.394
X246.58Y-91.284
X257.58Y-91.284
X68.406Y-110.344
X79.406Y-110.344
X237.055Y-110.334
X248.055Y-110.334
X377.549Y-167.484
X388.549Y-167.484
X377.549Y-119.859
X388.549Y-119.859
X68.406Y-167.494
X79.406Y-167.494
X139.844Y-62.719
X150.844Y-62.719
X94.6Y-167.494
X105.6Y-167.494
X130.319Y-91.294
X141.319Y-91.294
X158.894Y-62.719
X169.894Y-62.719
X96.981Y-110.344
X107.981Y-110.344
X351.355Y-110.334
X362.355Y-110.334
X139.844Y-110.344
X150.844Y-110.344
X360.88Y-62.709
X371.88Y-62.709
X163.656Y-129.394
X174.656Y-129.394
X275.155Y-110.334
X286.155Y-110.334
X318.018Y-167.484
X329.018Y-167.484
X270.393Y-148.434
X281.393Y-148.434
X241.818Y-129.384
X252.818Y-129.384
X168.419Y-148.444
X179.419Y-148.444
X182.706Y-167.494
X193.706Y-167.494
X111.269Y-91.294
X122.269Y-91.294
X144.606Y-129.394
X155.606Y-129.394
X403.743Y-91.284
X414.743Y-91.284
X130.319Y-148.444
X141.319Y-148.444
X360.88Y-91.284
X371.88Y-91.284
X177.944Y-110.344
X188.944Y-110.344
X256.105Y-110.334
X267.105Y-110.334
X279.918Y-167.484
X290.918Y-167.484
X403.743Y-110.334
X414.743Y-110.334
X337.068Y-167.484
X348.068Y-167.484
X403.743Y-129.384
X414.743Y-129.384
X298.968Y-167.484
X309.968Y-167.484
X149.369Y-148.444
X160.369Y-148.444
X403.743Y-148.434
X414.743Y-148.434
X294.205Y-62.709
X305.205Y-62.709
X92.219Y-62.719
X103.219Y-62.719
X206.519Y-62.719
X217.519Y-62.719
X177.944Y-62.719
X188.944Y-62.719
X168.419Y-91.294
X179.419Y-91.294
X158.894Y-110.344
X169.894Y-110.344
X379.93Y-91.284
X390.93Y-91.284
X182.706Y-129.394
X193.706Y-129.394
X341.83Y-91.284
X352.83Y-91.284
X120.794Y-110.344
X131.794Y-110.344
X303.73Y-91.284
X314.73Y-91.284
X356.118Y-129.384
X367.118Y-129.384
X260.868Y-129.384
X271.868Y-129.384
X346.593Y-148.434
X357.593Y-148.434
X258.486Y-167.484
X269.486Y-167.484
X187.469Y-148.444
X198.469Y-148.444
X142.225Y-167.494
X153.225Y-167.494
X68.406Y-91.294
X79.406Y-91.294
X92.219Y-91.294
X103.219Y-91.294
X206.519Y-91.294
X217.519Y-91.294
X265.63Y-91.284
X276.63Y-91.284
X101.744Y-148.444
X112.744Y-148.444
X379.93Y-62.709
X390.93Y-62.709
X196.994Y-110.344
X207.994Y-110.344
T3
X376.053Y-107.963
X376.053Y-131.763
X95.338Y-141.428
X119.138Y-141.428
T4
X391.293Y-107.963
X391.293Y-131.763
X95.338Y-156.668
X119.138Y-156.668
T5
X145.344Y-110.344
X366.38Y-62.709
X169.156Y-129.394
X280.655Y-110.334
X323.518Y-167.484
X275.893Y-148.434
X247.318Y-129.384
X173.919Y-148.444
X188.206Y-167.494
X116.769Y-91.294
X150.106Y-129.394
X409.243Y-91.284
X135.819Y-148.444
X366.38Y-91.284
X183.444Y-110.344
X261.605Y-110.334
X285.418Y-167.484
X409.243Y-110.334
X342.568Y-167.484
X409.243Y-129.384
X304.468Y-167.484
X154.869Y-148.444
X409.243Y-148.434
X299.705Y-62.709
X97.719Y-62.719
X212.019Y-62.719
X183.444Y-62.719
X173.919Y-91.294
X164.394Y-110.344
X385.43Y-91.284
X188.206Y-129.394
X347.33Y-91.284
X126.294Y-110.344
X309.23Y-91.284
X361.618Y-129.384
X266.368Y-129.384
X352.093Y-148.434
X263.986Y-167.484
X192.969Y-148.444
X147.725Y-167.494
X73.906Y-91.294
X97.719Y-91.294
X212.019Y-91.294
X271.13Y-91.284
X107.244Y-148.444
X385.43Y-62.709
X202.494Y-110.344
X304.468Y-129.384
X342.568Y-129.384
X323.518Y-129.384
X313.993Y-148.434
X261.605Y-62.709
X361.618Y-167.484
X242.555Y-62.709
X280.655Y-62.709
X192.969Y-91.294
X73.906Y-129.394
X337.805Y-110.334
X207.256Y-129.394
X290.18Y-91.284
X285.418Y-129.384
X294.943Y-148.434
X212.019Y-148.444
X333.043Y-148.434
X347.33Y-62.709
X123.913Y-167.494
X126.294Y-62.719
X104.863Y-129.394
X318.755Y-110.334
X73.906Y-148.444
X299.705Y-110.334
X409.243Y-167.484
X378.286Y-148.434
X256.843Y-148.434
X169.156Y-167.494
X328.28Y-62.709
X209.638Y-167.494
X154.869Y-91.294
X328.28Y-91.284
X131.056Y-129.394
X252.08Y-91.284
X73.906Y-110.344
X242.555Y-110.334
X383.049Y-167.484
X383.049Y-119.859
X73.906Y-167.494
X145.344Y-62.719
X100.1Y-167.494
X135.819Y-91.294
X164.394Y-62.719
X102.481Y-110.344
X356.855Y-110.334
T0
M30
