G04 #@! TF.GenerationSoftware,KiCad,Pcbnew,(5.1.5)-3*
G04 #@! TF.CreationDate,2020-06-17T21:34:19+09:00*
G04 #@! TF.ProjectId,ProtoKeyboard,50726f74-6f4b-4657-9962-6f6172642e6b,rev?*
G04 #@! TF.SameCoordinates,Original*
G04 #@! TF.FileFunction,Legend,Bot*
G04 #@! TF.FilePolarity,Positive*
%FSLAX46Y46*%
G04 Gerber Fmt 4.6, Leading zero omitted, Abs format (unit mm)*
G04 Created by KiCad (PCBNEW (5.1.5)-3) date 2020-06-17 21:34:19*
%MOMM*%
%LPD*%
G04 APERTURE LIST*
%ADD10C,0.300000*%
%ADD11C,0.150000*%
%ADD12C,0.120000*%
%ADD13C,0.125000*%
G04 APERTURE END LIST*
D10*
X414513228Y-179722101D02*
X414513228Y-178222101D01*
X413941800Y-178222101D01*
X413798942Y-178293530D01*
X413727514Y-178364958D01*
X413656085Y-178507815D01*
X413656085Y-178722101D01*
X413727514Y-178864958D01*
X413798942Y-178936387D01*
X413941800Y-179007815D01*
X414513228Y-179007815D01*
X413013228Y-179722101D02*
X413013228Y-178722101D01*
X413013228Y-179007815D02*
X412941800Y-178864958D01*
X412870371Y-178793530D01*
X412727514Y-178722101D01*
X412584657Y-178722101D01*
X411870371Y-179722101D02*
X412013228Y-179650672D01*
X412084657Y-179579244D01*
X412156085Y-179436387D01*
X412156085Y-179007815D01*
X412084657Y-178864958D01*
X412013228Y-178793530D01*
X411870371Y-178722101D01*
X411656085Y-178722101D01*
X411513228Y-178793530D01*
X411441800Y-178864958D01*
X411370371Y-179007815D01*
X411370371Y-179436387D01*
X411441800Y-179579244D01*
X411513228Y-179650672D01*
X411656085Y-179722101D01*
X411870371Y-179722101D01*
X410941800Y-178722101D02*
X410370371Y-178722101D01*
X410727514Y-178222101D02*
X410727514Y-179507815D01*
X410656085Y-179650672D01*
X410513228Y-179722101D01*
X410370371Y-179722101D01*
X409656085Y-179722101D02*
X409798942Y-179650672D01*
X409870371Y-179579244D01*
X409941800Y-179436387D01*
X409941800Y-179007815D01*
X409870371Y-178864958D01*
X409798942Y-178793530D01*
X409656085Y-178722101D01*
X409441800Y-178722101D01*
X409298942Y-178793530D01*
X409227514Y-178864958D01*
X409156085Y-179007815D01*
X409156085Y-179436387D01*
X409227514Y-179579244D01*
X409298942Y-179650672D01*
X409441800Y-179722101D01*
X409656085Y-179722101D01*
X408513228Y-179722101D02*
X408513228Y-178222101D01*
X407656085Y-179722101D02*
X408298942Y-178864958D01*
X407656085Y-178222101D02*
X408513228Y-179079244D01*
X406441800Y-179650672D02*
X406584657Y-179722101D01*
X406870371Y-179722101D01*
X407013228Y-179650672D01*
X407084657Y-179507815D01*
X407084657Y-178936387D01*
X407013228Y-178793530D01*
X406870371Y-178722101D01*
X406584657Y-178722101D01*
X406441800Y-178793530D01*
X406370371Y-178936387D01*
X406370371Y-179079244D01*
X407084657Y-179222101D01*
X405870371Y-178722101D02*
X405513228Y-179722101D01*
X405156085Y-178722101D02*
X405513228Y-179722101D01*
X405656085Y-180079244D01*
X405727514Y-180150672D01*
X405870371Y-180222101D01*
X404584657Y-179722101D02*
X404584657Y-178222101D01*
X404584657Y-178793530D02*
X404441800Y-178722101D01*
X404156085Y-178722101D01*
X404013228Y-178793530D01*
X403941800Y-178864958D01*
X403870371Y-179007815D01*
X403870371Y-179436387D01*
X403941800Y-179579244D01*
X404013228Y-179650672D01*
X404156085Y-179722101D01*
X404441800Y-179722101D01*
X404584657Y-179650672D01*
X403013228Y-179722101D02*
X403156085Y-179650672D01*
X403227514Y-179579244D01*
X403298942Y-179436387D01*
X403298942Y-179007815D01*
X403227514Y-178864958D01*
X403156085Y-178793530D01*
X403013228Y-178722101D01*
X402798942Y-178722101D01*
X402656085Y-178793530D01*
X402584657Y-178864958D01*
X402513228Y-179007815D01*
X402513228Y-179436387D01*
X402584657Y-179579244D01*
X402656085Y-179650672D01*
X402798942Y-179722101D01*
X403013228Y-179722101D01*
X401227514Y-179722101D02*
X401227514Y-178936387D01*
X401298942Y-178793530D01*
X401441800Y-178722101D01*
X401727514Y-178722101D01*
X401870371Y-178793530D01*
X401227514Y-179650672D02*
X401370371Y-179722101D01*
X401727514Y-179722101D01*
X401870371Y-179650672D01*
X401941800Y-179507815D01*
X401941800Y-179364958D01*
X401870371Y-179222101D01*
X401727514Y-179150672D01*
X401370371Y-179150672D01*
X401227514Y-179079244D01*
X400513228Y-179722101D02*
X400513228Y-178722101D01*
X400513228Y-179007815D02*
X400441800Y-178864958D01*
X400370371Y-178793530D01*
X400227514Y-178722101D01*
X400084657Y-178722101D01*
X398941800Y-179722101D02*
X398941800Y-178222101D01*
X398941800Y-179650672D02*
X399084657Y-179722101D01*
X399370371Y-179722101D01*
X399513228Y-179650672D01*
X399584657Y-179579244D01*
X399656085Y-179436387D01*
X399656085Y-179007815D01*
X399584657Y-178864958D01*
X399513228Y-178793530D01*
X399370371Y-178722101D01*
X399084657Y-178722101D01*
X398941800Y-178793530D01*
X397227514Y-178722101D02*
X396870371Y-179722101D01*
X396513228Y-178722101D01*
X395370371Y-179650672D02*
X395513228Y-179722101D01*
X395798942Y-179722101D01*
X395941800Y-179650672D01*
X396013228Y-179507815D01*
X396013228Y-178936387D01*
X395941800Y-178793530D01*
X395798942Y-178722101D01*
X395513228Y-178722101D01*
X395370371Y-178793530D01*
X395298942Y-178936387D01*
X395298942Y-179079244D01*
X396013228Y-179222101D01*
X394656085Y-179722101D02*
X394656085Y-178722101D01*
X394656085Y-179007815D02*
X394584657Y-178864958D01*
X394513228Y-178793530D01*
X394370371Y-178722101D01*
X394227514Y-178722101D01*
X392941800Y-179722101D02*
X393798942Y-179722101D01*
X393370371Y-179722101D02*
X393370371Y-178222101D01*
X393513228Y-178436387D01*
X393656085Y-178579244D01*
X393798942Y-178650672D01*
X392298942Y-179579244D02*
X392227514Y-179650672D01*
X392298942Y-179722101D01*
X392370371Y-179650672D01*
X392298942Y-179579244D01*
X392298942Y-179722101D01*
X390798942Y-179722101D02*
X391656085Y-179722101D01*
X391227514Y-179722101D02*
X391227514Y-178222101D01*
X391370371Y-178436387D01*
X391513228Y-178579244D01*
X391656085Y-178650672D01*
X226444008Y-179678921D02*
X226444008Y-178178921D01*
X225872580Y-178178921D01*
X225729722Y-178250350D01*
X225658294Y-178321778D01*
X225586865Y-178464635D01*
X225586865Y-178678921D01*
X225658294Y-178821778D01*
X225729722Y-178893207D01*
X225872580Y-178964635D01*
X226444008Y-178964635D01*
X224944008Y-179678921D02*
X224944008Y-178678921D01*
X224944008Y-178964635D02*
X224872580Y-178821778D01*
X224801151Y-178750350D01*
X224658294Y-178678921D01*
X224515437Y-178678921D01*
X223801151Y-179678921D02*
X223944008Y-179607492D01*
X224015437Y-179536064D01*
X224086865Y-179393207D01*
X224086865Y-178964635D01*
X224015437Y-178821778D01*
X223944008Y-178750350D01*
X223801151Y-178678921D01*
X223586865Y-178678921D01*
X223444008Y-178750350D01*
X223372580Y-178821778D01*
X223301151Y-178964635D01*
X223301151Y-179393207D01*
X223372580Y-179536064D01*
X223444008Y-179607492D01*
X223586865Y-179678921D01*
X223801151Y-179678921D01*
X222872580Y-178678921D02*
X222301151Y-178678921D01*
X222658294Y-178178921D02*
X222658294Y-179464635D01*
X222586865Y-179607492D01*
X222444008Y-179678921D01*
X222301151Y-179678921D01*
X221586865Y-179678921D02*
X221729722Y-179607492D01*
X221801151Y-179536064D01*
X221872580Y-179393207D01*
X221872580Y-178964635D01*
X221801151Y-178821778D01*
X221729722Y-178750350D01*
X221586865Y-178678921D01*
X221372580Y-178678921D01*
X221229722Y-178750350D01*
X221158294Y-178821778D01*
X221086865Y-178964635D01*
X221086865Y-179393207D01*
X221158294Y-179536064D01*
X221229722Y-179607492D01*
X221372580Y-179678921D01*
X221586865Y-179678921D01*
X220444008Y-179678921D02*
X220444008Y-178178921D01*
X219586865Y-179678921D02*
X220229722Y-178821778D01*
X219586865Y-178178921D02*
X220444008Y-179036064D01*
X218372580Y-179607492D02*
X218515437Y-179678921D01*
X218801151Y-179678921D01*
X218944008Y-179607492D01*
X219015437Y-179464635D01*
X219015437Y-178893207D01*
X218944008Y-178750350D01*
X218801151Y-178678921D01*
X218515437Y-178678921D01*
X218372580Y-178750350D01*
X218301151Y-178893207D01*
X218301151Y-179036064D01*
X219015437Y-179178921D01*
X217801151Y-178678921D02*
X217444008Y-179678921D01*
X217086865Y-178678921D02*
X217444008Y-179678921D01*
X217586865Y-180036064D01*
X217658294Y-180107492D01*
X217801151Y-180178921D01*
X216515437Y-179678921D02*
X216515437Y-178178921D01*
X216515437Y-178750350D02*
X216372580Y-178678921D01*
X216086865Y-178678921D01*
X215944008Y-178750350D01*
X215872580Y-178821778D01*
X215801151Y-178964635D01*
X215801151Y-179393207D01*
X215872580Y-179536064D01*
X215944008Y-179607492D01*
X216086865Y-179678921D01*
X216372580Y-179678921D01*
X216515437Y-179607492D01*
X214944008Y-179678921D02*
X215086865Y-179607492D01*
X215158294Y-179536064D01*
X215229722Y-179393207D01*
X215229722Y-178964635D01*
X215158294Y-178821778D01*
X215086865Y-178750350D01*
X214944008Y-178678921D01*
X214729722Y-178678921D01*
X214586865Y-178750350D01*
X214515437Y-178821778D01*
X214444008Y-178964635D01*
X214444008Y-179393207D01*
X214515437Y-179536064D01*
X214586865Y-179607492D01*
X214729722Y-179678921D01*
X214944008Y-179678921D01*
X213158294Y-179678921D02*
X213158294Y-178893207D01*
X213229722Y-178750350D01*
X213372580Y-178678921D01*
X213658294Y-178678921D01*
X213801151Y-178750350D01*
X213158294Y-179607492D02*
X213301151Y-179678921D01*
X213658294Y-179678921D01*
X213801151Y-179607492D01*
X213872580Y-179464635D01*
X213872580Y-179321778D01*
X213801151Y-179178921D01*
X213658294Y-179107492D01*
X213301151Y-179107492D01*
X213158294Y-179036064D01*
X212444008Y-179678921D02*
X212444008Y-178678921D01*
X212444008Y-178964635D02*
X212372580Y-178821778D01*
X212301151Y-178750350D01*
X212158294Y-178678921D01*
X212015437Y-178678921D01*
X210872580Y-179678921D02*
X210872580Y-178178921D01*
X210872580Y-179607492D02*
X211015437Y-179678921D01*
X211301151Y-179678921D01*
X211444008Y-179607492D01*
X211515437Y-179536064D01*
X211586865Y-179393207D01*
X211586865Y-178964635D01*
X211515437Y-178821778D01*
X211444008Y-178750350D01*
X211301151Y-178678921D01*
X211015437Y-178678921D01*
X210872580Y-178750350D01*
X209158294Y-178678921D02*
X208801151Y-179678921D01*
X208444008Y-178678921D01*
X207301151Y-179607492D02*
X207444008Y-179678921D01*
X207729722Y-179678921D01*
X207872580Y-179607492D01*
X207944008Y-179464635D01*
X207944008Y-178893207D01*
X207872580Y-178750350D01*
X207729722Y-178678921D01*
X207444008Y-178678921D01*
X207301151Y-178750350D01*
X207229722Y-178893207D01*
X207229722Y-179036064D01*
X207944008Y-179178921D01*
X206586865Y-179678921D02*
X206586865Y-178678921D01*
X206586865Y-178964635D02*
X206515437Y-178821778D01*
X206444008Y-178750350D01*
X206301151Y-178678921D01*
X206158294Y-178678921D01*
X204872580Y-179678921D02*
X205729722Y-179678921D01*
X205301151Y-179678921D02*
X205301151Y-178178921D01*
X205444008Y-178393207D01*
X205586865Y-178536064D01*
X205729722Y-178607492D01*
X204229722Y-179536064D02*
X204158294Y-179607492D01*
X204229722Y-179678921D01*
X204301151Y-179607492D01*
X204229722Y-179536064D01*
X204229722Y-179678921D01*
X202729722Y-179678921D02*
X203586865Y-179678921D01*
X203158294Y-179678921D02*
X203158294Y-178178921D01*
X203301151Y-178393207D01*
X203444008Y-178536064D01*
X203586865Y-178607492D01*
D11*
X404045200Y-47502970D02*
X403745200Y-47502970D01*
X404145200Y-47352970D02*
X403645200Y-47352970D01*
X404245200Y-47202970D02*
X403545200Y-47202970D01*
X403895200Y-47702970D02*
X404395200Y-47052970D01*
X403395200Y-47052970D02*
X403895200Y-47702970D01*
X404395200Y-47052970D02*
X403395200Y-47052970D01*
X400145200Y-46702970D02*
X407645200Y-46702970D01*
X400145200Y-48002970D02*
X400145200Y-46702970D01*
X407645200Y-48002970D02*
X400145200Y-48002970D01*
X407645200Y-46702970D02*
X407645200Y-48002970D01*
X412795200Y-49602970D02*
X412795200Y-50602970D01*
X394995200Y-49602970D02*
X394995200Y-50602970D01*
X412795200Y-49602970D02*
X411795200Y-49602970D01*
X394995200Y-49602970D02*
X395945200Y-49602970D01*
X412795200Y-81602970D02*
X412795200Y-82652970D01*
X394995200Y-81652970D02*
X394995200Y-82652970D01*
X412795200Y-82652970D02*
X411795200Y-82652970D01*
X394995200Y-82652970D02*
X396005200Y-82652970D01*
X70365200Y-82572970D02*
X71375200Y-82572970D01*
X88165200Y-82572970D02*
X87165200Y-82572970D01*
X70365200Y-81572970D02*
X70365200Y-82572970D01*
X88165200Y-81522970D02*
X88165200Y-82572970D01*
X70365200Y-49522970D02*
X71315200Y-49522970D01*
X88165200Y-49522970D02*
X87165200Y-49522970D01*
X70365200Y-49522970D02*
X70365200Y-50522970D01*
X88165200Y-49522970D02*
X88165200Y-50522970D01*
X83015200Y-46622970D02*
X83015200Y-47922970D01*
X83015200Y-47922970D02*
X75515200Y-47922970D01*
X75515200Y-47922970D02*
X75515200Y-46622970D01*
X75515200Y-46622970D02*
X83015200Y-46622970D01*
X79765200Y-46972970D02*
X78765200Y-46972970D01*
X78765200Y-46972970D02*
X79265200Y-47622970D01*
X79265200Y-47622970D02*
X79765200Y-46972970D01*
X79615200Y-47122970D02*
X78915200Y-47122970D01*
X79515200Y-47272970D02*
X79015200Y-47272970D01*
X79415200Y-47422970D02*
X79115200Y-47422970D01*
X213645200Y-80262970D02*
X225645200Y-80262970D01*
X213645200Y-74262970D02*
X213645200Y-80262970D01*
X225645200Y-74262970D02*
X213645200Y-74262970D01*
X225645200Y-80262970D02*
X225645200Y-74262970D01*
X228960880Y-74258110D02*
X228960880Y-80258110D01*
X228960880Y-80258110D02*
X240960880Y-80258110D01*
X240960880Y-80258110D02*
X240960880Y-74258110D01*
X240960880Y-74258110D02*
X228960880Y-74258110D01*
D12*
X218825961Y-82322330D02*
X219151519Y-82322330D01*
X218825961Y-81302330D02*
X219151519Y-81302330D01*
X210806960Y-77103051D02*
X210806960Y-77428609D01*
X209786960Y-77103051D02*
X209786960Y-77428609D01*
X406391628Y-49292255D02*
X406391628Y-48542255D01*
X406141628Y-49077970D01*
X405891628Y-48542255D01*
X405891628Y-49292255D01*
X405534485Y-49292255D02*
X405534485Y-48792255D01*
X405534485Y-48542255D02*
X405570200Y-48577970D01*
X405534485Y-48613684D01*
X405498771Y-48577970D01*
X405534485Y-48542255D01*
X405534485Y-48613684D01*
X404855914Y-49256541D02*
X404927342Y-49292255D01*
X405070200Y-49292255D01*
X405141628Y-49256541D01*
X405177342Y-49220827D01*
X405213057Y-49149398D01*
X405213057Y-48935112D01*
X405177342Y-48863684D01*
X405141628Y-48827970D01*
X405070200Y-48792255D01*
X404927342Y-48792255D01*
X404855914Y-48827970D01*
X404534485Y-49292255D02*
X404534485Y-48792255D01*
X404534485Y-48935112D02*
X404498771Y-48863684D01*
X404463057Y-48827970D01*
X404391628Y-48792255D01*
X404320200Y-48792255D01*
X403963057Y-49292255D02*
X404034485Y-49256541D01*
X404070200Y-49220827D01*
X404105914Y-49149398D01*
X404105914Y-48935112D01*
X404070200Y-48863684D01*
X404034485Y-48827970D01*
X403963057Y-48792255D01*
X403855914Y-48792255D01*
X403784485Y-48827970D01*
X403748771Y-48863684D01*
X403713057Y-48935112D01*
X403713057Y-49149398D01*
X403748771Y-49220827D01*
X403784485Y-49256541D01*
X403855914Y-49292255D01*
X403963057Y-49292255D01*
X403391628Y-48542255D02*
X403391628Y-49149398D01*
X403355914Y-49220827D01*
X403320200Y-49256541D01*
X403248771Y-49292255D01*
X403105914Y-49292255D01*
X403034485Y-49256541D01*
X402998771Y-49220827D01*
X402963057Y-49149398D01*
X402963057Y-48542255D01*
X402641628Y-49256541D02*
X402534485Y-49292255D01*
X402355914Y-49292255D01*
X402284485Y-49256541D01*
X402248771Y-49220827D01*
X402213057Y-49149398D01*
X402213057Y-49077970D01*
X402248771Y-49006541D01*
X402284485Y-48970827D01*
X402355914Y-48935112D01*
X402498771Y-48899398D01*
X402570200Y-48863684D01*
X402605914Y-48827970D01*
X402641628Y-48756541D01*
X402641628Y-48685112D01*
X402605914Y-48613684D01*
X402570200Y-48577970D01*
X402498771Y-48542255D01*
X402320200Y-48542255D01*
X402213057Y-48577970D01*
X401641628Y-48899398D02*
X401534485Y-48935112D01*
X401498771Y-48970827D01*
X401463057Y-49042255D01*
X401463057Y-49149398D01*
X401498771Y-49220827D01*
X401534485Y-49256541D01*
X401605914Y-49292255D01*
X401891628Y-49292255D01*
X401891628Y-48542255D01*
X401641628Y-48542255D01*
X401570200Y-48577970D01*
X401534485Y-48613684D01*
X401498771Y-48685112D01*
X401498771Y-48756541D01*
X401534485Y-48827970D01*
X401570200Y-48863684D01*
X401641628Y-48899398D01*
X401891628Y-48899398D01*
D13*
X392349009Y-78856541D02*
X392444723Y-78820827D01*
X392476628Y-78785112D01*
X392508533Y-78713684D01*
X392508533Y-78606541D01*
X392476628Y-78535112D01*
X392444723Y-78499398D01*
X392380914Y-78463684D01*
X392125676Y-78463684D01*
X392125676Y-79213684D01*
X392349009Y-79213684D01*
X392412819Y-79177970D01*
X392444723Y-79142255D01*
X392476628Y-79070827D01*
X392476628Y-78999398D01*
X392444723Y-78927970D01*
X392412819Y-78892255D01*
X392349009Y-78856541D01*
X392125676Y-78856541D01*
X393082819Y-78963684D02*
X393082819Y-78463684D01*
X392923295Y-79249398D02*
X392763771Y-78713684D01*
X393178533Y-78713684D01*
X393912342Y-79249398D02*
X393338057Y-78285112D01*
X394231390Y-78892255D02*
X394167580Y-78927970D01*
X394135676Y-78963684D01*
X394103771Y-79035112D01*
X394103771Y-79070827D01*
X394135676Y-79142255D01*
X394167580Y-79177970D01*
X394231390Y-79213684D01*
X394359009Y-79213684D01*
X394422819Y-79177970D01*
X394454723Y-79142255D01*
X394486628Y-79070827D01*
X394486628Y-79035112D01*
X394454723Y-78963684D01*
X394422819Y-78927970D01*
X394359009Y-78892255D01*
X394231390Y-78892255D01*
X394167580Y-78856541D01*
X394135676Y-78820827D01*
X394103771Y-78749398D01*
X394103771Y-78606541D01*
X394135676Y-78535112D01*
X394167580Y-78499398D01*
X394231390Y-78463684D01*
X394359009Y-78463684D01*
X394422819Y-78499398D01*
X394454723Y-78535112D01*
X394486628Y-78606541D01*
X394486628Y-78749398D01*
X394454723Y-78820827D01*
X394422819Y-78856541D01*
X394359009Y-78892255D01*
X391021628Y-55663684D02*
X391021628Y-56413684D01*
X391181152Y-56413684D01*
X391276866Y-56377970D01*
X391340676Y-56306541D01*
X391372580Y-56235112D01*
X391404485Y-56092255D01*
X391404485Y-55985112D01*
X391372580Y-55842255D01*
X391340676Y-55770827D01*
X391276866Y-55699398D01*
X391181152Y-55663684D01*
X391021628Y-55663684D01*
X391659723Y-56342255D02*
X391691628Y-56377970D01*
X391755438Y-56413684D01*
X391914961Y-56413684D01*
X391978771Y-56377970D01*
X392010676Y-56342255D01*
X392042580Y-56270827D01*
X392042580Y-56199398D01*
X392010676Y-56092255D01*
X391627819Y-55663684D01*
X392042580Y-55663684D01*
X392808295Y-56449398D02*
X392234009Y-55485112D01*
X393414485Y-55663684D02*
X393191152Y-56020827D01*
X393031628Y-55663684D02*
X393031628Y-56413684D01*
X393286866Y-56413684D01*
X393350676Y-56377970D01*
X393382580Y-56342255D01*
X393414485Y-56270827D01*
X393414485Y-56163684D01*
X393382580Y-56092255D01*
X393350676Y-56056541D01*
X393286866Y-56020827D01*
X393031628Y-56020827D01*
X393637819Y-56413684D02*
X394084485Y-55663684D01*
X394084485Y-56413684D02*
X393637819Y-55663684D01*
X394690676Y-55663684D02*
X394307819Y-55663684D01*
X394499247Y-55663684D02*
X394499247Y-56413684D01*
X394435438Y-56306541D01*
X394371628Y-56235112D01*
X394307819Y-56199398D01*
X392349009Y-81356541D02*
X392444723Y-81320827D01*
X392476628Y-81285112D01*
X392508533Y-81213684D01*
X392508533Y-81106541D01*
X392476628Y-81035112D01*
X392444723Y-80999398D01*
X392380914Y-80963684D01*
X392125676Y-80963684D01*
X392125676Y-81713684D01*
X392349009Y-81713684D01*
X392412819Y-81677970D01*
X392444723Y-81642255D01*
X392476628Y-81570827D01*
X392476628Y-81499398D01*
X392444723Y-81427970D01*
X392412819Y-81392255D01*
X392349009Y-81356541D01*
X392125676Y-81356541D01*
X393114723Y-81713684D02*
X392795676Y-81713684D01*
X392763771Y-81356541D01*
X392795676Y-81392255D01*
X392859485Y-81427970D01*
X393019009Y-81427970D01*
X393082819Y-81392255D01*
X393114723Y-81356541D01*
X393146628Y-81285112D01*
X393146628Y-81106541D01*
X393114723Y-81035112D01*
X393082819Y-80999398D01*
X393019009Y-80963684D01*
X392859485Y-80963684D01*
X392795676Y-80999398D01*
X392763771Y-81035112D01*
X393912342Y-81749398D02*
X393338057Y-80785112D01*
X394167580Y-80963684D02*
X394295200Y-80963684D01*
X394359009Y-80999398D01*
X394390914Y-81035112D01*
X394454723Y-81142255D01*
X394486628Y-81285112D01*
X394486628Y-81570827D01*
X394454723Y-81642255D01*
X394422819Y-81677970D01*
X394359009Y-81713684D01*
X394231390Y-81713684D01*
X394167580Y-81677970D01*
X394135676Y-81642255D01*
X394103771Y-81570827D01*
X394103771Y-81392255D01*
X394135676Y-81320827D01*
X394167580Y-81285112D01*
X394231390Y-81249398D01*
X394359009Y-81249398D01*
X394422819Y-81285112D01*
X394454723Y-81320827D01*
X394486628Y-81392255D01*
X392508533Y-70885112D02*
X392476628Y-70849398D01*
X392380914Y-70813684D01*
X392317104Y-70813684D01*
X392221390Y-70849398D01*
X392157580Y-70920827D01*
X392125676Y-70992255D01*
X392093771Y-71135112D01*
X392093771Y-71242255D01*
X392125676Y-71385112D01*
X392157580Y-71456541D01*
X392221390Y-71527970D01*
X392317104Y-71563684D01*
X392380914Y-71563684D01*
X392476628Y-71527970D01*
X392508533Y-71492255D01*
X393082819Y-71563684D02*
X392955200Y-71563684D01*
X392891390Y-71527970D01*
X392859485Y-71492255D01*
X392795676Y-71385112D01*
X392763771Y-71242255D01*
X392763771Y-70956541D01*
X392795676Y-70885112D01*
X392827580Y-70849398D01*
X392891390Y-70813684D01*
X393019009Y-70813684D01*
X393082819Y-70849398D01*
X393114723Y-70885112D01*
X393146628Y-70956541D01*
X393146628Y-71135112D01*
X393114723Y-71206541D01*
X393082819Y-71242255D01*
X393019009Y-71277970D01*
X392891390Y-71277970D01*
X392827580Y-71242255D01*
X392795676Y-71206541D01*
X392763771Y-71135112D01*
X393912342Y-71599398D02*
X393338057Y-70635112D01*
X394454723Y-71563684D02*
X394135676Y-71563684D01*
X394103771Y-71206541D01*
X394135676Y-71242255D01*
X394199485Y-71277970D01*
X394359009Y-71277970D01*
X394422819Y-71242255D01*
X394454723Y-71206541D01*
X394486628Y-71135112D01*
X394486628Y-70956541D01*
X394454723Y-70885112D01*
X394422819Y-70849398D01*
X394359009Y-70813684D01*
X394199485Y-70813684D01*
X394135676Y-70849398D01*
X394103771Y-70885112D01*
X389667580Y-65899398D02*
X389763295Y-65863684D01*
X389922819Y-65863684D01*
X389986628Y-65899398D01*
X390018533Y-65935112D01*
X390050438Y-66006541D01*
X390050438Y-66077970D01*
X390018533Y-66149398D01*
X389986628Y-66185112D01*
X389922819Y-66220827D01*
X389795200Y-66256541D01*
X389731390Y-66292255D01*
X389699485Y-66327970D01*
X389667580Y-66399398D01*
X389667580Y-66470827D01*
X389699485Y-66542255D01*
X389731390Y-66577970D01*
X389795200Y-66613684D01*
X389954723Y-66613684D01*
X390050438Y-66577970D01*
X390720438Y-65935112D02*
X390688533Y-65899398D01*
X390592819Y-65863684D01*
X390529009Y-65863684D01*
X390433295Y-65899398D01*
X390369485Y-65970827D01*
X390337580Y-66042255D01*
X390305676Y-66185112D01*
X390305676Y-66292255D01*
X390337580Y-66435112D01*
X390369485Y-66506541D01*
X390433295Y-66577970D01*
X390529009Y-66613684D01*
X390592819Y-66613684D01*
X390688533Y-66577970D01*
X390720438Y-66542255D01*
X391326628Y-65863684D02*
X391007580Y-65863684D01*
X391007580Y-66613684D01*
X392028533Y-66649398D02*
X391454247Y-65685112D01*
X392251866Y-65863684D02*
X392251866Y-66613684D01*
X392411390Y-66613684D01*
X392507104Y-66577970D01*
X392570914Y-66506541D01*
X392602819Y-66435112D01*
X392634723Y-66292255D01*
X392634723Y-66185112D01*
X392602819Y-66042255D01*
X392570914Y-65970827D01*
X392507104Y-65899398D01*
X392411390Y-65863684D01*
X392251866Y-65863684D01*
X393049485Y-66613684D02*
X393113295Y-66613684D01*
X393177104Y-66577970D01*
X393209009Y-66542255D01*
X393240914Y-66470827D01*
X393272819Y-66327970D01*
X393272819Y-66149398D01*
X393240914Y-66006541D01*
X393209009Y-65935112D01*
X393177104Y-65899398D01*
X393113295Y-65863684D01*
X393049485Y-65863684D01*
X392985676Y-65899398D01*
X392953771Y-65935112D01*
X392921866Y-66006541D01*
X392889961Y-66149398D01*
X392889961Y-66327970D01*
X392921866Y-66470827D01*
X392953771Y-66542255D01*
X392985676Y-66577970D01*
X393049485Y-66613684D01*
X394038533Y-66649398D02*
X393464247Y-65685112D01*
X394198057Y-66613684D02*
X394612819Y-66613684D01*
X394389485Y-66327970D01*
X394485200Y-66327970D01*
X394549009Y-66292255D01*
X394580914Y-66256541D01*
X394612819Y-66185112D01*
X394612819Y-66006541D01*
X394580914Y-65935112D01*
X394549009Y-65899398D01*
X394485200Y-65863684D01*
X394293771Y-65863684D01*
X394229961Y-65899398D01*
X394198057Y-65935112D01*
X389651628Y-63399398D02*
X389747342Y-63363684D01*
X389906866Y-63363684D01*
X389970676Y-63399398D01*
X390002580Y-63435112D01*
X390034485Y-63506541D01*
X390034485Y-63577970D01*
X390002580Y-63649398D01*
X389970676Y-63685112D01*
X389906866Y-63720827D01*
X389779247Y-63756541D01*
X389715438Y-63792255D01*
X389683533Y-63827970D01*
X389651628Y-63899398D01*
X389651628Y-63970827D01*
X389683533Y-64042255D01*
X389715438Y-64077970D01*
X389779247Y-64113684D01*
X389938771Y-64113684D01*
X390034485Y-64077970D01*
X390321628Y-63363684D02*
X390321628Y-64113684D01*
X390481152Y-64113684D01*
X390576866Y-64077970D01*
X390640676Y-64006541D01*
X390672580Y-63935112D01*
X390704485Y-63792255D01*
X390704485Y-63685112D01*
X390672580Y-63542255D01*
X390640676Y-63470827D01*
X390576866Y-63399398D01*
X390481152Y-63363684D01*
X390321628Y-63363684D01*
X390959723Y-63577970D02*
X391278771Y-63577970D01*
X390895914Y-63363684D02*
X391119247Y-64113684D01*
X391342580Y-63363684D01*
X392044485Y-64149398D02*
X391470200Y-63185112D01*
X392267819Y-63363684D02*
X392267819Y-64113684D01*
X392427342Y-64113684D01*
X392523057Y-64077970D01*
X392586866Y-64006541D01*
X392618771Y-63935112D01*
X392650676Y-63792255D01*
X392650676Y-63685112D01*
X392618771Y-63542255D01*
X392586866Y-63470827D01*
X392523057Y-63399398D01*
X392427342Y-63363684D01*
X392267819Y-63363684D01*
X393288771Y-63363684D02*
X392905914Y-63363684D01*
X393097342Y-63363684D02*
X393097342Y-64113684D01*
X393033533Y-64006541D01*
X392969723Y-63935112D01*
X392905914Y-63899398D01*
X394054485Y-64149398D02*
X393480200Y-63185112D01*
X394245914Y-64042255D02*
X394277819Y-64077970D01*
X394341628Y-64113684D01*
X394501152Y-64113684D01*
X394564961Y-64077970D01*
X394596866Y-64042255D01*
X394628771Y-63970827D01*
X394628771Y-63899398D01*
X394596866Y-63792255D01*
X394214009Y-63363684D01*
X394628771Y-63363684D01*
X392125676Y-68263684D02*
X392125676Y-69013684D01*
X392285200Y-69013684D01*
X392380914Y-68977970D01*
X392444723Y-68906541D01*
X392476628Y-68835112D01*
X392508533Y-68692255D01*
X392508533Y-68585112D01*
X392476628Y-68442255D01*
X392444723Y-68370827D01*
X392380914Y-68299398D01*
X392285200Y-68263684D01*
X392125676Y-68263684D01*
X393082819Y-68763684D02*
X393082819Y-68263684D01*
X392923295Y-69049398D02*
X392763771Y-68513684D01*
X393178533Y-68513684D01*
X393912342Y-69049398D02*
X393338057Y-68085112D01*
X394422819Y-68763684D02*
X394422819Y-68263684D01*
X394263295Y-69049398D02*
X394103771Y-68513684D01*
X394518533Y-68513684D01*
X391101390Y-53113684D02*
X391101390Y-53863684D01*
X391260914Y-53863684D01*
X391356628Y-53827970D01*
X391420438Y-53756541D01*
X391452342Y-53685112D01*
X391484247Y-53542255D01*
X391484247Y-53435112D01*
X391452342Y-53292255D01*
X391420438Y-53220827D01*
X391356628Y-53149398D01*
X391260914Y-53113684D01*
X391101390Y-53113684D01*
X391707580Y-53863684D02*
X392122342Y-53863684D01*
X391899009Y-53577970D01*
X391994723Y-53577970D01*
X392058533Y-53542255D01*
X392090438Y-53506541D01*
X392122342Y-53435112D01*
X392122342Y-53256541D01*
X392090438Y-53185112D01*
X392058533Y-53149398D01*
X391994723Y-53113684D01*
X391803295Y-53113684D01*
X391739485Y-53149398D01*
X391707580Y-53185112D01*
X392888057Y-53899398D02*
X392313771Y-52935112D01*
X393015676Y-53863684D02*
X393398533Y-53863684D01*
X393207104Y-53113684D02*
X393207104Y-53863684D01*
X393558057Y-53863684D02*
X394004723Y-53113684D01*
X394004723Y-53863684D02*
X393558057Y-53113684D01*
X394387580Y-53863684D02*
X394451390Y-53863684D01*
X394515200Y-53827970D01*
X394547104Y-53792255D01*
X394579009Y-53720827D01*
X394610914Y-53577970D01*
X394610914Y-53399398D01*
X394579009Y-53256541D01*
X394547104Y-53185112D01*
X394515200Y-53149398D01*
X394451390Y-53113684D01*
X394387580Y-53113684D01*
X394323771Y-53149398D01*
X394291866Y-53185112D01*
X394259961Y-53256541D01*
X394228057Y-53399398D01*
X394228057Y-53577970D01*
X394259961Y-53720827D01*
X394291866Y-53792255D01*
X394323771Y-53827970D01*
X394387580Y-53863684D01*
X393279723Y-61427970D02*
X393215914Y-61463684D01*
X393120200Y-61463684D01*
X393024485Y-61427970D01*
X392960676Y-61356541D01*
X392928771Y-61285112D01*
X392896866Y-61142255D01*
X392896866Y-61035112D01*
X392928771Y-60892255D01*
X392960676Y-60820827D01*
X393024485Y-60749398D01*
X393120200Y-60713684D01*
X393184009Y-60713684D01*
X393279723Y-60749398D01*
X393311628Y-60785112D01*
X393311628Y-61035112D01*
X393184009Y-61035112D01*
X393598771Y-60713684D02*
X393598771Y-61463684D01*
X393981628Y-60713684D01*
X393981628Y-61463684D01*
X394300676Y-60713684D02*
X394300676Y-61463684D01*
X394460200Y-61463684D01*
X394555914Y-61427970D01*
X394619723Y-61356541D01*
X394651628Y-61285112D01*
X394683533Y-61142255D01*
X394683533Y-61035112D01*
X394651628Y-60892255D01*
X394619723Y-60820827D01*
X394555914Y-60749398D01*
X394460200Y-60713684D01*
X394300676Y-60713684D01*
X393279723Y-58977970D02*
X393215914Y-59013684D01*
X393120200Y-59013684D01*
X393024485Y-58977970D01*
X392960676Y-58906541D01*
X392928771Y-58835112D01*
X392896866Y-58692255D01*
X392896866Y-58585112D01*
X392928771Y-58442255D01*
X392960676Y-58370827D01*
X393024485Y-58299398D01*
X393120200Y-58263684D01*
X393184009Y-58263684D01*
X393279723Y-58299398D01*
X393311628Y-58335112D01*
X393311628Y-58585112D01*
X393184009Y-58585112D01*
X393598771Y-58263684D02*
X393598771Y-59013684D01*
X393981628Y-58263684D01*
X393981628Y-59013684D01*
X394300676Y-58263684D02*
X394300676Y-59013684D01*
X394460200Y-59013684D01*
X394555914Y-58977970D01*
X394619723Y-58906541D01*
X394651628Y-58835112D01*
X394683533Y-58692255D01*
X394683533Y-58585112D01*
X394651628Y-58442255D01*
X394619723Y-58370827D01*
X394555914Y-58299398D01*
X394460200Y-58263684D01*
X394300676Y-58263684D01*
X392125676Y-73363684D02*
X392125676Y-74113684D01*
X392285200Y-74113684D01*
X392380914Y-74077970D01*
X392444723Y-74006541D01*
X392476628Y-73935112D01*
X392508533Y-73792255D01*
X392508533Y-73685112D01*
X392476628Y-73542255D01*
X392444723Y-73470827D01*
X392380914Y-73399398D01*
X392285200Y-73363684D01*
X392125676Y-73363684D01*
X392731866Y-74113684D02*
X393178533Y-74113684D01*
X392891390Y-73363684D01*
X393912342Y-74149398D02*
X393338057Y-73185112D01*
X394422819Y-74113684D02*
X394295200Y-74113684D01*
X394231390Y-74077970D01*
X394199485Y-74042255D01*
X394135676Y-73935112D01*
X394103771Y-73792255D01*
X394103771Y-73506541D01*
X394135676Y-73435112D01*
X394167580Y-73399398D01*
X394231390Y-73363684D01*
X394359009Y-73363684D01*
X394422819Y-73399398D01*
X394454723Y-73435112D01*
X394486628Y-73506541D01*
X394486628Y-73685112D01*
X394454723Y-73756541D01*
X394422819Y-73792255D01*
X394359009Y-73827970D01*
X394231390Y-73827970D01*
X394167580Y-73792255D01*
X394135676Y-73756541D01*
X394103771Y-73685112D01*
X392157580Y-76306541D02*
X392380914Y-76306541D01*
X392476628Y-75913684D02*
X392157580Y-75913684D01*
X392157580Y-76663684D01*
X392476628Y-76663684D01*
X393050914Y-76663684D02*
X392923295Y-76663684D01*
X392859485Y-76627970D01*
X392827580Y-76592255D01*
X392763771Y-76485112D01*
X392731866Y-76342255D01*
X392731866Y-76056541D01*
X392763771Y-75985112D01*
X392795676Y-75949398D01*
X392859485Y-75913684D01*
X392987104Y-75913684D01*
X393050914Y-75949398D01*
X393082819Y-75985112D01*
X393114723Y-76056541D01*
X393114723Y-76235112D01*
X393082819Y-76306541D01*
X393050914Y-76342255D01*
X392987104Y-76377970D01*
X392859485Y-76377970D01*
X392795676Y-76342255D01*
X392763771Y-76306541D01*
X392731866Y-76235112D01*
X393880438Y-76699398D02*
X393306152Y-75735112D01*
X394039961Y-76663684D02*
X394486628Y-76663684D01*
X394199485Y-75913684D01*
X413607580Y-78513684D02*
X413224723Y-78513684D01*
X413416152Y-78513684D02*
X413416152Y-79263684D01*
X413352342Y-79156541D01*
X413288533Y-79085112D01*
X413224723Y-79049398D01*
X414181866Y-79263684D02*
X414054247Y-79263684D01*
X413990438Y-79227970D01*
X413958533Y-79192255D01*
X413894723Y-79085112D01*
X413862819Y-78942255D01*
X413862819Y-78656541D01*
X413894723Y-78585112D01*
X413926628Y-78549398D01*
X413990438Y-78513684D01*
X414118057Y-78513684D01*
X414181866Y-78549398D01*
X414213771Y-78585112D01*
X414245676Y-78656541D01*
X414245676Y-78835112D01*
X414213771Y-78906541D01*
X414181866Y-78942255D01*
X414118057Y-78977970D01*
X413990438Y-78977970D01*
X413926628Y-78942255D01*
X413894723Y-78906541D01*
X413862819Y-78835112D01*
X415011390Y-79299398D02*
X414437104Y-78335112D01*
X415458057Y-78906541D02*
X415553771Y-78870827D01*
X415585676Y-78835112D01*
X415617580Y-78763684D01*
X415617580Y-78656541D01*
X415585676Y-78585112D01*
X415553771Y-78549398D01*
X415489961Y-78513684D01*
X415234723Y-78513684D01*
X415234723Y-79263684D01*
X415458057Y-79263684D01*
X415521866Y-79227970D01*
X415553771Y-79192255D01*
X415585676Y-79120827D01*
X415585676Y-79049398D01*
X415553771Y-78977970D01*
X415521866Y-78942255D01*
X415458057Y-78906541D01*
X415234723Y-78906541D01*
X415872819Y-79192255D02*
X415904723Y-79227970D01*
X415968533Y-79263684D01*
X416128057Y-79263684D01*
X416191866Y-79227970D01*
X416223771Y-79192255D01*
X416255676Y-79120827D01*
X416255676Y-79049398D01*
X416223771Y-78942255D01*
X415840914Y-78513684D01*
X416255676Y-78513684D01*
X413607580Y-81013684D02*
X413224723Y-81013684D01*
X413416152Y-81013684D02*
X413416152Y-81763684D01*
X413352342Y-81656541D01*
X413288533Y-81585112D01*
X413224723Y-81549398D01*
X414022342Y-81763684D02*
X414086152Y-81763684D01*
X414149961Y-81727970D01*
X414181866Y-81692255D01*
X414213771Y-81620827D01*
X414245676Y-81477970D01*
X414245676Y-81299398D01*
X414213771Y-81156541D01*
X414181866Y-81085112D01*
X414149961Y-81049398D01*
X414086152Y-81013684D01*
X414022342Y-81013684D01*
X413958533Y-81049398D01*
X413926628Y-81085112D01*
X413894723Y-81156541D01*
X413862819Y-81299398D01*
X413862819Y-81477970D01*
X413894723Y-81620827D01*
X413926628Y-81692255D01*
X413958533Y-81727970D01*
X414022342Y-81763684D01*
X415011390Y-81799398D02*
X414437104Y-80835112D01*
X415458057Y-81406541D02*
X415553771Y-81370827D01*
X415585676Y-81335112D01*
X415617580Y-81263684D01*
X415617580Y-81156541D01*
X415585676Y-81085112D01*
X415553771Y-81049398D01*
X415489961Y-81013684D01*
X415234723Y-81013684D01*
X415234723Y-81763684D01*
X415458057Y-81763684D01*
X415521866Y-81727970D01*
X415553771Y-81692255D01*
X415585676Y-81620827D01*
X415585676Y-81549398D01*
X415553771Y-81477970D01*
X415521866Y-81442255D01*
X415458057Y-81406541D01*
X415234723Y-81406541D01*
X416191866Y-81763684D02*
X416064247Y-81763684D01*
X416000438Y-81727970D01*
X415968533Y-81692255D01*
X415904723Y-81585112D01*
X415872819Y-81442255D01*
X415872819Y-81156541D01*
X415904723Y-81085112D01*
X415936628Y-81049398D01*
X416000438Y-81013684D01*
X416128057Y-81013684D01*
X416191866Y-81049398D01*
X416223771Y-81085112D01*
X416255676Y-81156541D01*
X416255676Y-81335112D01*
X416223771Y-81406541D01*
X416191866Y-81442255D01*
X416128057Y-81477970D01*
X416000438Y-81477970D01*
X415936628Y-81442255D01*
X415904723Y-81406541D01*
X415872819Y-81335112D01*
X413607580Y-75963684D02*
X413224723Y-75963684D01*
X413416152Y-75963684D02*
X413416152Y-76713684D01*
X413352342Y-76606541D01*
X413288533Y-76535112D01*
X413224723Y-76499398D01*
X414181866Y-76463684D02*
X414181866Y-75963684D01*
X414022342Y-76749398D02*
X413862819Y-76213684D01*
X414277580Y-76213684D01*
X415011390Y-76749398D02*
X414437104Y-75785112D01*
X415458057Y-76356541D02*
X415553771Y-76320827D01*
X415585676Y-76285112D01*
X415617580Y-76213684D01*
X415617580Y-76106541D01*
X415585676Y-76035112D01*
X415553771Y-75999398D01*
X415489961Y-75963684D01*
X415234723Y-75963684D01*
X415234723Y-76713684D01*
X415458057Y-76713684D01*
X415521866Y-76677970D01*
X415553771Y-76642255D01*
X415585676Y-76570827D01*
X415585676Y-76499398D01*
X415553771Y-76427970D01*
X415521866Y-76392255D01*
X415458057Y-76356541D01*
X415234723Y-76356541D01*
X415840914Y-76713684D02*
X416255676Y-76713684D01*
X416032342Y-76427970D01*
X416128057Y-76427970D01*
X416191866Y-76392255D01*
X416223771Y-76356541D01*
X416255676Y-76285112D01*
X416255676Y-76106541D01*
X416223771Y-76035112D01*
X416191866Y-75999398D01*
X416128057Y-75963684D01*
X415936628Y-75963684D01*
X415872819Y-75999398D01*
X415840914Y-76035112D01*
X413607580Y-73413684D02*
X413224723Y-73413684D01*
X413416152Y-73413684D02*
X413416152Y-74163684D01*
X413352342Y-74056541D01*
X413288533Y-73985112D01*
X413224723Y-73949398D01*
X414213771Y-74163684D02*
X413894723Y-74163684D01*
X413862819Y-73806541D01*
X413894723Y-73842255D01*
X413958533Y-73877970D01*
X414118057Y-73877970D01*
X414181866Y-73842255D01*
X414213771Y-73806541D01*
X414245676Y-73735112D01*
X414245676Y-73556541D01*
X414213771Y-73485112D01*
X414181866Y-73449398D01*
X414118057Y-73413684D01*
X413958533Y-73413684D01*
X413894723Y-73449398D01*
X413862819Y-73485112D01*
X415011390Y-74199398D02*
X414437104Y-73235112D01*
X415458057Y-73806541D02*
X415553771Y-73770827D01*
X415585676Y-73735112D01*
X415617580Y-73663684D01*
X415617580Y-73556541D01*
X415585676Y-73485112D01*
X415553771Y-73449398D01*
X415489961Y-73413684D01*
X415234723Y-73413684D01*
X415234723Y-74163684D01*
X415458057Y-74163684D01*
X415521866Y-74127970D01*
X415553771Y-74092255D01*
X415585676Y-74020827D01*
X415585676Y-73949398D01*
X415553771Y-73877970D01*
X415521866Y-73842255D01*
X415458057Y-73806541D01*
X415234723Y-73806541D01*
X416255676Y-73413684D02*
X415872819Y-73413684D01*
X416064247Y-73413684D02*
X416064247Y-74163684D01*
X416000438Y-74056541D01*
X415936628Y-73985112D01*
X415872819Y-73949398D01*
X413304485Y-71077970D02*
X413623533Y-71077970D01*
X413240676Y-70863684D02*
X413464009Y-71613684D01*
X413687342Y-70863684D01*
X414038295Y-71613684D02*
X414102104Y-71613684D01*
X414165914Y-71577970D01*
X414197819Y-71542255D01*
X414229723Y-71470827D01*
X414261628Y-71327970D01*
X414261628Y-71149398D01*
X414229723Y-71006541D01*
X414197819Y-70935112D01*
X414165914Y-70899398D01*
X414102104Y-70863684D01*
X414038295Y-70863684D01*
X413974485Y-70899398D01*
X413942580Y-70935112D01*
X413910676Y-71006541D01*
X413878771Y-71149398D01*
X413878771Y-71327970D01*
X413910676Y-71470827D01*
X413942580Y-71542255D01*
X413974485Y-71577970D01*
X414038295Y-71613684D01*
X415027342Y-71649398D02*
X414453057Y-70685112D01*
X415474009Y-71256541D02*
X415250676Y-71256541D01*
X415250676Y-70863684D02*
X415250676Y-71613684D01*
X415569723Y-71613684D01*
X415761152Y-71613684D02*
X416207819Y-71613684D01*
X415920676Y-70863684D01*
X413304485Y-68527970D02*
X413623533Y-68527970D01*
X413240676Y-68313684D02*
X413464009Y-69063684D01*
X413687342Y-68313684D01*
X414261628Y-68313684D02*
X413878771Y-68313684D01*
X414070200Y-68313684D02*
X414070200Y-69063684D01*
X414006390Y-68956541D01*
X413942580Y-68885112D01*
X413878771Y-68849398D01*
X415027342Y-69099398D02*
X414453057Y-68135112D01*
X415474009Y-68706541D02*
X415250676Y-68706541D01*
X415250676Y-68313684D02*
X415250676Y-69063684D01*
X415569723Y-69063684D01*
X416112104Y-69063684D02*
X415984485Y-69063684D01*
X415920676Y-69027970D01*
X415888771Y-68992255D01*
X415824961Y-68885112D01*
X415793057Y-68742255D01*
X415793057Y-68456541D01*
X415824961Y-68385112D01*
X415856866Y-68349398D01*
X415920676Y-68313684D01*
X416048295Y-68313684D01*
X416112104Y-68349398D01*
X416144009Y-68385112D01*
X416175914Y-68456541D01*
X416175914Y-68635112D01*
X416144009Y-68706541D01*
X416112104Y-68742255D01*
X416048295Y-68777970D01*
X415920676Y-68777970D01*
X415856866Y-68742255D01*
X415824961Y-68706541D01*
X415793057Y-68635112D01*
X413304485Y-66027970D02*
X413623533Y-66027970D01*
X413240676Y-65813684D02*
X413464009Y-66563684D01*
X413687342Y-65813684D01*
X413878771Y-66492255D02*
X413910676Y-66527970D01*
X413974485Y-66563684D01*
X414134009Y-66563684D01*
X414197819Y-66527970D01*
X414229723Y-66492255D01*
X414261628Y-66420827D01*
X414261628Y-66349398D01*
X414229723Y-66242255D01*
X413846866Y-65813684D01*
X414261628Y-65813684D01*
X415027342Y-66599398D02*
X414453057Y-65635112D01*
X415474009Y-66206541D02*
X415250676Y-66206541D01*
X415250676Y-65813684D02*
X415250676Y-66563684D01*
X415569723Y-66563684D01*
X416144009Y-66563684D02*
X415824961Y-66563684D01*
X415793057Y-66206541D01*
X415824961Y-66242255D01*
X415888771Y-66277970D01*
X416048295Y-66277970D01*
X416112104Y-66242255D01*
X416144009Y-66206541D01*
X416175914Y-66135112D01*
X416175914Y-65956541D01*
X416144009Y-65885112D01*
X416112104Y-65849398D01*
X416048295Y-65813684D01*
X415888771Y-65813684D01*
X415824961Y-65849398D01*
X415793057Y-65885112D01*
X413304485Y-63527970D02*
X413623533Y-63527970D01*
X413240676Y-63313684D02*
X413464009Y-64063684D01*
X413687342Y-63313684D01*
X413846866Y-64063684D02*
X414261628Y-64063684D01*
X414038295Y-63777970D01*
X414134009Y-63777970D01*
X414197819Y-63742255D01*
X414229723Y-63706541D01*
X414261628Y-63635112D01*
X414261628Y-63456541D01*
X414229723Y-63385112D01*
X414197819Y-63349398D01*
X414134009Y-63313684D01*
X413942580Y-63313684D01*
X413878771Y-63349398D01*
X413846866Y-63385112D01*
X415027342Y-64099398D02*
X414453057Y-63135112D01*
X415474009Y-63706541D02*
X415250676Y-63706541D01*
X415250676Y-63313684D02*
X415250676Y-64063684D01*
X415569723Y-64063684D01*
X416112104Y-63813684D02*
X416112104Y-63313684D01*
X415952580Y-64099398D02*
X415793057Y-63563684D01*
X416207819Y-63563684D01*
X413196866Y-61363684D02*
X413420200Y-60613684D01*
X413643533Y-61363684D01*
X414249723Y-60685112D02*
X414217819Y-60649398D01*
X414122104Y-60613684D01*
X414058295Y-60613684D01*
X413962580Y-60649398D01*
X413898771Y-60720827D01*
X413866866Y-60792255D01*
X413834961Y-60935112D01*
X413834961Y-61042255D01*
X413866866Y-61185112D01*
X413898771Y-61256541D01*
X413962580Y-61327970D01*
X414058295Y-61363684D01*
X414122104Y-61363684D01*
X414217819Y-61327970D01*
X414249723Y-61292255D01*
X414919723Y-60685112D02*
X414887819Y-60649398D01*
X414792104Y-60613684D01*
X414728295Y-60613684D01*
X414632580Y-60649398D01*
X414568771Y-60720827D01*
X414536866Y-60792255D01*
X414504961Y-60935112D01*
X414504961Y-61042255D01*
X414536866Y-61185112D01*
X414568771Y-61256541D01*
X414632580Y-61327970D01*
X414728295Y-61363684D01*
X414792104Y-61363684D01*
X414887819Y-61327970D01*
X414919723Y-61292255D01*
X413723295Y-58163684D02*
X413499961Y-58520827D01*
X413340438Y-58163684D02*
X413340438Y-58913684D01*
X413595676Y-58913684D01*
X413659485Y-58877970D01*
X413691390Y-58842255D01*
X413723295Y-58770827D01*
X413723295Y-58663684D01*
X413691390Y-58592255D01*
X413659485Y-58556541D01*
X413595676Y-58520827D01*
X413340438Y-58520827D01*
X413978533Y-58199398D02*
X414074247Y-58163684D01*
X414233771Y-58163684D01*
X414297580Y-58199398D01*
X414329485Y-58235112D01*
X414361390Y-58306541D01*
X414361390Y-58377970D01*
X414329485Y-58449398D01*
X414297580Y-58485112D01*
X414233771Y-58520827D01*
X414106152Y-58556541D01*
X414042342Y-58592255D01*
X414010438Y-58627970D01*
X413978533Y-58699398D01*
X413978533Y-58770827D01*
X414010438Y-58842255D01*
X414042342Y-58877970D01*
X414106152Y-58913684D01*
X414265676Y-58913684D01*
X414361390Y-58877970D01*
X414552819Y-58913684D02*
X414935676Y-58913684D01*
X414744247Y-58163684D02*
X414744247Y-58913684D01*
X413579723Y-56327970D02*
X413515914Y-56363684D01*
X413420200Y-56363684D01*
X413324485Y-56327970D01*
X413260676Y-56256541D01*
X413228771Y-56185112D01*
X413196866Y-56042255D01*
X413196866Y-55935112D01*
X413228771Y-55792255D01*
X413260676Y-55720827D01*
X413324485Y-55649398D01*
X413420200Y-55613684D01*
X413484009Y-55613684D01*
X413579723Y-55649398D01*
X413611628Y-55685112D01*
X413611628Y-55935112D01*
X413484009Y-55935112D01*
X413898771Y-55613684D02*
X413898771Y-56363684D01*
X414281628Y-55613684D01*
X414281628Y-56363684D01*
X414600676Y-55613684D02*
X414600676Y-56363684D01*
X414760200Y-56363684D01*
X414855914Y-56327970D01*
X414919723Y-56256541D01*
X414951628Y-56185112D01*
X414983533Y-56042255D01*
X414983533Y-55935112D01*
X414951628Y-55792255D01*
X414919723Y-55720827D01*
X414855914Y-55649398D01*
X414760200Y-55613684D01*
X414600676Y-55613684D01*
X413627580Y-53063684D02*
X413404247Y-53420827D01*
X413244723Y-53063684D02*
X413244723Y-53813684D01*
X413499961Y-53813684D01*
X413563771Y-53777970D01*
X413595676Y-53742255D01*
X413627580Y-53670827D01*
X413627580Y-53563684D01*
X413595676Y-53492255D01*
X413563771Y-53456541D01*
X413499961Y-53420827D01*
X413244723Y-53420827D01*
X413882819Y-53277970D02*
X414201866Y-53277970D01*
X413819009Y-53063684D02*
X414042342Y-53813684D01*
X414265676Y-53063684D01*
X414425200Y-53813684D02*
X414584723Y-53063684D01*
X414712342Y-53599398D01*
X414839961Y-53063684D01*
X414999485Y-53813684D01*
D11*
D13*
X88997580Y-52983684D02*
X88774247Y-53340827D01*
X88614723Y-52983684D02*
X88614723Y-53733684D01*
X88869961Y-53733684D01*
X88933771Y-53697970D01*
X88965676Y-53662255D01*
X88997580Y-53590827D01*
X88997580Y-53483684D01*
X88965676Y-53412255D01*
X88933771Y-53376541D01*
X88869961Y-53340827D01*
X88614723Y-53340827D01*
X89252819Y-53197970D02*
X89571866Y-53197970D01*
X89189009Y-52983684D02*
X89412342Y-53733684D01*
X89635676Y-52983684D01*
X89795200Y-53733684D02*
X89954723Y-52983684D01*
X90082342Y-53519398D01*
X90209961Y-52983684D01*
X90369485Y-53733684D01*
X88949723Y-56247970D02*
X88885914Y-56283684D01*
X88790200Y-56283684D01*
X88694485Y-56247970D01*
X88630676Y-56176541D01*
X88598771Y-56105112D01*
X88566866Y-55962255D01*
X88566866Y-55855112D01*
X88598771Y-55712255D01*
X88630676Y-55640827D01*
X88694485Y-55569398D01*
X88790200Y-55533684D01*
X88854009Y-55533684D01*
X88949723Y-55569398D01*
X88981628Y-55605112D01*
X88981628Y-55855112D01*
X88854009Y-55855112D01*
X89268771Y-55533684D02*
X89268771Y-56283684D01*
X89651628Y-55533684D01*
X89651628Y-56283684D01*
X89970676Y-55533684D02*
X89970676Y-56283684D01*
X90130200Y-56283684D01*
X90225914Y-56247970D01*
X90289723Y-56176541D01*
X90321628Y-56105112D01*
X90353533Y-55962255D01*
X90353533Y-55855112D01*
X90321628Y-55712255D01*
X90289723Y-55640827D01*
X90225914Y-55569398D01*
X90130200Y-55533684D01*
X89970676Y-55533684D01*
X89093295Y-58083684D02*
X88869961Y-58440827D01*
X88710438Y-58083684D02*
X88710438Y-58833684D01*
X88965676Y-58833684D01*
X89029485Y-58797970D01*
X89061390Y-58762255D01*
X89093295Y-58690827D01*
X89093295Y-58583684D01*
X89061390Y-58512255D01*
X89029485Y-58476541D01*
X88965676Y-58440827D01*
X88710438Y-58440827D01*
X89348533Y-58119398D02*
X89444247Y-58083684D01*
X89603771Y-58083684D01*
X89667580Y-58119398D01*
X89699485Y-58155112D01*
X89731390Y-58226541D01*
X89731390Y-58297970D01*
X89699485Y-58369398D01*
X89667580Y-58405112D01*
X89603771Y-58440827D01*
X89476152Y-58476541D01*
X89412342Y-58512255D01*
X89380438Y-58547970D01*
X89348533Y-58619398D01*
X89348533Y-58690827D01*
X89380438Y-58762255D01*
X89412342Y-58797970D01*
X89476152Y-58833684D01*
X89635676Y-58833684D01*
X89731390Y-58797970D01*
X89922819Y-58833684D02*
X90305676Y-58833684D01*
X90114247Y-58083684D02*
X90114247Y-58833684D01*
X88566866Y-61283684D02*
X88790200Y-60533684D01*
X89013533Y-61283684D01*
X89619723Y-60605112D02*
X89587819Y-60569398D01*
X89492104Y-60533684D01*
X89428295Y-60533684D01*
X89332580Y-60569398D01*
X89268771Y-60640827D01*
X89236866Y-60712255D01*
X89204961Y-60855112D01*
X89204961Y-60962255D01*
X89236866Y-61105112D01*
X89268771Y-61176541D01*
X89332580Y-61247970D01*
X89428295Y-61283684D01*
X89492104Y-61283684D01*
X89587819Y-61247970D01*
X89619723Y-61212255D01*
X90289723Y-60605112D02*
X90257819Y-60569398D01*
X90162104Y-60533684D01*
X90098295Y-60533684D01*
X90002580Y-60569398D01*
X89938771Y-60640827D01*
X89906866Y-60712255D01*
X89874961Y-60855112D01*
X89874961Y-60962255D01*
X89906866Y-61105112D01*
X89938771Y-61176541D01*
X90002580Y-61247970D01*
X90098295Y-61283684D01*
X90162104Y-61283684D01*
X90257819Y-61247970D01*
X90289723Y-61212255D01*
X88674485Y-63447970D02*
X88993533Y-63447970D01*
X88610676Y-63233684D02*
X88834009Y-63983684D01*
X89057342Y-63233684D01*
X89216866Y-63983684D02*
X89631628Y-63983684D01*
X89408295Y-63697970D01*
X89504009Y-63697970D01*
X89567819Y-63662255D01*
X89599723Y-63626541D01*
X89631628Y-63555112D01*
X89631628Y-63376541D01*
X89599723Y-63305112D01*
X89567819Y-63269398D01*
X89504009Y-63233684D01*
X89312580Y-63233684D01*
X89248771Y-63269398D01*
X89216866Y-63305112D01*
X90397342Y-64019398D02*
X89823057Y-63055112D01*
X90844009Y-63626541D02*
X90620676Y-63626541D01*
X90620676Y-63233684D02*
X90620676Y-63983684D01*
X90939723Y-63983684D01*
X91482104Y-63733684D02*
X91482104Y-63233684D01*
X91322580Y-64019398D02*
X91163057Y-63483684D01*
X91577819Y-63483684D01*
X88674485Y-65947970D02*
X88993533Y-65947970D01*
X88610676Y-65733684D02*
X88834009Y-66483684D01*
X89057342Y-65733684D01*
X89248771Y-66412255D02*
X89280676Y-66447970D01*
X89344485Y-66483684D01*
X89504009Y-66483684D01*
X89567819Y-66447970D01*
X89599723Y-66412255D01*
X89631628Y-66340827D01*
X89631628Y-66269398D01*
X89599723Y-66162255D01*
X89216866Y-65733684D01*
X89631628Y-65733684D01*
X90397342Y-66519398D02*
X89823057Y-65555112D01*
X90844009Y-66126541D02*
X90620676Y-66126541D01*
X90620676Y-65733684D02*
X90620676Y-66483684D01*
X90939723Y-66483684D01*
X91514009Y-66483684D02*
X91194961Y-66483684D01*
X91163057Y-66126541D01*
X91194961Y-66162255D01*
X91258771Y-66197970D01*
X91418295Y-66197970D01*
X91482104Y-66162255D01*
X91514009Y-66126541D01*
X91545914Y-66055112D01*
X91545914Y-65876541D01*
X91514009Y-65805112D01*
X91482104Y-65769398D01*
X91418295Y-65733684D01*
X91258771Y-65733684D01*
X91194961Y-65769398D01*
X91163057Y-65805112D01*
X88674485Y-68447970D02*
X88993533Y-68447970D01*
X88610676Y-68233684D02*
X88834009Y-68983684D01*
X89057342Y-68233684D01*
X89631628Y-68233684D02*
X89248771Y-68233684D01*
X89440200Y-68233684D02*
X89440200Y-68983684D01*
X89376390Y-68876541D01*
X89312580Y-68805112D01*
X89248771Y-68769398D01*
X90397342Y-69019398D02*
X89823057Y-68055112D01*
X90844009Y-68626541D02*
X90620676Y-68626541D01*
X90620676Y-68233684D02*
X90620676Y-68983684D01*
X90939723Y-68983684D01*
X91482104Y-68983684D02*
X91354485Y-68983684D01*
X91290676Y-68947970D01*
X91258771Y-68912255D01*
X91194961Y-68805112D01*
X91163057Y-68662255D01*
X91163057Y-68376541D01*
X91194961Y-68305112D01*
X91226866Y-68269398D01*
X91290676Y-68233684D01*
X91418295Y-68233684D01*
X91482104Y-68269398D01*
X91514009Y-68305112D01*
X91545914Y-68376541D01*
X91545914Y-68555112D01*
X91514009Y-68626541D01*
X91482104Y-68662255D01*
X91418295Y-68697970D01*
X91290676Y-68697970D01*
X91226866Y-68662255D01*
X91194961Y-68626541D01*
X91163057Y-68555112D01*
X88674485Y-70997970D02*
X88993533Y-70997970D01*
X88610676Y-70783684D02*
X88834009Y-71533684D01*
X89057342Y-70783684D01*
X89408295Y-71533684D02*
X89472104Y-71533684D01*
X89535914Y-71497970D01*
X89567819Y-71462255D01*
X89599723Y-71390827D01*
X89631628Y-71247970D01*
X89631628Y-71069398D01*
X89599723Y-70926541D01*
X89567819Y-70855112D01*
X89535914Y-70819398D01*
X89472104Y-70783684D01*
X89408295Y-70783684D01*
X89344485Y-70819398D01*
X89312580Y-70855112D01*
X89280676Y-70926541D01*
X89248771Y-71069398D01*
X89248771Y-71247970D01*
X89280676Y-71390827D01*
X89312580Y-71462255D01*
X89344485Y-71497970D01*
X89408295Y-71533684D01*
X90397342Y-71569398D02*
X89823057Y-70605112D01*
X90844009Y-71176541D02*
X90620676Y-71176541D01*
X90620676Y-70783684D02*
X90620676Y-71533684D01*
X90939723Y-71533684D01*
X91131152Y-71533684D02*
X91577819Y-71533684D01*
X91290676Y-70783684D01*
X88977580Y-73333684D02*
X88594723Y-73333684D01*
X88786152Y-73333684D02*
X88786152Y-74083684D01*
X88722342Y-73976541D01*
X88658533Y-73905112D01*
X88594723Y-73869398D01*
X89583771Y-74083684D02*
X89264723Y-74083684D01*
X89232819Y-73726541D01*
X89264723Y-73762255D01*
X89328533Y-73797970D01*
X89488057Y-73797970D01*
X89551866Y-73762255D01*
X89583771Y-73726541D01*
X89615676Y-73655112D01*
X89615676Y-73476541D01*
X89583771Y-73405112D01*
X89551866Y-73369398D01*
X89488057Y-73333684D01*
X89328533Y-73333684D01*
X89264723Y-73369398D01*
X89232819Y-73405112D01*
X90381390Y-74119398D02*
X89807104Y-73155112D01*
X90828057Y-73726541D02*
X90923771Y-73690827D01*
X90955676Y-73655112D01*
X90987580Y-73583684D01*
X90987580Y-73476541D01*
X90955676Y-73405112D01*
X90923771Y-73369398D01*
X90859961Y-73333684D01*
X90604723Y-73333684D01*
X90604723Y-74083684D01*
X90828057Y-74083684D01*
X90891866Y-74047970D01*
X90923771Y-74012255D01*
X90955676Y-73940827D01*
X90955676Y-73869398D01*
X90923771Y-73797970D01*
X90891866Y-73762255D01*
X90828057Y-73726541D01*
X90604723Y-73726541D01*
X91625676Y-73333684D02*
X91242819Y-73333684D01*
X91434247Y-73333684D02*
X91434247Y-74083684D01*
X91370438Y-73976541D01*
X91306628Y-73905112D01*
X91242819Y-73869398D01*
X88977580Y-75883684D02*
X88594723Y-75883684D01*
X88786152Y-75883684D02*
X88786152Y-76633684D01*
X88722342Y-76526541D01*
X88658533Y-76455112D01*
X88594723Y-76419398D01*
X89551866Y-76383684D02*
X89551866Y-75883684D01*
X89392342Y-76669398D02*
X89232819Y-76133684D01*
X89647580Y-76133684D01*
X90381390Y-76669398D02*
X89807104Y-75705112D01*
X90828057Y-76276541D02*
X90923771Y-76240827D01*
X90955676Y-76205112D01*
X90987580Y-76133684D01*
X90987580Y-76026541D01*
X90955676Y-75955112D01*
X90923771Y-75919398D01*
X90859961Y-75883684D01*
X90604723Y-75883684D01*
X90604723Y-76633684D01*
X90828057Y-76633684D01*
X90891866Y-76597970D01*
X90923771Y-76562255D01*
X90955676Y-76490827D01*
X90955676Y-76419398D01*
X90923771Y-76347970D01*
X90891866Y-76312255D01*
X90828057Y-76276541D01*
X90604723Y-76276541D01*
X91210914Y-76633684D02*
X91625676Y-76633684D01*
X91402342Y-76347970D01*
X91498057Y-76347970D01*
X91561866Y-76312255D01*
X91593771Y-76276541D01*
X91625676Y-76205112D01*
X91625676Y-76026541D01*
X91593771Y-75955112D01*
X91561866Y-75919398D01*
X91498057Y-75883684D01*
X91306628Y-75883684D01*
X91242819Y-75919398D01*
X91210914Y-75955112D01*
X88977580Y-80933684D02*
X88594723Y-80933684D01*
X88786152Y-80933684D02*
X88786152Y-81683684D01*
X88722342Y-81576541D01*
X88658533Y-81505112D01*
X88594723Y-81469398D01*
X89392342Y-81683684D02*
X89456152Y-81683684D01*
X89519961Y-81647970D01*
X89551866Y-81612255D01*
X89583771Y-81540827D01*
X89615676Y-81397970D01*
X89615676Y-81219398D01*
X89583771Y-81076541D01*
X89551866Y-81005112D01*
X89519961Y-80969398D01*
X89456152Y-80933684D01*
X89392342Y-80933684D01*
X89328533Y-80969398D01*
X89296628Y-81005112D01*
X89264723Y-81076541D01*
X89232819Y-81219398D01*
X89232819Y-81397970D01*
X89264723Y-81540827D01*
X89296628Y-81612255D01*
X89328533Y-81647970D01*
X89392342Y-81683684D01*
X90381390Y-81719398D02*
X89807104Y-80755112D01*
X90828057Y-81326541D02*
X90923771Y-81290827D01*
X90955676Y-81255112D01*
X90987580Y-81183684D01*
X90987580Y-81076541D01*
X90955676Y-81005112D01*
X90923771Y-80969398D01*
X90859961Y-80933684D01*
X90604723Y-80933684D01*
X90604723Y-81683684D01*
X90828057Y-81683684D01*
X90891866Y-81647970D01*
X90923771Y-81612255D01*
X90955676Y-81540827D01*
X90955676Y-81469398D01*
X90923771Y-81397970D01*
X90891866Y-81362255D01*
X90828057Y-81326541D01*
X90604723Y-81326541D01*
X91561866Y-81683684D02*
X91434247Y-81683684D01*
X91370438Y-81647970D01*
X91338533Y-81612255D01*
X91274723Y-81505112D01*
X91242819Y-81362255D01*
X91242819Y-81076541D01*
X91274723Y-81005112D01*
X91306628Y-80969398D01*
X91370438Y-80933684D01*
X91498057Y-80933684D01*
X91561866Y-80969398D01*
X91593771Y-81005112D01*
X91625676Y-81076541D01*
X91625676Y-81255112D01*
X91593771Y-81326541D01*
X91561866Y-81362255D01*
X91498057Y-81397970D01*
X91370438Y-81397970D01*
X91306628Y-81362255D01*
X91274723Y-81326541D01*
X91242819Y-81255112D01*
X88977580Y-78433684D02*
X88594723Y-78433684D01*
X88786152Y-78433684D02*
X88786152Y-79183684D01*
X88722342Y-79076541D01*
X88658533Y-79005112D01*
X88594723Y-78969398D01*
X89551866Y-79183684D02*
X89424247Y-79183684D01*
X89360438Y-79147970D01*
X89328533Y-79112255D01*
X89264723Y-79005112D01*
X89232819Y-78862255D01*
X89232819Y-78576541D01*
X89264723Y-78505112D01*
X89296628Y-78469398D01*
X89360438Y-78433684D01*
X89488057Y-78433684D01*
X89551866Y-78469398D01*
X89583771Y-78505112D01*
X89615676Y-78576541D01*
X89615676Y-78755112D01*
X89583771Y-78826541D01*
X89551866Y-78862255D01*
X89488057Y-78897970D01*
X89360438Y-78897970D01*
X89296628Y-78862255D01*
X89264723Y-78826541D01*
X89232819Y-78755112D01*
X90381390Y-79219398D02*
X89807104Y-78255112D01*
X90828057Y-78826541D02*
X90923771Y-78790827D01*
X90955676Y-78755112D01*
X90987580Y-78683684D01*
X90987580Y-78576541D01*
X90955676Y-78505112D01*
X90923771Y-78469398D01*
X90859961Y-78433684D01*
X90604723Y-78433684D01*
X90604723Y-79183684D01*
X90828057Y-79183684D01*
X90891866Y-79147970D01*
X90923771Y-79112255D01*
X90955676Y-79040827D01*
X90955676Y-78969398D01*
X90923771Y-78897970D01*
X90891866Y-78862255D01*
X90828057Y-78826541D01*
X90604723Y-78826541D01*
X91242819Y-79112255D02*
X91274723Y-79147970D01*
X91338533Y-79183684D01*
X91498057Y-79183684D01*
X91561866Y-79147970D01*
X91593771Y-79112255D01*
X91625676Y-79040827D01*
X91625676Y-78969398D01*
X91593771Y-78862255D01*
X91210914Y-78433684D01*
X91625676Y-78433684D01*
X67527580Y-76226541D02*
X67750914Y-76226541D01*
X67846628Y-75833684D02*
X67527580Y-75833684D01*
X67527580Y-76583684D01*
X67846628Y-76583684D01*
X68420914Y-76583684D02*
X68293295Y-76583684D01*
X68229485Y-76547970D01*
X68197580Y-76512255D01*
X68133771Y-76405112D01*
X68101866Y-76262255D01*
X68101866Y-75976541D01*
X68133771Y-75905112D01*
X68165676Y-75869398D01*
X68229485Y-75833684D01*
X68357104Y-75833684D01*
X68420914Y-75869398D01*
X68452819Y-75905112D01*
X68484723Y-75976541D01*
X68484723Y-76155112D01*
X68452819Y-76226541D01*
X68420914Y-76262255D01*
X68357104Y-76297970D01*
X68229485Y-76297970D01*
X68165676Y-76262255D01*
X68133771Y-76226541D01*
X68101866Y-76155112D01*
X69250438Y-76619398D02*
X68676152Y-75655112D01*
X69409961Y-76583684D02*
X69856628Y-76583684D01*
X69569485Y-75833684D01*
X67495676Y-73283684D02*
X67495676Y-74033684D01*
X67655200Y-74033684D01*
X67750914Y-73997970D01*
X67814723Y-73926541D01*
X67846628Y-73855112D01*
X67878533Y-73712255D01*
X67878533Y-73605112D01*
X67846628Y-73462255D01*
X67814723Y-73390827D01*
X67750914Y-73319398D01*
X67655200Y-73283684D01*
X67495676Y-73283684D01*
X68101866Y-74033684D02*
X68548533Y-74033684D01*
X68261390Y-73283684D01*
X69282342Y-74069398D02*
X68708057Y-73105112D01*
X69792819Y-74033684D02*
X69665200Y-74033684D01*
X69601390Y-73997970D01*
X69569485Y-73962255D01*
X69505676Y-73855112D01*
X69473771Y-73712255D01*
X69473771Y-73426541D01*
X69505676Y-73355112D01*
X69537580Y-73319398D01*
X69601390Y-73283684D01*
X69729009Y-73283684D01*
X69792819Y-73319398D01*
X69824723Y-73355112D01*
X69856628Y-73426541D01*
X69856628Y-73605112D01*
X69824723Y-73676541D01*
X69792819Y-73712255D01*
X69729009Y-73747970D01*
X69601390Y-73747970D01*
X69537580Y-73712255D01*
X69505676Y-73676541D01*
X69473771Y-73605112D01*
X68649723Y-58897970D02*
X68585914Y-58933684D01*
X68490200Y-58933684D01*
X68394485Y-58897970D01*
X68330676Y-58826541D01*
X68298771Y-58755112D01*
X68266866Y-58612255D01*
X68266866Y-58505112D01*
X68298771Y-58362255D01*
X68330676Y-58290827D01*
X68394485Y-58219398D01*
X68490200Y-58183684D01*
X68554009Y-58183684D01*
X68649723Y-58219398D01*
X68681628Y-58255112D01*
X68681628Y-58505112D01*
X68554009Y-58505112D01*
X68968771Y-58183684D02*
X68968771Y-58933684D01*
X69351628Y-58183684D01*
X69351628Y-58933684D01*
X69670676Y-58183684D02*
X69670676Y-58933684D01*
X69830200Y-58933684D01*
X69925914Y-58897970D01*
X69989723Y-58826541D01*
X70021628Y-58755112D01*
X70053533Y-58612255D01*
X70053533Y-58505112D01*
X70021628Y-58362255D01*
X69989723Y-58290827D01*
X69925914Y-58219398D01*
X69830200Y-58183684D01*
X69670676Y-58183684D01*
X68649723Y-61347970D02*
X68585914Y-61383684D01*
X68490200Y-61383684D01*
X68394485Y-61347970D01*
X68330676Y-61276541D01*
X68298771Y-61205112D01*
X68266866Y-61062255D01*
X68266866Y-60955112D01*
X68298771Y-60812255D01*
X68330676Y-60740827D01*
X68394485Y-60669398D01*
X68490200Y-60633684D01*
X68554009Y-60633684D01*
X68649723Y-60669398D01*
X68681628Y-60705112D01*
X68681628Y-60955112D01*
X68554009Y-60955112D01*
X68968771Y-60633684D02*
X68968771Y-61383684D01*
X69351628Y-60633684D01*
X69351628Y-61383684D01*
X69670676Y-60633684D02*
X69670676Y-61383684D01*
X69830200Y-61383684D01*
X69925914Y-61347970D01*
X69989723Y-61276541D01*
X70021628Y-61205112D01*
X70053533Y-61062255D01*
X70053533Y-60955112D01*
X70021628Y-60812255D01*
X69989723Y-60740827D01*
X69925914Y-60669398D01*
X69830200Y-60633684D01*
X69670676Y-60633684D01*
X66471390Y-53033684D02*
X66471390Y-53783684D01*
X66630914Y-53783684D01*
X66726628Y-53747970D01*
X66790438Y-53676541D01*
X66822342Y-53605112D01*
X66854247Y-53462255D01*
X66854247Y-53355112D01*
X66822342Y-53212255D01*
X66790438Y-53140827D01*
X66726628Y-53069398D01*
X66630914Y-53033684D01*
X66471390Y-53033684D01*
X67077580Y-53783684D02*
X67492342Y-53783684D01*
X67269009Y-53497970D01*
X67364723Y-53497970D01*
X67428533Y-53462255D01*
X67460438Y-53426541D01*
X67492342Y-53355112D01*
X67492342Y-53176541D01*
X67460438Y-53105112D01*
X67428533Y-53069398D01*
X67364723Y-53033684D01*
X67173295Y-53033684D01*
X67109485Y-53069398D01*
X67077580Y-53105112D01*
X68258057Y-53819398D02*
X67683771Y-52855112D01*
X68385676Y-53783684D02*
X68768533Y-53783684D01*
X68577104Y-53033684D02*
X68577104Y-53783684D01*
X68928057Y-53783684D02*
X69374723Y-53033684D01*
X69374723Y-53783684D02*
X68928057Y-53033684D01*
X69757580Y-53783684D02*
X69821390Y-53783684D01*
X69885200Y-53747970D01*
X69917104Y-53712255D01*
X69949009Y-53640827D01*
X69980914Y-53497970D01*
X69980914Y-53319398D01*
X69949009Y-53176541D01*
X69917104Y-53105112D01*
X69885200Y-53069398D01*
X69821390Y-53033684D01*
X69757580Y-53033684D01*
X69693771Y-53069398D01*
X69661866Y-53105112D01*
X69629961Y-53176541D01*
X69598057Y-53319398D01*
X69598057Y-53497970D01*
X69629961Y-53640827D01*
X69661866Y-53712255D01*
X69693771Y-53747970D01*
X69757580Y-53783684D01*
X67495676Y-68183684D02*
X67495676Y-68933684D01*
X67655200Y-68933684D01*
X67750914Y-68897970D01*
X67814723Y-68826541D01*
X67846628Y-68755112D01*
X67878533Y-68612255D01*
X67878533Y-68505112D01*
X67846628Y-68362255D01*
X67814723Y-68290827D01*
X67750914Y-68219398D01*
X67655200Y-68183684D01*
X67495676Y-68183684D01*
X68452819Y-68683684D02*
X68452819Y-68183684D01*
X68293295Y-68969398D02*
X68133771Y-68433684D01*
X68548533Y-68433684D01*
X69282342Y-68969398D02*
X68708057Y-68005112D01*
X69792819Y-68683684D02*
X69792819Y-68183684D01*
X69633295Y-68969398D02*
X69473771Y-68433684D01*
X69888533Y-68433684D01*
X65021628Y-63319398D02*
X65117342Y-63283684D01*
X65276866Y-63283684D01*
X65340676Y-63319398D01*
X65372580Y-63355112D01*
X65404485Y-63426541D01*
X65404485Y-63497970D01*
X65372580Y-63569398D01*
X65340676Y-63605112D01*
X65276866Y-63640827D01*
X65149247Y-63676541D01*
X65085438Y-63712255D01*
X65053533Y-63747970D01*
X65021628Y-63819398D01*
X65021628Y-63890827D01*
X65053533Y-63962255D01*
X65085438Y-63997970D01*
X65149247Y-64033684D01*
X65308771Y-64033684D01*
X65404485Y-63997970D01*
X65691628Y-63283684D02*
X65691628Y-64033684D01*
X65851152Y-64033684D01*
X65946866Y-63997970D01*
X66010676Y-63926541D01*
X66042580Y-63855112D01*
X66074485Y-63712255D01*
X66074485Y-63605112D01*
X66042580Y-63462255D01*
X66010676Y-63390827D01*
X65946866Y-63319398D01*
X65851152Y-63283684D01*
X65691628Y-63283684D01*
X66329723Y-63497970D02*
X66648771Y-63497970D01*
X66265914Y-63283684D02*
X66489247Y-64033684D01*
X66712580Y-63283684D01*
X67414485Y-64069398D02*
X66840200Y-63105112D01*
X67637819Y-63283684D02*
X67637819Y-64033684D01*
X67797342Y-64033684D01*
X67893057Y-63997970D01*
X67956866Y-63926541D01*
X67988771Y-63855112D01*
X68020676Y-63712255D01*
X68020676Y-63605112D01*
X67988771Y-63462255D01*
X67956866Y-63390827D01*
X67893057Y-63319398D01*
X67797342Y-63283684D01*
X67637819Y-63283684D01*
X68658771Y-63283684D02*
X68275914Y-63283684D01*
X68467342Y-63283684D02*
X68467342Y-64033684D01*
X68403533Y-63926541D01*
X68339723Y-63855112D01*
X68275914Y-63819398D01*
X69424485Y-64069398D02*
X68850200Y-63105112D01*
X69615914Y-63962255D02*
X69647819Y-63997970D01*
X69711628Y-64033684D01*
X69871152Y-64033684D01*
X69934961Y-63997970D01*
X69966866Y-63962255D01*
X69998771Y-63890827D01*
X69998771Y-63819398D01*
X69966866Y-63712255D01*
X69584009Y-63283684D01*
X69998771Y-63283684D01*
X65037580Y-65819398D02*
X65133295Y-65783684D01*
X65292819Y-65783684D01*
X65356628Y-65819398D01*
X65388533Y-65855112D01*
X65420438Y-65926541D01*
X65420438Y-65997970D01*
X65388533Y-66069398D01*
X65356628Y-66105112D01*
X65292819Y-66140827D01*
X65165200Y-66176541D01*
X65101390Y-66212255D01*
X65069485Y-66247970D01*
X65037580Y-66319398D01*
X65037580Y-66390827D01*
X65069485Y-66462255D01*
X65101390Y-66497970D01*
X65165200Y-66533684D01*
X65324723Y-66533684D01*
X65420438Y-66497970D01*
X66090438Y-65855112D02*
X66058533Y-65819398D01*
X65962819Y-65783684D01*
X65899009Y-65783684D01*
X65803295Y-65819398D01*
X65739485Y-65890827D01*
X65707580Y-65962255D01*
X65675676Y-66105112D01*
X65675676Y-66212255D01*
X65707580Y-66355112D01*
X65739485Y-66426541D01*
X65803295Y-66497970D01*
X65899009Y-66533684D01*
X65962819Y-66533684D01*
X66058533Y-66497970D01*
X66090438Y-66462255D01*
X66696628Y-65783684D02*
X66377580Y-65783684D01*
X66377580Y-66533684D01*
X67398533Y-66569398D02*
X66824247Y-65605112D01*
X67621866Y-65783684D02*
X67621866Y-66533684D01*
X67781390Y-66533684D01*
X67877104Y-66497970D01*
X67940914Y-66426541D01*
X67972819Y-66355112D01*
X68004723Y-66212255D01*
X68004723Y-66105112D01*
X67972819Y-65962255D01*
X67940914Y-65890827D01*
X67877104Y-65819398D01*
X67781390Y-65783684D01*
X67621866Y-65783684D01*
X68419485Y-66533684D02*
X68483295Y-66533684D01*
X68547104Y-66497970D01*
X68579009Y-66462255D01*
X68610914Y-66390827D01*
X68642819Y-66247970D01*
X68642819Y-66069398D01*
X68610914Y-65926541D01*
X68579009Y-65855112D01*
X68547104Y-65819398D01*
X68483295Y-65783684D01*
X68419485Y-65783684D01*
X68355676Y-65819398D01*
X68323771Y-65855112D01*
X68291866Y-65926541D01*
X68259961Y-66069398D01*
X68259961Y-66247970D01*
X68291866Y-66390827D01*
X68323771Y-66462255D01*
X68355676Y-66497970D01*
X68419485Y-66533684D01*
X69408533Y-66569398D02*
X68834247Y-65605112D01*
X69568057Y-66533684D02*
X69982819Y-66533684D01*
X69759485Y-66247970D01*
X69855200Y-66247970D01*
X69919009Y-66212255D01*
X69950914Y-66176541D01*
X69982819Y-66105112D01*
X69982819Y-65926541D01*
X69950914Y-65855112D01*
X69919009Y-65819398D01*
X69855200Y-65783684D01*
X69663771Y-65783684D01*
X69599961Y-65819398D01*
X69568057Y-65855112D01*
X67878533Y-70805112D02*
X67846628Y-70769398D01*
X67750914Y-70733684D01*
X67687104Y-70733684D01*
X67591390Y-70769398D01*
X67527580Y-70840827D01*
X67495676Y-70912255D01*
X67463771Y-71055112D01*
X67463771Y-71162255D01*
X67495676Y-71305112D01*
X67527580Y-71376541D01*
X67591390Y-71447970D01*
X67687104Y-71483684D01*
X67750914Y-71483684D01*
X67846628Y-71447970D01*
X67878533Y-71412255D01*
X68452819Y-71483684D02*
X68325200Y-71483684D01*
X68261390Y-71447970D01*
X68229485Y-71412255D01*
X68165676Y-71305112D01*
X68133771Y-71162255D01*
X68133771Y-70876541D01*
X68165676Y-70805112D01*
X68197580Y-70769398D01*
X68261390Y-70733684D01*
X68389009Y-70733684D01*
X68452819Y-70769398D01*
X68484723Y-70805112D01*
X68516628Y-70876541D01*
X68516628Y-71055112D01*
X68484723Y-71126541D01*
X68452819Y-71162255D01*
X68389009Y-71197970D01*
X68261390Y-71197970D01*
X68197580Y-71162255D01*
X68165676Y-71126541D01*
X68133771Y-71055112D01*
X69282342Y-71519398D02*
X68708057Y-70555112D01*
X69824723Y-71483684D02*
X69505676Y-71483684D01*
X69473771Y-71126541D01*
X69505676Y-71162255D01*
X69569485Y-71197970D01*
X69729009Y-71197970D01*
X69792819Y-71162255D01*
X69824723Y-71126541D01*
X69856628Y-71055112D01*
X69856628Y-70876541D01*
X69824723Y-70805112D01*
X69792819Y-70769398D01*
X69729009Y-70733684D01*
X69569485Y-70733684D01*
X69505676Y-70769398D01*
X69473771Y-70805112D01*
X67719009Y-81276541D02*
X67814723Y-81240827D01*
X67846628Y-81205112D01*
X67878533Y-81133684D01*
X67878533Y-81026541D01*
X67846628Y-80955112D01*
X67814723Y-80919398D01*
X67750914Y-80883684D01*
X67495676Y-80883684D01*
X67495676Y-81633684D01*
X67719009Y-81633684D01*
X67782819Y-81597970D01*
X67814723Y-81562255D01*
X67846628Y-81490827D01*
X67846628Y-81419398D01*
X67814723Y-81347970D01*
X67782819Y-81312255D01*
X67719009Y-81276541D01*
X67495676Y-81276541D01*
X68484723Y-81633684D02*
X68165676Y-81633684D01*
X68133771Y-81276541D01*
X68165676Y-81312255D01*
X68229485Y-81347970D01*
X68389009Y-81347970D01*
X68452819Y-81312255D01*
X68484723Y-81276541D01*
X68516628Y-81205112D01*
X68516628Y-81026541D01*
X68484723Y-80955112D01*
X68452819Y-80919398D01*
X68389009Y-80883684D01*
X68229485Y-80883684D01*
X68165676Y-80919398D01*
X68133771Y-80955112D01*
X69282342Y-81669398D02*
X68708057Y-80705112D01*
X69537580Y-80883684D02*
X69665200Y-80883684D01*
X69729009Y-80919398D01*
X69760914Y-80955112D01*
X69824723Y-81062255D01*
X69856628Y-81205112D01*
X69856628Y-81490827D01*
X69824723Y-81562255D01*
X69792819Y-81597970D01*
X69729009Y-81633684D01*
X69601390Y-81633684D01*
X69537580Y-81597970D01*
X69505676Y-81562255D01*
X69473771Y-81490827D01*
X69473771Y-81312255D01*
X69505676Y-81240827D01*
X69537580Y-81205112D01*
X69601390Y-81169398D01*
X69729009Y-81169398D01*
X69792819Y-81205112D01*
X69824723Y-81240827D01*
X69856628Y-81312255D01*
X66391628Y-55583684D02*
X66391628Y-56333684D01*
X66551152Y-56333684D01*
X66646866Y-56297970D01*
X66710676Y-56226541D01*
X66742580Y-56155112D01*
X66774485Y-56012255D01*
X66774485Y-55905112D01*
X66742580Y-55762255D01*
X66710676Y-55690827D01*
X66646866Y-55619398D01*
X66551152Y-55583684D01*
X66391628Y-55583684D01*
X67029723Y-56262255D02*
X67061628Y-56297970D01*
X67125438Y-56333684D01*
X67284961Y-56333684D01*
X67348771Y-56297970D01*
X67380676Y-56262255D01*
X67412580Y-56190827D01*
X67412580Y-56119398D01*
X67380676Y-56012255D01*
X66997819Y-55583684D01*
X67412580Y-55583684D01*
X68178295Y-56369398D02*
X67604009Y-55405112D01*
X68784485Y-55583684D02*
X68561152Y-55940827D01*
X68401628Y-55583684D02*
X68401628Y-56333684D01*
X68656866Y-56333684D01*
X68720676Y-56297970D01*
X68752580Y-56262255D01*
X68784485Y-56190827D01*
X68784485Y-56083684D01*
X68752580Y-56012255D01*
X68720676Y-55976541D01*
X68656866Y-55940827D01*
X68401628Y-55940827D01*
X69007819Y-56333684D02*
X69454485Y-55583684D01*
X69454485Y-56333684D02*
X69007819Y-55583684D01*
X70060676Y-55583684D02*
X69677819Y-55583684D01*
X69869247Y-55583684D02*
X69869247Y-56333684D01*
X69805438Y-56226541D01*
X69741628Y-56155112D01*
X69677819Y-56119398D01*
X67719009Y-78776541D02*
X67814723Y-78740827D01*
X67846628Y-78705112D01*
X67878533Y-78633684D01*
X67878533Y-78526541D01*
X67846628Y-78455112D01*
X67814723Y-78419398D01*
X67750914Y-78383684D01*
X67495676Y-78383684D01*
X67495676Y-79133684D01*
X67719009Y-79133684D01*
X67782819Y-79097970D01*
X67814723Y-79062255D01*
X67846628Y-78990827D01*
X67846628Y-78919398D01*
X67814723Y-78847970D01*
X67782819Y-78812255D01*
X67719009Y-78776541D01*
X67495676Y-78776541D01*
X68452819Y-78883684D02*
X68452819Y-78383684D01*
X68293295Y-79169398D02*
X68133771Y-78633684D01*
X68548533Y-78633684D01*
X69282342Y-79169398D02*
X68708057Y-78205112D01*
X69601390Y-78812255D02*
X69537580Y-78847970D01*
X69505676Y-78883684D01*
X69473771Y-78955112D01*
X69473771Y-78990827D01*
X69505676Y-79062255D01*
X69537580Y-79097970D01*
X69601390Y-79133684D01*
X69729009Y-79133684D01*
X69792819Y-79097970D01*
X69824723Y-79062255D01*
X69856628Y-78990827D01*
X69856628Y-78955112D01*
X69824723Y-78883684D01*
X69792819Y-78847970D01*
X69729009Y-78812255D01*
X69601390Y-78812255D01*
X69537580Y-78776541D01*
X69505676Y-78740827D01*
X69473771Y-78669398D01*
X69473771Y-78526541D01*
X69505676Y-78455112D01*
X69537580Y-78419398D01*
X69601390Y-78383684D01*
X69729009Y-78383684D01*
X69792819Y-78419398D01*
X69824723Y-78455112D01*
X69856628Y-78526541D01*
X69856628Y-78669398D01*
X69824723Y-78740827D01*
X69792819Y-78776541D01*
X69729009Y-78812255D01*
D12*
X81761628Y-49212255D02*
X81761628Y-48462255D01*
X81511628Y-48997970D01*
X81261628Y-48462255D01*
X81261628Y-49212255D01*
X80904485Y-49212255D02*
X80904485Y-48712255D01*
X80904485Y-48462255D02*
X80940200Y-48497970D01*
X80904485Y-48533684D01*
X80868771Y-48497970D01*
X80904485Y-48462255D01*
X80904485Y-48533684D01*
X80225914Y-49176541D02*
X80297342Y-49212255D01*
X80440200Y-49212255D01*
X80511628Y-49176541D01*
X80547342Y-49140827D01*
X80583057Y-49069398D01*
X80583057Y-48855112D01*
X80547342Y-48783684D01*
X80511628Y-48747970D01*
X80440200Y-48712255D01*
X80297342Y-48712255D01*
X80225914Y-48747970D01*
X79904485Y-49212255D02*
X79904485Y-48712255D01*
X79904485Y-48855112D02*
X79868771Y-48783684D01*
X79833057Y-48747970D01*
X79761628Y-48712255D01*
X79690200Y-48712255D01*
X79333057Y-49212255D02*
X79404485Y-49176541D01*
X79440200Y-49140827D01*
X79475914Y-49069398D01*
X79475914Y-48855112D01*
X79440200Y-48783684D01*
X79404485Y-48747970D01*
X79333057Y-48712255D01*
X79225914Y-48712255D01*
X79154485Y-48747970D01*
X79118771Y-48783684D01*
X79083057Y-48855112D01*
X79083057Y-49069398D01*
X79118771Y-49140827D01*
X79154485Y-49176541D01*
X79225914Y-49212255D01*
X79333057Y-49212255D01*
X78761628Y-48462255D02*
X78761628Y-49069398D01*
X78725914Y-49140827D01*
X78690200Y-49176541D01*
X78618771Y-49212255D01*
X78475914Y-49212255D01*
X78404485Y-49176541D01*
X78368771Y-49140827D01*
X78333057Y-49069398D01*
X78333057Y-48462255D01*
X78011628Y-49176541D02*
X77904485Y-49212255D01*
X77725914Y-49212255D01*
X77654485Y-49176541D01*
X77618771Y-49140827D01*
X77583057Y-49069398D01*
X77583057Y-48997970D01*
X77618771Y-48926541D01*
X77654485Y-48890827D01*
X77725914Y-48855112D01*
X77868771Y-48819398D01*
X77940200Y-48783684D01*
X77975914Y-48747970D01*
X78011628Y-48676541D01*
X78011628Y-48605112D01*
X77975914Y-48533684D01*
X77940200Y-48497970D01*
X77868771Y-48462255D01*
X77690200Y-48462255D01*
X77583057Y-48497970D01*
X77011628Y-48819398D02*
X76904485Y-48855112D01*
X76868771Y-48890827D01*
X76833057Y-48962255D01*
X76833057Y-49069398D01*
X76868771Y-49140827D01*
X76904485Y-49176541D01*
X76975914Y-49212255D01*
X77261628Y-49212255D01*
X77261628Y-48462255D01*
X77011628Y-48462255D01*
X76940200Y-48497970D01*
X76904485Y-48533684D01*
X76868771Y-48605112D01*
X76868771Y-48676541D01*
X76904485Y-48747970D01*
X76940200Y-48783684D01*
X77011628Y-48819398D01*
X77261628Y-48819398D01*
D11*
X220957104Y-77465350D02*
X220385676Y-77465350D01*
X220671390Y-78465350D02*
X220671390Y-77465350D01*
X219480914Y-78465350D02*
X219814247Y-77989160D01*
X220052342Y-78465350D02*
X220052342Y-77465350D01*
X219671390Y-77465350D01*
X219576152Y-77512970D01*
X219528533Y-77560589D01*
X219480914Y-77655827D01*
X219480914Y-77798684D01*
X219528533Y-77893922D01*
X219576152Y-77941541D01*
X219671390Y-77989160D01*
X220052342Y-77989160D01*
X218480914Y-78465350D02*
X218814247Y-77989160D01*
X219052342Y-78465350D02*
X219052342Y-77465350D01*
X218671390Y-77465350D01*
X218576152Y-77512970D01*
X218528533Y-77560589D01*
X218480914Y-77655827D01*
X218480914Y-77798684D01*
X218528533Y-77893922D01*
X218576152Y-77941541D01*
X218671390Y-77989160D01*
X219052342Y-77989160D01*
X218099961Y-78417731D02*
X217957104Y-78465350D01*
X217719009Y-78465350D01*
X217623771Y-78417731D01*
X217576152Y-78370112D01*
X217528533Y-78274874D01*
X217528533Y-78179636D01*
X217576152Y-78084398D01*
X217623771Y-78036779D01*
X217719009Y-77989160D01*
X217909485Y-77941541D01*
X218004723Y-77893922D01*
X218052342Y-77846303D01*
X218099961Y-77751065D01*
X218099961Y-77655827D01*
X218052342Y-77560589D01*
X218004723Y-77512970D01*
X217909485Y-77465350D01*
X217671390Y-77465350D01*
X217528533Y-77512970D01*
X234863260Y-74746205D02*
X234863260Y-75317633D01*
X235863260Y-75031919D02*
X234863260Y-75031919D01*
X235863260Y-76222395D02*
X235387070Y-75889062D01*
X235863260Y-75650967D02*
X234863260Y-75650967D01*
X234863260Y-76031919D01*
X234910880Y-76127157D01*
X234958499Y-76174776D01*
X235053737Y-76222395D01*
X235196594Y-76222395D01*
X235291832Y-76174776D01*
X235339451Y-76127157D01*
X235387070Y-76031919D01*
X235387070Y-75650967D01*
X235863260Y-77222395D02*
X235387070Y-76889062D01*
X235863260Y-76650967D02*
X234863260Y-76650967D01*
X234863260Y-77031919D01*
X234910880Y-77127157D01*
X234958499Y-77174776D01*
X235053737Y-77222395D01*
X235196594Y-77222395D01*
X235291832Y-77174776D01*
X235339451Y-77127157D01*
X235387070Y-77031919D01*
X235387070Y-76650967D01*
X235815641Y-77603348D02*
X235863260Y-77746205D01*
X235863260Y-77984300D01*
X235815641Y-78079538D01*
X235768022Y-78127157D01*
X235672784Y-78174776D01*
X235577546Y-78174776D01*
X235482308Y-78127157D01*
X235434689Y-78079538D01*
X235387070Y-77984300D01*
X235339451Y-77793824D01*
X235291832Y-77698586D01*
X235244213Y-77650967D01*
X235148975Y-77603348D01*
X235053737Y-77603348D01*
X234958499Y-77650967D01*
X234910880Y-77698586D01*
X234863260Y-77793824D01*
X234863260Y-78031919D01*
X234910880Y-78174776D01*
X219155406Y-83694710D02*
X219488740Y-83218520D01*
X219726835Y-83694710D02*
X219726835Y-82694710D01*
X219345882Y-82694710D01*
X219250644Y-82742330D01*
X219203025Y-82789949D01*
X219155406Y-82885187D01*
X219155406Y-83028044D01*
X219203025Y-83123282D01*
X219250644Y-83170901D01*
X219345882Y-83218520D01*
X219726835Y-83218520D01*
X218774454Y-82789949D02*
X218726835Y-82742330D01*
X218631597Y-82694710D01*
X218393501Y-82694710D01*
X218298263Y-82742330D01*
X218250644Y-82789949D01*
X218203025Y-82885187D01*
X218203025Y-82980425D01*
X218250644Y-83123282D01*
X218822073Y-83694710D01*
X218203025Y-83694710D01*
X209784140Y-77051003D02*
X209307950Y-76717670D01*
X209784140Y-76479574D02*
X208784140Y-76479574D01*
X208784140Y-76860527D01*
X208831760Y-76955765D01*
X208879379Y-77003384D01*
X208974617Y-77051003D01*
X209117474Y-77051003D01*
X209212712Y-77003384D01*
X209260331Y-76955765D01*
X209307950Y-76860527D01*
X209307950Y-76479574D01*
X208784140Y-77384336D02*
X208784140Y-78003384D01*
X209165093Y-77670050D01*
X209165093Y-77812908D01*
X209212712Y-77908146D01*
X209260331Y-77955765D01*
X209355569Y-78003384D01*
X209593664Y-78003384D01*
X209688902Y-77955765D01*
X209736521Y-77908146D01*
X209784140Y-77812908D01*
X209784140Y-77527193D01*
X209736521Y-77431955D01*
X209688902Y-77384336D01*
M02*
