M48
; DRILL file {KiCad (5.1.5)-3} date 2020/06/17 21:34:28
; FORMAT={-:-/ absolute / metric / decimal}
; #@! TF.CreationDate,2020-06-17T21:34:28+09:00
; #@! TF.GenerationSoftware,Kicad,Pcbnew,(5.1.5)-3
; #@! TF.FileFunction,Plated,1,2,PTH
FMAT,2
METRIC
T1C0.300
T2C0.400
T3C0.800
T4C0.813
T5C1.000
%
G90
G05
T1
X62.548Y-60.263
X62.548Y-71.693
X62.548Y-83.123
X62.548Y-95.823
X62.548Y-107.253
X62.548Y-118.683
X62.548Y-131.383
X62.548Y-145.353
X62.548Y-160.593
X62.548Y-172.023
X67.628Y-100.903
X68.898Y-177.103
X79.058Y-135.193
X79.058Y-154.243
X80.328Y-100.903
X80.328Y-117.413
X81.598Y-177.103
X99.378Y-177.103
X103.188Y-67.883
X103.188Y-100.903
X108.268Y-118.683
X109.601Y-72.772
X110.808Y-137.733
X113.348Y-156.783
X114.618Y-51.373
X114.618Y-60.263
X115.888Y-177.103
X122.238Y-100.903
X128.588Y-51.373
X129.858Y-74.423
X132.398Y-69.153
X132.398Y-118.683
X134.938Y-177.103
X136.208Y-137.733
X141.288Y-100.903
X141.288Y-156.783
X146.368Y-51.373
X148.463Y-76.201
X151.448Y-69.153
X151.448Y-118.683
X155.258Y-137.733
X157.798Y-177.103
X160.338Y-100.903
X160.338Y-156.783
X166.688Y-51.373
X167.704Y-77.598
X170.498Y-69.153
X170.498Y-118.683
X174.308Y-137.733
X176.848Y-177.103
X179.388Y-100.903
X183.198Y-156.783
X183.198Y-156.783
X185.738Y-51.373
X188.278Y-118.683
X189.548Y-69.153
X193.358Y-137.733
X193.358Y-177.103
X198.438Y-100.903
X204.788Y-156.783
X208.598Y-51.373
X208.598Y-118.683
X211.138Y-177.103
X212.408Y-137.733
X215.825Y-111.408
X217.488Y-69.153
X217.488Y-100.903
X218.758Y-51.373
X221.298Y-122.493
X225.108Y-132.653
X225.108Y-147.893
X225.108Y-161.863
X225.108Y-177.103
X230.188Y-55.183
X230.188Y-65.343
X231.458Y-104.713
X231.458Y-113.603
X231.458Y-119.953
X232.728Y-72.963
X232.728Y-97.093
X232.728Y-127.573
X233.998Y-51.373
X235.268Y-133.923
X237.808Y-69.153
X239.078Y-141.543
X242.888Y-50.103
X242.888Y-116.143
X242.888Y-150.433
X242.888Y-160.593
X242.888Y-170.753
X244.158Y-67.883
X246.698Y-136.463
X249.238Y-175.833
X250.508Y-50.103
X251.778Y-97.093
X255.588Y-71.693
X255.588Y-155.513
X259.398Y-50.103
X261.938Y-116.143
X264.478Y-175.833
X267.018Y-136.463
X269.558Y-50.103
X270.828Y-71.693
X270.828Y-97.093
X274.638Y-75.503
X278.448Y-75.503
X278.448Y-155.513
X279.718Y-50.103
X280.988Y-116.143
X280.988Y-175.833
X286.068Y-136.463
X288.608Y-50.103
X289.878Y-97.093
X293.688Y-75.503
X296.228Y-155.513
X297.498Y-50.103
X298.768Y-175.833
X300.038Y-116.143
X305.118Y-75.503
X305.118Y-136.463
X307.658Y-50.103
X308.928Y-97.093
X311.468Y-175.833
X315.278Y-155.513
X316.548Y-50.103
X319.088Y-116.143
X320.358Y-76.773
X322.898Y-69.153
X324.168Y-136.463
X325.438Y-50.103
X327.978Y-97.093
X327.978Y-175.833
X333.058Y-69.153
X334.328Y-155.513
X335.598Y-50.103
X338.138Y-116.143
X340.678Y-78.043
X341.948Y-81.853
X343.218Y-136.463
X343.218Y-175.833
X345.758Y-79.313
X347.028Y-50.103
X347.028Y-97.093
X350.838Y-79.313
X352.108Y-155.513
X357.188Y-116.143
X358.458Y-50.103
X358.458Y-70.423
X358.458Y-79.313
X359.728Y-175.833
X360.998Y-136.463
X364.808Y-70.423
X366.078Y-97.093
X367.348Y-121.223
X369.888Y-50.103
X374.968Y-175.833
X376.238Y-70.423
X378.778Y-155.513
X381.318Y-128.843
X382.588Y-50.103
X385.128Y-97.093
X385.636Y-66.74
X386.398Y-70.423
X387.668Y-175.833
X390.208Y-50.103
X395.288Y-123.763
X398.145Y-96.331
X398.399Y-124.144
X401.13Y-101.03
X401.638Y-175.833
X402.654Y-88.457
X409.258Y-100.903
X409.258Y-114.873
X409.258Y-136.463
X409.258Y-155.513
X414.338Y-175.833
X416.878Y-51.373
X420.688Y-56.453
X420.688Y-65.343
X420.688Y-72.963
X420.688Y-83.123
X420.688Y-93.283
X420.688Y-103.443
X420.688Y-113.603
X420.688Y-125.033
X420.688Y-139.003
X420.688Y-150.433
X420.688Y-160.593
X420.688Y-170.753
T2
X67.437Y-95.442
X75.184Y-77.217
X78.169Y-78.741
X80.772Y-79.63
X85.24Y-123.128
X86.043Y-144.591
X87.313Y-162.625
X186.36Y-78.729
X198.692Y-82.234
X201.041Y-83.821
X382.334Y-52.135
T4
X396.284Y-53.425
X396.284Y-55.965
X396.284Y-58.505
X396.284Y-61.045
X396.284Y-63.585
X396.284Y-66.125
X396.284Y-68.665
X396.284Y-71.205
X396.284Y-73.745
X396.284Y-76.285
X396.284Y-78.825
X396.284Y-81.365
X411.504Y-53.425
X411.504Y-55.965
X411.504Y-58.505
X411.504Y-61.045
X411.504Y-63.585
X411.504Y-66.125
X411.504Y-68.665
X411.504Y-71.205
X411.504Y-73.745
X411.504Y-76.285
X411.504Y-78.825
X411.504Y-81.365
X71.654Y-53.345
X71.654Y-55.885
X71.654Y-58.425
X71.654Y-60.965
X71.654Y-63.505
X71.654Y-66.045
X71.654Y-68.585
X71.654Y-71.125
X71.654Y-73.665
X71.654Y-76.205
X71.654Y-78.745
X71.654Y-81.285
X86.874Y-53.345
X86.874Y-55.885
X86.874Y-58.425
X86.874Y-60.965
X86.874Y-63.505
X86.874Y-66.045
X86.874Y-68.585
X86.874Y-71.125
X86.874Y-73.665
X86.874Y-76.205
X86.874Y-78.745
X86.874Y-81.285
T3
G00X69.896Y-126.854
M15
G01X70.296Y-126.854
M16
G05
G00X76.246Y-124.314
M15
G01X76.646Y-124.314
M16
G05
G00X333.795Y-107.794
M15
G01X334.195Y-107.794
M16
G05
G00X340.145Y-105.254
M15
G01X340.545Y-105.254
M16
G05
G00X203.246Y-126.854
M15
G01X203.646Y-126.854
M16
G05
G00X209.596Y-124.314
M15
G01X209.996Y-124.314
M16
G05
G00X286.17Y-88.744
M15
G01X286.57Y-88.744
M16
G05
G00X292.52Y-86.204
M15
G01X292.92Y-86.204
M16
G05
G00X281.408Y-126.844
M15
G01X281.808Y-126.844
M16
G05
G00X287.758Y-124.304
M15
G01X288.158Y-124.304
M16
G05
G00X290.933Y-145.894
M15
G01X291.333Y-145.894
M16
G05
G00X297.283Y-143.354
M15
G01X297.683Y-143.354
M16
G05
G00X208.009Y-145.904
M15
G01X208.409Y-145.904
M16
G05
G00X214.359Y-143.364
M15
G01X214.759Y-143.364
M16
G05
G00X329.033Y-145.894
M15
G01X329.433Y-145.894
M16
G05
G00X335.383Y-143.354
M15
G01X335.783Y-143.354
M16
G05
G00X343.32Y-60.169
M15
G01X343.72Y-60.169
M16
G05
G00X349.67Y-57.629
M15
G01X350.07Y-57.629
M16
G05
G00X119.903Y-164.954
M15
G01X120.303Y-164.954
M16
G05
G00X126.253Y-162.414
M15
G01X126.653Y-162.414
M16
G05
G00X122.284Y-60.179
M15
G01X122.684Y-60.179
M16
G05
G00X128.634Y-57.639
M15
G01X129.034Y-57.639
M16
G05
G00X100.853Y-126.854
M15
G01X101.253Y-126.854
M16
G05
G00X107.203Y-124.314
M15
G01X107.603Y-124.314
M16
G05
G00X314.745Y-107.794
M15
G01X315.145Y-107.794
M16
G05
G00X321.095Y-105.254
M15
G01X321.495Y-105.254
M16
G05
G00X69.896Y-145.904
M15
G01X70.296Y-145.904
M16
G05
G00X76.246Y-143.364
M15
G01X76.646Y-143.364
M16
G05
G00X295.695Y-107.794
M15
G01X296.095Y-107.794
M16
G05
G00X302.045Y-105.254
M15
G01X302.445Y-105.254
M16
G05
G00X405.233Y-164.944
M15
G01X405.633Y-164.944
M16
G05
G00X411.583Y-162.404
M15
G01X411.983Y-162.404
M16
G05
G00X374.276Y-145.894
M15
G01X374.676Y-145.894
M16
G05
G00X380.626Y-143.354
M15
G01X381.026Y-143.354
M16
G05
G00X252.833Y-145.894
M15
G01X253.233Y-145.894
M16
G05
G00X259.183Y-143.354
M15
G01X259.583Y-143.354
M16
G05
G00X165.146Y-164.954
M15
G01X165.546Y-164.954
M16
G05
G00X171.496Y-162.414
M15
G01X171.896Y-162.414
M16
G05
G00X324.27Y-60.169
M15
G01X324.67Y-60.169
M16
G05
G00X330.62Y-57.629
M15
G01X331.02Y-57.629
M16
G05
G00X205.628Y-164.954
M15
G01X206.028Y-164.954
M16
G05
G00X211.978Y-162.414
M15
G01X212.378Y-162.414
M16
G05
G00X150.859Y-88.754
M15
G01X151.259Y-88.754
M16
G05
G00X157.209Y-86.214
M15
G01X157.609Y-86.214
M16
G05
G00X324.27Y-88.744
M15
G01X324.67Y-88.744
M16
G05
G00X330.62Y-86.204
M15
G01X331.02Y-86.204
M16
G05
G00X127.046Y-126.854
M15
G01X127.446Y-126.854
M16
G05
G00X133.396Y-124.314
M15
G01X133.796Y-124.314
M16
G05
G00X248.07Y-88.744
M15
G01X248.47Y-88.744
M16
G05
G00X254.42Y-86.204
M15
G01X254.82Y-86.204
M16
G05
G00X69.896Y-107.804
M15
G01X70.296Y-107.804
M16
G05
G00X76.246Y-105.264
M15
G01X76.646Y-105.264
M16
G05
G00X238.545Y-107.794
M15
G01X238.945Y-107.794
M16
G05
G00X244.895Y-105.254
M15
G01X245.295Y-105.254
M16
G05
G00X379.039Y-164.944
M15
G01X379.439Y-164.944
M16
G05
G00X385.389Y-162.404
M15
G01X385.789Y-162.404
M16
G05
G00X379.039Y-117.319
M15
G01X379.439Y-117.319
M16
G05
G00X385.389Y-114.779
M15
G01X385.789Y-114.779
M16
G05
G00X69.896Y-164.954
M15
G01X70.296Y-164.954
M16
G05
G00X76.246Y-162.414
M15
G01X76.646Y-162.414
M16
G05
G00X141.334Y-60.179
M15
G01X141.734Y-60.179
M16
G05
G00X147.684Y-57.639
M15
G01X148.084Y-57.639
M16
G05
G00X96.09Y-164.954
M15
G01X96.49Y-164.954
M16
G05
G00X102.44Y-162.414
M15
G01X102.84Y-162.414
M16
G05
G00X131.809Y-88.754
M15
G01X132.209Y-88.754
M16
G05
G00X138.159Y-86.214
M15
G01X138.559Y-86.214
M16
G05
G00X160.384Y-60.179
M15
G01X160.784Y-60.179
M16
G05
G00X166.734Y-57.639
M15
G01X167.134Y-57.639
M16
G05
G00X98.471Y-107.804
M15
G01X98.871Y-107.804
M16
G05
G00X104.821Y-105.264
M15
G01X105.221Y-105.264
M16
G05
G00X352.845Y-107.794
M15
G01X353.245Y-107.794
M16
G05
G00X359.195Y-105.254
M15
G01X359.595Y-105.254
M16
G05
G00X141.334Y-107.804
M15
G01X141.734Y-107.804
M16
G05
G00X147.684Y-105.264
M15
G01X148.084Y-105.264
M16
G05
G00X362.37Y-60.169
M15
G01X362.77Y-60.169
M16
G05
G00X368.72Y-57.629
M15
G01X369.12Y-57.629
M16
G05
G00X165.146Y-126.854
M15
G01X165.546Y-126.854
M16
G05
G00X171.496Y-124.314
M15
G01X171.896Y-124.314
M16
G05
G00X276.645Y-107.794
M15
G01X277.045Y-107.794
M16
G05
G00X282.995Y-105.254
M15
G01X283.395Y-105.254
M16
G05
G00X319.508Y-164.944
M15
G01X319.908Y-164.944
M16
G05
G00X325.858Y-162.404
M15
G01X326.258Y-162.404
M16
G05
G00X271.883Y-145.894
M15
G01X272.283Y-145.894
M16
G05
G00X278.233Y-143.354
M15
G01X278.633Y-143.354
M16
G05
G00X243.308Y-126.844
M15
G01X243.708Y-126.844
M16
G05
G00X249.658Y-124.304
M15
G01X250.058Y-124.304
M16
G05
G00X169.909Y-145.904
M15
G01X170.309Y-145.904
M16
G05
G00X176.259Y-143.364
M15
G01X176.659Y-143.364
M16
G05
G00X184.196Y-164.954
M15
G01X184.596Y-164.954
M16
G05
G00X190.546Y-162.414
M15
G01X190.946Y-162.414
M16
G05
G00X112.759Y-88.754
M15
G01X113.159Y-88.754
M16
G05
G00X119.109Y-86.214
M15
G01X119.509Y-86.214
M16
G05
G00X146.096Y-126.854
M15
G01X146.496Y-126.854
M16
G05
G00X152.446Y-124.314
M15
G01X152.846Y-124.314
M16
G05
G00X405.233Y-88.744
M15
G01X405.633Y-88.744
M16
G05
G00X411.583Y-86.204
M15
G01X411.983Y-86.204
M16
G05
G00X131.809Y-145.904
M15
G01X132.209Y-145.904
M16
G05
G00X138.159Y-143.364
M15
G01X138.559Y-143.364
M16
G05
G00X362.37Y-88.744
M15
G01X362.77Y-88.744
M16
G05
G00X368.72Y-86.204
M15
G01X369.12Y-86.204
M16
G05
G00X179.434Y-107.804
M15
G01X179.834Y-107.804
M16
G05
G00X185.784Y-105.264
M15
G01X186.184Y-105.264
M16
G05
G00X257.595Y-107.794
M15
G01X257.995Y-107.794
M16
G05
G00X263.945Y-105.254
M15
G01X264.345Y-105.254
M16
G05
G00X281.408Y-164.944
M15
G01X281.808Y-164.944
M16
G05
G00X287.758Y-162.404
M15
G01X288.158Y-162.404
M16
G05
G00X405.233Y-107.794
M15
G01X405.633Y-107.794
M16
G05
G00X411.583Y-105.254
M15
G01X411.983Y-105.254
M16
G05
G00X338.558Y-164.944
M15
G01X338.958Y-164.944
M16
G05
G00X344.908Y-162.404
M15
G01X345.308Y-162.404
M16
G05
G00X405.233Y-126.844
M15
G01X405.633Y-126.844
M16
G05
G00X411.583Y-124.304
M15
G01X411.983Y-124.304
M16
G05
G00X300.458Y-164.944
M15
G01X300.858Y-164.944
M16
G05
G00X306.808Y-162.404
M15
G01X307.208Y-162.404
M16
G05
G00X150.859Y-145.904
M15
G01X151.259Y-145.904
M16
G05
G00X157.209Y-143.364
M15
G01X157.609Y-143.364
M16
G05
G00X405.233Y-145.894
M15
G01X405.633Y-145.894
M16
G05
G00X411.583Y-143.354
M15
G01X411.983Y-143.354
M16
G05
G00X295.695Y-60.169
M15
G01X296.095Y-60.169
M16
G05
G00X302.045Y-57.629
M15
G01X302.445Y-57.629
M16
G05
G00X93.709Y-60.179
M15
G01X94.109Y-60.179
M16
G05
G00X100.059Y-57.639
M15
G01X100.459Y-57.639
M16
G05
G00X208.009Y-60.179
M15
G01X208.409Y-60.179
M16
G05
G00X214.359Y-57.639
M15
G01X214.759Y-57.639
M16
G05
G00X179.434Y-60.179
M15
G01X179.834Y-60.179
M16
G05
G00X185.784Y-57.639
M15
G01X186.184Y-57.639
M16
G05
G00X169.909Y-88.754
M15
G01X170.309Y-88.754
M16
G05
G00X176.259Y-86.214
M15
G01X176.659Y-86.214
M16
G05
G00X160.384Y-107.804
M15
G01X160.784Y-107.804
M16
G05
G00X166.734Y-105.264
M15
G01X167.134Y-105.264
M16
G05
G00X381.42Y-88.744
M15
G01X381.82Y-88.744
M16
G05
G00X387.77Y-86.204
M15
G01X388.17Y-86.204
M16
G05
G00X184.196Y-126.854
M15
G01X184.596Y-126.854
M16
G05
G00X190.546Y-124.314
M15
G01X190.946Y-124.314
M16
G05
G00X343.32Y-88.744
M15
G01X343.72Y-88.744
M16
G05
G00X349.67Y-86.204
M15
G01X350.07Y-86.204
M16
G05
G00X122.284Y-107.804
M15
G01X122.684Y-107.804
M16
G05
G00X128.634Y-105.264
M15
G01X129.034Y-105.264
M16
G05
G00X305.22Y-88.744
M15
G01X305.62Y-88.744
M16
G05
G00X311.57Y-86.204
M15
G01X311.97Y-86.204
M16
G05
G00X357.608Y-126.844
M15
G01X358.008Y-126.844
M16
G05
G00X363.958Y-124.304
M15
G01X364.358Y-124.304
M16
G05
G00X262.358Y-126.844
M15
G01X262.758Y-126.844
M16
G05
G00X268.708Y-124.304
M15
G01X269.108Y-124.304
M16
G05
G00X348.083Y-145.894
M15
G01X348.483Y-145.894
M16
G05
G00X354.433Y-143.354
M15
G01X354.833Y-143.354
M16
G05
G00X259.976Y-164.944
M15
G01X260.376Y-164.944
M16
G05
G00X266.326Y-162.404
M15
G01X266.726Y-162.404
M16
G05
G00X188.959Y-145.904
M15
G01X189.359Y-145.904
M16
G05
G00X195.309Y-143.364
M15
G01X195.709Y-143.364
M16
G05
G00X143.715Y-164.954
M15
G01X144.115Y-164.954
M16
G05
G00X150.065Y-162.414
M15
G01X150.465Y-162.414
M16
G05
G00X69.896Y-88.754
M15
G01X70.296Y-88.754
M16
G05
G00X76.246Y-86.214
M15
G01X76.646Y-86.214
M16
G05
G00X93.709Y-88.754
M15
G01X94.109Y-88.754
M16
G05
G00X100.059Y-86.214
M15
G01X100.459Y-86.214
M16
G05
G00X208.009Y-88.754
M15
G01X208.409Y-88.754
M16
G05
G00X214.359Y-86.214
M15
G01X214.759Y-86.214
M16
G05
G00X267.12Y-88.744
M15
G01X267.52Y-88.744
M16
G05
G00X273.47Y-86.204
M15
G01X273.87Y-86.204
M16
G05
G00X103.234Y-145.904
M15
G01X103.634Y-145.904
M16
G05
G00X109.584Y-143.364
M15
G01X109.984Y-143.364
M16
G05
G00X381.42Y-60.169
M15
G01X381.82Y-60.169
M16
G05
G00X387.77Y-57.629
M15
G01X388.17Y-57.629
M16
G05
G00X198.484Y-107.804
M15
G01X198.884Y-107.804
M16
G05
G00X204.834Y-105.264
M15
G01X205.234Y-105.264
M16
G05
G00X300.458Y-126.844
M15
G01X300.858Y-126.844
M16
G05
G00X306.808Y-124.304
M15
G01X307.208Y-124.304
M16
G05
G00X338.558Y-126.844
M15
G01X338.958Y-126.844
M16
G05
G00X344.908Y-124.304
M15
G01X345.308Y-124.304
M16
G05
G00X319.508Y-126.844
M15
G01X319.908Y-126.844
M16
G05
G00X325.858Y-124.304
M15
G01X326.258Y-124.304
M16
G05
G00X309.983Y-145.894
M15
G01X310.383Y-145.894
M16
G05
G00X316.333Y-143.354
M15
G01X316.733Y-143.354
M16
G05
G00X257.595Y-60.169
M15
G01X257.995Y-60.169
M16
G05
G00X263.945Y-57.629
M15
G01X264.345Y-57.629
M16
G05
G00X357.608Y-164.944
M15
G01X358.008Y-164.944
M16
G05
G00X363.958Y-162.404
M15
G01X364.358Y-162.404
M16
G05
G00X238.545Y-60.169
M15
G01X238.945Y-60.169
M16
G05
G00X244.895Y-57.629
M15
G01X245.295Y-57.629
M16
G05
G00X276.645Y-60.169
M15
G01X277.045Y-60.169
M16
G05
G00X282.995Y-57.629
M15
G01X283.395Y-57.629
M16
G05
G00X188.959Y-88.754
M15
G01X189.359Y-88.754
M16
G05
G00X195.309Y-86.214
M15
G01X195.709Y-86.214
M16
G05
T5
G00X231.878Y-88.217
M15
G01X231.878Y-88.617
M16
G05
G00X231.878Y-92.717
M15
G01X231.878Y-93.117
M16
G05
G00X238.378Y-88.217
M15
G01X238.378Y-88.617
M16
G05
G00X238.378Y-92.717
M15
G01X238.378Y-93.117
M16
G05
G00X215.825Y-106.708
M15
G01X215.825Y-107.108
M16
G05
G00X215.825Y-111.208
M15
G01X215.825Y-111.608
M16
G05
G00X222.325Y-106.708
M15
G01X222.325Y-107.108
M16
G05
G00X222.325Y-111.208
M15
G01X222.325Y-111.608
M16
G05
G00X232.511Y-79.358
M15
G01X232.011Y-79.358
M16
G05
G00X235.511Y-79.358
M15
G01X235.011Y-79.358
M16
G05
G00X239.511Y-79.358
M15
G01X239.011Y-79.358
M16
G05
G00X241.011Y-75.158
M15
G01X240.511Y-75.158
M16
G05
G00X213.595Y-79.363
M15
G01X214.095Y-79.363
M16
G05
G00X215.095Y-75.163
M15
G01X215.595Y-75.163
M16
G05
G00X219.095Y-75.163
M15
G01X219.595Y-75.163
M16
G05
G00X222.095Y-75.163
M15
G01X222.595Y-75.163
M16
G05
T0
M30
