  0
SECTION
  2
HEADER
  9
$ACADVER
  1
AC1009
  9
$EXTMIN
 10
0.0
 20
0.0
 30
0.0
  9
$EXTMAX
 10
1000.0
 20
1000.0
 30
0.0
  9
$FILLMODE
 70
 0
  9
$SPLFRAME
 70
 1
  0
ENDSEC
  0
SECTION
  2
TABLES
  0
TABLE
  2
LAYER
 70
1
  0
LAYER
  2
0
 70
     0
 62
     7
  6
CONTINUOUS
  0
ENDTAB
  0
ENDSEC
  0
SECTION
  2
ENTITIES
  0
LINE
  8
0
 62
     0
 10
0.0950846
 20
129.021
 30
0.0
 11
185.833
 21
129.021
 31
0.0
  0
LINE
  8
0
 62
     0
 10
185.833
 20
129.021
 30
0.0
 11
185.833
 21
0.434082
 31
0.0
  0
LINE
  8
0
 62
     0
 10
185.833
 20
0.434082
 30
0.0
 11
0.0950846
 21
0.434082
 31
0.0
  0
LINE
  8
0
 62
     0
 10
0.0950846
 20
0.434082
 30
0.0
 11
0.0950846
 21
129.021
 31
0.0
  0
LINE
  8
0
 62
     0
 10
169.307
 20
16.9595
 30
0.0
 11
183.307
 21
16.9595
 31
0.0
  0
LINE
  8
0
 62
     0
 10
183.307
 20
16.9595
 30
0.0
 11
183.307
 21
2.96003
 31
0.0
  0
LINE
  8
0
 62
     0
 10
183.307
 20
2.96003
 30
0.0
 11
169.307
 21
2.96003
 31
0.0
  0
LINE
  8
0
 62
     0
 10
169.307
 20
2.96003
 30
0.0
 11
169.307
 21
16.9595
 31
0.0
  0
LINE
  8
0
 62
     0
 10
143.112
 20
16.9595
 30
0.0
 11
157.113
 21
16.9595
 31
0.0
  0
LINE
  8
0
 62
     0
 10
157.113
 20
16.9595
 30
0.0
 11
157.113
 21
2.96003
 31
0.0
  0
LINE
  8
0
 62
     0
 10
157.113
 20
2.96003
 30
0.0
 11
143.112
 21
2.96003
 31
0.0
  0
LINE
  8
0
 62
     0
 10
143.112
 20
2.96003
 30
0.0
 11
143.112
 21
16.9595
 31
0.0
  0
LINE
  8
0
 62
     0
 10
121.682
 20
16.9595
 30
0.0
 11
135.682
 21
16.9595
 31
0.0
  0
LINE
  8
0
 62
     0
 10
135.682
 20
16.9595
 30
0.0
 11
135.682
 21
2.96003
 31
0.0
  0
LINE
  8
0
 62
     0
 10
135.682
 20
2.96003
 30
0.0
 11
121.682
 21
2.96003
 31
0.0
  0
LINE
  8
0
 62
     0
 10
121.682
 20
2.96003
 30
0.0
 11
121.682
 21
16.9595
 31
0.0
  0
LINE
  8
0
 62
     0
 10
102.632
 20
16.9595
 30
0.0
 11
116.632
 21
16.9595
 31
0.0
  0
LINE
  8
0
 62
     0
 10
116.632
 20
16.9595
 30
0.0
 11
116.632
 21
2.96003
 31
0.0
  0
LINE
  8
0
 62
     0
 10
116.632
 20
2.96003
 30
0.0
 11
102.632
 21
2.96003
 31
0.0
  0
LINE
  8
0
 62
     0
 10
102.632
 20
2.96003
 30
0.0
 11
102.632
 21
16.9595
 31
0.0
  0
LINE
  8
0
 62
     0
 10
83.5822
 20
16.9595
 30
0.0
 11
97.5815
 21
16.9595
 31
0.0
  0
LINE
  8
0
 62
     0
 10
97.5815
 20
16.9595
 30
0.0
 11
97.5815
 21
2.96003
 31
0.0
  0
LINE
  8
0
 62
     0
 10
97.5815
 20
2.96003
 30
0.0
 11
83.5822
 21
2.96003
 31
0.0
  0
LINE
  8
0
 62
     0
 10
83.5822
 20
2.96003
 30
0.0
 11
83.5822
 21
16.9595
 31
0.0
  0
LINE
  8
0
 62
     0
 10
64.5322
 20
16.9595
 30
0.0
 11
78.5315
 21
16.9595
 31
0.0
  0
LINE
  8
0
 62
     0
 10
78.5315
 20
16.9595
 30
0.0
 11
78.5315
 21
2.96003
 31
0.0
  0
LINE
  8
0
 62
     0
 10
78.5315
 20
2.96003
 30
0.0
 11
64.5322
 21
2.96003
 31
0.0
  0
LINE
  8
0
 62
     0
 10
64.5322
 20
2.96003
 30
0.0
 11
64.5322
 21
16.9595
 31
0.0
  0
LINE
  8
0
 62
     0
 10
45.4822
 20
16.9595
 30
0.0
 11
59.4815
 21
16.9595
 31
0.0
  0
LINE
  8
0
 62
     0
 10
59.4815
 20
16.9595
 30
0.0
 11
59.4815
 21
2.96003
 31
0.0
  0
LINE
  8
0
 62
     0
 10
59.4815
 20
2.96003
 30
0.0
 11
45.4822
 21
2.96003
 31
0.0
  0
LINE
  8
0
 62
     0
 10
45.4822
 20
2.96003
 30
0.0
 11
45.4822
 21
16.9595
 31
0.0
  0
LINE
  8
0
 62
     0
 10
24.0509
 20
16.9595
 30
0.0
 11
38.0503
 21
16.9595
 31
0.0
  0
LINE
  8
0
 62
     0
 10
38.0503
 20
16.9595
 30
0.0
 11
38.0503
 21
2.96003
 31
0.0
  0
LINE
  8
0
 62
     0
 10
38.0503
 20
2.96003
 30
0.0
 11
24.0509
 21
2.96003
 31
0.0
  0
LINE
  8
0
 62
     0
 10
24.0509
 20
2.96003
 30
0.0
 11
24.0509
 21
16.9595
 31
0.0
  0
LINE
  8
0
 62
     0
 10
169.307
 20
36.0094
 30
0.0
 11
183.307
 21
36.0094
 31
0.0
  0
LINE
  8
0
 62
     0
 10
183.307
 20
36.0094
 30
0.0
 11
183.307
 21
22.01
 31
0.0
  0
LINE
  8
0
 62
     0
 10
183.307
 20
22.01
 30
0.0
 11
169.307
 21
22.01
 31
0.0
  0
LINE
  8
0
 62
     0
 10
169.307
 20
22.01
 30
0.0
 11
169.307
 21
36.0094
 31
0.0
  0
LINE
  8
0
 62
     0
 10
138.351
 20
36.0094
 30
0.0
 11
152.35
 21
36.0094
 31
0.0
  0
LINE
  8
0
 62
     0
 10
152.35
 20
36.0094
 30
0.0
 11
152.35
 21
22.01
 31
0.0
  0
LINE
  8
0
 62
     0
 10
152.35
 20
22.01
 30
0.0
 11
138.351
 21
22.01
 31
0.0
  0
LINE
  8
0
 62
     0
 10
138.351
 20
22.01
 30
0.0
 11
138.351
 21
36.0094
 31
0.0
  0
LINE
  8
0
 62
     0
 10
112.157
 20
36.0094
 30
0.0
 11
126.157
 21
36.0094
 31
0.0
  0
LINE
  8
0
 62
     0
 10
126.157
 20
36.0094
 30
0.0
 11
126.157
 21
22.01
 31
0.0
  0
LINE
  8
0
 62
     0
 10
126.157
 20
22.01
 30
0.0
 11
112.157
 21
22.01
 31
0.0
  0
LINE
  8
0
 62
     0
 10
112.157
 20
22.01
 30
0.0
 11
112.157
 21
36.0094
 31
0.0
  0
LINE
  8
0
 62
     0
 10
93.1072
 20
36.0094
 30
0.0
 11
107.107
 21
36.0094
 31
0.0
  0
LINE
  8
0
 62
     0
 10
107.107
 20
36.0094
 30
0.0
 11
107.107
 21
22.01
 31
0.0
  0
LINE
  8
0
 62
     0
 10
107.107
 20
22.01
 30
0.0
 11
93.1072
 21
22.01
 31
0.0
  0
LINE
  8
0
 62
     0
 10
93.1072
 20
22.01
 30
0.0
 11
93.1072
 21
36.0094
 31
0.0
  0
LINE
  8
0
 62
     0
 10
74.0572
 20
36.0094
 30
0.0
 11
88.0565
 21
36.0094
 31
0.0
  0
LINE
  8
0
 62
     0
 10
88.0565
 20
36.0094
 30
0.0
 11
88.0565
 21
22.01
 31
0.0
  0
LINE
  8
0
 62
     0
 10
88.0565
 20
22.01
 30
0.0
 11
74.0572
 21
22.01
 31
0.0
  0
LINE
  8
0
 62
     0
 10
74.0572
 20
22.01
 30
0.0
 11
74.0572
 21
36.0094
 31
0.0
  0
LINE
  8
0
 62
     0
 10
55.0072
 20
36.0094
 30
0.0
 11
69.0065
 21
36.0094
 31
0.0
  0
LINE
  8
0
 62
     0
 10
69.0065
 20
36.0094
 30
0.0
 11
69.0065
 21
22.01
 31
0.0
  0
LINE
  8
0
 62
     0
 10
69.0065
 20
22.01
 30
0.0
 11
55.0072
 21
22.01
 31
0.0
  0
LINE
  8
0
 62
     0
 10
55.0072
 20
22.01
 30
0.0
 11
55.0072
 21
36.0094
 31
0.0
  0
LINE
  8
0
 62
     0
 10
35.9572
 20
36.0094
 30
0.0
 11
49.9565
 21
36.0094
 31
0.0
  0
LINE
  8
0
 62
     0
 10
49.9565
 20
36.0094
 30
0.0
 11
49.9565
 21
22.01
 31
0.0
  0
LINE
  8
0
 62
     0
 10
49.9565
 20
22.01
 30
0.0
 11
35.9572
 21
22.01
 31
0.0
  0
LINE
  8
0
 62
     0
 10
35.9572
 20
22.01
 30
0.0
 11
35.9572
 21
36.0094
 31
0.0
  0
LINE
  8
0
 62
     0
 10
16.9072
 20
36.0094
 30
0.0
 11
30.9066
 21
36.0094
 31
0.0
  0
LINE
  8
0
 62
     0
 10
30.9066
 20
36.0094
 30
0.0
 11
30.9066
 21
22.01
 31
0.0
  0
LINE
  8
0
 62
     0
 10
30.9066
 20
22.01
 30
0.0
 11
16.9072
 21
22.01
 31
0.0
  0
LINE
  8
0
 62
     0
 10
16.9072
 20
22.01
 30
0.0
 11
16.9072
 21
36.0094
 31
0.0
  0
LINE
  8
0
 62
     0
 10
169.307
 20
55.0594
 30
0.0
 11
183.307
 21
55.0594
 31
0.0
  0
LINE
  8
0
 62
     0
 10
183.307
 20
55.0594
 30
0.0
 11
183.307
 21
41.0602
 31
0.0
  0
LINE
  8
0
 62
     0
 10
183.307
 20
41.0602
 30
0.0
 11
169.307
 21
41.0602
 31
0.0
  0
LINE
  8
0
 62
     0
 10
169.307
 20
41.0602
 30
0.0
 11
169.307
 21
55.0594
 31
0.0
  0
LINE
  8
0
 62
     0
 10
121.682
 20
55.0594
 30
0.0
 11
135.682
 21
55.0594
 31
0.0
  0
LINE
  8
0
 62
     0
 10
135.682
 20
55.0594
 30
0.0
 11
135.682
 21
41.0602
 31
0.0
  0
LINE
  8
0
 62
     0
 10
135.682
 20
41.0602
 30
0.0
 11
121.682
 21
41.0602
 31
0.0
  0
LINE
  8
0
 62
     0
 10
121.682
 20
41.0602
 30
0.0
 11
121.682
 21
55.0594
 31
0.0
  0
LINE
  8
0
 62
     0
 10
102.632
 20
55.0594
 30
0.0
 11
116.632
 21
55.0594
 31
0.0
  0
LINE
  8
0
 62
     0
 10
116.632
 20
55.0594
 30
0.0
 11
116.632
 21
41.0602
 31
0.0
  0
LINE
  8
0
 62
     0
 10
116.632
 20
41.0602
 30
0.0
 11
102.632
 21
41.0602
 31
0.0
  0
LINE
  8
0
 62
     0
 10
102.632
 20
41.0602
 30
0.0
 11
102.632
 21
55.0594
 31
0.0
  0
LINE
  8
0
 62
     0
 10
83.5822
 20
55.0594
 30
0.0
 11
97.5815
 21
55.0594
 31
0.0
  0
LINE
  8
0
 62
     0
 10
97.5815
 20
55.0594
 30
0.0
 11
97.5815
 21
41.0602
 31
0.0
  0
LINE
  8
0
 62
     0
 10
97.5815
 20
41.0602
 30
0.0
 11
83.5822
 21
41.0602
 31
0.0
  0
LINE
  8
0
 62
     0
 10
83.5822
 20
41.0602
 30
0.0
 11
83.5822
 21
55.0594
 31
0.0
  0
LINE
  8
0
 62
     0
 10
64.5322
 20
55.0594
 30
0.0
 11
78.5315
 21
55.0594
 31
0.0
  0
LINE
  8
0
 62
     0
 10
78.5315
 20
55.0594
 30
0.0
 11
78.5315
 21
41.0602
 31
0.0
  0
LINE
  8
0
 62
     0
 10
78.5315
 20
41.0602
 30
0.0
 11
64.5322
 21
41.0602
 31
0.0
  0
LINE
  8
0
 62
     0
 10
64.5322
 20
41.0602
 30
0.0
 11
64.5322
 21
55.0594
 31
0.0
  0
LINE
  8
0
 62
     0
 10
45.4822
 20
55.0594
 30
0.0
 11
59.4815
 21
55.0594
 31
0.0
  0
LINE
  8
0
 62
     0
 10
59.4815
 20
55.0594
 30
0.0
 11
59.4815
 21
41.0602
 31
0.0
  0
LINE
  8
0
 62
     0
 10
59.4815
 20
41.0602
 30
0.0
 11
45.4822
 21
41.0602
 31
0.0
  0
LINE
  8
0
 62
     0
 10
45.4822
 20
41.0602
 30
0.0
 11
45.4822
 21
55.0594
 31
0.0
  0
LINE
  8
0
 62
     0
 10
26.4322
 20
55.0594
 30
0.0
 11
40.4315
 21
55.0594
 31
0.0
  0
LINE
  8
0
 62
     0
 10
40.4315
 20
55.0594
 30
0.0
 11
40.4315
 21
41.0602
 31
0.0
  0
LINE
  8
0
 62
     0
 10
40.4315
 20
41.0602
 30
0.0
 11
26.4322
 21
41.0602
 31
0.0
  0
LINE
  8
0
 62
     0
 10
26.4322
 20
41.0602
 30
0.0
 11
26.4322
 21
55.0594
 31
0.0
  0
LINE
  8
0
 62
     0
 10
7.38216
 20
55.0594
 30
0.0
 11
21.3817
 21
55.0594
 31
0.0
  0
LINE
  8
0
 62
     0
 10
21.3817
 20
55.0594
 30
0.0
 11
21.3817
 21
41.0602
 31
0.0
  0
LINE
  8
0
 62
     0
 10
21.3817
 20
41.0602
 30
0.0
 11
7.38216
 21
41.0602
 31
0.0
  0
LINE
  8
0
 62
     0
 10
7.38216
 20
41.0602
 30
0.0
 11
7.38216
 21
55.0594
 31
0.0
  0
LINE
  8
0
 62
     0
 10
149.612
 20
73.685
 30
0.0
 11
149.612
 21
72.8595
 31
0.0
  0
LINE
  8
0
 62
     0
 10
149.612
 20
72.8595
 30
0.0
 11
143.342
 21
72.8595
 31
0.0
  0
LINE
  8
0
 62
     0
 10
143.342
 20
72.8595
 30
0.0
 11
143.342
 21
71.1359
 31
0.0
  0
LINE
  8
0
 62
     0
 10
143.342
 20
71.1359
 30
0.0
 11
142.362
 21
71.1359
 31
0.0
  0
LINE
  8
0
 62
     0
 10
142.362
 20
71.1359
 30
0.0
 11
142.362
 21
67.8353
 31
0.0
  0
LINE
  8
0
 62
     0
 10
142.362
 20
67.8353
 30
0.0
 11
143.342
 21
67.8353
 31
0.0
  0
LINE
  8
0
 62
     0
 10
143.342
 20
67.8353
 30
0.0
 11
143.342
 21
66.1098
 31
0.0
  0
LINE
  8
0
 62
     0
 10
143.342
 20
66.1098
 30
0.0
 11
147.812
 21
66.1098
 31
0.0
  0
LINE
  8
0
 62
     0
 10
147.812
 20
66.1098
 30
0.0
 11
147.812
 21
64.5844
 31
0.0
  0
LINE
  8
0
 62
     0
 10
147.812
 20
64.5844
 30
0.0
 11
143.112
 21
64.5844
 31
0.0
  0
LINE
  8
0
 62
     0
 10
143.112
 20
64.5844
 30
0.0
 11
143.112
 21
50.5852
 31
0.0
  0
LINE
  8
0
 62
     0
 10
143.112
 20
50.5852
 30
0.0
 11
147.812
 21
50.5852
 31
0.0
  0
LINE
  8
0
 62
     0
 10
147.812
 20
50.5852
 30
0.0
 11
147.812
 21
49.0594
 31
0.0
  0
LINE
  8
0
 62
     0
 10
147.812
 20
49.0594
 30
0.0
 11
143.342
 21
49.0594
 31
0.0
  0
LINE
  8
0
 62
     0
 10
143.342
 20
49.0594
 30
0.0
 11
143.342
 21
47.3357
 31
0.0
  0
LINE
  8
0
 62
     0
 10
143.342
 20
47.3357
 30
0.0
 11
142.362
 21
47.3357
 31
0.0
  0
LINE
  8
0
 62
     0
 10
142.362
 20
47.3357
 30
0.0
 11
142.362
 21
44.0351
 31
0.0
  0
LINE
  8
0
 62
     0
 10
142.362
 20
44.0351
 30
0.0
 11
143.342
 21
44.0351
 31
0.0
  0
LINE
  8
0
 62
     0
 10
143.342
 20
44.0351
 30
0.0
 11
143.342
 21
42.31
 31
0.0
  0
LINE
  8
0
 62
     0
 10
143.342
 20
42.31
 30
0.0
 11
149.612
 21
42.31
 31
0.0
  0
LINE
  8
0
 62
     0
 10
149.612
 20
42.31
 30
0.0
 11
149.612
 21
41.486
 31
0.0
  0
LINE
  8
0
 62
     0
 10
149.612
 20
41.486
 30
0.0
 11
152.412
 21
41.486
 31
0.0
  0
LINE
  8
0
 62
     0
 10
152.412
 20
41.486
 30
0.0
 11
152.412
 21
42.31
 31
0.0
  0
LINE
  8
0
 62
     0
 10
152.412
 20
42.31
 30
0.0
 11
155.642
 21
42.31
 31
0.0
  0
LINE
  8
0
 62
     0
 10
155.642
 20
42.31
 30
0.0
 11
155.642
 21
44.0351
 31
0.0
  0
LINE
  8
0
 62
     0
 10
155.642
 20
44.0351
 30
0.0
 11
156.563
 21
44.0351
 31
0.0
  0
LINE
  8
0
 62
     0
 10
156.563
 20
44.0351
 30
0.0
 11
156.563
 21
47.3357
 31
0.0
  0
LINE
  8
0
 62
     0
 10
156.563
 20
47.3357
 30
0.0
 11
155.642
 21
47.3357
 31
0.0
  0
LINE
  8
0
 62
     0
 10
155.642
 20
47.3357
 30
0.0
 11
155.642
 21
49.0594
 31
0.0
  0
LINE
  8
0
 62
     0
 10
155.642
 20
49.0594
 30
0.0
 11
152.412
 21
49.0594
 31
0.0
  0
LINE
  8
0
 62
     0
 10
152.412
 20
49.0594
 30
0.0
 11
152.412
 21
50.5852
 31
0.0
  0
LINE
  8
0
 62
     0
 10
152.412
 20
50.5852
 30
0.0
 11
157.113
 21
50.5852
 31
0.0
  0
LINE
  8
0
 62
     0
 10
157.113
 20
50.5852
 30
0.0
 11
157.113
 21
64.5844
 31
0.0
  0
LINE
  8
0
 62
     0
 10
157.113
 20
64.5844
 30
0.0
 11
152.412
 21
64.5844
 31
0.0
  0
LINE
  8
0
 62
     0
 10
152.412
 20
64.5844
 30
0.0
 11
152.412
 21
66.1098
 31
0.0
  0
LINE
  8
0
 62
     0
 10
152.412
 20
66.1098
 30
0.0
 11
155.642
 21
66.1098
 31
0.0
  0
LINE
  8
0
 62
     0
 10
155.642
 20
66.1098
 30
0.0
 11
155.642
 21
67.8353
 31
0.0
  0
LINE
  8
0
 62
     0
 10
155.642
 20
67.8353
 30
0.0
 11
156.563
 21
67.8353
 31
0.0
  0
LINE
  8
0
 62
     0
 10
156.563
 20
67.8353
 30
0.0
 11
156.563
 21
71.1359
 31
0.0
  0
LINE
  8
0
 62
     0
 10
156.563
 20
71.1359
 30
0.0
 11
155.642
 21
71.1359
 31
0.0
  0
LINE
  8
0
 62
     0
 10
155.642
 20
71.1359
 30
0.0
 11
155.642
 21
72.8595
 31
0.0
  0
LINE
  8
0
 62
     0
 10
155.642
 20
72.8595
 30
0.0
 11
152.412
 21
72.8595
 31
0.0
  0
LINE
  8
0
 62
     0
 10
152.412
 20
72.8595
 30
0.0
 11
152.412
 21
73.685
 31
0.0
  0
LINE
  8
0
 62
     0
 10
152.412
 20
73.685
 30
0.0
 11
149.612
 21
73.685
 31
0.0
  0
LINE
  8
0
 62
     0
 10
169.307
 20
74.1094
 30
0.0
 11
183.307
 21
74.1094
 31
0.0
  0
LINE
  8
0
 62
     0
 10
183.307
 20
74.1094
 30
0.0
 11
183.307
 21
60.1102
 31
0.0
  0
LINE
  8
0
 62
     0
 10
183.307
 20
60.1102
 30
0.0
 11
169.307
 21
60.1102
 31
0.0
  0
LINE
  8
0
 62
     0
 10
169.307
 20
60.1102
 30
0.0
 11
169.307
 21
74.1094
 31
0.0
  0
LINE
  8
0
 62
     0
 10
116.918
 20
74.1094
 30
0.0
 11
130.919
 21
74.1094
 31
0.0
  0
LINE
  8
0
 62
     0
 10
130.919
 20
74.1094
 30
0.0
 11
130.919
 21
60.1102
 31
0.0
  0
LINE
  8
0
 62
     0
 10
130.919
 20
60.1102
 30
0.0
 11
116.918
 21
60.1102
 31
0.0
  0
LINE
  8
0
 62
     0
 10
116.918
 20
60.1102
 30
0.0
 11
116.918
 21
74.1094
 31
0.0
  0
LINE
  8
0
 62
     0
 10
97.8683
 20
74.1094
 30
0.0
 11
111.869
 21
74.1094
 31
0.0
  0
LINE
  8
0
 62
     0
 10
111.869
 20
74.1094
 30
0.0
 11
111.869
 21
60.1102
 31
0.0
  0
LINE
  8
0
 62
     0
 10
111.869
 20
60.1102
 30
0.0
 11
97.8683
 21
60.1102
 31
0.0
  0
LINE
  8
0
 62
     0
 10
97.8683
 20
60.1102
 30
0.0
 11
97.8683
 21
74.1094
 31
0.0
  0
LINE
  8
0
 62
     0
 10
78.8197
 20
74.1094
 30
0.0
 11
92.819
 21
74.1094
 31
0.0
  0
LINE
  8
0
 62
     0
 10
92.819
 20
74.1094
 30
0.0
 11
92.819
 21
60.1102
 31
0.0
  0
LINE
  8
0
 62
     0
 10
92.819
 20
60.1102
 30
0.0
 11
78.8197
 21
60.1102
 31
0.0
  0
LINE
  8
0
 62
     0
 10
78.8197
 20
60.1102
 30
0.0
 11
78.8197
 21
74.1094
 31
0.0
  0
LINE
  8
0
 62
     0
 10
59.7697
 20
74.1094
 30
0.0
 11
73.769
 21
74.1094
 31
0.0
  0
LINE
  8
0
 62
     0
 10
73.769
 20
74.1094
 30
0.0
 11
73.769
 21
60.1102
 31
0.0
  0
LINE
  8
0
 62
     0
 10
73.769
 20
60.1102
 30
0.0
 11
59.7697
 21
60.1102
 31
0.0
  0
LINE
  8
0
 62
     0
 10
59.7697
 20
60.1102
 30
0.0
 11
59.7697
 21
74.1094
 31
0.0
  0
LINE
  8
0
 62
     0
 10
40.7197
 20
74.1094
 30
0.0
 11
54.719
 21
74.1094
 31
0.0
  0
LINE
  8
0
 62
     0
 10
54.719
 20
74.1094
 30
0.0
 11
54.719
 21
60.1102
 31
0.0
  0
LINE
  8
0
 62
     0
 10
54.719
 20
60.1102
 30
0.0
 11
40.7197
 21
60.1102
 31
0.0
  0
LINE
  8
0
 62
     0
 10
40.7197
 20
60.1102
 30
0.0
 11
40.7197
 21
74.1094
 31
0.0
  0
LINE
  8
0
 62
     0
 10
21.6697
 20
74.1094
 30
0.0
 11
35.669
 21
74.1094
 31
0.0
  0
LINE
  8
0
 62
     0
 10
35.669
 20
74.1094
 30
0.0
 11
35.669
 21
60.1102
 31
0.0
  0
LINE
  8
0
 62
     0
 10
35.669
 20
60.1102
 30
0.0
 11
21.6697
 21
60.1102
 31
0.0
  0
LINE
  8
0
 62
     0
 10
21.6697
 20
60.1102
 30
0.0
 11
21.6697
 21
74.1094
 31
0.0
  0
LINE
  8
0
 62
     0
 10
2.61965
 20
74.1094
 30
0.0
 11
16.6192
 21
74.1094
 31
0.0
  0
LINE
  8
0
 62
     0
 10
16.6192
 20
74.1094
 30
0.0
 11
16.6192
 21
60.1102
 31
0.0
  0
LINE
  8
0
 62
     0
 10
16.6192
 20
60.1102
 30
0.0
 11
2.61965
 21
60.1102
 31
0.0
  0
LINE
  8
0
 62
     0
 10
2.61965
 20
60.1102
 30
0.0
 11
2.61965
 21
74.1094
 31
0.0
  0
LINE
  8
0
 62
     0
 10
169.307
 20
93.1594
 30
0.0
 11
183.307
 21
93.1594
 31
0.0
  0
LINE
  8
0
 62
     0
 10
183.307
 20
93.1594
 30
0.0
 11
183.307
 21
79.1602
 31
0.0
  0
LINE
  8
0
 62
     0
 10
183.307
 20
79.1602
 30
0.0
 11
169.307
 21
79.1602
 31
0.0
  0
LINE
  8
0
 62
     0
 10
169.307
 20
79.1602
 30
0.0
 11
169.307
 21
93.1594
 31
0.0
  0
LINE
  8
0
 62
     0
 10
145.495
 20
93.1594
 30
0.0
 11
159.494
 21
93.1594
 31
0.0
  0
LINE
  8
0
 62
     0
 10
159.494
 20
93.1594
 30
0.0
 11
159.494
 21
79.1602
 31
0.0
  0
LINE
  8
0
 62
     0
 10
159.494
 20
79.1602
 30
0.0
 11
145.495
 21
79.1602
 31
0.0
  0
LINE
  8
0
 62
     0
 10
145.495
 20
79.1602
 30
0.0
 11
145.495
 21
93.1594
 31
0.0
  0
LINE
  8
0
 62
     0
 10
126.445
 20
93.1594
 30
0.0
 11
140.444
 21
93.1594
 31
0.0
  0
LINE
  8
0
 62
     0
 10
140.444
 20
93.1594
 30
0.0
 11
140.444
 21
79.1602
 31
0.0
  0
LINE
  8
0
 62
     0
 10
140.444
 20
79.1602
 30
0.0
 11
126.445
 21
79.1602
 31
0.0
  0
LINE
  8
0
 62
     0
 10
126.445
 20
79.1602
 30
0.0
 11
126.445
 21
93.1594
 31
0.0
  0
LINE
  8
0
 62
     0
 10
107.395
 20
93.1594
 30
0.0
 11
121.394
 21
93.1594
 31
0.0
  0
LINE
  8
0
 62
     0
 10
121.394
 20
93.1594
 30
0.0
 11
121.394
 21
79.1602
 31
0.0
  0
LINE
  8
0
 62
     0
 10
121.394
 20
79.1602
 30
0.0
 11
107.395
 21
79.1602
 31
0.0
  0
LINE
  8
0
 62
     0
 10
107.395
 20
79.1602
 30
0.0
 11
107.395
 21
93.1594
 31
0.0
  0
LINE
  8
0
 62
     0
 10
88.3447
 20
93.1594
 30
0.0
 11
102.344
 21
93.1594
 31
0.0
  0
LINE
  8
0
 62
     0
 10
102.344
 20
93.1594
 30
0.0
 11
102.344
 21
79.1602
 31
0.0
  0
LINE
  8
0
 62
     0
 10
102.344
 20
79.1602
 30
0.0
 11
88.3447
 21
79.1602
 31
0.0
  0
LINE
  8
0
 62
     0
 10
88.3447
 20
79.1602
 30
0.0
 11
88.3447
 21
93.1594
 31
0.0
  0
LINE
  8
0
 62
     0
 10
69.2947
 20
93.1594
 30
0.0
 11
83.294
 21
93.1594
 31
0.0
  0
LINE
  8
0
 62
     0
 10
83.294
 20
93.1594
 30
0.0
 11
83.294
 21
79.1602
 31
0.0
  0
LINE
  8
0
 62
     0
 10
83.294
 20
79.1602
 30
0.0
 11
69.2947
 21
79.1602
 31
0.0
  0
LINE
  8
0
 62
     0
 10
69.2947
 20
79.1602
 30
0.0
 11
69.2947
 21
93.1594
 31
0.0
  0
LINE
  8
0
 62
     0
 10
50.2447
 20
93.1594
 30
0.0
 11
64.244
 21
93.1594
 31
0.0
  0
LINE
  8
0
 62
     0
 10
64.244
 20
93.1594
 30
0.0
 11
64.244
 21
79.1602
 31
0.0
  0
LINE
  8
0
 62
     0
 10
64.244
 20
79.1602
 30
0.0
 11
50.2447
 21
79.1602
 31
0.0
  0
LINE
  8
0
 62
     0
 10
50.2447
 20
79.1602
 30
0.0
 11
50.2447
 21
93.1594
 31
0.0
  0
LINE
  8
0
 62
     0
 10
31.1947
 20
93.1594
 30
0.0
 11
45.194
 21
93.1594
 31
0.0
  0
LINE
  8
0
 62
     0
 10
45.194
 20
93.1594
 30
0.0
 11
45.194
 21
79.1602
 31
0.0
  0
LINE
  8
0
 62
     0
 10
45.194
 20
79.1602
 30
0.0
 11
31.1947
 21
79.1602
 31
0.0
  0
LINE
  8
0
 62
     0
 10
31.1947
 20
79.1602
 30
0.0
 11
31.1947
 21
93.1594
 31
0.0
  0
LINE
  8
0
 62
     0
 10
12.1447
 20
93.1594
 30
0.0
 11
26.1441
 21
93.1594
 31
0.0
  0
LINE
  8
0
 62
     0
 10
26.1441
 20
93.1594
 30
0.0
 11
26.1441
 21
79.1602
 31
0.0
  0
LINE
  8
0
 62
     0
 10
26.1441
 20
79.1602
 30
0.0
 11
12.1447
 21
79.1602
 31
0.0
  0
LINE
  8
0
 62
     0
 10
12.1447
 20
79.1602
 30
0.0
 11
12.1447
 21
93.1594
 31
0.0
  0
LINE
  8
0
 62
     0
 10
145.495
 20
121.734
 30
0.0
 11
159.494
 21
121.734
 31
0.0
  0
LINE
  8
0
 62
     0
 10
159.494
 20
121.734
 30
0.0
 11
159.494
 21
107.735
 31
0.0
  0
LINE
  8
0
 62
     0
 10
159.494
 20
107.735
 30
0.0
 11
145.495
 21
107.735
 31
0.0
  0
LINE
  8
0
 62
     0
 10
145.495
 20
107.735
 30
0.0
 11
145.495
 21
121.734
 31
0.0
  0
LINE
  8
0
 62
     0
 10
126.445
 20
121.734
 30
0.0
 11
140.444
 21
121.734
 31
0.0
  0
LINE
  8
0
 62
     0
 10
140.444
 20
121.734
 30
0.0
 11
140.444
 21
107.735
 31
0.0
  0
LINE
  8
0
 62
     0
 10
140.444
 20
107.735
 30
0.0
 11
126.445
 21
107.735
 31
0.0
  0
LINE
  8
0
 62
     0
 10
126.445
 20
107.735
 30
0.0
 11
126.445
 21
121.734
 31
0.0
  0
LINE
  8
0
 62
     0
 10
107.395
 20
121.734
 30
0.0
 11
121.394
 21
121.734
 31
0.0
  0
LINE
  8
0
 62
     0
 10
121.394
 20
121.734
 30
0.0
 11
121.394
 21
107.735
 31
0.0
  0
LINE
  8
0
 62
     0
 10
121.394
 20
107.735
 30
0.0
 11
107.395
 21
107.735
 31
0.0
  0
LINE
  8
0
 62
     0
 10
107.395
 20
107.735
 30
0.0
 11
107.395
 21
121.734
 31
0.0
  0
LINE
  8
0
 62
     0
 10
88.3447
 20
121.734
 30
0.0
 11
102.344
 21
121.734
 31
0.0
  0
LINE
  8
0
 62
     0
 10
102.344
 20
121.734
 30
0.0
 11
102.344
 21
107.735
 31
0.0
  0
LINE
  8
0
 62
     0
 10
102.344
 20
107.735
 30
0.0
 11
88.3447
 21
107.735
 31
0.0
  0
LINE
  8
0
 62
     0
 10
88.3447
 20
107.735
 30
0.0
 11
88.3447
 21
121.734
 31
0.0
  0
LINE
  8
0
 62
     0
 10
59.7697
 20
121.734
 30
0.0
 11
73.769
 21
121.734
 31
0.0
  0
LINE
  8
0
 62
     0
 10
73.769
 20
121.734
 30
0.0
 11
73.769
 21
107.735
 31
0.0
  0
LINE
  8
0
 62
     0
 10
73.769
 20
107.735
 30
0.0
 11
59.7697
 21
107.735
 31
0.0
  0
LINE
  8
0
 62
     0
 10
59.7697
 20
107.735
 30
0.0
 11
59.7697
 21
121.734
 31
0.0
  0
LINE
  8
0
 62
     0
 10
40.7197
 20
121.734
 30
0.0
 11
54.719
 21
121.734
 31
0.0
  0
LINE
  8
0
 62
     0
 10
54.719
 20
121.734
 30
0.0
 11
54.719
 21
107.735
 31
0.0
  0
LINE
  8
0
 62
     0
 10
54.719
 20
107.735
 30
0.0
 11
40.7197
 21
107.735
 31
0.0
  0
LINE
  8
0
 62
     0
 10
40.7197
 20
107.735
 30
0.0
 11
40.7197
 21
121.734
 31
0.0
  0
LINE
  8
0
 62
     0
 10
21.6697
 20
121.734
 30
0.0
 11
35.669
 21
121.734
 31
0.0
  0
LINE
  8
0
 62
     0
 10
35.669
 20
121.734
 30
0.0
 11
35.669
 21
107.735
 31
0.0
  0
LINE
  8
0
 62
     0
 10
35.669
 20
107.735
 30
0.0
 11
21.6697
 21
107.735
 31
0.0
  0
LINE
  8
0
 62
     0
 10
21.6697
 20
107.735
 30
0.0
 11
21.6697
 21
121.734
 31
0.0
  0
LINE
  8
0
 62
     0
 10
2.61965
 20
121.734
 30
0.0
 11
16.6192
 21
121.734
 31
0.0
  0
LINE
  8
0
 62
     0
 10
16.6192
 20
121.734
 30
0.0
 11
16.6192
 21
107.735
 31
0.0
  0
LINE
  8
0
 62
     0
 10
16.6192
 20
107.735
 30
0.0
 11
2.61965
 21
107.735
 31
0.0
  0
LINE
  8
0
 62
     0
 10
2.61965
 20
107.735
 30
0.0
 11
2.61965
 21
121.734
 31
0.0
  0
ENDSEC
  0
EOF
