  0
SECTION
  2
HEADER
  9
$ACADVER
  1
AC1009
  9
$INSBASE
 10
0
 20
0
 30
0
  9
$EXTMIN
 10
0
 20
0
  9
$EXTMAX
 10
841
 20
594
  9
$LIMMIN
 10
0
 20
0
  9
$LIMMAX
 10
841
 20
594
  9
$LTSCALE
 40
1
  0
ENDSEC
  0
SECTION
  2
TABLES
  0
TABLE
  2
LTYPE
 70
     9
  0
LTYPE
  2
CONTINUOUS
 70
    64
  3
実線
 72
    65
 73
     0
 40
0.0
  0
LTYPE
  2
DASHED1
 70
    64
  3
--  --  --  --  --  --  --  --  
 72
    65
 73
     2
 40
2.5
 49
1.25
 49
-1.25
  0
LTYPE
  2
DASHED2
 70
    64
  3
----    ----    ----    ----    
 72
    65
 73
     2
 40
5.0
 49
2.5
 49
-2.5
  0
LTYPE
  2
DASHED3
 70
    64
  3
------  ------  ------  ------  
 72
    65
 73
     2
 40
5.0
 49
3.75
 49
-1.25
  0
LTYPE
  2
CENTER1
 70
    64
  3
----- - ----- - ----- - ----- - 
 72
    65
 73
     4
 40
10.0
 49
6.25
 49
-1.25
 49
1.25
 49
-1.25
  0
LTYPE
  2
CENTER2
 70
    64
  3
----------  --  ----------  --  
 72
    65
 73
     4
 40
20.0
 49
12.5
 49
-2.5
 49
2.5
 49
-2.5
  0
LTYPE
  2
PHANTOM1
 70
    64
  3
--- - - --- - - --- - - --- - - 
 72
    65
 73
     6
 40
10.0
 49
3.25
 49
-1.25
 49
1.25
 49
-1.25
 49
1.25
 49
-1.25
  0
LTYPE
  2
PHANTOM2
 70
    64
  3
--------  -  -  --------  -  -  
 72
    65
 73
     6
 40
20.0
 49
10.0
 49
-2.5
 49
1.25
 49
-2.5
 49
1.25
 49
-2.5
  0
LTYPE
  2
DOT
 70
    64
  3
-   -   -   -   -   -   -   -   
 72
    65
 73
     2
 40
2.5
 49
0.625
 49
-1.875
  0
LTYPE
  2
DUMMY
 70
    64
  3
ダミー
 72
    65
 73
     0
 40
0.0
  0
LTYPE
  2
RAND1
 70
    64
  3
ランダム線1
 72
    65
 73
     4
 40
10.0
 49
1.0
 49
-2.0
 49
3.0
 49
-4.0
  0
LTYPE
  2
RAND2
 70
    64
  3
ランダム線2
 72
    65
 73
     4
 40
14.0
 49
2.0
 49
-3.0
 49
4.0
 49
-5.0
  0
LTYPE
  2
RAND3
 70
    64
  3
ランダム線3
 72
    65
 73
     4
 40
18.0
 49
3.0
 49
-4.0
 49
5.0
 49
-6.0
  0
LTYPE
  2
RAND4
 70
    64
  3
ランダム線4
 72
    65
 73
     4
 40
22.0
 49
4.0
 49
-5.0
 49
6.0
 49
-7.0
  0
LTYPE
  2
RAND5
 70
    64
  3
ランダム線5
 72
    65
 73
     4
 40
26.0
 49
5.0
 49
-6.0
 49
7.0
 49
-8.0
  0
LTYPE
  2
LONG1
 70
    64
  3
----------  --  ----------  --  
 72
    65
 73
     4
 40
40.0
 49
32.5
 49
-2.5
 49
2.5
 49
-2.5
  0
LTYPE
  2
LONG2
 70
    64
  3
--------  -  -  --------  -  -  
 72
    65
 73
     6
 40
40.0
 49
30.0
 49
-2.5
 49
1.25
 49
-2.5
 49
1.25
 49
-2.5
  0
LTYPE
  2
LONG3
 70
    64
  3
+++++++++++++++..+++++++++++++++
 72
    65
 73
     2
 40
40.0
 49
37.5
 49
-2.5
  0
LTYPE
  2
LONG4
 70
    64
  3
+++++++++++++++..+++++++++++++++
 72
    65
 73
     2
 40
80.0
 49
75.0
 49
-5.0
  0
LTYPE
  2
LONG5
 70
    64
  3
----------  --  ----------  --  
 72
    65
 73
     4
 40
60.0
 49
37.5
 49
-7.5
 49
7.5
 49
-7.5
  0
LTYPE
  2
dashed
 70
   64
  3
-------   -------------   ------
 72
   65
 73
    2
 40
7.5
 49
6
 49
-1.5
  0
LTYPE
  2
dashed_spaced
 70
   64
  3
----        --------        ----
 72
   65
 73
    2
 40
12
 49
6
 49
-6
  0
LTYPE
  2
long_dashed_dotted
 70
   64
  3
------------- --- --------------
 72
   65
 73
    4
 40
15.25
 49
12
 49
-1.5
 49
0.25
 49
-1.5
  0
LTYPE
  2
long_dashed_double-dotted
 70
   64
  3
----------- --- --- ------------
 72
   65
 73
    6
 40
17
 49
12
 49
-1.5
 49
0.25
 49
-1.5
 49
0.25
 49
-1.5
  0
LTYPE
  2
long_dashed_triplicate-dotted
 70
   64
  3
--------- --- --- --- ----------
 72
   65
 73
    8
 40
18.75
 49
12
 49
-1.5
 49
0.25
 49
-1.5
 49
0.25
 49
-1.5
 49
0.25
 49
-1.5
  0
LTYPE
  2
dotted
 70
   64
  3
   -       -       -       -    
 72
   65
 73
    2
 40
1.75
 49
0.25
 49
-1.5
  0
LTYPE
  2
chain
 70
   64
  3
-------------- -- --------------
 72
   65
 73
    4
 40
18.5
 49
12
 49
-1.5
 49
3.5
 49
-1.5
  0
LTYPE
  2
chain_double_dash
 70
   64
  3
------------ -- -- -------------
 72
   65
 73
    6
 40
23.5
 49
12
 49
-1.5
 49
3.5
 49
-1.5
 49
3.5
 49
-1.5
  0
LTYPE
  2
dashed_dotted
 70
   64
  3
-----------     -     ----------
 72
   65
 73
    4
 40
9.25
 49
6
 49
-1.5
 49
0.25
 49
-1.5
  0
LTYPE
  2
double-dashed_dotted
 70
   64
  3
------   -----------   -   -----
 72
   65
 73
    6
 40
16.75
 49
6
 49
-1.5
 49
6
 49
-1.5
 49
0.25
 49
-1.5
  0
LTYPE
  2
dashed_double-dotted
 70
   64
  3
---------    -    -    ---------
 72
   65
 73
    6
 40
11
 49
6
 49
-1.5
 49
0.25
 49
-1.5
 49
0.25
 49
-1.5
  0
LTYPE
  2
double-dashed_double-dotted
 70
   64
  3
-----   ---------   -   -   ----
 72
   65
 73
    8
 40
18.5
 49
6
 49
-1.5
 49
6
 49
-1.5
 49
0.25
 49
-1.5
 49
0.25
 49
-1.5
  0
LTYPE
  2
dashed_triplicate-dotted
 70
   64
  3
-------    -    -    -    ------
 72
   65
 73
    8
 40
12.75
 49
6
 49
-1.5
 49
0.25
 49
-1.5
 49
0.25
 49
-1.5
 49
0.25
 49
-1.5
  0
LTYPE
  2
double-dashed_triplicate-dotted
 70
   64
  3
-----  ---------  -  -  -  -----
 72
   65
 73
   10
 40
20.25
 49
6
 49
-1.5
 49
6
 49
-1.5
 49
0.25
 49
-1.5
 49
0.25
 49
-1.5
 49
0.25
 49
-1.5
  0
LTYPE
  2
undefined
 70
   64
  3
--------------------------------
 72
   65
 73
    0
 40
0
  0
LTYPE
  2
_
 70
   64
  3
                                
 72
   65
 73
    0
 40
0
  0
LTYPE
  2
__18
 70
   64
  3
                                
 72
   65
 73
    0
 40
0
  0
LTYPE
  2
__19
 70
   64
  3
                                
 72
   65
 73
    0
 40
0
  0
LTYPE
  2
__20
 70
   64
  3
                                
 72
   65
 73
    0
 40
0
  0
LTYPE
  2
__21
 70
   64
  3
                                
 72
   65
 73
    0
 40
0
  0
LTYPE
  2
__22
 70
   64
  3
                                
 72
   65
 73
    0
 40
0
  0
LTYPE
  2
__23
 70
   64
  3
                                
 72
   65
 73
    0
 40
0
  0
LTYPE
  2
__24
 70
   64
  3
                                
 72
   65
 73
    0
 40
0
  0
LTYPE
  2
__25
 70
   64
  3
                                
 72
   65
 73
    0
 40
0
  0
LTYPE
  2
__26
 70
   64
  3
                                
 72
   65
 73
    0
 40
0
  0
LTYPE
  2
__27
 70
   64
  3
                                
 72
   65
 73
    0
 40
0
  0
LTYPE
  2
__28
 70
   64
  3
                                
 72
   65
 73
    0
 40
0
  0
LTYPE
  2
__29
 70
   64
  3
                                
 72
   65
 73
    0
 40
0
  0
LTYPE
  2
__30
 70
   64
  3
                                
 72
   65
 73
    0
 40
0
  0
LTYPE
  2
__31
 70
   64
  3
                                
 72
   65
 73
    0
 40
0
  0
LTYPE
  2
__32
 70
   64
  3
                                
 72
   65
 73
    0
 40
0
  0
ENDTAB
  0
TABLE
  2
STYLE
  5
3
100
AcDbSymbolTable
 70
     1
  0
STYLE
  5
10
100
AcDbSymbolTableRecord
100
AcDbTextStyleTableRecord
  2
STANDARD
 70
     0
 40
0.0
 41
1.0
 50
0.0
 71
     0
 42
0.2
  3
txt
  4
bigfont.shx
  0
STYLE
  5
26
100
AcDbSymbolTableRecord
100
AcDbTextStyleTableRecord
  2
TATEGAKI
 70
    68
 40
0.0
 41
1.0
 50
0.0
 71
     0
 42
1.0
  3
txt
  4
bigfont.shx
  0
ENDTAB
  0
TABLE
  2
LAYER
 70
    3
  0
LAYER
  2
_0-0_
 70
   64
 62
    7
  6
CONTINUOUS
  0
LAYER
  2
_0-1_ADD_LINE
 70
   64
 62
    7
  6
CONTINUOUS
  0
LAYER
  2
ADD_LINE
 70
   64
 62
    7
  6
CONTINUOUS
  0
ENDTAB
  0
ENDSEC
  0
SECTION
  2
BLOCKS
  0
ENDSEC
  0
SECTION
  2
ENTITIES
  0
LINE
  8
_0-0_
  6
CONTINUOUS
 62
    7
 10
368.58619816818509
 20
318.32732211995295
 11
368.58619816818509
 21
316.95191033495297
  0
LINE
  8
_0-0_
  6
CONTINUOUS
 62
    7
 10
373.18609816818508
 20
316.95191033495297
 11
373.18609816818508
 21
318.32732211995295
  0
LINE
  8
_0-0_
  6
CONTINUOUS
 62
    7
 10
368.58619816818509
 20
302.90293390495304
 11
368.58619816818509
 21
301.52732211995294
  0
LINE
  8
_0-0_
  6
CONTINUOUS
 62
    7
 10
373.18609816818508
 20
301.52732211995294
 11
373.18609816818508
 21
302.90293390495304
  0
LINE
  8
_0-1_ADD_LINE
  6
CONTINUOUS
 62
    7
 10
363.86220897143511
 20
316.95191033495297
 11
368.58619816818509
 21
316.95191033495297
  0
LINE
  8
_0-1_ADD_LINE
  6
CONTINUOUS
 62
    7
 10
373.18609816818508
 20
316.95191033495297
 11
377.91173736493511
 21
316.95191033495297
  0
LINE
  8
_0-0_
  6
CONTINUOUS
 62
    7
 10
368.58619816818509
 20
302.90293390495304
 11
363.86220897143511
 21
302.90293390495304
  0
LINE
  8
_0-0_
  6
CONTINUOUS
 62
    7
 10
225.39376066818511
 20
269.27728711995292
 11
225.39376066818511
 21
270.5961365575788
  0
ARC
  8
_0-0_
  6
CONTINUOUS
 62
    7
 10
225.86811566818511
 20
311.15845768232697
 40
10
 50
180
 51
194.03713868216576
  0
LINE
  8
_0-0_
  6
CONTINUOUS
 62
    7
 10
225.0951477736308
 20
273.02164438694001
 11
216.16672856273942
 21
308.73294985296576
  0
ARC
  8
_0-0_
  6
CONTINUOUS
 62
    7
 10
216.86811566818511
 20
380.60202211995301
 40
1
 50
90
 51
180
  0
ARC
  8
_0-0_
  6
CONTINUOUS
 62
    7
 10
226.39376066818511
 20
248.77728711995286
 40
1
 50
180
 51
270
  0
LINE
  8
_0-0_
  6
CONTINUOUS
 62
    7
 10
222.21866088473075
 20
381.60202211995301
 11
216.86811566818511
 21
381.60202211995301
  0
LINE
  8
_0-0_
  6
CONTINUOUS
 62
    7
 10
408.60639816818508
 20
247.77728711995286
 11
226.39376066818511
 21
247.77728711995286
  0
ARC
  8
_0-0_
  6
CONTINUOUS
 62
    7
 10
408.60639816818508
 20
250.77728711995286
 40
3
 50
270
 51
0
  0
LINE
  8
_0-0_
  6
CONTINUOUS
 62
    7
 10
408.60639816818508
 20
381.60202211995301
 11
216.86811566818511
 21
381.60202211995301
  0
LINE
  8
_0-0_
  6
CONTINUOUS
 62
    7
 10
411.60639816818508
 20
378.60202211995301
 11
411.60639816818508
 21
250.77728711995286
  0
ARC
  8
_0-0_
  6
CONTINUOUS
 62
    7
 10
408.60639816818508
 20
378.60202211995301
 40
3
 50
0
 51
90
  0
CIRCLE
  8
_0-0_
  6
CONTINUOUS
 62
    7
 10
218.86811566818511
 20
378.60202211995301
 40
1.1000000000000001
  0
CIRCLE
  8
_0-0_
  6
CONTINUOUS
 62
    7
 10
228.39376066818511
 20
250.77728711995286
 40
1.1000000000000001
  0
CIRCLE
  8
_0-0_
  6
CONTINUOUS
 62
    7
 10
408.60639816818508
 20
250.77728711995286
 40
1.1000000000000001
  0
CIRCLE
  8
_0-0_
  6
CONTINUOUS
 62
    7
 10
408.60639816818508
 20
378.60202211995301
 40
1.1000000000000001
  0
LINE
  8
_0-0_
  6
CONTINUOUS
 62
    7
 10
215.86811566818511
 20
380.60202211995301
 11
215.86811566818511
 21
311.15845768232697
  0
LINE
  8
_0-0_
  6
CONTINUOUS
 62
    7
 10
225.39376066818511
 20
270.5961365575788
 11
225.39376066818511
 21
248.77728711995286
  0
ARC
  8
_0-0_
  6
CONTINUOUS
 62
    7
 10
215.39376066818511
 20
270.5961365575788
 40
10
 50
0
 51
14.037138682165798
  0
LINE
  8
_0-0_
  6
CONTINUOUS
 62
    7
 10
364.8868981681851
 20
301.52732211995294
 11
364.8868981681851
 21
294.52732211995294
  0
LINE
  8
_0-0_
  6
CONTINUOUS
 62
    7
 10
378.3868981681851
 20
294.52732211995294
 11
364.8868981681851
 21
294.52732211995294
  0
LINE
  8
_0-0_
  6
CONTINUOUS
 62
    7
 10
378.3868981681851
 20
301.52732211995294
 11
378.3868981681851
 21
294.52732211995294
  0
LINE
  8
_0-0_
  6
CONTINUOUS
 62
    7
 10
378.3868981681851
 20
325.32732211995295
 11
378.3868981681851
 21
318.32732211995295
  0
LINE
  8
_0-0_
  6
CONTINUOUS
 62
    7
 10
364.8868981681851
 20
325.32732211995295
 11
364.8868981681851
 21
318.32732211995295
  0
LINE
  8
_0-0_
  6
CONTINUOUS
 62
    7
 10
378.3868981681851
 20
325.32732211995295
 11
364.8868981681851
 21
325.32732211995295
  0
LINE
  8
_0-0_
  6
CONTINUOUS
 62
    7
 10
368.58619816818509
 20
301.52732211995294
 11
364.8868981681851
 21
301.52732211995294
  0
LINE
  8
_0-0_
  6
CONTINUOUS
 62
    7
 10
378.3868981681851
 20
301.52732211995294
 11
373.18609816818508
 21
301.52732211995294
  0
LINE
  8
_0-0_
  6
CONTINUOUS
 62
    7
 10
378.3868981681851
 20
318.32732211995295
 11
373.18609816818508
 21
318.32732211995295
  0
LINE
  8
_0-0_
  6
CONTINUOUS
 62
    7
 10
368.58619816818509
 20
318.32732211995295
 11
364.8868981681851
 21
318.32732211995295
  0
LINE
  8
_0-1_ADD_LINE
  6
CONTINUOUS
 62
    7
 10
223.36905897143507
 20
374.10151033495288
 11
237.41858736493506
 21
374.10151033495288
  0
LINE
  8
_0-1_ADD_LINE
  6
CONTINUOUS
 62
    7
 10
237.41858736493506
 20
374.10151033495288
 11
237.41858736493506
 21
360.05253390495295
  0
LINE
  8
_0-1_ADD_LINE
  6
CONTINUOUS
 62
    7
 10
237.41858736493506
 20
360.05253390495295
 11
223.36905897143507
 21
360.05253390495295
  0
LINE
  8
_0-1_ADD_LINE
  6
CONTINUOUS
 62
    7
 10
223.36905897143507
 20
360.05253390495295
 11
223.36905897143507
 21
374.10151033495288
  0
LINE
  8
_0-1_ADD_LINE
  6
CONTINUOUS
 62
    7
 10
242.41910897143512
 20
374.10151033495288
 11
256.46863736493515
 21
374.10151033495288
  0
LINE
  8
_0-1_ADD_LINE
  6
CONTINUOUS
 62
    7
 10
256.46863736493515
 20
374.10151033495288
 11
256.46863736493515
 21
360.05253390495295
  0
LINE
  8
_0-1_ADD_LINE
  6
CONTINUOUS
 62
    7
 10
256.46863736493515
 20
360.05253390495295
 11
242.41910897143512
 21
360.05253390495295
  0
LINE
  8
_0-1_ADD_LINE
  6
CONTINUOUS
 62
    7
 10
242.41910897143512
 20
360.05253390495295
 11
242.41910897143512
 21
374.10151033495288
  0
LINE
  8
_0-1_ADD_LINE
  6
CONTINUOUS
 62
    7
 10
261.46910897143505
 20
374.10151033495288
 11
275.5186373649351
 21
374.10151033495288
  0
LINE
  8
_0-1_ADD_LINE
  6
CONTINUOUS
 62
    7
 10
275.5186373649351
 20
374.10151033495288
 11
275.5186373649351
 21
360.05253390495295
  0
LINE
  8
_0-1_ADD_LINE
  6
CONTINUOUS
 62
    7
 10
275.5186373649351
 20
360.05253390495295
 11
261.46910897143505
 21
360.05253390495295
  0
LINE
  8
_0-1_ADD_LINE
  6
CONTINUOUS
 62
    7
 10
261.46910897143505
 20
360.05253390495295
 11
261.46910897143505
 21
374.10151033495288
  0
LINE
  8
_0-1_ADD_LINE
  6
CONTINUOUS
 62
    7
 10
280.51910897143512
 20
374.10151033495288
 11
294.56863736493517
 21
374.10151033495288
  0
LINE
  8
_0-1_ADD_LINE
  6
CONTINUOUS
 62
    7
 10
294.56863736493517
 20
374.10151033495288
 11
294.56863736493517
 21
360.05253390495295
  0
LINE
  8
_0-1_ADD_LINE
  6
CONTINUOUS
 62
    7
 10
294.56863736493517
 20
360.05253390495295
 11
280.51910897143512
 21
360.05253390495295
  0
LINE
  8
_0-1_ADD_LINE
  6
CONTINUOUS
 62
    7
 10
280.51910897143512
 20
360.05253390495295
 11
280.51910897143512
 21
374.10151033495288
  0
LINE
  8
_0-1_ADD_LINE
  6
CONTINUOUS
 62
    7
 10
309.09410897143505
 20
374.10151033495288
 11
323.1436373649351
 21
374.10151033495288
  0
LINE
  8
_0-1_ADD_LINE
  6
CONTINUOUS
 62
    7
 10
323.1436373649351
 20
374.10151033495288
 11
323.1436373649351
 21
360.05253390495295
  0
LINE
  8
_0-1_ADD_LINE
  6
CONTINUOUS
 62
    7
 10
323.1436373649351
 20
360.05253390495295
 11
309.09410897143505
 21
360.05253390495295
  0
LINE
  8
_0-1_ADD_LINE
  6
CONTINUOUS
 62
    7
 10
309.09410897143505
 20
360.05253390495295
 11
309.09410897143505
 21
374.10151033495288
  0
LINE
  8
_0-1_ADD_LINE
  6
CONTINUOUS
 62
    7
 10
328.14440897143504
 20
374.10151033495288
 11
342.1939373649351
 21
374.10151033495288
  0
LINE
  8
_0-1_ADD_LINE
  6
CONTINUOUS
 62
    7
 10
342.1939373649351
 20
374.10151033495288
 11
342.1939373649351
 21
360.05253390495295
  0
LINE
  8
_0-1_ADD_LINE
  6
CONTINUOUS
 62
    7
 10
342.1939373649351
 20
360.05253390495295
 11
328.14440897143504
 21
360.05253390495295
  0
LINE
  8
_0-1_ADD_LINE
  6
CONTINUOUS
 62
    7
 10
328.14440897143504
 20
360.05253390495295
 11
328.14440897143504
 21
374.10151033495288
  0
LINE
  8
_0-1_ADD_LINE
  6
CONTINUOUS
 62
    7
 10
347.19440897143511
 20
374.10151033495288
 11
361.24393736493516
 21
374.10151033495288
  0
LINE
  8
_0-1_ADD_LINE
  6
CONTINUOUS
 62
    7
 10
361.24393736493516
 20
374.10151033495288
 11
361.24393736493516
 21
360.05253390495295
  0
LINE
  8
_0-1_ADD_LINE
  6
CONTINUOUS
 62
    7
 10
361.24393736493516
 20
360.05253390495295
 11
347.19440897143511
 21
360.05253390495295
  0
LINE
  8
_0-1_ADD_LINE
  6
CONTINUOUS
 62
    7
 10
347.19440897143511
 20
360.05253390495295
 11
347.19440897143511
 21
374.10151033495288
  0
LINE
  8
_0-1_ADD_LINE
  6
CONTINUOUS
 62
    7
 10
366.24440897143506
 20
374.10151033495288
 11
380.29393736493512
 21
374.10151033495288
  0
LINE
  8
_0-1_ADD_LINE
  6
CONTINUOUS
 62
    7
 10
380.29393736493512
 20
374.10151033495288
 11
380.29393736493512
 21
360.05253390495295
  0
LINE
  8
_0-1_ADD_LINE
  6
CONTINUOUS
 62
    7
 10
380.29393736493512
 20
360.05253390495295
 11
366.24440897143506
 21
360.05253390495295
  0
LINE
  8
_0-1_ADD_LINE
  6
CONTINUOUS
 62
    7
 10
366.24440897143506
 20
360.05253390495295
 11
366.24440897143506
 21
374.10151033495288
  0
LINE
  8
_0-1_ADD_LINE
  6
CONTINUOUS
 62
    7
 10
390.05640897143508
 20
345.52691033495296
 11
404.10593736493513
 21
345.52691033495296
  0
LINE
  8
_0-1_ADD_LINE
  6
CONTINUOUS
 62
    7
 10
404.10593736493513
 20
345.52691033495296
 11
404.10593736493513
 21
331.47793390495303
  0
LINE
  8
_0-1_ADD_LINE
  6
CONTINUOUS
 62
    7
 10
404.10593736493513
 20
331.47793390495303
 11
390.05640897143508
 21
331.47793390495303
  0
LINE
  8
_0-1_ADD_LINE
  6
CONTINUOUS
 62
    7
 10
390.05640897143508
 20
331.47793390495303
 11
390.05640897143508
 21
345.52691033495296
  0
LINE
  8
_0-1_ADD_LINE
  6
CONTINUOUS
 62
    7
 10
390.05640897143508
 20
326.47691033495289
 11
404.10593736493513
 21
326.47691033495289
  0
LINE
  8
_0-1_ADD_LINE
  6
CONTINUOUS
 62
    7
 10
404.10593736493513
 20
326.47691033495289
 11
404.10593736493513
 21
312.42793390495297
  0
LINE
  8
_0-1_ADD_LINE
  6
CONTINUOUS
 62
    7
 10
404.10593736493513
 20
312.42793390495297
 11
390.05640897143508
 21
312.42793390495297
  0
LINE
  8
_0-1_ADD_LINE
  6
CONTINUOUS
 62
    7
 10
390.05640897143508
 20
312.42793390495297
 11
390.05640897143508
 21
326.47691033495289
  0
LINE
  8
_0-1_ADD_LINE
  6
CONTINUOUS
 62
    7
 10
366.24440897143506
 20
345.52691033495296
 11
380.29393736493512
 21
345.52691033495296
  0
LINE
  8
_0-1_ADD_LINE
  6
CONTINUOUS
 62
    7
 10
380.29393736493512
 20
345.52691033495296
 11
380.29393736493512
 21
331.47793390495303
  0
LINE
  8
_0-1_ADD_LINE
  6
CONTINUOUS
 62
    7
 10
380.29393736493512
 20
331.47793390495303
 11
366.24440897143506
 21
331.47793390495303
  0
LINE
  8
_0-1_ADD_LINE
  6
CONTINUOUS
 62
    7
 10
366.24440897143506
 20
331.47793390495303
 11
366.24440897143506
 21
345.52691033495296
  0
LINE
  8
_0-1_ADD_LINE
  6
CONTINUOUS
 62
    7
 10
347.19440897143511
 20
345.52691033495296
 11
361.24393736493516
 21
345.52691033495296
  0
LINE
  8
_0-1_ADD_LINE
  6
CONTINUOUS
 62
    7
 10
361.24393736493516
 20
345.52691033495296
 11
361.24393736493516
 21
331.47793390495303
  0
LINE
  8
_0-1_ADD_LINE
  6
CONTINUOUS
 62
    7
 10
361.24393736493516
 20
331.47793390495303
 11
347.19440897143511
 21
331.47793390495303
  0
LINE
  8
_0-1_ADD_LINE
  6
CONTINUOUS
 62
    7
 10
347.19440897143511
 20
331.47793390495303
 11
347.19440897143511
 21
345.52691033495296
  0
LINE
  8
_0-1_ADD_LINE
  6
CONTINUOUS
 62
    7
 10
328.14440897143504
 20
345.52691033495296
 11
342.1939373649351
 21
345.52691033495296
  0
LINE
  8
_0-1_ADD_LINE
  6
CONTINUOUS
 62
    7
 10
342.1939373649351
 20
345.52691033495296
 11
342.1939373649351
 21
331.47793390495303
  0
LINE
  8
_0-1_ADD_LINE
  6
CONTINUOUS
 62
    7
 10
342.1939373649351
 20
331.47793390495303
 11
328.14440897143504
 21
331.47793390495303
  0
LINE
  8
_0-1_ADD_LINE
  6
CONTINUOUS
 62
    7
 10
328.14440897143504
 20
331.47793390495303
 11
328.14440897143504
 21
345.52691033495296
  0
LINE
  8
_0-1_ADD_LINE
  6
CONTINUOUS
 62
    7
 10
309.09410897143505
 20
345.52691033495296
 11
323.1436373649351
 21
345.52691033495296
  0
LINE
  8
_0-1_ADD_LINE
  6
CONTINUOUS
 62
    7
 10
323.1436373649351
 20
345.52691033495296
 11
323.1436373649351
 21
331.47793390495303
  0
LINE
  8
_0-1_ADD_LINE
  6
CONTINUOUS
 62
    7
 10
323.1436373649351
 20
331.47793390495303
 11
309.09410897143505
 21
331.47793390495303
  0
LINE
  8
_0-1_ADD_LINE
  6
CONTINUOUS
 62
    7
 10
309.09410897143505
 20
331.47793390495303
 11
309.09410897143505
 21
345.52691033495296
  0
LINE
  8
_0-1_ADD_LINE
  6
CONTINUOUS
 62
    7
 10
290.04410897143509
 20
345.52691033495296
 11
304.09363736493515
 21
345.52691033495296
  0
LINE
  8
_0-1_ADD_LINE
  6
CONTINUOUS
 62
    7
 10
304.09363736493515
 20
345.52691033495296
 11
304.09363736493515
 21
331.47793390495303
  0
LINE
  8
_0-1_ADD_LINE
  6
CONTINUOUS
 62
    7
 10
304.09363736493515
 20
331.47793390495303
 11
290.04410897143509
 21
331.47793390495303
  0
LINE
  8
_0-1_ADD_LINE
  6
CONTINUOUS
 62
    7
 10
290.04410897143509
 20
331.47793390495303
 11
290.04410897143509
 21
345.52691033495296
  0
LINE
  8
_0-1_ADD_LINE
  6
CONTINUOUS
 62
    7
 10
270.99410897143514
 20
345.52691033495296
 11
285.04363736493519
 21
345.52691033495296
  0
LINE
  8
_0-1_ADD_LINE
  6
CONTINUOUS
 62
    7
 10
285.04363736493519
 20
345.52691033495296
 11
285.04363736493519
 21
331.47793390495303
  0
LINE
  8
_0-1_ADD_LINE
  6
CONTINUOUS
 62
    7
 10
285.04363736493519
 20
331.47793390495303
 11
270.99410897143514
 21
331.47793390495303
  0
LINE
  8
_0-1_ADD_LINE
  6
CONTINUOUS
 62
    7
 10
270.99410897143514
 20
331.47793390495303
 11
270.99410897143514
 21
345.52691033495296
  0
LINE
  8
_0-1_ADD_LINE
  6
CONTINUOUS
 62
    7
 10
280.51910897143512
 20
326.47691033495289
 11
294.56863736493517
 21
326.47691033495289
  0
LINE
  8
_0-1_ADD_LINE
  6
CONTINUOUS
 62
    7
 10
294.56863736493517
 20
326.47691033495289
 11
294.56863736493517
 21
312.42793390495297
  0
LINE
  8
_0-1_ADD_LINE
  6
CONTINUOUS
 62
    7
 10
294.56863736493517
 20
312.42793390495297
 11
280.51910897143512
 21
312.42793390495297
  0
LINE
  8
_0-1_ADD_LINE
  6
CONTINUOUS
 62
    7
 10
280.51910897143512
 20
312.42793390495297
 11
280.51910897143512
 21
326.47691033495289
  0
LINE
  8
_0-1_ADD_LINE
  6
CONTINUOUS
 62
    7
 10
299.56910897143507
 20
326.47691033495289
 11
313.61863736493513
 21
326.47691033495289
  0
LINE
  8
_0-1_ADD_LINE
  6
CONTINUOUS
 62
    7
 10
313.61863736493513
 20
326.47691033495289
 11
313.61863736493513
 21
312.42793390495297
  0
LINE
  8
_0-1_ADD_LINE
  6
CONTINUOUS
 62
    7
 10
313.61863736493513
 20
312.42793390495297
 11
299.56910897143507
 21
312.42793390495297
  0
LINE
  8
_0-1_ADD_LINE
  6
CONTINUOUS
 62
    7
 10
299.56910897143507
 20
312.42793390495297
 11
299.56910897143507
 21
326.47691033495289
  0
LINE
  8
_0-1_ADD_LINE
  6
CONTINUOUS
 62
    7
 10
318.61770897143504
 20
326.47691033495289
 11
332.66723736493509
 21
326.47691033495289
  0
LINE
  8
_0-1_ADD_LINE
  6
CONTINUOUS
 62
    7
 10
332.66723736493509
 20
326.47691033495289
 11
332.66723736493509
 21
312.42793390495297
  0
LINE
  8
_0-1_ADD_LINE
  6
CONTINUOUS
 62
    7
 10
332.66723736493509
 20
312.42793390495297
 11
318.61770897143504
 21
312.42793390495297
  0
LINE
  8
_0-1_ADD_LINE
  6
CONTINUOUS
 62
    7
 10
318.61770897143504
 20
312.42793390495297
 11
318.61770897143504
 21
326.47691033495289
  0
LINE
  8
_0-1_ADD_LINE
  6
CONTINUOUS
 62
    7
 10
337.66740897143507
 20
326.47691033495289
 11
351.71693736493512
 21
326.47691033495289
  0
LINE
  8
_0-1_ADD_LINE
  6
CONTINUOUS
 62
    7
 10
351.71693736493512
 20
326.47691033495289
 11
351.71693736493512
 21
312.42793390495297
  0
LINE
  8
_0-1_ADD_LINE
  6
CONTINUOUS
 62
    7
 10
351.71693736493512
 20
312.42793390495297
 11
337.66740897143507
 21
312.42793390495297
  0
LINE
  8
_0-1_ADD_LINE
  6
CONTINUOUS
 62
    7
 10
337.66740897143507
 20
312.42793390495297
 11
337.66740897143507
 21
326.47691033495289
  0
LINE
  8
_0-1_ADD_LINE
  6
CONTINUOUS
 62
    7
 10
251.9441089714351
 20
345.52691033495296
 11
265.99363736493513
 21
345.52691033495296
  0
LINE
  8
_0-1_ADD_LINE
  6
CONTINUOUS
 62
    7
 10
265.99363736493513
 20
345.52691033495296
 11
265.99363736493513
 21
331.47793390495303
  0
LINE
  8
_0-1_ADD_LINE
  6
CONTINUOUS
 62
    7
 10
265.99363736493513
 20
331.47793390495303
 11
251.9441089714351
 21
331.47793390495303
  0
LINE
  8
_0-1_ADD_LINE
  6
CONTINUOUS
 62
    7
 10
251.9441089714351
 20
331.47793390495303
 11
251.9441089714351
 21
345.52691033495296
  0
LINE
  8
_0-1_ADD_LINE
  6
CONTINUOUS
 62
    7
 10
232.89410897143514
 20
345.52691033495296
 11
246.94363736493514
 21
345.52691033495296
  0
LINE
  8
_0-1_ADD_LINE
  6
CONTINUOUS
 62
    7
 10
246.94363736493514
 20
345.52691033495296
 11
246.94363736493514
 21
331.47793390495303
  0
LINE
  8
_0-1_ADD_LINE
  6
CONTINUOUS
 62
    7
 10
246.94363736493514
 20
331.47793390495303
 11
232.89410897143514
 21
331.47793390495303
  0
LINE
  8
_0-1_ADD_LINE
  6
CONTINUOUS
 62
    7
 10
232.89410897143514
 20
331.47793390495303
 11
232.89410897143514
 21
345.52691033495296
  0
LINE
  8
_0-1_ADD_LINE
  6
CONTINUOUS
 62
    7
 10
223.36905897143507
 20
326.47691033495289
 11
237.41858736493506
 21
326.47691033495289
  0
LINE
  8
_0-1_ADD_LINE
  6
CONTINUOUS
 62
    7
 10
237.41858736493506
 20
326.47691033495289
 11
237.41858736493506
 21
312.42793390495297
  0
LINE
  8
_0-1_ADD_LINE
  6
CONTINUOUS
 62
    7
 10
237.41858736493506
 20
312.42793390495297
 11
223.36905897143507
 21
312.42793390495297
  0
LINE
  8
_0-1_ADD_LINE
  6
CONTINUOUS
 62
    7
 10
223.36905897143507
 20
312.42793390495297
 11
223.36905897143507
 21
326.47691033495289
  0
LINE
  8
_0-1_ADD_LINE
  6
CONTINUOUS
 62
    7
 10
242.41910897143512
 20
326.47691033495289
 11
256.46863736493515
 21
326.47691033495289
  0
LINE
  8
_0-1_ADD_LINE
  6
CONTINUOUS
 62
    7
 10
256.46863736493515
 20
326.47691033495289
 11
256.46863736493515
 21
312.42793390495297
  0
LINE
  8
_0-1_ADD_LINE
  6
CONTINUOUS
 62
    7
 10
256.46863736493515
 20
312.42793390495297
 11
242.41910897143512
 21
312.42793390495297
  0
LINE
  8
_0-1_ADD_LINE
  6
CONTINUOUS
 62
    7
 10
242.41910897143512
 20
312.42793390495297
 11
242.41910897143512
 21
326.47691033495289
  0
LINE
  8
_0-1_ADD_LINE
  6
CONTINUOUS
 62
    7
 10
261.46910897143505
 20
326.47691033495289
 11
275.5186373649351
 21
326.47691033495289
  0
LINE
  8
_0-1_ADD_LINE
  6
CONTINUOUS
 62
    7
 10
275.5186373649351
 20
326.47691033495289
 11
275.5186373649351
 21
312.42793390495297
  0
LINE
  8
_0-1_ADD_LINE
  6
CONTINUOUS
 62
    7
 10
275.5186373649351
 20
312.42793390495297
 11
261.46910897143505
 21
312.42793390495297
  0
LINE
  8
_0-1_ADD_LINE
  6
CONTINUOUS
 62
    7
 10
261.46910897143505
 20
312.42793390495297
 11
261.46910897143505
 21
326.47691033495289
  0
LINE
  8
_0-1_ADD_LINE
  6
CONTINUOUS
 62
    7
 10
285.28161897143514
 20
307.42691033495294
 11
299.33114736493519
 21
307.42691033495294
  0
LINE
  8
_0-1_ADD_LINE
  6
CONTINUOUS
 62
    7
 10
299.33114736493519
 20
307.42691033495294
 11
299.33114736493519
 21
293.37793390495301
  0
LINE
  8
_0-1_ADD_LINE
  6
CONTINUOUS
 62
    7
 10
299.33114736493519
 20
293.37793390495301
 11
285.28161897143514
 21
293.37793390495301
  0
LINE
  8
_0-1_ADD_LINE
  6
CONTINUOUS
 62
    7
 10
285.28161897143514
 20
293.37793390495301
 11
285.28161897143514
 21
307.42691033495294
  0
LINE
  8
_0-1_ADD_LINE
  6
CONTINUOUS
 62
    7
 10
304.33161897143509
 20
307.42691033495294
 11
318.38114736493515
 21
307.42691033495294
  0
LINE
  8
_0-1_ADD_LINE
  6
CONTINUOUS
 62
    7
 10
318.38114736493515
 20
307.42691033495294
 11
318.38114736493515
 21
293.37793390495301
  0
LINE
  8
_0-1_ADD_LINE
  6
CONTINUOUS
 62
    7
 10
318.38114736493515
 20
293.37793390495301
 11
304.33161897143509
 21
293.37793390495301
  0
LINE
  8
_0-1_ADD_LINE
  6
CONTINUOUS
 62
    7
 10
304.33161897143509
 20
293.37793390495301
 11
304.33161897143509
 21
307.42691033495294
  0
LINE
  8
_0-1_ADD_LINE
  6
CONTINUOUS
 62
    7
 10
323.38021897143506
 20
307.42691033495294
 11
337.42974736493511
 21
307.42691033495294
  0
LINE
  8
_0-1_ADD_LINE
  6
CONTINUOUS
 62
    7
 10
337.42974736493511
 20
307.42691033495294
 11
337.42974736493511
 21
293.37793390495301
  0
LINE
  8
_0-1_ADD_LINE
  6
CONTINUOUS
 62
    7
 10
337.42974736493511
 20
293.37793390495301
 11
323.38021897143506
 21
293.37793390495301
  0
LINE
  8
_0-1_ADD_LINE
  6
CONTINUOUS
 62
    7
 10
323.38021897143506
 20
293.37793390495301
 11
323.38021897143506
 21
307.42691033495294
  0
LINE
  8
_0-1_ADD_LINE
  6
CONTINUOUS
 62
    7
 10
342.42991897143509
 20
307.42691033495294
 11
356.47944736493514
 21
307.42691033495294
  0
LINE
  8
_0-1_ADD_LINE
  6
CONTINUOUS
 62
    7
 10
356.47944736493514
 20
307.42691033495294
 11
356.47944736493514
 21
293.37793390495301
  0
LINE
  8
_0-1_ADD_LINE
  6
CONTINUOUS
 62
    7
 10
356.47944736493514
 20
293.37793390495301
 11
342.42991897143509
 21
293.37793390495301
  0
LINE
  8
_0-1_ADD_LINE
  6
CONTINUOUS
 62
    7
 10
342.42991897143509
 20
293.37793390495301
 11
342.42991897143509
 21
307.42691033495294
  0
LINE
  8
_0-1_ADD_LINE
  6
CONTINUOUS
 62
    7
 10
228.13156897143509
 20
307.42691033495294
 11
242.18109736493508
 21
307.42691033495294
  0
LINE
  8
_0-1_ADD_LINE
  6
CONTINUOUS
 62
    7
 10
242.18109736493508
 20
307.42691033495294
 11
242.18109736493508
 21
293.37793390495301
  0
LINE
  8
_0-1_ADD_LINE
  6
CONTINUOUS
 62
    7
 10
242.18109736493508
 20
293.37793390495301
 11
228.13156897143509
 21
293.37793390495301
  0
LINE
  8
_0-1_ADD_LINE
  6
CONTINUOUS
 62
    7
 10
228.13156897143509
 20
293.37793390495301
 11
228.13156897143509
 21
307.42691033495294
  0
LINE
  8
_0-1_ADD_LINE
  6
CONTINUOUS
 62
    7
 10
247.18161897143514
 20
307.42691033495294
 11
261.23114736493517
 21
307.42691033495294
  0
LINE
  8
_0-1_ADD_LINE
  6
CONTINUOUS
 62
    7
 10
261.23114736493517
 20
307.42691033495294
 11
261.23114736493517
 21
293.37793390495301
  0
LINE
  8
_0-1_ADD_LINE
  6
CONTINUOUS
 62
    7
 10
261.23114736493517
 20
293.37793390495301
 11
247.18161897143514
 21
293.37793390495301
  0
LINE
  8
_0-1_ADD_LINE
  6
CONTINUOUS
 62
    7
 10
247.18161897143514
 20
293.37793390495301
 11
247.18161897143514
 21
307.42691033495294
  0
LINE
  8
_0-1_ADD_LINE
  6
CONTINUOUS
 62
    7
 10
266.23161897143507
 20
307.42691033495294
 11
280.28114736493512
 21
307.42691033495294
  0
LINE
  8
_0-1_ADD_LINE
  6
CONTINUOUS
 62
    7
 10
280.28114736493512
 20
307.42691033495294
 11
280.28114736493512
 21
293.37793390495301
  0
LINE
  8
_0-1_ADD_LINE
  6
CONTINUOUS
 62
    7
 10
280.28114736493512
 20
293.37793390495301
 11
266.23161897143507
 21
293.37793390495301
  0
LINE
  8
_0-1_ADD_LINE
  6
CONTINUOUS
 62
    7
 10
266.23161897143507
 20
293.37793390495301
 11
266.23161897143507
 21
307.42691033495294
  0
LINE
  8
_0-1_ADD_LINE
  6
CONTINUOUS
 62
    7
 10
294.80665897143513
 20
288.37691033495298
 11
308.85618736493518
 21
288.37691033495298
  0
LINE
  8
_0-1_ADD_LINE
  6
CONTINUOUS
 62
    7
 10
308.85618736493518
 20
288.37691033495298
 11
308.85618736493518
 21
274.32793390495306
  0
LINE
  8
_0-1_ADD_LINE
  6
CONTINUOUS
 62
    7
 10
308.85618736493518
 20
274.32793390495306
 11
294.80665897143513
 21
274.32793390495306
  0
LINE
  8
_0-1_ADD_LINE
  6
CONTINUOUS
 62
    7
 10
294.80665897143513
 20
274.32793390495306
 11
294.80665897143513
 21
288.37691033495298
  0
LINE
  8
_0-1_ADD_LINE
  6
CONTINUOUS
 62
    7
 10
313.85665897143508
 20
288.37691033495298
 11
327.90618736493514
 21
288.37691033495298
  0
LINE
  8
_0-1_ADD_LINE
  6
CONTINUOUS
 62
    7
 10
327.90618736493514
 20
288.37691033495298
 11
327.90618736493514
 21
274.32793390495306
  0
LINE
  8
_0-1_ADD_LINE
  6
CONTINUOUS
 62
    7
 10
327.90618736493514
 20
274.32793390495306
 11
313.85665897143508
 21
274.32793390495306
  0
LINE
  8
_0-1_ADD_LINE
  6
CONTINUOUS
 62
    7
 10
313.85665897143508
 20
274.32793390495306
 11
313.85665897143508
 21
288.37691033495298
  0
LINE
  8
_0-1_ADD_LINE
  6
CONTINUOUS
 62
    7
 10
332.90525897143505
 20
288.37691033495298
 11
346.9547873649351
 21
288.37691033495298
  0
LINE
  8
_0-1_ADD_LINE
  6
CONTINUOUS
 62
    7
 10
346.9547873649351
 20
288.37691033495298
 11
346.9547873649351
 21
274.32793390495306
  0
LINE
  8
_0-1_ADD_LINE
  6
CONTINUOUS
 62
    7
 10
346.9547873649351
 20
274.32793390495306
 11
332.90525897143505
 21
274.32793390495306
  0
LINE
  8
_0-1_ADD_LINE
  6
CONTINUOUS
 62
    7
 10
332.90525897143505
 20
274.32793390495306
 11
332.90525897143505
 21
288.37691033495298
  0
LINE
  8
_0-1_ADD_LINE
  6
CONTINUOUS
 62
    7
 10
237.65660897143508
 20
288.37691033495298
 11
251.70613736493507
 21
288.37691033495298
  0
LINE
  8
_0-1_ADD_LINE
  6
CONTINUOUS
 62
    7
 10
251.70613736493507
 20
288.37691033495298
 11
251.70613736493507
 21
274.32793390495306
  0
LINE
  8
_0-1_ADD_LINE
  6
CONTINUOUS
 62
    7
 10
251.70613736493507
 20
274.32793390495306
 11
237.65660897143508
 21
274.32793390495306
  0
LINE
  8
_0-1_ADD_LINE
  6
CONTINUOUS
 62
    7
 10
237.65660897143508
 20
274.32793390495306
 11
237.65660897143508
 21
288.37691033495298
  0
LINE
  8
_0-1_ADD_LINE
  6
CONTINUOUS
 62
    7
 10
256.7066589714351
 20
288.37691033495298
 11
270.75618736493516
 21
288.37691033495298
  0
LINE
  8
_0-1_ADD_LINE
  6
CONTINUOUS
 62
    7
 10
270.75618736493516
 20
288.37691033495298
 11
270.75618736493516
 21
274.32793390495306
  0
LINE
  8
_0-1_ADD_LINE
  6
CONTINUOUS
 62
    7
 10
270.75618736493516
 20
274.32793390495306
 11
256.7066589714351
 21
274.32793390495306
  0
LINE
  8
_0-1_ADD_LINE
  6
CONTINUOUS
 62
    7
 10
256.7066589714351
 20
274.32793390495306
 11
256.7066589714351
 21
288.37691033495298
  0
LINE
  8
_0-1_ADD_LINE
  6
CONTINUOUS
 62
    7
 10
275.75665897143506
 20
288.37691033495298
 11
289.80618736493511
 21
288.37691033495298
  0
LINE
  8
_0-1_ADD_LINE
  6
CONTINUOUS
 62
    7
 10
289.80618736493511
 20
288.37691033495298
 11
289.80618736493511
 21
274.32793390495306
  0
LINE
  8
_0-1_ADD_LINE
  6
CONTINUOUS
 62
    7
 10
289.80618736493511
 20
274.32793390495306
 11
275.75665897143506
 21
274.32793390495306
  0
LINE
  8
_0-1_ADD_LINE
  6
CONTINUOUS
 62
    7
 10
275.75665897143506
 20
274.32793390495306
 11
275.75665897143506
 21
288.37691033495298
  0
LINE
  8
_0-1_ADD_LINE
  6
CONTINUOUS
 62
    7
 10
323.38165897143517
 20
269.32701033495289
 11
337.43118736493523
 21
269.32701033495289
  0
LINE
  8
_0-1_ADD_LINE
  6
CONTINUOUS
 62
    7
 10
337.43118736493523
 20
269.32701033495289
 11
337.43118736493523
 21
255.27803390495296
  0
LINE
  8
_0-1_ADD_LINE
  6
CONTINUOUS
 62
    7
 10
337.43118736493523
 20
255.27803390495296
 11
323.38165897143517
 21
255.27803390495296
  0
LINE
  8
_0-1_ADD_LINE
  6
CONTINUOUS
 62
    7
 10
323.38165897143517
 20
255.27803390495296
 11
323.38165897143517
 21
269.32701033495289
  0
LINE
  8
_0-1_ADD_LINE
  6
CONTINUOUS
 62
    7
 10
342.43165897143513
 20
269.32701033495289
 11
356.48118736493518
 21
269.32701033495289
  0
LINE
  8
_0-1_ADD_LINE
  6
CONTINUOUS
 62
    7
 10
356.48118736493518
 20
269.32701033495289
 11
356.48118736493518
 21
255.27803390495296
  0
LINE
  8
_0-1_ADD_LINE
  6
CONTINUOUS
 62
    7
 10
356.48118736493518
 20
255.27803390495296
 11
342.43165897143513
 21
255.27803390495296
  0
LINE
  8
_0-1_ADD_LINE
  6
CONTINUOUS
 62
    7
 10
342.43165897143513
 20
255.27803390495296
 11
342.43165897143513
 21
269.32701033495289
  0
LINE
  8
_0-1_ADD_LINE
  6
CONTINUOUS
 62
    7
 10
266.23160897143509
 20
269.32701033495289
 11
280.28113736493515
 21
269.32701033495289
  0
LINE
  8
_0-1_ADD_LINE
  6
CONTINUOUS
 62
    7
 10
280.28113736493515
 20
269.32701033495289
 11
280.28113736493515
 21
255.27803390495296
  0
LINE
  8
_0-1_ADD_LINE
  6
CONTINUOUS
 62
    7
 10
280.28113736493515
 20
255.27803390495296
 11
266.23160897143509
 21
255.27803390495296
  0
LINE
  8
_0-1_ADD_LINE
  6
CONTINUOUS
 62
    7
 10
266.23160897143509
 20
255.27803390495296
 11
266.23160897143509
 21
269.32701033495289
  0
LINE
  8
_0-1_ADD_LINE
  6
CONTINUOUS
 62
    7
 10
285.28165897143515
 20
269.32701033495289
 11
299.3311873649352
 21
269.32701033495289
  0
LINE
  8
_0-1_ADD_LINE
  6
CONTINUOUS
 62
    7
 10
299.3311873649352
 20
269.32701033495289
 11
299.3311873649352
 21
255.27803390495296
  0
LINE
  8
_0-1_ADD_LINE
  6
CONTINUOUS
 62
    7
 10
299.3311873649352
 20
255.27803390495296
 11
285.28165897143515
 21
255.27803390495296
  0
LINE
  8
_0-1_ADD_LINE
  6
CONTINUOUS
 62
    7
 10
285.28165897143515
 20
255.27803390495296
 11
285.28165897143515
 21
269.32701033495289
  0
LINE
  8
_0-1_ADD_LINE
  6
CONTINUOUS
 62
    7
 10
304.3316589714351
 20
269.32701033495289
 11
318.38118736493516
 21
269.32701033495289
  0
LINE
  8
_0-1_ADD_LINE
  6
CONTINUOUS
 62
    7
 10
318.38118736493516
 20
269.32701033495289
 11
318.38118736493516
 21
255.27803390495296
  0
LINE
  8
_0-1_ADD_LINE
  6
CONTINUOUS
 62
    7
 10
318.38118736493516
 20
255.27803390495296
 11
304.3316589714351
 21
255.27803390495296
  0
LINE
  8
_0-1_ADD_LINE
  6
CONTINUOUS
 62
    7
 10
304.3316589714351
 20
255.27803390495296
 11
304.3316589714351
 21
269.32701033495289
  0
LINE
  8
_0-1_ADD_LINE
  6
CONTINUOUS
 62
    7
 10
244.80030897143519
 20
269.32701033495289
 11
258.84983736493518
 21
269.32701033495289
  0
LINE
  8
_0-1_ADD_LINE
  6
CONTINUOUS
 62
    7
 10
258.84983736493518
 20
269.32701033495289
 11
258.84983736493518
 21
255.27803390495296
  0
LINE
  8
_0-1_ADD_LINE
  6
CONTINUOUS
 62
    7
 10
258.84983736493518
 20
255.27803390495296
 11
244.80030897143519
 21
255.27803390495296
  0
LINE
  8
_0-1_ADD_LINE
  6
CONTINUOUS
 62
    7
 10
244.80030897143519
 20
255.27803390495296
 11
244.80030897143519
 21
269.32701033495289
  0
LINE
  8
_0-1_ADD_LINE
  6
CONTINUOUS
 62
    7
 10
363.86140897143514
 20
269.32701033495289
 11
377.91093736493514
 21
269.32701033495289
  0
LINE
  8
_0-1_ADD_LINE
  6
CONTINUOUS
 62
    7
 10
377.91093736493514
 20
269.32701033495289
 11
377.91093736493514
 21
255.27803390495296
  0
LINE
  8
_0-1_ADD_LINE
  6
CONTINUOUS
 62
    7
 10
377.91093736493514
 20
255.27803390495296
 11
363.86140897143514
 21
255.27803390495296
  0
LINE
  8
_0-1_ADD_LINE
  6
CONTINUOUS
 62
    7
 10
363.86140897143514
 20
255.27803390495296
 11
363.86140897143514
 21
269.32701033495289
  0
LINE
  8
_0-1_ADD_LINE
  6
CONTINUOUS
 62
    7
 10
359.10040897143517
 20
288.37691033495298
 11
373.14993736493517
 21
288.37691033495298
  0
LINE
  8
_0-1_ADD_LINE
  6
CONTINUOUS
 62
    7
 10
373.14993736493517
 20
288.37691033495298
 11
373.14993736493517
 21
274.32793390495306
  0
LINE
  8
_0-1_ADD_LINE
  6
CONTINUOUS
 62
    7
 10
373.14993736493517
 20
274.32793390495306
 11
359.10040897143517
 21
274.32793390495306
  0
LINE
  8
_0-1_ADD_LINE
  6
CONTINUOUS
 62
    7
 10
359.10040897143517
 20
274.32793390495306
 11
359.10040897143517
 21
288.37691033495298
  0
LINE
  8
_0-1_ADD_LINE
  6
CONTINUOUS
 62
    7
 10
377.91173736493511
 20
316.95191033495297
 11
377.91173736493511
 21
302.90293390495304
  0
LINE
  8
_0-1_ADD_LINE
  6
CONTINUOUS
 62
    7
 10
363.86220897143511
 20
302.90293390495304
 11
363.86220897143511
 21
316.95191033495297
  0
LINE
  8
_0-1_ADD_LINE
  6
CONTINUOUS
 62
    7
 10
390.05640897143513
 20
307.42691033495294
 11
404.10593736493513
 21
307.42691033495294
  0
LINE
  8
_0-1_ADD_LINE
  6
CONTINUOUS
 62
    7
 10
404.10593736493513
 20
307.42691033495294
 11
404.10593736493513
 21
293.37793390495301
  0
LINE
  8
_0-1_ADD_LINE
  6
CONTINUOUS
 62
    7
 10
404.10593736493513
 20
293.37793390495301
 11
390.05640897143513
 21
293.37793390495301
  0
LINE
  8
_0-1_ADD_LINE
  6
CONTINUOUS
 62
    7
 10
390.05640897143513
 20
293.37793390495301
 11
390.05640897143513
 21
307.42691033495294
  0
LINE
  8
_0-1_ADD_LINE
  6
CONTINUOUS
 62
    7
 10
390.05640897143513
 20
288.37691033495298
 11
404.10593736493513
 21
288.37691033495298
  0
LINE
  8
_0-1_ADD_LINE
  6
CONTINUOUS
 62
    7
 10
404.10593736493513
 20
288.37691033495298
 11
404.10593736493513
 21
274.32793390495306
  0
LINE
  8
_0-1_ADD_LINE
  6
CONTINUOUS
 62
    7
 10
404.10593736493513
 20
274.32793390495306
 11
390.05640897143513
 21
274.32793390495306
  0
LINE
  8
_0-1_ADD_LINE
  6
CONTINUOUS
 62
    7
 10
390.05640897143513
 20
274.32793390495306
 11
390.05640897143513
 21
288.37691033495298
  0
LINE
  8
_0-1_ADD_LINE
  6
CONTINUOUS
 62
    7
 10
390.05640897143513
 20
269.32701033495289
 11
404.10593736493513
 21
269.32701033495289
  0
LINE
  8
_0-1_ADD_LINE
  6
CONTINUOUS
 62
    7
 10
404.10593736493513
 20
269.32701033495289
 11
404.10593736493513
 21
255.27803390495296
  0
LINE
  8
_0-1_ADD_LINE
  6
CONTINUOUS
 62
    7
 10
404.10593736493513
 20
255.27803390495296
 11
390.05640897143513
 21
255.27803390495296
  0
LINE
  8
_0-1_ADD_LINE
  6
CONTINUOUS
 62
    7
 10
390.05640897143513
 20
255.27803390495296
 11
390.05640897143513
 21
269.32701033495289
  0
LINE
  8
_0-0_
  6
CONTINUOUS
 62
    7
 10
223.36905897143507
 20
374.10151033495288
 11
237.41858736493506
 21
374.10151033495288
  0
LINE
  8
_0-0_
  6
CONTINUOUS
 62
    7
 10
237.41858736493506
 20
374.10151033495288
 11
237.41858736493506
 21
360.05253390495295
  0
LINE
  8
_0-0_
  6
CONTINUOUS
 62
    7
 10
237.41858736493506
 20
360.05253390495295
 11
223.36905897143507
 21
360.05253390495295
  0
LINE
  8
_0-0_
  6
CONTINUOUS
 62
    7
 10
223.36905897143507
 20
360.05253390495295
 11
223.36905897143507
 21
374.10151033495288
  0
LINE
  8
_0-0_
  6
CONTINUOUS
 62
    7
 10
242.41910897143512
 20
374.10151033495288
 11
256.46863736493515
 21
374.10151033495288
  0
LINE
  8
_0-0_
  6
CONTINUOUS
 62
    7
 10
256.46863736493515
 20
374.10151033495288
 11
256.46863736493515
 21
360.05253390495295
  0
LINE
  8
_0-0_
  6
CONTINUOUS
 62
    7
 10
256.46863736493515
 20
360.05253390495295
 11
242.41910897143512
 21
360.05253390495295
  0
LINE
  8
_0-0_
  6
CONTINUOUS
 62
    7
 10
242.41910897143512
 20
360.05253390495295
 11
242.41910897143512
 21
374.10151033495288
  0
LINE
  8
_0-0_
  6
CONTINUOUS
 62
    7
 10
261.46910897143505
 20
374.10151033495288
 11
275.5186373649351
 21
374.10151033495288
  0
LINE
  8
_0-0_
  6
CONTINUOUS
 62
    7
 10
275.5186373649351
 20
374.10151033495288
 11
275.5186373649351
 21
360.05253390495295
  0
LINE
  8
_0-0_
  6
CONTINUOUS
 62
    7
 10
275.5186373649351
 20
360.05253390495295
 11
261.46910897143505
 21
360.05253390495295
  0
LINE
  8
_0-0_
  6
CONTINUOUS
 62
    7
 10
261.46910897143505
 20
360.05253390495295
 11
261.46910897143505
 21
374.10151033495288
  0
LINE
  8
_0-0_
  6
CONTINUOUS
 62
    7
 10
280.51910897143512
 20
374.10151033495288
 11
294.56863736493517
 21
374.10151033495288
  0
LINE
  8
_0-0_
  6
CONTINUOUS
 62
    7
 10
294.56863736493517
 20
374.10151033495288
 11
294.56863736493517
 21
360.05253390495295
  0
LINE
  8
_0-0_
  6
CONTINUOUS
 62
    7
 10
294.56863736493517
 20
360.05253390495295
 11
280.51910897143512
 21
360.05253390495295
  0
LINE
  8
_0-0_
  6
CONTINUOUS
 62
    7
 10
280.51910897143512
 20
360.05253390495295
 11
280.51910897143512
 21
374.10151033495288
  0
LINE
  8
_0-0_
  6
CONTINUOUS
 62
    7
 10
309.09410897143505
 20
374.10151033495288
 11
323.1436373649351
 21
374.10151033495288
  0
LINE
  8
_0-0_
  6
CONTINUOUS
 62
    7
 10
323.1436373649351
 20
374.10151033495288
 11
323.1436373649351
 21
360.05253390495295
  0
LINE
  8
_0-0_
  6
CONTINUOUS
 62
    7
 10
323.1436373649351
 20
360.05253390495295
 11
309.09410897143505
 21
360.05253390495295
  0
LINE
  8
_0-0_
  6
CONTINUOUS
 62
    7
 10
309.09410897143505
 20
360.05253390495295
 11
309.09410897143505
 21
374.10151033495288
  0
LINE
  8
_0-0_
  6
CONTINUOUS
 62
    7
 10
328.14440897143504
 20
374.10151033495288
 11
342.1939373649351
 21
374.10151033495288
  0
LINE
  8
_0-0_
  6
CONTINUOUS
 62
    7
 10
342.1939373649351
 20
374.10151033495288
 11
342.1939373649351
 21
360.05253390495295
  0
LINE
  8
_0-0_
  6
CONTINUOUS
 62
    7
 10
342.1939373649351
 20
360.05253390495295
 11
328.14440897143504
 21
360.05253390495295
  0
LINE
  8
_0-0_
  6
CONTINUOUS
 62
    7
 10
328.14440897143504
 20
360.05253390495295
 11
328.14440897143504
 21
374.10151033495288
  0
LINE
  8
_0-0_
  6
CONTINUOUS
 62
    7
 10
347.19440897143511
 20
374.10151033495288
 11
361.24393736493516
 21
374.10151033495288
  0
LINE
  8
_0-0_
  6
CONTINUOUS
 62
    7
 10
361.24393736493516
 20
374.10151033495288
 11
361.24393736493516
 21
360.05253390495295
  0
LINE
  8
_0-0_
  6
CONTINUOUS
 62
    7
 10
361.24393736493516
 20
360.05253390495295
 11
347.19440897143511
 21
360.05253390495295
  0
LINE
  8
_0-0_
  6
CONTINUOUS
 62
    7
 10
347.19440897143511
 20
360.05253390495295
 11
347.19440897143511
 21
374.10151033495288
  0
LINE
  8
_0-0_
  6
CONTINUOUS
 62
    7
 10
366.24440897143506
 20
374.10151033495288
 11
380.29393736493512
 21
374.10151033495288
  0
LINE
  8
_0-0_
  6
CONTINUOUS
 62
    7
 10
380.29393736493512
 20
374.10151033495288
 11
380.29393736493512
 21
360.05253390495295
  0
LINE
  8
_0-0_
  6
CONTINUOUS
 62
    7
 10
380.29393736493512
 20
360.05253390495295
 11
366.24440897143506
 21
360.05253390495295
  0
LINE
  8
_0-0_
  6
CONTINUOUS
 62
    7
 10
366.24440897143506
 20
360.05253390495295
 11
366.24440897143506
 21
374.10151033495288
  0
LINE
  8
_0-0_
  6
CONTINUOUS
 62
    7
 10
390.05640897143508
 20
345.52691033495296
 11
404.10593736493513
 21
345.52691033495296
  0
LINE
  8
_0-0_
  6
CONTINUOUS
 62
    7
 10
404.10593736493513
 20
345.52691033495296
 11
404.10593736493513
 21
331.47793390495303
  0
LINE
  8
_0-0_
  6
CONTINUOUS
 62
    7
 10
404.10593736493513
 20
331.47793390495303
 11
390.05640897143508
 21
331.47793390495303
  0
LINE
  8
_0-0_
  6
CONTINUOUS
 62
    7
 10
390.05640897143508
 20
331.47793390495303
 11
390.05640897143508
 21
345.52691033495296
  0
LINE
  8
_0-0_
  6
CONTINUOUS
 62
    7
 10
390.05640897143508
 20
326.47691033495289
 11
404.10593736493513
 21
326.47691033495289
  0
LINE
  8
_0-0_
  6
CONTINUOUS
 62
    7
 10
404.10593736493513
 20
326.47691033495289
 11
404.10593736493513
 21
312.42793390495297
  0
LINE
  8
_0-0_
  6
CONTINUOUS
 62
    7
 10
404.10593736493513
 20
312.42793390495297
 11
390.05640897143508
 21
312.42793390495297
  0
LINE
  8
_0-0_
  6
CONTINUOUS
 62
    7
 10
390.05640897143508
 20
312.42793390495297
 11
390.05640897143508
 21
326.47691033495289
  0
LINE
  8
_0-0_
  6
CONTINUOUS
 62
    7
 10
366.24440897143506
 20
345.52691033495296
 11
380.29393736493512
 21
345.52691033495296
  0
LINE
  8
_0-0_
  6
CONTINUOUS
 62
    7
 10
380.29393736493512
 20
345.52691033495296
 11
380.29393736493512
 21
331.47793390495303
  0
LINE
  8
_0-0_
  6
CONTINUOUS
 62
    7
 10
380.29393736493512
 20
331.47793390495303
 11
366.24440897143506
 21
331.47793390495303
  0
LINE
  8
_0-0_
  6
CONTINUOUS
 62
    7
 10
366.24440897143506
 20
331.47793390495303
 11
366.24440897143506
 21
345.52691033495296
  0
LINE
  8
_0-0_
  6
CONTINUOUS
 62
    7
 10
347.19440897143511
 20
345.52691033495296
 11
361.24393736493516
 21
345.52691033495296
  0
LINE
  8
_0-0_
  6
CONTINUOUS
 62
    7
 10
361.24393736493516
 20
345.52691033495296
 11
361.24393736493516
 21
331.47793390495303
  0
LINE
  8
_0-0_
  6
CONTINUOUS
 62
    7
 10
361.24393736493516
 20
331.47793390495303
 11
347.19440897143511
 21
331.47793390495303
  0
LINE
  8
_0-0_
  6
CONTINUOUS
 62
    7
 10
347.19440897143511
 20
331.47793390495303
 11
347.19440897143511
 21
345.52691033495296
  0
LINE
  8
_0-0_
  6
CONTINUOUS
 62
    7
 10
328.14440897143504
 20
345.52691033495296
 11
342.1939373649351
 21
345.52691033495296
  0
LINE
  8
_0-0_
  6
CONTINUOUS
 62
    7
 10
342.1939373649351
 20
345.52691033495296
 11
342.1939373649351
 21
331.47793390495303
  0
LINE
  8
_0-0_
  6
CONTINUOUS
 62
    7
 10
342.1939373649351
 20
331.47793390495303
 11
328.14440897143504
 21
331.47793390495303
  0
LINE
  8
_0-0_
  6
CONTINUOUS
 62
    7
 10
328.14440897143504
 20
331.47793390495303
 11
328.14440897143504
 21
345.52691033495296
  0
LINE
  8
_0-0_
  6
CONTINUOUS
 62
    7
 10
309.09410897143505
 20
345.52691033495296
 11
323.1436373649351
 21
345.52691033495296
  0
LINE
  8
_0-0_
  6
CONTINUOUS
 62
    7
 10
323.1436373649351
 20
345.52691033495296
 11
323.1436373649351
 21
331.47793390495303
  0
LINE
  8
_0-0_
  6
CONTINUOUS
 62
    7
 10
323.1436373649351
 20
331.47793390495303
 11
309.09410897143505
 21
331.47793390495303
  0
LINE
  8
_0-0_
  6
CONTINUOUS
 62
    7
 10
309.09410897143505
 20
331.47793390495303
 11
309.09410897143505
 21
345.52691033495296
  0
LINE
  8
_0-0_
  6
CONTINUOUS
 62
    7
 10
290.04410897143509
 20
345.52691033495296
 11
304.09363736493515
 21
345.52691033495296
  0
LINE
  8
_0-0_
  6
CONTINUOUS
 62
    7
 10
304.09363736493515
 20
345.52691033495296
 11
304.09363736493515
 21
331.47793390495303
  0
LINE
  8
_0-0_
  6
CONTINUOUS
 62
    7
 10
304.09363736493515
 20
331.47793390495303
 11
290.04410897143509
 21
331.47793390495303
  0
LINE
  8
_0-0_
  6
CONTINUOUS
 62
    7
 10
290.04410897143509
 20
331.47793390495303
 11
290.04410897143509
 21
345.52691033495296
  0
LINE
  8
_0-0_
  6
CONTINUOUS
 62
    7
 10
270.99410897143514
 20
345.52691033495296
 11
285.04363736493519
 21
345.52691033495296
  0
LINE
  8
_0-0_
  6
CONTINUOUS
 62
    7
 10
285.04363736493519
 20
345.52691033495296
 11
285.04363736493519
 21
331.47793390495303
  0
LINE
  8
_0-0_
  6
CONTINUOUS
 62
    7
 10
285.04363736493519
 20
331.47793390495303
 11
270.99410897143514
 21
331.47793390495303
  0
LINE
  8
_0-0_
  6
CONTINUOUS
 62
    7
 10
270.99410897143514
 20
331.47793390495303
 11
270.99410897143514
 21
345.52691033495296
  0
LINE
  8
_0-0_
  6
CONTINUOUS
 62
    7
 10
280.51910897143512
 20
326.47691033495289
 11
294.56863736493517
 21
326.47691033495289
  0
LINE
  8
_0-0_
  6
CONTINUOUS
 62
    7
 10
294.56863736493517
 20
326.47691033495289
 11
294.56863736493517
 21
312.42793390495297
  0
LINE
  8
_0-0_
  6
CONTINUOUS
 62
    7
 10
294.56863736493517
 20
312.42793390495297
 11
280.51910897143512
 21
312.42793390495297
  0
LINE
  8
_0-0_
  6
CONTINUOUS
 62
    7
 10
280.51910897143512
 20
312.42793390495297
 11
280.51910897143512
 21
326.47691033495289
  0
LINE
  8
_0-0_
  6
CONTINUOUS
 62
    7
 10
299.56910897143507
 20
326.47691033495289
 11
313.61863736493513
 21
326.47691033495289
  0
LINE
  8
_0-0_
  6
CONTINUOUS
 62
    7
 10
313.61863736493513
 20
326.47691033495289
 11
313.61863736493513
 21
312.42793390495297
  0
LINE
  8
_0-0_
  6
CONTINUOUS
 62
    7
 10
313.61863736493513
 20
312.42793390495297
 11
299.56910897143507
 21
312.42793390495297
  0
LINE
  8
_0-0_
  6
CONTINUOUS
 62
    7
 10
299.56910897143507
 20
312.42793390495297
 11
299.56910897143507
 21
326.47691033495289
  0
LINE
  8
_0-0_
  6
CONTINUOUS
 62
    7
 10
318.61770897143504
 20
326.47691033495289
 11
332.66723736493509
 21
326.47691033495289
  0
LINE
  8
_0-0_
  6
CONTINUOUS
 62
    7
 10
332.66723736493509
 20
326.47691033495289
 11
332.66723736493509
 21
312.42793390495297
  0
LINE
  8
_0-0_
  6
CONTINUOUS
 62
    7
 10
332.66723736493509
 20
312.42793390495297
 11
318.61770897143504
 21
312.42793390495297
  0
LINE
  8
_0-0_
  6
CONTINUOUS
 62
    7
 10
318.61770897143504
 20
312.42793390495297
 11
318.61770897143504
 21
326.47691033495289
  0
LINE
  8
_0-0_
  6
CONTINUOUS
 62
    7
 10
337.66740897143507
 20
326.47691033495289
 11
351.71693736493512
 21
326.47691033495289
  0
LINE
  8
_0-0_
  6
CONTINUOUS
 62
    7
 10
351.71693736493512
 20
326.47691033495289
 11
351.71693736493512
 21
312.42793390495297
  0
LINE
  8
_0-0_
  6
CONTINUOUS
 62
    7
 10
351.71693736493512
 20
312.42793390495297
 11
337.66740897143507
 21
312.42793390495297
  0
LINE
  8
_0-0_
  6
CONTINUOUS
 62
    7
 10
337.66740897143507
 20
312.42793390495297
 11
337.66740897143507
 21
326.47691033495289
  0
LINE
  8
_0-0_
  6
CONTINUOUS
 62
    7
 10
251.9441089714351
 20
345.52691033495296
 11
265.99363736493513
 21
345.52691033495296
  0
LINE
  8
_0-0_
  6
CONTINUOUS
 62
    7
 10
265.99363736493513
 20
345.52691033495296
 11
265.99363736493513
 21
331.47793390495303
  0
LINE
  8
_0-0_
  6
CONTINUOUS
 62
    7
 10
265.99363736493513
 20
331.47793390495303
 11
251.9441089714351
 21
331.47793390495303
  0
LINE
  8
_0-0_
  6
CONTINUOUS
 62
    7
 10
251.9441089714351
 20
331.47793390495303
 11
251.9441089714351
 21
345.52691033495296
  0
LINE
  8
_0-0_
  6
CONTINUOUS
 62
    7
 10
232.89410897143514
 20
345.52691033495296
 11
246.94363736493514
 21
345.52691033495296
  0
LINE
  8
_0-0_
  6
CONTINUOUS
 62
    7
 10
246.94363736493514
 20
345.52691033495296
 11
246.94363736493514
 21
331.47793390495303
  0
LINE
  8
_0-0_
  6
CONTINUOUS
 62
    7
 10
246.94363736493514
 20
331.47793390495303
 11
232.89410897143514
 21
331.47793390495303
  0
LINE
  8
_0-0_
  6
CONTINUOUS
 62
    7
 10
232.89410897143514
 20
331.47793390495303
 11
232.89410897143514
 21
345.52691033495296
  0
LINE
  8
_0-0_
  6
CONTINUOUS
 62
    7
 10
223.36905897143507
 20
326.47691033495289
 11
237.41858736493506
 21
326.47691033495289
  0
LINE
  8
_0-0_
  6
CONTINUOUS
 62
    7
 10
237.41858736493506
 20
326.47691033495289
 11
237.41858736493506
 21
312.42793390495297
  0
LINE
  8
_0-0_
  6
CONTINUOUS
 62
    7
 10
237.41858736493506
 20
312.42793390495297
 11
223.36905897143507
 21
312.42793390495297
  0
LINE
  8
_0-0_
  6
CONTINUOUS
 62
    7
 10
223.36905897143507
 20
312.42793390495297
 11
223.36905897143507
 21
326.47691033495289
  0
LINE
  8
_0-0_
  6
CONTINUOUS
 62
    7
 10
242.41910897143512
 20
326.47691033495289
 11
256.46863736493515
 21
326.47691033495289
  0
LINE
  8
_0-0_
  6
CONTINUOUS
 62
    7
 10
256.46863736493515
 20
326.47691033495289
 11
256.46863736493515
 21
312.42793390495297
  0
LINE
  8
_0-0_
  6
CONTINUOUS
 62
    7
 10
256.46863736493515
 20
312.42793390495297
 11
242.41910897143512
 21
312.42793390495297
  0
LINE
  8
_0-0_
  6
CONTINUOUS
 62
    7
 10
242.41910897143512
 20
312.42793390495297
 11
242.41910897143512
 21
326.47691033495289
  0
LINE
  8
_0-0_
  6
CONTINUOUS
 62
    7
 10
261.46910897143505
 20
326.47691033495289
 11
275.5186373649351
 21
326.47691033495289
  0
LINE
  8
_0-0_
  6
CONTINUOUS
 62
    7
 10
275.5186373649351
 20
326.47691033495289
 11
275.5186373649351
 21
312.42793390495297
  0
LINE
  8
_0-0_
  6
CONTINUOUS
 62
    7
 10
275.5186373649351
 20
312.42793390495297
 11
261.46910897143505
 21
312.42793390495297
  0
LINE
  8
_0-0_
  6
CONTINUOUS
 62
    7
 10
261.46910897143505
 20
312.42793390495297
 11
261.46910897143505
 21
326.47691033495289
  0
LINE
  8
_0-0_
  6
CONTINUOUS
 62
    7
 10
285.28161897143514
 20
307.42691033495294
 11
299.33114736493519
 21
307.42691033495294
  0
LINE
  8
_0-0_
  6
CONTINUOUS
 62
    7
 10
299.33114736493519
 20
307.42691033495294
 11
299.33114736493519
 21
293.37793390495301
  0
LINE
  8
_0-0_
  6
CONTINUOUS
 62
    7
 10
299.33114736493519
 20
293.37793390495301
 11
285.28161897143514
 21
293.37793390495301
  0
LINE
  8
_0-0_
  6
CONTINUOUS
 62
    7
 10
285.28161897143514
 20
293.37793390495301
 11
285.28161897143514
 21
307.42691033495294
  0
LINE
  8
_0-0_
  6
CONTINUOUS
 62
    7
 10
304.33161897143509
 20
307.42691033495294
 11
318.38114736493515
 21
307.42691033495294
  0
LINE
  8
_0-0_
  6
CONTINUOUS
 62
    7
 10
318.38114736493515
 20
307.42691033495294
 11
318.38114736493515
 21
293.37793390495301
  0
LINE
  8
_0-0_
  6
CONTINUOUS
 62
    7
 10
318.38114736493515
 20
293.37793390495301
 11
304.33161897143509
 21
293.37793390495301
  0
LINE
  8
_0-0_
  6
CONTINUOUS
 62
    7
 10
304.33161897143509
 20
293.37793390495301
 11
304.33161897143509
 21
307.42691033495294
  0
LINE
  8
_0-0_
  6
CONTINUOUS
 62
    7
 10
323.38021897143506
 20
307.42691033495294
 11
337.42974736493511
 21
307.42691033495294
  0
LINE
  8
_0-0_
  6
CONTINUOUS
 62
    7
 10
337.42974736493511
 20
307.42691033495294
 11
337.42974736493511
 21
293.37793390495301
  0
LINE
  8
_0-0_
  6
CONTINUOUS
 62
    7
 10
337.42974736493511
 20
293.37793390495301
 11
323.38021897143506
 21
293.37793390495301
  0
LINE
  8
_0-0_
  6
CONTINUOUS
 62
    7
 10
323.38021897143506
 20
293.37793390495301
 11
323.38021897143506
 21
307.42691033495294
  0
LINE
  8
_0-0_
  6
CONTINUOUS
 62
    7
 10
342.42991897143509
 20
307.42691033495294
 11
356.47944736493514
 21
307.42691033495294
  0
LINE
  8
_0-0_
  6
CONTINUOUS
 62
    7
 10
356.47944736493514
 20
307.42691033495294
 11
356.47944736493514
 21
293.37793390495301
  0
LINE
  8
_0-0_
  6
CONTINUOUS
 62
    7
 10
356.47944736493514
 20
293.37793390495301
 11
342.42991897143509
 21
293.37793390495301
  0
LINE
  8
_0-0_
  6
CONTINUOUS
 62
    7
 10
342.42991897143509
 20
293.37793390495301
 11
342.42991897143509
 21
307.42691033495294
  0
LINE
  8
_0-0_
  6
CONTINUOUS
 62
    7
 10
228.13156897143509
 20
307.42691033495294
 11
242.18109736493508
 21
307.42691033495294
  0
LINE
  8
_0-0_
  6
CONTINUOUS
 62
    7
 10
242.18109736493508
 20
307.42691033495294
 11
242.18109736493508
 21
293.37793390495301
  0
LINE
  8
_0-0_
  6
CONTINUOUS
 62
    7
 10
242.18109736493508
 20
293.37793390495301
 11
228.13156897143509
 21
293.37793390495301
  0
LINE
  8
_0-0_
  6
CONTINUOUS
 62
    7
 10
228.13156897143509
 20
293.37793390495301
 11
228.13156897143509
 21
307.42691033495294
  0
LINE
  8
_0-0_
  6
CONTINUOUS
 62
    7
 10
247.18161897143514
 20
307.42691033495294
 11
261.23114736493517
 21
307.42691033495294
  0
LINE
  8
_0-0_
  6
CONTINUOUS
 62
    7
 10
261.23114736493517
 20
307.42691033495294
 11
261.23114736493517
 21
293.37793390495301
  0
LINE
  8
_0-0_
  6
CONTINUOUS
 62
    7
 10
261.23114736493517
 20
293.37793390495301
 11
247.18161897143514
 21
293.37793390495301
  0
LINE
  8
_0-0_
  6
CONTINUOUS
 62
    7
 10
247.18161897143514
 20
293.37793390495301
 11
247.18161897143514
 21
307.42691033495294
  0
LINE
  8
_0-0_
  6
CONTINUOUS
 62
    7
 10
266.23161897143507
 20
307.42691033495294
 11
280.28114736493512
 21
307.42691033495294
  0
LINE
  8
_0-0_
  6
CONTINUOUS
 62
    7
 10
280.28114736493512
 20
307.42691033495294
 11
280.28114736493512
 21
293.37793390495301
  0
LINE
  8
_0-0_
  6
CONTINUOUS
 62
    7
 10
280.28114736493512
 20
293.37793390495301
 11
266.23161897143507
 21
293.37793390495301
  0
LINE
  8
_0-0_
  6
CONTINUOUS
 62
    7
 10
266.23161897143507
 20
293.37793390495301
 11
266.23161897143507
 21
307.42691033495294
  0
LINE
  8
_0-0_
  6
CONTINUOUS
 62
    7
 10
294.80665897143513
 20
288.37691033495298
 11
308.85618736493518
 21
288.37691033495298
  0
LINE
  8
_0-0_
  6
CONTINUOUS
 62
    7
 10
308.85618736493518
 20
288.37691033495298
 11
308.85618736493518
 21
274.32793390495306
  0
LINE
  8
_0-0_
  6
CONTINUOUS
 62
    7
 10
308.85618736493518
 20
274.32793390495306
 11
294.80665897143513
 21
274.32793390495306
  0
LINE
  8
_0-0_
  6
CONTINUOUS
 62
    7
 10
294.80665897143513
 20
274.32793390495306
 11
294.80665897143513
 21
288.37691033495298
  0
LINE
  8
_0-0_
  6
CONTINUOUS
 62
    7
 10
313.85665897143508
 20
288.37691033495298
 11
327.90618736493514
 21
288.37691033495298
  0
LINE
  8
_0-0_
  6
CONTINUOUS
 62
    7
 10
327.90618736493514
 20
288.37691033495298
 11
327.90618736493514
 21
274.32793390495306
  0
LINE
  8
_0-0_
  6
CONTINUOUS
 62
    7
 10
327.90618736493514
 20
274.32793390495306
 11
313.85665897143508
 21
274.32793390495306
  0
LINE
  8
_0-0_
  6
CONTINUOUS
 62
    7
 10
313.85665897143508
 20
274.32793390495306
 11
313.85665897143508
 21
288.37691033495298
  0
LINE
  8
_0-0_
  6
CONTINUOUS
 62
    7
 10
332.90525897143505
 20
288.37691033495298
 11
346.9547873649351
 21
288.37691033495298
  0
LINE
  8
_0-0_
  6
CONTINUOUS
 62
    7
 10
346.9547873649351
 20
288.37691033495298
 11
346.9547873649351
 21
274.32793390495306
  0
LINE
  8
_0-0_
  6
CONTINUOUS
 62
    7
 10
346.9547873649351
 20
274.32793390495306
 11
332.90525897143505
 21
274.32793390495306
  0
LINE
  8
_0-0_
  6
CONTINUOUS
 62
    7
 10
332.90525897143505
 20
274.32793390495306
 11
332.90525897143505
 21
288.37691033495298
  0
LINE
  8
_0-0_
  6
CONTINUOUS
 62
    7
 10
237.65660897143508
 20
288.37691033495298
 11
251.70613736493507
 21
288.37691033495298
  0
LINE
  8
_0-0_
  6
CONTINUOUS
 62
    7
 10
251.70613736493507
 20
288.37691033495298
 11
251.70613736493507
 21
274.32793390495306
  0
LINE
  8
_0-0_
  6
CONTINUOUS
 62
    7
 10
251.70613736493507
 20
274.32793390495306
 11
237.65660897143508
 21
274.32793390495306
  0
LINE
  8
_0-0_
  6
CONTINUOUS
 62
    7
 10
237.65660897143508
 20
274.32793390495306
 11
237.65660897143508
 21
288.37691033495298
  0
LINE
  8
_0-0_
  6
CONTINUOUS
 62
    7
 10
256.7066589714351
 20
288.37691033495298
 11
270.75618736493516
 21
288.37691033495298
  0
LINE
  8
_0-0_
  6
CONTINUOUS
 62
    7
 10
270.75618736493516
 20
288.37691033495298
 11
270.75618736493516
 21
274.32793390495306
  0
LINE
  8
_0-0_
  6
CONTINUOUS
 62
    7
 10
270.75618736493516
 20
274.32793390495306
 11
256.7066589714351
 21
274.32793390495306
  0
LINE
  8
_0-0_
  6
CONTINUOUS
 62
    7
 10
256.7066589714351
 20
274.32793390495306
 11
256.7066589714351
 21
288.37691033495298
  0
LINE
  8
_0-0_
  6
CONTINUOUS
 62
    7
 10
275.75665897143506
 20
288.37691033495298
 11
289.80618736493511
 21
288.37691033495298
  0
LINE
  8
_0-0_
  6
CONTINUOUS
 62
    7
 10
289.80618736493511
 20
288.37691033495298
 11
289.80618736493511
 21
274.32793390495306
  0
LINE
  8
_0-0_
  6
CONTINUOUS
 62
    7
 10
289.80618736493511
 20
274.32793390495306
 11
275.75665897143506
 21
274.32793390495306
  0
LINE
  8
_0-0_
  6
CONTINUOUS
 62
    7
 10
275.75665897143506
 20
274.32793390495306
 11
275.75665897143506
 21
288.37691033495298
  0
LINE
  8
_0-0_
  6
CONTINUOUS
 62
    7
 10
323.38165897143517
 20
269.32701033495289
 11
337.43118736493523
 21
269.32701033495289
  0
LINE
  8
_0-0_
  6
CONTINUOUS
 62
    7
 10
337.43118736493523
 20
269.32701033495289
 11
337.43118736493523
 21
255.27803390495296
  0
LINE
  8
_0-0_
  6
CONTINUOUS
 62
    7
 10
337.43118736493523
 20
255.27803390495296
 11
323.38165897143517
 21
255.27803390495296
  0
LINE
  8
_0-0_
  6
CONTINUOUS
 62
    7
 10
323.38165897143517
 20
255.27803390495296
 11
323.38165897143517
 21
269.32701033495289
  0
LINE
  8
_0-0_
  6
CONTINUOUS
 62
    7
 10
342.43165897143513
 20
269.32701033495289
 11
356.48118736493518
 21
269.32701033495289
  0
LINE
  8
_0-0_
  6
CONTINUOUS
 62
    7
 10
356.48118736493518
 20
269.32701033495289
 11
356.48118736493518
 21
255.27803390495296
  0
LINE
  8
_0-0_
  6
CONTINUOUS
 62
    7
 10
356.48118736493518
 20
255.27803390495296
 11
342.43165897143513
 21
255.27803390495296
  0
LINE
  8
_0-0_
  6
CONTINUOUS
 62
    7
 10
342.43165897143513
 20
255.27803390495296
 11
342.43165897143513
 21
269.32701033495289
  0
LINE
  8
_0-0_
  6
CONTINUOUS
 62
    7
 10
266.23160897143509
 20
269.32701033495289
 11
280.28113736493515
 21
269.32701033495289
  0
LINE
  8
_0-0_
  6
CONTINUOUS
 62
    7
 10
280.28113736493515
 20
269.32701033495289
 11
280.28113736493515
 21
255.27803390495296
  0
LINE
  8
_0-0_
  6
CONTINUOUS
 62
    7
 10
280.28113736493515
 20
255.27803390495296
 11
266.23160897143509
 21
255.27803390495296
  0
LINE
  8
_0-0_
  6
CONTINUOUS
 62
    7
 10
266.23160897143509
 20
255.27803390495296
 11
266.23160897143509
 21
269.32701033495289
  0
LINE
  8
_0-0_
  6
CONTINUOUS
 62
    7
 10
285.28165897143515
 20
269.32701033495289
 11
299.3311873649352
 21
269.32701033495289
  0
LINE
  8
_0-0_
  6
CONTINUOUS
 62
    7
 10
299.3311873649352
 20
269.32701033495289
 11
299.3311873649352
 21
255.27803390495296
  0
LINE
  8
_0-0_
  6
CONTINUOUS
 62
    7
 10
299.3311873649352
 20
255.27803390495296
 11
285.28165897143515
 21
255.27803390495296
  0
LINE
  8
_0-0_
  6
CONTINUOUS
 62
    7
 10
285.28165897143515
 20
255.27803390495296
 11
285.28165897143515
 21
269.32701033495289
  0
LINE
  8
_0-0_
  6
CONTINUOUS
 62
    7
 10
304.3316589714351
 20
269.32701033495289
 11
318.38118736493516
 21
269.32701033495289
  0
LINE
  8
_0-0_
  6
CONTINUOUS
 62
    7
 10
318.38118736493516
 20
269.32701033495289
 11
318.38118736493516
 21
255.27803390495296
  0
LINE
  8
_0-0_
  6
CONTINUOUS
 62
    7
 10
318.38118736493516
 20
255.27803390495296
 11
304.3316589714351
 21
255.27803390495296
  0
LINE
  8
_0-0_
  6
CONTINUOUS
 62
    7
 10
304.3316589714351
 20
255.27803390495296
 11
304.3316589714351
 21
269.32701033495289
  0
LINE
  8
_0-0_
  6
CONTINUOUS
 62
    7
 10
244.80030897143519
 20
269.32701033495289
 11
258.84983736493518
 21
269.32701033495289
  0
LINE
  8
_0-0_
  6
CONTINUOUS
 62
    7
 10
258.84983736493518
 20
269.32701033495289
 11
258.84983736493518
 21
255.27803390495296
  0
LINE
  8
_0-0_
  6
CONTINUOUS
 62
    7
 10
258.84983736493518
 20
255.27803390495296
 11
244.80030897143519
 21
255.27803390495296
  0
LINE
  8
_0-0_
  6
CONTINUOUS
 62
    7
 10
244.80030897143519
 20
255.27803390495296
 11
244.80030897143519
 21
269.32701033495289
  0
LINE
  8
_0-0_
  6
CONTINUOUS
 62
    7
 10
363.86140897143514
 20
269.32701033495289
 11
377.91093736493514
 21
269.32701033495289
  0
LINE
  8
_0-0_
  6
CONTINUOUS
 62
    7
 10
377.91093736493514
 20
269.32701033495289
 11
377.91093736493514
 21
255.27803390495296
  0
LINE
  8
_0-0_
  6
CONTINUOUS
 62
    7
 10
377.91093736493514
 20
255.27803390495296
 11
363.86140897143514
 21
255.27803390495296
  0
LINE
  8
_0-0_
  6
CONTINUOUS
 62
    7
 10
363.86140897143514
 20
255.27803390495296
 11
363.86140897143514
 21
269.32701033495289
  0
LINE
  8
_0-0_
  6
CONTINUOUS
 62
    7
 10
359.10040897143517
 20
288.37691033495298
 11
373.14993736493517
 21
288.37691033495298
  0
LINE
  8
_0-0_
  6
CONTINUOUS
 62
    7
 10
373.14993736493517
 20
288.37691033495298
 11
373.14993736493517
 21
274.32793390495306
  0
LINE
  8
_0-0_
  6
CONTINUOUS
 62
    7
 10
373.14993736493517
 20
274.32793390495306
 11
359.10040897143517
 21
274.32793390495306
  0
LINE
  8
_0-0_
  6
CONTINUOUS
 62
    7
 10
359.10040897143517
 20
274.32793390495306
 11
359.10040897143517
 21
288.37691033495298
  0
LINE
  8
_0-0_
  6
CONTINUOUS
 62
    7
 10
377.91173736493511
 20
316.95191033495297
 11
377.91173736493511
 21
302.90293390495304
  0
LINE
  8
_0-0_
  6
CONTINUOUS
 62
    7
 10
363.86220897143511
 20
302.90293390495304
 11
363.86220897143511
 21
316.95191033495297
  0
LINE
  8
_0-0_
  6
CONTINUOUS
 62
    7
 10
390.05640897143513
 20
307.42691033495294
 11
404.10593736493513
 21
307.42691033495294
  0
LINE
  8
_0-0_
  6
CONTINUOUS
 62
    7
 10
404.10593736493513
 20
307.42691033495294
 11
404.10593736493513
 21
293.37793390495301
  0
LINE
  8
_0-0_
  6
CONTINUOUS
 62
    7
 10
404.10593736493513
 20
293.37793390495301
 11
390.05640897143513
 21
293.37793390495301
  0
LINE
  8
_0-0_
  6
CONTINUOUS
 62
    7
 10
390.05640897143513
 20
293.37793390495301
 11
390.05640897143513
 21
307.42691033495294
  0
LINE
  8
_0-0_
  6
CONTINUOUS
 62
    7
 10
390.05640897143513
 20
288.37691033495298
 11
404.10593736493513
 21
288.37691033495298
  0
LINE
  8
_0-0_
  6
CONTINUOUS
 62
    7
 10
404.10593736493513
 20
288.37691033495298
 11
404.10593736493513
 21
274.32793390495306
  0
LINE
  8
_0-0_
  6
CONTINUOUS
 62
    7
 10
404.10593736493513
 20
274.32793390495306
 11
390.05640897143513
 21
274.32793390495306
  0
LINE
  8
_0-0_
  6
CONTINUOUS
 62
    7
 10
390.05640897143513
 20
274.32793390495306
 11
390.05640897143513
 21
288.37691033495298
  0
LINE
  8
_0-0_
  6
CONTINUOUS
 62
    7
 10
390.05640897143513
 20
269.32701033495289
 11
404.10593736493513
 21
269.32701033495289
  0
LINE
  8
_0-0_
  6
CONTINUOUS
 62
    7
 10
404.10593736493513
 20
269.32701033495289
 11
404.10593736493513
 21
255.27803390495296
  0
LINE
  8
_0-0_
  6
CONTINUOUS
 62
    7
 10
404.10593736493513
 20
255.27803390495296
 11
390.05640897143513
 21
255.27803390495296
  0
LINE
  8
_0-0_
  6
CONTINUOUS
 62
    7
 10
390.05640897143513
 20
255.27803390495296
 11
390.05640897143513
 21
269.32701033495289
  0
LINE
  8
_0-1_ADD_LINE
  6
CONTINUOUS
 62
    7
 10
377.91173736493511
 20
302.90293390495304
 11
373.18609816818508
 21
302.90293390495304
  0
CIRCLE
  8
_0-0_
  6
CONTINUOUS
 62
    7
 10
391.7063981681851
 20
376.57728711995287
 40
1
  0
ENDSEC
  0
EOF
