  0
SECTION
  2
HEADER
  9
$ACADVER
  1
AC1009
  9
$INSBASE
 10
0
 20
0
 30
0
  9
$EXTMIN
 10
0
 20
0
  9
$EXTMAX
 10
841
 20
594
  9
$LIMMIN
 10
0
 20
0
  9
$LIMMAX
 10
841
 20
594
  9
$LTSCALE
 40
1
  0
ENDSEC
  0
SECTION
  2
TABLES
  0
TABLE
  2
LTYPE
 70
     9
  0
LTYPE
  2
CONTINUOUS
 70
    64
  3
実線
 72
    65
 73
     0
 40
0.0
  0
LTYPE
  2
DASHED1
 70
    64
  3
--  --  --  --  --  --  --  --  
 72
    65
 73
     2
 40
2.5
 49
1.25
 49
-1.25
  0
LTYPE
  2
DASHED2
 70
    64
  3
----    ----    ----    ----    
 72
    65
 73
     2
 40
5.0
 49
2.5
 49
-2.5
  0
LTYPE
  2
DASHED3
 70
    64
  3
------  ------  ------  ------  
 72
    65
 73
     2
 40
5.0
 49
3.75
 49
-1.25
  0
LTYPE
  2
CENTER1
 70
    64
  3
----- - ----- - ----- - ----- - 
 72
    65
 73
     4
 40
10.0
 49
6.25
 49
-1.25
 49
1.25
 49
-1.25
  0
LTYPE
  2
CENTER2
 70
    64
  3
----------  --  ----------  --  
 72
    65
 73
     4
 40
20.0
 49
12.5
 49
-2.5
 49
2.5
 49
-2.5
  0
LTYPE
  2
PHANTOM1
 70
    64
  3
--- - - --- - - --- - - --- - - 
 72
    65
 73
     6
 40
10.0
 49
3.25
 49
-1.25
 49
1.25
 49
-1.25
 49
1.25
 49
-1.25
  0
LTYPE
  2
PHANTOM2
 70
    64
  3
--------  -  -  --------  -  -  
 72
    65
 73
     6
 40
20.0
 49
10.0
 49
-2.5
 49
1.25
 49
-2.5
 49
1.25
 49
-2.5
  0
LTYPE
  2
DOT
 70
    64
  3
-   -   -   -   -   -   -   -   
 72
    65
 73
     2
 40
2.5
 49
0.625
 49
-1.875
  0
LTYPE
  2
DUMMY
 70
    64
  3
ダミー
 72
    65
 73
     0
 40
0.0
  0
LTYPE
  2
RAND1
 70
    64
  3
ランダム線1
 72
    65
 73
     4
 40
10.0
 49
1.0
 49
-2.0
 49
3.0
 49
-4.0
  0
LTYPE
  2
RAND2
 70
    64
  3
ランダム線2
 72
    65
 73
     4
 40
14.0
 49
2.0
 49
-3.0
 49
4.0
 49
-5.0
  0
LTYPE
  2
RAND3
 70
    64
  3
ランダム線3
 72
    65
 73
     4
 40
18.0
 49
3.0
 49
-4.0
 49
5.0
 49
-6.0
  0
LTYPE
  2
RAND4
 70
    64
  3
ランダム線4
 72
    65
 73
     4
 40
22.0
 49
4.0
 49
-5.0
 49
6.0
 49
-7.0
  0
LTYPE
  2
RAND5
 70
    64
  3
ランダム線5
 72
    65
 73
     4
 40
26.0
 49
5.0
 49
-6.0
 49
7.0
 49
-8.0
  0
LTYPE
  2
LONG1
 70
    64
  3
----------  --  ----------  --  
 72
    65
 73
     4
 40
40.0
 49
32.5
 49
-2.5
 49
2.5
 49
-2.5
  0
LTYPE
  2
LONG2
 70
    64
  3
--------  -  -  --------  -  -  
 72
    65
 73
     6
 40
40.0
 49
30.0
 49
-2.5
 49
1.25
 49
-2.5
 49
1.25
 49
-2.5
  0
LTYPE
  2
LONG3
 70
    64
  3
+++++++++++++++..+++++++++++++++
 72
    65
 73
     2
 40
40.0
 49
37.5
 49
-2.5
  0
LTYPE
  2
LONG4
 70
    64
  3
+++++++++++++++..+++++++++++++++
 72
    65
 73
     2
 40
80.0
 49
75.0
 49
-5.0
  0
LTYPE
  2
LONG5
 70
    64
  3
----------  --  ----------  --  
 72
    65
 73
     4
 40
60.0
 49
37.5
 49
-7.5
 49
7.5
 49
-7.5
  0
LTYPE
  2
dashed
 70
   64
  3
-------   -------------   ------
 72
   65
 73
    2
 40
7.5
 49
6
 49
-1.5
  0
LTYPE
  2
dashed_spaced
 70
   64
  3
----        --------        ----
 72
   65
 73
    2
 40
12
 49
6
 49
-6
  0
LTYPE
  2
long_dashed_dotted
 70
   64
  3
------------- --- --------------
 72
   65
 73
    4
 40
15.25
 49
12
 49
-1.5
 49
0.25
 49
-1.5
  0
LTYPE
  2
long_dashed_double-dotted
 70
   64
  3
----------- --- --- ------------
 72
   65
 73
    6
 40
17
 49
12
 49
-1.5
 49
0.25
 49
-1.5
 49
0.25
 49
-1.5
  0
LTYPE
  2
long_dashed_triplicate-dotted
 70
   64
  3
--------- --- --- --- ----------
 72
   65
 73
    8
 40
18.75
 49
12
 49
-1.5
 49
0.25
 49
-1.5
 49
0.25
 49
-1.5
 49
0.25
 49
-1.5
  0
LTYPE
  2
dotted
 70
   64
  3
   -       -       -       -    
 72
   65
 73
    2
 40
1.75
 49
0.25
 49
-1.5
  0
LTYPE
  2
chain
 70
   64
  3
-------------- -- --------------
 72
   65
 73
    4
 40
18.5
 49
12
 49
-1.5
 49
3.5
 49
-1.5
  0
LTYPE
  2
chain_double_dash
 70
   64
  3
------------ -- -- -------------
 72
   65
 73
    6
 40
23.5
 49
12
 49
-1.5
 49
3.5
 49
-1.5
 49
3.5
 49
-1.5
  0
LTYPE
  2
dashed_dotted
 70
   64
  3
-----------     -     ----------
 72
   65
 73
    4
 40
9.25
 49
6
 49
-1.5
 49
0.25
 49
-1.5
  0
LTYPE
  2
double-dashed_dotted
 70
   64
  3
------   -----------   -   -----
 72
   65
 73
    6
 40
16.75
 49
6
 49
-1.5
 49
6
 49
-1.5
 49
0.25
 49
-1.5
  0
LTYPE
  2
dashed_double-dotted
 70
   64
  3
---------    -    -    ---------
 72
   65
 73
    6
 40
11
 49
6
 49
-1.5
 49
0.25
 49
-1.5
 49
0.25
 49
-1.5
  0
LTYPE
  2
double-dashed_double-dotted
 70
   64
  3
-----   ---------   -   -   ----
 72
   65
 73
    8
 40
18.5
 49
6
 49
-1.5
 49
6
 49
-1.5
 49
0.25
 49
-1.5
 49
0.25
 49
-1.5
  0
LTYPE
  2
dashed_triplicate-dotted
 70
   64
  3
-------    -    -    -    ------
 72
   65
 73
    8
 40
12.75
 49
6
 49
-1.5
 49
0.25
 49
-1.5
 49
0.25
 49
-1.5
 49
0.25
 49
-1.5
  0
LTYPE
  2
double-dashed_triplicate-dotted
 70
   64
  3
-----  ---------  -  -  -  -----
 72
   65
 73
   10
 40
20.25
 49
6
 49
-1.5
 49
6
 49
-1.5
 49
0.25
 49
-1.5
 49
0.25
 49
-1.5
 49
0.25
 49
-1.5
  0
LTYPE
  2
undefined
 70
   64
  3
--------------------------------
 72
   65
 73
    0
 40
0
  0
LTYPE
  2
_
 70
   64
  3
                                
 72
   65
 73
    0
 40
0
  0
LTYPE
  2
__18
 70
   64
  3
                                
 72
   65
 73
    0
 40
0
  0
LTYPE
  2
__19
 70
   64
  3
                                
 72
   65
 73
    0
 40
0
  0
LTYPE
  2
__20
 70
   64
  3
                                
 72
   65
 73
    0
 40
0
  0
LTYPE
  2
__21
 70
   64
  3
                                
 72
   65
 73
    0
 40
0
  0
LTYPE
  2
__22
 70
   64
  3
                                
 72
   65
 73
    0
 40
0
  0
LTYPE
  2
__23
 70
   64
  3
                                
 72
   65
 73
    0
 40
0
  0
LTYPE
  2
__24
 70
   64
  3
                                
 72
   65
 73
    0
 40
0
  0
LTYPE
  2
__25
 70
   64
  3
                                
 72
   65
 73
    0
 40
0
  0
LTYPE
  2
__26
 70
   64
  3
                                
 72
   65
 73
    0
 40
0
  0
LTYPE
  2
__27
 70
   64
  3
                                
 72
   65
 73
    0
 40
0
  0
LTYPE
  2
__28
 70
   64
  3
                                
 72
   65
 73
    0
 40
0
  0
LTYPE
  2
__29
 70
   64
  3
                                
 72
   65
 73
    0
 40
0
  0
LTYPE
  2
__30
 70
   64
  3
                                
 72
   65
 73
    0
 40
0
  0
LTYPE
  2
__31
 70
   64
  3
                                
 72
   65
 73
    0
 40
0
  0
LTYPE
  2
__32
 70
   64
  3
                                
 72
   65
 73
    0
 40
0
  0
ENDTAB
  0
TABLE
  2
STYLE
  5
3
100
AcDbSymbolTable
 70
     1
  0
STYLE
  5
10
100
AcDbSymbolTableRecord
100
AcDbTextStyleTableRecord
  2
STANDARD
 70
     0
 40
0.0
 41
1.0
 50
0.0
 71
     0
 42
0.2
  3
txt
  4
bigfont.shx
  0
STYLE
  5
26
100
AcDbSymbolTableRecord
100
AcDbTextStyleTableRecord
  2
TATEGAKI
 70
    68
 40
0.0
 41
1.0
 50
0.0
 71
     0
 42
1.0
  3
txt
  4
bigfont.shx
  0
ENDTAB
  0
TABLE
  2
LAYER
 70
    2
  0
LAYER
  2
_0-0_
 70
   64
 62
    7
  6
CONTINUOUS
  0
LAYER
  2
ADD_LINE
 70
   64
 62
    7
  6
CONTINUOUS
  0
ENDTAB
  0
ENDSEC
  0
SECTION
  2
BLOCKS
  0
ENDSEC
  0
SECTION
  2
ENTITIES
  0
LINE
  8
_0-0_
  6
CONTINUOUS
 62
    7
 10
309.30066005902381
 20
297.46134613591272
 11
309.30066005902381
 21
302.18533435091274
  0
LINE
  8
_0-0_
  6
CONTINUOUS
 62
    7
 10
307.92529880952384
 20
301.16064613591271
 11
300.92529880952384
 21
301.16064613591271
  0
LINE
  8
_0-0_
  6
CONTINUOUS
 62
    7
 10
300.92529880952384
 20
287.66064613591271
 11
300.92529880952384
 21
301.16064613591271
  0
LINE
  8
_0-0_
  6
CONTINUOUS
 62
    7
 10
307.92529880952384
 20
287.66064613591271
 11
300.92529880952384
 21
287.66064613591271
  0
LINE
  8
_0-0_
  6
CONTINUOUS
 62
    7
 10
331.72529880952391
 20
287.66064613591271
 11
324.72529880952391
 21
287.66064613591271
  0
LINE
  8
_0-0_
  6
CONTINUOUS
 62
    7
 10
331.72529880952391
 20
301.16064613591271
 11
324.72529880952391
 21
301.16064613591271
  0
LINE
  8
_0-0_
  6
CONTINUOUS
 62
    7
 10
331.72529880952391
 20
287.66064613591271
 11
331.72529880952391
 21
301.16064613591271
  0
LINE
  8
_0-0_
  6
CONTINUOUS
 62
    7
 10
307.92529880952384
 20
297.46134613591272
 11
307.92529880952384
 21
301.16064613591271
  0
LINE
  8
_0-0_
  6
CONTINUOUS
 62
    7
 10
307.92529880952384
 20
287.66064613591271
 11
307.92529880952384
 21
292.86144613591273
  0
LINE
  8
_0-0_
  6
CONTINUOUS
 62
    7
 10
324.72529880952391
 20
287.66064613591271
 11
324.72529880952391
 21
292.86144613591273
  0
LINE
  8
_0-0_
  6
CONTINUOUS
 62
    7
 10
324.72529880952391
 20
297.46134613591272
 11
324.72529880952391
 21
301.16064613591271
  0
LINE
  8
_0-0_
  6
CONTINUOUS
 62
    7
 10
268.4628738095239
 20
264.58571113591267
 11
268.4628738095239
 21
392.41044613591271
  0
LINE
  8
_0-0_
  6
CONTINUOUS
 62
    7
 10
271.4628738095239
 20
395.41044613591271
 11
434.62474130952387
 21
395.41044613591271
  0
ARC
  8
_0-0_
  6
CONTINUOUS
 62
    7
 10
271.4628738095239
 20
392.41044613591271
 40
3
 50
90
 51
180
  0
ARC
  8
_0-0_
  6
CONTINUOUS
 62
    7
 10
445.62474130952387
 20
324.96688169828673
 40
10
 50
180
 51
194.03713868216576
  0
ARC
  8
_0-0_
  6
CONTINUOUS
 62
    7
 10
434.62474130952387
 20
394.41044613591276
 40
1
 50
0
 51
90
  0
LINE
  8
_0-0_
  6
CONTINUOUS
 62
    7
 10
444.85177341496956
 20
286.83006840289983
 11
435.92335420407812
 21
322.54137386892552
  0
ARC
  8
_0-0_
  6
CONTINUOUS
 62
    7
 10
435.15038630952381
 20
284.40456057353862
 40
10
 50
0
 51
14.037138682165798
  0
ARC
  8
_0-0_
  6
CONTINUOUS
 62
    7
 10
444.15038630952381
 20
262.58571113591267
 40
1
 50
270
 51
0
  0
LINE
  8
_0-0_
  6
CONTINUOUS
 62
    7
 10
271.4628738095239
 20
261.58571113591267
 11
444.15038630952381
 21
261.58571113591267
  0
ARC
  8
_0-0_
  6
CONTINUOUS
 62
    7
 10
271.4628738095239
 20
264.58571113591267
 40
3
 50
180
 51
270
  0
CIRCLE
  8
_0-0_
  6
CONTINUOUS
 62
    7
 10
271.4628738095239
 20
392.41044613591271
 40
1.1000000000000001
  0
CIRCLE
  8
_0-0_
  6
CONTINUOUS
 62
    7
 10
271.4628738095239
 20
264.58571113591267
 40
1.1000000000000001
  0
CIRCLE
  8
_0-0_
  6
CONTINUOUS
 62
    7
 10
442.15038630952381
 20
264.58571113591267
 40
1.1000000000000001
  0
CIRCLE
  8
_0-0_
  6
CONTINUOUS
 62
    7
 10
432.62474130952387
 20
392.41044613591271
 40
1.1000000000000001
  0
LINE
  8
_0-0_
  6
CONTINUOUS
 62
    7
 10
445.15038630952381
 20
284.40456057353862
 11
445.15038630952381
 21
262.58571113591267
  0
LINE
  8
_0-0_
  6
CONTINUOUS
 62
    7
 10
435.62474130952387
 20
394.41044613591276
 11
435.62474130952387
 21
324.96688169828673
  0
LINE
  8
_0-0_
  6
CONTINUOUS
 62
    7
 10
299.77566005902383
 20
387.90993435091269
 11
313.82493756002395
 21
387.90993435091269
  0
LINE
  8
_0-0_
  6
CONTINUOUS
 62
    7
 10
313.82493756002395
 20
387.90993435091269
 11
313.82493756002395
 21
373.86095792091271
  0
LINE
  8
_0-0_
  6
CONTINUOUS
 62
    7
 10
313.82493756002395
 20
373.86095792091271
 11
299.77566005902383
 21
373.86095792091271
  0
LINE
  8
_0-0_
  6
CONTINUOUS
 62
    7
 10
299.77566005902383
 20
373.86095792091271
 11
299.77566005902383
 21
387.90993435091269
  0
LINE
  8
_0-0_
  6
CONTINUOUS
 62
    7
 10
328.35066005902388
 20
387.90993435091269
 11
342.39993756002389
 21
387.90993435091269
  0
LINE
  8
_0-0_
  6
CONTINUOUS
 62
    7
 10
342.39993756002389
 20
387.90993435091269
 11
342.39993756002389
 21
373.86095792091271
  0
LINE
  8
_0-0_
  6
CONTINUOUS
 62
    7
 10
342.39993756002389
 20
373.86095792091271
 11
328.35066005902388
 21
373.86095792091271
  0
LINE
  8
_0-0_
  6
CONTINUOUS
 62
    7
 10
328.35066005902388
 20
373.86095792091271
 11
328.35066005902388
 21
387.90993435091269
  0
LINE
  8
_0-0_
  6
CONTINUOUS
 62
    7
 10
347.40066005902383
 20
387.90993435091269
 11
361.44993756002384
 21
387.90993435091269
  0
LINE
  8
_0-0_
  6
CONTINUOUS
 62
    7
 10
361.44993756002384
 20
387.90993435091269
 11
361.44993756002384
 21
373.86095792091271
  0
LINE
  8
_0-0_
  6
CONTINUOUS
 62
    7
 10
361.44993756002384
 20
373.86095792091271
 11
347.40066005902383
 21
373.86095792091271
  0
LINE
  8
_0-0_
  6
CONTINUOUS
 62
    7
 10
347.40066005902383
 20
373.86095792091271
 11
347.40066005902383
 21
387.90993435091269
  0
LINE
  8
_0-0_
  6
CONTINUOUS
 62
    7
 10
366.4506600590239
 20
387.90993435091269
 11
380.49993756002391
 21
387.90993435091269
  0
LINE
  8
_0-0_
  6
CONTINUOUS
 62
    7
 10
380.49993756002391
 20
387.90993435091269
 11
380.49993756002391
 21
373.86095792091271
  0
LINE
  8
_0-0_
  6
CONTINUOUS
 62
    7
 10
380.49993756002391
 20
373.86095792091271
 11
366.4506600590239
 21
373.86095792091271
  0
LINE
  8
_0-0_
  6
CONTINUOUS
 62
    7
 10
366.4506600590239
 20
373.86095792091271
 11
366.4506600590239
 21
387.90993435091269
  0
LINE
  8
_0-0_
  6
CONTINUOUS
 62
    7
 10
385.50046005902379
 20
387.90993435091269
 11
399.54973756002391
 21
387.90993435091269
  0
LINE
  8
_0-0_
  6
CONTINUOUS
 62
    7
 10
399.54973756002391
 20
387.90993435091269
 11
399.54973756002391
 21
373.86095792091271
  0
LINE
  8
_0-0_
  6
CONTINUOUS
 62
    7
 10
399.54973756002391
 20
373.86095792091271
 11
385.50046005902379
 21
373.86095792091271
  0
LINE
  8
_0-0_
  6
CONTINUOUS
 62
    7
 10
385.50046005902379
 20
373.86095792091271
 11
385.50046005902379
 21
387.90993435091269
  0
LINE
  8
_0-0_
  6
CONTINUOUS
 62
    7
 10
414.07546005902384
 20
387.90993435091269
 11
428.12473756002396
 21
387.90993435091269
  0
LINE
  8
_0-0_
  6
CONTINUOUS
 62
    7
 10
428.12473756002396
 20
387.90993435091269
 11
428.12473756002396
 21
373.86095792091271
  0
LINE
  8
_0-0_
  6
CONTINUOUS
 62
    7
 10
428.12473756002396
 20
373.86095792091271
 11
414.07546005902384
 21
373.86095792091271
  0
LINE
  8
_0-0_
  6
CONTINUOUS
 62
    7
 10
414.07546005902384
 20
373.86095792091271
 11
414.07546005902384
 21
387.90993435091269
  0
LINE
  8
_0-0_
  6
CONTINUOUS
 62
    7
 10
414.07546005902384
 20
359.33533435091272
 11
428.12473756002396
 21
359.33533435091272
  0
LINE
  8
_0-0_
  6
CONTINUOUS
 62
    7
 10
428.12473756002396
 20
359.33533435091272
 11
428.12473756002396
 21
345.28635792091274
  0
LINE
  8
_0-0_
  6
CONTINUOUS
 62
    7
 10
428.12473756002396
 20
345.28635792091274
 11
414.07546005902384
 21
345.28635792091274
  0
LINE
  8
_0-0_
  6
CONTINUOUS
 62
    7
 10
414.07546005902384
 20
345.28635792091274
 11
414.07546005902384
 21
359.33533435091272
  0
LINE
  8
_0-0_
  6
CONTINUOUS
 62
    7
 10
395.02546005902389
 20
359.33533435091272
 11
409.074737560024
 21
359.33533435091272
  0
LINE
  8
_0-0_
  6
CONTINUOUS
 62
    7
 10
409.074737560024
 20
359.33533435091272
 11
409.074737560024
 21
345.28635792091274
  0
LINE
  8
_0-0_
  6
CONTINUOUS
 62
    7
 10
409.074737560024
 20
345.28635792091274
 11
395.02546005902389
 21
345.28635792091274
  0
LINE
  8
_0-0_
  6
CONTINUOUS
 62
    7
 10
395.02546005902389
 20
345.28635792091274
 11
395.02546005902389
 21
359.33533435091272
  0
LINE
  8
_0-0_
  6
CONTINUOUS
 62
    7
 10
375.97546005902382
 20
359.33533435091272
 11
390.02473756002394
 21
359.33533435091272
  0
LINE
  8
_0-0_
  6
CONTINUOUS
 62
    7
 10
390.02473756002394
 20
359.33533435091272
 11
390.02473756002394
 21
345.28635792091274
  0
LINE
  8
_0-0_
  6
CONTINUOUS
 62
    7
 10
390.02473756002394
 20
345.28635792091274
 11
375.97546005902382
 21
345.28635792091274
  0
LINE
  8
_0-0_
  6
CONTINUOUS
 62
    7
 10
375.97546005902382
 20
345.28635792091274
 11
375.97546005902382
 21
359.33533435091272
  0
LINE
  8
_0-0_
  6
CONTINUOUS
 62
    7
 10
356.92566005902381
 20
359.33533435091272
 11
370.97493756002393
 21
359.33533435091272
  0
LINE
  8
_0-0_
  6
CONTINUOUS
 62
    7
 10
370.97493756002393
 20
359.33533435091272
 11
370.97493756002393
 21
345.28635792091274
  0
LINE
  8
_0-0_
  6
CONTINUOUS
 62
    7
 10
370.97493756002393
 20
345.28635792091274
 11
356.92566005902381
 21
345.28635792091274
  0
LINE
  8
_0-0_
  6
CONTINUOUS
 62
    7
 10
356.92566005902381
 20
345.28635792091274
 11
356.92566005902381
 21
359.33533435091272
  0
LINE
  8
_0-0_
  6
CONTINUOUS
 62
    7
 10
337.87566005902386
 20
359.33533435091272
 11
351.92493756002386
 21
359.33533435091272
  0
LINE
  8
_0-0_
  6
CONTINUOUS
 62
    7
 10
351.92493756002386
 20
359.33533435091272
 11
351.92493756002386
 21
345.28635792091274
  0
LINE
  8
_0-0_
  6
CONTINUOUS
 62
    7
 10
351.92493756002386
 20
345.28635792091274
 11
337.87566005902386
 21
345.28635792091274
  0
LINE
  8
_0-0_
  6
CONTINUOUS
 62
    7
 10
337.87566005902386
 20
345.28635792091274
 11
337.87566005902386
 21
359.33533435091272
  0
LINE
  8
_0-0_
  6
CONTINUOUS
 62
    7
 10
318.82566005902379
 20
359.33533435091272
 11
332.87493756002391
 21
359.33533435091272
  0
LINE
  8
_0-0_
  6
CONTINUOUS
 62
    7
 10
332.87493756002391
 20
359.33533435091272
 11
332.87493756002391
 21
345.28635792091274
  0
LINE
  8
_0-0_
  6
CONTINUOUS
 62
    7
 10
332.87493756002391
 20
345.28635792091274
 11
318.82566005902379
 21
345.28635792091274
  0
LINE
  8
_0-0_
  6
CONTINUOUS
 62
    7
 10
318.82566005902379
 20
345.28635792091274
 11
318.82566005902379
 21
359.33533435091272
  0
LINE
  8
_0-0_
  6
CONTINUOUS
 62
    7
 10
299.77566005902383
 20
359.33533435091272
 11
313.82493756002395
 21
359.33533435091272
  0
LINE
  8
_0-0_
  6
CONTINUOUS
 62
    7
 10
313.82493756002395
 20
359.33533435091272
 11
313.82493756002395
 21
345.28635792091274
  0
LINE
  8
_0-0_
  6
CONTINUOUS
 62
    7
 10
313.82493756002395
 20
345.28635792091274
 11
299.77566005902383
 21
345.28635792091274
  0
LINE
  8
_0-0_
  6
CONTINUOUS
 62
    7
 10
299.77566005902383
 20
345.28635792091274
 11
299.77566005902383
 21
359.33533435091272
  0
LINE
  8
_0-0_
  6
CONTINUOUS
 62
    7
 10
404.55046005902386
 20
340.28533435091271
 11
418.59973756002398
 21
340.28533435091271
  0
LINE
  8
_0-0_
  6
CONTINUOUS
 62
    7
 10
418.59973756002398
 20
340.28533435091271
 11
418.59973756002398
 21
326.23635792091272
  0
LINE
  8
_0-0_
  6
CONTINUOUS
 62
    7
 10
418.59973756002398
 20
326.23635792091272
 11
404.55046005902386
 21
326.23635792091272
  0
LINE
  8
_0-0_
  6
CONTINUOUS
 62
    7
 10
404.55046005902386
 20
326.23635792091272
 11
404.55046005902386
 21
340.28533435091271
  0
LINE
  8
_0-0_
  6
CONTINUOUS
 62
    7
 10
385.50046005902391
 20
340.28533435091271
 11
399.54973756002403
 21
340.28533435091271
  0
LINE
  8
_0-0_
  6
CONTINUOUS
 62
    7
 10
399.54973756002403
 20
340.28533435091271
 11
399.54973756002403
 21
326.23635792091272
  0
LINE
  8
_0-0_
  6
CONTINUOUS
 62
    7
 10
399.54973756002403
 20
326.23635792091272
 11
385.50046005902391
 21
326.23635792091272
  0
LINE
  8
_0-0_
  6
CONTINUOUS
 62
    7
 10
385.50046005902391
 20
326.23635792091272
 11
385.50046005902391
 21
340.28533435091271
  0
LINE
  8
_0-0_
  6
CONTINUOUS
 62
    7
 10
366.45046005902384
 20
340.28533435091271
 11
380.49973756002396
 21
340.28533435091271
  0
LINE
  8
_0-0_
  6
CONTINUOUS
 62
    7
 10
380.49973756002396
 20
340.28533435091271
 11
380.49973756002396
 21
326.23635792091272
  0
LINE
  8
_0-0_
  6
CONTINUOUS
 62
    7
 10
380.49973756002396
 20
326.23635792091272
 11
366.45046005902384
 21
326.23635792091272
  0
LINE
  8
_0-0_
  6
CONTINUOUS
 62
    7
 10
366.45046005902384
 20
326.23635792091272
 11
366.45046005902384
 21
340.28533435091271
  0
LINE
  8
_0-0_
  6
CONTINUOUS
 62
    7
 10
347.40066005902383
 20
340.28533435091271
 11
361.44993756002395
 21
340.28533435091271
  0
LINE
  8
_0-0_
  6
CONTINUOUS
 62
    7
 10
361.44993756002395
 20
340.28533435091271
 11
361.44993756002395
 21
326.23635792091272
  0
LINE
  8
_0-0_
  6
CONTINUOUS
 62
    7
 10
361.44993756002395
 20
326.23635792091272
 11
347.40066005902383
 21
326.23635792091272
  0
LINE
  8
_0-0_
  6
CONTINUOUS
 62
    7
 10
347.40066005902383
 20
326.23635792091272
 11
347.40066005902383
 21
340.28533435091271
  0
LINE
  8
_0-0_
  6
CONTINUOUS
 62
    7
 10
328.35066005902388
 20
340.28533435091271
 11
342.39993756002389
 21
340.28533435091271
  0
LINE
  8
_0-0_
  6
CONTINUOUS
 62
    7
 10
342.39993756002389
 20
340.28533435091271
 11
342.39993756002389
 21
326.23635792091272
  0
LINE
  8
_0-0_
  6
CONTINUOUS
 62
    7
 10
342.39993756002389
 20
326.23635792091272
 11
328.35066005902388
 21
326.23635792091272
  0
LINE
  8
_0-0_
  6
CONTINUOUS
 62
    7
 10
328.35066005902388
 20
326.23635792091272
 11
328.35066005902388
 21
340.28533435091271
  0
LINE
  8
_0-0_
  6
CONTINUOUS
 62
    7
 10
409.31296005902391
 20
321.23533435091269
 11
423.36223756002391
 21
321.23533435091269
  0
LINE
  8
_0-0_
  6
CONTINUOUS
 62
    7
 10
423.36223756002391
 20
321.23533435091269
 11
423.36223756002391
 21
307.18635792091271
  0
LINE
  8
_0-0_
  6
CONTINUOUS
 62
    7
 10
423.36223756002391
 20
307.18635792091271
 11
409.31296005902391
 21
307.18635792091271
  0
LINE
  8
_0-0_
  6
CONTINUOUS
 62
    7
 10
409.31296005902391
 20
307.18635792091271
 11
409.31296005902391
 21
321.23533435091269
  0
LINE
  8
_0-0_
  6
CONTINUOUS
 62
    7
 10
390.26296005902395
 20
321.23533435091269
 11
404.31223756002396
 21
321.23533435091269
  0
LINE
  8
_0-0_
  6
CONTINUOUS
 62
    7
 10
404.31223756002396
 20
321.23533435091269
 11
404.31223756002396
 21
307.18635792091271
  0
LINE
  8
_0-0_
  6
CONTINUOUS
 62
    7
 10
404.31223756002396
 20
307.18635792091271
 11
390.26296005902395
 21
307.18635792091271
  0
LINE
  8
_0-0_
  6
CONTINUOUS
 62
    7
 10
390.26296005902395
 20
307.18635792091271
 11
390.26296005902395
 21
321.23533435091269
  0
LINE
  8
_0-0_
  6
CONTINUOUS
 62
    7
 10
371.21296005902389
 20
321.23533435091269
 11
385.26223756002389
 21
321.23533435091269
  0
LINE
  8
_0-0_
  6
CONTINUOUS
 62
    7
 10
385.26223756002389
 20
321.23533435091269
 11
385.26223756002389
 21
307.18635792091271
  0
LINE
  8
_0-0_
  6
CONTINUOUS
 62
    7
 10
385.26223756002389
 20
307.18635792091271
 11
371.21296005902389
 21
307.18635792091271
  0
LINE
  8
_0-0_
  6
CONTINUOUS
 62
    7
 10
371.21296005902389
 20
307.18635792091271
 11
371.21296005902389
 21
321.23533435091269
  0
LINE
  8
_0-0_
  6
CONTINUOUS
 62
    7
 10
352.16316005902388
 20
321.23533435091269
 11
366.21243756002389
 21
321.23533435091269
  0
LINE
  8
_0-0_
  6
CONTINUOUS
 62
    7
 10
366.21243756002389
 20
321.23533435091269
 11
366.21243756002389
 21
307.18635792091271
  0
LINE
  8
_0-0_
  6
CONTINUOUS
 62
    7
 10
366.21243756002389
 20
307.18635792091271
 11
352.16316005902388
 21
307.18635792091271
  0
LINE
  8
_0-0_
  6
CONTINUOUS
 62
    7
 10
352.16316005902388
 20
307.18635792091271
 11
352.16316005902388
 21
321.23533435091269
  0
LINE
  8
_0-0_
  6
CONTINUOUS
 62
    7
 10
333.11316005902381
 20
321.23533435091269
 11
347.16243756002393
 21
321.23533435091269
  0
LINE
  8
_0-0_
  6
CONTINUOUS
 62
    7
 10
347.16243756002393
 20
321.23533435091269
 11
347.16243756002393
 21
307.18635792091271
  0
LINE
  8
_0-0_
  6
CONTINUOUS
 62
    7
 10
347.16243756002393
 20
307.18635792091271
 11
333.11316005902381
 21
307.18635792091271
  0
LINE
  8
_0-0_
  6
CONTINUOUS
 62
    7
 10
333.11316005902381
 20
307.18635792091271
 11
333.11316005902381
 21
321.23533435091269
  0
LINE
  8
_0-0_
  6
CONTINUOUS
 62
    7
 10
414.07546005902384
 20
302.18533435091274
 11
428.12473756002396
 21
302.18533435091274
  0
LINE
  8
_0-0_
  6
CONTINUOUS
 62
    7
 10
428.12473756002396
 20
302.18533435091274
 11
428.12473756002396
 21
288.13635792091276
  0
LINE
  8
_0-0_
  6
CONTINUOUS
 62
    7
 10
428.12473756002396
 20
288.13635792091276
 11
414.07546005902384
 21
288.13635792091276
  0
LINE
  8
_0-0_
  6
CONTINUOUS
 62
    7
 10
414.07546005902384
 20
288.13635792091276
 11
414.07546005902384
 21
302.18533435091274
  0
LINE
  8
_0-0_
  6
CONTINUOUS
 62
    7
 10
395.02546005902389
 20
302.18533435091274
 11
409.074737560024
 21
302.18533435091274
  0
LINE
  8
_0-0_
  6
CONTINUOUS
 62
    7
 10
409.074737560024
 20
302.18533435091274
 11
409.074737560024
 21
288.13635792091276
  0
LINE
  8
_0-0_
  6
CONTINUOUS
 62
    7
 10
409.074737560024
 20
288.13635792091276
 11
395.02546005902389
 21
288.13635792091276
  0
LINE
  8
_0-0_
  6
CONTINUOUS
 62
    7
 10
395.02546005902389
 20
288.13635792091276
 11
395.02546005902389
 21
302.18533435091274
  0
LINE
  8
_0-0_
  6
CONTINUOUS
 62
    7
 10
375.97546005902382
 20
302.18533435091274
 11
390.02473756002394
 21
302.18533435091274
  0
LINE
  8
_0-0_
  6
CONTINUOUS
 62
    7
 10
390.02473756002394
 20
302.18533435091274
 11
390.02473756002394
 21
288.13635792091276
  0
LINE
  8
_0-0_
  6
CONTINUOUS
 62
    7
 10
390.02473756002394
 20
288.13635792091276
 11
375.97546005902382
 21
288.13635792091276
  0
LINE
  8
_0-0_
  6
CONTINUOUS
 62
    7
 10
375.97546005902382
 20
288.13635792091276
 11
375.97546005902382
 21
302.18533435091274
  0
LINE
  8
_0-0_
  6
CONTINUOUS
 62
    7
 10
356.92566005902381
 20
302.18533435091274
 11
370.97493756002393
 21
302.18533435091274
  0
LINE
  8
_0-0_
  6
CONTINUOUS
 62
    7
 10
370.97493756002393
 20
302.18533435091274
 11
370.97493756002393
 21
288.13635792091276
  0
LINE
  8
_0-0_
  6
CONTINUOUS
 62
    7
 10
370.97493756002393
 20
288.13635792091276
 11
356.92566005902381
 21
288.13635792091276
  0
LINE
  8
_0-0_
  6
CONTINUOUS
 62
    7
 10
356.92566005902381
 20
288.13635792091276
 11
356.92566005902381
 21
302.18533435091274
  0
LINE
  8
_0-0_
  6
CONTINUOUS
 62
    7
 10
337.87566005902386
 20
302.18533435091274
 11
351.92493756002386
 21
302.18533435091274
  0
LINE
  8
_0-0_
  6
CONTINUOUS
 62
    7
 10
351.92493756002386
 20
302.18533435091274
 11
351.92493756002386
 21
288.13635792091276
  0
LINE
  8
_0-0_
  6
CONTINUOUS
 62
    7
 10
351.92493756002386
 20
288.13635792091276
 11
337.87566005902386
 21
288.13635792091276
  0
LINE
  8
_0-0_
  6
CONTINUOUS
 62
    7
 10
337.87566005902386
 20
288.13635792091276
 11
337.87566005902386
 21
302.18533435091274
  0
LINE
  8
_0-0_
  6
CONTINUOUS
 62
    7
 10
275.96311005902385
 20
359.33533435091272
 11
290.01238756002397
 21
359.33533435091272
  0
LINE
  8
_0-0_
  6
CONTINUOUS
 62
    7
 10
290.01238756002397
 20
359.33533435091272
 11
290.01238756002397
 21
345.28635792091274
  0
LINE
  8
_0-0_
  6
CONTINUOUS
 62
    7
 10
290.01238756002397
 20
345.28635792091274
 11
275.96311005902385
 21
345.28635792091274
  0
LINE
  8
_0-0_
  6
CONTINUOUS
 62
    7
 10
275.96311005902385
 20
345.28635792091274
 11
275.96311005902385
 21
359.33533435091272
  0
LINE
  8
_0-0_
  6
CONTINUOUS
 62
    7
 10
275.96311005902385
 20
340.28533435091271
 11
290.01238756002397
 21
340.28533435091271
  0
LINE
  8
_0-0_
  6
CONTINUOUS
 62
    7
 10
290.01238756002397
 20
340.28533435091271
 11
290.01238756002397
 21
326.23635792091272
  0
LINE
  8
_0-0_
  6
CONTINUOUS
 62
    7
 10
290.01238756002397
 20
326.23635792091272
 11
275.96311005902385
 21
326.23635792091272
  0
LINE
  8
_0-0_
  6
CONTINUOUS
 62
    7
 10
275.96311005902385
 20
326.23635792091272
 11
275.96311005902385
 21
340.28533435091271
  0
LINE
  8
_0-0_
  6
CONTINUOUS
 62
    7
 10
275.96311005902385
 20
321.23533435091269
 11
290.01238756002397
 21
321.23533435091269
  0
LINE
  8
_0-0_
  6
CONTINUOUS
 62
    7
 10
290.01238756002397
 20
321.23533435091269
 11
290.01238756002397
 21
307.18635792091271
  0
LINE
  8
_0-0_
  6
CONTINUOUS
 62
    7
 10
290.01238756002397
 20
307.18635792091271
 11
275.96311005902385
 21
307.18635792091271
  0
LINE
  8
_0-0_
  6
CONTINUOUS
 62
    7
 10
275.96311005902385
 20
307.18635792091271
 11
275.96311005902385
 21
321.23533435091269
  0
LINE
  8
_0-0_
  6
CONTINUOUS
 62
    7
 10
275.96311005902385
 20
302.18533435091274
 11
290.01238756002397
 21
302.18533435091274
  0
LINE
  8
_0-0_
  6
CONTINUOUS
 62
    7
 10
290.01238756002397
 20
302.18533435091274
 11
290.01238756002397
 21
288.13635792091276
  0
LINE
  8
_0-0_
  6
CONTINUOUS
 62
    7
 10
290.01238756002397
 20
288.13635792091276
 11
275.96311005902385
 21
288.13635792091276
  0
LINE
  8
_0-0_
  6
CONTINUOUS
 62
    7
 10
275.96311005902385
 20
288.13635792091276
 11
275.96311005902385
 21
302.18533435091274
  0
LINE
  8
_0-0_
  6
CONTINUOUS
 62
    7
 10
275.96311005902385
 20
283.1354343509127
 11
290.01238756002397
 21
283.1354343509127
  0
LINE
  8
_0-0_
  6
CONTINUOUS
 62
    7
 10
290.01238756002397
 20
283.1354343509127
 11
290.01238756002397
 21
269.08645792091272
  0
LINE
  8
_0-0_
  6
CONTINUOUS
 62
    7
 10
290.01238756002397
 20
269.08645792091272
 11
275.96311005902385
 21
269.08645792091272
  0
LINE
  8
_0-0_
  6
CONTINUOUS
 62
    7
 10
275.96311005902385
 20
269.08645792091272
 11
275.96311005902385
 21
283.1354343509127
  0
LINE
  8
_0-0_
  6
CONTINUOUS
 62
    7
 10
302.15546005902388
 20
283.1354343509127
 11
316.204737560024
 21
283.1354343509127
  0
LINE
  8
_0-0_
  6
CONTINUOUS
 62
    7
 10
316.204737560024
 20
283.1354343509127
 11
316.204737560024
 21
269.08645792091272
  0
LINE
  8
_0-0_
  6
CONTINUOUS
 62
    7
 10
316.204737560024
 20
269.08645792091272
 11
302.15546005902388
 21
269.08645792091272
  0
LINE
  8
_0-0_
  6
CONTINUOUS
 62
    7
 10
302.15546005902388
 20
269.08645792091272
 11
302.15546005902388
 21
283.1354343509127
  0
LINE
  8
_0-0_
  6
CONTINUOUS
 62
    7
 10
325.96946005902385
 20
283.1354343509127
 11
340.01873756002385
 21
283.1354343509127
  0
LINE
  8
_0-0_
  6
CONTINUOUS
 62
    7
 10
340.01873756002385
 20
283.1354343509127
 11
340.01873756002385
 21
269.08645792091272
  0
LINE
  8
_0-0_
  6
CONTINUOUS
 62
    7
 10
340.01873756002385
 20
269.08645792091272
 11
325.96946005902385
 21
269.08645792091272
  0
LINE
  8
_0-0_
  6
CONTINUOUS
 62
    7
 10
325.96946005902385
 20
269.08645792091272
 11
325.96946005902385
 21
283.1354343509127
  0
LINE
  8
_0-0_
  6
CONTINUOUS
 62
    7
 10
349.78056005902386
 20
283.1354343509127
 11
363.82983756002386
 21
283.1354343509127
  0
LINE
  8
_0-0_
  6
CONTINUOUS
 62
    7
 10
363.82983756002386
 20
283.1354343509127
 11
363.82983756002386
 21
269.08645792091272
  0
LINE
  8
_0-0_
  6
CONTINUOUS
 62
    7
 10
363.82983756002386
 20
269.08645792091272
 11
349.78056005902386
 21
269.08645792091272
  0
LINE
  8
_0-0_
  6
CONTINUOUS
 62
    7
 10
349.78056005902386
 20
269.08645792091272
 11
349.78056005902386
 21
283.1354343509127
  0
LINE
  8
_0-0_
  6
CONTINUOUS
 62
    7
 10
371.21316005902383
 20
283.1354343509127
 11
385.26243756002395
 21
283.1354343509127
  0
LINE
  8
_0-0_
  6
CONTINUOUS
 62
    7
 10
385.26243756002395
 20
283.1354343509127
 11
385.26243756002395
 21
269.08645792091272
  0
LINE
  8
_0-0_
  6
CONTINUOUS
 62
    7
 10
385.26243756002395
 20
269.08645792091272
 11
371.21316005902383
 21
269.08645792091272
  0
LINE
  8
_0-0_
  6
CONTINUOUS
 62
    7
 10
371.21316005902383
 20
269.08645792091272
 11
371.21316005902383
 21
283.1354343509127
  0
LINE
  8
_0-0_
  6
CONTINUOUS
 62
    7
 10
390.26346005902383
 20
283.1354343509127
 11
404.31273756002395
 21
283.1354343509127
  0
LINE
  8
_0-0_
  6
CONTINUOUS
 62
    7
 10
404.31273756002395
 20
283.1354343509127
 11
404.31273756002395
 21
269.08645792091272
  0
LINE
  8
_0-0_
  6
CONTINUOUS
 62
    7
 10
404.31273756002395
 20
269.08645792091272
 11
390.26346005902383
 21
269.08645792091272
  0
LINE
  8
_0-0_
  6
CONTINUOUS
 62
    7
 10
390.26346005902383
 20
269.08645792091272
 11
390.26346005902383
 21
283.1354343509127
  0
LINE
  8
_0-0_
  6
CONTINUOUS
 62
    7
 10
411.69446005902387
 20
283.1354343509127
 11
425.74373756002399
 21
283.1354343509127
  0
LINE
  8
_0-0_
  6
CONTINUOUS
 62
    7
 10
425.74373756002399
 20
283.1354343509127
 11
425.74373756002399
 21
269.08645792091272
  0
LINE
  8
_0-0_
  6
CONTINUOUS
 62
    7
 10
425.74373756002399
 20
269.08645792091272
 11
411.69446005902387
 21
269.08645792091272
  0
LINE
  8
_0-0_
  6
CONTINUOUS
 62
    7
 10
411.69446005902387
 20
269.08645792091272
 11
411.69446005902387
 21
283.1354343509127
  0
LINE
  8
_0-0_
  6
CONTINUOUS
 62
    7
 10
309.30066005902381
 20
302.18533435091274
 11
323.34993756002393
 21
302.18533435091274
  0
LINE
  8
_0-0_
  6
CONTINUOUS
 62
    7
 10
323.34993756002393
 20
288.13635792091276
 11
309.30066005902381
 21
288.13635792091276
  0
LINE
  8
_0-0_
  6
CONTINUOUS
 62
    7
 10
306.9193600590238
 20
321.23533435091269
 11
320.96863756002392
 21
321.23533435091269
  0
LINE
  8
_0-0_
  6
CONTINUOUS
 62
    7
 10
320.96863756002392
 20
321.23533435091269
 11
320.96863756002392
 21
307.18635792091271
  0
LINE
  8
_0-0_
  6
CONTINUOUS
 62
    7
 10
320.96863756002392
 20
307.18635792091271
 11
306.9193600590238
 21
307.18635792091271
  0
LINE
  8
_0-0_
  6
CONTINUOUS
 62
    7
 10
306.9193600590238
 20
307.18635792091271
 11
306.9193600590238
 21
321.23533435091269
  0
LINE
  8
_0-0_
  6
CONTINUOUS
 62
    7
 10
304.53816005902388
 20
340.28533435091271
 11
318.587437560024
 21
340.28533435091271
  0
LINE
  8
_0-0_
  6
CONTINUOUS
 62
    7
 10
318.587437560024
 20
340.28533435091271
 11
318.587437560024
 21
326.23635792091272
  0
LINE
  8
_0-0_
  6
CONTINUOUS
 62
    7
 10
318.587437560024
 20
326.23635792091272
 11
304.53816005902388
 21
326.23635792091272
  0
LINE
  8
_0-0_
  6
CONTINUOUS
 62
    7
 10
304.53816005902388
 20
326.23635792091272
 11
304.53816005902388
 21
340.28533435091271
  0
LINE
  8
_0-0_
  6
CONTINUOUS
 62
    7
 10
309.30066005902381
 20
297.46134613591272
 11
307.92529880952384
 21
297.46134613591272
  0
LINE
  8
_0-0_
  6
CONTINUOUS
 62
    7
 10
307.92529880952384
 20
292.86144613591273
 11
309.30066005902381
 21
292.86144613591273
  0
LINE
  8
_0-0_
  6
CONTINUOUS
 62
    7
 10
309.30066005902381
 20
288.13635792091276
 11
309.30066005902381
 21
292.86144613591273
  0
LINE
  8
_0-0_
  6
CONTINUOUS
 62
    7
 10
323.34993756002393
 20
302.18533435091274
 11
323.34993756002393
 21
297.46134613591272
  0
LINE
  8
_0-0_
  6
CONTINUOUS
 62
    7
 10
324.72529880952391
 20
297.46134613591272
 11
323.34993756002393
 21
297.46134613591272
  0
LINE
  8
_0-0_
  6
CONTINUOUS
 62
    7
 10
323.34993756002393
 20
292.86144613591273
 11
323.34993756002393
 21
288.13635792091276
  0
LINE
  8
_0-0_
  6
CONTINUOUS
 62
    7
 10
323.34993756002393
 20
292.86144613591273
 11
324.72529880952391
 21
292.86144613591273
  0
CIRCLE
  8
_0-0_
  6
CONTINUOUS
 62
    7
 10
288.31287380952392
 20
390.38571113591269
 40
1
  0
ENDSEC
  0
EOF
