  0
SECTION
  2
HEADER
  9
$ACADVER
  1
AC1009
  9
$INSBASE
 10
0
 20
0
 30
0
  9
$EXTMIN
 10
0
 20
0
  9
$EXTMAX
 10
841
 20
594
  9
$LIMMIN
 10
0
 20
0
  9
$LIMMAX
 10
841
 20
594
  9
$LTSCALE
 40
1
  0
ENDSEC
  0
SECTION
  2
TABLES
  0
TABLE
  2
LTYPE
 70
     9
  0
LTYPE
  2
CONTINUOUS
 70
    64
  3
実線
 72
    65
 73
     0
 40
0.0
  0
LTYPE
  2
DASHED1
 70
    64
  3
--  --  --  --  --  --  --  --  
 72
    65
 73
     2
 40
2.5
 49
1.25
 49
-1.25
  0
LTYPE
  2
DASHED2
 70
    64
  3
----    ----    ----    ----    
 72
    65
 73
     2
 40
5.0
 49
2.5
 49
-2.5
  0
LTYPE
  2
DASHED3
 70
    64
  3
------  ------  ------  ------  
 72
    65
 73
     2
 40
5.0
 49
3.75
 49
-1.25
  0
LTYPE
  2
CENTER1
 70
    64
  3
----- - ----- - ----- - ----- - 
 72
    65
 73
     4
 40
10.0
 49
6.25
 49
-1.25
 49
1.25
 49
-1.25
  0
LTYPE
  2
CENTER2
 70
    64
  3
----------  --  ----------  --  
 72
    65
 73
     4
 40
20.0
 49
12.5
 49
-2.5
 49
2.5
 49
-2.5
  0
LTYPE
  2
PHANTOM1
 70
    64
  3
--- - - --- - - --- - - --- - - 
 72
    65
 73
     6
 40
10.0
 49
3.25
 49
-1.25
 49
1.25
 49
-1.25
 49
1.25
 49
-1.25
  0
LTYPE
  2
PHANTOM2
 70
    64
  3
--------  -  -  --------  -  -  
 72
    65
 73
     6
 40
20.0
 49
10.0
 49
-2.5
 49
1.25
 49
-2.5
 49
1.25
 49
-2.5
  0
LTYPE
  2
DOT
 70
    64
  3
-   -   -   -   -   -   -   -   
 72
    65
 73
     2
 40
2.5
 49
0.625
 49
-1.875
  0
LTYPE
  2
DUMMY
 70
    64
  3
ダミー
 72
    65
 73
     0
 40
0.0
  0
LTYPE
  2
RAND1
 70
    64
  3
ランダム線1
 72
    65
 73
     4
 40
10.0
 49
1.0
 49
-2.0
 49
3.0
 49
-4.0
  0
LTYPE
  2
RAND2
 70
    64
  3
ランダム線2
 72
    65
 73
     4
 40
14.0
 49
2.0
 49
-3.0
 49
4.0
 49
-5.0
  0
LTYPE
  2
RAND3
 70
    64
  3
ランダム線3
 72
    65
 73
     4
 40
18.0
 49
3.0
 49
-4.0
 49
5.0
 49
-6.0
  0
LTYPE
  2
RAND4
 70
    64
  3
ランダム線4
 72
    65
 73
     4
 40
22.0
 49
4.0
 49
-5.0
 49
6.0
 49
-7.0
  0
LTYPE
  2
RAND5
 70
    64
  3
ランダム線5
 72
    65
 73
     4
 40
26.0
 49
5.0
 49
-6.0
 49
7.0
 49
-8.0
  0
LTYPE
  2
LONG1
 70
    64
  3
----------  --  ----------  --  
 72
    65
 73
     4
 40
40.0
 49
32.5
 49
-2.5
 49
2.5
 49
-2.5
  0
LTYPE
  2
LONG2
 70
    64
  3
--------  -  -  --------  -  -  
 72
    65
 73
     6
 40
40.0
 49
30.0
 49
-2.5
 49
1.25
 49
-2.5
 49
1.25
 49
-2.5
  0
LTYPE
  2
LONG3
 70
    64
  3
+++++++++++++++..+++++++++++++++
 72
    65
 73
     2
 40
40.0
 49
37.5
 49
-2.5
  0
LTYPE
  2
LONG4
 70
    64
  3
+++++++++++++++..+++++++++++++++
 72
    65
 73
     2
 40
80.0
 49
75.0
 49
-5.0
  0
LTYPE
  2
LONG5
 70
    64
  3
----------  --  ----------  --  
 72
    65
 73
     4
 40
60.0
 49
37.5
 49
-7.5
 49
7.5
 49
-7.5
  0
LTYPE
  2
dashed
 70
   64
  3
-------   -------------   ------
 72
   65
 73
    2
 40
7.5
 49
6
 49
-1.5
  0
LTYPE
  2
dashed_spaced
 70
   64
  3
----        --------        ----
 72
   65
 73
    2
 40
12
 49
6
 49
-6
  0
LTYPE
  2
long_dashed_dotted
 70
   64
  3
------------- --- --------------
 72
   65
 73
    4
 40
15.25
 49
12
 49
-1.5
 49
0.25
 49
-1.5
  0
LTYPE
  2
long_dashed_double-dotted
 70
   64
  3
----------- --- --- ------------
 72
   65
 73
    6
 40
17
 49
12
 49
-1.5
 49
0.25
 49
-1.5
 49
0.25
 49
-1.5
  0
LTYPE
  2
long_dashed_triplicate-dotted
 70
   64
  3
--------- --- --- --- ----------
 72
   65
 73
    8
 40
18.75
 49
12
 49
-1.5
 49
0.25
 49
-1.5
 49
0.25
 49
-1.5
 49
0.25
 49
-1.5
  0
LTYPE
  2
dotted
 70
   64
  3
   -       -       -       -    
 72
   65
 73
    2
 40
1.75
 49
0.25
 49
-1.5
  0
LTYPE
  2
chain
 70
   64
  3
-------------- -- --------------
 72
   65
 73
    4
 40
18.5
 49
12
 49
-1.5
 49
3.5
 49
-1.5
  0
LTYPE
  2
chain_double_dash
 70
   64
  3
------------ -- -- -------------
 72
   65
 73
    6
 40
23.5
 49
12
 49
-1.5
 49
3.5
 49
-1.5
 49
3.5
 49
-1.5
  0
LTYPE
  2
dashed_dotted
 70
   64
  3
-----------     -     ----------
 72
   65
 73
    4
 40
9.25
 49
6
 49
-1.5
 49
0.25
 49
-1.5
  0
LTYPE
  2
double-dashed_dotted
 70
   64
  3
------   -----------   -   -----
 72
   65
 73
    6
 40
16.75
 49
6
 49
-1.5
 49
6
 49
-1.5
 49
0.25
 49
-1.5
  0
LTYPE
  2
dashed_double-dotted
 70
   64
  3
---------    -    -    ---------
 72
   65
 73
    6
 40
11
 49
6
 49
-1.5
 49
0.25
 49
-1.5
 49
0.25
 49
-1.5
  0
LTYPE
  2
double-dashed_double-dotted
 70
   64
  3
-----   ---------   -   -   ----
 72
   65
 73
    8
 40
18.5
 49
6
 49
-1.5
 49
6
 49
-1.5
 49
0.25
 49
-1.5
 49
0.25
 49
-1.5
  0
LTYPE
  2
dashed_triplicate-dotted
 70
   64
  3
-------    -    -    -    ------
 72
   65
 73
    8
 40
12.75
 49
6
 49
-1.5
 49
0.25
 49
-1.5
 49
0.25
 49
-1.5
 49
0.25
 49
-1.5
  0
LTYPE
  2
double-dashed_triplicate-dotted
 70
   64
  3
-----  ---------  -  -  -  -----
 72
   65
 73
   10
 40
20.25
 49
6
 49
-1.5
 49
6
 49
-1.5
 49
0.25
 49
-1.5
 49
0.25
 49
-1.5
 49
0.25
 49
-1.5
  0
LTYPE
  2
undefined
 70
   64
  3
--------------------------------
 72
   65
 73
    0
 40
0
  0
LTYPE
  2
_
 70
   64
  3
                                
 72
   65
 73
    0
 40
0
  0
LTYPE
  2
__18
 70
   64
  3
                                
 72
   65
 73
    0
 40
0
  0
LTYPE
  2
__19
 70
   64
  3
                                
 72
   65
 73
    0
 40
0
  0
LTYPE
  2
__20
 70
   64
  3
                                
 72
   65
 73
    0
 40
0
  0
LTYPE
  2
__21
 70
   64
  3
                                
 72
   65
 73
    0
 40
0
  0
LTYPE
  2
__22
 70
   64
  3
                                
 72
   65
 73
    0
 40
0
  0
LTYPE
  2
__23
 70
   64
  3
                                
 72
   65
 73
    0
 40
0
  0
LTYPE
  2
__24
 70
   64
  3
                                
 72
   65
 73
    0
 40
0
  0
LTYPE
  2
__25
 70
   64
  3
                                
 72
   65
 73
    0
 40
0
  0
LTYPE
  2
__26
 70
   64
  3
                                
 72
   65
 73
    0
 40
0
  0
LTYPE
  2
__27
 70
   64
  3
                                
 72
   65
 73
    0
 40
0
  0
LTYPE
  2
__28
 70
   64
  3
                                
 72
   65
 73
    0
 40
0
  0
LTYPE
  2
__29
 70
   64
  3
                                
 72
   65
 73
    0
 40
0
  0
LTYPE
  2
__30
 70
   64
  3
                                
 72
   65
 73
    0
 40
0
  0
LTYPE
  2
__31
 70
   64
  3
                                
 72
   65
 73
    0
 40
0
  0
LTYPE
  2
__32
 70
   64
  3
                                
 72
   65
 73
    0
 40
0
  0
ENDTAB
  0
TABLE
  2
STYLE
  5
3
100
AcDbSymbolTable
 70
     1
  0
STYLE
  5
10
100
AcDbSymbolTableRecord
100
AcDbTextStyleTableRecord
  2
STANDARD
 70
     0
 40
0.0
 41
1.0
 50
0.0
 71
     0
 42
0.2
  3
txt
  4
bigfont.shx
  0
STYLE
  5
26
100
AcDbSymbolTableRecord
100
AcDbTextStyleTableRecord
  2
TATEGAKI
 70
    68
 40
0.0
 41
1.0
 50
0.0
 71
     0
 42
1.0
  3
txt
  4
bigfont.shx
  0
ENDTAB
  0
TABLE
  2
LAYER
 70
    2
  0
LAYER
  2
_0-0_
 70
   64
 62
    7
  6
CONTINUOUS
  0
LAYER
  2
ADD_LINE
 70
   64
 62
    7
  6
CONTINUOUS
  0
ENDTAB
  0
ENDSEC
  0
SECTION
  2
BLOCKS
  0
ENDSEC
  0
SECTION
  2
ENTITIES
  0
LINE
  8
_0-0_
  6
CONTINUOUS
 62
    7
 10
225.39376066818511
 20
269.27728711995292
 11
225.39376066818511
 21
270.5961365575788
  0
ARC
  8
_0-0_
  6
CONTINUOUS
 62
    7
 10
225.86811566818511
 20
311.15845768232697
 40
10
 50
180
 51
194.03713868216576
  0
LINE
  8
_0-0_
  6
CONTINUOUS
 62
    7
 10
225.0951477736308
 20
273.02164438694001
 11
216.16672856273942
 21
308.73294985296576
  0
ARC
  8
_0-0_
  6
CONTINUOUS
 62
    7
 10
216.86811566818511
 20
380.60202211995301
 40
1
 50
90
 51
180
  0
ARC
  8
_0-0_
  6
CONTINUOUS
 62
    7
 10
226.39376066818511
 20
248.77728711995286
 40
1
 50
180
 51
270
  0
LINE
  8
_0-0_
  6
CONTINUOUS
 62
    7
 10
222.21866088473075
 20
381.60202211995301
 11
216.86811566818511
 21
381.60202211995301
  0
LINE
  8
_0-0_
  6
CONTINUOUS
 62
    7
 10
408.60639816818508
 20
247.77728711995286
 11
226.39376066818511
 21
247.77728711995286
  0
ARC
  8
_0-0_
  6
CONTINUOUS
 62
    7
 10
408.60639816818508
 20
250.77728711995286
 40
3
 50
270
 51
0
  0
LINE
  8
_0-0_
  6
CONTINUOUS
 62
    7
 10
408.60639816818508
 20
381.60202211995301
 11
216.86811566818511
 21
381.60202211995301
  0
LINE
  8
_0-0_
  6
CONTINUOUS
 62
    7
 10
411.60639816818508
 20
378.60202211995301
 11
411.60639816818508
 21
250.77728711995286
  0
ARC
  8
_0-0_
  6
CONTINUOUS
 62
    7
 10
408.60639816818508
 20
378.60202211995301
 40
3
 50
0
 51
90
  0
CIRCLE
  8
_0-0_
  6
CONTINUOUS
 62
    7
 10
218.86811566818511
 20
378.60202211995301
 40
1.1000000000000001
  0
CIRCLE
  8
_0-0_
  6
CONTINUOUS
 62
    7
 10
228.39376066818511
 20
250.77728711995286
 40
1.1000000000000001
  0
CIRCLE
  8
_0-0_
  6
CONTINUOUS
 62
    7
 10
408.60639816818508
 20
250.77728711995286
 40
1.1000000000000001
  0
CIRCLE
  8
_0-0_
  6
CONTINUOUS
 62
    7
 10
408.60639816818508
 20
378.60202211995301
 40
1.1000000000000001
  0
LINE
  8
_0-0_
  6
CONTINUOUS
 62
    7
 10
215.86811566818511
 20
380.60202211995301
 11
215.86811566818511
 21
311.15845768232697
  0
LINE
  8
_0-0_
  6
CONTINUOUS
 62
    7
 10
225.39376066818511
 20
270.5961365575788
 11
225.39376066818511
 21
248.77728711995286
  0
ARC
  8
_0-0_
  6
CONTINUOUS
 62
    7
 10
215.39376066818511
 20
270.5961365575788
 40
10
 50
0
 51
14.037138682165798
  0
CIRCLE
  8
_0-0_
  6
CONTINUOUS
 62
    7
 10
391.7063981681851
 20
376.57728711995287
 40
1
  0
ARC
  8
_0-0_
  6
CONTINUOUS
 62
    7
 10
382.29417316818507
 20
376.10202211995295
 40
1.5
 50
0
 51
90
  0
LINE
  8
_0-0_
  6
CONTINUOUS
 62
    7
 10
383.79417316818507
 20
358.05202211995294
 11
383.79417316818507
 21
376.10202211995295
  0
ARC
  8
_0-0_
  6
CONTINUOUS
 62
    7
 10
382.29417316818507
 20
358.05202211995294
 40
1.5
 50
270
 51
0
  0
LINE
  8
_0-0_
  6
CONTINUOUS
 62
    7
 10
307.09387316818504
 20
356.55202211995294
 11
382.29417316818507
 21
356.55202211995294
  0
ARC
  8
_0-0_
  6
CONTINUOUS
 62
    7
 10
307.09387316818504
 20
358.05202211995294
 40
1.5
 50
180
 51
270
  0
LINE
  8
_0-0_
  6
CONTINUOUS
 62
    7
 10
305.59387316818504
 20
376.10202211995295
 11
305.59387316818504
 21
358.05202211995294
  0
LINE
  8
_0-0_
  6
CONTINUOUS
 62
    7
 10
307.09387316818504
 20
377.60202211995295
 11
382.29417316818507
 21
377.60202211995295
  0
ARC
  8
_0-0_
  6
CONTINUOUS
 62
    7
 10
307.09387316818504
 20
376.10202211995295
 40
1.5
 50
90
 51
180
  0
ARC
  8
_0-0_
  6
CONTINUOUS
 62
    7
 10
221.36882316818506
 20
376.10202211995295
 40
1.5
 50
90
 51
180
  0
LINE
  8
_0-0_
  6
CONTINUOUS
 62
    7
 10
219.86882316818506
 20
358.05202211995294
 11
219.86882316818506
 21
376.10202211995295
  0
ARC
  8
_0-0_
  6
CONTINUOUS
 62
    7
 10
221.36882316818506
 20
358.05202211995294
 40
1.5
 50
180
 51
270
  0
LINE
  8
_0-0_
  6
CONTINUOUS
 62
    7
 10
296.56887316818518
 20
356.55202211995294
 11
221.36882316818506
 21
356.55202211995294
  0
ARC
  8
_0-0_
  6
CONTINUOUS
 62
    7
 10
296.56887316818518
 20
358.05202211995294
 40
1.5
 50
270
 51
0
  0
LINE
  8
_0-0_
  6
CONTINUOUS
 62
    7
 10
298.06887316818518
 20
376.10202211995295
 11
298.06887316818518
 21
358.05202211995294
  0
LINE
  8
_0-0_
  6
CONTINUOUS
 62
    7
 10
296.56887316818518
 20
377.60202211995295
 11
221.36882316818506
 21
377.60202211995295
  0
ARC
  8
_0-0_
  6
CONTINUOUS
 62
    7
 10
296.56887316818518
 20
376.10202211995295
 40
1.5
 50
0
 51
90
  0
ARC
  8
_0-0_
  6
CONTINUOUS
 62
    7
 10
230.89387316818514
 20
347.52742211995297
 40
1.5
 50
90
 51
180
  0
LINE
  8
_0-0_
  6
CONTINUOUS
 62
    7
 10
382.29417316818507
 20
349.02742211995297
 11
230.89387316818514
 21
349.02742211995297
  0
ARC
  8
_0-0_
  6
CONTINUOUS
 62
    7
 10
382.29417316818507
 20
347.52742211995297
 40
1.5
 50
0
 51
90
  0
ARC
  8
_0-0_
  6
CONTINUOUS
 62
    7
 10
388.05617316818513
 20
347.52742211995297
 40
1.5
 50
90
 51
180
  0
LINE
  8
_0-0_
  6
CONTINUOUS
 62
    7
 10
406.10617316818508
 20
349.02742211995297
 11
388.05617316818513
 21
349.02742211995297
  0
ARC
  8
_0-0_
  6
CONTINUOUS
 62
    7
 10
406.10617316818508
 20
347.52742211995297
 40
1.5
 50
0
 51
90
  0
LINE
  8
_0-0_
  6
CONTINUOUS
 62
    7
 10
386.55617316818513
 20
253.27752211995292
 11
386.55617316818513
 21
347.52742211995297
  0
ARC
  8
_0-0_
  6
CONTINUOUS
 62
    7
 10
388.05617316818513
 20
253.27752211995292
 40
1.5
 50
180
 51
270
  0
LINE
  8
_0-0_
  6
CONTINUOUS
 62
    7
 10
406.10617316818508
 20
251.77752211995292
 11
388.05617316818513
 21
251.77752211995292
  0
LINE
  8
_0-0_
  6
CONTINUOUS
 62
    7
 10
407.60617316818508
 20
253.27752211995292
 11
407.60617316818508
 21
347.52742211995297
  0
ARC
  8
_0-0_
  6
CONTINUOUS
 62
    7
 10
406.10617316818508
 20
253.27752211995292
 40
1.5
 50
270
 51
0
  0
LINE
  8
_0-0_
  6
CONTINUOUS
 62
    7
 10
383.79417316818507
 20
253.27752211995292
 11
383.79417316818507
 21
347.52742211995297
  0
ARC
  8
_0-0_
  6
CONTINUOUS
 62
    7
 10
382.29417316818507
 20
253.27752211995292
 40
1.5
 50
270
 51
0
  0
LINE
  8
_0-0_
  6
CONTINUOUS
 62
    7
 10
240.41853736543518
 20
251.77752211995292
 11
382.29417316818507
 21
251.77752211995292
  0
ARC
  8
_0-0_
  6
CONTINUOUS
 62
    7
 10
240.41853736543518
 20
253.27752211995292
 40
1.5
 50
180
 51
270
  0
LINE
  8
_0-0_
  6
CONTINUOUS
 62
    7
 10
238.91853736543518
 20
269.32747211995297
 11
238.91853736543518
 21
253.27752211995292
  0
ARC
  8
_0-0_
  6
CONTINUOUS
 62
    7
 10
237.41853736543518
 20
269.32747211995297
 40
1.5
 50
0
 51
90
  0
LINE
  8
_0-0_
  6
CONTINUOUS
 62
    7
 10
235.65637316818507
 20
270.82747211995297
 11
237.41853736543518
 21
270.82747211995297
  0
ARC
  8
_0-0_
  6
CONTINUOUS
 62
    7
 10
235.65637316818507
 20
272.32747211995297
 40
1.5
 50
180
 51
270
  0
LINE
  8
_0-0_
  6
CONTINUOUS
 62
    7
 10
234.15637316818507
 20
288.37793390495301
 11
234.15637316818507
 21
272.32747211995297
  0
ARC
  8
_0-0_
  6
CONTINUOUS
 62
    7
 10
232.65637316818507
 20
288.37793390495301
 40
1.5
 50
0
 51
90
  0
LINE
  8
_0-0_
  6
CONTINUOUS
 62
    7
 10
226.13133316818508
 20
289.87793390495301
 11
232.65637316818507
 21
289.87793390495301
  0
ARC
  8
_0-0_
  6
CONTINUOUS
 62
    7
 10
226.13133316818508
 20
291.37793390495301
 40
1.5
 50
180
 51
270
  0
LINE
  8
_0-0_
  6
CONTINUOUS
 62
    7
 10
224.63133316818508
 20
307.42793390495297
 11
224.63133316818508
 21
291.37793390495301
  0
ARC
  8
_0-0_
  6
CONTINUOUS
 62
    7
 10
223.13133316818508
 20
307.42793390495297
 40
1.5
 50
0
 51
90
  0
LINE
  8
_0-0_
  6
CONTINUOUS
 62
    7
 10
221.36882316818506
 20
308.92793390495297
 11
223.13133316818508
 21
308.92793390495297
  0
ARC
  8
_0-0_
  6
CONTINUOUS
 62
    7
 10
221.36882316818506
 20
310.42793390495297
 40
1.5
 50
180
 51
270
  0
LINE
  8
_0-0_
  6
CONTINUOUS
 62
    7
 10
219.86882316818506
 20
328.47742211995296
 11
219.86882316818506
 21
310.42793390495297
  0
ARC
  8
_0-0_
  6
CONTINUOUS
 62
    7
 10
221.36882316818506
 20
328.47742211995296
 40
1.5
 50
90
 51
180
  0
LINE
  8
_0-0_
  6
CONTINUOUS
 62
    7
 10
227.89387316818514
 20
329.97742211995296
 11
221.36882316818506
 21
329.97742211995296
  0
LINE
  8
_0-0_
  6
CONTINUOUS
 62
    7
 10
229.39387316818514
 20
331.47742211995296
 11
229.39387316818514
 21
347.52742211995297
  0
ARC
  8
_0-0_
  6
CONTINUOUS
 62
    7
 10
227.89387316818514
 20
331.47742211995296
 40
1.5
 50
270
 51
0
  0
ENDSEC
  0
EOF
